<?xml version="1.0" encoding="utf-8"?>
<!-- Generator: Adobe Illustrator 16.0.0, SVG Export Plug-In . SVG Version: 6.00 Build 0)  -->
<!DOCTYPE svg PUBLIC "-//W3C//DTD SVG 1.1//EN" "http://www.w3.org/Graphics/SVG/1.1/DTD/svg11.dtd">
<svg version="1.1" id="Layer_1" xmlns="http://www.w3.org/2000/svg" xmlns:xlink="http://www.w3.org/1999/xlink" x="0px" y="0px"
	 width="979.451px" height="365.981px" viewBox="0 0 979.451 365.981" enable-background="new 0 0 979.451 365.981"
	 xml:space="preserve">
<rect fill="#F16624" width="979.451" height="365.981"/>
<text transform="matrix(1 0 0 1 405.481 200.9893)" fill="#FFFFFF" font-family="'MyriadPro-Regular'" font-size="24">Maatschappelijk ondernemend leren</text>
<g>
	<ellipse fill="#F06725" cx="326" cy="95.654" rx="50" ry="57.652"/>
	<g>
		<path fill="#FFFFFF" d="M336.448,94.219c-1.091-0.615-3.212,2.259-3.869,3.279c-0.648,1.006-2.669,3.356-5.579,3.356
			c-2.91,0-4.933-2.351-5.579-3.356c-0.658-1.021-2.655-3.896-3.745-3.279c-1.091,0.615,0.371,4.488,1.028,5.51
			c1.633,2.535,4.141,5.783,8.295,5.783s7.278-3.67,8.911-6.207C336.568,98.285,337.538,94.834,336.448,94.219z"/>
		<path fill="#FFFFFF" d="M340.346,112.85c-8.874,4.178-19.226,4.178-28.099,0c-4.939,4.061-8.089,10.217-8.089,17.108h44.276
			C348.435,123.066,345.285,116.91,340.346,112.85z"/>
		<ellipse fill="#FFFFFF" cx="313.665" cy="86.54" rx="3.682" ry="3.161"/>
		<path fill="#FFFFFF" d="M355.071,91.125c0.739-2.604,1.135-5.35,1.135-8.19c0-14.979-11.01-27.386-25.378-29.569
			c-0.849-0.129,4.055-4.258,3.312-6.586c-0.549-1.725-6.73-1.847-7.385-1.847c-0.607,0-7.308,0.718-8.001,2.462
			c-0.918,2.307,4.164,5.809,3.392,5.916c-14.554,2.021-25.759,14.514-25.759,29.624c0,2.841,0.396,5.587,1.135,8.19
			c-1.759,5.785-5.097,11.041-9.692,15.111c7.66,4.203,16.352,5.084,24.304,3.048c4.216,2.271,9.038,3.56,14.162,3.56
			s9.947-1.289,14.163-3.56c7.952,2.036,16.644,1.155,24.304-3.048C360.167,102.166,356.83,96.91,355.071,91.125z M326.296,109.704
			c-14.783,0-26.77-11.985-26.77-26.77c0-3.026,0.503-5.935,1.428-8.646c16.034,8.864,34.649,8.864,50.684-0.001
			c0.925,2.713,1.428,5.621,1.428,8.647C353.066,97.719,341.08,109.704,326.296,109.704z"/>
		<ellipse fill="#FFFFFF" cx="340.283" cy="86.848" rx="3.683" ry="3.161"/>
	</g>
</g>
<g>
	<ellipse fill="#F06725" cx="429.25" cy="95.654" rx="50" ry="57.652"/>
	<g>
		<g>
			<g>
				<path fill="#FFFFFF" d="M440.328,108.972c-0.869-1.419-1.506-3.742-0.164-12.804c2.167-2.45,3.957-4.705,4.522-5.426
					c-0.067,1.289-0.255,2.622-0.605,4.01c0,0,23.949-45.078-11.334-47.434c0,0-10.231-7.608-20.062,4.348
					c0,0-12.368,13.405-0.159,32.607c12.21,19.202,0.477,16.122,0.477,16.122s7.314,3.76,9.628-0.095
					c0.48,4.69,0.183,6.731-0.352,7.983c-10.369,2.401-24.948,8.251-27.626,21.674h35.632h33.974
					C459.902,117.671,450.078,111.733,440.328,108.972z M422.854,94.982l-0.016-0.23l-0.05-0.726l-2.019-29.861
					c0,0,20.484,7.117,23.56,21.87l-0.603,3.758c-1.009,1.288-2.218,2.762-3.489,4.236c-0.208,0.241-0.418,0.483-0.629,0.724
					c-0.213,0.243-0.428,0.483-0.644,0.725c-3.19,3.57-6.484,6.763-7.836,6.763c-1.351,0-4.645-3.192-7.834-6.763
					C423.147,95.312,423,95.148,422.854,94.982z M431.129,122.833c-6.323,0-11.47-3.332-11.47-7.428
					c0-1.326,0.576-2.641,1.666-3.806l0.14-0.149c0.266-0.271,0.563-0.532,0.889-0.784l0.19-0.221
					c0.455-0.655,0.917-1.317,1.226-2.495c0.45-1.727,0.563-4.572-0.153-10.104c2.814,3.028,5.869,5.84,7.513,5.84
					c1.645,0,4.7-2.812,7.515-5.842c-0.797,6.159-0.562,8.988,0.028,10.674c0.303,0.863,0.698,1.432,1.094,1.997l0.14,0.15
					c0.328,0.255,0.63,0.521,0.896,0.794l0.133,0.14c1.089,1.165,1.666,2.479,1.666,3.806
					C442.599,119.502,437.455,122.833,431.129,122.833z"/>
			</g>
		</g>
		<path fill="#FFFFFF" d="M437.388,86.437c-1.103-0.015-2.656,2.277-3.118,3.062c-0.456,0.772-1.993,2.735-4.696,3.634
			c-2.703,0.897-4.923,0.182-5.669-0.191c-0.759-0.379-3.031-1.401-3.954-0.714c-0.924,0.687,0.995,2.443,1.754,2.822
			c1.885,0.941,4.636,1.825,8.495,0.543c3.859-1.281,6.278-4.144,7.427-6.092C438.089,88.716,438.49,86.451,437.388,86.437z"/>
		<ellipse fill="#FFFFFF" cx="431.079" cy="79.191" rx="3.019" ry="2.96"/>
		<ellipse fill="#FFFFFF" cx="420.958" cy="81.913" rx="3.019" ry="2.96"/>
	</g>
</g>
<g>
	<ellipse fill="#F06725" cx="635.75" cy="95.654" rx="50" ry="57.652"/>
	<g>
		<g>
			<g>
				<path fill="#FFFFFF" d="M602.381,129.958h67.056c6.252,0-5.274-20.914-5.274-20.914c-0.783-1.85-2.326-2.912-3.895-3.61
					l-10.445-3.845l5.218-29.338c0.032-3.477-4.441-6.591-5.304-9.284l13.953-3.876c0.652-0.256,1.652-0.928,1.652-1.681
					s-1-1.426-1.652-1.682L636.468,45.04c-0.361-0.143-0.757-0.143-1.119,0l-27.221,10.688c-0.652,0.256-1.652,0.929-1.652,1.681
					c0,0.753,1,1.426,1.652,1.681l0.77,0.303l0.231,0.091l0.01,4.983h-0.442c-0.308-0.03-0.58,0.211-0.616,0.541l-0.804,2.218
					c-0.113,1.061,0.339,2.118,0.225,3.178c-0.018,0.165,0.025,0.331,0.123,0.46c0.046,0.063,1.3,2.032,2.579,2.035
					c1.332,0.002,2.691-1.966,2.74-2.032c0.096-0.128,0.141-0.293,0.123-0.457l0.273-2.757l-0.847-2.638
					c-0.035-0.334-0.307-0.574-0.614-0.545h-0.442l0.015-4.072l10.25,1.534c-0.821,2.626-4.936,6.681-4.904,10.078
					c0.021,2.184,3.443,25.41,3.438,29.579l-8.687,3.845c-1.568,0.698-3.211,1.837-3.896,3.61
					C607.654,109.044,596.128,129.958,602.381,129.958z M631.313,96.392c-7.582-4.05-10.358-17.333-10.358-17.333
					c2.859-0.512,9.929-7.247,11.264-9.927c0.516,2.655,4.362,6.479,8.843,7.457c3.936,0.859,8.293-2.446,10.19-2.307
					c0,0,0.104,2.793-0.354,4.735c0,0-2.156,13.433-10.263,17.384c0,0,6.214,4.062,5.75,6.205
					c-0.96,4.437-8.773,3.158-10.464,14.252c-0.005,0.029-0.022,0.029-0.026,0c-1.689-11.094-9.524-9.81-10.464-14.252
					C624.972,100.435,631.313,96.392,631.313,96.392z"/>
			</g>
		</g>
		<path fill="#FFFFFF" d="M642.013,79.491c1.605,0,2.907,1.414,2.907,3.159s-1.404,1.628-3.01,1.628
			c-1.606,0-2.806,0.117-2.806-1.628S640.407,79.491,642.013,79.491z"/>
		<path fill="#FFFFFF" d="M629.981,79.952c1.606,0,2.908,1.415,2.908,3.16c0,1.744-0.98,1.781-2.586,1.781s-3.229-0.037-3.229-1.781
			C627.074,81.367,628.375,79.952,629.981,79.952z"/>
		<path fill="#FFFFFF" d="M643.144,88.375c-0.851-0.38-2.504,1.392-3.017,2.021c-0.504,0.619-2.081,2.067-4.349,2.067
			c-2.269,0-3.846-1.448-4.35-2.067c-0.514-0.629-2.069-2.4-2.921-2.021c-0.85,0.379,0.291,2.765,0.803,3.394
			c1.272,1.562,3.229,3.354,6.467,3.354c3.239,0,5.674-2.052,6.946-3.614C643.238,90.88,643.994,88.754,643.144,88.375z"/>
	</g>
</g>
<g>
	<ellipse fill="#F06725" cx="739" cy="95.654" rx="50" ry="57.652"/>
	<g>
		<g>
			<path fill="#FFFFFF" d="M766.341,100.515c0,0-1.522-1.685-5.131-2.801c0,0-0.3-0.075-0.765-0.196
				c-2.723-1.037-10.453-0.755-12.955-1.213c-0.367-1.509-0.436-3.626,0.206-6.705c2.621-2.106,4.79-4.058,5.293-4.511l0.142-0.126
				c0,0,2.331-4.114,3.876-7.862l5.506-2.955l-3.401-3.673c0.298-1.371,0.503-2.776,0.574-4.178l5.009-5.269l-7.341-4.212
				l4.918-5.979l-13.782-0.194l-2.904-5.682l-5.662,4.092c-1.232-0.104-2.432-0.167-3.558-0.167l-9.884-3.925l-2.792,6.967
				c-0.148,0.087-0.283,0.184-0.424,0.275l-10.814-0.188c0,0,3.388,10.38,2.897,10.966c-0.48,0.591-8.948,5.681-8.948,5.681
				l10.338,8.436c0,0,0,0.006,0.007,0.012c1.104,2.72,4.847,7.856,4.847,7.856l0.142,0.12c0.503,0.459,2.333,2.41,4.953,4.517
				c0.809,3.872,1.328,5.453,1.167,6.399c-3.211,1.766-14.092,1.715-14.092,1.715c-3.608,1.12-5.132,2.801-5.132,2.801
				c-5.332,6.41-5.962,20.494-5.962,20.494c0.072,3.257,2.238,8.494,2.238,8.494h65.466c0,0,1.859-5.229,1.927-8.486
				C772.299,121.013,771.674,106.92,766.341,100.515z M727.318,101.363l0.22-0.183c0.523-0.534,1.048-1.068,1.403-2.026
				c0.518-1.4,0.645-3.707-0.178-8.194c3.224,2.456,6.718,5.76,8.595,5.76c1.886,0,5.378-3.304,8.603-5.76
				c-0.914,4.992-0.651,7.287,0.028,8.659c0.347,0.7,0.794,1.159,1.247,1.618l0.163,0.121c0.376,0.206,0.723,0.425,1.027,0.648
				l0.148,0.108c0.429,0.325,0.782,0.665,1.068,1.014c-1.311,6.826-11.782,24.303-11.782,24.303s-9.827-17.792-11.182-24.145
				c-0.096-0.444-0.106-0.957-0.059-1.504C726.842,101.638,727.073,101.496,727.318,101.363z M748.369,98.407
				c-0.066-0.104-0.132-0.212-0.195-0.327C748.238,98.188,748.303,98.296,748.369,98.407z M727.666,88.452
				c-0.24-0.195-0.482-0.391-0.723-0.592c-1.454-1.193-2.834-2.387-3.99-3.432l-1.092-4.825c-0.104-4.499,0.312-10.858,3.077-14.33
				c2.268-2.496,6.298-3.69,14.603-3.569c13.782,0.193,13.782,14.799,13.782,14.799h0.077c-0.057,1-0.113,0.889-0.177,1.199
				l-1.452,6.577c-1.147,1.044-2.537,2.313-3.989,3.507c-0.241,0.201-0.475,0.434-0.723,0.629c-0.241,0.194-0.489,0.408-0.73,0.604
				c-3.649,2.898-7.419,6.176-8.964,6.176c-1.551,0-5.314-3.265-8.963-6.162C728.154,88.837,727.905,88.647,727.666,88.452z"/>
			<path fill="#FFFFFF" d="M748.072,92.178c-0.026-0.092-0.031-0.142-0.031-0.142c-0.129,0.2-0.258,0.368-0.382,0.564
				C747.798,92.459,747.937,92.329,748.072,92.178z"/>
			<path fill="#FFFFFF" d="M726.937,92.04l-0.026,0.117c0.005-0.021,0.031-0.041,0.036-0.062c0,0,0.011,0.017,0.021,0.046
				L726.937,92.04z"/>
			<path fill="#FFFFFF" d="M743.219,96.647c-5.798,2.003-10.511,0-10.511,0l5.255,6.51L743.219,96.647z"/>
			<polygon fill="#FFFFFF" points="737.963,125.049 741.98,105.281 737.963,103.157 733.942,105.281 			"/>
		</g>
		<ellipse fill="#FFFFFF" cx="744.569" cy="73.716" rx="3.327" ry="2.96"/>
		<ellipse fill="#FFFFFF" cx="730.887" cy="73.9" rx="3.591" ry="2.961"/>
		<path fill="#FFFFFF" d="M746.91,82.57c-1.303-0.244-1.726,0.2-2.397,0.865c-0.661,0.653-2.794,3.257-6.138,3.563
			s-5.858-1.871-6.684-2.389c-0.839-0.525-2.851-2.741-4.054-2.267c-1.202,0.474,0.275,3.327,1.113,3.853
			c2.083,1.306,5.337,4.067,10.11,3.63s7.957-4.039,9.627-5.688C749.16,83.473,748.212,82.814,746.91,82.57z"/>
	</g>
</g>
<g>
	<ellipse fill="#F06725" cx="532.5" cy="95.654" rx="50" ry="57.652"/>
	<g>
		<path fill="#FFFFFF" d="M546.696,113.934c-8.312,3.913-18.007,3.913-26.317,0c-4.626,3.803-7.576,9.569-7.576,16.024h41.469
			C554.271,123.503,551.321,117.736,546.696,113.934z"/>
		<g>
			<g>
				<path fill="#FFFFFF" d="M565.86,83.508c1.399-8.052,0.523-35.006-27.481-38.245c-28.004-3.241-30.9,12.742-32.992,18.468
					c-1.771,4.853-0.234,18.637-0.878,20.646c-0.645,2.009,0.613,4.202-0.351,4.903c-0.966,0.703-13.653,21.435,10.063,27.309
					c-9.535-9.625-5.336-17.236-5.336-17.236s2.362,15.222,15.053,15.222c-5.809-6.156-7.107-15.65-7.153-22.73l6.373-11.544
					l13.113-3.604l20.608-2.449c0,0-0.313,10.905,0.693,10.252c0.011,1.032,0.006,2.105-0.026,3.209
					c-0.267,9.562-9.428,21.824-24.324,22.405c2.887,4.634,14.96-1.577,14.96-1.577s0.613,4.471-6.565,5.425
					c4.466,2.101,10.941-1.838,10.941-1.838s-0.949,4.447-4.077,4.646C573.194,119.753,564.486,91.408,565.86,83.508z"/>
			</g>
		</g>
		<ellipse fill="#FFFFFF" cx="544.62" cy="87.275" rx="3.449" ry="2.96"/>
		<ellipse fill="#FFFFFF" cx="529.056" cy="88.14" rx="3.448" ry="2.96"/>
		<path fill="#FFFFFF" d="M545.351,96.295c-1.021-0.42-3.008,1.539-3.624,2.234c-0.605,0.685-2.5,2.286-5.226,2.286
			c-2.725,0-4.619-1.602-5.225-2.286c-0.615-0.695-2.486-2.654-3.508-2.234c-1.021,0.419,0.348,3.058,0.964,3.753
			c1.529,1.728,3.879,3.708,7.769,3.708c3.891,0,6.817-2.269,8.347-3.996C545.463,99.064,546.372,96.714,545.351,96.295z"/>
	</g>
</g>
</svg>
