<?xml version="1.0" encoding="utf-8"?>
<!-- Generator: Adobe Illustrator 16.0.0, SVG Export Plug-In . SVG Version: 6.00 Build 0)  -->
<!DOCTYPE svg PUBLIC "-//W3C//DTD SVG 1.1//EN" "http://www.w3.org/Graphics/SVG/1.1/DTD/svg11.dtd">
<svg version="1.1" id="Layer_1" xmlns="http://www.w3.org/2000/svg" xmlns:xlink="http://www.w3.org/1999/xlink" x="0px" y="0px"
	 width="569.044px" height="502.534px" viewBox="0 0 569.044 502.534" enable-background="new 0 0 569.044 502.534"
	 xml:space="preserve">
<g>
	<g>
		
			<image overflow="visible" opacity="0.75" width="681" height="629" xlink:href="2D6480A95E0F7883.png"  transform="matrix(0.24 0 0 0.24 -24.1118 356.9395)">
		</image>
		<g>
			<g>
				<linearGradient id="SVGID_1_" gradientUnits="userSpaceOnUse" x1="26.5718" y1="424.0273" x2="32.2138" y2="424.0273">
					<stop  offset="0.0039" style="stop-color:#333333"/>
					<stop  offset="0.9765" style="stop-color:#67615E"/>
				</linearGradient>
				<polygon fill="url(#SVGID_1_)" points="25.144,446.821 25.74,413.787 25.74,405.42 27.389,404.821 27.389,430.52 
					30.691,401.233 32.065,401.233 27.939,445.46 				"/>
				<linearGradient id="SVGID_2_" gradientUnits="userSpaceOnUse" x1="35.2686" y1="420.3604" x2="37.0631" y2="420.3604">
					<stop  offset="0.0039" style="stop-color:#333333"/>
					<stop  offset="0.9765" style="stop-color:#67615E"/>
				</linearGradient>
				<polygon fill="url(#SVGID_2_)" points="35.365,444.265 34.814,399.443 36.189,396.457 37.016,443.668 				"/>
				<linearGradient id="SVGID_3_" gradientUnits="userSpaceOnUse" x1="41.3755" y1="422.1523" x2="43.3945" y2="422.1523">
					<stop  offset="0.0039" style="stop-color:#333333"/>
					<stop  offset="0.9765" style="stop-color:#67615E"/>
				</linearGradient>
				<polygon fill="url(#SVGID_3_)" points="41.417,446.655 40.864,412.588 40.864,397.051 42.24,401.233 43.066,423.946 
					43.341,447.254 				"/>
				<linearGradient id="SVGID_4_" gradientUnits="userSpaceOnUse" x1="46.0469" y1="418.9795" x2="48.0651" y2="418.9795">
					<stop  offset="0.0039" style="stop-color:#333333"/>
					<stop  offset="0.9765" style="stop-color:#67615E"/>
				</linearGradient>
				<polygon fill="url(#SVGID_4_)" points="46.085,443.483 45.536,409.418 45.536,393.881 46.911,398.063 47.735,420.774 
					48.012,444.079 				"/>
				<linearGradient id="SVGID_5_" gradientUnits="userSpaceOnUse" x1="52.1025" y1="430.5186" x2="54.12" y2="430.5186">
					<stop  offset="0.0039" style="stop-color:#333333"/>
					<stop  offset="0.9765" style="stop-color:#67615E"/>
				</linearGradient>
				<polygon fill="url(#SVGID_5_)" points="51.865,448.447 51.592,413.188 52.968,411.395 54.067,449.643 				"/>
				<linearGradient id="SVGID_6_" gradientUnits="userSpaceOnUse" x1="58.3145" y1="435.2979" x2="59.8834" y2="435.2979">
					<stop  offset="0.0039" style="stop-color:#333333"/>
					<stop  offset="0.9765" style="stop-color:#67615E"/>
				</linearGradient>
				<polygon fill="url(#SVGID_6_)" points="57.917,450.241 57.917,419.163 59.018,419.76 59.842,451.434 				"/>
				<linearGradient id="SVGID_7_" gradientUnits="userSpaceOnUse" x1="67.1704" y1="434.4053" x2="68.9666" y2="434.4053">
					<stop  offset="0.0039" style="stop-color:#333333"/>
					<stop  offset="0.9765" style="stop-color:#67615E"/>
				</linearGradient>
				<polygon fill="url(#SVGID_7_)" points="66.716,451.434 66.993,414.982 68.919,415.577 68.643,453.829 				"/>
				<linearGradient id="SVGID_8_" gradientUnits="userSpaceOnUse" x1="78.1914" y1="436.2373" x2="79.9665" y2="436.2373">
					<stop  offset="0.0039" style="stop-color:#333333"/>
					<stop  offset="0.9765" style="stop-color:#67615E"/>
				</linearGradient>
				<polygon fill="url(#SVGID_8_)" points="77.742,456.299 79.92,455.022 79.371,417.973 78.544,416.176 				"/>
				<linearGradient id="SVGID_9_" gradientUnits="userSpaceOnUse" x1="80.3047" y1="434.5146" x2="90.5289" y2="434.5146">
					<stop  offset="0.0039" style="stop-color:#333333"/>
					<stop  offset="0.9765" style="stop-color:#67615E"/>
				</linearGradient>
				<polygon fill="url(#SVGID_9_)" points="84.148,456.198 84.562,431.828 90.26,420.303 87.621,422.15 84.044,428.726 
					84.044,419.76 82.67,419.76 82.67,431.118 79.371,417.973 77.717,412.83 82.67,435.299 82.395,455.022 				"/>
				<linearGradient id="SVGID_10_" gradientUnits="userSpaceOnUse" x1="96.1235" y1="443.5059" x2="100.3833" y2="443.5059">
					<stop  offset="0.0039" style="stop-color:#333333"/>
					<stop  offset="0.9765" style="stop-color:#67615E"/>
				</linearGradient>
				<path fill="url(#SVGID_10_)" d="M96.127,461.87l0.02-16.41l-1.102-7.172v-11.953l0.552-3.586c0,0,0.55,11.955,0.55,14.94
					c0,2.989,1.375,5.38,1.375,5.38l1.392-13.331l1.357-2.206c0,0-0.274,10.756-1.1,13.146c-0.824,2.391-1.098,7.172-1.098,7.172
					l0.255,16.412L96.127,461.87z"/>
				<linearGradient id="SVGID_11_" gradientUnits="userSpaceOnUse" x1="110.2075" y1="450.9561" x2="114.691" y2="450.9561">
					<stop  offset="0.0039" style="stop-color:#333333"/>
					<stop  offset="0.9765" style="stop-color:#67615E"/>
				</linearGradient>
				<path fill="url(#SVGID_11_)" d="M110.071,469.118l-0.448-17.685l-0.55-12.549l0.55-7.767l0.827,16.136
					c0,0,0.824-4.783,1.1-6.575c0.274-1.794,3.023-5.38,3.023-5.38s-1.925,4.185-2.201,7.771c-0.274,3.586-0.823,7.769-0.823,10.159
					s-0.196,17.566-0.196,17.566L110.071,469.118z"/>
				<linearGradient id="SVGID_12_" gradientUnits="userSpaceOnUse" x1="102.3252" y1="440.1719" x2="106.8098" y2="440.1719">
					<stop  offset="0.0039" style="stop-color:#333333"/>
					<stop  offset="0.9765" style="stop-color:#67615E"/>
				</linearGradient>
				<path fill="url(#SVGID_12_)" d="M102.188,458.336l-0.449-17.684l-0.55-12.548l0.55-7.771l0.828,16.134
					c0,0,0.822-4.781,1.099-6.573c0.275-1.79,3.025-5.378,3.025-5.378s-1.928,4.183-2.202,7.766
					c-0.274,3.591-0.824,7.775-0.824,10.164s-0.195,17.563-0.195,17.563L102.188,458.336z"/>
			</g>
		</g>
	</g>
	<g>
		
			<linearGradient id="SVGID_13_" gradientUnits="userSpaceOnUse" x1="-7818.605" y1="139.5557" x2="-5219.0298" y2="139.5557" gradientTransform="matrix(-0.0032 -0.0685 -0.9066 0.2138 141.7366 -90.8705)">
			<stop  offset="0.0039" style="stop-color:#333333"/>
			<stop  offset="0.9765" style="stop-color:#92827B"/>
		</linearGradient>
		<path fill="url(#SVGID_13_)" d="M71.401,471.209c-1.968,6.375-22.528-12.107-24.149-5.477c5.685-8.899-4.368-11.369,1.287-21.913
			c-1.111,2.177-3.15,3.831-4.161,5.876c6.174-12.237,37.126-72.082,29.693-86.133c-9.12-33.673-22.396,25.155-25.342,34.034
			C29.991,352.208,8.976,440.881,0,467.737C23.968,468.102,47.305,471.209,71.401,471.209z"/>
		
			<linearGradient id="SVGID_14_" gradientUnits="userSpaceOnUse" x1="-2089.2969" y1="-169.2959" x2="762.9846" y2="-169.2959" gradientTransform="matrix(-0.0308 -0.6732 -0.9066 0.2138 113.5585 -9.5597)">
			<stop  offset="0.0039" style="stop-color:#5E5B5E"/>
			<stop  offset="0.9765" style="stop-color:#8B7F78"/>
		</linearGradient>
		<path fill="url(#SVGID_14_)" d="M232.011,264.364c2.419-8.211,73.514-252.49,81.654-237.107c2.471,5.613,0.316,13.86-0.938,19.192
			c4.811-13.002-0.03-35.756,5.629-46.449c-6.18,0-26.036,35.042-32.424,42.579C267.966,116.513,249.986,190.439,232.011,264.364z"
			/>
		
			<linearGradient id="SVGID_15_" gradientUnits="userSpaceOnUse" x1="-7608.9429" y1="-169.7314" x2="-4704.6685" y2="-169.7314" gradientTransform="matrix(-0.0032 -0.0685 -0.9066 0.2138 141.7366 -90.8705)">
			<stop  offset="0.0039" style="stop-color:#333333"/>
			<stop  offset="0.9765" style="stop-color:#92827B"/>
		</linearGradient>
		<path fill="url(#SVGID_15_)" d="M287.98,40.001c10.29-11.825,20.458-23.694,29.096-39.684
			C304.384,0.317,288.508,39.338,287.98,40.001C294.296,32.74,287.214,40.966,287.98,40.001z"/>
		
			<linearGradient id="SVGID_16_" gradientUnits="userSpaceOnUse" x1="16441.166" y1="148.3936" x2="18923.0352" y2="148.3936" gradientTransform="matrix(0.0263 -0.022 -0.7181 -0.5895 -62.6059 533.176)">
			<stop  offset="0.0039" style="stop-color:#B9B0AC"/>
			<stop  offset="0.7608" style="stop-color:#C2B8B3"/>
			<stop  offset="0.9882" style="stop-color:#E8DAB6"/>
		</linearGradient>
		<path fill="url(#SVGID_16_)" d="M318.356,0c-4.671,0-7.349,70.658-7.764,82.424c4.128-14.108,8.083-28.199,13.652-40.489
			c0.672,1.106-0.559,5.692-0.17,7.261C326.049,50.127,323.758,0,318.356,0C316.992,2.581,318.528,0,318.356,0z"/>
		
			<linearGradient id="SVGID_17_" gradientUnits="userSpaceOnUse" x1="-10293.0977" y1="-232.6587" x2="-7811.6104" y2="-232.6587" gradientTransform="matrix(-0.0019 -0.0411 -0.9066 0.2138 117.5264 -105.441)">
			<stop  offset="0.0039" style="stop-color:#67615E"/>
			<stop  offset="0.9765" style="stop-color:#AA9E98"/>
		</linearGradient>
		<path fill="url(#SVGID_17_)" d="M344.125,80.163c-7.414-3.728-8.798,18.757-8.107,32.42
			C335.877,114.459,344.196,80.163,344.125,80.163C342.844,79.521,344.38,80.163,344.125,80.163z"/>
		
			<linearGradient id="SVGID_18_" gradientUnits="userSpaceOnUse" x1="-10612.6113" y1="-224.9277" x2="-7958.5781" y2="-224.9277" gradientTransform="matrix(-0.0019 -0.0411 -0.9066 0.2138 117.5264 -105.441)">
			<stop  offset="0.0039" style="stop-color:#B9B0AC"/>
			<stop  offset="0.7608" style="stop-color:#C2B8B3"/>
			<stop  offset="0.9882" style="stop-color:#E8DAB6"/>
		</linearGradient>
		<path fill="url(#SVGID_18_)" d="M325.524,50.646c9.315,2.519,2.276,32.377-0.171,38.388c5.818-10.143,16.935-11.655,12.543-30.159
			C336.804,56.659,326.736,46.066,325.524,50.646C327.317,51.129,325.608,50.324,325.524,50.646z"/>
		
			<linearGradient id="SVGID_19_" gradientUnits="userSpaceOnUse" x1="-6919.1333" y1="-156.8174" x2="-4042.4189" y2="-156.8174" gradientTransform="matrix(-0.0204 -0.0967 -0.8559 0.3789 29.6181 -282.9418)">
			<stop  offset="0.0039" style="stop-color:#67615E"/>
			<stop  offset="0.9765" style="stop-color:#C5BCB7"/>
		</linearGradient>
		<path fill="url(#SVGID_19_)" d="M325.695,49.841c-2.104-0.8-3.166,0.67-1.45-7.906c-16.987,16.237-4.558,58.743-1.706,75.327
			c-5.774,10.543-6.405,25.342-10.666,36.612c-2.934,7.092-2.655,17.831,0.427,24.68c10.905,23.556,2.707,31.591-2.135,56.779
			c-7.997,45.347-20.566,91.461-35.12,132.093c-4.59,12.807-23.053,92.844-30.666,96.784
			c20.377-19.205,39.89-111.229,52.601-145.323c16.79-45.032,33.338-108.109,35.112-161.461c0.122,7.636,0.519,15.217,1.194,22.739
			c2.914-3.295,10.034-109.336,4.608-121.291c4.351,18.341-6.926,20.507-12.543,31.131c-0.346-13.362-0.528-26.788-0.342-40.164
			C325.011,50.92,325.695,51.077,325.695,49.841C325.27,49.679,325.695,50.16,325.695,49.841z"/>
		
			<linearGradient id="SVGID_20_" gradientUnits="userSpaceOnUse" x1="-10585.625" y1="-220.4224" x2="-7946.9023" y2="-220.4224" gradientTransform="matrix(-0.0019 -0.0411 -0.9066 0.2138 117.5264 -105.441)">
			<stop  offset="0.0039" style="stop-color:#67615E"/>
			<stop  offset="0.9765" style="stop-color:#B7ABA5"/>
		</linearGradient>
		<path fill="url(#SVGID_20_)" d="M325.524,50.646c-0.452,0.184-0.624-0.086-0.513-0.805c-0.166,12.141-0.024,24.324,0.259,36.452
			C326.796,79.367,335.647,53.38,325.524,50.646C325.353,50.487,327.317,51.129,325.524,50.646z"/>
		
			<linearGradient id="SVGID_21_" gradientUnits="userSpaceOnUse" x1="-7515.0659" y1="-69.4331" x2="-4855.3633" y2="-69.4331" gradientTransform="matrix(-0.0032 -0.0685 -0.9066 0.2138 141.7366 -90.8705)">
			<stop  offset="0.0039" style="stop-color:#333333"/>
			<stop  offset="0.9765" style="stop-color:#92827B"/>
		</linearGradient>
		<path fill="url(#SVGID_21_)" d="M314.597,53c-24.453,54.491-64.348,156.117-87.789,211.364
			c14.632-41.855,36.067-85.017,35.21-132.587c-6.25,2.247-27.819,76.628-35.21,92.264c-9.203,19.615-14.354,42.178-20.882,63.452
			c-13.22,43.046-25.085,84.61-46.968,121.571c-13.416,22.658-33.801,45.578-42.116,72.651
			c26.674,6.437,91.891,18.834,97.458-36.112c6.364-62.839,14.783-114.264,36.446-171.304
			c21.743-57.246,77.68-126.157,77.899-194.298L314.597,53z"/>
		
			<linearGradient id="SVGID_22_" gradientUnits="userSpaceOnUse" x1="-12730.4219" y1="-118.3135" x2="-9954.4688" y2="-118.3135" gradientTransform="matrix(-0.0015 -0.0326 -0.9066 0.2138 150.5731 -147.6588)">
			<stop  offset="0.0039" style="stop-color:#575352"/>
			<stop  offset="0.9412" style="stop-color:#A79993"/>
		</linearGradient>
		<path fill="url(#SVGID_22_)" d="M233.458,413.081c26.708-53.621,40.482-140.894,58.518-206.537
			c4.532-16.499,21.537-36.381,27.404-50.552c4.262-11.271-2.541-27.795,3.158-38.567c-11.899-2.603-20.43-43.481-10.922-61.457
			C272.263,172.907,257.868,291.303,233.458,413.081z"/>
		
			<linearGradient id="SVGID_23_" gradientUnits="userSpaceOnUse" x1="-9328.7148" y1="-226.4854" x2="-6441.7129" y2="-226.4854" gradientTransform="matrix(-0.0096 -0.0356 -0.9614 0.396 -8.8352 25.0582)">
			<stop  offset="0.0039" style="stop-color:#67615E"/>
			<stop  offset="0.9765" style="stop-color:#988A84"/>
		</linearGradient>
		<path fill="url(#SVGID_23_)" d="M312.973,25.941c-64.823,59.248-44.73,152.423-73.671,198.703
			c-11.195,17.905-20.519,62.942-12.017,76.98c-6.159-10.17,31.809-93.662,35.643-105.962
			c19.588-62.778,51.836-83.005,53.788-134.252C314.977,67.674,317.715,21.304,312.973,25.941
			C296.272,40.081,315.372,23.75,312.973,25.941z"/>
		
			<linearGradient id="SVGID_24_" gradientUnits="userSpaceOnUse" x1="-11329.1797" y1="-218.5889" x2="-8273.9346" y2="-218.5889" gradientTransform="matrix(-0.0019 -0.0411 -0.9066 0.2138 117.5264 -105.441)">
			<stop  offset="0.0039" style="stop-color:#67615E"/>
			<stop  offset="0.9765" style="stop-color:#B7ABA5"/>
		</linearGradient>
		<path fill="url(#SVGID_24_)" d="M328.425,84.035C326.429,87.121,322.051,96.067,328.425,84.035
			C327.487,85.488,327.487,85.806,328.425,84.035z"/>
		
			<linearGradient id="SVGID_25_" gradientUnits="userSpaceOnUse" x1="-13170.4805" y1="-166.834" x2="-10407.7285" y2="-166.834" gradientTransform="matrix(-0.0015 -0.0326 -0.9066 0.2138 145.9725 -112.2091)">
			<stop  offset="0.0039" style="stop-color:#67615E"/>
			<stop  offset="0.9922" style="stop-color:#9C8E87"/>
		</linearGradient>
		<path fill="url(#SVGID_25_)" d="M337.192,180.165c-0.678-7.522-4.977-15.104-5.099-22.739
			c-19.45,57.312-50.37,124.841-39.249,171.622c0.201-0.38,0.228-0.433,0.085-0.161c35.649-49.483,43.175-143.365,43.175-219.528
			C336.105,116.843,342.117,174.588,337.192,180.165z"/>
		
			<linearGradient id="SVGID_26_" gradientUnits="userSpaceOnUse" x1="-11784.5781" y1="-206.6396" x2="-9125.2344" y2="-206.6396" gradientTransform="matrix(-0.0015 -0.0326 -0.9066 0.2138 142.4227 -170.5587)">
			<stop  offset="0.0039" style="stop-color:#AFA19B"/>
			<stop  offset="0.9922" style="stop-color:#C5BCB7"/>
		</linearGradient>
		<path fill="url(#SVGID_26_)" d="M342.307,115.205c-2.156,9.257-0.565,24.377-1.081,34.477c6.864-33.399,5.379,7.354,5.46,6.289
			c3.048-20.179,5.188-40.884,1.705-60.646C347.415,103.8,342.903,110.85,342.307,115.205z"/>
		
			<linearGradient id="SVGID_27_" gradientUnits="userSpaceOnUse" x1="12687.4453" y1="-156.3145" x2="15294.001" y2="-156.3145" gradientTransform="matrix(0.0152 -0.0201 -0.845 -0.399 19.7432 364.0292)">
			<stop  offset="0.0039" style="stop-color:#67615E"/>
			<stop  offset="0.9765" style="stop-color:#DAD2CE"/>
		</linearGradient>
		<path fill="url(#SVGID_27_)" d="M348.391,95.325c-0.117-6.114-1.308-11.009-3.585-14.676
			c-16.381,36.451-8.878,74.289-12.584,114.892c2.119-3.921,6.345-16.335,6.611-22.634c-3.632,30.215,5.81-24.534,4.058,7.815
			c-1.104,20.397-3.058,40.716-4.908,60.899c-0.106-7.576,1.301-12.089,4.223-13.529c0.61,12.239-0.099,26.639-0.979,38.414
			c5.561-31.593,32.472-131.179,9.297-160.374c-3.196,10.277-1.94,37.271-3.837,49.838c-0.081,1.065,1.404-39.688-5.46-6.289
			C341.498,132.073,346.374,112.609,348.391,95.325C347.708,91.777,346.94,107.747,348.391,95.325z"/>
		
			<linearGradient id="SVGID_28_" gradientUnits="userSpaceOnUse" x1="-13087.5957" y1="-193.8931" x2="-10303.5098" y2="-193.8931" gradientTransform="matrix(-0.0015 -0.0326 -0.9066 0.2138 145.9725 -112.2091)">
			<stop  offset="0.0039" style="stop-color:#67615E"/>
			<stop  offset="0.9922" style="stop-color:#9C8E87"/>
		</linearGradient>
		<path fill="url(#SVGID_28_)" d="M338.833,172.907c-1.135,5-2.272,10.002-3.411,15.005
			C337.167,181.317,337.811,181.416,338.833,172.907C338.75,173.07,338.406,176.454,338.833,172.907z"/>
		
			<linearGradient id="SVGID_29_" gradientUnits="userSpaceOnUse" x1="38167.0078" y1="1263.1924" x2="41395.7773" y2="1263.1924" gradientTransform="matrix(0.02 0.0098 0.6165 -0.6256 -1214.8096 690.9702)">
			<stop  offset="0.0039" style="stop-color:#C8C1BD"/>
			<stop  offset="0.9765" style="stop-color:#6B6B6A"/>
		</linearGradient>
		<path fill="url(#SVGID_29_)" d="M328.704,310.418c-3.248,22.515,9.012,37.938,7.484,61.957c1.016-0.486,3.87-5.712,3.87,0
			c2.538-14.768,9.144-82.554,15.863-90.185c9.706-31.405,23.322-66.168,23.296-69.68c-4.271-4.694-8.708-8.728-13.311-12.095
			C352.429,225.399,333.56,274.611,328.704,310.418z M379.815,227.353C379.852,227.865,379.815,228.471,379.815,227.353
			C379.815,227.353,379.815,227.512,379.815,227.353z"/>
		
			<linearGradient id="SVGID_30_" gradientUnits="userSpaceOnUse" x1="59970.0547" y1="1038.8701" x2="62685.3164" y2="1038.8701" gradientTransform="matrix(0.0164 0.0031 0.4266 -0.6899 -1119.5659 779.8763)">
			<stop  offset="0.0039" style="stop-color:#A0928B"/>
			<stop  offset="0.9765" style="stop-color:#6B6B6A"/>
		</linearGradient>
		<path fill="url(#SVGID_30_)" d="M321.366,255.725c-7.144,18.919-28.486,53.789-29.606,77.22
			c17.898-26.721,64.887-71.947,50.446-104.852c-2.922,1.44-4.329,5.953-4.223,13.529c0.164-1.812,6.766-72.306,4.861-72.585
			c-2.646,0-6.252,17.471-9.215,22.259C326.159,210.485,328.901,235.766,321.366,255.725z"/>
		
			<linearGradient id="SVGID_31_" gradientUnits="userSpaceOnUse" x1="-25453.3926" y1="353.6924" x2="-22583.543" y2="353.6924" gradientTransform="matrix(-0.0264 -0.0207 -0.7232 0.561 -25.3529 -367.5315)">
			<stop  offset="0.0039" style="stop-color:#333333"/>
			<stop  offset="0.9765" style="stop-color:#AFA19B"/>
		</linearGradient>
		<path fill="url(#SVGID_31_)" d="M327.066,370.665c-16.287,34.549-32.931,68.563-48.962,103.557
			c-10.566,15.958,63.524-140.912,69.197-89.04c-7.126-38.574,11.245-120.36,30.546-138.877c0.488,0.37-2.217,25.847-2.9,30.166
			c9.458-32.612,28.174-84.773,19.612-122.516c-9.626,23.776-20.974,55.689-23.964,77.515
			C374.768,223.582,350.437,321.097,327.066,370.665z"/>
		
			<linearGradient id="SVGID_32_" gradientUnits="userSpaceOnUse" x1="-2104.2246" y1="-252.2827" x2="845.8044" y2="-252.2827" gradientTransform="matrix(-0.0308 -0.6732 -0.9066 0.2138 113.5585 -9.5597)">
			<stop  offset="0.0039" style="stop-color:#979297"/>
			<stop  offset="0.9765" style="stop-color:#8B7F78"/>
		</linearGradient>
		<path fill="url(#SVGID_32_)" d="M329.192,286.37c-11.812,37.618-27.822,65.66-41.992,98.492
			c-6.821,15.804-16.357,67.854-25.794,76.824c6.981-36.948,161.339-78.4,175.135-108.81
			c88.236-194.507-81.489-113.997-70.572-152.8c0,0-11.978,0-18.288,13.482C347.511,213.721,333.474,272.893,329.192,286.37z"/>
		
			<linearGradient id="SVGID_33_" gradientUnits="userSpaceOnUse" x1="-8341.8223" y1="-190.7354" x2="-5525.7764" y2="-190.7354" gradientTransform="matrix(-0.0027 -0.0587 -0.9066 0.2138 86.9829 -71.7491)">
			<stop  offset="0.0039" style="stop-color:#333333"/>
			<stop  offset="0.9765" style="stop-color:#908686"/>
		</linearGradient>
		<path fill="url(#SVGID_33_)" d="M298.393,190.49c-15.093,24.14-23.213,78.184-31.751,109.911
			c-11.132,41.343-32.892,92.486-30.367,135.263c4.531-35.927,13.151-18.512,26.789-41.865
			c12.963-22.187,21.15-53.707,29.441-82.176c6.23-26.623,19.028-57.656,23.783-84.624c2.616-13.619,3.126-26.667,6.252-39.854
			c-4.603-7.651-10.944-8.878-12.714-19.72C306.844,176.608,303.031,184.298,298.393,190.49
			C296.172,194.04,301.037,186.457,298.393,190.49z"/>
		
			<linearGradient id="SVGID_34_" gradientUnits="userSpaceOnUse" x1="12750.9863" y1="-258.0811" x2="14995.6084" y2="-258.0811" gradientTransform="matrix(0.0245 -0.0353 -0.6795 -0.6428 -131.4242 554.3361)">
			<stop  offset="0.0039" style="stop-color:#B9B0AC"/>
			<stop  offset="0.7098" style="stop-color:#CCC5C2"/>
			<stop  offset="0.9608" style="stop-color:#EEE4CE"/>
		</linearGradient>
		<path fill="url(#SVGID_34_)" d="M395.121,154.044c8.696,50.177-12.285,109.781-27.21,151.276
			c11.481-24.565,13.573-66.447,32.766-38.388c-0.154-18.048-0.067-34.647-1.621-52.423c7.456,0,11.32-1.539,18.086-3.714
			c-5.608-20.659-5.301-62.936-22.232-56.935C396.53,163.214,396.486,153.561,395.121,154.044z"/>
		<path fill="#B4A7A0" d="M390.887,227.022c9.813-12.695,9.623-78.688,3.671-73.067c0.173,3.387,0.683-0.647,0,0"/>
		
			<linearGradient id="SVGID_35_" gradientUnits="userSpaceOnUse" x1="17740.8125" y1="1424.4385" x2="20472.0625" y2="1424.4385" gradientTransform="matrix(0.0308 0.026 0.7273 -0.5838 -1226.9795 566.1431)">
			<stop  offset="0.0039" style="stop-color:#D1C9C5"/>
			<stop  offset="0.4745" style="stop-color:#A0928B"/>
			<stop  offset="0.9765" style="stop-color:#2A2A28"/>
		</linearGradient>
		<path fill="url(#SVGID_35_)" d="M388.324,170.974c0.229,44.233,10.866,78.07-13.565,112.746
			c5.869-6.123,32.069-61.177,33.96-59.034c-6.329-13.17-4.978-42.447-2.304-57.423c-3.155,4.903-6.311,6.13-10.58,6.13
			C393.307,172.873,390.803,172.065,388.324,170.974z"/>
		
			<linearGradient id="SVGID_36_" gradientUnits="userSpaceOnUse" x1="-6153.9966" y1="-308.9199" x2="-3560.6482" y2="-308.9199" gradientTransform="matrix(-0.0039 -0.0844 -0.9066 0.2138 112.692 -22.7932)">
			<stop  offset="0.0039" style="stop-color:#5A5A5A"/>
			<stop  offset="0.9765" style="stop-color:#A69B95"/>
		</linearGradient>
		<path fill="url(#SVGID_36_)" d="M404.366,188.554c0,11.321,1.736,20.874,3.073,31.775
			C407.439,214.678,408.618,186.553,404.366,188.554C404.366,193.877,404.707,188.396,404.366,188.554z"/>
		
			<linearGradient id="SVGID_37_" gradientUnits="userSpaceOnUse" x1="-6084.7622" y1="-320.4199" x2="-3524.3586" y2="-320.4199" gradientTransform="matrix(-0.0039 -0.0844 -0.9066 0.2138 112.692 -22.7932)">
			<stop  offset="0.0039" style="stop-color:#5A5A5A"/>
			<stop  offset="0.9765" style="stop-color:#BAB0A9"/>
		</linearGradient>
		<path fill="url(#SVGID_37_)" d="M412.389,194.523c-2.728-3.023-5.59-5.483-8.582-7.378c2.694,38.29-1.01,21.248-4.732,50.766
			c-1.434,11.368-8.053,20.64-10.323,31.453c7.798,0,26.581-15.917,23.089,18.913c0.654-6.539-6.881-10.457-8.331-11.496
			c-11.034,61.269,39.602,108.997,55.379,164.366c-14.178-59.306-24.85-120.702-25.94-185.172
			c-2.819,9.379-6.614,17.131-8.871,26.291C425.804,272.467,418.218,205.548,412.389,194.523
			C411.364,192.427,414.01,197.588,412.389,194.523z"/>
		
			<linearGradient id="SVGID_38_" gradientUnits="userSpaceOnUse" x1="-1812.6372" y1="-330.8701" x2="662.3093" y2="-330.8701" gradientTransform="matrix(-0.0308 -0.6732 -0.9066 0.2138 113.5585 -9.5597)">
			<stop  offset="0.0039" style="stop-color:#333333"/>
			<stop  offset="0.9765" style="stop-color:#81756E"/>
		</linearGradient>
		<path fill="url(#SVGID_38_)" d="M417.588,217.263c4.175,67.292,5.592,30.277,18.86-5.316
			C434.775,201.929,417.031,206.731,417.588,217.263C417.761,220.008,417.507,215.654,417.588,217.263z"/>
		
			<linearGradient id="SVGID_39_" gradientUnits="userSpaceOnUse" x1="-6443.1587" y1="-302" x2="-3554.26" y2="-302" gradientTransform="matrix(-0.0039 -0.0844 -0.9066 0.2138 112.692 -22.7932)">
			<stop  offset="0.0039" style="stop-color:#5A5A5A"/>
			<stop  offset="0.9765" style="stop-color:#A69B95"/>
		</linearGradient>
		<path fill="url(#SVGID_39_)" d="M408.718,224.686c-6.2-7.03-13.593,16.72-14.42,26.129
			C397.511,239.146,402.321,230.438,408.718,224.686C407.439,223.235,405.561,226.619,408.718,224.686z"/>
		
			<linearGradient id="SVGID_40_" gradientUnits="userSpaceOnUse" x1="-1993.5562" y1="-289.873" x2="783.416" y2="-289.873" gradientTransform="matrix(-0.0308 -0.6732 -0.9066 0.2138 113.5585 -9.5597)">
			<stop  offset="0.0039" style="stop-color:#979297"/>
			<stop  offset="0.9765" style="stop-color:#8B7F78"/>
		</linearGradient>
		<path fill="url(#SVGID_40_)" d="M390.542,238.88C390.558,238.625,390.542,237.49,390.542,238.88
			C390.542,238.88,390.542,238.555,390.542,238.88z"/>
		
			<linearGradient id="SVGID_41_" gradientUnits="userSpaceOnUse" x1="-25974.6465" y1="133.9521" x2="-23052.5156" y2="133.9521" gradientTransform="matrix(-0.0186 -0.0221 -0.798 0.4894 -24.4723 -240.1401)">
			<stop  offset="0.0039" style="stop-color:#6B6B6A"/>
			<stop  offset="0.9765" style="stop-color:#D1C9C5"/>
		</linearGradient>
		<path fill="url(#SVGID_41_)" d="M328.766,375.657c-5.111-46.749-35.33,28.149-37.375,37.906
			c-6.281,29.874-34.635,27.257-45.378,52.236c22.302-7.492,58.152,43.732,72.258-1.102c7.243-23.513,37.002-69.05,31.084-85.505
			c-4.443-39.582-16.944-49.378-2.805-90.033c1.192-3.42,22.579-62.37,21.64-62.161c-2.08,0.459-7.568,10.772-8.877,9.783
			C340.011,255.3,321.64,337.083,328.766,375.657z"/>
		
			<linearGradient id="SVGID_42_" gradientUnits="userSpaceOnUse" x1="-7288.8242" y1="-249.8164" x2="-3253.2805" y2="-249.8164" gradientTransform="matrix(-0.0032 -0.0685 -0.9066 0.2138 141.7366 -90.8705)">
			<stop  offset="0.0039" style="stop-color:#333333"/>
			<stop  offset="0.9765" style="stop-color:#92827B"/>
		</linearGradient>
		<path fill="url(#SVGID_42_)" d="M388.751,268.878C383.764,274.3,388.208,269.475,388.751,268.878
			C388.156,269.527,388.751,268.878,388.751,268.878z"/>
		
			<linearGradient id="SVGID_43_" gradientUnits="userSpaceOnUse" x1="-2315.4805" y1="-403.7344" x2="200.0881" y2="-403.7344" gradientTransform="matrix(-0.0061 -0.0246 -0.8415 -0.1176 43.7683 227.2598)">
			<stop  offset="0.0039" style="stop-color:#333333"/>
			<stop  offset="0.9765" style="stop-color:#958B86"/>
		</linearGradient>
		<path fill="url(#SVGID_43_)" d="M386.619,271.139c-0.383,0.414-17.024,21.427-9.812,9.518c-4.369,5.675-8.575,11.75-12.63,18.228
			c0,4.735,7.479,26.761,9.216,33.064c10.035-14.878,16.023-38.877,25.683-20.645c-0.947-12.673,2.029-21.15,4.435-34.522
			c1.45,1.039,8.985,4.957,8.331,11.496c0.649-6.468-9.512-33.139-10.633-26.169C399.05,277.729,393.952,264.97,386.619,271.139
			C383.629,274.364,387.386,270.492,386.619,271.139z"/>
		
			<linearGradient id="SVGID_44_" gradientUnits="userSpaceOnUse" x1="11046.9473" y1="-36.1436" x2="12952.6709" y2="-36.1436" gradientTransform="matrix(0.0757 -0.0257 -0.1537 -0.6376 -506.6457 663.468)">
			<stop  offset="0.0039" style="stop-color:#4E4E4E"/>
			<stop  offset="0.9765" style="stop-color:#AA9E98"/>
		</linearGradient>
		<path fill="url(#SVGID_44_)" d="M383.547,359.529c-0.268-0.505-4.46-4.425-4.78-5.483c-0.341,23.747-6.093,53.623,1.537,69.357
			c4.744,9.355,9.958,31.896,11.944,41.295c-5.849-33.183-13.751-49.302-11.521-81.621c1.593-19.538,2.191-66.016,13.056-81.776
			c-1.973,0-5.133,5.562-6.568,7.9C383.595,325.597,382.778,342.014,383.547,359.529z"/>
		
			<linearGradient id="SVGID_45_" gradientUnits="userSpaceOnUse" x1="-6837.4878" y1="-246.2861" x2="-4051.9834" y2="-246.2861" gradientTransform="matrix(-0.0032 -0.0685 -0.9066 0.2138 141.7366 -90.8705)">
			<stop  offset="0.0039" style="stop-color:#333333"/>
			<stop  offset="0.9765" style="stop-color:#92827B"/>
		</linearGradient>
		<path fill="url(#SVGID_45_)" d="M370.045,288.818c7.447-10.983,47.919-10.347,20.299-55.864
			C373.917,250.438,366.244,292.823,370.045,288.818z"/>
		
			<linearGradient id="SVGID_46_" gradientUnits="userSpaceOnUse" x1="-1841.585" y1="-259.2925" x2="635.999" y2="-259.2925" gradientTransform="matrix(-0.0308 -0.6732 -0.9066 0.2138 113.5585 -9.5597)">
			<stop  offset="0.0039" style="stop-color:#333333"/>
			<stop  offset="1" style="stop-color:#67615E"/>
		</linearGradient>
		<path fill="url(#SVGID_46_)" d="M364.859,299.365c-5.426,0-11.525,39.274,8.533,32.583
			C372.115,327.309,366.978,300.252,364.859,299.365C364.605,299.365,366.398,300.012,364.859,299.365z"/>
		
			<linearGradient id="SVGID_47_" gradientUnits="userSpaceOnUse" x1="-70533.2734" y1="905.4854" x2="-67530.1016" y2="905.4854" gradientTransform="matrix(-0.0148 -0.0028 -0.4267 0.6899 -304.7665 -425.2133)">
			<stop  offset="0.0039" style="stop-color:#333333"/>
			<stop  offset="0.9765" style="stop-color:#908686"/>
		</linearGradient>
		<path fill="url(#SVGID_47_)" d="M364.433,316.462c-12.374,21.574-8.17,57.051-15.396,78.617
			c-11.005,32.846-32.105,39.931-41.273,76.173c8.095-27.604,23.787-3.569,37.004,1.426c3.11,1.176,37.828,20.256,28.831-3.136
			c-1.128-2.941-9.15-4.26-9.204-6.246c1.021-2.285,2.104-4.454,3.253-6.506c-4.598-4.827-18.482-10.76-23.35-2.256
			c1.655-1.573,6.174-19.702,7.85-13.387c0.996-27.295,9.36-91.926,20.903-108.719c-9.192,12.492-0.875,1.802,0.342-0.48
			C356.896,337.451,372.325,316.462,364.433,316.462C361.789,324.852,364.541,316.274,364.433,316.462z"/>
		
			<linearGradient id="SVGID_48_" gradientUnits="userSpaceOnUse" x1="-2314.4814" y1="-367.5347" x2="1035.3184" y2="-367.5347" gradientTransform="matrix(-0.0061 -0.0246 -0.8415 -0.1176 43.7683 227.2598)">
			<stop  offset="0.0039" style="stop-color:#333333"/>
			<stop  offset="0.9765" style="stop-color:#867C76"/>
		</linearGradient>
		<path fill="url(#SVGID_48_)" d="M365.712,322.271C366.725,331.731,366.331,316.491,365.712,322.271
			C365.8,323.076,365.8,321.465,365.712,322.271z"/>
		
			<linearGradient id="SVGID_49_" gradientUnits="userSpaceOnUse" x1="-1964.0112" y1="-335.8887" x2="784.3826" y2="-335.8887" gradientTransform="matrix(-0.0308 -0.6732 -0.9066 0.2138 113.5585 -9.5597)">
			<stop  offset="0.0039" style="stop-color:#333333"/>
			<stop  offset="0.9765" style="stop-color:#94847B"/>
		</linearGradient>
		<path fill="url(#SVGID_49_)" d="M426.975,257.914c-1.878,2.366-1.763,17.905-2.898,24.353
			c1.318-21.815,8.534-32.136,19.626-35.967c-4.37,0-8.558,2.756-12.886,3.386c-0.184-14.084,3.215-23.612,6.652-36.614
			c-0.761,0.852-1.103,0.474-1.021-1.125C428.565,233.089,430.518,236.489,426.975,257.914
			C427.488,257.267,427.401,255.33,426.975,257.914z"/>
		
			<linearGradient id="SVGID_50_" gradientUnits="userSpaceOnUse" x1="-4101.7246" y1="-323.2651" x2="2694.104" y2="-323.2651" gradientTransform="matrix(-0.0308 -0.6732 -0.9066 0.2138 113.5585 -9.5597)">
			<stop  offset="0.0039" style="stop-color:#333333"/>
			<stop  offset="0.9765" style="stop-color:#524D4A"/>
		</linearGradient>
		<path fill="url(#SVGID_50_)" d="M418.205,240.725c2.65,17.514,2.164,37.773,6.041,54.532
			C425.4,288.575,427.973,236.1,418.205,240.725C419.349,248.293,419.229,240.239,418.205,240.725z"/>
		
			<linearGradient id="SVGID_51_" gradientUnits="userSpaceOnUse" x1="-1784.3271" y1="-330.7915" x2="624.6453" y2="-330.7915" gradientTransform="matrix(-0.0308 -0.6732 -0.9066 0.2138 113.5585 -9.5597)">
			<stop  offset="0.0039" style="stop-color:#333333"/>
			<stop  offset="0.9765" style="stop-color:#81756E"/>
		</linearGradient>
		<path fill="url(#SVGID_51_)" d="M427.401,272.911c1.85-5.645,3.699-11.289,5.547-16.936
			C426.764,255.976,423.2,284.397,427.401,272.911C428.594,269.845,426.636,275.011,427.401,272.911z"/>
		
			<linearGradient id="SVGID_52_" gradientUnits="userSpaceOnUse" x1="116.5728" y1="424.542" x2="72.1259" y2="346.6146" gradientTransform="matrix(-1 0 0 1 522.9473 0)">
			<stop  offset="0.0039" style="stop-color:#5A5A5A"/>
			<stop  offset="0.9765" style="stop-color:#ADA8A0"/>
		</linearGradient>
		<path fill="url(#SVGID_52_)" d="M398.136,304.245c-11.567-21.862-18.17,64.246-19.358,78.832
			c-2.434,35.244,11.519,52.151,15.077,88.353c-0.601-4.755-1.202-9.513-1.804-14.265c0.996,4.645,1.266,3.155,0.809-4.466
			c1.779-0.308,7.744,22.601,5.592,6.19c0.834,6.345-12.042,9.447-3.874,27.43c-5.826-1.131,35.265-8.607,37.369-8.596
			c1.481,0.012,32.939-9.622,29.592-2.379c16.186-34.96-55.527-154.488-63.402-165.657
			C397.199,307.912,398.478,304.729,398.136,304.245z"/>
		
			<linearGradient id="SVGID_53_" gradientUnits="userSpaceOnUse" x1="-1980.3569" y1="-253.4131" x2="772.364" y2="-253.4131" gradientTransform="matrix(-0.0308 -0.6732 -0.9066 0.2138 113.5585 -9.5597)">
			<stop  offset="0.0039" style="stop-color:#333333"/>
			<stop  offset="0.9765" style="stop-color:#67615E"/>
		</linearGradient>
		<path fill="url(#SVGID_53_)" d="M373.05,332.429c-12.191,17.733-20.991,85.133-20.991,114.688
			c3.052-28.863,17.896-53.154,16.302-82.751C367.928,354.58,381.648,316.274,373.05,332.429
			C369.723,337.271,373.137,332.271,373.05,332.429z"/>
		
			<linearGradient id="SVGID_54_" gradientUnits="userSpaceOnUse" x1="-2756.0366" y1="-263.668" x2="1539.2188" y2="-263.668" gradientTransform="matrix(-0.0308 -0.6732 -0.9066 0.2138 113.5585 -9.5597)">
			<stop  offset="0.0039" style="stop-color:#333333"/>
			<stop  offset="0.9765" style="stop-color:#67615E"/>
		</linearGradient>
		<path fill="url(#SVGID_54_)" d="M369.125,337.755C375.932,324.776,371.503,334.396,369.125,337.755
			C368.958,338.079,369.467,337.271,369.125,337.755z"/>
		
			<linearGradient id="SVGID_55_" gradientUnits="userSpaceOnUse" x1="-22005.5059" y1="564.4697" x2="-19483.3066" y2="564.4697" gradientTransform="matrix(-0.0397 -0.0193 -0.6154 0.6256 -99.8876 -361.8289)">
			<stop  offset="0.0039" style="stop-color:#333333"/>
			<stop  offset="0.9765" style="stop-color:#67615E"/>
		</linearGradient>
		<path fill="url(#SVGID_55_)" d="M376.72,327.593c-11.559,24.62-8.752,59.054-18.611,86.916
			c-4.871,13.767-8.938,26.877-14.628,39.718c0.178,0.474,21.268,11.414,25.186,14.933c5.25,4.704,32.934,34.539,27.926,2.05
			c3.663,1.159,8.012-0.758,11.516,1.436c-28.199-47.156-30.276-53.272-29.341-118.599c0.32,1.059,4.513,4.979,4.78,5.483
			c-0.772-17.583,0.13-33.586,3.584-50.164C383.22,314.632,379.75,320.71,376.72,327.593
			C370.664,340.496,377.061,326.785,376.72,327.593z"/>
		
			<linearGradient id="SVGID_56_" gradientUnits="userSpaceOnUse" x1="5943.0698" y1="2055.8486" x2="8649.1709" y2="2055.8486" gradientTransform="matrix(-0.0026 0.0461 0.9037 -0.1614 -1548.6417 273.3652)">
			<stop  offset="0.0039" style="stop-color:#333333"/>
			<stop  offset="0.9765" style="stop-color:#908686"/>
		</linearGradient>
		<path fill="url(#SVGID_56_)" d="M320.755,284.588c-17.271,4.587-36.775,69.622-45.326,94.04
			c-8.212,23.454-16.379,46.974-24.795,70.178c-5.09,14.052-18.643,12.238-22.723,25.308c1.16-3.511,26.165,4.483,34.163-15.159
			c9.055-22.236,26.644-43.658,35.574-66.168c-2.349-9.172,37.37-127.537,45.471-142.853
			C335.254,260.55,329.586,276.148,320.755,284.588C320.159,284.747,328.692,277.005,320.755,284.588z"/>
		
			<linearGradient id="SVGID_57_" gradientUnits="userSpaceOnUse" x1="-1913.855" y1="-344.7139" x2="749.0159" y2="-344.7139" gradientTransform="matrix(-0.0308 -0.6732 -0.9066 0.2138 113.5585 -9.5597)">
			<stop  offset="0.0039" style="stop-color:#5A5A5A"/>
			<stop  offset="0.9765" style="stop-color:#81756E"/>
		</linearGradient>
		<path fill="url(#SVGID_57_)" d="M449.59,206.296c-4.771-1.647-19.153,14.044-18.773,43.39c1.861-0.271,13.478-4.875,14.93,0.625
			c-2.491,23.479-6.672,40.517-5.972,65.508C464.843,304.478,439.012,242.004,449.59,206.296
			C450.528,206.623,448.392,210.332,449.59,206.296z"/>
		
			<linearGradient id="SVGID_58_" gradientUnits="userSpaceOnUse" x1="-14022.5312" y1="955.7246" x2="-12618.4121" y2="955.7246" gradientTransform="matrix(-0.0746 0.0015 0.0181 1.0773 -471.5952 -670.4404)">
			<stop  offset="0.0039" style="stop-color:#5A5A5A"/>
			<stop  offset="0.9765" style="stop-color:#CDC4C0"/>
		</linearGradient>
		<path fill="url(#SVGID_58_)" d="M445.843,221.619c0,41.215,4.469,52.964,16.46,87.423c1.568,9.727,11.938,54.836,21.155,56.296
			c3.766,0,3.305-27.329,3.328-26.456c0,35.275,27.206,100.942,38.998,123.235c-9.945-32.471-27.453-70.61-25.169-110.329
			c11.932,33.837,15.943,97.328,34.812,118.713c-2.369-0.094-3.253,1.034-2.646,3.387c-3.169-2.262,25.643-7.564,21.425-0.477
			c6.755-11.176-53.229-154.133-60.824-165.539c-11.448-17.185-1.164,23.537-12.958-20.821
			c-4.541-17.078-12.146-29.291-16.586-46.078c-2.731-8.615-16.041-59.453-16.041-19.354
			C447.796,225.01,445.843,215.491,445.843,221.619z"/>
		
			<linearGradient id="SVGID_59_" gradientUnits="userSpaceOnUse" x1="-1955.2393" y1="-450.4209" x2="870.4189" y2="-450.4209" gradientTransform="matrix(-0.0308 -0.6732 -0.9066 0.2138 113.5585 -9.5597)">
			<stop  offset="0.0039" style="stop-color:#5E5B5E"/>
			<stop  offset="0.9765" style="stop-color:#8B7F78"/>
		</linearGradient>
		<path fill="url(#SVGID_59_)" d="M523.223,377.435c16.095,30.432,19.866,88.377,45.821,92.341
			c-5.204-9.832-35.83-99.762-32.083-99.762C531.355,371.019,530.046,377.118,523.223,377.435z"/>
		
			<linearGradient id="SVGID_60_" gradientUnits="userSpaceOnUse" x1="-11856.6504" y1="92.6689" x2="-9306.2822" y2="92.6689" gradientTransform="matrix(-0.0114 -0.0463 -0.9648 0.2767 500.8111 -28.6917)">
			<stop  offset="0.0039" style="stop-color:#5E5B5E"/>
			<stop  offset="0.9765" style="stop-color:#B7ABA5"/>
		</linearGradient>
		<path fill="url(#SVGID_60_)" d="M531.415,466.954c-6.421-30.376-24.354-112.819-32.752-117.867
			C498.663,380.417,515.142,455.402,531.415,466.954z"/>
		
			<linearGradient id="SVGID_61_" gradientUnits="userSpaceOnUse" x1="-2077.835" y1="-404.459" x2="1075.7961" y2="-404.459" gradientTransform="matrix(-0.0308 -0.6732 -0.9066 0.2138 113.5585 -9.5597)">
			<stop  offset="0.0039" style="stop-color:#5E5B5E"/>
			<stop  offset="0.9765" style="stop-color:#B7ABA5"/>
		</linearGradient>
		<path fill="url(#SVGID_61_)" d="M498.307,386.306c-10.506-9.256-8.683-64.892-10.873-83.247
			c-1.475,8.546-4.919,22.814-5.679,33.065c7.504-12.678,7.759,41.655-1.705,26.304c6.813,21.419,34.25,102.271,47.012,102.271
			C517.596,446.785,509.851,396.562,498.307,386.306C497.028,385.177,499.759,387.594,498.307,386.306z"/>
		
			<linearGradient id="SVGID_62_" gradientUnits="userSpaceOnUse" x1="-1637.27" y1="-349.2734" x2="508.3467" y2="-349.2734" gradientTransform="matrix(-0.0308 -0.6732 -0.9066 0.2138 113.5585 -9.5597)">
			<stop  offset="0.0039" style="stop-color:#333333"/>
			<stop  offset="0.9765" style="stop-color:#94847B"/>
		</linearGradient>
		<path fill="url(#SVGID_62_)" d="M445.406,249.524C444.98,250.343,445.881,243.226,445.406,249.524
			C445.324,249.686,445.492,248.396,445.406,249.524z"/>
		
			<linearGradient id="SVGID_63_" gradientUnits="userSpaceOnUse" x1="-1954.7192" y1="-343.7495" x2="799.3845" y2="-343.7495" gradientTransform="matrix(-0.0308 -0.6732 -0.9066 0.2138 113.5585 -9.5597)">
			<stop  offset="0.0039" style="stop-color:#5A5A5A"/>
			<stop  offset="0.9765" style="stop-color:#534F4E"/>
		</linearGradient>
		<path fill="url(#SVGID_63_)" d="M447.603,240.203c0.554,2.095-7.037,8.496-7.828,9.321c-11.465,11.941-6.794,45.068-5.375,68.552
			c0,11.494,8.316,33.317,11.179,45.486c0.399-17.057-5.633-30.018-5.633-44.034c3.464,1.67,6.749,4.14,9.854,7.413
			c0.643-14.717,1.282-29.434,1.922-44.147c-1.772,0.416-11.946,27.603-11.946,33.024
			C439.412,302.82,449.451,244.878,447.603,240.203C447.433,239.556,447.859,240.85,447.603,240.203z"/>
		
			<linearGradient id="SVGID_64_" gradientUnits="userSpaceOnUse" x1="-1824.0454" y1="-395.4395" x2="669.3057" y2="-395.4395" gradientTransform="matrix(-0.0308 -0.6732 -0.9066 0.2138 113.5585 -9.5597)">
			<stop  offset="0.0039" style="stop-color:#5E5B5E"/>
			<stop  offset="0.9765" style="stop-color:#8B7F78"/>
		</linearGradient>
		<path fill="url(#SVGID_64_)" d="M456.414,428.403c-0.306-1.027-0.645-1.244-1.022-0.646c-1.164-7.118-3.353-12.301-6.565-15.548
			c-0.546,0.214,7.547,19.591,8.696,22.487c-2.386-4.262-4.771-8.528-7.157-12.785c6.552,14.885,10.284,29.493,17.312,42.786
			c6.565,14.245,19.322-2.054,29.361-1.756c10.779,0.32,19.979,11.108,30.965,11.108c-1.049,0,20.365,4.945,15.765-3.756
			c-0.827-1.698-15.733-5.309-16.874-5.597c2.237-0.039,4.474-0.077,6.706-0.118c-37.606-15.815-59.193-130.258-82.391-183.763
			c-0.979,13.025-1.354,26.246-1.108,39.355C452.198,349.233,460.715,398.91,456.414,428.403z"/>
		
			<linearGradient id="SVGID_65_" gradientUnits="userSpaceOnUse" x1="-1952.0469" y1="-343.6846" x2="814.6042" y2="-343.6846" gradientTransform="matrix(-0.0308 -0.6732 -0.9066 0.2138 113.5585 -9.5597)">
			<stop  offset="0.0039" style="stop-color:#5A5A5A"/>
			<stop  offset="0.9765" style="stop-color:#6D6460"/>
		</linearGradient>
		<path fill="url(#SVGID_65_)" d="M439.946,319.528c-12.934,48.109,7.057,82.123,16.468,108.875
			c3.032-20.79-6.593-120.312-6.593-120.312C447.603,307.606,441.937,319.796,439.946,319.528z"/>
		
			<linearGradient id="SVGID_66_" gradientUnits="userSpaceOnUse" x1="-7848.5459" y1="57.7529" x2="-4979.4556" y2="57.7529" gradientTransform="matrix(-0.0032 -0.0685 -0.9066 0.2138 141.7366 -90.8705)">
			<stop  offset="0.0039" style="stop-color:#333333"/>
			<stop  offset="0.9765" style="stop-color:#92827B"/>
		</linearGradient>
		<path fill="url(#SVGID_66_)" d="M144.806,200.815c-17.813,19.194,7.778,60.523-13.312,95.002
			c-8.642,14.005-5.609,39.758-13.982,54.135c-6.818,11.706-4.048-7.717-9.822,3.933c7.1-67.565-4.634-123.435-15.988-19.146
			c-2.419,22.211-7.162,64.386-6.027,85.762c-7.2,19.02-17.961,32.232-24.929,51.349c22.491,10.632,59.801-93.316,67.592-127.642
			c6.233-35.384,14.832-73.713,26.761-105.972c6.343-17.146-0.792-33.508-1.078-51.848
			C151.143,191.231,148.073,196.945,144.806,200.815C144.209,201.46,146.341,199.199,144.806,200.815z"/>
		
			<linearGradient id="SVGID_67_" gradientUnits="userSpaceOnUse" x1="-7452.189" y1="15.2412" x2="-4809.0469" y2="15.2412" gradientTransform="matrix(-0.0204 -0.0967 -0.8559 0.3789 29.6181 -282.9418)">
			<stop  offset="0.0039" style="stop-color:#67615E"/>
			<stop  offset="0.9765" style="stop-color:#C5BCB7"/>
		</linearGradient>
		<path fill="url(#SVGID_67_)" d="M138.838,213.487c-2.072,11.186-10.494,0.061-14.256,7.165
			c2.131,12.032,2.672,24.291,1.624,36.775c0,21.805-1.879,43.503-1.879,65.168c3.983-23.782,12.339-27.688,17.567-48.652
			c5.464-21.918-3.398-42.254-2.343-52.293C138.955,224.876,138.923,212.679,138.838,213.487z"/>
		
			<linearGradient id="SVGID_68_" gradientUnits="userSpaceOnUse" x1="-14985.6953" y1="51.8701" x2="-11925.1602" y2="51.8701" gradientTransform="matrix(-0.0015 -0.0326 -0.9066 0.2138 145.9725 -112.2091)">
			<stop  offset="0.0039" style="stop-color:#67615E"/>
			<stop  offset="0.9922" style="stop-color:#9C8E87"/>
		</linearGradient>
		<path fill="url(#SVGID_68_)" d="M124.582,220.652c-24.546,39.079-16.459,102.039-16.892,152.28
			c5.485-11.067,14.678-24.533,18.776-50.337C126.466,291.89,131.739,249.506,124.582,220.652
			C122.707,224.202,122.285,224.31,124.582,220.652z"/>
		
			<linearGradient id="SVGID_69_" gradientUnits="userSpaceOnUse" x1="-14839.3906" y1="112.4668" x2="-12065.2197" y2="112.4668" gradientTransform="matrix(-0.0015 -0.0326 -0.9066 0.2138 145.9725 -112.2091)">
			<stop  offset="0.0039" style="stop-color:#67615E"/>
			<stop  offset="0.9922" style="stop-color:#9C8E87"/>
		</linearGradient>
		<path fill="url(#SVGID_69_)" d="M83.004,313.435c-3.689,20.919-5.648,51.502-9.884,66.316
			c-7.36,25.766-18.12,48.878-28.743,69.944c-4.004,8.078-14.11,8.473-16.791,18.517c10.388,2.486,34.245,17.884,40.719,1.82
			c2.765-6.871,32.579-71.752,31.521-73.082c-2.842-3.571-14.832,19.944-14.237,18.872c7.584-48.746,8.421-88.029,17.321-137.17
			C98.367,281.11,92.169,323.257,83.004,313.435C81.981,319.24,85.563,316.177,83.004,313.435z"/>
		
			<linearGradient id="SVGID_70_" gradientUnits="userSpaceOnUse" x1="-7568.7119" y1="57.2422" x2="-4655.7666" y2="57.2422" gradientTransform="matrix(-0.0204 -0.0967 -0.8559 0.3789 29.6181 -282.9418)">
			<stop  offset="0.0039" style="stop-color:#67615E"/>
			<stop  offset="0.9765" style="stop-color:#C5BCB7"/>
		</linearGradient>
		<path fill="url(#SVGID_70_)" d="M130.495,315.981c-3.49,28.653-78.396,168.11-80.567,160.802
			c4.876,16.407,53.642,6.431,62.689,5.253c17.542-2.28,16.867-22.302,22.355-48.075c14.252-66.906,61.102-196.709,18.558-248.793
			c1.996-2.639-0.288,43.671,0,45.001C155.94,243.122,132.833,296.904,130.495,315.981
			C130.296,317.593,133.421,292.108,130.495,315.981z"/>
		
			<linearGradient id="SVGID_71_" gradientUnits="userSpaceOnUse" x1="-14159.7402" y1="-0.2109" x2="-11237.5771" y2="-0.2109" gradientTransform="matrix(-0.0015 -0.0326 -0.9066 0.2138 145.9725 -112.2091)">
			<stop  offset="0.0039" style="stop-color:#67615E"/>
			<stop  offset="0.9922" style="stop-color:#9C8E87"/>
		</linearGradient>
		<path fill="url(#SVGID_71_)" d="M198.562,219.363c-32.717,43.194-61.524,164.539-73.177,240.722
			c-3.476,22.73,13.053,24.219,20.464,22.953c16.404-2.796,15.631-14.295,20.35-44.189c8.555-54.218,16.258-104.931,19.988-160.935
			c0.343,14.354,0.087,28.709,0.087,43.065c11.194-36.288,7.766-80.245,22.271-118.23
			C205.596,209.086,202.268,214.625,198.562,219.363C193.185,226.46,203.169,213.071,198.562,219.363z"/>
		
			<linearGradient id="SVGID_72_" gradientUnits="userSpaceOnUse" x1="-11323.5352" y1="-83.4097" x2="-8553.166" y2="-83.4097" gradientTransform="matrix(-0.0019 -0.0411 -0.9066 0.2138 117.5264 -105.441)">
			<stop  offset="0.0039" style="stop-color:#54504E"/>
			<stop  offset="0.9765" style="stop-color:#A3968F"/>
		</linearGradient>
		<path fill="url(#SVGID_72_)" d="M188.151,314.365c14.59-49.915,28.867-100.154,43.517-150.004
			c-11.779-2.946-16.579,22.685-23.123,38.388C195.166,237.786,190.408,271.642,188.151,314.365z"/>
		
			<linearGradient id="SVGID_73_" gradientUnits="userSpaceOnUse" x1="-11625.2441" y1="-20.9072" x2="-8748.9453" y2="-20.9072" gradientTransform="matrix(-0.0264 -0.0675 -0.7818 0.5345 -13.5483 -443.2466)">
			<stop  offset="0.0039" style="stop-color:#54504E"/>
			<stop  offset="0.9765" style="stop-color:#A69B95"/>
		</linearGradient>
		<path fill="url(#SVGID_73_)" d="M236.018,189.843c5.929-20.815,9.017-45.585,10.58-68.873c-2.28,2.975-4.601,9.387-6.228,14.839
			C242.313,155.338,240.05,172.079,236.018,189.843z"/>
		
			<linearGradient id="SVGID_74_" gradientUnits="userSpaceOnUse" x1="-11808.9922" y1="74.6729" x2="-8734.5723" y2="74.6729" gradientTransform="matrix(-0.0264 -0.0675 -0.7818 0.5345 -13.5483 -443.2466)">
			<stop  offset="0.0039" style="stop-color:#54504E"/>
			<stop  offset="0.9765" style="stop-color:#C5BCB7"/>
		</linearGradient>
		<path fill="url(#SVGID_74_)" d="M246.598,120.97c-5.259,78.337-32.13,122.877-50.563,187.89
			c-9.609,33.888-13.336,75.863-20.906,111.864c-4.962,23.577-15.366,39.073-20.818,61.745c20.203-14.48,24.122-14.849,32.516-53.63
			c11.314-52.268,22.892-104.342,33.942-156.815c9.18-43.594,35.728-100.75,35.728-142.987
			C253.168,127.298,250.065,122.42,246.598,120.97C245.148,142.584,247.368,121.292,246.598,120.97z"/>
		
			<linearGradient id="SVGID_75_" gradientUnits="userSpaceOnUse" x1="-15026.0625" y1="-53.5508" x2="-11659.915" y2="-53.5508" gradientTransform="matrix(-0.0015 -0.0326 -0.9066 0.2138 145.9725 -112.2091)">
			<stop  offset="0.0039" style="stop-color:#67615E"/>
			<stop  offset="0.9922" style="stop-color:#9C8E87"/>
		</linearGradient>
		<path fill="url(#SVGID_75_)" d="M188.065,326.624c15.249-58.032,59.448-118.998,52.304-190.815
			c-13.204,41.271-23.838,85.043-39.96,122.796c-4.973,11.643-10.535,22.915-14.387,36.097c-0.969,6.854,2.767,20.821,0.251,26.437
			c-0.652-7.647-1.799-15.147-2.506-22.783c-0.321,21.506-0.645,43.012-0.966,64.516c-0.499-0.565,4.179-35.751,3.556-36.085"/>
		
			<linearGradient id="SVGID_76_" gradientUnits="userSpaceOnUse" x1="-11251.6289" y1="-100.7476" x2="-8290.9258" y2="-100.7476" gradientTransform="matrix(-0.0019 -0.0411 -0.9066 0.2138 117.5264 -105.441)">
			<stop  offset="0.0039" style="stop-color:#67615E"/>
			<stop  offset="0.9765" style="stop-color:#756C68"/>
		</linearGradient>
		<path fill="url(#SVGID_76_)" d="M211.954,400.661c-4.263,32.247-38.5,55.984-41.728,88.532
			c-1.069,15.481,87.394-16.001,45.401-0.138c36.953-33.175,15.586-64.768,28.71-130.24
			c14.659-73.154,29.322-146.305,43.987-219.457c-12.793,48.515-30.684,87.641-47.925,136.288
			c-3.418,9.644-19.279,49.508-18.469,53.945C221.543,327.476,213.917,385.336,211.954,400.661z"/>
		
			<linearGradient id="SVGID_77_" gradientUnits="userSpaceOnUse" x1="-7507.3267" y1="-10.5117" x2="-4815.8037" y2="-10.5117" gradientTransform="matrix(-0.0032 -0.0685 -0.9066 0.2138 141.7366 -90.8705)">
			<stop  offset="0.0039" style="stop-color:#333333"/>
			<stop  offset="0.9765" style="stop-color:#92827B"/>
		</linearGradient>
		<path fill="url(#SVGID_77_)" d="M186.187,277.914c-13.126,62.508-12.165,127.242-26.451,186.784
			C185.011,459.688,187.215,320.873,186.187,277.914C184.737,299.689,185.473,281.319,186.187,277.914z"/>
		
			<linearGradient id="SVGID_78_" gradientUnits="userSpaceOnUse" x1="-11861.793" y1="74.0752" x2="-8691.4873" y2="74.0752" gradientTransform="matrix(-0.0264 -0.0675 -0.7818 0.5345 -13.5483 -443.2466)">
			<stop  offset="0.0039" style="stop-color:#54504E"/>
			<stop  offset="0.9765" style="stop-color:#A69B95"/>
		</linearGradient>
		<path fill="url(#SVGID_78_)" d="M179.274,398.241c-0.346,2.466,10.931-68.828,16.761-89.382
			c10.342-36.484,27.356-59.845,34.864-100.466c-11.369,34.549-35.167,60.329-43.911,93.614
			C180.306,309.562,181.117,384.879,179.274,398.241C178.935,400.661,182.52,374.696,179.274,398.241z"/>
		
			<linearGradient id="SVGID_79_" gradientUnits="userSpaceOnUse" x1="-6990.5815" y1="-77.8374" x2="-2683.7739" y2="-77.8374" gradientTransform="matrix(-0.0032 -0.0685 -0.9066 0.2138 141.7366 -90.8705)">
			<stop  offset="0.0039" style="stop-color:#333333"/>
			<stop  offset="0.9765" style="stop-color:#92827B"/>
		</linearGradient>
		<path fill="url(#SVGID_79_)" d="M229.094,451.335c-9.383,26.632-43.048,41.208-35.015,51.199
			c5.983-13.798,35.85-11.082,45.424-24.906c10.255-14.797,35.704-97.821,42.399-118.553c-16.939,35.843-38.135,35.59-49.292,47.211
			c-1.938,13.834-0.597,37.439-1.21,42.308C231.54,442.134,230.771,443.043,229.094,451.335
			C227.557,455.691,229.861,449.077,229.094,451.335z"/>
	</g>
</g>
<rect id="_x3C_Slice_x3E_" x="232.537" y="304.058" fill="none" width="334.001" height="197"/>
<rect id="_x3C_Slice_x3E__1_" x="232.537" y="154.058" fill="none" width="251.505" height="149"/>
<rect id="_x3C_Slice_x3E__2_" x="232.537" fill="none" width="159.082" height="154"/>
</svg>
