<?xml version="1.0" encoding="utf-8"?>
<!-- Generator: Adobe Illustrator 16.0.0, SVG Export Plug-In . SVG Version: 6.00 Build 0)  -->
<!DOCTYPE svg PUBLIC "-//W3C//DTD SVG 1.1//EN" "http://www.w3.org/Graphics/SVG/1.1/DTD/svg11.dtd">
<svg version="1.1" id="Layer_1" xmlns="http://www.w3.org/2000/svg" xmlns:xlink="http://www.w3.org/1999/xlink" x="0px" y="0px"
	 width="100px" height="65px" viewBox="0 0 100 65" enable-background="new 0 0 100 65" xml:space="preserve">
<g>
	<path fill-rule="evenodd" clip-rule="evenodd" fill="#FFFFFF" d="M0.05,2.675c0,0,6.601-0.717,10.434-0.598
		c2.954,0.092,5.673,0.398,5.673,0.398c0.978,0.278,2.275,0.193,4.115,0.875c5.828,2.161,9.693,6.659,9.679,13.324
		c0.015,6.668-4.134,13.335-14.834,15.157c-3.679,0.484-11.688,0.615-15.066-0.056C0.05,21.441,0.05,13.008,0.05,2.675z M4.65,29.05
		c12.675,0.675,20.383-2.875,20.1-11.926C25.547,6.149,14.175,4.158,4.65,5.35C4.65,13.017,4.65,21.383,4.65,29.05z"/>
	<path fill-rule="evenodd" clip-rule="evenodd" fill="#134B8E" d="M14,47.45c0-9.333,9.083-13.944,17.648-17.653
		C35.8,28,50.982,23.291,66.729,28.25c8.584,2.704,21.236,9.2,21.236,18.2C72.918,45.215,67.791,36.956,62,30.25
		c-7.392,3.419-18.25,9-26.427,2.45C30.112,38.489,27.716,47.018,14,47.45z"/>
	<path fill-rule="evenodd" clip-rule="evenodd" fill="#FFFFFF" d="M69.05,2.675c0,0,6.601-0.717,10.434-0.598
		c2.954,0.092,5.673,0.398,5.673,0.398c0.978,0.278,2.275,0.193,4.115,0.875c5.828,2.161,9.693,6.659,9.679,13.324
		c0.015,6.668-4.134,13.335-14.834,15.157c-3.679,0.484-11.688,0.615-15.066-0.056C69.05,21.441,69.05,13.008,69.05,2.675z
		 M73.65,29.05c12.675,0.675,20.383-2.875,20.1-11.926C94.547,6.149,83.175,4.158,73.65,5.35C73.65,13.017,73.65,21.383,73.65,29.05
		z"/>
	<polygon fill-rule="evenodd" clip-rule="evenodd" fill="#FFFFFF" points="51.2,32.25 47.8,32.25 35.8,2.75 40,2.75 49.5,27.25 
		60,2.75 64.2,2.75 	"/>
	<path fill-rule="evenodd" clip-rule="evenodd" fill="#E21D38" d="M14,64.587c0-5.333,0-10.667,0-16
		c13.717-0.433,16.112-8.211,21.573-14c8.594,5.621,18.804,0.419,26.195-3c5.821,7.222,11.149,14.765,26.196,16
		c0,5.667,0,11.333,0,17C63.311,64.587,38.655,64.587,14,64.587z"/>
	<path fill-rule="evenodd" clip-rule="evenodd" fill="#0E4C8A" d="M1.05,1.525c0,0,6.601-0.717,10.434-0.598
		c2.954,0.092,5.673,0.398,5.673,0.398c0.978,0.278,2.275,0.193,4.115,0.875c5.828,2.161,9.693,6.659,9.679,13.324
		c0.015,6.668-4.134,13.335-14.834,15.157c-3.679,0.484-11.688,0.615-15.066-0.056C1.05,20.292,1.05,11.858,1.05,1.525z M5.65,27.9
		c12.675,0.675,20.383-2.875,20.1-11.926C26.547,4.999,15.175,3.008,5.65,4.2C5.65,11.867,5.65,20.233,5.65,27.9z"/>
	<polygon fill-rule="evenodd" clip-rule="evenodd" fill="#0E4C8A" points="51.2,30.75 47.8,30.75 35.8,1.25 40,1.25 49.5,25.75 
		60,1.25 64.2,1.25 	"/>
	<path fill-rule="evenodd" clip-rule="evenodd" fill="#0E4C8A" d="M70.05,1.525c0,0,6.601-0.717,10.434-0.598
		c2.954,0.092,5.673,0.398,5.673,0.398c0.978,0.278,2.275,0.193,4.115,0.875c5.828,2.161,9.693,6.659,9.679,13.324
		c0.015,6.668-4.134,13.335-14.834,15.157c-3.679,0.484-11.688,0.615-15.066-0.056C70.05,20.292,70.05,11.858,70.05,1.525z
		 M74.65,27.9c12.675,0.675,20.383-2.875,20.1-11.926C95.547,4.999,84.175,3.008,74.65,4.2C74.65,11.867,74.65,20.233,74.65,27.9z"
		/>
	<text transform="matrix(1.3862 0 0 1 32.2422 56.3848)" fill="#FFFFFF" font-family="'MyriadPro-Regular'" font-size="15.575">Film</text>
</g>
</svg>
