<?xml version="1.0" encoding="utf-8"?>
<!-- Generator: Adobe Illustrator 16.0.0, SVG Export Plug-In . SVG Version: 6.00 Build 0)  -->
<!DOCTYPE svg PUBLIC "-//W3C//DTD SVG 1.1//EN" "http://www.w3.org/Graphics/SVG/1.1/DTD/svg11.dtd">
<svg version="1.1" id="Layer_1" xmlns="http://www.w3.org/2000/svg" xmlns:xlink="http://www.w3.org/1999/xlink" x="0px" y="0px"
	 width="150px" height="101.68px" viewBox="0 0 150 101.68" enable-background="new 0 0 150 101.68" xml:space="preserve">
<g>
	<path fill="#5CA047" d="M102.348,20.469H0c0,0,0-5.629,0-7.505c0-2.729,5.458-2.729,5.458-2.729h91.431c0,0,6.097,0,5.459,2.729
		C101.912,14.828,102.348,20.469,102.348,20.469z"/>
	<rect y="22.218" fill="#5CA047" width="102.348" height="31.982"/>
	<path fill="#5CA047" d="M64.807,2.729C64.978,0,63.352,0,63.352,0H38.981c0,0-1.454,0-1.454,2.729c0,1.877,0,7.506,0,7.506h2.729
		c0,0,0-4.503,0-6.004c0-2.184,1.164-2.184,1.164-2.184h19.495c0,0,1.301,0,1.165,2.184c-0.093,1.49,0,6.004,0,6.004h2.727
		C64.807,10.235,64.69,4.592,64.807,2.729z"/>
</g>
<g>
	<path fill-rule="evenodd" clip-rule="evenodd" fill="#662F90" d="M121.393,87.022l-1.962-5.547l6.997-2.048l3.935,12.25l2.529-0.9
		l1.387,4.01l-11.626,3.734l-1.408-3.968l2.432-0.896l-0.896-2.368l-6.08,1.92c-2.054,2.474,2.048,1.536-3.126,3.784
		c-5.348,2.324-4.341,2.136-13.139,3.276c-5.479-8.168-5.691-21.291-13.159-26.087c-3.811-2.448-9.58,1.864-11.775,2.016
		c-9.083,3.786-0.163,16.059-5.196,22.695c-6.09,8.031-30.003-3.652-36.524-5.544c-1.424-0.412-4.178-1.156-7.231-2.232
		c-1.222-0.432-4.92,5.478-5.73,6.572c-1.651,2.229-6.758,1.96-7.954,1.28c-5.699-3.231-3.084-18.953,3.762-24.847
		c7.305-6.292,27.615,3.44,36.888,4.092c-3.284-9.759-13.699-26.796-2.778-35.158c12.005-9.189,26.425-14.431,41.498-15.345
		c24.459-1.482,12.511,48.187,20.719,58.458c1.172,1.468,2.756,2.132,4.916,1.728L121.393,87.022z"/>
	<ellipse fill-rule="evenodd" clip-rule="evenodd" fill="#662F90" cx="131.706" cy="36.212" rx="18.294" ry="13.994"/>
</g>
</svg>
