<?xml version="1.0" encoding="utf-8"?>
<!-- Generator: Adobe Illustrator 16.0.0, SVG Export Plug-In . SVG Version: 6.00 Build 0)  -->
<!DOCTYPE svg PUBLIC "-//W3C//DTD SVG 1.1//EN" "http://www.w3.org/Graphics/SVG/1.1/DTD/svg11.dtd">
<svg version="1.1" id="Layer_1" xmlns="http://www.w3.org/2000/svg" xmlns:xlink="http://www.w3.org/1999/xlink" x="0px" y="0px"
	 width="256px" height="256px" viewBox="0 0 256 256" enable-background="new 0 0 256 256" xml:space="preserve">
<g>
	
		<image overflow="visible" opacity="0.75" width="282" height="212" xlink:href="E7A117DD439BFBFB.png"  transform="matrix(0.24 0 0 0.24 29.8823 66.0605)">
	</image>
	<g>
		
			<linearGradient id="SVGID_1_" gradientUnits="userSpaceOnUse" x1="178.6514" y1="98.1426" x2="163.0701" y2="85.0684" gradientTransform="matrix(-1 0 0 1 240.5586 0)">
			<stop  offset="0" style="stop-color:#662F90"/>
			<stop  offset="0.1267" style="stop-color:#7C529F"/>
			<stop  offset="0.3044" style="stop-color:#997CB6"/>
			<stop  offset="0.4753" style="stop-color:#B7A3CD"/>
			<stop  offset="0.6347" style="stop-color:#D2C7E2"/>
			<stop  offset="0.7801" style="stop-color:#E8E3F1"/>
			<stop  offset="0.9065" style="stop-color:#F7F5FA"/>
			<stop  offset="1" style="stop-color:#FFFFFF"/>
		</linearGradient>
		<path fill="url(#SVGID_1_)" d="M54.61,89.076c0.158,0.042,0.325,0.064,0.498,0.071c0.174,0.009,0.353,0,0.538-0.021
			c0.187-0.022,0.376-0.059,0.572-0.106c0.353-0.086,0.719-0.211,1.102-0.365c0.378-0.154,0.774-0.34,1.172-0.544
			c0.401-0.204,0.811-0.427,1.226-0.662c0.416-0.233,0.834-0.477,1.254-0.723c0.42-0.244,0.842-0.489,1.259-0.725
			c0.416-0.236,0.83-0.462,1.234-0.669c0.407-0.206,0.806-0.393,1.194-0.552c0.385-0.158,0.762-0.287,1.122-0.375
			c0.211-0.053,0.417-0.093,0.615-0.116c0.202-0.022,0.394-0.03,0.581-0.021s0.365,0.036,0.538,0.083
			c0.172,0.047,0.336,0.113,0.492,0.201c5.743,3.253,11.489,6.506,17.237,9.757c-0.152-0.087-0.316-0.152-0.485-0.2
			c-0.168-0.047-0.344-0.076-0.525-0.089c-0.183-0.012-0.371-0.008-0.565,0.012c-0.194,0.019-0.396,0.054-0.6,0.101
			c-0.35,0.08-0.715,0.197-1.087,0.342c-0.377,0.146-0.762,0.318-1.153,0.51c-0.396,0.192-0.794,0.401-1.197,0.62
			s-0.809,0.447-1.214,0.676c-0.406,0.227-0.81,0.455-1.211,0.672c-0.4,0.217-0.797,0.427-1.187,0.615
			c-0.387,0.189-0.768,0.359-1.137,0.502c-0.369,0.142-0.725,0.256-1.067,0.333c-0.19,0.043-0.377,0.075-0.558,0.093
			c-0.178,0.019-0.355,0.023-0.523,0.014c-0.17-0.011-0.334-0.035-0.489-0.076c-0.158-0.041-0.305-0.099-0.449-0.174
			c-2.278-1.208-4.557-2.416-6.833-3.624c-3.603-1.91-7.205-3.821-10.808-5.732C54.3,88.979,54.449,89.037,54.61,89.076z"/>
	</g>
</g>
<g>
	<g opacity="0.75">
		<g>
			<defs>
				<path id="SVGID_2_" d="M66.672,95.089c5.91,2.822,11.82,5.644,17.729,8.466c0.049,0.022,0.101,0.043,0.155,0.057
					c0.055,0.016,0.111,0.027,0.173,0.033c0.061,0.007,0.121,0.008,0.186,0.005c0.064-0.002,0.131-0.01,0.197-0.022
					c0.187-0.036,1.204-0.233,2.841-0.55c1.643-0.317,3.917-0.756,6.603-1.273c2.708-0.521,5.844-1.123,9.185-1.762
					c3.374-0.644,6.96-1.326,10.526-1.999l-16.732-9.174c-3.694,0.762-7.406,1.531-10.894,2.257
					c-3.457,0.719-6.697,1.396-9.494,1.981c-2.776,0.581-5.121,1.073-6.818,1.431c-1.686,0.354-2.735,0.576-2.927,0.618
					c-0.068,0.013-0.138,0.022-0.203,0.026c-0.066,0.003-0.13,0.002-0.193-0.003c-0.063-0.007-0.121-0.017-0.174-0.031
					C66.773,95.132,66.724,95.113,66.672,95.089z"/>
			</defs>
			<clipPath id="SVGID_3_">
				<use xlink:href="#SVGID_2_"  overflow="visible"/>
			</clipPath>
		</g>
	</g>
	<g>
		<g>
			<defs>
				<path id="SVGID_4_" d="M72.74,95.089c5.91,2.822,11.82,5.644,17.729,8.466c0.049,0.022,0.101,0.043,0.155,0.057
					c0.055,0.016,0.111,0.027,0.173,0.033c0.061,0.007,0.121,0.008,0.186,0.005c0.064-0.002,0.131-0.01,0.197-0.022
					c0.187-0.036,1.204-0.233,2.841-0.55c1.643-0.317,3.917-0.756,6.603-1.273c2.708-0.521,5.844-1.123,9.185-1.762
					c3.374-0.644,6.96-1.326,10.526-1.999l-16.732-9.174c-3.694,0.762-7.406,1.531-10.894,2.257
					c-3.457,0.719-6.697,1.396-9.494,1.981c-2.776,0.581-5.121,1.073-6.818,1.431c-1.686,0.354-2.735,0.576-2.927,0.618
					c-0.068,0.013-0.138,0.022-0.203,0.026c-0.066,0.003-0.13,0.002-0.193-0.003c-0.063-0.007-0.121-0.017-0.174-0.031
					C72.841,95.132,72.792,95.113,72.74,95.089z"/>
			</defs>
			<clipPath id="SVGID_5_">
				<use xlink:href="#SVGID_4_"  overflow="visible"/>
			</clipPath>
		</g>
	</g>
</g>
<g>
	
		<image overflow="visible" opacity="0.75" width="480" height="331" xlink:href="E7A117DD439BFBF9.png"  transform="matrix(0.24 0 0 0.24 44.1025 61.25)">
	</image>
	<g>
		
			<linearGradient id="SVGID_6_" gradientUnits="userSpaceOnUse" x1="93.4707" y1="100.8799" x2="172.1836" y2="100.8799" gradientTransform="matrix(-1 0 0 1 240.5586 0)">
			<stop  offset="0" style="stop-color:#FFFFFF"/>
			<stop  offset="1" style="stop-color:#662F90"/>
		</linearGradient>
		<path fill="url(#SVGID_6_)" d="M68.534,113.804c0.053,0.015,0.111,0.024,0.174,0.031c0.063,0.005,0.126,0.006,0.193,0.003
			c0.064-0.004,0.135-0.014,0.203-0.026c0.191-0.042,1.241-0.264,2.927-0.618c1.697-0.357,4.042-0.85,6.818-1.431
			c2.797-0.585,6.038-1.263,9.494-1.981c3.488-0.726,7.2-1.495,10.894-2.257c0.142-0.024,0.283-0.048,0.42-0.073
			c0.139-0.023,0.276-0.049,0.411-0.074c0.135-0.026,0.27-0.052,0.401-0.077c0.131-0.026,0.262-0.052,0.391-0.078
			c6.334-1.297,8.605-3.187,8.857-5.374c0.25-2.179-1.508-4.621-3.152-7.067c-1.625-2.422-3.14-4.85-2.5-7.076
			c0.639-2.222,3.433-4.277,10.53-6.001c0.219-0.056,0.436-0.11,0.649-0.164c0.214-0.055,0.427-0.106,0.637-0.159
			c0.21-0.051,0.418-0.102,0.622-0.152c0.205-0.049,0.408-0.097,0.609-0.144c2.152-0.508,4.04-0.887,5.685-1.151
			c1.653-0.266,3.065-0.416,4.259-0.463c1.198-0.047,2.177,0.009,2.966,0.155c0.791,0.147,1.39,0.385,1.826,0.698
			c5.082,3.653,10.161,7.306,15.241,10.959c-0.426-0.306-1.007-0.541-1.772-0.694c-0.764-0.152-1.708-0.221-2.863-0.195
			c-1.152,0.025-2.512,0.146-4.107,0.374c-1.586,0.225-3.403,0.557-5.476,1.006c-0.193,0.042-0.388,0.085-0.586,0.129
			c-0.198,0.043-0.396,0.088-0.6,0.134c-0.201,0.046-0.406,0.093-0.614,0.141c-0.206,0.048-0.414,0.099-0.623,0.147
			c-6.844,1.531-9.519,3.448-10.105,5.558c-0.586,2.115,0.917,4.451,2.528,6.783c1.627,2.354,3.366,4.705,3.154,6.775
			c-0.21,2.077-2.376,3.844-8.489,4.99c-0.124,0.024-0.249,0.048-0.376,0.07c-0.126,0.021-0.256,0.045-0.388,0.066
			c-0.129,0.023-0.263,0.044-0.397,0.066c-0.133,0.022-0.268,0.044-0.405,0.065c-3.566,0.673-7.153,1.355-10.526,1.999
			c-3.341,0.639-6.477,1.241-9.185,1.762c-2.687,0.518-4.96,0.956-6.603,1.273c-1.637,0.316-2.654,0.514-2.841,0.55
			c-0.066,0.013-0.132,0.021-0.197,0.022c-0.065,0.003-0.125,0.002-0.186-0.005c-0.062-0.006-0.118-0.018-0.173-0.033
			c-0.055-0.014-0.106-0.034-0.155-0.057l-17.729-8.466C68.427,113.769,68.476,113.787,68.534,113.804z"/>
	</g>
</g>
<g>
	
		<image overflow="visible" opacity="0.75" width="243" height="274" xlink:href="E7A117DD439BFBFF.png"  transform="matrix(0.24 0 0 0.24 102.2686 62.334)">
	</image>
	<g>
		<g>
			<defs>
				<path id="SVGID_7_" d="M145.272,100.493c0.546-0.926,1.094-1.852,1.577-2.747c0.479-0.894,0.892-1.755,1.165-2.551
					c0.272-0.796,0.406-1.526,0.334-2.157c-0.073-0.631-0.354-1.162-0.913-1.562L132.17,80.538c0.572,0.411,0.856,0.964,0.923,1.626
					c0.065,0.662-0.084,1.431-0.38,2.272c-0.295,0.842-0.736,1.753-1.249,2.701c-0.509,0.948-1.094,1.932-1.674,2.915
					c-0.593,1.002-1.185,2.005-1.697,2.971c-0.513,0.965-0.946,1.894-1.223,2.748c-0.278,0.855-0.399,1.639-0.287,2.311
					c0.112,0.674,0.458,1.236,1.119,1.655l15.693,9.937c-0.644-0.407-0.984-0.948-1.103-1.591c-0.118-0.64-0.012-1.383,0.244-2.191
					c0.258-0.81,0.662-1.688,1.142-2.597C144.158,102.384,144.714,101.439,145.272,100.493z"/>
			</defs>
			<clipPath id="SVGID_8_">
				<use xlink:href="#SVGID_7_"  overflow="visible"/>
			</clipPath>
		</g>
		<g>
			<defs>
				<path id="SVGID_9_" d="M145.272,100.493c0.546-0.926,1.094-1.852,1.577-2.747c0.479-0.894,0.892-1.755,1.165-2.551
					c0.272-0.796,0.406-1.526,0.334-2.157c-0.073-0.631-0.354-1.162-0.913-1.562L132.17,80.538c0.572,0.411,0.856,0.964,0.923,1.626
					c0.065,0.662-0.084,1.431-0.38,2.272c-0.295,0.842-0.736,1.753-1.249,2.701c-0.509,0.948-1.094,1.932-1.674,2.915
					c-0.593,1.002-1.185,2.005-1.697,2.971c-0.513,0.965-0.946,1.894-1.223,2.748c-0.278,0.855-0.399,1.639-0.287,2.311
					c0.112,0.674,0.458,1.236,1.119,1.655l15.693,9.937c-0.644-0.407-0.984-0.948-1.103-1.591c-0.118-0.64-0.012-1.383,0.244-2.191
					c0.258-0.81,0.662-1.688,1.142-2.597C144.158,102.384,144.714,101.439,145.272,100.493z"/>
			</defs>
			<clipPath id="SVGID_10_">
				<use xlink:href="#SVGID_9_"  overflow="visible"/>
			</clipPath>
			
				<linearGradient id="SVGID_11_" gradientUnits="userSpaceOnUse" x1="92.1904" y1="95.1055" x2="114.0181" y2="95.1055" gradientTransform="matrix(-1 0 0 1 240.5586 0)">
				<stop  offset="0" style="stop-color:#FFFFFF"/>
				<stop  offset="1" style="stop-color:#662F90"/>
			</linearGradient>
			<path clip-path="url(#SVGID_10_)" fill="url(#SVGID_11_)" d="M127.701,99.737l15.693,9.937c-0.644-0.407-0.984-0.948-1.103-1.591
				c-0.118-0.64-0.012-1.383,0.244-2.191c0.258-0.81,0.662-1.688,1.142-2.597c0.481-0.911,1.037-1.855,1.596-2.802
				c0.546-0.926,1.094-1.852,1.577-2.747c0.479-0.894,0.892-1.755,1.165-2.552c0.272-0.795,0.406-1.525,0.334-2.156
				c-0.073-0.631-0.354-1.162-0.913-1.562L132.17,80.538c0.572,0.411,0.856,0.964,0.923,1.626c0.065,0.662-0.084,1.431-0.38,2.272
				c-0.295,0.842-0.736,1.753-1.249,2.701c-0.509,0.948-1.094,1.932-1.674,2.915c-0.593,1.002-1.185,2.004-1.697,2.971
				c-0.513,0.965-0.946,1.894-1.223,2.748c-0.278,0.855-0.399,1.638-0.287,2.31C126.694,98.756,127.04,99.318,127.701,99.737z"/>
		</g>
		<g>
			<defs>
				<path id="SVGID_12_" d="M145.272,100.493c0.546-0.926,1.094-1.852,1.577-2.747c0.479-0.894,0.892-1.755,1.165-2.551
					c0.272-0.796,0.406-1.526,0.334-2.157c-0.073-0.631-0.354-1.162-0.913-1.562L132.17,80.538c0.572,0.411,0.856,0.964,0.923,1.626
					c0.065,0.662-0.084,1.431-0.38,2.272c-0.295,0.842-0.736,1.753-1.249,2.701c-0.509,0.948-1.094,1.932-1.674,2.915
					c-0.593,1.002-1.185,2.005-1.697,2.971c-0.513,0.965-0.946,1.894-1.223,2.748c-0.278,0.855-0.399,1.639-0.287,2.311
					c0.112,0.674,0.458,1.236,1.119,1.655l15.693,9.937c-0.644-0.407-0.984-0.948-1.103-1.591c-0.118-0.64-0.012-1.383,0.244-2.191
					c0.258-0.81,0.662-1.688,1.142-2.597C144.158,102.384,144.714,101.439,145.272,100.493z"/>
			</defs>
			<clipPath id="SVGID_13_">
				<use xlink:href="#SVGID_12_"  overflow="visible"/>
			</clipPath>
		</g>
	</g>
</g>
<g>
	<g opacity="0.75">
		<g>
			<defs>
				<path id="SVGID_14_" d="M125.661,80.992c5.223,3.315,10.446,6.632,15.668,9.949c0.186,0.118,0.397,0.228,0.633,0.326
					c0.234,0.098,0.496,0.186,0.785,0.262c0.29,0.077,0.606,0.143,0.95,0.196c0.346,0.054,0.722,0.096,1.128,0.125
					c0.135,0.01,0.271,0.019,0.414,0.025c0.144,0.007,0.287,0.012,0.438,0.017c0.148,0.003,0.301,0.007,0.457,0.007
					c0.157,0.002,0.317,0.002,0.481,0l-15.482-9.981c-0.168,0.004-0.336,0.007-0.5,0.008c-0.16,0.001-0.319,0.001-0.474-0.001
					c-0.156-0.002-0.306-0.006-0.454-0.011s-0.291-0.012-0.431-0.02c-0.421-0.024-0.81-0.063-1.167-0.114
					c-0.357-0.052-0.684-0.115-0.983-0.191s-0.57-0.164-0.812-0.265C126.069,81.225,125.852,81.113,125.661,80.992z"/>
			</defs>
			<clipPath id="SVGID_15_">
				<use xlink:href="#SVGID_14_"  overflow="visible"/>
			</clipPath>
		</g>
	</g>
	<g>
		<g>
			<defs>
				<path id="SVGID_16_" d="M131.729,80.992c5.223,3.315,10.446,6.632,15.668,9.949c0.186,0.118,0.397,0.228,0.633,0.326
					c0.234,0.098,0.496,0.186,0.785,0.262c0.29,0.077,0.606,0.143,0.95,0.196c0.346,0.054,0.722,0.096,1.128,0.125
					c0.135,0.01,0.271,0.019,0.414,0.025c0.144,0.007,0.287,0.012,0.438,0.017c0.148,0.003,0.301,0.007,0.457,0.007
					c0.157,0.002,0.317,0.002,0.481,0l-15.482-9.981c-0.168,0.004-0.336,0.007-0.5,0.008c-0.16,0.001-0.319,0.001-0.474-0.001
					c-0.156-0.002-0.306-0.006-0.454-0.011s-0.291-0.012-0.431-0.02c-0.421-0.024-0.81-0.063-1.167-0.114
					c-0.357-0.052-0.684-0.115-0.983-0.191s-0.57-0.164-0.812-0.265C132.137,81.225,131.92,81.113,131.729,80.992z"/>
			</defs>
			<clipPath id="SVGID_17_">
				<use xlink:href="#SVGID_16_"  overflow="visible"/>
			</clipPath>
		</g>
	</g>
</g>
<g>
	
		<image overflow="visible" opacity="0.75" width="215" height="312" xlink:href="E7A117DD439BFBF8.png"  transform="matrix(0.24 0 0 0.24 157.6221 -9.2363)">
	</image>
	<g>
		<g>
			<defs>
				<path id="SVGID_18_" d="M184.363,33.242c4.207,4.714,8.414,9.428,12.619,14.143c-0.271-0.305-0.518-0.659-0.734-1.069
					c-0.218-0.41-0.404-0.874-0.562-1.397s-0.285-1.104-0.38-1.75c-0.095-0.645-0.157-1.352-0.185-2.128
					c-0.092-2.761-0.178-5.155-0.254-7.195c-0.076-2.033-0.142-3.719-0.195-5.069c-0.054-1.348-0.097-2.363-0.129-3.06
					c-0.029-0.694-0.047-1.07-0.052-1.14c-0.001-0.04-0.005-0.077-0.011-0.113s-0.018-0.07-0.029-0.104
					c-0.012-0.033-0.027-0.065-0.046-0.096c-0.016-0.03-0.037-0.06-0.058-0.086c0-0.247-0.413-0.503-0.59-0.719
					c-1.817-2.219-3.635-4.438-5.451-6.657c-0.187-0.229-0.437-0.533-0.624-0.763c-1.929-2.355-3.858-4.713-5.788-7.07
					c0.023,0.028,0.044,0.058,0.061,0.09c0.02,0.03,0.035,0.063,0.047,0.099c0.011,0.034,0.022,0.07,0.028,0.108
					c0.009,0.037,0.012,0.077,0.012,0.118c0.003,0.071,0.017,0.466,0.04,1.192c0.023,0.729,0.055,1.792,0.095,3.202
					c0.04,1.414,0.089,3.179,0.143,5.308c0.056,2.139,0.116,4.646,0.18,7.541c0.018,0.812,0.075,1.554,0.164,2.228
					c0.092,0.675,0.217,1.283,0.377,1.827c0.158,0.547,0.35,1.03,0.571,1.455C183.832,32.562,184.084,32.929,184.363,33.242z"/>
			</defs>
			<linearGradient id="SVGID_19_" gradientUnits="userSpaceOnUse" x1="181.8945" y1="28.1758" x2="196.9824" y2="28.1758">
				<stop  offset="0.1353" style="stop-color:#8762A8"/>
				<stop  offset="1" style="stop-color:#FFFFFF"/>
			</linearGradient>
			<use xlink:href="#SVGID_18_"  overflow="visible" fill="url(#SVGID_19_)"/>
			<clipPath id="SVGID_20_">
				<use xlink:href="#SVGID_18_"  overflow="visible"/>
			</clipPath>
		</g>
	</g>
</g>
<g>
	
		<image overflow="visible" opacity="0.75" width="583" height="498" xlink:href="E7A117DD439BFBF6.png"  transform="matrix(0.24 0 0 0.24 104.0229 9.4043)">
	</image>
	<g>
		
			<linearGradient id="SVGID_21_" gradientUnits="userSpaceOnUse" x1="98.2505" y1="116.8096" x2="9.4948" y2="42.3347" gradientTransform="matrix(-1 0 0 1 240.5586 0)">
			<stop  offset="0" style="stop-color:#662F90"/>
			<stop  offset="0.0943" style="stop-color:#683291"/>
			<stop  offset="0.1773" style="stop-color:#6D3A94"/>
			<stop  offset="0.2561" style="stop-color:#75479A"/>
			<stop  offset="0.3323" style="stop-color:#8058A3"/>
			<stop  offset="0.4067" style="stop-color:#906FAF"/>
			<stop  offset="0.4796" style="stop-color:#A58BC0"/>
			<stop  offset="0.5514" style="stop-color:#C4B3D7"/>
			<stop  offset="0.6206" style="stop-color:#ECE7F3"/>
			<stop  offset="0.6429" style="stop-color:#FFFFFF"/>
			<stop  offset="0.6806" style="stop-color:#DFD8EB"/>
			<stop  offset="0.7699" style="stop-color:#AB93C4"/>
			<stop  offset="0.8497" style="stop-color:#8B68AB"/>
			<stop  offset="0.917" style="stop-color:#774A9B"/>
			<stop  offset="0.9692" style="stop-color:#6B3693"/>
			<stop  offset="1" style="stop-color:#662F90"/>
		</linearGradient>
		<path fill="url(#SVGID_21_)" d="M133.103,100.518c0.088-0.018,0.178-0.037,0.268-0.055c0.088-0.019,0.176-0.037,0.266-0.055
			c0.089-0.02,0.179-0.038,0.269-0.056c5.315-1.099,10.833-2.237,16.177-3.34c5.416-1.117,10.644-2.194,15.266-3.147
			c4.679-0.964,8.722-1.797,11.691-2.409c2.993-0.617,4.884-1.006,5.226-1.077c0.242-0.049,0.47-0.132,0.674-0.24
			c0.205-0.107,0.388-0.241,0.541-0.392c0.153-0.149,0.277-0.315,0.359-0.49c0.083-0.172,0.129-0.354,0.125-0.535
			c-0.005-0.178-0.033-1.155-0.073-2.751c-0.043-1.591-0.1-3.794-0.17-6.428c-0.066-2.62-0.144-5.664-0.222-8.951
			c-0.082-3.268-0.164-6.773-0.247-10.345c-0.106-2.012,0.003-3.709,0.296-5.143c0.292-1.432,0.769-2.602,1.398-3.558
			c0.628-0.957,1.411-1.701,2.315-2.277c0.909-0.577,1.94-0.987,3.066-1.274c0.791-0.202,1.633-0.343,2.509-0.439
			c0.877-0.095,1.792-0.145,2.732-0.164c0.943-0.019,1.913-0.008,2.896,0.02c0.987,0.025,1.988,0.068,2.995,0.11
			c1.01,0.043,2.021,0.087,3.024,0.113c1.008,0.027,2.007,0.04,2.984,0.02c0.98-0.021,1.941-0.071,2.865-0.172
			c0.932-0.099,1.823-0.247,2.672-0.458c1.274-0.318,2.445-0.779,3.465-1.439c1.023-0.661,1.892-1.52,2.567-2.628
			c0.674-1.108,1.154-2.464,1.393-4.12c0.239-1.65,0.239-3.596-0.04-5.881c-0.061-0.609-0.141-1.175-0.242-1.7
			c-0.104-0.522-0.226-1.005-0.368-1.447c-0.141-0.442-0.302-0.845-0.483-1.211c-0.178-0.364-0.376-0.694-0.591-0.989
			c3.674,5.035,7.347,10.068,11.021,15.103c0.207,0.284,0.397,0.6,0.573,0.951c0.175,0.351,0.333,0.737,0.472,1.16
			c0.139,0.422,0.259,0.883,0.36,1.382c0.104,0.5,0.186,1.039,0.248,1.619c0.286,2.176,0.303,4.021,0.09,5.584
			c-0.213,1.564-0.655,2.842-1.288,3.881c-0.63,1.039-1.45,1.837-2.417,2.444c-0.966,0.606-2.075,1.023-3.287,1.301
			c-0.805,0.185-1.654,0.309-2.539,0.386c-0.882,0.077-1.797,0.108-2.729,0.11c-0.935,0-1.887-0.029-2.845-0.074
			c-0.961-0.044-1.928-0.104-2.888-0.163c-0.963-0.059-1.919-0.117-2.862-0.162c-0.938-0.042-1.864-0.071-2.765-0.071
			c-0.897,0.002-1.772,0.032-2.61,0.106c-0.837,0.074-1.639,0.193-2.393,0.371c-1.075,0.251-2.057,0.622-2.919,1.155
			c-0.86,0.53-1.6,1.223-2.192,2.121c-0.591,0.897-1.032,2.002-1.298,3.356c-0.264,1.356-0.351,2.968-0.227,4.881
			c0.116,3.394,0.235,6.722,0.348,9.823c0.112,3.12,0.219,6.007,0.312,8.492c0.094,2.497,0.174,4.584,0.23,6.093
			c0.059,1.512,0.095,2.437,0.102,2.605c0.004,0.17-0.037,0.342-0.115,0.505c-0.076,0.164-0.191,0.32-0.336,0.459
			s-0.319,0.263-0.513,0.362c-0.195,0.1-0.411,0.174-0.642,0.218c-0.327,0.062-2.127,0.401-4.98,0.94
			c-2.835,0.536-6.693,1.266-11.16,2.111c-4.42,0.835-9.418,1.781-14.606,2.763c-5.116,0.97-10.41,1.972-15.512,2.938
			c-0.085,0.016-0.171,0.032-0.257,0.047c-0.086,0.018-0.17,0.033-0.257,0.051c-0.085,0.015-0.169,0.039-0.256,0.048
			c-1.966,0.205-4.198-0.422-5.444-1.026c-3.946-1.915-14.834-9.373-14.834-9.373C128.383,100.088,133.013,100.536,133.103,100.518z
			"/>
	</g>
</g>
<g>
	
		<image overflow="visible" opacity="0.75" width="853" height="590" xlink:href="E7A117DD439BFBF7.png"  transform="matrix(0.24 0 0 0.24 28.2466 -9.5488)">
	</image>
	<g>
		<g>
			
				<linearGradient id="SVGID_22_" gradientUnits="userSpaceOnUse" x1="178.0439" y1="104.0293" x2="27.7775" y2="17.273" gradientTransform="matrix(-1 0 0 1 240.5586 0)">
				<stop  offset="0" style="stop-color:#FFFFFF"/>
				<stop  offset="1" style="stop-color:#662F90"/>
			</linearGradient>
			<path fill="url(#SVGID_22_)" d="M180.43,8.759c-0.213,0.064-1.38,0.425-3.331,1.025c-1.938,0.599-4.646,1.433-7.942,2.449
				c-3.271,1.007-7.112,2.19-11.349,3.497c-4.189,1.29-8.761,2.699-13.543,4.174l-32.549,10.024
				c-4.336,1.336-8.795,2.713-13.041,4.025c-4.198,1.297-8.189,2.532-11.66,3.606c-3.435,1.064-6.37,1.973-8.5,2.632
				c-2.117,0.656-3.448,1.068-3.688,1.144c-0.166,0.051-0.325,0.126-0.472,0.222c-0.149,0.093-0.283,0.206-0.397,0.329
				c-0.118,0.123-0.213,0.257-0.282,0.394c-0.069,0.138-0.112,0.279-0.122,0.415c-0.003,0.041-0.019,0.272-0.053,0.768
				c-0.038,0.495-0.097,1.254-0.182,2.353c-0.083,1.1-0.195,2.541-0.342,4.402c-0.146,1.865-0.329,4.158-0.556,6.954
				c-0.074,2.695-0.256,4.942-0.531,6.807c-0.276,1.871-0.643,3.352-1.084,4.516c-0.439,1.163-0.955,2.008-1.528,2.604
				c-0.569,0.596-1.194,0.944-1.859,1.12c-0.381,0.102-0.775,0.146-1.178,0.147c-0.4,0.002-0.811-0.039-1.229-0.107
				c-0.416-0.068-0.839-0.165-1.263-0.275s-0.85-0.233-1.278-0.357c-0.426-0.123-0.849-0.245-1.273-0.354
				c-0.421-0.107-0.84-0.201-1.25-0.268c-0.414-0.065-0.82-0.104-1.217-0.099s-0.785,0.051-1.162,0.153
				c-0.549,0.148-1.073,0.416-1.566,0.844c-0.493,0.429-0.954,1.018-1.374,1.813c-0.42,0.795-0.802,1.797-1.133,3.05
				c-0.333,1.255-0.619,2.763-0.849,4.57c-0.151,1.721-0.164,3.099-0.055,4.189c0.109,1.094,0.336,1.897,0.665,2.466
				c0.328,0.57,0.754,0.903,1.254,1.058c0.5,0.152,1.082,0.123,1.708-0.03c0.353-0.086,0.719-0.211,1.102-0.365
				c0.378-0.154,0.774-0.34,1.172-0.544c0.401-0.204,0.811-0.427,1.226-0.662c0.416-0.233,0.834-0.477,1.254-0.723
				c0.42-0.244,0.842-0.489,1.259-0.725c0.416-0.236,0.83-0.462,1.234-0.669c0.407-0.206,0.806-0.393,1.194-0.552
				c0.385-0.158,0.762-0.287,1.122-0.375c0.582-0.145,1.122-0.187,1.605-0.084c0.485,0.103,0.91,0.349,1.26,0.782
				c0.354,0.437,0.631,1.06,0.815,1.912c0.187,0.854,0.281,1.941,0.263,3.303c-0.172,2.119-0.368,4.531-0.561,6.978
				c-0.197,2.457-0.394,4.947-0.57,7.197c-0.178,2.262-0.336,4.279-0.455,5.779c-0.118,1.505-0.192,2.484-0.207,2.664
				c-0.014,0.155,0.009,0.297,0.062,0.42c0.053,0.122,0.137,0.226,0.242,0.304c0.108,0.08,0.236,0.135,0.382,0.162
				c0.148,0.027,0.311,0.023,0.486-0.011c0.191-0.042,1.241-0.264,2.927-0.618c1.697-0.357,4.042-0.85,6.818-1.431
				c2.797-0.585,6.038-1.263,9.494-1.981c3.488-0.726,7.2-1.495,10.894-2.257c0.142-0.024,0.283-0.048,0.42-0.073
				c0.139-0.023,0.276-0.049,0.411-0.074c0.135-0.026,0.27-0.052,0.401-0.077c0.131-0.026,0.262-0.052,0.391-0.078
				c6.334-1.297,8.605-3.187,8.857-5.374c0.25-2.179-1.508-4.621-3.152-7.067c-1.625-2.422-3.14-4.85-2.5-7.076
				c0.639-2.222,3.433-4.277,10.53-6.001c0.219-0.056,0.436-0.11,0.649-0.164c0.214-0.055,0.427-0.106,0.637-0.159
				c0.21-0.051,0.418-0.102,0.622-0.152c0.205-0.049,0.408-0.097,0.609-0.144c8.912-2.099,13.217-2.01,14.866-0.66
				c1.665,1.359,0.612,3.982-1.036,6.887c-1.648,2.907-3.885,6.09-4.594,8.6c-0.709,2.518,0.11,4.376,4.63,4.64
				c0.141,0.008,0.283,0.015,0.431,0.02s0.297,0.009,0.454,0.011c0.154,0.002,0.313,0.002,0.474,0.001
				c0.163-0.001,0.332-0.004,0.5-0.008c0.088-0.019,0.177-0.037,0.266-0.056c0.088-0.018,0.178-0.037,0.268-0.055
				c0.088-0.019,0.176-0.037,0.266-0.055c0.089-0.02,0.179-0.038,0.269-0.056c5.315-1.099,10.833-2.237,16.177-3.34
				c5.416-1.117,10.644-2.194,15.266-3.147c4.679-0.964,8.722-1.797,11.691-2.409c2.993-0.617,4.884-1.006,5.226-1.077
				c0.242-0.049,0.47-0.132,0.674-0.24c0.205-0.107,0.388-0.241,0.541-0.392c0.153-0.149,0.277-0.315,0.359-0.49
				c0.083-0.172,0.129-0.354,0.125-0.535c-0.005-0.178-0.033-1.155-0.073-2.751c-0.043-1.591-0.1-3.794-0.17-6.428
				c-0.066-2.62-0.144-5.664-0.222-8.951c-0.082-3.268-0.164-6.773-0.247-10.345c-0.106-2.012,0.003-3.709,0.296-5.143
				c0.292-1.432,0.769-2.602,1.398-3.558c0.628-0.957,1.411-1.701,2.315-2.277c0.909-0.577,1.94-0.987,3.066-1.274
				c0.791-0.202,1.633-0.343,2.509-0.439c0.877-0.095,1.792-0.145,2.732-0.164c0.943-0.019,1.913-0.008,2.896,0.02
				c0.987,0.025,1.988,0.068,2.995,0.11c1.01,0.043,2.021,0.087,3.024,0.113c1.008,0.027,2.007,0.04,2.984,0.02
				c0.98-0.021,1.941-0.071,2.865-0.172c0.932-0.099,1.823-0.247,2.672-0.458c1.274-0.318,2.445-0.779,3.465-1.439
				c1.023-0.661,1.892-1.52,2.567-2.628c0.674-1.108,1.154-2.464,1.393-4.12c0.239-1.65,0.239-3.596-0.04-5.881
				c-0.182-1.841-0.559-3.282-1.104-4.384c-0.546-1.1-1.255-1.862-2.101-2.354c-0.843-0.489-1.817-0.708-2.896-0.719
				c-1.076-0.01-2.252,0.188-3.501,0.529c-0.753,0.208-1.534,0.469-2.333,0.771c-0.799,0.299-1.616,0.64-2.447,1.006
				c-0.827,0.365-1.667,0.757-2.513,1.161c-0.845,0.404-1.693,0.82-2.543,1.235c-0.846,0.414-1.691,0.827-2.527,1.227
				c-0.834,0.399-1.663,0.785-2.477,1.143c-0.812,0.357-1.608,0.688-2.382,0.978c-0.777,0.29-1.529,0.54-2.256,0.737
				c-1.248,0.339-2.416,0.52-3.465,0.477c-1.047-0.043-1.978-0.309-2.755-0.864c-0.775-0.554-1.402-1.396-1.846-2.589
				c-0.443-1.189-0.703-2.729-0.748-4.684c-0.063-2.895-0.124-5.402-0.18-7.541c-0.054-2.129-0.103-3.894-0.143-5.308
				c-0.04-1.41-0.071-2.473-0.095-3.202c-0.023-0.727-0.037-1.121-0.04-1.192c-0.003-0.155-0.051-0.289-0.133-0.398
				c-0.085-0.108-0.202-0.191-0.35-0.248c-0.145-0.056-0.32-0.084-0.511-0.081S180.649,8.691,180.43,8.759z"/>
		</g>
	</g>
</g>
<g>
	<g opacity="0.75">
		<g>
			<defs>
				<path id="SVGID_23_" d="M180.66,149.145c7.694-1.812,15.393-3.624,23.09-5.437c0.188-0.046,0.377-0.093,0.565-0.143
					s0.381-0.102,0.571-0.154c0.192-0.054,0.384-0.108,0.575-0.165c0.192-0.056,0.385-0.113,0.578-0.17
					c0.195-0.059,0.394-0.116,0.59-0.173c0.195-0.058,0.391-0.113,0.587-0.168c0.195-0.055,0.388-0.109,0.584-0.159
					c0.192-0.051,0.388-0.1,0.578-0.145l0,0c-7.634,1.794-15.267,3.588-22.901,5.383c-0.198,0.046-0.399,0.097-0.603,0.149
					c-0.202,0.053-0.404,0.108-0.606,0.166c-0.204,0.057-0.407,0.115-0.611,0.176s-0.411,0.121-0.613,0.182
					c-0.201,0.06-0.402,0.118-0.604,0.177c-0.198,0.059-0.398,0.117-0.597,0.173c-0.2,0.056-0.397,0.11-0.596,0.162
					S180.854,149.1,180.66,149.145z"/>
			</defs>
			<clipPath id="SVGID_24_">
				<use xlink:href="#SVGID_23_"  overflow="visible"/>
			</clipPath>
		</g>
	</g>
	<g>
		<g>
			<defs>
				<path id="SVGID_25_" d="M186.729,149.145c7.694-1.812,15.393-3.624,23.09-5.437c0.188-0.046,0.377-0.093,0.565-0.143
					s0.381-0.102,0.571-0.154c0.192-0.054,0.384-0.108,0.575-0.165c0.192-0.056,0.385-0.113,0.578-0.17
					c0.195-0.059,0.394-0.116,0.59-0.173c0.195-0.058,0.391-0.113,0.587-0.168c0.195-0.055,0.388-0.109,0.584-0.159
					c0.192-0.051,0.388-0.1,0.578-0.145l0,0c-7.634,1.794-15.267,3.588-22.901,5.383c-0.198,0.046-0.399,0.097-0.603,0.149
					c-0.202,0.053-0.404,0.108-0.606,0.166c-0.204,0.057-0.407,0.115-0.611,0.176s-0.411,0.121-0.613,0.182
					c-0.201,0.06-0.402,0.118-0.604,0.177c-0.198,0.059-0.398,0.117-0.597,0.173c-0.2,0.056-0.397,0.11-0.596,0.162
					S186.922,149.1,186.729,149.145z"/>
			</defs>
			<clipPath id="SVGID_26_">
				<use xlink:href="#SVGID_25_"  overflow="visible"/>
			</clipPath>
		</g>
	</g>
</g>
<g>
	
		<image overflow="visible" opacity="0.75" width="957" height="729" xlink:href="E7A117DD439BFC07.png"  transform="matrix(0.24 0 0 0.24 16.4429 85.457)">
	</image>
	<g>
		<g>
			<g>
				<defs>
					<path id="SVGID_27_" d="M104.802,237.921c6.07,1.163,12.139,2.326,18.208,3.49c0.508,0.098,1.062,0.185,1.662,0.259
						c0.603,0.074,1.25,0.138,1.948,0.187c0.698,0.052,1.447,0.09,2.248,0.113c0.803,0.022,1.66,0.034,2.571,0.029l-17.875-3.496
						c-0.95,0.009-1.843,0.001-2.678-0.02c-0.832-0.021-1.609-0.058-2.337-0.107c-0.723-0.049-1.396-0.112-2.019-0.188
						C105.905,238.11,105.33,238.021,104.802,237.921z"/>
				</defs>
				<clipPath id="SVGID_28_">
					<use xlink:href="#SVGID_27_"  overflow="visible"/>
				</clipPath>
			</g>
			<g>
				<defs>
					<path id="SVGID_29_" d="M113.564,238.503l17.875,3.496c10.236-0.608,15.092-2.393,17.032-4.772
						c1.943-2.382,0.93-5.318-0.354-8.25c-1.271-2.907-2.806-5.804-1.981-8.212c0.82-2.403,4-4.353,12.283-5.405l-16.305-5.37
						c-8.663,1.182-12.011,3.277-12.902,5.838c-0.897,2.566,0.658,5.637,1.942,8.723c1.294,3.112,2.31,6.233,0.244,8.781
						C129.337,235.876,124.241,237.802,113.564,238.503z"/>
				</defs>
				<clipPath id="SVGID_30_">
					<use xlink:href="#SVGID_29_"  overflow="visible"/>
				</clipPath>
			</g>
		</g>
		<g>
			
				<linearGradient id="SVGID_31_" gradientUnits="userSpaceOnUse" x1="189.6943" y1="198.6289" x2="167.0272" y2="179.6089" gradientTransform="matrix(-1 0 0 1 240.5586 0)">
				<stop  offset="0" style="stop-color:#FFFFFF"/>
				<stop  offset="0.1137" style="stop-color:#E2EADA"/>
				<stop  offset="0.36" style="stop-color:#B2CBA0"/>
				<stop  offset="0.5806" style="stop-color:#8EB678"/>
				<stop  offset="0.7675" style="stop-color:#74A95A"/>
				<stop  offset="0.9132" style="stop-color:#63A24B"/>
				<stop  offset="1" style="stop-color:#5CA047"/>
			</linearGradient>
			<path fill="url(#SVGID_31_)" d="M43.669,189.668c0.137,0.021,0.273,0.034,0.417,0.042c0.141,0.006,0.289,0.005,0.438-0.002
				c0.148-0.008,0.302-0.022,0.458-0.044c0.565-0.076,1.169-0.237,1.802-0.462c0.636-0.226,1.297-0.515,1.982-0.847
				c0.683-0.334,1.385-0.711,2.094-1.108c0.713-0.398,1.432-0.818,2.148-1.239c0.719-0.421,1.433-0.84,2.137-1.239
				c0.705-0.4,1.396-0.777,2.063-1.113c0.667-0.335,1.312-0.628,1.921-0.854c0.613-0.229,1.191-0.392,1.723-0.467
				c0.144-0.021,0.288-0.035,0.426-0.043c0.138-0.008,0.274-0.008,0.404,0c0.134,0.007,0.261,0.021,0.384,0.043
				c0.124,0.022,0.243,0.053,0.359,0.092c6.234,2.077,12.466,4.154,18.699,6.232c-0.113-0.037-0.231-0.067-0.349-0.089
				c-0.123-0.022-0.248-0.038-0.374-0.046c-0.129-0.008-0.259-0.008-0.394-0.004c-0.135,0.007-0.273,0.019-0.415,0.037
				c-0.518,0.067-1.076,0.216-1.667,0.427c-0.591,0.211-1.212,0.483-1.856,0.795c-0.645,0.312-1.309,0.666-1.986,1.039
				c-0.678,0.372-1.365,0.766-2.057,1.157c-0.692,0.395-1.385,0.787-2.069,1.16c-0.685,0.371-1.362,0.723-2.022,1.032
				c-0.659,0.311-1.3,0.58-1.916,0.789c-0.612,0.209-1.199,0.355-1.746,0.424c-0.153,0.019-0.302,0.031-0.449,0.037
				c-0.144,0.005-0.286,0.005-0.425-0.003c-0.138-0.008-0.273-0.022-0.407-0.043c-0.134-0.022-0.262-0.052-0.387-0.089
				l-19.334-5.704C43.402,189.615,43.533,189.646,43.669,189.668z"/>
			<g>
				
					<linearGradient id="SVGID_32_" gradientUnits="userSpaceOnUse" x1="139.6064" y1="232.2959" x2="156.04" y2="203.8321" gradientTransform="matrix(-1 0 0 1 240.5586 0)">
					<stop  offset="0" style="stop-color:#FFFFFF"/>
					<stop  offset="0.1137" style="stop-color:#E2EADA"/>
					<stop  offset="0.36" style="stop-color:#B2CBA0"/>
					<stop  offset="0.5806" style="stop-color:#8EB678"/>
					<stop  offset="0.7675" style="stop-color:#74A95A"/>
					<stop  offset="0.9132" style="stop-color:#63A24B"/>
					<stop  offset="1" style="stop-color:#5CA047"/>
				</linearGradient>
				<path fill="url(#SVGID_32_)" d="M62.16,216.742c0,0,8.369,6.283,10.552,6.364c3.375,0.125,34.953-3.69,35.321-3.729
					c0.369-0.04,0.733-0.077,1.088-0.113c0.356-0.034,0.707-0.069,1.05-0.1c0.343-0.031,0.682-0.06,1.012-0.088
					c1.476-0.122,2.822-0.203,4.049-0.249c1.232-0.043,2.342-0.048,3.343-0.02c1.002,0.031,1.891,0.096,2.678,0.191
					c0.787,0.098,1.468,0.229,2.057,0.389l-17.829-4.857c-0.608-0.165-1.316-0.299-2.133-0.396c-0.813-0.099-1.735-0.16-2.774-0.186
					c-1.036-0.022-2.19-0.008-3.468,0.047c-1.273,0.056-2.669,0.152-4.2,0.291c-0.342,0.032-0.693,0.066-1.051,0.101
					c-0.355,0.037-0.718,0.076-1.089,0.114c-0.37,0.041-0.748,0.084-1.13,0.129C89.254,214.676,62.554,216.693,62.16,216.742z"/>
			</g>
			<g>
				<defs>
					<path id="SVGID_33_" d="M104.802,237.921c6.07,1.163,12.139,2.326,18.208,3.49c0.508,0.098,1.062,0.185,1.662,0.259
						c0.603,0.074,1.25,0.138,1.948,0.187c0.698,0.052,1.447,0.09,2.248,0.113c0.803,0.022,1.66,0.034,2.571,0.029l-17.875-3.496
						c-0.95,0.009-1.843,0.001-2.678-0.02c-0.832-0.021-1.609-0.058-2.337-0.107c-0.723-0.049-1.396-0.112-2.019-0.188
						C105.905,238.11,105.33,238.021,104.802,237.921z"/>
				</defs>
				<clipPath id="SVGID_34_">
					<use xlink:href="#SVGID_33_"  overflow="visible"/>
				</clipPath>
			</g>
			<g>
				<defs>
					<path id="SVGID_35_" d="M113.564,238.503l17.875,3.496c10.236-0.608,15.092-2.393,17.032-4.772
						c1.943-2.382,0.93-5.318-0.354-8.25c-1.271-2.907-2.806-5.804-1.981-8.212c0.82-2.403,4-4.353,12.283-5.405l-16.305-5.37
						c-8.663,1.182-12.011,3.277-12.902,5.838c-0.897,2.566,0.658,5.637,1.942,8.723c1.294,3.112,2.31,6.233,0.244,8.781
						C129.337,235.876,124.241,237.802,113.564,238.503z"/>
				</defs>
				<clipPath id="SVGID_36_">
					<use xlink:href="#SVGID_35_"  overflow="visible"/>
				</clipPath>
			</g>
			
				<linearGradient id="SVGID_37_" gradientUnits="userSpaceOnUse" x1="50.5908" y1="158.2344" x2="43.2737" y2="116.7368" gradientTransform="matrix(-1 0 0 1 240.5586 0)">
				<stop  offset="0" style="stop-color:#FFFFFF"/>
				<stop  offset="0.0882" style="stop-color:#F4F7F1"/>
				<stop  offset="0.2434" style="stop-color:#E0E8D7"/>
				<stop  offset="0.4473" style="stop-color:#C1D4B1"/>
				<stop  offset="0.6923" style="stop-color:#97BB82"/>
				<stop  offset="0.9691" style="stop-color:#63A24B"/>
				<stop  offset="1" style="stop-color:#5CA047"/>
			</linearGradient>
			<path fill="url(#SVGID_37_)" d="M198.749,125.895c0.037,0.031,0.069,0.065,0.098,0.102c0.03,0.036,0.056,0.074,0.078,0.114
				c0.019,0.04,0.037,0.082,0.046,0.125c0.013,0.045,0.02,0.089,0.022,0.137c0.005,0.163,0.035,1.061,0.087,2.56
				c0.052,1.502,0.123,3.613,0.213,6.201c0.089,2.599,0.193,5.684,0.313,9.122c0.12,3.46,0.251,7.281,0.391,11.328
				c0.033,0.644,0.099,1.218,0.188,1.729c0.093,0.51,0.216,0.956,0.363,1.343c0.148,0.388,0.327,0.716,0.528,0.991
				c0.203,0.274,0.429,0.495,0.681,0.667c-4.508-3.085-9.015-6.17-13.519-9.257c-0.262-0.178-0.498-0.409-0.708-0.697
				c-0.207-0.289-0.389-0.635-0.541-1.045c-0.15-0.407-0.273-0.88-0.363-1.42c-0.091-0.539-0.151-1.148-0.178-1.83
				c-0.098-4.288-0.19-8.335-0.272-11.997c-0.084-3.639-0.158-6.901-0.222-9.651c-0.061-2.735-0.112-4.966-0.148-6.555
				c-0.034-1.582-0.058-2.529-0.061-2.703c-0.001-0.049-0.007-0.098-0.019-0.144s-0.028-0.09-0.049-0.132
				c-0.023-0.042-0.048-0.081-0.078-0.119c-0.031-0.037-0.065-0.073-0.104-0.105C189.912,118.402,194.33,122.148,198.749,125.895z"
				/>
			<g>
				
					<linearGradient id="SVGID_38_" gradientUnits="userSpaceOnUse" x1="120.8569" y1="104.9287" x2="98.1145" y2="233.9073" gradientTransform="matrix(-1 0 0 1 240.5586 0)">
					<stop  offset="0" style="stop-color:#FFFFFF"/>
					<stop  offset="0.1137" style="stop-color:#E2EADA"/>
					<stop  offset="0.36" style="stop-color:#B2CBA0"/>
					<stop  offset="0.5806" style="stop-color:#8EB678"/>
					<stop  offset="0.7675" style="stop-color:#74A95A"/>
					<stop  offset="0.9132" style="stop-color:#63A24B"/>
					<stop  offset="1" style="stop-color:#5CA047"/>
				</linearGradient>
				<path fill="url(#SVGID_38_)" d="M120.349,104.931c-0.267,0.062-0.54,0.128-0.814,0.195c-0.277,0.067-0.557,0.137-0.841,0.21
					c-0.286,0.072-0.577,0.147-0.873,0.225c-0.295,0.077-0.595,0.158-0.899,0.239c-7.699,1.948-10.635,4.068-11.239,6.281
					c-0.605,2.219,1.121,4.563,2.877,6.915c1.773,2.374,3.577,4.752,3.006,6.952c-0.57,2.206-3.516,4.198-11.116,5.751
					c-0.275,0.057-0.558,0.112-0.848,0.168c-0.288,0.055-0.581,0.11-0.883,0.163c-0.297,0.054-0.604,0.107-0.917,0.159
					c-0.312,0.053-0.63,0.105-0.957,0.156c-3.959,0.819-7.601,1.57-10.834,2.239c-3.209,0.662-6.023,1.243-8.364,1.725
					c-2.324,0.48-4.184,0.864-5.499,1.135c-1.306,0.269-2.074,0.427-2.214,0.455c-0.2,0.045-0.396,0.113-0.574,0.202
					c-0.181,0.087-0.344,0.193-0.483,0.312c-0.14,0.118-0.256,0.25-0.34,0.387c-0.086,0.135-0.138,0.277-0.149,0.416
					c-0.009,0.136-0.072,0.885-0.175,2.141c-0.103,1.259-0.248,3.031-0.426,5.211c-0.179,2.189-0.391,4.794-0.63,7.712
					c-0.238,2.931-0.506,6.183-0.788,9.645c-0.089,0.937-0.244,1.729-0.457,2.398c-0.214,0.669-0.488,1.214-0.813,1.65
					c-0.323,0.438-0.7,0.768-1.119,1.007c-0.419,0.239-0.88,0.391-1.376,0.471c-0.486,0.077-1.01,0.089-1.555,0.049
					c-0.546-0.039-1.119-0.13-1.71-0.252c-0.593-0.123-1.202-0.278-1.824-0.448s-1.257-0.355-1.896-0.539s-1.283-0.365-1.925-0.529
					c-0.643-0.162-1.283-0.307-1.916-0.416s-1.257-0.183-1.87-0.206c-0.611-0.021-1.21,0.008-1.787,0.104
					c-0.86,0.143-1.677,0.437-2.434,0.935c-0.753,0.495-1.451,1.194-2.068,2.154c-0.617,0.957-1.156,2.176-1.599,3.712
					c-0.443,1.54-0.791,3.399-1.024,5.642c-0.254,2.055-0.331,3.733-0.253,5.089c0.083,1.36,0.319,2.394,0.685,3.157
					c0.368,0.767,0.864,1.259,1.467,1.534c0.601,0.275,1.306,0.334,2.087,0.228c0.565-0.076,1.169-0.237,1.802-0.462
					c0.636-0.226,1.297-0.515,1.982-0.847c0.683-0.334,1.385-0.711,2.094-1.108c0.713-0.398,1.432-0.818,2.148-1.239
					c0.719-0.421,1.433-0.84,2.137-1.239c0.705-0.4,1.396-0.777,2.063-1.113c0.667-0.335,1.312-0.628,1.921-0.854
					c0.613-0.229,1.191-0.392,1.723-0.467c0.624-0.09,1.185-0.06,1.671,0.126c0.483,0.186,0.89,0.527,1.199,1.061
					c0.31,0.532,0.521,1.258,0.622,2.21c0.098,0.955,0.083,2.139-0.065,3.587c-0.296,3.64-0.58,7.098-0.837,10.25
					c-0.259,3.171-0.493,6.029-0.692,8.452c-0.199,2.435-0.362,4.426-0.479,5.849c-0.116,1.427-0.187,2.278-0.198,2.435
					c-0.013,0.159,0.016,0.307,0.084,0.439c0.065,0.13,0.167,0.244,0.299,0.336c0.132,0.091,0.291,0.161,0.472,0.202
					s0.383,0.056,0.594,0.036c0.089-0.012,0.574-0.072,1.52-0.182c0.949-0.109,2.362-0.269,4.315-0.478
					c1.962-0.21,4.467-0.469,7.602-0.782c3.16-0.313,6.965-0.681,11.508-1.104c0.394-0.049,0.785-0.096,1.168-0.141
					c0.382-0.045,0.761-0.088,1.13-0.129c0.371-0.038,0.733-0.077,1.089-0.114c0.358-0.034,0.709-0.068,1.051-0.101
					c10.469-0.956,14.653,0.129,15.538,2.293c0.889,2.179-1.574,5.411-4.144,8.707c-2.568,3.292-5.241,6.644-4.825,9.135
					c0.418,2.504,3.973,4.173,14.087,4.081c10.677-0.701,15.773-2.627,17.834-5.172c2.066-2.548,1.051-5.669-0.244-8.781
					c-1.285-3.086-2.839-6.156-1.942-8.723c0.892-2.561,4.239-4.656,12.902-5.838c3.765-0.354,8.198-0.765,12.783-1.19
					c4.64-0.43,9.436-0.875,13.832-1.282c4.447-0.412,8.479-0.785,11.498-1.065c3.045-0.281,5.049-0.467,5.416-0.501
					c0.299-0.029,0.584-0.096,0.841-0.189c0.255-0.093,0.488-0.214,0.681-0.354c0.189-0.141,0.344-0.302,0.448-0.473
					c0.105-0.172,0.161-0.356,0.158-0.544c-0.003-0.137-0.02-0.893-0.049-2.172c-0.028-1.276-0.068-3.075-0.117-5.299
					c-0.052-2.217-0.112-4.854-0.179-7.817c-0.066-2.948-0.144-6.217-0.222-9.714c0.125-1.904,0.432-3.486,0.886-4.797
					c0.455-1.311,1.063-2.354,1.795-3.179c0.729-0.826,1.585-1.435,2.538-1.875c0.954-0.441,2.006-0.714,3.129-0.866
					c0.701-0.095,1.43-0.145,2.178-0.157c0.751-0.013,1.521,0.01,2.309,0.056s1.588,0.116,2.397,0.197
					c0.812,0.082,1.63,0.177,2.448,0.271c0.819,0.096,1.64,0.192,2.454,0.276c0.816,0.084,1.623,0.156,2.416,0.206
					c0.794,0.049,1.575,0.074,2.333,0.064s1.496-0.054,2.2-0.147c1.201-0.158,2.313-0.455,3.297-0.946
					c0.985-0.494,1.84-1.184,2.527-2.131c0.686-0.944,1.203-2.143,1.512-3.652c0.309-1.506,0.408-3.317,0.262-5.488
					c-0.316-3.244-0.838-5.853-1.52-7.924c-0.68-2.062-1.522-3.596-2.494-4.699c-0.963-1.099-2.057-1.772-3.241-2.114
					c-1.18-0.343-2.451-0.357-3.774-0.14c-0.854,0.141-1.731,0.378-2.623,0.687c-0.89,0.309-1.791,0.688-2.698,1.115
					c-0.906,0.425-1.816,0.896-2.725,1.391c-0.904,0.493-1.804,1.007-2.691,1.521c-0.881,0.511-1.751,1.019-2.597,1.499
					c-0.845,0.479-1.666,0.933-2.456,1.335c-0.786,0.4-1.541,0.749-2.255,1.022c-0.71,0.273-1.381,0.471-1.999,0.568
					c-0.633,0.1-1.211,0.095-1.728-0.04c-0.514-0.134-0.964-0.397-1.341-0.816c-0.375-0.419-0.679-0.991-0.896-1.743
					c-0.222-0.75-0.356-1.681-0.4-2.816c-0.098-4.288-0.19-8.335-0.272-11.997c-0.084-3.639-0.158-6.901-0.222-9.651
					c-0.061-2.735-0.112-4.966-0.148-6.555c-0.034-1.582-0.058-2.529-0.061-2.703c-0.004-0.159-0.062-0.301-0.165-0.418
					c-0.104-0.118-0.253-0.212-0.436-0.28c-0.184-0.066-0.4-0.108-0.641-0.116c-0.24-0.009-0.503,0.013-0.779,0.068
					c-0.23,0.048-1.486,0.308-3.59,0.743c-2.094,0.432-5.02,1.037-8.594,1.776c-3.542,0.731-7.71,1.593-12.326,2.546
					c-4.559,0.942-9.547,1.972-14.787,3.055c-0.332,0.079-0.657,0.155-0.978,0.229c-0.32,0.073-0.635,0.145-0.944,0.213
					c-0.307,0.069-0.609,0.136-0.907,0.198c-0.298,0.064-0.587,0.125-0.873,0.185c-0.536,0.108-1.055,0.21-1.552,0.303
					c-0.497,0.092-0.978,0.175-1.438,0.251c-0.46,0.076-0.9,0.143-1.328,0.203c-0.425,0.06-0.831,0.11-1.224,0.155
					c-0.09,0.018-0.18,0.036-0.269,0.056c-0.09,0.017-0.178,0.036-0.266,0.055c-0.09,0.018-0.18,0.037-0.269,0.055
					c-0.089,0.019-0.178,0.037-0.267,0.055c-0.167,0.005-0.336,0.008-0.499,0.009c-0.161,0.001-0.32,0.001-0.474-0.001
					c-0.157-0.002-0.306-0.006-0.455-0.011c-0.148-0.005-0.291-0.012-0.431-0.02c-2.122,0.022-3.51-0.293-4.352-0.861
					c-0.84-0.567-1.14-1.386-1.079-2.373c0.062-0.985,0.48-2.139,1.08-3.377c0.599-1.238,1.38-2.562,2.163-3.887
					c0.972-1.645,1.949-3.29,2.589-4.769c0.64-1.479,0.941-2.79,0.562-3.767c-0.376-0.973-1.429-1.609-3.485-1.744
					C127.691,103.554,124.665,103.916,120.349,104.931z"/>
			</g>
			
				<linearGradient id="SVGID_39_" gradientUnits="userSpaceOnUse" x1="103.8955" y1="257.5293" x2="34.543" y2="137.4072" gradientTransform="matrix(-1 0 0 1 240.5586 0)">
				<stop  offset="0" style="stop-color:#5CA047"/>
				<stop  offset="0.7143" style="stop-color:#FFFFFF"/>
				<stop  offset="0.7392" style="stop-color:#F5F7F2"/>
				<stop  offset="0.7821" style="stop-color:#E2E9D9"/>
				<stop  offset="0.8377" style="stop-color:#C4D6B5"/>
				<stop  offset="0.904" style="stop-color:#9DBE88"/>
				<stop  offset="0.9785" style="stop-color:#6CA653"/>
				<stop  offset="1" style="stop-color:#5CA047"/>
			</linearGradient>
			<path fill="url(#SVGID_39_)" d="M106.529,238.188c0.623,0.075,1.296,0.139,2.019,0.188c0.728,0.05,1.506,0.086,2.337,0.107
				c0.835,0.021,1.728,0.028,2.678,0.02c10.677-0.701,15.773-2.627,17.834-5.172c2.066-2.548,1.051-5.669-0.244-8.781
				c-1.285-3.086-2.839-6.156-1.942-8.723c0.892-2.561,4.239-4.656,12.902-5.838c3.765-0.354,8.198-0.765,12.783-1.19
				c4.64-0.43,9.436-0.875,13.832-1.282c4.447-0.412,8.479-0.785,11.498-1.065c3.045-0.281,5.049-0.467,5.416-0.501
				c0.299-0.029,0.584-0.096,0.841-0.189c0.255-0.093,0.488-0.214,0.681-0.354c0.189-0.141,0.344-0.302,0.448-0.473
				c0.105-0.172,0.161-0.356,0.158-0.544c-0.003-0.137-0.02-0.893-0.049-2.172c-0.028-1.276-0.068-3.075-0.117-5.299
				c-0.052-2.217-0.112-4.854-0.179-7.817c-0.066-2.948-0.144-6.217-0.222-9.714c0.125-1.904,0.432-3.486,0.886-4.797
				c0.455-1.311,1.063-2.354,1.795-3.179c0.729-0.826,1.585-1.435,2.538-1.875c0.954-0.441,2.006-0.714,3.129-0.866
				c0.701-0.095,1.43-0.145,2.178-0.157c0.751-0.013,1.521,0.01,2.309,0.056s1.588,0.116,2.397,0.197
				c0.812,0.082,1.63,0.177,2.448,0.271c0.819,0.096,1.64,0.192,2.454,0.276c0.816,0.084,1.623,0.156,2.416,0.206
				c0.794,0.049,1.575,0.074,2.333,0.064s1.496-0.054,2.2-0.147c1.201-0.158,2.313-0.455,3.297-0.946
				c0.985-0.494,1.84-1.184,2.527-2.131c0.686-0.944,1.203-2.143,1.512-3.652c0.309-1.506,0.408-3.317,0.262-5.488
				c-0.182-1.855-0.429-3.502-0.735-4.96c-0.304-1.452-0.669-2.718-1.084-3.813c-0.415-1.093-0.881-2.019-1.393-2.794
				c-0.51-0.773-1.063-1.397-1.655-1.893c4.002,3.344,8.008,6.686,12.013,10.028c0.566,0.474,1.099,1.067,1.588,1.801
				c0.491,0.736,0.94,1.612,1.343,2.645c0.403,1.035,0.761,2.229,1.062,3.598c0.305,1.373,0.553,2.923,0.742,4.668
				c0.155,2.039,0.078,3.739-0.2,5.148c-0.278,1.414-0.756,2.533-1.397,3.413s-1.445,1.519-2.372,1.972
				c-0.926,0.451-1.977,0.719-3.114,0.854c-0.666,0.08-1.364,0.114-2.082,0.116s-1.459-0.031-2.211-0.086
				c-0.754-0.054-1.521-0.131-2.294-0.219c-0.772-0.086-1.551-0.185-2.329-0.283c-0.779-0.097-1.556-0.193-2.327-0.279
				c-0.769-0.086-1.53-0.158-2.278-0.211c-0.746-0.051-1.479-0.079-2.191-0.074c-0.711,0.005-1.402,0.043-2.068,0.125
				c-1.065,0.131-2.062,0.377-2.966,0.781c-0.901,0.404-1.709,0.969-2.394,1.737c-0.688,0.768-1.254,1.742-1.674,2.97
				c-0.419,1.229-0.691,2.713-0.791,4.501c0.112,3.285,0.219,6.356,0.313,9.126c0.098,2.781,0.182,5.256,0.253,7.335
				c0.072,2.087,0.13,3.773,0.17,4.97c0.042,1.2,0.066,1.909,0.069,2.037c0.006,0.175-0.044,0.347-0.145,0.507
				c-0.098,0.161-0.241,0.311-0.423,0.44c-0.181,0.132-0.396,0.243-0.641,0.328c-0.242,0.086-0.513,0.146-0.797,0.172
				c-0.349,0.028-2.251,0.187-5.141,0.43c-2.871,0.24-6.701,0.562-10.932,0.916c-4.187,0.352-8.755,0.734-13.18,1.104
				c-4.374,0.37-8.61,0.727-12.206,1.03c-8.283,1.053-11.463,3.002-12.283,5.405c-0.824,2.408,0.71,5.305,1.981,8.212
				c1.283,2.932,2.297,5.868,0.354,8.25c-1.939,2.38-6.796,4.164-17.032,4.772c-0.911,0.005-1.768-0.007-2.571-0.029
				c-0.801-0.023-1.55-0.062-2.248-0.113c-0.697-0.049-1.341-0.204-1.948-0.187c-3.627,0.104-9.991-1.316-10.502-1.396
				c-10.375-1.625-13.458-3.501-13.458-3.501C101.24,236.873,105.905,238.11,106.529,238.188z"/>
		</g>
		<g>
			<g>
				<defs>
					<path id="SVGID_40_" d="M104.802,237.921c6.07,1.163,12.139,2.326,18.208,3.49c0.508,0.098,1.062,0.185,1.662,0.259
						c0.603,0.074,1.25,0.138,1.948,0.187c0.698,0.052,1.447,0.09,2.248,0.113c0.803,0.022,1.66,0.034,2.571,0.029l-17.875-3.496
						c-0.95,0.009-1.843,0.001-2.678-0.02c-0.832-0.021-1.609-0.058-2.337-0.107c-0.723-0.049-1.396-0.112-2.019-0.188
						C105.905,238.11,105.33,238.021,104.802,237.921z"/>
				</defs>
				<clipPath id="SVGID_41_">
					<use xlink:href="#SVGID_40_"  overflow="visible"/>
				</clipPath>
			</g>
			<g>
				<defs>
					<path id="SVGID_42_" d="M113.564,238.503l17.875,3.496c10.236-0.608,15.092-2.393,17.032-4.772
						c1.943-2.382,0.93-5.318-0.354-8.25c-1.271-2.907-2.806-5.804-1.981-8.212c0.82-2.403,4-4.353,12.283-5.405l-16.305-5.37
						c-8.663,1.182-12.011,3.277-12.902,5.838c-0.897,2.566,0.658,5.637,1.942,8.723c1.294,3.112,2.31,6.233,0.244,8.781
						C129.337,235.876,124.241,237.802,113.564,238.503z"/>
				</defs>
				<clipPath id="SVGID_43_">
					<use xlink:href="#SVGID_42_"  overflow="visible"/>
				</clipPath>
			</g>
		</g>
	</g>
</g>
<g id="Arrow_11">
	<g>
		
			<image overflow="visible" opacity="0.95" width="450" height="494" xlink:href="E7A117DD439BFC09.png"  transform="matrix(0.24 0 0 0.24 68.3247 108.041)">
		</image>
		<g>
			<g enable-background="new    ">
				<g>
					<polygon fill="#8C8C8C" points="95.444,162.894 100.305,164.733 94.186,168.446 89.325,166.605 					"/>
				</g>
				<g>
					<polygon fill="#808080" points="89.369,166.601 94.229,168.44 94.19,168.445 89.33,166.605 					"/>
				</g>
				<g>
					<polygon fill="#868686" points="95.432,162.901 100.292,164.742 94.229,168.44 89.369,166.601 					"/>
				</g>
				<g>
					<polygon fill="#9E9E9E" points="95.432,162.901 89.369,166.601 89.33,166.605 					"/>
					<g enable-background="new    ">
						<defs>
							<polygon id="SVGID_44_" enable-background="new    " points="95.432,162.901 89.369,166.601 89.33,166.605 							"/>
						</defs>
						<clipPath id="SVGID_45_">
							<use xlink:href="#SVGID_44_"  overflow="visible"/>
						</clipPath>
						<g clip-path="url(#SVGID_45_)">
							<g>
								<g>
									<defs>
										<polyline id="SVGID_46_" points="89.369,166.601 89.33,166.605 95.432,162.901 89.369,166.601 										"/>
									</defs>
									<clipPath id="SVGID_47_">
										<use xlink:href="#SVGID_46_"  overflow="visible"/>
									</clipPath>
									<g transform="matrix(1 0 0 1 7.629395e-06 1.525879e-05)" clip-path="url(#SVGID_47_)">
										
											<image overflow="visible" width="26" height="16" xlink:href="E7A117DD439BFC0B.png"  transform="matrix(0.24 0 0 0.24 89.3296 162.9014)">
										</image>
									</g>
								</g>
							</g>
						</g>
					</g>
				</g>
				<g>
					<polygon fill="#8D3904" points="102.615,165.086 107.476,166.926 94.225,168.443 89.364,166.604 					"/>
				</g>
				<g>
					<polygon fill="#A9A9A9" points="119.883,132.845 124.744,134.686 100.305,164.733 95.444,162.894 					"/>
				</g>
				<g>
					<polygon fill="#808080" points="105.325,161.769 110.187,163.609 100.337,164.714 95.477,162.874 					"/>
				</g>
				<g>
					<polygon fill="#BC4F18" points="105.325,161.752 102.615,165.086 89.364,166.604 95.432,162.901 					"/>
				</g>
				<g>
					<polygon fill="#AD4813" points="105.325,161.752 110.186,163.592 107.476,166.926 102.615,165.086 					"/>
				</g>
				<g>
					
						<rect x="105.157" y="162.671" transform="matrix(-0.9352 -0.354 0.354 -0.9352 150.9491 352.9543)" fill="#C1521A" width="5.197" height="0.001"/>
				</g>
				<g>
					<polygon fill="#BDBDBD" points="119.871,129.041 119.883,132.845 95.444,162.894 89.325,166.605 					"/>
				</g>
				<g>
					<polygon fill="#E0E0E0" points="119.871,129.041 124.732,130.881 124.744,134.686 119.883,132.845 					"/>
				</g>
				<g>
					<polygon fill="#BC4F18" points="105.325,161.769 105.237,200.53 102.53,203.602 102.615,165.086 					"/>
				</g>
				<g>
					<polygon fill="#D75B1F" points="105.325,161.769 110.187,163.609 110.098,202.37 105.237,200.53 					"/>
				</g>
				<g>
					<polygon fill="#AA4712" points="105.237,200.53 110.098,202.37 107.391,205.441 102.53,203.602 					"/>
				</g>
				<g>
					<polygon fill="#808080" points="141.988,201.455 141.987,201.455 141.91,201.383 					"/>
					<g enable-background="new    ">
						<defs>
							<polygon id="SVGID_48_" enable-background="new    " points="141.988,201.455 141.987,201.455 141.91,201.383 							"/>
						</defs>
						<clipPath id="SVGID_49_">
							<use xlink:href="#SVGID_48_"  overflow="visible"/>
						</clipPath>
						<g clip-path="url(#SVGID_49_)">
							<g>
								<g>
									<defs>
										<polyline id="SVGID_50_" points="141.987,201.455 141.91,201.383 141.988,201.455 141.987,201.455 										"/>
									</defs>
									<clipPath id="SVGID_51_">
										<use xlink:href="#SVGID_50_"  overflow="visible"/>
									</clipPath>
									<g transform="matrix(1 0 0 1 1.525879e-05 1.525879e-05)" clip-path="url(#SVGID_51_)">
										
											<image overflow="visible" width="1" height="1" xlink:href="7A4872FAC58B6B58.png"  transform="matrix(0.24 0 0 0.24 141.9102 201.3828)">
										</image>
									</g>
								</g>
							</g>
						</g>
					</g>
				</g>
				<g>
					<polygon fill="#B0B0B0" points="134.56,158.181 139.421,160.021 139.354,199.029 134.493,197.189 					"/>
				</g>
				<g>
					<polygon fill="#C1C1C1" points="134.583,158.204 139.445,160.044 142.142,162.736 137.281,160.896 					"/>
				</g>
				<g>
					<polygon fill="#8D3904" points="141.596,160.403 146.457,162.243 142.142,162.736 137.281,160.896 					"/>
				</g>
				<g>
					<polygon fill="#808080" points="144.109,157.095 148.97,158.936 139.421,160.021 134.56,158.181 					"/>
				</g>
				<g>
					<polygon fill="#A0A0A0" points="119.874,132.856 124.735,134.696 148.97,158.936 144.109,157.095 					"/>
				</g>
				<g>
					<polygon fill="#A0420E" points="144.109,157.095 148.97,158.936 151.38,159.848 146.52,158.008 					"/>
				</g>
				<g>
					<polygon fill="#808080" points="134.493,197.189 139.354,199.029 110.098,202.37 105.237,200.53 					"/>
				</g>
				<g>
					<polygon fill="#9E9E9E" points="119.874,132.856 144.109,157.095 134.56,158.181 134.493,197.189 105.237,200.53 
						105.325,161.769 95.477,162.874 					"/>
					<g enable-background="new    ">
						<defs>
							<polygon id="SVGID_52_" enable-background="new    " points="119.874,132.856 144.109,157.095 134.56,158.181 
								134.493,197.189 105.237,200.53 105.325,161.769 95.477,162.874 							"/>
						</defs>
						<clipPath id="SVGID_53_">
							<use xlink:href="#SVGID_52_"  overflow="visible"/>
						</clipPath>
						<g clip-path="url(#SVGID_53_)">
							<g>
								<g>
									<defs>
										<polyline id="SVGID_54_" points="134.56,158.181 134.493,197.189 105.237,200.53 105.325,161.769 95.477,162.874 
											119.874,132.856 144.109,157.095 134.56,158.181 										"/>
									</defs>
									<clipPath id="SVGID_55_">
										<use xlink:href="#SVGID_54_"  overflow="visible"/>
									</clipPath>
									<g transform="matrix(1 0 0 1 7.629395e-06 1.525879e-05)" clip-path="url(#SVGID_55_)">
										
											<image overflow="visible" width="203" height="282" xlink:href="7A4872FAC58B6B5F.png"  transform="matrix(0.24 0 0 0.24 95.4766 132.8564)">
										</image>
									</g>
								</g>
							</g>
						</g>
					</g>
				</g>
				<g>
					<polygon fill="#A0420E" points="146.52,158.008 151.38,159.848 155.085,161.257 150.225,159.416 					"/>
				</g>
				<g>
					<polygon fill="#8D3904" points="150.225,159.416 155.085,161.257 146.457,162.243 141.596,160.403 					"/>
				</g>
				<g>
					<polygon fill="#808080" points="150.256,159.414 155.117,161.254 151.38,159.848 146.52,158.008 					"/>
				</g>
				<g>
					<polygon fill="#808080" points="150.256,159.414 155.117,161.254 147.894,162.079 143.033,160.238 					"/>
				</g>
				<g>
					<polygon fill="#BC4F18" points="144.109,157.095 146.52,158.008 150.225,159.416 141.596,160.403 137.281,160.896 
						134.583,158.204 					"/>
				</g>
				<g>
					<polygon fill="#9F9F9F" points="150.225,159.416 146.52,158.008 150.256,159.414 143.033,160.238 					"/>
					<g enable-background="new    ">
						<defs>
							<polygon id="SVGID_56_" enable-background="new    " points="150.225,159.416 146.52,158.008 150.256,159.414 
								143.033,160.238 							"/>
						</defs>
						<clipPath id="SVGID_57_">
							<use xlink:href="#SVGID_56_"  overflow="visible"/>
						</clipPath>
						<g clip-path="url(#SVGID_57_)">
							<g>
								<g>
									<defs>
										<polyline id="SVGID_58_" points="143.033,160.238 150.225,159.416 146.52,158.008 150.256,159.414 143.033,160.238 
																					"/>
									</defs>
									<clipPath id="SVGID_59_">
										<use xlink:href="#SVGID_58_"  overflow="visible"/>
									</clipPath>
									<g transform="matrix(1 0 0 1 1.525879e-05 1.525879e-05)" clip-path="url(#SVGID_59_)">
										
											<image overflow="visible" width="31" height="10" xlink:href="7A4872FAC58B6B59.png"  transform="matrix(0.24 0 0 0.24 143.0327 158.0078)">
										</image>
									</g>
								</g>
							</g>
						</g>
					</g>
				</g>
				<g>
					<polygon fill="#BDBDBD" points="119.871,129.041 150.256,159.414 146.52,158.008 144.117,157.095 119.874,132.872 					"/>
				</g>
				<g>
					<polygon fill="#C1C1C1" points="119.871,129.041 124.732,130.881 155.117,161.254 150.256,159.414 					"/>
				</g>
				<g>
					<polygon fill="#BEBEBE" points="134.493,197.189 139.354,199.029 141.91,201.383 137.049,199.543 					"/>
				</g>
				<g>
					<polygon fill="#BEBEBE" points="137.049,199.543 141.91,201.383 141.988,201.455 137.126,199.615 					"/>
				</g>
				<g>
					<polygon fill="#9F9F9F" points="137.049,199.543 141.91,201.383 141.987,201.455 137.126,199.615 					"/>
				</g>
				<g>
					<polygon fill="#BDBDBD" points="134.493,197.189 137.049,199.543 137.126,199.615 102.53,203.602 105.237,200.53 					"/>
				</g>
				<g>
					<polygon fill="#808080" points="137.126,199.615 141.988,201.455 107.391,205.441 102.53,203.602 					"/>
				</g>
				<g>
					<polygon fill="#E0E0E0" points="137.281,160.896 142.142,162.736 142.054,201.516 137.193,199.675 					"/>
				</g>
				<g>
					<polygon fill="#BDBDBD" points="134.583,158.204 137.281,160.896 137.193,199.675 137.128,199.615 137.049,199.543 
						134.517,197.187 					"/>
				</g>
			</g>
		</g>
	</g>
</g>
</svg>
