<?xml version="1.0" encoding="utf-8"?>
<!-- Generator: Adobe Illustrator 16.0.0, SVG Export Plug-In . SVG Version: 6.00 Build 0)  -->
<!DOCTYPE svg PUBLIC "-//W3C//DTD SVG 1.1//EN" "http://www.w3.org/Graphics/SVG/1.1/DTD/svg11.dtd">
<svg version="1.1" id="Layer_1" xmlns="http://www.w3.org/2000/svg" xmlns:xlink="http://www.w3.org/1999/xlink" x="0px" y="0px"
	 width="256px" height="256px" viewBox="0 0 256 256" enable-background="new 0 0 256 256" xml:space="preserve">
<g id="Arrow_11">
</g>
<g>
	<linearGradient id="SVGID_1_" gradientUnits="userSpaceOnUse" x1="39.5801" y1="43.5479" x2="47.6632" y2="43.5479">
		<stop  offset="0.3462" style="stop-color:#662F90"/>
		<stop  offset="0.3923" style="stop-color:#733B90"/>
		<stop  offset="0.5514" style="stop-color:#9C6291"/>
		<stop  offset="0.6974" style="stop-color:#C18290"/>
		<stop  offset="0.8255" style="stop-color:#DE9C8E"/>
		<stop  offset="0.9307" style="stop-color:#F0AD8C"/>
		<stop  offset="1" style="stop-color:#FAB48B"/>
	</linearGradient>
	<path fill="url(#SVGID_1_)" d="M47.006,43.158c0,4.813-1.559,8.717-3.481,8.717c-1.922,0-3.48-3.903-3.48-8.717
		c0-4.814-0.378-8.099,3.603-7.932C45.568,35.308,47.006,38.344,47.006,43.158z"/>
	<g>
		<g>
			<defs>
				<path id="SVGID_2_" d="M146.391,67.328c-0.377-5.245,10.366-10.862,23.996-12.555c13.628-1.691,24.978,1.19,25.351,6.435
					c0.37,5.24-10.372,10.858-23.999,12.551C158.109,75.449,146.762,72.568,146.391,67.328"/>
			</defs>
			<clipPath id="SVGID_3_">
				<use xlink:href="#SVGID_2_"  overflow="visible"/>
			</clipPath>
			
				<radialGradient id="SVGID_4_" cx="-99.4761" cy="120.2275" r="0.7972" gradientTransform="matrix(39.3289 0 0 -39.3289 4082.3525 4781.3706)" gradientUnits="userSpaceOnUse">
				<stop  offset="0" style="stop-color:#FFFFFF"/>
				<stop  offset="0.1404" style="stop-color:#FFFFFF"/>
				<stop  offset="0.3315" style="stop-color:#61A137"/>
				<stop  offset="1" style="stop-color:#61A137"/>
			</radialGradient>
			<rect x="146.013" y="53.082" clip-path="url(#SVGID_3_)" fill="url(#SVGID_4_)" width="50.094" height="22.367"/>
		</g>
		<path fill="#F26522" d="M43.269,46.262c1.595,1.092,3.757,0.675,4.846-0.935c1.087-1.587,0.671-3.764-0.943-4.843
			c-1.587-1.095-3.754-0.668-4.849,0.934C41.25,43.021,41.66,45.185,43.269,46.262"/>
		<path fill="#662D91" d="M51.183,37.473c0-1.588-0.648-2.234-2.059-2.234l0.707-2.174h13.372v4.524l-2.762,0.706
			c0-2.41-0.823-2.938-3.468-2.938c-1.793,0-2.029,0.176-2.029,2.116v3.938c0.47,0.058,0.882,0.058,1.323,0.058
			c1.059,0,1.764-0.205,1.852-1.411l2.587-0.646v6.203l-2.441,0.617c0-2.057-0.498-2.47-1.321-2.47h-2v5.526
			c0.851,0.233,1.793,0.294,2.646,0.294c1.999,0,2.762-0.648,3.055-2.616l2.765-0.883v5.792H49.006l0.706-2.177
			c0.822,0,1.471-0.352,1.471-1.764V37.473z"/>
		<path fill="#662D91" d="M64.729,51.875l0.705-1.999c1.059-0.118,1.38-0.413,1.38-1.706v-5.583c0-1.999-0.321-2.175-1.997-2.35
			l0.705-2c1.412-0.089,3.086-0.265,5.084-0.59l-0.117,2.205c1.263-1.323,2.674-2.205,4.35-2.205c3.026,0,4.113,2.41,4.113,5.352
			v5.289c0,1.352,0.384,1.588,1.559,1.588l-0.677,1.999h-6.76l0.588-1.999c1.322-0.178,1.645-0.766,1.645-2.47v-3.761
			c0-1.704-0.5-2.706-2.321-2.706c-1.792,0-2.526,1.529-2.526,3.881v3.468c0,1.233,0.264,1.528,2.026,1.588l-0.706,1.999H64.729z"/>
		<path fill="#662D91" d="M90.068,38.237l-0.737,2.293h-3.231v6.758c0,1.527,0.293,2.059,1.824,2.059
			c0.762,0,1.499-0.117,2.232-0.325l-1.058,2.881c-0.911,0.178-1.852,0.325-2.792,0.325c-2.321,0-3.851-1.118-3.851-3.763V40.53
			h-2.028l0.677-2.001c1.118-0.059,1.763-0.732,2.586-3.407l2.585-0.706c-0.116,0.794-0.176,1.588-0.176,2.381v1.44H90.068z"/>
		<path fill="#662D91" d="M98.333,51.875h-7.641l0.706-1.999c1.118,0,1.442-0.588,1.442-2.588v-4.585c0-2.115-0.324-2.291-2-2.466
			l0.674-2c1.589-0.177,3.175-0.293,4.734-0.59c-0.031,1.088-0.06,2.234-0.06,3.382h0.06c0.293-2.382,2.116-3.382,5.055-3.382
			l-1.206,3.41c-3.115,0-3.616,0.472-3.616,5.232c0,2.88,0.265,3.526,2.558,3.586L98.333,51.875z"/>
		<path fill="#662D91" d="M112.639,51.285c-1.645,0.735-3.232,0.942-4.848,0.942c-4.087,0-6.967-2.706-6.967-6.467
			c0-5.086,3.292-8.113,7.289-8.113c4.526,0,5.613,4,5.613,7.289h-1.91c-3.174,0-5.319,0.089-6.995,0.296
			c0.117,2.646,1.734,3.878,3.82,3.878c1.881,0,3.584-0.526,4.967-0.94L112.639,51.285z M104.997,43.059
			c4.292-0.18,4.557-0.472,4.557-1.001c0-1.118-0.824-1.88-1.999-1.88C105.526,40.178,104.969,41.176,104.997,43.059"/>
		<path fill="#662D91" d="M114.17,58.574l0.823-1.998c1.382-0.03,1.53-0.616,1.53-1.851V42.999c0-2.176-0.326-2.352-2.088-2.529
			l0.706-1.999c1.673-0.233,3.351-0.382,4.996-0.823c-0.176,0.647-0.117,1.383-0.117,2.117c1.292-1.204,2.527-1.881,4.143-1.881
			c3.177,0,5.499,2.764,5.499,6.231c0,5.055-3.968,8.112-6.791,8.112h-2.705v1.233c0,2.704,0.882,3.115,3.499,3.115l-0.734,1.998
			H114.17z M120.165,49.521h2.91c1.852,0,2.588-1.146,2.588-4.26c0-2.823-0.913-4.674-2.793-4.674c-1.587,0-2.705,1.322-2.705,4.028
			V49.521z"/>
		<path fill="#662D91" d="M137.824,51.875h-7.644l0.708-1.999c1.116,0,1.439-0.588,1.439-2.588v-4.585
			c0-2.115-0.324-2.291-1.999-2.466l0.677-2c1.584-0.177,3.174-0.293,4.731-0.59c-0.029,1.088-0.06,2.234-0.06,3.382h0.06
			c0.293-2.382,2.116-3.382,5.055-3.382l-1.206,3.41c-3.116,0-3.614,0.472-3.614,5.232c0,2.88,0.264,3.526,2.557,3.586
			L137.824,51.875z"/>
		<path fill="#662D91" d="M152.129,51.285c-1.647,0.735-3.235,0.942-4.851,0.942c-4.085,0-6.966-2.706-6.966-6.467
			c0-5.086,3.292-8.113,7.291-8.113c4.526,0,5.613,4,5.613,7.289h-1.912c-3.172,0-5.319,0.089-6.995,0.296
			c0.117,2.646,1.734,3.878,3.823,3.878c1.878,0,3.585-0.526,4.966-0.94L152.129,51.285z M144.485,43.059
			c4.293-0.18,4.557-0.472,4.557-1.001c0-1.118-0.825-1.88-2-1.88C145.015,40.178,144.457,41.176,144.485,43.059"/>
		<path fill="#662D91" d="M154.032,51.875l0.706-1.999c1.057-0.118,1.382-0.413,1.382-1.706v-5.583c0-1.999-0.325-2.175-1.999-2.35
			l0.705-2c1.411-0.089,3.087-0.265,5.084-0.59l-0.117,2.205c1.263-1.323,2.674-2.205,4.349-2.205c3.028,0,4.116,2.41,4.116,5.352
			v5.289c0,1.352,0.382,1.588,1.557,1.588l-0.676,1.999h-6.761l0.589-1.999c1.323-0.178,1.645-0.766,1.645-2.47v-3.761
			c0-1.704-0.498-2.706-2.321-2.706c-1.792,0-2.529,1.529-2.529,3.881v3.468c0,1.233,0.267,1.528,2.031,1.588l-0.706,1.999H154.032z
			"/>
		<path fill="#F26522" d="M173.098,38.207c1.204-0.354,2.498-0.56,3.496-0.56c3.471,0,5.116,1,5.116,3.292v7.79
			c0,0.675,0.706,1.146,1.763,1.146l-0.706,1.999h-4.379V50.58h-0.057c-0.855,1.322-1.941,1.647-3.558,1.647
			c-2.646,0-4.145-1.414-4.145-3.47c0-2.879,1.676-3.879,7.435-5.936c0-1.618-0.527-2.06-2.173-2.06
			c-0.882,0-2.676,0.325-3.88,0.501L173.098,38.207z M178.063,45.262c-3.055,1.323-3.438,1.558-3.438,2.853
			c0,1.056,0.562,1.407,1.558,1.407c1.414,0,1.881-0.646,1.881-2.115V45.262z"/>
		<path fill="#F26522" d="M184.611,47.317l2.527-1.086v1.086c0,1.383,0.529,2.322,2.44,2.322c1.146,0,1.706-0.352,1.735-1.32
			c-0.029-3.087-7.084-1.795-7.084-6.559c0-2.229,1.969-4.113,5.083-4.113c1.235,0,3.821,0.413,4.998,0.531v3.085l-2.529,1.118
			c-0.116-1.734-0.762-2.324-2.056-2.324c-1.234,0-1.853,0.354-1.853,0.972c0,2.234,7.083,1.734,7.083,6.288
			c0,3.411-2.293,4.734-5.524,4.734c-1.586,0-3.411-0.177-4.821-0.296V47.317z"/>
		<path fill="#F26522" d="M195.582,51.875l0.732-1.999c1.06-0.178,1.44-0.354,1.44-1.706v-6.054c0-1.354-0.381-1.528-1.853-1.704
			l0.617-1.999c1.677-0.176,3.5-0.411,5.086-0.766c-0.176,1.383-0.206,2.94-0.206,4.469v4.85c0,2.527,0.295,2.821,1.883,2.91
			l-0.882,1.999H195.582z M197.579,36.649c0.118-0.646,0.176-1.646,0.176-2.586c0-1.235,0.706-1.704,2.292-1.704
			c1,0,1.527,0.558,1.527,1.616C201.574,35.414,201.283,36.12,197.579,36.649"/>
		<path fill="#F26522" d="M203.876,38.237c1.56-0.089,3.118-0.293,4.852-0.59c-0.177,1.383-0.207,2.94-0.207,4.469v4.996
			c0,1.588,0.676,2.117,1.881,2.117c1.733,0,2.409-0.765,2.409-2.293v-4.995c0-1.118-0.322-1.704-2.059-1.704l0.59-2
			c1.793-0.089,3.587-0.325,5.32-0.59c-0.178,1.383-0.205,2.94-0.205,4.469v5.114c0,2.291,0.323,2.468,1.939,2.646l-0.677,1.999
			h-4.763v-1.352H212.9c-0.854,1.087-2.176,1.704-3.646,1.704c-2.703,0-4.38-1.499-4.38-4.41v-5.525
			c0-1.293-0.321-2.055-1.675-2.055L203.876,38.237z"/>
		<path fill="#F26522" d="M236.879,43.646c0-1.704-0.499-2.706-1.969-2.706c-1.705,0-2.44,1.529-2.44,3.881v3.468
			c0,1.352,0.501,1.588,1.792,1.588l-0.674,1.999h-6.877l0.587-1.999c1.323-0.178,1.529-0.766,1.529-2.47v-3.761
			c0-1.704-0.501-2.706-1.97-2.706c-1.704,0-2.44,1.529-2.44,3.881v3.468c0,1.352,0.501,1.588,1.792,1.588l-0.674,1.999h-6.819
			l0.706-1.999c1.058-0.118,1.352-0.413,1.352-1.706v-5.583c0-1.999-0.294-2.175-1.969-2.233l0.704-1.764
			c1.646-0.207,3.733-0.646,5.084-0.942v2.205c1.147-1.323,2.559-2.205,4.028-2.205c2.085,0,3.085,1,3.525,2.559
			c1.851-1.616,2.821-2.559,4.938-2.559c2.353,0,3.44,1.824,3.44,5.352v5.289c0,1.352,0.381,1.588,1.557,1.588l-0.675,1.999h-6.643
			l0.587-1.999c1.205-0.178,1.528-0.766,1.528-2.47V43.646z"/>
		<path fill="#FFFFFF" d="M169.75,35.977c-0.85,0.164-1.421,0.995-1.252,1.847c0.162,0.86,0.986,1.416,1.851,1.252
			c0.848-0.157,1.415-0.984,1.25-1.847C171.441,36.376,170.616,35.817,169.75,35.977"/>
		<g enable-background="new    ">
			<g>
				<defs>
					<rect id="SVGID_5_" x="168.415" y="32.506" width="2.872" height="2.871"/>
				</defs>
				<clipPath id="SVGID_6_">
					<use xlink:href="#SVGID_5_"  overflow="visible"/>
				</clipPath>
				<path clip-path="url(#SVGID_6_)" fill="#F5F9F3" d="M169.773,35.373c0.38,0.024,0.745-0.104,1.029-0.358
					c0.287-0.254,0.459-0.606,0.48-0.995c0.023-0.381-0.104-0.748-0.358-1.032c-0.255-0.286-0.61-0.457-0.997-0.479
					c-0.38-0.022-0.747,0.105-1.031,0.359c-0.29,0.259-0.46,0.612-0.48,0.994C168.37,34.662,168.969,35.328,169.773,35.373"/>
			</g>
		</g>
		<g enable-background="new    ">
			<g>
				<defs>
					<rect id="SVGID_7_" x="168.838" y="29.187" width="2.63" height="2.627"/>
				</defs>
				<clipPath id="SVGID_8_">
					<use xlink:href="#SVGID_7_"  overflow="visible"/>
				</clipPath>
				<path clip-path="url(#SVGID_8_)" fill="#EEF4EA" d="M168.838,30.508c0,0.553,0.349,1.052,0.909,1.239
					c0.33,0.109,0.683,0.083,0.995-0.071c0.313-0.161,0.546-0.431,0.658-0.767c0.11-0.331,0.085-0.687-0.072-0.998
					c-0.158-0.314-0.431-0.549-0.768-0.659c-0.329-0.107-0.685-0.082-0.998,0.078c-0.315,0.157-0.548,0.43-0.656,0.76
					C168.861,30.231,168.838,30.369,168.838,30.508"/>
			</g>
		</g>
		<g enable-background="new    ">
			<g>
				<defs>
					<rect id="SVGID_9_" x="169.71" y="26.007" width="2.427" height="2.421"/>
				</defs>
				<clipPath id="SVGID_10_">
					<use xlink:href="#SVGID_9_"  overflow="visible"/>
				</clipPath>
				<path clip-path="url(#SVGID_10_)" fill="#E8F0E2" d="M172.113,26.983c-0.061-0.317-0.245-0.593-0.517-0.774
					c-0.267-0.177-0.588-0.242-0.906-0.179c-0.317,0.062-0.593,0.244-0.771,0.512c-0.142,0.211-0.209,0.444-0.209,0.676
					c0,0.389,0.189,0.766,0.542,1.004c0.265,0.179,0.586,0.244,0.901,0.185c0.318-0.063,0.594-0.246,0.775-0.519
					C172.111,27.621,172.175,27.3,172.113,26.983"/>
			</g>
		</g>
		<g enable-background="new    ">
			<g>
				<defs>
					<rect id="SVGID_11_" x="170.994" y="22.97" width="2.271" height="2.266"/>
				</defs>
				<clipPath id="SVGID_12_">
					<use xlink:href="#SVGID_11_"  overflow="visible"/>
				</clipPath>
				<path clip-path="url(#SVGID_12_)" fill="#E2ECDA" d="M172.993,23.369c-0.194-0.229-0.467-0.369-0.769-0.395
					c-0.303-0.025-0.598,0.068-0.826,0.262c-0.484,0.409-0.541,1.111-0.133,1.6c0.191,0.227,0.463,0.369,0.762,0.395
					c0.305,0.027,0.599-0.066,0.83-0.262c0.234-0.194,0.377-0.47,0.403-0.77S173.19,23.605,172.993,23.369"/>
			</g>
		</g>
		<g enable-background="new    ">
			<g>
				<defs>
					<rect id="SVGID_13_" x="172.65" y="20.088" width="2.17" height="2.167"/>
				</defs>
				<clipPath id="SVGID_14_">
					<use xlink:href="#SVGID_13_"  overflow="visible"/>
				</clipPath>
				<path clip-path="url(#SVGID_14_)" fill="#DDE8D3" d="M174.751,21.556c0.103-0.268,0.093-0.563-0.028-0.832
					c-0.247-0.544-0.889-0.786-1.432-0.541c-0.552,0.249-0.789,0.88-0.541,1.436c0.117,0.261,0.33,0.463,0.598,0.565
					c0.271,0.104,0.566,0.094,0.832-0.024C174.445,22.04,174.648,21.825,174.751,21.556"/>
			</g>
		</g>
		<g enable-background="new    ">
			<g>
				<defs>
					<rect id="SVGID_15_" x="174.646" y="17.373" width="2.126" height="2.123"/>
				</defs>
				<clipPath id="SVGID_16_">
					<use xlink:href="#SVGID_15_"  overflow="visible"/>
				</clipPath>
				<path clip-path="url(#SVGID_16_)" fill="#D7E5CC" d="M174.66,18.602c0.043,0.278,0.191,0.524,0.42,0.69
					c0.229,0.168,0.513,0.237,0.793,0.192c0.284-0.042,0.53-0.192,0.698-0.422c0.166-0.23,0.231-0.509,0.188-0.793
					c-0.089-0.577-0.633-0.976-1.212-0.885C174.961,17.478,174.57,18.01,174.66,18.602"/>
			</g>
		</g>
		<g enable-background="new    ">
			<g>
				<defs>
					<rect id="SVGID_17_" x="176.949" y="14.838" width="2.14" height="2.139"/>
				</defs>
				<clipPath id="SVGID_18_">
					<use xlink:href="#SVGID_17_"  overflow="visible"/>
				</clipPath>
				<path clip-path="url(#SVGID_18_)" fill="#D2E1C4" d="M177.914,16.973c0.287,0.028,0.565-0.057,0.786-0.236
					c0.218-0.179,0.355-0.437,0.383-0.725c0.027-0.281-0.059-0.563-0.239-0.784c-0.182-0.223-0.437-0.357-0.718-0.385
					c-0.595-0.059-1.107,0.361-1.169,0.959v0.002c-0.03,0.282,0.051,0.559,0.232,0.779C177.37,16.803,177.627,16.942,177.914,16.973
					"/>
			</g>
		</g>
		<g enable-background="new    ">
			<g>
				<defs>
					<rect id="SVGID_19_" x="179.53" y="12.495" width="2.201" height="2.206"/>
				</defs>
				<clipPath id="SVGID_20_">
					<use xlink:href="#SVGID_19_"  overflow="visible"/>
				</clipPath>
				<path clip-path="url(#SVGID_20_)" fill="#CCDEBD" d="M180.993,12.559c-0.581-0.202-1.196,0.098-1.4,0.682
					c-0.099,0.276-0.083,0.574,0.045,0.836c0.129,0.267,0.354,0.466,0.631,0.564c0.282,0.097,0.585,0.08,0.849-0.047
					c0.263-0.129,0.459-0.354,0.557-0.633C181.872,13.386,181.566,12.758,180.993,12.559"/>
			</g>
		</g>
		<g enable-background="new    ">
			<g>
				<defs>
					<rect id="SVGID_21_" x="182.357" y="10.367" width="2.311" height="2.314"/>
				</defs>
				<clipPath id="SVGID_22_">
					<use xlink:href="#SVGID_21_"  overflow="visible"/>
				</clipPath>
				<path clip-path="url(#SVGID_22_)" fill="#C7DBB6" d="M184.117,10.542c-0.554-0.339-1.251-0.171-1.589,0.383l0,0
					c-0.162,0.263-0.212,0.572-0.141,0.869c0.072,0.302,0.26,0.556,0.523,0.719c0.265,0.162,0.577,0.21,0.875,0.136
					c0.298-0.069,0.55-0.256,0.712-0.521C184.828,11.583,184.657,10.87,184.117,10.542"/>
			</g>
		</g>
		<g enable-background="new    ">
			<g>
				<defs>
					<rect id="SVGID_23_" x="185.402" y="8.466" width="2.455" height="2.461"/>
				</defs>
				<clipPath id="SVGID_24_">
					<use xlink:href="#SVGID_23_"  overflow="visible"/>
				</clipPath>
				<path clip-path="url(#SVGID_24_)" fill="#C2D7AF" d="M187.462,8.794c-0.508-0.464-1.27-0.431-1.734,0.073
					c-0.213,0.229-0.325,0.52-0.325,0.827c0,0.017,0,0.034,0,0.051c0.014,0.328,0.157,0.633,0.399,0.854
					c0.245,0.224,0.558,0.339,0.887,0.325c0.323-0.014,0.624-0.155,0.845-0.399C187.99,10.025,187.96,9.249,187.462,8.794"/>
			</g>
		</g>
		<g enable-background="new    ">
			<g>
				<defs>
					<rect id="SVGID_25_" x="188.639" y="6.814" width="2.627" height="2.627"/>
				</defs>
				<clipPath id="SVGID_26_">
					<use xlink:href="#SVGID_25_"  overflow="visible"/>
				</clipPath>
				<path clip-path="url(#SVGID_26_)" fill="#BDD4A8" d="M190.998,7.332c-0.441-0.578-1.269-0.687-1.842-0.25l0,0
					c-0.279,0.215-0.459,0.521-0.505,0.867c-0.046,0.349,0.046,0.692,0.258,0.974c0.216,0.281,0.523,0.462,0.872,0.507
					c0.347,0.048,0.688-0.045,0.969-0.261C191.326,8.729,191.437,7.901,190.998,7.332"/>
			</g>
		</g>
		<g enable-background="new    ">
			<g>
				<defs>
					<rect id="SVGID_27_" x="192.034" y="5.419" width="2.817" height="2.82"/>
				</defs>
				<clipPath id="SVGID_28_">
					<use xlink:href="#SVGID_27_"  overflow="visible"/>
				</clipPath>
				<path clip-path="url(#SVGID_28_)" fill="#B8D1A2" d="M192.78,5.582c-0.335,0.179-0.577,0.474-0.686,0.835
					c-0.109,0.361-0.071,0.741,0.105,1.074c0.182,0.337,0.479,0.581,0.84,0.688c0.359,0.109,0.737,0.068,1.07-0.108
					c0.485-0.262,0.752-0.769,0.738-1.282c-0.022-0.055-0.054-0.103-0.074-0.159c-0.061-0.173-0.097-0.348-0.118-0.521
					C194.271,5.466,193.446,5.226,192.78,5.582"/>
			</g>
		</g>
		<g enable-background="new    ">
			<g>
				<defs>
					<rect id="SVGID_29_" x="195.556" y="4.292" width="2.941" height="3.037"/>
				</defs>
				<clipPath id="SVGID_30_">
					<use xlink:href="#SVGID_29_"  overflow="visible"/>
				</clipPath>
				<path clip-path="url(#SVGID_30_)" fill="#B3CE9B" d="M196.564,4.381c-0.384,0.135-0.691,0.41-0.862,0.777
					c-0.097,0.205-0.146,0.424-0.146,0.646c0,0.171,0.029,0.345,0.091,0.514c0.138,0.385,0.415,0.692,0.78,0.867
					c0.366,0.171,0.776,0.191,1.155,0.054c0.448-0.16,0.769-0.511,0.915-0.926c-0.115-0.217-0.21-0.445-0.262-0.693
					c-0.056-0.273-0.056-0.548-0.027-0.815C197.807,4.355,197.162,4.167,196.564,4.381"/>
			</g>
		</g>
		<g enable-background="new    ">
			<g>
				<defs>
					<rect id="SVGID_31_" x="199.175" y="3.456" width="2.969" height="3.267"/>
				</defs>
				<clipPath id="SVGID_32_">
					<use xlink:href="#SVGID_31_"  overflow="visible"/>
				</clipPath>
				<path clip-path="url(#SVGID_32_)" fill="#AECB94" d="M200.477,3.489c-0.425,0.086-0.792,0.333-1.031,0.698
					c-0.178,0.269-0.271,0.578-0.271,0.894c0,0.111,0.014,0.225,0.036,0.338c0.088,0.43,0.339,0.8,0.706,1.037
					c0.36,0.24,0.794,0.319,1.221,0.231c0.425-0.088,0.774-0.339,1.006-0.668c-0.191-0.349-0.312-0.736-0.339-1.146
					c-0.026-0.336,0.02-0.665,0.108-0.979C201.538,3.55,201.011,3.379,200.477,3.489"/>
			</g>
		</g>
		<g enable-background="new    ">
			<g>
				<defs>
					<rect id="SVGID_33_" x="202.863" y="2.919" width="2.926" height="3.512"/>
				</defs>
				<clipPath id="SVGID_34_">
					<use xlink:href="#SVGID_33_"  overflow="visible"/>
				</clipPath>
				<path clip-path="url(#SVGID_34_)" fill="#A9C88E" d="M204.49,2.927c-0.466,0.03-0.893,0.244-1.199,0.596
					c-0.307,0.355-0.458,0.808-0.425,1.273c0.035,0.475,0.25,0.901,0.604,1.208c0.351,0.307,0.802,0.453,1.269,0.421
					c0.408-0.03,0.769-0.203,1.051-0.46c-0.246-0.475-0.37-1.006-0.34-1.554c0.021-0.384,0.118-0.748,0.273-1.087
					C205.387,3.049,204.955,2.894,204.49,2.927L204.49,2.927z"/>
			</g>
		</g>
		<g enable-background="new    ">
			<g>
				<defs>
					<rect id="SVGID_35_" x="206.582" y="2.703" width="3.017" height="3.759"/>
				</defs>
				<clipPath id="SVGID_36_">
					<use xlink:href="#SVGID_35_"  overflow="visible"/>
				</clipPath>
				<path clip-path="url(#SVGID_36_)" fill="#A4C588" d="M207.211,3.176c-0.375,0.335-0.596,0.795-0.625,1.299
					c-0.03,0.504,0.14,0.991,0.475,1.366c0.333,0.37,0.79,0.593,1.29,0.62c0.385,0.021,0.749-0.077,1.058-0.26
					c-0.286-0.608-0.386-1.286-0.261-1.962c0.075-0.414,0.23-0.8,0.451-1.146c-0.289-0.221-0.645-0.363-1.032-0.386
					C208.065,2.677,207.584,2.845,207.211,3.176"/>
			</g>
		</g>
		<g enable-background="new    ">
			<g>
				<defs>
					<rect id="SVGID_37_" x="210.301" y="2.814" width="3.204" height="4.017"/>
				</defs>
				<clipPath id="SVGID_38_">
					<use xlink:href="#SVGID_37_"  overflow="visible"/>
				</clipPath>
				<path clip-path="url(#SVGID_38_)" fill="#9FC282" d="M212.673,2.848c-0.526-0.097-1.06,0.016-1.497,0.318
					c-0.446,0.304-0.742,0.764-0.839,1.291c-0.099,0.534,0.015,1.072,0.321,1.517c0.305,0.438,0.759,0.733,1.287,0.827
					c0.36,0.066,0.714,0.024,1.036-0.092c-0.304-0.744-0.355-1.558-0.108-2.334c0.139-0.427,0.354-0.816,0.632-1.153
					c-0.24-0.181-0.518-0.313-0.83-0.371L212.673,2.848z"/>
			</g>
		</g>
		<g enable-background="new    ">
			<g>
				<defs>
					<rect id="SVGID_39_" x="213.99" y="3.267" width="3.427" height="4.283"/>
				</defs>
				<clipPath id="SVGID_40_">
					<use xlink:href="#SVGID_39_"  overflow="visible"/>
				</clipPath>
				<path clip-path="url(#SVGID_40_)" fill="#9ABF7C" d="M216.777,3.369c-0.541-0.172-1.117-0.125-1.623,0.135
					c-0.509,0.264-0.887,0.711-1.062,1.259c-0.174,0.552-0.124,1.136,0.143,1.644c0.26,0.507,0.703,0.879,1.247,1.045
					c0.33,0.107,0.663,0.118,0.98,0.066c-0.294-0.881-0.253-1.829,0.141-2.681c0.198-0.433,0.479-0.812,0.813-1.127
					c-0.188-0.144-0.396-0.262-0.637-0.339L216.777,3.369z"/>
			</g>
		</g>
		<g enable-background="new    ">
			<g>
				<defs>
					<rect id="SVGID_41_" x="217.617" y="4.076" width="3.687" height="4.555"/>
				</defs>
				<clipPath id="SVGID_42_">
					<use xlink:href="#SVGID_41_"  overflow="visible"/>
				</clipPath>
				<path clip-path="url(#SVGID_42_)" fill="#95BC76" d="M220.847,4.29c-0.549-0.257-1.163-0.28-1.731-0.073
					c-0.573,0.21-1.028,0.631-1.284,1.188c-0.26,0.555-0.284,1.178-0.07,1.749c0.208,0.569,0.627,1.02,1.178,1.272
					c0.298,0.136,0.607,0.201,0.916,0.204c-0.009-0.027-0.021-0.053-0.03-0.082c-0.229-1.001-0.056-2.035,0.49-2.908
					c0.265-0.42,0.604-0.778,0.989-1.062c-0.137-0.111-0.287-0.21-0.455-0.287L220.847,4.29z"/>
			</g>
		</g>
		<g enable-background="new    ">
			<g>
				<defs>
					<rect id="SVGID_43_" x="221.147" y="5.257" width="3.983" height="4.789"/>
				</defs>
				<clipPath id="SVGID_44_">
					<use xlink:href="#SVGID_43_"  overflow="visible"/>
				</clipPath>
				<path clip-path="url(#SVGID_44_)" fill="#90B970" d="M224.845,5.63c-0.544-0.343-1.188-0.454-1.814-0.311
					c-0.629,0.144-1.166,0.526-1.512,1.075c-0.344,0.552-0.454,1.2-0.308,1.835c0.144,0.624,0.523,1.155,1.069,1.493
					c0.27,0.166,0.558,0.271,0.849,0.323c-0.014-0.087-0.043-0.171-0.052-0.262c-0.105-1.078,0.214-2.138,0.906-2.979
					c0.323-0.394,0.714-0.711,1.147-0.953c-0.091-0.077-0.18-0.157-0.284-0.223H224.845z"/>
			</g>
		</g>
		<g enable-background="new    ">
			<g>
				<defs>
					<rect id="SVGID_45_" x="224.55" y="6.821" width="4.319" height="4.956"/>
				</defs>
				<clipPath id="SVGID_46_">
					<use xlink:href="#SVGID_45_"  overflow="visible"/>
				</clipPath>
				<path clip-path="url(#SVGID_46_)" fill="#8CB76A" d="M228.726,7.401c-0.523-0.432-1.183-0.634-1.86-0.568
					c-0.681,0.064-1.293,0.393-1.73,0.924c-0.438,0.53-0.639,1.199-0.572,1.88c0.068,0.676,0.395,1.285,0.919,1.715
					c0.237,0.195,0.503,0.33,0.777,0.426c-0.009-0.144-0.033-0.282-0.028-0.429c0.036-1.141,0.514-2.199,1.352-2.98
					c0.381-0.357,0.816-0.625,1.287-0.82c-0.05-0.048-0.088-0.102-0.142-0.144L228.726,7.401z"/>
			</g>
		</g>
		<g enable-background="new    ">
			<g>
				<defs>
					<rect id="SVGID_47_" x="227.792" y="8.777" width="4.703" height="5.066"/>
				</defs>
				<clipPath id="SVGID_48_">
					<use xlink:href="#SVGID_47_"  overflow="visible"/>
				</clipPath>
				<path clip-path="url(#SVGID_48_)" fill="#87B463" d="M232.455,9.631c-0.489-0.522-1.151-0.827-1.866-0.851
					c-0.724-0.025-1.412,0.233-1.938,0.728c-0.53,0.496-0.832,1.169-0.856,1.891c-0.022,0.717,0.234,1.398,0.725,1.919
					c0.209,0.222,0.453,0.39,0.708,0.526c0.007-0.192,0.007-0.385,0.037-0.578c0.195-1.183,0.838-2.22,1.815-2.919
					c0.434-0.311,0.916-0.526,1.416-0.663C232.48,9.667,232.47,9.646,232.455,9.631L232.455,9.631z"/>
			</g>
		</g>
		<g enable-background="new    ">
			<g>
				<defs>
					<rect id="SVGID_49_" x="230.838" y="11.142" width="5.105" height="5.117"/>
				</defs>
				<clipPath id="SVGID_50_">
					<use xlink:href="#SVGID_49_"  overflow="visible"/>
				</clipPath>
				<path clip-path="url(#SVGID_50_)" fill="#82B15D" d="M234.154,11.183c-0.751-0.126-1.505,0.049-2.126,0.494
					c-0.618,0.444-1.028,1.103-1.151,1.854c-0.121,0.746,0.054,1.492,0.494,2.103c0.181,0.251,0.4,0.451,0.636,0.626
					c0.032-0.234,0.08-0.466,0.148-0.696c0.362-1.203,1.174-2.19,2.283-2.785c0.479-0.255,0.988-0.417,1.505-0.497
					C235.508,11.696,234.876,11.303,234.154,11.183"/>
			</g>
		</g>
		<g enable-background="new    ">
			<g>
				<defs>
					<rect id="SVGID_51_" x="233.66" y="13.927" width="5.531" height="5.139"/>
				</defs>
				<clipPath id="SVGID_52_">
					<use xlink:href="#SVGID_51_"  overflow="visible"/>
				</clipPath>
				<path clip-path="url(#SVGID_52_)" fill="#7EAF56" d="M237.522,14.059c-0.763-0.233-1.573-0.153-2.279,0.222
					c-0.707,0.38-1.225,1.011-1.454,1.774c-0.229,0.759-0.15,1.562,0.227,2.259c0.154,0.292,0.359,0.535,0.587,0.752
					c0.069-0.27,0.157-0.535,0.273-0.796c0.54-1.199,1.514-2.115,2.745-2.584c0.513-0.19,1.038-0.29,1.57-0.309
					C238.812,14.746,238.231,14.274,237.522,14.059"/>
			</g>
		</g>
		<g enable-background="new    ">
			<g>
				<defs>
					<rect id="SVGID_53_" x="236.222" y="17.145" width="5.966" height="5.138"/>
				</defs>
				<clipPath id="SVGID_54_">
					<use xlink:href="#SVGID_53_"  overflow="visible"/>
				</clipPath>
				<path clip-path="url(#SVGID_54_)" fill="#79AC50" d="M240.649,17.426c-0.761-0.346-1.613-0.373-2.399-0.075
					c-0.787,0.298-1.408,0.883-1.752,1.646c-0.34,0.76-0.367,1.604-0.072,2.379c0.132,0.345,0.325,0.642,0.551,0.906
					c0.111-0.297,0.249-0.584,0.419-0.861c0.714-1.172,1.842-1.994,3.18-2.317c0.535-0.128,1.078-0.164,1.612-0.123
					C241.876,18.294,241.345,17.74,240.649,17.426"/>
			</g>
		</g>
		<g enable-background="new    ">
			<g>
				<defs>
					<rect id="SVGID_55_" x="238.494" y="20.809" width="6.388" height="5.141"/>
				</defs>
				<clipPath id="SVGID_56_">
					<use xlink:href="#SVGID_55_"  overflow="visible"/>
				</clipPath>
				<path clip-path="url(#SVGID_56_)" fill="#74AA4A" d="M243.488,21.294c-0.747-0.455-1.629-0.597-2.48-0.393
					c-0.854,0.205-1.577,0.731-2.034,1.483c-0.456,0.74-0.593,1.615-0.387,2.462c0.1,0.406,0.276,0.775,0.505,1.103
					c0.161-0.317,0.351-0.617,0.576-0.903c0.888-1.12,2.158-1.831,3.582-1.997c0.551-0.063,1.102-0.038,1.632,0.064
					C244.649,22.355,244.168,21.713,243.488,21.294"/>
			</g>
		</g>
		<g enable-background="new    ">
			<g>
				<defs>
					<rect id="SVGID_57_" x="240.44" y="24.933" width="6.78" height="5.149"/>
				</defs>
				<clipPath id="SVGID_58_">
					<use xlink:href="#SVGID_57_"  overflow="visible"/>
				</clipPath>
				<path clip-path="url(#SVGID_58_)" fill="#70A745" d="M245.995,25.677c-0.718-0.571-1.613-0.825-2.525-0.722
					c-0.912,0.107-1.727,0.562-2.296,1.28c-0.563,0.715-0.814,1.605-0.709,2.507c0.058,0.488,0.223,0.94,0.457,1.34
					c0.209-0.32,0.452-0.626,0.73-0.905c1.05-1.055,2.449-1.639,3.939-1.642c0.561,0,1.106,0.083,1.629,0.24
					C247.08,26.944,246.658,26.203,245.995,25.677"/>
			</g>
		</g>
		<g enable-background="new    ">
			<g>
				<defs>
					<rect id="SVGID_59_" x="242.03" y="29.525" width="7.123" height="5.178"/>
				</defs>
				<clipPath id="SVGID_60_">
					<use xlink:href="#SVGID_59_"  overflow="visible"/>
				</clipPath>
				<path clip-path="url(#SVGID_60_)" fill="#6BA53F" d="M248.124,30.57c-0.675-0.675-1.572-1.045-2.529-1.045
					c-0.959,0.002-1.857,0.378-2.533,1.056c-0.667,0.673-1.034,1.562-1.031,2.511c0.001,0.583,0.155,1.126,0.405,1.611
					c0.254-0.315,0.541-0.607,0.866-0.871c1.201-0.974,2.71-1.423,4.25-1.26c0.561,0.062,1.096,0.2,1.602,0.408
					C249.129,32.07,248.771,31.218,248.124,30.57"/>
			</g>
		</g>
		<g enable-background="new    ">
			<g>
				<defs>
					<rect id="SVGID_61_" x="243.229" y="34.603" width="7.428" height="5.245"/>
				</defs>
				<clipPath id="SVGID_62_">
					<use xlink:href="#SVGID_61_"  overflow="visible"/>
				</clipPath>
				<path clip-path="url(#SVGID_62_)" fill="#66A33B" d="M249.838,35.987c-0.625-0.772-1.512-1.257-2.503-1.364
					c-0.991-0.104-1.963,0.185-2.738,0.812c-0.767,0.621-1.248,1.505-1.351,2.486c-0.071,0.685,0.062,1.338,0.328,1.926
					c0.298-0.303,0.625-0.577,0.989-0.815c1.34-0.882,2.945-1.189,4.519-0.864c0.548,0.113,1.065,0.306,1.547,0.555
					c0.004-0.009,0.006-0.014,0.008-0.022C250.741,37.719,250.458,36.754,249.838,35.987"/>
			</g>
		</g>
		<g enable-background="new    ">
			<g>
				<defs>
					<rect id="SVGID_63_" x="244.002" y="40.176" width="7.725" height="7.718"/>
				</defs>
				<clipPath id="SVGID_64_">
					<use xlink:href="#SVGID_63_"  overflow="visible"/>
				</clipPath>
				<path clip-path="url(#SVGID_64_)" fill="#61A137" d="M248.649,40.258c-1.016-0.21-2.051-0.014-2.916,0.557
					c-0.86,0.564-1.445,1.429-1.652,2.435c-0.43,2.087,0.914,4.138,2.989,4.567c2.09,0.429,4.141-0.92,4.574-3.001
					c0.212-1.007,0.018-2.032-0.545-2.892C250.534,41.061,249.662,40.468,248.649,40.258"/>
			</g>
		</g>
	</g>
	<g>
		<g>
			<path fill="#F16624" d="M143.88,196.638c0.008-3.515,0.09-7.006,0.242-10.472H36.392c-6.508-0.005-12.36-3.183-16.631-8.341
				c-4.262-5.165-6.886-12.249-6.888-20.126v-83.79c0.001-7.877,2.626-14.961,6.888-20.126c4.271-5.161,10.123-8.336,16.631-8.336
				l5.32,1.444c-1.31-3.543,3.076-8.042,1.936-11.665l-7.255-0.524C18.499,34.706,4,52.255,3.997,73.909v83.79
				C4,179.357,18.499,196.902,36.392,196.906H143.91C143.9,196.818,143.89,196.727,143.88,196.638z"/>
			
				<linearGradient id="SVGID_65_" gradientUnits="userSpaceOnUse" x1="67.019" y1="925.5215" x2="265.3807" y2="925.5215" gradientTransform="matrix(0.8889 0.1111 -0.1111 0.8889 32.8946 -720.3098)">
				<stop  offset="0.3462" style="stop-color:#E05F37"/>
				<stop  offset="0.6795" style="stop-color:#EA6931"/>
				<stop  offset="1" style="stop-color:#F26F2D"/>
			</linearGradient>
			<path fill="url(#SVGID_65_)" d="M143.335,196.007c0.007-3.487,0.089-6.951,0.24-10.39H36.686
				c-6.458-0.005-12.263-3.158-16.501-8.275c-4.229-5.126-6.833-12.154-6.834-19.969V74.236c0.001-7.815,2.605-14.844,6.834-19.969
				c4.238-5.121,10.06-8.452,16.501-8.271c0.468,0.13,5.197,1.413,5.197,1.413c-1.299-3.515,2.799-8.013,1.667-11.607l-6.864-0.467
				C18.932,35.339,4.546,52.751,4.544,74.236v83.137c0.002,21.487,14.388,38.896,32.142,38.9h106.679
				C143.355,196.187,143.344,196.096,143.335,196.007z"/>
			
				<linearGradient id="SVGID_66_" gradientUnits="userSpaceOnUse" x1="426.6426" y1="1859.6309" x2="666.7067" y2="1859.6309" gradientTransform="matrix(0.7778 0.2222 -0.2222 0.7778 65.7887 -1440.6185)">
				<stop  offset="0.3462" style="stop-color:#D05848"/>
				<stop  offset="0.5032" style="stop-color:#DB6344"/>
				<stop  offset="0.8023" style="stop-color:#EB723C"/>
				<stop  offset="1" style="stop-color:#F37838"/>
			</linearGradient>
			<path fill="url(#SVGID_66_)" d="M142.79,195.376c0.008-3.46,0.089-6.896,0.239-10.309H36.979
				c-6.406-0.005-12.166-3.132-16.371-8.209c-4.196-5.087-6.779-12.06-6.78-19.812V74.563c0.001-7.754,2.584-14.728,6.78-19.812
				c4.205-5.08,9.998-8.567,16.371-8.205c0.936,0.259,5.074,1.382,5.074,1.382c-1.289-3.486,2.522-7.984,1.4-11.551l-6.474-0.408
				C19.366,35.973,5.093,53.247,5.091,74.563v82.482c0.002,21.318,14.275,38.59,31.889,38.595h105.84
				C142.81,195.554,142.8,195.464,142.79,195.376z"/>
			
				<linearGradient id="SVGID_67_" gradientUnits="userSpaceOnUse" x1="1207.4092" y1="2769.2188" x2="1488.5166" y2="2769.2188" gradientTransform="matrix(0.6667 0.3333 -0.3333 0.6667 98.6821 -2160.9263)">
				<stop  offset="0.3462" style="stop-color:#C15256"/>
				<stop  offset="0.3513" style="stop-color:#C15256"/>
				<stop  offset="0.625" style="stop-color:#DB6C4E"/>
				<stop  offset="0.851" style="stop-color:#EC7B47"/>
				<stop  offset="1" style="stop-color:#F48143"/>
			</linearGradient>
			<path fill="url(#SVGID_67_)" d="M142.246,194.745c0.007-3.432,0.087-6.842,0.236-10.228H37.273
				c-6.355-0.004-12.069-3.106-16.241-8.144c-4.163-5.047-6.725-11.964-6.726-19.655V74.891c0.001-7.693,2.563-14.61,6.726-19.654
				c4.171-5.041,9.935-8.686,16.241-8.142c1.404,0.388,4.951,1.351,4.951,1.351c-1.279-3.458,2.245-7.956,1.131-11.494l-6.082-0.35
				C19.8,36.605,5.64,53.743,5.637,74.891v81.828c0.003,21.148,14.163,38.284,31.637,38.288h105.001
				C142.265,194.922,142.255,194.832,142.246,194.745z"/>
			
				<linearGradient id="SVGID_68_" gradientUnits="userSpaceOnUse" x1="2427.0479" y1="3373.9727" x2="2736.5007" y2="3373.9727" gradientTransform="matrix(0.5556 0.4444 -0.4444 0.5556 131.5765 -2881.2361)">
				<stop  offset="0.3462" style="stop-color:#B14C61"/>
				<stop  offset="0.4692" style="stop-color:#C15B5F"/>
				<stop  offset="0.693" style="stop-color:#DC7459"/>
				<stop  offset="0.878" style="stop-color:#ED8352"/>
				<stop  offset="1" style="stop-color:#F5894F"/>
			</linearGradient>
			<path fill="url(#SVGID_68_)" d="M141.701,194.114c0.007-3.404,0.086-6.787,0.234-10.146H37.567
				c-6.305-0.004-11.973-3.082-16.111-8.078c-4.129-5.008-6.671-11.868-6.672-19.498V75.219c0.001-7.633,2.542-14.494,6.672-19.499
				c4.139-5,9.874-8.801,16.111-8.076c1.872,0.518,4.827,1.32,4.827,1.32c-1.269-3.431,1.968-7.928,0.864-11.438l-5.691-0.292
				C20.234,37.238,6.187,54.239,6.184,75.219v81.174c0.003,20.979,14.05,37.978,31.384,37.98h104.162
				C141.72,194.289,141.71,194.201,141.701,194.114z"/>
			
				<linearGradient id="SVGID_69_" gradientUnits="userSpaceOnUse" x1="3859.1865" y1="3405.2559" x2="4172.2754" y2="3405.2559" gradientTransform="matrix(0.4444 0.5556 -0.5556 0.4444 162.8337 -3601.5745)">
				<stop  offset="0.3462" style="stop-color:#A2456B"/>
				<stop  offset="0.5446" style="stop-color:#C16468"/>
				<stop  offset="0.7372" style="stop-color:#DC7C63"/>
				<stop  offset="0.8956" style="stop-color:#EE8B5E"/>
				<stop  offset="1" style="stop-color:#F6915C"/>
			</linearGradient>
			<path fill="url(#SVGID_69_)" d="M141.156,193.483c0.007-3.377,0.086-6.732,0.232-10.063H37.861
				c-6.254-0.005-11.876-3.057-15.981-8.013c-4.097-4.968-6.618-11.773-6.619-19.341V75.545c0.001-7.57,2.521-14.377,6.619-19.341
				c4.105-4.96,9.811-8.917,15.981-8.011c2.34,0.646,4.705,1.288,4.705,1.288c-1.259-3.401,1.69-7.898,0.595-11.381l-5.3-0.233
				C20.668,37.871,6.733,54.735,6.73,75.545v80.521c0.003,20.809,13.938,37.671,31.131,37.674h103.323
				C141.174,193.657,141.165,193.569,141.156,193.483z"/>
			
				<linearGradient id="SVGID_70_" gradientUnits="userSpaceOnUse" x1="5117.9307" y1="2843.4688" x2="5408.6152" y2="2843.4688" gradientTransform="matrix(0.3333 0.6667 -0.6667 0.3333 195.7283 -4321.8823)">
				<stop  offset="0.3462" style="stop-color:#934075"/>
				<stop  offset="0.4069" style="stop-color:#9F4B74"/>
				<stop  offset="0.5988" style="stop-color:#C16C71"/>
				<stop  offset="0.7685" style="stop-color:#DD846D"/>
				<stop  offset="0.908" style="stop-color:#EE9369"/>
				<stop  offset="1" style="stop-color:#F79A67"/>
			</linearGradient>
			<path fill="url(#SVGID_70_)" d="M140.612,192.853c0.006-3.349,0.084-6.678,0.23-9.982H38.155
				c-6.203-0.004-11.78-3.031-15.852-7.946c-4.063-4.929-6.563-11.679-6.564-19.185V75.873c0.001-7.51,2.501-14.262,6.564-19.185
				c4.072-4.92,9.749-9.033,15.852-7.946C40.963,49.519,42.736,50,42.736,50c-1.248-3.374,1.414-7.87,0.328-11.324l-4.909-0.175
				C21.102,38.504,7.28,55.231,7.277,75.873v79.866c0.003,20.639,13.824,37.364,30.878,37.368h102.483
				C140.629,193.024,140.62,192.938,140.612,192.853z"/>
			
				<linearGradient id="SVGID_71_" gradientUnits="userSpaceOnUse" x1="5959.9805" y1="1954.3359" x2="6212.7617" y2="1954.3359" gradientTransform="matrix(0.2222 0.7778 -0.7778 0.2222 228.6229 -5042.1919)">
				<stop  offset="0.3462" style="stop-color:#853A7E"/>
				<stop  offset="0.4673" style="stop-color:#9E537E"/>
				<stop  offset="0.6396" style="stop-color:#C1737B"/>
				<stop  offset="0.7921" style="stop-color:#DD8C77"/>
				<stop  offset="0.9174" style="stop-color:#EF9C74"/>
				<stop  offset="1" style="stop-color:#F8A273"/>
			</linearGradient>
			<path fill="url(#SVGID_71_)" d="M140.067,192.222c0.007-3.322,0.084-6.623,0.229-9.9H38.449
				c-6.152-0.004-11.683-3.007-15.722-7.882c-4.03-4.889-6.51-11.583-6.511-19.027V76.199c0.001-7.447,2.481-14.144,6.511-19.027
				c4.039-4.879,9.687-9.149,15.722-7.881c3.276,0.905,4.458,1.227,4.458,1.227c-1.238-3.346,1.137-7.842,0.06-11.267l-4.518-0.117
				C21.535,39.138,7.827,55.728,7.823,76.199v79.213c0.003,20.47,13.712,37.059,30.626,37.062h101.645
				C140.083,192.393,140.075,192.307,140.067,192.222z"/>
			
				<linearGradient id="SVGID_72_" gradientUnits="userSpaceOnUse" x1="6384.0859" y1="1028.9414" x2="6595.8384" y2="1028.9414" gradientTransform="matrix(0.1111 0.8889 -0.8889 0.1111 261.5165 -5762.5)">
				<stop  offset="0.3462" style="stop-color:#763486"/>
				<stop  offset="0.5132" style="stop-color:#9D5B87"/>
				<stop  offset="0.6716" style="stop-color:#C17B86"/>
				<stop  offset="0.8105" style="stop-color:#DD9482"/>
				<stop  offset="0.9248" style="stop-color:#F0A480"/>
				<stop  offset="1" style="stop-color:#F9AB7E"/>
			</linearGradient>
			<path fill="url(#SVGID_72_)" d="M139.522,191.591c0.007-3.294,0.083-6.568,0.227-9.818H38.743
				c-6.102-0.004-11.586-2.981-15.592-7.816c-3.997-4.85-6.456-11.487-6.458-18.87V76.527c0.001-7.388,2.46-14.027,6.458-18.871
				c4.005-4.839,9.625-9.266,15.592-7.816c3.744,1.035,4.335,1.196,4.335,1.196c-1.229-3.317,0.859-7.813-0.208-11.21l-4.126-0.059
				C21.969,39.771,8.374,56.224,8.37,76.527v78.559c0.003,20.299,13.599,36.752,30.373,36.755h100.805
				C139.539,191.761,139.53,191.676,139.522,191.591z"/>
			
				<linearGradient id="SVGID_73_" gradientUnits="userSpaceOnUse" x1="6513.3643" y1="220.3506" x2="6688.2256" y2="220.3506" gradientTransform="matrix(0 1 -1 0 294.4102 -6482.8086)">
				<stop  offset="0.3462" style="stop-color:#662F90"/>
				<stop  offset="0.3923" style="stop-color:#733B90"/>
				<stop  offset="0.5514" style="stop-color:#9C6291"/>
				<stop  offset="0.6974" style="stop-color:#C18290"/>
				<stop  offset="0.8255" style="stop-color:#DE9C8E"/>
				<stop  offset="0.9307" style="stop-color:#F0AD8C"/>
				<stop  offset="1" style="stop-color:#FAB48B"/>
			</linearGradient>
			<path fill="url(#SVGID_73_)" d="M138.978,190.96c0.006-3.267,0.082-6.514,0.225-9.737H39.037
				c-6.051-0.004-11.49-2.956-15.462-7.75c-3.964-4.811-6.402-11.393-6.404-18.714V76.854c0.001-7.326,2.439-13.911,6.404-18.714
				c3.972-4.799,9.562-9.382,15.462-7.751c4.211,1.164,4.211,1.164,4.211,1.164c-1.218-3.289,0.583-7.784-0.476-11.153h-3.735
				C22.403,40.403,8.92,56.72,8.917,76.854v77.904c0.003,20.13,13.486,36.446,30.12,36.449h99.966
				C138.993,191.128,138.985,191.044,138.978,190.96z"/>
		</g>
		<g>
			
				<linearGradient id="SVGID_74_" gradientUnits="userSpaceOnUse" x1="6637.2412" y1="65.5527" x2="6659.4355" y2="65.5527" gradientTransform="matrix(0 1 -1 0 294.4102 -6482.8086)">
				<stop  offset="0.0055" style="stop-color:#F79763"/>
				<stop  offset="0.2912" style="stop-color:#FFFFFF"/>
				<stop  offset="0.372" style="stop-color:#FCE2D5"/>
				<stop  offset="0.7198" style="stop-color:#F16624"/>
				<stop  offset="0.989" style="stop-color:#F6945F"/>
			</linearGradient>
			<path fill="url(#SVGID_74_)" d="M212.888,176.627c-5.062,0-9.171-4.967-9.171-11.097l0,0c0-6.126,4.108-11.098,9.171-11.098
				h31.94c5.063,0,9.169,4.972,9.169,11.098l0,0c0,6.13-4.105,11.097-9.169,11.097H212.888z"/>
			
				<linearGradient id="SVGID_75_" gradientUnits="userSpaceOnUse" x1="6686.0713" y1="65.5527" x2="6708.2656" y2="65.5527" gradientTransform="matrix(0 1 -1 0 294.4102 -6482.8086)">
				<stop  offset="0.0055" style="stop-color:#F79763"/>
				<stop  offset="0.2912" style="stop-color:#FFFFFF"/>
				<stop  offset="0.372" style="stop-color:#FCE2D5"/>
				<stop  offset="0.7198" style="stop-color:#F16624"/>
				<stop  offset="0.989" style="stop-color:#F6945F"/>
			</linearGradient>
			<path fill="url(#SVGID_75_)" d="M212.888,225.457c-5.062,0-9.171-4.967-9.171-11.098l0,0c0-6.13,4.108-11.097,9.171-11.097h31.94
				c5.063,0,9.169,4.967,9.169,11.097l0,0c0,6.131-4.105,11.098-9.169,11.098H212.888z"/>
			<g>
				
					<linearGradient id="SVGID_76_" gradientUnits="userSpaceOnUse" x1="6628.3613" y1="136.7207" x2="6717.1416" y2="136.7207" gradientTransform="matrix(0 1 -1 0 294.4102 -6482.8086)">
					<stop  offset="0" style="stop-color:#7D53A0"/>
					<stop  offset="0.3037" style="stop-color:#7A4F9E"/>
					<stop  offset="0.7335" style="stop-color:#714297"/>
					<stop  offset="1" style="stop-color:#6B3793"/>
				</linearGradient>
				<path fill="url(#SVGID_76_)" d="M197.263,222.386v-64.878c0-6.602,3.573-11.955-8.834-11.955c-6.204,0-25.451,1.341-29.517,3.5
					c-4.066,2.164-14.337,16.478-18.884,16.478c-12.366,0-22.389,2.945-22.389,6.574v35.682c0,3.633,10.023,6.573,22.389,6.573
					c4.546,0,14.818,14.314,18.884,16.478c4.066,2.159,23.313,3.496,29.517,3.496C200.836,234.333,197.263,228.983,197.263,222.386z
					"/>
			</g>
			<g>
				
					<linearGradient id="SVGID_77_" gradientUnits="userSpaceOnUse" x1="6632.4854" y1="115.5645" x2="6713.0215" y2="115.5645" gradientTransform="matrix(0 1 -1 0 294.4102 -6482.8086)">
					<stop  offset="0" style="stop-color:#7D53A0"/>
					<stop  offset="0.3037" style="stop-color:#7A4F9E"/>
					<stop  offset="0.7335" style="stop-color:#714297"/>
					<stop  offset="1" style="stop-color:#6B3793"/>
				</linearGradient>
				<path fill="url(#SVGID_77_)" d="M197.309,219.368v-58.851c0-5.984,3.224-10.841-7.972-10.841
					c-5.597,0-22.965,1.214-26.634,3.179c-3.668,1.96-3.668,72.219,0,74.183c3.669,1.961,21.037,3.175,26.634,3.175
					C200.532,230.213,197.309,225.357,197.309,219.368z"/>
				
					<linearGradient id="SVGID_78_" gradientUnits="userSpaceOnUse" x1="6538.332" y1="913.8369" x2="6627.8447" y2="913.8369" gradientTransform="matrix(0.1111 0.8889 -0.8889 0.1111 261.5156 -5762.5)">
					<stop  offset="0" style="stop-color:#7F57A2"/>
					<stop  offset="0.3284" style="stop-color:#7C53A0"/>
					<stop  offset="0.7932" style="stop-color:#744699"/>
					<stop  offset="1" style="stop-color:#6F3E96"/>
				</linearGradient>
				<path fill="url(#SVGID_78_)" d="M196.592,219.109v-58.332c0-5.932,2.962-10.746-7.322-10.746
					c-5.142,0-21.097,1.203-24.467,3.151c-3.37,1.942-3.37,71.582,0,73.528c3.37,1.944,19.325,3.147,24.467,3.147
					C199.554,229.858,196.592,225.046,196.592,219.109z"/>
				
					<linearGradient id="SVGID_79_" gradientUnits="userSpaceOnUse" x1="6154.7432" y1="1832.877" x2="6253.7334" y2="1832.877" gradientTransform="matrix(0.2222 0.7778 -0.7778 0.2222 228.6219 -5042.1909)">
					<stop  offset="0" style="stop-color:#825BA4"/>
					<stop  offset="0.3587" style="stop-color:#7F57A2"/>
					<stop  offset="0.8665" style="stop-color:#774A9B"/>
					<stop  offset="1" style="stop-color:#744699"/>
				</linearGradient>
				<path fill="url(#SVGID_79_)" d="M195.875,218.851v-57.813c0-5.879,2.699-10.65-6.674-10.65c-4.686,0-19.228,1.192-22.299,3.123
					c-3.072,1.926-3.072,70.945,0,72.874c3.071,1.927,17.613,3.119,22.299,3.119C198.574,229.503,195.875,224.733,195.875,218.851z"
					/>
				
					<linearGradient id="SVGID_80_" gradientUnits="userSpaceOnUse" x1="5354.8398" y1="2722.9648" x2="5459.0518" y2="2722.9648" gradientTransform="matrix(0.3333 0.6667 -0.6667 0.3333 195.7273 -4321.8823)">
					<stop  offset="0" style="stop-color:#855FA7"/>
					<stop  offset="0.3972" style="stop-color:#815BA4"/>
					<stop  offset="0.9597" style="stop-color:#794E9D"/>
					<stop  offset="1" style="stop-color:#784D9D"/>
				</linearGradient>
				<path fill="url(#SVGID_80_)" d="M195.159,218.591v-57.294c0-5.827,2.437-10.556-6.025-10.556c-4.23,0-17.359,1.183-20.133,3.095
					c-2.772,1.908-2.772,70.311,0,72.221c2.773,1.91,15.902,3.092,20.133,3.092C197.596,229.148,195.159,224.422,195.159,218.591z"
					/>
				
					<linearGradient id="SVGID_81_" gradientUnits="userSpaceOnUse" x1="4129.6562" y1="3306.4883" x2="4230.0156" y2="3306.4883" gradientTransform="matrix(0.4444 0.5556 -0.5556 0.4444 162.8337 -3601.5735)">
					<stop  offset="0" style="stop-color:#8763A9"/>
					<stop  offset="0.4482" style="stop-color:#845FA6"/>
					<stop  offset="1" style="stop-color:#7D54A0"/>
				</linearGradient>
				<path fill="url(#SVGID_81_)" d="M194.443,218.332v-56.775c0-5.774,2.174-10.461-5.377-10.461
					c-3.775,0-15.491,1.172-17.966,3.066c-2.475,1.893-2.475,69.675,0,71.567c2.475,1.894,14.19,3.064,17.966,3.064
					C196.617,228.794,194.443,224.109,194.443,218.332z"/>
				
					<linearGradient id="SVGID_82_" gradientUnits="userSpaceOnUse" x1="2710.8789" y1="3324.7539" x2="2796.4902" y2="3324.7539" gradientTransform="matrix(0.5556 0.4444 -0.4444 0.5556 131.575 -2881.2351)">
					<stop  offset="0" style="stop-color:#8A67AB"/>
					<stop  offset="0.5193" style="stop-color:#8763A9"/>
					<stop  offset="1" style="stop-color:#825BA4"/>
				</linearGradient>
				<path fill="url(#SVGID_82_)" d="M193.727,218.073v-56.257c0-5.722,1.911-10.365-4.729-10.365c-3.32,0-13.622,1.16-15.798,3.039
					c-2.177,1.874-2.177,69.037,0,70.912c2.176,1.876,12.478,3.036,15.798,3.036C195.638,228.438,193.727,223.799,193.727,218.073z"
					/>
				
					<linearGradient id="SVGID_83_" gradientUnits="userSpaceOnUse" x1="1481.1699" y1="2768.8379" x2="1545.0234" y2="2768.8379" gradientTransform="matrix(0.6667 0.3333 -0.3333 0.6667 98.6816 -2160.9263)">
					<stop  offset="0" style="stop-color:#8D6BAD"/>
					<stop  offset="0.6283" style="stop-color:#8A67AB"/>
					<stop  offset="1" style="stop-color:#8762A8"/>
				</linearGradient>
				<path fill="url(#SVGID_83_)" d="M193.01,217.814v-55.739c0-5.669,1.649-10.27-4.08-10.27c-2.864,0-11.753,1.15-13.631,3.011
					c-1.877,1.857-1.877,68.402,0,70.259c1.878,1.858,10.767,3.009,13.631,3.009C194.659,228.084,193.01,223.486,193.01,217.814z"/>
				
					<linearGradient id="SVGID_84_" gradientUnits="userSpaceOnUse" x1="674.501" y1="1896.8574" x2="716.0771" y2="1896.8574" gradientTransform="matrix(0.7778 0.2222 -0.2222 0.7778 65.7873 -1440.6185)">
					<stop  offset="0" style="stop-color:#906FAF"/>
					<stop  offset="0.8218" style="stop-color:#8D6BAD"/>
					<stop  offset="1" style="stop-color:#8C69AC"/>
				</linearGradient>
				<path fill="url(#SVGID_84_)" d="M192.293,217.555v-55.22c0-5.616,1.388-10.175-3.431-10.175c-2.409,0-9.885,1.14-11.463,2.983
					c-1.579,1.841-1.579,67.765,0,69.604c1.578,1.842,9.054,2.981,11.463,2.981C193.681,227.729,192.293,223.174,192.293,217.555z"
					/>
				
					<linearGradient id="SVGID_85_" gradientUnits="userSpaceOnUse" x1="283.5332" y1="986.7051" x2="306.6455" y2="986.7051" gradientTransform="matrix(0.8889 0.1111 -0.1111 0.8889 32.8936 -720.3088)">
					<stop  offset="0" style="stop-color:#9373B2"/>
					<stop  offset="1" style="stop-color:#9170B0"/>
				</linearGradient>
				<path fill="url(#SVGID_85_)" d="M191.577,217.296v-54.701c0-5.563,1.124-10.08-2.782-10.08c-1.954,0-8.017,1.13-9.297,2.955
					c-1.281,1.824-1.281,67.13,0,68.951c1.28,1.825,7.343,2.953,9.297,2.953C192.701,227.374,191.577,222.862,191.577,217.296z"/>
				<path fill="#9677B4" d="M190.86,217.037v-54.183c0-5.511,0.862-9.984-2.134-9.984c-1.498,0-6.147,1.118-7.129,2.927
					c-0.982,1.807-0.982,66.493,0,68.297c0.981,1.808,5.631,2.926,7.129,2.926C191.723,227.02,190.86,222.551,190.86,217.037z"/>
			</g>
			
				<linearGradient id="SVGID_86_" gradientUnits="userSpaceOnUse" x1="6700.5361" y1="-1.3691" x2="6700.5361" y2="13.3665" gradientTransform="matrix(-0.0446 0.999 -0.999 -0.0446 450.8336 -6503.2129)">
				<stop  offset="0" style="stop-color:#7A509E"/>
				<stop  offset="0.2809" style="stop-color:#774B9C"/>
				<stop  offset="0.6785" style="stop-color:#6F3E96"/>
				<stop  offset="1" style="stop-color:#662F90"/>
			</linearGradient>
			<path fill="url(#SVGID_86_)" d="M147.406,173.242c0.968,0,1.752,1.107,1.752,2.474v28.458c0,1.364-0.785,2.474-1.752,2.474
				c-0.967,0-1.751-1.109-1.751-2.474v-28.458C145.655,174.35,146.439,173.242,147.406,173.242z M140.398,206.647
				c-0.968,0-1.752-1.109-1.752-2.474v-28.458c0-1.366,0.785-2.474,1.752-2.474c0.968,0,1.751,1.107,1.751,2.474v28.458
				C142.149,205.538,141.366,206.647,140.398,206.647z M133.389,206.647c-0.97,0-1.753-1.109-1.753-2.474v-28.458
				c0-1.366,0.783-2.474,1.753-2.474c0.966,0,1.752,1.107,1.752,2.474v28.458C135.141,205.538,134.355,206.647,133.389,206.647z
				 M125.764,206.632c-0.968-0.053-1.71-1.201-1.66-2.569l1.047-28.424c0.051-1.366,0.875-2.431,1.843-2.378
				c0.965,0.051,1.708,1.198,1.66,2.566l-1.049,28.427C127.554,205.618,126.73,206.682,125.764,206.632z"/>
			<g>
				
					<linearGradient id="SVGID_87_" gradientUnits="userSpaceOnUse" x1="6672.7539" y1="82.4766" x2="6672.7539" y2="102.2397" gradientTransform="matrix(0 1 -1 0 294.4102 -6482.8086)">
					<stop  offset="0" style="stop-color:#7A509E"/>
					<stop  offset="0.2809" style="stop-color:#774B9C"/>
					<stop  offset="0.6785" style="stop-color:#6F3E96"/>
					<stop  offset="1" style="stop-color:#662F90"/>
				</linearGradient>
				<path fill="url(#SVGID_87_)" d="M201.885,247.654c-7.09,0-12.837-6.957-12.837-15.539v-84.342
					c0-8.58,5.747-15.538,12.837-15.538l0,0c7.09,0,12.836,6.958,12.836,15.538v84.342
					C214.721,240.697,208.975,247.654,201.885,247.654L201.885,247.654z"/>
				
					<linearGradient id="SVGID_88_" gradientUnits="userSpaceOnUse" x1="6585.1484" y1="874.4619" x2="6585.1484" y2="903.7973" gradientTransform="matrix(0.1111 0.8889 -0.8889 0.1111 261.5156 -5762.5)">
					<stop  offset="0" style="stop-color:#7D54A1"/>
					<stop  offset="0.3037" style="stop-color:#7A509E"/>
					<stop  offset="0.7335" style="stop-color:#724398"/>
					<stop  offset="1" style="stop-color:#6B3893"/>
				</linearGradient>
				<path fill="url(#SVGID_88_)" d="M202.52,246.869c-6.581,0-11.771-6.752-11.771-15.081v-83.87c0-8.327,5.19-15.08,11.771-15.08
					l0,0c6.583,0,11.844,6.753,11.844,15.08v83.87C214.363,240.117,209.103,246.869,202.52,246.869L202.52,246.869z"/>
				
					<linearGradient id="SVGID_89_" gradientUnits="userSpaceOnUse" x1="6210.4111" y1="1784.9785" x2="6210.4111" y2="1827.9683" gradientTransform="matrix(0.2222 0.7778 -0.7778 0.2222 228.6219 -5042.1909)">
					<stop  offset="0" style="stop-color:#8059A3"/>
					<stop  offset="0.3318" style="stop-color:#7D54A1"/>
					<stop  offset="0.8015" style="stop-color:#75479A"/>
					<stop  offset="1" style="stop-color:#704097"/>
				</linearGradient>
				<path fill="url(#SVGID_89_)" d="M203.156,246.083c-6.075,0-10.707-6.546-10.707-14.622v-83.398
					c0-8.075,4.632-14.622,10.707-14.622l0,0c6.074,0,10.851,6.547,10.851,14.622v83.398
					C214.007,239.537,209.23,246.083,203.156,246.083L203.156,246.083z"/>
				
					<linearGradient id="SVGID_90_" gradientUnits="userSpaceOnUse" x1="5418.7617" y1="2665.9434" x2="5418.7617" y2="2726.6025" gradientTransform="matrix(0.3333 0.6667 -0.6667 0.3333 195.7273 -4321.8823)">
					<stop  offset="0" style="stop-color:#835DA5"/>
					<stop  offset="0.3674" style="stop-color:#8058A3"/>
					<stop  offset="0.8875" style="stop-color:#784C9C"/>
					<stop  offset="1" style="stop-color:#75489B"/>
				</linearGradient>
				<path fill="url(#SVGID_90_)" d="M203.791,245.297c-5.567,0-9.641-6.34-9.641-14.163v-82.927c0-7.822,4.073-14.164,9.641-14.164
					l0,0c5.567,0,9.858,6.342,9.858,14.164v82.927C213.649,238.957,209.358,245.297,203.791,245.297L203.791,245.297z"/>
				
					<linearGradient id="SVGID_91_" gradientUnits="userSpaceOnUse" x1="4197.8145" y1="3242.2354" x2="4197.8145" y2="3321.8113" gradientTransform="matrix(0.4444 0.5556 -0.5556 0.4444 162.8337 -3601.5735)">
					<stop  offset="0" style="stop-color:#8662A8"/>
					<stop  offset="0.4146" style="stop-color:#835DA5"/>
					<stop  offset="1" style="stop-color:#7B509F"/>
				</linearGradient>
				<path fill="url(#SVGID_91_)" d="M204.426,244.512c-5.059,0-8.574-6.136-8.574-13.705v-82.455c0-7.57,3.516-13.706,8.574-13.706
					l0,0c5.061,0,8.867,6.136,8.867,13.706v82.455C213.293,238.376,209.486,244.512,204.426,244.512L204.426,244.512z"/>
				
					<linearGradient id="SVGID_92_" gradientUnits="userSpaceOnUse" x1="2776.6494" y1="3258.083" x2="2776.6494" y2="3352.2251" gradientTransform="matrix(0.5556 0.4444 -0.4444 0.5556 131.575 -2881.2351)">
					<stop  offset="0" style="stop-color:#8966AA"/>
					<stop  offset="0.4806" style="stop-color:#8661A8"/>
					<stop  offset="1" style="stop-color:#8058A3"/>
				</linearGradient>
				<path fill="url(#SVGID_92_)" d="M205.062,243.727c-4.552,0-7.51-5.931-7.51-13.246v-81.984c0-7.317,2.958-13.248,7.51-13.248
					l0,0c4.552,0,7.874,5.931,7.874,13.248v81.984C212.936,237.796,209.613,243.727,205.062,243.727L205.062,243.727z"/>
				
					<linearGradient id="SVGID_93_" gradientUnits="userSpaceOnUse" x1="1538.5469" y1="2705.4316" x2="1538.5469" y2="2805.2683" gradientTransform="matrix(0.6667 0.3333 -0.3333 0.6667 98.6816 -2160.9263)">
					<stop  offset="0" style="stop-color:#8C6AAD"/>
					<stop  offset="0.5811" style="stop-color:#8966AA"/>
					<stop  offset="1" style="stop-color:#8560A7"/>
				</linearGradient>
				<path fill="url(#SVGID_93_)" d="M205.697,242.94c-4.045,0-6.444-5.725-6.444-12.787V148.64c0-7.063,2.399-12.789,6.444-12.789
					l0,0c4.045,0,6.882,5.726,6.882,12.789v81.514C212.579,237.216,209.742,242.94,205.697,242.94L205.697,242.94z"/>
				
					<linearGradient id="SVGID_94_" gradientUnits="userSpaceOnUse" x1="720.75" y1="1840.3975" x2="720.75" y2="1937.3586" gradientTransform="matrix(0.7778 0.2222 -0.2222 0.7778 65.7873 -1440.6185)">
					<stop  offset="0" style="stop-color:#8F6FAF"/>
					<stop  offset="0.7602" style="stop-color:#8C6AAC"/>
					<stop  offset="1" style="stop-color:#8A68AB"/>
				</linearGradient>
				<path fill="url(#SVGID_94_)" d="M206.333,242.154c-3.537,0-5.38-5.519-5.38-12.328v-81.042c0-6.812,1.843-12.331,5.38-12.331
					l0,0c3.536,0,5.889,5.52,5.889,12.331v81.042C212.222,236.636,209.869,242.154,206.333,242.154L206.333,242.154z"/>
				
					<linearGradient id="SVGID_95_" gradientUnits="userSpaceOnUse" x1="319.0156" y1="938.1074" x2="319.0156" y2="1027.0886" gradientTransform="matrix(0.8889 0.1111 -0.1111 0.8889 32.8936 -720.3088)">
					<stop  offset="0" style="stop-color:#9373B1"/>
					<stop  offset="1" style="stop-color:#906FB0"/>
				</linearGradient>
				<path fill="url(#SVGID_95_)" d="M206.968,241.369c-3.028,0-4.313-5.314-4.313-11.87v-80.57c0-6.559,1.285-11.873,4.313-11.873
					l0,0c3.029,0,4.897,5.314,4.897,11.873v80.57C211.865,236.055,209.997,241.369,206.968,241.369L206.968,241.369z"/>
				<path fill="#9677B4" d="M207.604,240.583c-2.521,0-3.248-5.108-3.248-11.411v-80.099c0-6.307,0.727-11.415,3.248-11.415l0,0
					c2.521,0,3.904,5.108,3.904,11.415v80.099C211.508,235.475,210.125,240.583,207.604,240.583L207.604,240.583z"/>
			</g>
		</g>
	</g>
</g>
</svg>
