<?xml version="1.0" encoding="utf-8"?>
<!-- Generator: Adobe Illustrator 16.0.0, SVG Export Plug-In . SVG Version: 6.00 Build 0)  -->
<!DOCTYPE svg PUBLIC "-//W3C//DTD SVG 1.1//EN" "http://www.w3.org/Graphics/SVG/1.1/DTD/svg11.dtd">
<svg version="1.1" id="Layer_1" xmlns="http://www.w3.org/2000/svg" xmlns:xlink="http://www.w3.org/1999/xlink" x="0px" y="0px"
	 width="256px" height="256px" viewBox="0 0 256 256" enable-background="new 0 0 256 256" xml:space="preserve">
<g id="Arrow_11">
</g>
<g>
	<g>
		<g opacity="0.7">
			<path fill="#414042" d="M48.597,103.991c0,3.474,4.039,6.283,9.017,6.283h183.152c4.975,0,9.014-2.81,9.014-6.283V9.742
				c0-3.468-4.039-6.283-9.014-6.283H57.613c-4.978,0-9.017,2.815-9.017,6.283V103.991z"/>
			<path fill="#FFFFFF" d="M59.693,98.793c0,3.088,3.591,5.59,8.021,5.59h162.95c4.429,0,8.021-2.502,8.021-5.59V14.939
				c0-3.087-3.592-5.589-8.021-5.589H67.714c-4.429,0-8.021,2.502-8.021,5.589V98.793z"/>
			<g>
				<path fill="#414042" d="M214.011,93.864c0-1.732-1.011-3.119-2.255-3.119H79.513c-1.242,0-2.256,1.387-2.256,3.119l0,0
					c0,1.719,1.014,3.116,2.256,3.116h132.243C213,96.98,214.011,95.583,214.011,93.864L214.011,93.864z"/>
				<path fill="#414042" d="M162.492,55.733c0-1.145-0.669-2.069-1.502-2.069H79.842c-0.825,0-1.502,0.925-1.502,2.069l0,0
					c0,1.155,0.677,2.084,1.502,2.084h81.148C161.822,57.817,162.492,56.889,162.492,55.733L162.492,55.733z"/>
				<path fill="#414042" d="M186.962,37.465c0-2.724-1.598-4.932-3.572-4.932H80.831c-1.974,0-3.574,2.208-3.574,4.932l0,0
					c0,2.731,1.601,4.946,3.574,4.946H183.39C185.364,42.411,186.962,40.196,186.962,37.465L186.962,37.465z"/>
				<path fill="#414042" d="M186.962,17.737c0-2.159-1.271-3.918-2.835-3.918H80.093c-1.567,0-2.836,1.759-2.836,3.918l0,0
					c0,2.163,1.27,3.916,2.836,3.916h104.034C185.691,21.653,186.962,19.9,186.962,17.737L186.962,17.737z"/>
				<path fill="#414042" d="M187.505,72.765c0-2.724-1.598-4.931-3.572-4.931H81.374c-1.973,0-3.574,2.207-3.574,4.931l0,0
					c0,2.731,1.601,4.947,3.574,4.947h102.559C185.907,77.712,187.505,75.496,187.505,72.765L187.505,72.765z"/>
			</g>
		</g>
		<g>
			<radialGradient id="SVGID_1_" cx="61.6455" cy="126.7666" r="64.2659" gradientUnits="userSpaceOnUse">
				<stop  offset="0.1726" style="stop-color:#F79B69"/>
				<stop  offset="1" style="stop-color:#F16624"/>
			</radialGradient>
			<path fill="url(#SVGID_1_)" stroke="#000000" stroke-width="2.4973" stroke-miterlimit="10" d="M62.528,48.487
				c31.725,0,35.641,43.469,15.312,58.277c41.431,20.691,43.172,98.281-15.312,98.281c-58.482,0-61.143-91.781-15.298-98.281
				C30.712,109.106,30.807,48.487,62.528,48.487z"/>
			<path d="M100.092,122.905c-0.278,0.459,0.114,1.388,0.864,2.059l0,0c0.762,0.674,1.602,0.841,1.889,0.373L148.47,49.19
				c0.276-0.463-0.11-1.394-0.867-2.062l0,0c-0.76-0.678-1.603-0.843-1.887-0.374L100.092,122.905z"/>
			<g>
				<path fill="#F16624" stroke="#000000" stroke-width="2" stroke-miterlimit="10" d="M86.668,40.353
					c9.298,22.237,14.291,22.417-7.207,33.655c-20.702,10.825-23.947,6.43-45.92-2.725c-11.851-4.938-6.042-31.125,3.623-28.99
					C58.55,47.018,65.945,47.071,86.668,40.353z"/>
				<path stroke="#000000" stroke-width="2" stroke-miterlimit="10" d="M25.467,62.702c-0.102-5.021,7.532-5.021,7.622-0.072
					c0.269,5.352-1.163,11.331-2.079,16.167C26.539,74.965,24.144,68.818,25.467,62.702C25.424,60.572,25.086,64.457,25.467,62.702z
					"/>
				<path stroke="#000000" stroke-width="2" stroke-miterlimit="10" d="M106.918,29.836c-2.187,9.524-33.788,16.45-43.619,20.351
					C65.799,40.724,97.021,33.803,106.918,29.836z"/>
				<path fill="#F16624" stroke="#000000" stroke-width="2" stroke-miterlimit="10" d="M26.5,58.715
					c1.75,2.519,3.472,2.5,5.166-0.049C29.921,56.147,28.199,56.164,26.5,58.715C26.523,59.767,26.483,57.667,26.5,58.715z"/>
				<path stroke="#000000" stroke-width="2" stroke-miterlimit="10" d="M63.248,47.335c-16.664-3.528-33.328-7.054-49.993-10.58
					c0.015,0.891,0.033,1.78,0.05,2.672C24.204,41.773,58.342,53.591,63.248,47.335z"/>
				<path fill="#F16624" stroke="#000000" stroke-width="2" stroke-miterlimit="10" d="M106.918,29.912
					c-14.145-2.362-31.654-8.68-45.894-7.664C45.661,23.346,28.074,32.35,13.257,36.891c16.384,3.502,32.769,7.003,49.153,10.505
					C72.809,49.616,96.725,34.035,106.918,29.912z"/>
				<path stroke="#000000" stroke-width="2" stroke-miterlimit="10" d="M25.389,55.429c0.08,4.688,7.293,4.687,7.216-0.062
					C32.511,50.684,25.301,50.677,25.389,55.429C25.423,57.446,25.352,53.416,25.389,55.429z"/>
				<path stroke="#000000" stroke-width="2" stroke-miterlimit="10" d="M27.381,39.653l30.637-8.655l-0.138,1.964l-28.19,7.737
					l0.223,11.931H29.91c0.219,1.342-2.501,0.692-2.279,0.02l-0.008,0.001L27.381,39.653z"/>
				<path fill="#F16624" stroke="#000000" stroke-width="2" stroke-miterlimit="10" d="M57.328,31.628
					c0.07,3.814,9.574,3.751,9.499-0.089C66.75,27.725,57.252,27.791,57.328,31.628C57.355,33.149,57.298,30.105,57.328,31.628z"/>
				<path fill="#F16624" stroke="#000000" stroke-width="2" stroke-miterlimit="10" d="M62.13,34.343
					c2.358-0.021,4.293-1.042,4.636-2.356c1.329,4.257-10.501,4.532-9.365,0.087C57.794,33.38,59.766,34.367,62.13,34.343
					C64.488,34.322,59.766,34.367,62.13,34.343z"/>
			</g>
		</g>
		<g>
			<g>
				<path fill="#662F90" d="M128.641,138.097v10.769c0,10.076,6.782,12.562,15.135,11.596l17.552,14.089
					c-1.275-6.353-4.409-12.208-1.015-17.43c3.39-5.218,2.21-13.085,2.21-19.023c0-15.537-16.176-11.598-26.459-11.598
					C131.962,126.499,128.641,131.693,128.641,138.097z M152.189,151.398c-4.073,0-8.145,0-12.216,0
					c-2.24,0-9.491-3.752-5.655-3.752c4.072,0,8.145,0,12.216,0C148.772,147.646,156.038,151.398,152.189,151.398z M154.877,145.147
					c-3.962,0-7.925,0-11.888,0c-2.601,0-5.203,0-7.804,0c-1.832,0-3.203-3.752-0.699-3.752c3.963,0,7.925,0,11.888,0
					c2.601,0,5.203,0,7.804,0C156.01,141.396,157.38,145.147,154.877,145.147z M154.877,138.897c-3.962,0-7.925,0-11.888,0
					c-2.601,0-5.203,0-7.804,0c-1.831,0-3.204-3.75-0.699-3.75c3.963,0,7.925,0,11.888,0c2.601,0,5.203,0,7.804,0
					C156.01,135.147,157.38,138.897,154.877,138.897z"/>
				<path fill="#414042" d="M204.778,238.95l0.395-0.747c1.473-11.9,0.394-24.482-3.912-35.584
					c-3.533-9.116-9.365-9.705-4.175-19.35c3.002-5.578,7.037-10.767,12.244-13.952l4.58-2.814
					c-14.319-10.38-18.775-39.945-0.075-48.578c22.865-10.556,30.781,31.334,15.875,44.769l-4.253,3.81
					c18.19,9.376,25.148,32.248,25.137,53.134c0,26.592-30.606,40.033-49.135,24.809
					C202.565,242.613,203.672,240.782,204.778,238.95z"/>
				<path fill="#662F90" d="M170.454,191.089l4.577-2.812c-10.197-7.716-15.689-27.606-2.195-35.518
					c16.377-9.6,23.839,21.488,12.489,31.708l-4.248,3.81c17.985,8.942,28.204,41.431,11.953,56.688
					C162.316,273.863,139.793,209.809,170.454,191.089z"/>
			</g>
			<g>
				<path fill="#414042" d="M106.311,192.89c0.047,1.721,1.436,3.121,3.103,3.129l50.784,0.238c1.663,0.007,2.973-1.381,2.925-3.102
					l0,0c-0.047-1.719-1.433-3.118-3.096-3.127l-50.784-0.238C107.576,189.782,106.264,191.171,106.311,192.89L106.311,192.89z"/>
				<path fill="#414042" d="M112.645,244.789c0.062,2.302,2.626,4.187,5.722,4.201l22.449,0.105
					c3.101,0.015,5.558-1.847,5.495-4.148l-1.31-47.692c-0.064-2.318-2.625-4.196-5.725-4.21l-22.449-0.105
					c-3.096-0.015-5.556,1.84-5.493,4.157L112.645,244.789z"/>
			</g>
		</g>
	</g>
</g>
</svg>
