<?xml version="1.0" encoding="utf-8"?>
<!-- Generator: Adobe Illustrator 16.0.0, SVG Export Plug-In . SVG Version: 6.00 Build 0)  -->
<!DOCTYPE svg PUBLIC "-//W3C//DTD SVG 1.1//EN" "http://www.w3.org/Graphics/SVG/1.1/DTD/svg11.dtd">
<svg version="1.1" id="Layer_1" xmlns="http://www.w3.org/2000/svg" xmlns:xlink="http://www.w3.org/1999/xlink" x="0px" y="0px"
	 width="308.579px" height="278.714px" viewBox="0 0 308.579 278.714" enable-background="new 0 0 308.579 278.714"
	 xml:space="preserve">
<g>
	
		<linearGradient id="SVGID_1_" gradientUnits="userSpaceOnUse" x1="35.2808" y1="84.9492" x2="278.0974" y2="193.0582" gradientTransform="matrix(0.5101 -0.8601 0.8601 0.5101 -47.7558 200.1643)">
		<stop  offset="0" style="stop-color:#5CA047"/>
		<stop  offset="0.1411" style="stop-color:#5CA047"/>
		<stop  offset="0.6871" style="stop-color:#75479A"/>
		<stop  offset="1" style="stop-color:#662F90"/>
	</linearGradient>
	<path fill="url(#SVGID_1_)" d="M10.252,105.593C53.391,57.286,90.746-7.985,164.68,0.874
		c48.889,5.858,74.782,37.841,103.462,74.111c21.087,26.67,61.27,63.737,27.286,97.552
		c-37.992,50.071-101.994,110.937-169.322,105.882c-42.975-3.227-63.806-41.834-86.873-73.163
		C18.894,177.633-17.979,141.758,10.252,105.593z"/>
	<path opacity="0.3" fill="#FFFFFF" d="M16.871,106.625C37.998,83.07,67.1,31.91,98.607,22.245
		c29.26-8.977,63.486,52.758,78.422,71.931c12.904,16.564,31.471,34.257,27.932,57.472c-4.281,28.082-46.311,58.067-65.126,77.637
		c-12.759,13.271-30.387,39.79-52.558,26.559c-25.792-15.393-46.107-57.801-63.522-81.678
		C8.422,153.146-1.417,131.208,16.871,106.625z"/>
	<path fill="#FFFFFF" d="M67.031,138.286c-1.135,26.162-34.494,24.722-33.363-1.441C34.795,110.682,68.155,112.125,67.031,138.286
		C66.532,149.791,67.525,126.782,67.031,138.286z"/>
	<path fill="#FFFFFF" d="M115.871,201.625c-1.131,26.163-34.491,24.719-33.361-1.443
		C83.637,174.019,116.999,175.464,115.871,201.625C115.374,213.129,116.367,190.12,115.871,201.625z"/>
	<path fill="#FFFFFF" d="M121.996,78.583c-1.199,27.671-36.482,26.145-35.288-1.526C87.902,49.383,123.19,50.91,121.996,78.583
		C121.468,90.751,122.521,66.412,121.996,78.583z"/>
	<path fill="#FFFFFF" d="M171.697,143.882c-1.199,27.672-36.487,26.145-35.288-1.527
		C137.604,114.682,172.889,116.209,171.697,143.882C171.169,156.05,172.221,131.711,171.697,143.882z"/>
	
		<linearGradient id="SVGID_2_" gradientUnits="userSpaceOnUse" x1="287.7729" y1="160.5684" x2="197.2671" y2="160.5683" gradientTransform="matrix(0.5101 -0.8601 0.8601 0.5101 -47.7558 200.1643)">
		<stop  offset="0" style="stop-color:#5CA047"/>
		<stop  offset="1" style="stop-color:#662F90"/>
	</linearGradient>
	<path fill="url(#SVGID_2_)" d="M169.308,70.865c-6.029-7.498-54.181-54.455-34.636-64.418
		c47.481-24.203,93.13,25.258,119.077,57.195c8.696,10.702,55.154,51.653,46.203,68.599c-11.024,20.873-62.995,6.521-77.746-1.382
		C199.575,118.736,184.303,91.024,169.308,70.865z"/>
	
		<linearGradient id="SVGID_3_" gradientUnits="userSpaceOnUse" x1="120.8765" y1="280.0723" x2="120.8765" y2="176.9424" gradientTransform="matrix(0.5101 -0.8601 0.8601 0.5101 -47.7558 200.1643)">
		<stop  offset="0" style="stop-color:#5CA047"/>
		<stop  offset="1" style="stop-color:#662F90"/>
	</linearGradient>
	<path fill="url(#SVGID_3_)" d="M164.028,216.103c20.255-20.466,38.879-43.325,65.134-56.331c8.438-4.18,76.025-20.863,69.945,3.086
		c-3.248,12.794-24.888,27.513-33.63,36.299c-27.163,27.299-53.028,60.936-93.327,68.273c-6.935,1.263-44.331,13.256-50.354,1.45
		C115.446,256.434,155.606,224.346,164.028,216.103z"/>
	
		<linearGradient id="SVGID_4_" gradientUnits="userSpaceOnUse" x1="234.7495" y1="179.5869" x2="253.65" y2="146.8503" gradientTransform="matrix(0.5101 -0.8601 0.8601 0.5101 -47.7558 200.1643)">
		<stop  offset="0" style="stop-color:#939598"/>
		<stop  offset="0.0597" style="stop-color:#A4A6A8"/>
		<stop  offset="0.169" style="stop-color:#BEC0C2"/>
		<stop  offset="0.2873" style="stop-color:#D5D6D8"/>
		<stop  offset="0.4157" style="stop-color:#E6E7E8"/>
		<stop  offset="0.5593" style="stop-color:#F2F3F3"/>
		<stop  offset="0.7303" style="stop-color:#FBFBFB"/>
		<stop  offset="1" style="stop-color:#FFFFFF"/>
	</linearGradient>
	<path fill="url(#SVGID_4_)" d="M222.135,67.979c2.235,2.066,14.312,13.636,9.659,18.666c-7,7.571-36.062-19.223-29.027-26.833
		C210.48,58.65,216.936,61.372,222.135,67.979C230.152,75.389,214.119,60.568,222.135,67.979z"/>
	
		<linearGradient id="SVGID_5_" gradientUnits="userSpaceOnUse" x1="144.9692" y1="226.2422" x2="153.2145" y2="214.0181" gradientTransform="matrix(0.5101 -0.8601 0.8601 0.5101 -47.7558 200.1643)">
		<stop  offset="0" style="stop-color:#939598"/>
		<stop  offset="0.0597" style="stop-color:#A4A6A8"/>
		<stop  offset="0.169" style="stop-color:#BEC0C2"/>
		<stop  offset="0.2873" style="stop-color:#D5D6D8"/>
		<stop  offset="0.4157" style="stop-color:#E6E7E8"/>
		<stop  offset="0.5593" style="stop-color:#F2F3F3"/>
		<stop  offset="0.7303" style="stop-color:#FBFBFB"/>
		<stop  offset="1" style="stop-color:#FFFFFF"/>
	</linearGradient>
	<path fill="url(#SVGID_5_)" d="M233.108,172.61c5.025,6.709-26.048,29.979-31.071,23.271
		C197.014,189.171,228.083,165.902,233.108,172.61C234.997,175.132,231.22,170.09,233.108,172.61z"/>
	
		<linearGradient id="SVGID_6_" gradientUnits="userSpaceOnUse" x1="94.9604" y1="243.6816" x2="101.7406" y2="231.9381" gradientTransform="matrix(0.5101 -0.8601 0.8601 0.5101 -47.7558 200.1643)">
		<stop  offset="0" style="stop-color:#939598"/>
		<stop  offset="0.0597" style="stop-color:#A4A6A8"/>
		<stop  offset="0.169" style="stop-color:#BEC0C2"/>
		<stop  offset="0.2873" style="stop-color:#D5D6D8"/>
		<stop  offset="0.4157" style="stop-color:#E6E7E8"/>
		<stop  offset="0.5593" style="stop-color:#F2F3F3"/>
		<stop  offset="0.7303" style="stop-color:#FBFBFB"/>
		<stop  offset="1" style="stop-color:#FFFFFF"/>
	</linearGradient>
	<path fill="url(#SVGID_6_)" d="M222.447,225.267c5.023,6.708-26.045,29.98-31.072,23.271
		C186.353,241.827,217.426,218.56,222.447,225.267C224.334,227.787,220.56,222.746,222.447,225.267z"/>
	<path fill="#64A34D" d="M45.621,117.689c-22.912,16.101-2.499,55.738,15.724,35.297C43.55,179.794,13.554,127.857,45.621,117.689z"
		/>
	<path fill="#D1D3D4" d="M61.443,152.555c-21.437,8.481-28.436-16.143-20.026-31.479C21.459,140.311,50.129,173.895,61.443,152.555z
		"/>
	<path fill="#64A34D" d="M99.677,56.548c-24.196,16.372-1.34,56.919,17.233,36.459C98.044,120.324,66.753,66.126,99.677,56.548z"/>
	<path fill="#D1D3D4" d="M117.006,92.566C95.151,100.46,86.602,76.26,95.351,59.92C74.484,79.74,105.73,113.957,117.006,92.566z"/>
	<path fill="#64A34D" d="M97.707,179.725c-24.565,13.941-8.031,55.76,12.278,36.982C89.514,241.904,64.495,186.848,97.707,179.725z"
		/>
	<path fill="#D1D3D4" d="M110.127,216.28c-22.004,6.256-27.137-18.688-16.974-33.561C71.237,200.087,96.653,236.638,110.127,216.28z
		"/>
	<path fill="#64A34D" d="M151.047,121.474c-26.268,13.926-6.21,56.951,14.36,38.51C143.428,185.411,117.109,127.38,151.047,121.474z
		"/>
	<path fill="#D1D3D4" d="M165.542,159.549c-22.229,5.179-29.842-18.979-19.173-35.171
		C123.255,142.26,152.346,179.656,165.542,159.549z"/>
</g>
</svg>
