<?xml version="1.0" encoding="utf-8"?>
<!-- Generator: Adobe Illustrator 16.0.0, SVG Export Plug-In . SVG Version: 6.00 Build 0)  -->
<!DOCTYPE svg PUBLIC "-//W3C//DTD SVG 1.1//EN" "http://www.w3.org/Graphics/SVG/1.1/DTD/svg11.dtd">
<svg version="1.1" id="Layer_1" xmlns="http://www.w3.org/2000/svg" xmlns:xlink="http://www.w3.org/1999/xlink" x="0px" y="0px"
	 width="256px" height="256px" viewBox="0 0 256 256" enable-background="new 0 0 256 256" xml:space="preserve">
<symbol  id="Burgerschap" viewBox="-15.819 -20.208 31.638 40.416">
	<g>
		<path fill="#5CA046" d="M-2.244-11.61c0.223-1.424,0.018-2.67-1.383-2.953l0,0c-1.4-0.285-2.066,0.784-2.408,2.184
			c0,0-5.387,18.217-5.387,19.961c0,1.169,0.48,2.263,1.307,3.186c-0.924,1.005-1.488,2.348-1.488,3.819
			c0,3.097,2.502,5.622,5.572,5.622c3.068,0,5.572-2.525,5.572-5.622s-2.504-5.622-5.572-5.622c-0.428,0-0.844,0.049-1.244,0.142
			c2.027-4.979,8.918-5.146,12.75-2.424C5.076,4.827,6.602,4.271,4.836,3.43C2.537,2.335-0.803-0.459-2.908,0.153
			C-2.328-0.784-2.244-11.61-2.244-11.61z M2.873,0.153C0.766-0.459-2.574,2.335-4.871,3.43c-1.768,0.842-0.242,1.397-0.641,3.252
			C-1.68,3.96,5.213,4.126,7.238,9.105c-0.4-0.093-0.816-0.142-1.242-0.142c-3.07,0-5.574,2.525-5.574,5.622
			s2.504,5.622,5.574,5.622c3.068,0,5.572-2.525,5.572-5.622c0-1.472-0.566-2.814-1.49-3.819c0.828-0.923,1.307-2.017,1.307-3.186
			c0-1.744-5.387-19.961-5.387-19.961c-0.342-1.399-1.006-2.469-2.408-2.184l0,0c-1.4,0.283-1.604,1.529-1.383,2.953
			C2.207-11.61,2.291-0.784,2.873,0.153z"/>
		<g>
			<path fill="#66318F" stroke="#FFFFFF" stroke-width="0.9301" stroke-miterlimit="2.6131" d="M-8.621-4.542
				c-0.016-0.411-0.021-0.826-0.021-1.246c0-5.721,1.393-10.749,3.471-13.534c-1.176,3.313-1.92,8.155-1.92,13.534
				c0,0.419,0.004,0.835,0.014,1.246H-8.621L-8.621-4.542z"/>
			<path fill="#66318F" stroke="#FFFFFF" stroke-width="0.9301" stroke-miterlimit="2.6131" d="M5.172,7.747
				C7.25,4.962,8.645-0.066,8.645-5.788c0-5.72-1.395-10.749-3.473-13.534c1.176,3.313,1.92,8.155,1.92,13.534
				C7.092-0.408,6.348,4.435,5.172,7.747L5.172,7.747z"/>
			<path fill="#66318F" d="M5.172,7.747C7.25,4.962,8.645-0.066,8.645-5.788c0-5.72-1.395-10.749-3.473-13.533
				c1.176,3.312,1.92,8.154,1.92,13.533C7.092-0.408,6.348,4.435,5.172,7.747L5.172,7.747z"/>
			<path fill="#66318F" stroke="#FFFFFF" stroke-width="0.9219" stroke-miterlimit="2.6131" d="M0,7.054
				c0.342,0,0.621-5.769,0.621-12.842c0-7.071-0.279-12.84-0.621-12.84s-0.619,5.769-0.619,12.84C-0.619,1.285-0.342,7.054,0,7.054
				L0,7.054z"/>
			<path fill="#66318F" d="M0,7.054c0.342,0,0.621-5.769,0.621-12.842c0-7.071-0.279-12.84-0.621-12.84s-0.619,5.769-0.619,12.84
				C-0.619,1.285-0.342,7.054,0,7.054L0,7.054z"/>
			<path fill="#66318F" stroke="#FFFFFF" stroke-width="0.9301" stroke-miterlimit="2.6131" d="M12.729-5.788
				C12.729-6.132,7.01-6.413,0-6.413s-12.729,0.281-12.729,0.625c0,0.346,5.719,0.627,12.729,0.627S12.729-5.442,12.729-5.788
				L12.729-5.788z"/>
			<path fill="#66318F" d="M12.729-5.788C12.729-6.132,7.01-6.413,0-6.413s-12.729,0.281-12.729,0.625
				c0,0.346,5.719,0.627,12.729,0.627S12.729-5.442,12.729-5.788L12.729-5.788z"/>
			<path fill="#66318F" stroke="#FFFFFF" stroke-width="0.9233" stroke-miterlimit="2.6131" d="M-13.416-2.014
				C-10.654,0.084-5.67,1.49,0,1.49s10.656-1.406,13.416-3.504C10.133-0.826,5.332-0.075,0-0.075S-10.131-0.826-13.416-2.014
				L-13.416-2.014z"/>
			<path fill="#66318F" d="M-13.416-2.014C-10.654,0.084-5.67,1.49,0,1.49s10.656-1.406,13.416-3.504
				C10.133-0.826,5.332-0.075,0-0.075S-10.131-0.826-13.416-2.014L-13.416-2.014z"/>
			<path fill="#66318F" stroke="#FFFFFF" stroke-width="0.9233" stroke-miterlimit="2.6131" d="M-6.561-19.792
				c-5.191,2.49-8.797,7.836-8.797,14.004c0,6.169,3.605,11.515,8.797,14.005c-4.457-2.663-7.504-7.944-7.504-14.005
				C-14.064-11.847-11.018-17.129-6.561-19.792L-6.561-19.792z"/>
			<path fill="#66318F" d="M-6.561-19.792c-5.191,2.49-8.797,7.836-8.797,14.004c0,6.169,3.605,11.515,8.797,14.005
				c-4.457-2.663-7.504-7.944-7.504-14.005C-14.064-11.847-11.018-17.129-6.561-19.792L-6.561-19.792z"/>
			<path fill="#66318F" stroke="#FFFFFF" stroke-width="0.9233" stroke-miterlimit="2.6131" d="M6.561,8.216
				c5.193-2.489,8.797-7.835,8.797-14.004c0-6.168-3.604-11.513-8.795-14.003c4.455,2.663,7.502,7.944,7.502,14.003
				C14.064,0.271,11.018,5.554,6.561,8.216L6.561,8.216z"/>
			<path fill="#66318F" d="M6.561,8.216c5.193-2.49,8.797-7.835,8.797-14.004c0-6.168-3.604-11.513-8.795-14.003
				c4.455,2.662,7.502,7.944,7.502,14.003C14.064,0.271,11.018,5.554,6.561,8.216L6.561,8.216z"/>
			<path fill="#66318F" stroke="#FFFFFF" stroke-width="0.9233" stroke-miterlimit="2.6131" d="M13.416-9.562
				C10.654-11.659,5.67-13.065,0-13.065c-5.67,0.001-10.654,1.406-13.416,3.504C-10.131-10.748-5.332-11.5,0-11.5
				S10.131-10.748,13.416-9.562L13.416-9.562z"/>
			<path fill="#66318F" d="M13.416-9.562C10.654-11.659,5.67-13.064,0-13.064s-10.654,1.405-13.416,3.503
				C-10.131-10.748-5.332-11.5,0-11.5S10.131-10.748,13.416-9.562L13.416-9.562z"/>
			<path fill="#66318F" d="M-5.555,7.647C-6.732,4.335-7.477-0.508-7.477-5.887c0-5.38,0.744-10.222,1.922-13.534
				c-2.08,2.784-3.473,7.813-3.473,13.534S-7.635,4.862-5.555,7.647L-5.555,7.647z"/>
		</g>
	</g>
</symbol>
<use xlink:href="#Burgerschap"  width="31.638" height="40.416" x="-15.819" y="-20.208" transform="matrix(5.9382 0 0 -5.9382 130.4199 128.1289)" overflow="visible"/>
</svg>
