<?xml version="1.0" encoding="utf-8"?>
<!-- Generator: Adobe Illustrator 16.0.0, SVG Export Plug-In . SVG Version: 6.00 Build 0)  -->
<!DOCTYPE svg PUBLIC "-//W3C//DTD SVG 1.1//EN" "http://www.w3.org/Graphics/SVG/1.1/DTD/svg11.dtd">
<svg version="1.1" id="Layer_1" xmlns="http://www.w3.org/2000/svg" xmlns:xlink="http://www.w3.org/1999/xlink" x="0px" y="0px"
	 width="256px" height="256px" viewBox="0 0 256 256" enable-background="new 0 0 256 256" xml:space="preserve">
<g id="layer1_6_" transform="translate(-151.06263,-365.03156)" inkscape:label="Calque 1" inkscape:groupmode="layer">
	
		<path id="path4434_2_" inkscape:connector-curvature="0" sodipodi:nodetypes="cccccc" inkscape:export-filename="/Users/lmproulx/Desktop/À classer/isotype/schéma intégateur/étape 1.png" inkscape:export-ydpi="300" inkscape:export-xdpi="300" fill="#FFFFFF" stroke="#66318F" stroke-width="1.0786" stroke-linecap="round" stroke-linejoin="round" d="
		M161.276,480.089c-1.711,2.769-4.422,4.501,1.306,8.906l70.737,52.914l82.171-104.648l-71.232-47.839L161.276,480.089z"/>
	
		<path id="path4436_2_" inkscape:connector-curvature="0" sodipodi:nodetypes="ccccccc" inkscape:export-filename="/Users/lmproulx/Desktop/À classer/isotype/schéma intégateur/étape 1.png" inkscape:export-ydpi="300" inkscape:export-xdpi="300" fill="#FFFFFF" stroke="#66318F" stroke-width="0.8564" stroke-linecap="round" stroke-linejoin="round" d="
		M163.634,476.804l0.263,5.664c-0.269,1.158,0.621,2.18,2.084,3.09l69.9,52.972l78.802-100.879l-71.521-48.966L163.634,476.804z"/>
	
		<path id="path4438_2_" inkscape:connector-curvature="0" sodipodi:nodetypes="ccccccc" inkscape:export-filename="/Users/lmproulx/Desktop/À classer/isotype/schéma intégateur/étape 1.png" inkscape:export-ydpi="300" inkscape:export-xdpi="300" fill="#FFFFFF" stroke="#66318F" stroke-width="1.0786" stroke-linecap="round" stroke-linejoin="round" d="
		M233.36,541.878l75.839,58.693c3.516,3,7.943,2.969,11.67-0.79l75.48-96.42c3.143-3.891,4.532-6.775-0.916-9.471l-78.176-51.019
		L233.36,541.878z"/>
	
		<path id="path4440_2_" inkscape:connector-curvature="0" sodipodi:nodetypes="cccccc" inkscape:export-filename="/Users/lmproulx/Desktop/À classer/isotype/schéma intégateur/étape 1.png" inkscape:export-ydpi="300" inkscape:export-xdpi="300" fill="#FFFFFF" stroke="#5CA046" stroke-width="0.8564" stroke-linecap="round" stroke-linejoin="round" d="
		M312.889,588.443l1.843,9.291l79.039-98.842c1.115-1.315,2.047-2.284,1.463-4.18l-0.216-9.138L312.889,588.443z"/>
	
		<path id="path4442_2_" inkscape:connector-curvature="0" sodipodi:nodetypes="cccccc" inkscape:export-filename="/Users/lmproulx/Desktop/À classer/isotype/schéma intégateur/étape 1.png" inkscape:export-ydpi="300" inkscape:export-xdpi="300" fill="#FFFFFF" stroke="#66318F" stroke-width="0.8564" stroke-linecap="round" stroke-linejoin="round" d="
		M235.282,531.187l0.505,6.643l76.892,58.441c2.5,2.521,2.289,1.09,1.958-0.479l-1.116-7.78L235.282,531.187z"/>
	
		<path id="path4444_2_" inkscape:connector-curvature="0" sodipodi:nodetypes="ccccccc" inkscape:export-filename="/Users/lmproulx/Desktop/À classer/isotype/schéma intégateur/étape 1.png" inkscape:export-ydpi="300" inkscape:export-xdpi="300" fill="#FFFFFF" stroke="#66318F" stroke-width="1.0944" stroke-linecap="round" stroke-linejoin="round" d="
		M234.55,530.792c27.01,19.713,45.971,34.668,74.243,54.524c3.68,2.963,6.139,1.505,7.996-0.785l75.533-94.715
		c2.312-2.568,4.09-4.206,0.61-5.685c-25.861-15.739-42.327-34.521-74.627-48.439L234.55,530.792z"/>
	
		<path id="path4446_2_" inkscape:connector-curvature="0" sodipodi:nodetypes="ccccccc" inkscape:export-filename="/Users/lmproulx/Desktop/À classer/isotype/schéma intégateur/étape 1.png" inkscape:export-ydpi="300" inkscape:export-xdpi="300" fill="#FFFFFF" stroke="#66318F" stroke-width="1.0944" stroke-linecap="round" stroke-linejoin="round" d="
		M165.829,478.284c25.025,20.745,43.886,32.842,68.937,53.098l84.003-95.215c-1.784-6.791-45.575-29.952-68.737-47.345
		c-3.279-2.927-7.433-1.6-8.375,0.211l-76.228,82.971C162.965,475.326,164.081,476.583,165.829,478.284L165.829,478.284z"/>
	
		<path id="path3162_2_" inkscape:connector-curvature="0" sodipodi:nodetypes="ccccc" fill="#FFFFFF" stroke="#5CA046" stroke-width="0.6341" d="
		M313.816,458.891l6.774-8.007l8.322,5.538l-6.785,8.633L313.816,458.891z"/>
	
		<path id="path3166_2_" inkscape:connector-curvature="0" sodipodi:nodetypes="ccccc" fill="#FFFFFF" stroke="#5CA046" stroke-width="0.5823" d="
		M325.881,466.834l6.511-7.644l49.14,33.511l-7.102,8.228L325.881,466.834z"/>
	
		<path id="path3182_2_" inkscape:connector-curvature="0" sodipodi:nodetypes="cc" fill="#F16825" stroke="#5CA046" stroke-width="0.6341" stroke-linecap="round" stroke-linejoin="round" d="
		M267.082,510.336l62.389,44.628"/>
	
		<path id="path3184_2_" inkscape:connector-curvature="0" sodipodi:nodetypes="cc" fill="#F16825" stroke="#5CA046" stroke-width="0.6341" stroke-linecap="round" stroke-linejoin="round" d="
		M301.919,469.03l61.894,43.139"/>
	
		<path id="path3186_2_" inkscape:connector-curvature="0" sodipodi:nodetypes="cc" fill="#F16825" stroke="#5CA046" stroke-width="0.6341" stroke-linecap="round" stroke-linejoin="round" d="
		M307.325,463.428l62.141,43.145"/>
	
		<path id="path3188_2_" inkscape:connector-curvature="0" sodipodi:nodetypes="cc" fill="#F16825" stroke="#5CA046" stroke-width="0.6341" stroke-linecap="round" stroke-linejoin="round" d="
		M297.187,476.246l61.151,42.391"/>
	
		<path id="path3190_2_" inkscape:connector-curvature="0" sodipodi:nodetypes="cc" fill="#F16825" stroke="#5CA046" stroke-width="0.6341" stroke-linecap="round" stroke-linejoin="round" d="
		M291.465,483.463l61.894,42.148"/>
	
		<path id="path3192_2_" inkscape:connector-curvature="0" sodipodi:nodetypes="cc" fill="#F16825" stroke="#5CA046" stroke-width="0.6341" stroke-linecap="round" stroke-linejoin="round" d="
		M285.742,489.68l61.895,42.891"/>
	
		<path id="path3194_2_" inkscape:connector-curvature="0" sodipodi:nodetypes="cc" fill="#F16825" stroke="#5CA046" stroke-width="0.6341" stroke-linecap="round" stroke-linejoin="round" d="
		M279.768,496.403l62.142,44.012"/>
	
		<path id="path3196_2_" inkscape:connector-curvature="0" sodipodi:nodetypes="cc" fill="#F16825" stroke="#5CA046" stroke-width="0.6341" stroke-linecap="round" stroke-linejoin="round" d="
		M273.299,502.618l62.394,45.134"/>
	
		<path id="path3198_2_" inkscape:connector-curvature="0" sodipodi:nodetypes="cc" fill="#F16825" stroke="#5CA046" stroke-width="0.6341" stroke-linecap="round" stroke-linejoin="round" d="
		M261.602,518.295l62.395,44.639"/>
	
		<path id="path3200_2_" inkscape:connector-curvature="0" sodipodi:nodetypes="cc" fill="#F16825" stroke="#5CA046" stroke-width="0.6341" stroke-linecap="round" stroke-linejoin="round" d="
		M254.885,526.76l62.395,44.633"/>
	
		<path id="path3206_2_" inkscape:connector-curvature="0" sodipodi:nodetypes="ccccc" fill="#FFFFFF" stroke="#5CA046" stroke-width="0.5855" d="
		M234.682,406.435l6.285-7.358l7.712,5.096l-6.285,7.933L234.682,406.435z"/>
	
		<path id="path3208_2_" inkscape:connector-curvature="0" sodipodi:nodetypes="ccccc" fill="#FFFFFF" stroke="#5CA046" stroke-width="0.5861" d="
		M245.115,413.984l6.706-7.517l50.603,32.963l-7.316,8.096L245.115,413.984z"/>
	<g id="g3210_2_" transform="matrix(0.94687784,0,0,0.93627502,-106.19219,-41.72841)">
		
			<path id="path3212_2_" inkscape:connector-curvature="0" sodipodi:nodetypes="cc" fill="#F16825" stroke="#5CA046" stroke-width="0.6341" stroke-linecap="round" stroke-linejoin="round" d="
			M311.359,532.607l63.544,44.866"/>
		
			<path id="path3214_2_" inkscape:connector-curvature="0" sodipodi:nodetypes="cc" fill="#F16825" stroke="#5CA046" stroke-width="0.6341" stroke-linecap="round" stroke-linejoin="round" d="
			M347.345,491.536l61.897,43.14"/>
		
			<path id="path3216_2_" inkscape:connector-curvature="0" sodipodi:nodetypes="cc" fill="#F16825" stroke="#5CA046" stroke-width="0.6341" stroke-linecap="round" stroke-linejoin="round" d="
			M352.32,485.065l62.147,43.145"/>
		
			<path id="path3218_2_" inkscape:connector-curvature="0" sodipodi:nodetypes="cc" fill="#F16825" stroke="#5CA046" stroke-width="0.6341" stroke-linecap="round" stroke-linejoin="round" d="
			M342.62,498.75l61.147,42.397"/>
		
			<path id="path3220_2_" inkscape:connector-curvature="0" sodipodi:nodetypes="cc" fill="#F16825" stroke="#5CA046" stroke-width="0.6341" stroke-linecap="round" stroke-linejoin="round" d="
			M336.899,505.969l61.886,42.145"/>
		
			<path id="path3222_2_" inkscape:connector-curvature="0" sodipodi:nodetypes="cc" fill="#F16825" stroke="#5CA046" stroke-width="0.6341" stroke-linecap="round" stroke-linejoin="round" d="
			M331.173,512.187l61.892,42.891"/>
		
			<path id="path3224_2_" inkscape:connector-curvature="0" sodipodi:nodetypes="cc" fill="#F16825" stroke="#5CA046" stroke-width="0.6341" stroke-linecap="round" stroke-linejoin="round" d="
			M325.197,518.911l62.147,44.012"/>
		
			<path id="path3226_2_" inkscape:connector-curvature="0" sodipodi:nodetypes="cc" fill="#F16825" stroke="#5CA046" stroke-width="0.6341" stroke-linecap="round" stroke-linejoin="round" d="
			M317.58,525.129l63.542,45.13"/>
		
			<path id="path3228_2_" inkscape:connector-curvature="0" sodipodi:nodetypes="cc" fill="#F16825" stroke="#5CA046" stroke-width="0.6341" stroke-linecap="round" stroke-linejoin="round" d="
			M305.194,540.343l64.238,45.096"/>
		
			<path id="path3230_2_" inkscape:connector-curvature="0" sodipodi:nodetypes="cc" fill="#F16825" stroke="#5CA046" stroke-width="0.6341" stroke-linecap="round" stroke-linejoin="round" d="
			M299.168,547.399l63.544,46.502"/>
	</g>
	
		<path id="path4057_2_" inkscape:connector-curvature="0" sodipodi:nodetypes="ccccc" fill="#FFFFFF" stroke="#5CA046" stroke-width="0.4667" d="
		M305.851,470.267l2.964-3.475l3.643,2.411l-2.964,3.737L305.851,470.267z"/>
	
		<path id="path4059_2_" inkscape:connector-curvature="0" sodipodi:nodetypes="ccccc" fill="#FFFFFF" stroke="#5CA046" stroke-width="0.4667" d="
		M300.55,476.057l2.964-3.475l3.643,2.406l-2.964,3.742L300.55,476.057z"/>
	
		<path id="path4061_2_" inkscape:connector-curvature="0" sodipodi:nodetypes="ccccc" fill="#FFFFFF" stroke="#5CA046" stroke-width="0.4667" d="
		M295.244,482.71l2.969-3.474l3.638,2.4l-2.964,3.748L295.244,482.71z"/>
	
		<path id="path4063_2_" inkscape:connector-curvature="0" sodipodi:nodetypes="ccccc" fill="#FFFFFF" stroke="#5CA046" stroke-width="0.4667" d="
		M289.664,488.995l2.969-3.469l3.638,2.405l-2.969,3.743L289.664,488.995z"/>
	
		<path id="path4065_2_" inkscape:connector-curvature="0" sodipodi:nodetypes="ccccc" fill="#FFFFFF" stroke="#5CA046" stroke-width="0.4667" d="
		M283.258,496.049l2.964-3.474l3.638,2.405l-2.959,3.743L283.258,496.049z"/>
	
		<path id="path4067_2_" inkscape:connector-curvature="0" sodipodi:nodetypes="ccccc" fill="#FFFFFF" stroke="#5CA046" stroke-width="0.4667" d="
		M277.673,502.714l2.969-3.475l3.638,2.4l-2.969,3.748L277.673,502.714z"/>
	
		<path id="path4069_2_" inkscape:connector-curvature="0" sodipodi:nodetypes="ccccc" fill="#FFFFFF" stroke="#5CA046" stroke-width="0.4667" d="
		M270.919,509.894l2.969-3.479l3.638,2.405l-2.964,3.743L270.919,509.894z"/>
	
		<path id="path4071_2_" inkscape:connector-curvature="0" sodipodi:nodetypes="ccccc" fill="#FFFFFF" stroke="#5CA046" stroke-width="0.4667" d="
		M265.155,514.726l2.963-3.474l3.644,2.41l-2.97,3.743L265.155,514.726z"/>
	
		<path id="path4073_2_" inkscape:connector-curvature="0" sodipodi:nodetypes="ccccc" fill="#FFFFFF" stroke="#5CA046" stroke-width="0.4667" d="
		M259.738,521.38l2.964-3.475l3.643,2.405l-2.969,3.743L259.738,521.38z"/>
	
		<path id="path4004_2_" inkscape:connector-curvature="0" sodipodi:nodetypes="ccccccc" fill="#FFFFFF" stroke="#66318F" stroke-width="0.6341" stroke-linecap="round" stroke-linejoin="round" d="
		M323.807,438.514c-24.951,39.774-48.55,68.495-74.512,104.843c-3.443,4.237-5.765,10.533-5.027,16.082l-6.022-2.832
		c-0.721-5.933,2.09-12.233,5.596-16.424c28.768-37.074,51.666-66.348,74.839-104.964
		C321.691,434.782,323.36,436.567,323.807,438.514L323.807,438.514z"/>
	
		<path id="path4006_2_" inkscape:connector-curvature="0" sodipodi:nodetypes="ccccc" fill="#FFFFFF" stroke="#5CA046" stroke-width="0.4667" d="
		M224.149,417.537l2.958-3.47l3.644,2.4l-2.964,3.748L224.149,417.537z"/>
	
		<path id="path4008_2_" inkscape:connector-curvature="0" sodipodi:nodetypes="ccccc" fill="#FFFFFF" stroke="#5CA046" stroke-width="0.4667" d="
		M218.905,423.359l2.969-3.479l3.638,2.411l-2.969,3.737L218.905,423.359z"/>
	
		<path id="path4010_2_" inkscape:connector-curvature="0" sodipodi:nodetypes="ccccc" fill="#FFFFFF" stroke="#5CA046" stroke-width="0.4667" d="
		M213.231,429.523l2.964-3.479l3.643,2.406l-2.963,3.748L213.231,429.523z"/>
	
		<path id="path4012_2_" inkscape:connector-curvature="0" sodipodi:nodetypes="ccccc" fill="#FFFFFF" stroke="#5CA046" stroke-width="0.4667" d="
		M207.646,436.114l2.97-3.475l3.637,2.411l-2.964,3.737L207.646,436.114z"/>
	
		<path id="path4014_2_" inkscape:connector-curvature="0" sodipodi:nodetypes="ccccc" fill="#FFFFFF" stroke="#5CA046" stroke-width="0.4667" d="
		M202.318,441.936l2.964-3.475l3.643,2.406l-2.964,3.742L202.318,441.936z"/>
	
		<path id="path4016_2_" inkscape:connector-curvature="0" sodipodi:nodetypes="ccccc" fill="#FFFFFF" stroke="#5CA046" stroke-width="0.4667" d="
		M196.118,448.442l2.963-3.474l3.643,2.405l-2.969,3.743L196.118,448.442z"/>
	
		<path id="path4018_2_" inkscape:connector-curvature="0" sodipodi:nodetypes="ccccc" fill="#FFFFFF" stroke="#5CA046" stroke-width="0.4667" d="
		M189.827,455.006l2.964-3.479l3.643,2.411l-2.969,3.737L189.827,455.006z"/>
	
		<path id="path4020_2_" inkscape:connector-curvature="0" sodipodi:nodetypes="ccccc" fill="#FFFFFF" stroke="#5CA046" stroke-width="0.4667" d="
		M183.447,462.002l2.964-3.475l3.643,2.4l-2.969,3.748L183.447,462.002z"/>
	
		<path id="path4022_2_" inkscape:connector-curvature="0" sodipodi:nodetypes="ccccc" fill="#FFFFFF" stroke="#5CA046" stroke-width="0.4667" d="
		M178.03,468.656l2.964-3.479l3.643,2.405l-2.969,3.748L178.03,468.656z"/>
</g>
</svg>
