<?xml version="1.0" encoding="utf-8"?>
<!-- Generator: Adobe Illustrator 16.0.0, SVG Export Plug-In . SVG Version: 6.00 Build 0)  -->
<!DOCTYPE svg PUBLIC "-//W3C//DTD SVG 1.1//EN" "http://www.w3.org/Graphics/SVG/1.1/DTD/svg11.dtd">
<svg version="1.1" id="Layer_1" xmlns="http://www.w3.org/2000/svg" xmlns:xlink="http://www.w3.org/1999/xlink" x="0px" y="0px"
	 width="256px" height="256px" viewBox="0 0 256 256" enable-background="new 0 0 256 256" xml:space="preserve">
<linearGradient id="SVGID_1_" gradientUnits="userSpaceOnUse" x1="-90.2349" y1="109.7773" x2="-89.2779" y2="109.7773" gradientTransform="matrix(51.3794 -53.205 -53.205 -51.3794 10529.0938 969.6768)">
	<stop  offset="0" style="stop-color:#F8ED39"/>
	<stop  offset="0.006" style="stop-color:#000000"/>
	<stop  offset="0.533" style="stop-color:#B86C43"/>
	<stop  offset="0.8561" style="stop-color:#000000"/>
</linearGradient>
<path fill="url(#SVGID_1_)" d="M83.458,79.442c-3.953,17.795-13.514,45.892-34.598,47.094c0,0,2.056,0.766,5.761,0.766
	c7.786,0,22.861-3.376,41.497-24.338c0.627-1.032,1.216-2.027,1.764-2.97c-5.697-5.796-10.233-12.733-13.232-20.435
	C84.25,79.556,83.852,79.516,83.458,79.442"/>
<linearGradient id="SVGID_2_" gradientUnits="userSpaceOnUse" x1="-91.4229" y1="108.8213" x2="-90.4145" y2="108.8213" gradientTransform="matrix(38.044 -39.3957 -39.3957 -38.044 7838.9502 674.9902)">
	<stop  offset="0" style="stop-color:#F8ED39"/>
	<stop  offset="0.006" style="stop-color:#000000"/>
	<stop  offset="0.3676" style="stop-color:#8E654C"/>
	<stop  offset="0.9226" style="stop-color:#6E594B"/>
	<stop  offset="1" style="stop-color:#000000"/>
</linearGradient>
<path fill="url(#SVGID_2_)" d="M94.642,101.76c-0.547,0.943-1.137,1.938-1.764,2.969c-5.906,9.725-15.129,22.739-24.223,26.81
	c0,0,24.263-0.219,40.89-18.665C104.012,109.944,98.989,106.186,94.642,101.76"/>
<linearGradient id="SVGID_3_" gradientUnits="userSpaceOnUse" x1="-89.9033" y1="109.3359" x2="-89.2027" y2="109.3359" gradientTransform="matrix(-51.3794 -53.205 53.205 -51.3794 -10227.4805 969.4893)">
	<stop  offset="0" style="stop-color:#F8ED39"/>
	<stop  offset="0.006" style="stop-color:#000000"/>
	<stop  offset="0.5704" style="stop-color:#C26D3F"/>
	<stop  offset="0.8388" style="stop-color:#AC6B47"/>
	<stop  offset="1" style="stop-color:#000000"/>
</linearGradient>
<path fill="url(#SVGID_3_)" d="M185.341,98.844c-0.376,0.054-0.754,0.081-1.137,0.084c-2.641,4.766-6.633,9.059-11.645,12.649
	c0.493,0.598,1.025,1.229,1.59,1.883c16.479,13.018,29.812,15.113,36.694,15.113c3.278,0,5.095-0.475,5.095-0.475
	C197.288,127.352,188.835,109.894,185.341,98.844"/>
<g>
	<defs>
		<polyline id="SVGID_4_" points="9.71,108.589 248.33,108.589 248.33,256 9.71,256 9.71,108.589 		"/>
	</defs>
	<clipPath id="SVGID_5_">
		<use xlink:href="#SVGID_4_"  overflow="visible"/>
	</clipPath>
</g>
<g>
	<defs>
		<polyline id="SVGID_6_" points="60.458,14.139 198.661,14.139 198.661,139.483 60.458,139.483 60.458,14.139 		"/>
	</defs>
	<clipPath id="SVGID_7_">
		<use xlink:href="#SVGID_6_"  overflow="visible"/>
	</clipPath>
</g>
<radialGradient id="SVGID_8_" cx="127.1299" cy="197.002" r="80.1632" gradientTransform="matrix(1.1941 0 0 0.7651 -23.1929 25.6413)" gradientUnits="userSpaceOnUse">
	<stop  offset="0.1284" style="stop-color:#F9A779"/>
	<stop  offset="0.6455" style="stop-color:#F48042"/>
	<stop  offset="0.8557" style="stop-color:#F16624"/>
</radialGradient>
<path fill="url(#SVGID_8_)" d="M221.776,155.209c-2.929-1.687-8.126-3.465-14.514-5.301c-7.779-2.205-5.878-1.755-15.817-4.337
	c-2.102-0.527-4.188-1.056-6.244-1.585c-19.193-4.867-27.412-9.792-30.615-14.264c-0.019-0.017-0.037-0.033-0.057-0.049
	c-7.825,2.988-16.619,4.666-25.918,4.666c-9.296,0-18.091-1.678-25.916-4.666c-0.019,0.017-0.037,0.032-0.056,0.049
	c-3.203,4.472-11.421,9.396-30.614,14.264c-2.055,0.529-4.14,1.057-6.24,1.583c-10.627,2.358-7.638,1.683-15.827,3.666
	c-6.385,1.834-11.584,3.611-14.505,5.298c-1.083,0.545-20.924,16.203-20.924,23.619c0,22.938,44.773,44.909,114.083,44.909
	c69.311,0,114.084-21.296,114.084-44.234C242.696,171.413,222.858,155.753,221.776,155.209z"/>
<linearGradient id="SVGID_9_" gradientUnits="userSpaceOnUse" x1="-89.4312" y1="112.9414" x2="-88.5835" y2="112.9414" gradientTransform="matrix(0 -129.437 -129.437 0 14747.959 -11328.3164)">
	<stop  offset="0.0685" style="stop-color:#662F90"/>
	<stop  offset="0.8535" style="stop-color:#BCA9D1"/>
</linearGradient>
<path fill="url(#SVGID_9_)" d="M246.115,180.795c0-7.386-20.322-22.987-21.432-23.529c-2.995-1.682-8.324-3.452-14.864-5.28
	c-7.973-2.197-6.023-1.749-16.205-4.321c-2.151-0.525-4.289-1.052-6.396-1.579c-13.414-3.309-15.361-4.624-22.424-7.062
	c9.947,3.433,3.006,20.492-35.303,22.631h-0.147c-36.823,0.889-40.51-16.972-33.938-23.878c-6.178,2.859-10.547,4.961-24.123,8.309
	c-2.104,0.527-4.241,1.054-6.392,1.577c-10.885,2.349-7.823,1.677-16.212,3.651c-6.542,1.828-11.867,3.598-14.86,5.279
	c-1.109,0.542-21.433,16.142-21.433,23.529c0,22.851,44.063,67.35,115.062,67.35C198.45,247.472,246.115,203.646,246.115,180.795z"
	/>
<radialGradient id="SVGID_10_" cx="125.6069" cy="82.9307" r="45.2125" gradientTransform="matrix(-5.346777e-08 -1.0773 0.9786 -3.767222e-08 48.0986 215.3289)" gradientUnits="userSpaceOnUse">
	<stop  offset="0.1898" style="stop-color:#FCCAAA"/>
	<stop  offset="0.8364" style="stop-color:#F8A474"/>
</radialGradient>
<radialGradient id="SVGID_11_" cx="129.252" cy="72.4434" r="66.309" gradientUnits="userSpaceOnUse">
	<stop  offset="0.0138" style="stop-color:#FFFFFF"/>
	<stop  offset="0.3597" style="stop-color:#F69561"/>
</radialGradient>
<path fill="url(#SVGID_10_)" stroke="url(#SVGID_11_)" stroke-miterlimit="10" d="M189.801,71.055
	c-0.689-35.308-27.524-63.707-60.55-63.707c-33.025,0-59.86,28.399-60.551,63.707c-3.608,0.99-5.968,5.303-5.962,10.546
	c0.001,0.999,0.087,2.033,0.269,3.084c1.109,6.458,5.364,11.276,9.766,11.312c8.786,24.306,30.752,41.543,56.479,41.543
	s47.692-17.237,56.479-41.543c4.401-0.035,8.656-4.851,9.768-11.312c0.18-1.051,0.27-2.085,0.27-3.084
	C195.771,76.357,193.411,72.045,189.801,71.055z"/>
<linearGradient id="SVGID_12_" gradientUnits="userSpaceOnUse" x1="-95.0166" y1="113.2549" x2="-94.2222" y2="113.2549" gradientTransform="matrix(0 -40.75 -40.75 0 4746.2812 -3705.771)">
	<stop  offset="0.2694" style="stop-color:#9478B0"/>
	<stop  offset="0.4831" style="stop-color:#662F90"/>
	<stop  offset="0.8191" style="stop-color:#9F8DB2"/>
</linearGradient>
<path fill="url(#SVGID_12_)" stroke="#662F90" stroke-miterlimit="10" d="M171.545,140.398l-6.562-2.812
	c0,10.815-15.191,20.864-33.776,20.864c-18.586,0-33.654-8.77-33.654-19.585c0-1.762,0.408-3.467,1.159-5.09
	c-1.892,1.3-4.193,2.617-6.959,3.942c-0.685,1.688-1.049,3.444-1.049,5.251c0,12.793,18.133,23.161,40.503,23.161
	C153.575,166.13,172.17,148.586,171.545,140.398z"/>
<linearGradient id="SVGID_13_" gradientUnits="userSpaceOnUse" x1="-88.6636" y1="111.3125" x2="-87.7295" y2="111.3125" gradientTransform="matrix(104.2385 -107.9422 -107.9422 -104.2385 21289.9434 2141.7812)">
	<stop  offset="0" style="stop-color:#000000"/>
	<stop  offset="0.7329" style="stop-color:#9E694A"/>
	<stop  offset="1" style="stop-color:#000000"/>
</linearGradient>
<path fill="url(#SVGID_13_)" d="M129.253,7.014v13.823c0,0,1.621,18.885-14.463,20.602c-16.085,1.718-16.085,1.718-16.085,1.718
	S63.39,45.731,73.529,88.65c5.595,29.757-34.617,26.038-34.617,26.038s23.777-4.864,23.428-31.761
	C61.991,56.032,66.089,6.064,129.253,7.014z"/>
<linearGradient id="SVGID_14_" gradientUnits="userSpaceOnUse" x1="-88.4604" y1="111.127" x2="-87.5303" y2="111.127" gradientTransform="matrix(-104.2381 -107.9417 107.9417 -104.2381 -20989.166 2141.4434)">
	<stop  offset="0" style="stop-color:#000000"/>
	<stop  offset="0.267" style="stop-color:#785D4C"/>
	<stop  offset="0.8171" style="stop-color:#B36C44"/>
	<stop  offset="1" style="stop-color:#000000"/>
</linearGradient>
<path fill="url(#SVGID_14_)" d="M129.168,7.075v13.349c0,0-1.676,18.235,14.935,19.892c16.612,1.658,16.612,1.658,16.612,1.658
	s36.471,2.487,25.998,43.93c-5.775,28.733,35.753,25.143,35.753,25.143s-24.556-4.697-24.196-30.668
	C198.631,54.406,194.398,6.159,129.168,7.075z"/>
</svg>
