<?xml version="1.0" encoding="utf-8"?>
<!-- Generator: Adobe Illustrator 16.0.0, SVG Export Plug-In . SVG Version: 6.00 Build 0)  -->
<!DOCTYPE svg PUBLIC "-//W3C//DTD SVG 1.1//EN" "http://www.w3.org/Graphics/SVG/1.1/DTD/svg11.dtd">
<svg version="1.1" id="Layer_1" xmlns="http://www.w3.org/2000/svg" xmlns:xlink="http://www.w3.org/1999/xlink" x="0px" y="0px"
	 width="256px" height="256px" viewBox="0 0 256 256" enable-background="new 0 0 256 256" xml:space="preserve">
<g>
	
		<linearGradient id="SVGID_1_" gradientUnits="userSpaceOnUse" x1="97.8789" y1="45.7031" x2="229.1397" y2="92.8063" gradientTransform="matrix(1.0251 -0.169 0.2433 1.1582 -32.7572 17.6034)">
		<stop  offset="0" style="stop-color:#231F20"/>
		<stop  offset="0.0342" style="stop-color:#322835"/>
		<stop  offset="0.0854" style="stop-color:#43304F"/>
		<stop  offset="0.1368" style="stop-color:#513266"/>
		<stop  offset="0.1876" style="stop-color:#5B3277"/>
		<stop  offset="0.2374" style="stop-color:#613084"/>
		<stop  offset="0.2858" style="stop-color:#652F8C"/>
		<stop  offset="0.3315" style="stop-color:#662F90"/>
		<stop  offset="1" style="stop-color:#231F20"/>
	</linearGradient>
	<path fill="url(#SVGID_1_)" d="M71.505,112.657c0,0-0.222-1.346,0.213-3.335c0.43-1.985,3.605-13.515,4.948-29.88
		c1.342-16.354,6.855-26.091,9.641-30.157c2.784-4.059,6.113-9.545,7.25-11.785c1.136-2.242,7.844-7.731,11.241-10.589
		c3.396-2.861,21.626-16.187,37.79-15.135c16.169,1.056,23.838,1.175,26.26,1.977c2.423,0.8,6.119,0.374,12.36,6.204
		c6.238,5.828,13.662,6.491,22.838,13.083c9.179,6.592,23.952,16.5,29.163,34.908c5.213,18.412,5.973,30.043,8.506,39.96
		c2.535,9.919,5.266,26.634,0.106,27.434c-5.166,0.807-7.986-3.664-16.48-2.874c-8.49,0.789-18.113,2.503-23.043-0.088
		c0,0-18.782-3.364-23.595-4.516c-4.808-1.157-36.319-8.812-39.991-9.769c-3.672-0.955-19.438-5.923-36.26-7.911
		C85.631,108.196,75.247,109.876,71.505,112.657z"/>
	
		<linearGradient id="SVGID_2_" gradientUnits="userSpaceOnUse" x1="74.6592" y1="54.0654" x2="123.6454" y2="177.1593" gradientTransform="matrix(1.0251 -0.169 0.2433 1.1582 -32.7572 17.6034)">
		<stop  offset="0" style="stop-color:#231F20"/>
		<stop  offset="0.0342" style="stop-color:#322835"/>
		<stop  offset="0.0854" style="stop-color:#43304F"/>
		<stop  offset="0.1368" style="stop-color:#513266"/>
		<stop  offset="0.1876" style="stop-color:#5B3277"/>
		<stop  offset="0.2374" style="stop-color:#613084"/>
		<stop  offset="0.2858" style="stop-color:#652F8C"/>
		<stop  offset="0.3315" style="stop-color:#662F90"/>
		<stop  offset="1" style="stop-color:#231F20"/>
	</linearGradient>
	<path fill="url(#SVGID_2_)" d="M207.695,132.948c0,0-17.077-2.434-23.266-3.855c-6.19-1.415-43.843-10.352-52.191-12.821
		c-8.343-2.467-46.638-12.19-60.574-3.672c-13.94,8.52-44.8,26.627-51.083,30.333c-6.284,3.705-16.736,9.122-15.385,21.655
		c1.352,12.529,11.373,15.211,17.015,15.605c5.642,0.398,12.833-2.516,16.107-4.011c3.151-1.437,14.123-7.599,20.105-12.563
		l0.036,0.024l0.46-0.442c0.058-0.052,0.115-0.104,0.177-0.15l-0.014-0.005l0.304-0.29l-1.196-0.652
		c-0.059,0.06-0.199,0.185-0.355,0.319l-0.036-0.021c0,0-17.028,13.707-30.259,15.858c-13.233,2.155-17.513-5.248-18.008-9.547
		c-0.497-4.299,1.924-17.182,15.238-18.146c13.31-0.956,41.865,16.158,45.351,17.947c3.489,1.79,30.347,19.116,42.193,21.945
		c11.847,2.824,26.706,2.723,42.085-6.722c15.374-9.443,46.483-43.519,47.565-44.931
		C203.055,137.398,208.49,133.674,207.695,132.948z"/>
	<path opacity="0.48" fill="#231F20" d="M9.661,174.211c0,0-4.606-6.112-2.744-15.638c1.864-9.529,12.174-16.322,28.398-11.219
		c16.214,5.11,44.109,21.857,49.821,25.13c5.709,3.271,27.304,16.955,41.563,16.672c14.267-0.282,22.933-2.053,33.953-10.939
		c11.01-8.879,25.742-22.922,25.742-22.922s-23.744,25.86-40.551,32.722c-16.804,6.854-32.149,3.41-38.089,0.993
		c-5.936-2.429-17.322-8.523-20.204-10.229c-2.878-1.705-18.275-10.768-19.891-11.559c-1.618-0.789-18.882-10.249-25.058-12.588
		c-6.164-2.34-16.919-6.684-25.502-1.736c-8.589,4.938-7.617,16.04-7.396,17.027c0.225,0.985,1.645,6.729,9.859,8.483
		c0,0,5.891,0.456,8.459-0.174C28.022,178.234,15.97,181.695,9.661,174.211z"/>
	<path fill="#231F20" d="M58.298,162.32c0,0-10.521,7.174-13.431,8.943c-2.906,1.768-13.391,6.587-16.634,6.951
		c-3.239,0.357-10.99,1.744-16.078-3.737c-5.093-5.479-1.811-13.791,0.898-17.823c2.705-4.037,10.708-8.364,21.022-4.886
		C44.388,155.259,49.897,157.737,58.298,162.32z"/>
	<path opacity="0.4" fill="#F16624" d="M173.472,15.129c0,0,8.665,5.557,12.009,19.916c3.348,14.354,6.567,37.911,5.747,47.371
		c-0.832,9.457-1.499,42.824-4.707,47.193l0.638-0.078c0,0,2.496-5.951,3.702-30.503c1.21-24.554,1.329-26.425-0.102-36.595
		c-1.424-10.167-3.25-24.005-6.331-32.502C181.345,21.431,176.515,16.923,173.472,15.129z"/>
	<path opacity="0.4" fill="#F16624" d="M113.243,21.097c0,0-9.679,19.536-11.929,32.414c-2.244,12.874-9.466,39.916-11.218,43.143
		c-1.76,3.231-2.447,12.337-2.447,12.337l-0.519,0.035c0,0,0.639-7.405,1.463-9.534c0.822-2.131,8.065-23.991,10.538-37.71
		C101.601,48.065,104.45,37.567,113.243,21.097z"/>
	<path opacity="0.16" fill="#F16624" d="M202.297,132.38l-15.139-2.849c0,0,1.341-4.868,1.688-7.33
		c0.348-2.467,3.108-31.048,2.885-43.892c-0.225-12.84-1.168-17.892-3.276-31.778c-2.113-13.888-5.886-25.749-15.232-31.719
		c0,0,3.868,1.14,8.894,5.935c5.021,4.796,11.228,5.287,19.183,10.34c7.952,5.053,15.047,14.59,16.028,16.06
		c0.975,1.483,7.536,11.01,9.975,17.252c2.442,6.233,3.425,9.438,4.34,12.671c0.899,3.232,5.264,17.217,9.38,28.344
		c0,0,2.163,8.886,2.619,11.363c0.455,2.478,1.179,8.628,1.106,11.605c-0.077,2.976-0.438,7.587-4.463,7.015
		c-4.022-0.579-5.233-1.466-7.521-2.162c-2.295-0.692-6.666-1.247-11.154-0.427C217.112,133.621,205.456,134.492,202.297,132.38z"/>
	<path opacity="0.39" fill="#F16624" d="M241.587,107.191c0,0-8.205-22.974-10.586-32.486c-2.39-9.519-11.61-29.066-26.571-41.348
		c0,0,19.865,12.943,26.037,27.041C236.642,74.488,239.629,101.793,241.587,107.191z"/>
	
		<linearGradient id="SVGID_3_" gradientUnits="userSpaceOnUse" x1="170.3955" y1="20.7793" x2="182.291" y2="20.7793" gradientTransform="matrix(1.0251 -0.169 0.2433 1.1582 -32.7572 17.6034)">
		<stop  offset="0" style="stop-color:#231F20"/>
		<stop  offset="0.0342" style="stop-color:#322835"/>
		<stop  offset="0.0854" style="stop-color:#43304F"/>
		<stop  offset="0.1368" style="stop-color:#513266"/>
		<stop  offset="0.1876" style="stop-color:#5B3277"/>
		<stop  offset="0.2374" style="stop-color:#613084"/>
		<stop  offset="0.2858" style="stop-color:#652F8C"/>
		<stop  offset="0.3315" style="stop-color:#662F90"/>
		<stop  offset="1" style="stop-color:#231F20"/>
	</linearGradient>
	<path fill="url(#SVGID_3_)" d="M147.003,12.214c0,0-1.027-1.002,0.832-1.371c1.866-0.373,8.776-1.503,11.716,1.858
		C159.55,12.701,153.291,12.681,147.003,12.214z"/>
	<path opacity="0.26" fill="#F16624" d="M71.336,112.681c0,0,6.418-6.198,34.697-1.448c28.251,4.746,62.727,15.02,73.74,17.089
		c11.01,2.067,25.472,4.744,28.831,5.547c0,0-27.096-4.81-32.145-5.858c-5.047-1.056-50.29-12.326-59.687-14.188
		C107.374,111.963,83.167,107.149,71.336,112.681z"/>
</g>
<g>
	<path opacity="0.06" fill="#F5F5F5" d="M248.922,219.63c0-9.118-48.557-16.511-108.452-16.511
		c-59.902,0-108.456,7.393-108.456,16.511c0,9.116,48.554,16.508,108.456,16.508C200.365,236.138,248.922,228.746,248.922,219.63z"
		/>
	<path opacity="0.0913" fill="#F4F4F4" d="M246.128,219.665c0,8.919-47.278,16.149-105.597,16.149
		c-58.326,0-105.602-7.23-105.602-16.149c0-8.921,47.275-16.153,105.602-16.153C198.85,203.512,246.128,210.744,246.128,219.665z"/>
	<path opacity="0.1227" fill="#F3F3F3" d="M243.335,219.698c0,8.722-46.002,15.793-102.744,15.793
		c-56.749,0-102.747-7.071-102.747-15.793c0-8.723,45.998-15.794,102.747-15.794C197.333,203.904,243.335,210.976,243.335,219.698z"
		/>
	<path opacity="0.154" fill="#F2F2F2" d="M240.541,219.733c0,8.523-44.723,15.436-99.889,15.436
		c-55.173,0-99.893-6.912-99.893-15.436c0-8.525,44.72-15.437,99.893-15.437C195.818,204.297,240.541,211.208,240.541,219.733z"/>
	<path opacity="0.1853" fill="#F1F1F1" d="M237.748,219.769c0,8.326-43.445,15.077-97.035,15.077
		c-53.596,0-97.039-6.751-97.039-15.077c0-8.328,43.442-15.079,97.039-15.079C194.303,204.689,237.748,211.44,237.748,219.769z"/>
	<path opacity="0.2167" fill="#F0F0F0" d="M234.954,219.803c0,8.129-42.167,14.72-94.181,14.72c-52.02,0-94.184-6.591-94.184-14.72
		c0-8.13,42.165-14.721,94.184-14.721C192.787,205.082,234.954,211.673,234.954,219.803z"/>
	<path opacity="0.248" fill="#EFEFEF" d="M232.16,219.837c0,7.932-40.89,14.362-91.326,14.362c-50.443,0-91.33-6.431-91.33-14.362
		c0-7.933,40.887-14.363,91.33-14.363C191.271,205.474,232.16,211.904,232.16,219.837z"/>
	<path opacity="0.2793" fill="#EEEEEE" d="M229.367,219.872c0,7.733-39.611,14.004-88.473,14.004
		c-48.866,0-88.475-6.271-88.475-14.004c0-7.735,39.608-14.006,88.475-14.006C189.756,205.866,229.367,212.137,229.367,219.872z"/>
	<path opacity="0.3107" fill="#EDEDED" d="M226.574,219.906c0,7.537-38.334,13.647-85.618,13.647
		c-47.29,0-85.621-6.11-85.621-13.647s38.331-13.647,85.621-13.647C188.24,206.259,226.574,212.369,226.574,219.906z"/>
	<path opacity="0.342" fill="#ECECEC" d="M223.78,219.941c0,7.339-37.056,13.289-82.764,13.289c-45.714,0-82.766-5.95-82.766-13.289
		c0-7.34,37.052-13.29,82.766-13.29C186.725,206.651,223.78,212.602,223.78,219.941z"/>
	<path opacity="0.3733" fill="#EBEBEC" d="M220.986,219.975c0,7.143-35.778,12.933-79.909,12.933
		c-44.138,0-79.913-5.79-79.913-12.933c0-7.141,35.775-12.932,79.913-12.932C185.208,207.043,220.986,212.834,220.986,219.975z"/>
	<path opacity="0.4047" fill="#EAEAEB" d="M218.193,220.01c0,6.944-34.501,12.574-77.055,12.574
		c-42.561,0-77.058-5.63-77.058-12.574s34.497-12.573,77.058-12.573C183.692,207.437,218.193,213.065,218.193,220.01z"/>
	<path opacity="0.436" fill="#E9E9EA" d="M215.399,220.045c0,6.746-33.222,12.217-74.201,12.217
		c-40.984,0-74.204-5.471-74.204-12.217s33.219-12.216,74.204-12.216C182.178,207.829,215.399,213.299,215.399,220.045z"/>
	<path opacity="0.4673" fill="#E8E8E9" d="M212.605,220.079c0,6.549-31.944,11.859-71.346,11.859
		c-39.408,0-71.35-5.311-71.35-11.859s31.941-11.858,71.35-11.858C180.661,208.221,212.605,213.53,212.605,220.079z"/>
	<path opacity="0.4987" fill="#E7E7E8" d="M209.812,220.113c0,6.352-30.667,11.502-68.493,11.502
		c-37.831,0-68.494-5.15-68.494-11.502s30.663-11.5,68.494-11.5C179.146,208.613,209.812,213.762,209.812,220.113z"/>
	<path opacity="0.53" fill="#E6E6E7" d="M207.02,220.148c0,6.154-29.39,11.144-65.639,11.144c-36.255,0-65.64-4.989-65.64-11.144
		s29.385-11.143,65.64-11.143C177.63,209.006,207.02,213.994,207.02,220.148z"/>
	<path opacity="0.5613" fill="#E5E6E6" d="M204.226,220.183c0,5.957-28.111,10.786-62.784,10.786
		c-34.678,0-62.785-4.829-62.785-10.786c0-5.956,28.107-10.784,62.785-10.784C176.114,209.398,204.226,214.227,204.226,220.183z"/>
	<path opacity="0.5927" fill="#E4E5E5" d="M201.432,220.217c0,5.76-26.833,10.429-59.929,10.429
		c-33.102,0-59.932-4.669-59.932-10.429c0-5.758,26.83-10.426,59.932-10.426C174.599,209.791,201.432,214.459,201.432,220.217z"/>
	<path opacity="0.624" fill="#E3E4E4" d="M198.639,220.252c0,5.562-25.557,10.071-57.076,10.071
		c-31.525,0-57.077-4.51-57.077-10.071c0-5.561,25.551-10.068,57.077-10.068C173.082,210.184,198.639,214.691,198.639,220.252z"/>
	<path opacity="0.6553" fill="#E2E3E4" d="M195.845,220.286c0,5.364-24.277,9.714-54.221,9.714c-29.949,0-54.223-4.35-54.223-9.714
		c0-5.362,24.274-9.71,54.223-9.71C171.567,210.576,195.845,214.924,195.845,220.286z"/>
	<ellipse opacity="0.6867" fill="#E2E2E3" cx="141.684" cy="220.32" rx="51.368" ry="9.356"/>
	<path opacity="0.718" fill="#E1E1E2" d="M190.258,220.355c0,4.969-21.722,8.998-48.513,8.998c-26.796,0-48.514-4.029-48.514-8.998
		c0-4.968,21.718-8.994,48.514-8.994C168.536,211.361,190.258,215.388,190.258,220.355z"/>
	<path opacity="0.7493" fill="#E0E0E1" d="M187.465,220.39c0,4.772-20.445,8.641-45.659,8.641c-25.219,0-45.659-3.868-45.659-8.641
		c0-4.771,20.44-8.637,45.659-8.637C167.02,211.753,187.465,215.619,187.465,220.39z"/>
	<path opacity="0.7807" fill="#DFDFE0" d="M184.671,220.424c0,4.575-19.167,8.284-42.804,8.284c-23.643,0-42.805-3.709-42.805-8.284
		c0-4.571,19.162-8.278,42.805-8.278C165.504,212.146,184.671,215.853,184.671,220.424z"/>
	<path opacity="0.812" fill="#DEDFDF" d="M181.877,220.459c0,4.377-17.889,7.926-39.949,7.926c-22.066,0-39.951-3.549-39.951-7.926
		c0-4.375,17.884-7.921,39.951-7.921C163.988,212.538,181.877,216.084,181.877,220.459z"/>
	<path opacity="0.8433" fill="#DDDEDF" d="M179.084,220.493c0,4.18-16.611,7.568-37.096,7.568c-20.49,0-37.096-3.389-37.096-7.568
		c0-4.177,16.606-7.563,37.096-7.563C162.473,212.93,179.084,216.316,179.084,220.493z"/>
	<path opacity="0.8747" fill="#DCDDDE" d="M176.29,220.528c0,3.981-15.333,7.21-34.241,7.21c-18.914,0-34.242-3.229-34.242-7.21
		c0-3.979,15.328-7.206,34.242-7.206C160.957,213.322,176.29,216.549,176.29,220.528z"/>
	<path opacity="0.906" fill="#DBDCDD" d="M173.497,220.562c0,3.785-14.055,6.854-31.387,6.854c-17.337,0-31.388-3.068-31.388-6.854
		c0-3.781,14.051-6.848,31.388-6.848C159.442,213.715,173.497,216.781,173.497,220.562z"/>
	<path opacity="0.9373" fill="#DADBDC" d="M170.703,220.597c0,3.587-12.777,6.496-28.533,6.496c-15.76,0-28.533-2.909-28.533-6.496
		c0-3.583,12.772-6.489,28.533-6.489C157.926,214.107,170.703,217.014,170.703,220.597z"/>
	<path opacity="0.9687" fill="#D9DADB" d="M167.91,220.632c0,3.39-11.5,6.138-25.679,6.138c-14.184,0-25.679-2.748-25.679-6.138
		c0-3.387,11.495-6.132,25.679-6.132C156.41,214.5,167.91,217.245,167.91,220.632z"/>
	<path fill="#D8D9DA" d="M165.116,220.666c0,3.192-10.222,5.78-22.824,5.78c-12.607,0-22.824-2.588-22.824-5.78
		c0-3.188,10.217-5.773,22.824-5.773C154.895,214.893,165.116,217.478,165.116,220.666z"/>
</g>
</svg>
