<?xml version="1.0" encoding="utf-8"?>
<!-- Generator: Adobe Illustrator 16.0.0, SVG Export Plug-In . SVG Version: 6.00 Build 0)  -->
<!DOCTYPE svg PUBLIC "-//W3C//DTD SVG 1.1//EN" "http://www.w3.org/Graphics/SVG/1.1/DTD/svg11.dtd">
<svg version="1.1" id="Layer_1" xmlns="http://www.w3.org/2000/svg" xmlns:xlink="http://www.w3.org/1999/xlink" x="0px" y="0px"
	 width="256px" height="256px" viewBox="0 0 256 256" enable-background="new 0 0 256 256" xml:space="preserve">
<g>
	
		<linearGradient id="SVGID_1_" gradientUnits="userSpaceOnUse" x1="547.6406" y1="65.1396" x2="547.6406" y2="199.2001" gradientTransform="matrix(1 0 0 1 -412.4121 0)">
		<stop  offset="0" style="stop-color:#F16624"/>
		<stop  offset="1" style="stop-color:#662F90"/>
	</linearGradient>
	<polygon fill="url(#SVGID_1_)" points="52.709,59.511 52.709,204.487 217.748,204.487 201.174,111.289 89.639,99.736 
		67.781,59.511 	"/>
	
		<linearGradient id="SVGID_2_" gradientUnits="userSpaceOnUse" x1="539.543" y1="65.9307" x2="539.543" y2="199.9929" gradientTransform="matrix(1 0 0 1 -412.4121 0)">
		<stop  offset="0" style="stop-color:#A9A8A8"/>
		<stop  offset="1" style="stop-color:#383938"/>
	</linearGradient>
	<path fill="url(#SVGID_2_)" d="M200.779,112.085L92.276,100.783l0.722,2.128l108.153,11.265L200.779,112.085z M53.11,60.302V205.28
		h3.16V62.686h12.638l-0.81-2.384H53.11z"/>
	<g>
		
			<linearGradient id="SVGID_3_" gradientUnits="userSpaceOnUse" x1="117.1226" y1="150.9648" x2="117.1226" y2="128.9208" gradientTransform="matrix(-1 0 0 1 265.4297 0)">
			<stop  offset="0" style="stop-color:#ABABAB"/>
			<stop  offset="0.0072" style="stop-color:#A8A8A8"/>
			<stop  offset="0.0669" style="stop-color:#939393"/>
			<stop  offset="0.1255" style="stop-color:#868686"/>
			<stop  offset="0.1813" style="stop-color:#828282"/>
			<stop  offset="1" style="stop-color:#DBDBDB"/>
		</linearGradient>
		<rect x="127.226" y="128.226" fill="url(#SVGID_3_)" width="42.164" height="21.448"/>
		
			<linearGradient id="SVGID_4_" gradientUnits="userSpaceOnUse" x1="165.7803" y1="150.9648" x2="165.7803" y2="128.9208" gradientTransform="matrix(-1 0 0 1 265.4297 0)">
			<stop  offset="0" style="stop-color:#ABABAB"/>
			<stop  offset="0.0072" style="stop-color:#A8A8A8"/>
			<stop  offset="0.0669" style="stop-color:#939393"/>
			<stop  offset="0.1255" style="stop-color:#868686"/>
			<stop  offset="0.1813" style="stop-color:#828282"/>
			<stop  offset="1" style="stop-color:#DBDBDB"/>
		</linearGradient>
		<rect x="80.716" y="128.226" fill="url(#SVGID_4_)" width="37.866" height="21.448"/>
		
			<linearGradient id="SVGID_5_" gradientUnits="userSpaceOnUse" x1="165.9951" y1="186.7119" x2="165.9951" y2="164.6678" gradientTransform="matrix(-1 0 0 1 265.4297 0)">
			<stop  offset="0" style="stop-color:#ABABAB"/>
			<stop  offset="0.0072" style="stop-color:#A8A8A8"/>
			<stop  offset="0.0669" style="stop-color:#939393"/>
			<stop  offset="0.1255" style="stop-color:#868686"/>
			<stop  offset="0.1813" style="stop-color:#828282"/>
			<stop  offset="1" style="stop-color:#DBDBDB"/>
		</linearGradient>
		<rect x="80.716" y="163.973" fill="url(#SVGID_5_)" width="37.436" height="21.448"/>
	</g>
	
		<linearGradient id="SVGID_6_" gradientUnits="userSpaceOnUse" x1="94.0342" y1="71.4258" x2="94.0342" y2="227.5229" gradientTransform="matrix(-1 0 0 1 265.4297 0)">
		<stop  offset="0" style="stop-color:#F16624"/>
		<stop  offset="1" style="stop-color:#662F90"/>
	</linearGradient>
	<polygon fill="url(#SVGID_6_)" points="245.751,64.873 245.751,233.681 97.04,233.681 97.287,140.482 230.292,140.296 
		230.68,64.873 	"/>
	
		<linearGradient id="SVGID_7_" gradientUnits="userSpaceOnUse" x1="108.9741" y1="63.3867" x2="108.9741" y2="219.2183" gradientTransform="matrix(-1.2231 -0.0982 -0.08 0.9968 319.1115 14.5585)">
		<stop  offset="0" style="stop-color:#A9A8A8"/>
		<stop  offset="1" style="stop-color:#383938"/>
	</linearGradient>
	<path fill="url(#SVGID_7_)" d="M96.92,139.297l133.181-0.608l1.053,2.247L97.54,141.547L96.92,139.297z M230.362,65.665
		l-0.81,2.383h12.64v166.427h3.161V65.665H230.362z"/>
	
		<linearGradient id="SVGID_8_" gradientUnits="userSpaceOnUse" x1="71.1177" y1="179.5645" x2="71.1177" y2="157.5194" gradientTransform="matrix(-1 0 0 1 265.4297 0)">
		<stop  offset="0" style="stop-color:#ABABAB"/>
		<stop  offset="0.0072" style="stop-color:#A8A8A8"/>
		<stop  offset="0.0669" style="stop-color:#939393"/>
		<stop  offset="0.1255" style="stop-color:#868686"/>
		<stop  offset="0.1813" style="stop-color:#828282"/>
		<stop  offset="1" style="stop-color:#DBDBDB"/>
	</linearGradient>
	<rect x="186.766" y="156.823" fill="url(#SVGID_8_)" width="15.094" height="21.449"/>
	
		<linearGradient id="SVGID_9_" gradientUnits="userSpaceOnUse" x1="95.645" y1="179.5645" x2="95.645" y2="157.5194" gradientTransform="matrix(-1 0 0 1 265.4297 0)">
		<stop  offset="0" style="stop-color:#ABABAB"/>
		<stop  offset="0.0072" style="stop-color:#A8A8A8"/>
		<stop  offset="0.0669" style="stop-color:#939393"/>
		<stop  offset="0.1255" style="stop-color:#868686"/>
		<stop  offset="0.1813" style="stop-color:#828282"/>
		<stop  offset="1" style="stop-color:#DBDBDB"/>
	</linearGradient>
	<rect x="162.238" y="156.823" fill="url(#SVGID_9_)" width="15.094" height="21.449"/>
	
		<linearGradient id="SVGID_10_" gradientUnits="userSpaceOnUse" x1="120.1704" y1="179.5645" x2="120.1704" y2="157.5194" gradientTransform="matrix(-1 0 0 1 265.4297 0)">
		<stop  offset="0" style="stop-color:#ABABAB"/>
		<stop  offset="0.0072" style="stop-color:#A8A8A8"/>
		<stop  offset="0.0669" style="stop-color:#939393"/>
		<stop  offset="0.1255" style="stop-color:#868686"/>
		<stop  offset="0.1813" style="stop-color:#828282"/>
		<stop  offset="1" style="stop-color:#DBDBDB"/>
	</linearGradient>
	<rect x="137.712" y="156.823" fill="url(#SVGID_10_)" width="15.095" height="21.449"/>
	
		<linearGradient id="SVGID_11_" gradientUnits="userSpaceOnUse" x1="144.6978" y1="179.5645" x2="144.6978" y2="157.5194" gradientTransform="matrix(-1 0 0 1 265.4297 0)">
		<stop  offset="0" style="stop-color:#ABABAB"/>
		<stop  offset="0.0072" style="stop-color:#A8A8A8"/>
		<stop  offset="0.0669" style="stop-color:#939393"/>
		<stop  offset="0.1255" style="stop-color:#868686"/>
		<stop  offset="0.1813" style="stop-color:#828282"/>
		<stop  offset="1" style="stop-color:#DBDBDB"/>
	</linearGradient>
	<rect x="113.185" y="156.823" fill="url(#SVGID_11_)" width="15.095" height="21.449"/>
	
		<linearGradient id="SVGID_12_" gradientUnits="userSpaceOnUse" x1="71.1177" y1="215.3105" x2="71.1177" y2="193.2665" gradientTransform="matrix(-1 0 0 1 265.4297 0)">
		<stop  offset="0" style="stop-color:#ABABAB"/>
		<stop  offset="0.0072" style="stop-color:#A8A8A8"/>
		<stop  offset="0.0669" style="stop-color:#939393"/>
		<stop  offset="0.1255" style="stop-color:#868686"/>
		<stop  offset="0.1813" style="stop-color:#828282"/>
		<stop  offset="1" style="stop-color:#DBDBDB"/>
	</linearGradient>
	<rect x="186.766" y="192.571" fill="url(#SVGID_12_)" width="15.094" height="21.448"/>
	
		<linearGradient id="SVGID_13_" gradientUnits="userSpaceOnUse" x1="95.645" y1="215.3105" x2="95.645" y2="193.2665" gradientTransform="matrix(-1 0 0 1 265.4297 0)">
		<stop  offset="0" style="stop-color:#ABABAB"/>
		<stop  offset="0.0072" style="stop-color:#A8A8A8"/>
		<stop  offset="0.0669" style="stop-color:#939393"/>
		<stop  offset="0.1255" style="stop-color:#868686"/>
		<stop  offset="0.1813" style="stop-color:#828282"/>
		<stop  offset="1" style="stop-color:#DBDBDB"/>
	</linearGradient>
	<rect x="162.238" y="192.571" fill="url(#SVGID_13_)" width="15.094" height="21.448"/>
	
		<linearGradient id="SVGID_14_" gradientUnits="userSpaceOnUse" x1="120.1704" y1="215.3105" x2="120.1704" y2="193.2665" gradientTransform="matrix(-1 0 0 1 265.4297 0)">
		<stop  offset="0" style="stop-color:#ABABAB"/>
		<stop  offset="0.0072" style="stop-color:#A8A8A8"/>
		<stop  offset="0.0669" style="stop-color:#939393"/>
		<stop  offset="0.1255" style="stop-color:#868686"/>
		<stop  offset="0.1813" style="stop-color:#828282"/>
		<stop  offset="1" style="stop-color:#DBDBDB"/>
	</linearGradient>
	<rect x="137.712" y="192.571" fill="url(#SVGID_14_)" width="15.095" height="21.448"/>
	
		<linearGradient id="SVGID_15_" gradientUnits="userSpaceOnUse" x1="144.6978" y1="215.3105" x2="144.6978" y2="193.2665" gradientTransform="matrix(-1 0 0 1 265.4297 0)">
		<stop  offset="0" style="stop-color:#ABABAB"/>
		<stop  offset="0.0072" style="stop-color:#A8A8A8"/>
		<stop  offset="0.0669" style="stop-color:#939393"/>
		<stop  offset="0.1255" style="stop-color:#868686"/>
		<stop  offset="0.1813" style="stop-color:#828282"/>
		<stop  offset="1" style="stop-color:#DBDBDB"/>
	</linearGradient>
	<rect x="113.185" y="192.571" fill="url(#SVGID_15_)" width="15.095" height="21.448"/>
	
		<linearGradient id="SVGID_16_" gradientUnits="userSpaceOnUse" x1="236.7402" y1="44.9414" x2="236.7402" y2="17.0799" gradientTransform="matrix(-1 0 0 1 265.4297 0)">
		<stop  offset="0" style="stop-color:#5CA047"/>
		<stop  offset="0.0333" style="stop-color:#6BA652"/>
		<stop  offset="0.0761" style="stop-color:#78AB5F"/>
		<stop  offset="0.1181" style="stop-color:#80AF68"/>
		<stop  offset="0.1581" style="stop-color:#82B06B"/>
		<stop  offset="1" style="stop-color:#FFFFFF"/>
	</linearGradient>
	<path fill="url(#SVGID_16_)" d="M5.751,30.202c0-5.758,5.404-10.426,12.064-10.426c1.29,0,2.504,0.218,3.666,0.542
		c2.213-2.5,5.467-4.117,9.144-4.117c5.204,0,9.601,3.188,11.292,7.639c5.556,0.711,9.71,3.483,9.71,6.809
		c0,2.882-3.116,5.354-7.564,6.426c0.063,0.286,0.117,0.575,0.117,0.873c0,2.961-3.201,5.362-7.15,5.362
		c-3.277,0-6.007-1.661-6.854-3.917c-0.205-0.007-0.4-0.041-0.603-0.058c-1.229,1.978-4.222,3.379-7.736,3.379
		c-2.923,0-5.488-0.973-6.977-2.439C9.632,39.13,5.751,35.071,5.751,30.202z"/>
	
		<linearGradient id="SVGID_17_" gradientUnits="userSpaceOnUse" x1="207.3691" y1="55.7119" x2="207.3691" y2="42.2404" gradientTransform="matrix(-1 0 0 1 265.4297 0)">
		<stop  offset="0" style="stop-color:#5CA047"/>
		<stop  offset="0.0333" style="stop-color:#6BA652"/>
		<stop  offset="0.0761" style="stop-color:#78AB5F"/>
		<stop  offset="0.1181" style="stop-color:#80AF68"/>
		<stop  offset="0.1581" style="stop-color:#82B06B"/>
		<stop  offset="1" style="stop-color:#FFFFFF"/>
	</linearGradient>
	<path fill="url(#SVGID_17_)" d="M46.968,48.583c0-2.784,2.611-5.041,5.837-5.041c0.618,0,1.21,0.107,1.768,0.263
		c1.071-1.208,2.645-1.99,4.422-1.99c2.518,0,4.641,1.541,5.459,3.691c2.687,0.347,4.697,1.685,4.697,3.293
		c0,1.395-1.508,2.59-3.659,3.107c0.033,0.139,0.056,0.279,0.056,0.424c0,1.429-1.546,2.592-3.458,2.592
		c-1.583,0-2.904-0.805-3.314-1.894c-0.098-0.006-0.191-0.019-0.289-0.028c-0.596,0.954-2.043,1.633-3.743,1.633
		c-1.415,0-2.652-0.47-3.375-1.177C48.843,52.902,46.968,50.938,46.968,48.583z"/>
	
		<linearGradient id="SVGID_18_" gradientUnits="userSpaceOnUse" x1="39.4517" y1="236.5547" x2="39.4517" y2="193.2695" gradientTransform="matrix(-1 0 0 1 265.4297 0)">
		<stop  offset="0" style="stop-color:#ABABAB"/>
		<stop  offset="0.0072" style="stop-color:#A8A8A8"/>
		<stop  offset="0.0669" style="stop-color:#939393"/>
		<stop  offset="0.1255" style="stop-color:#868686"/>
		<stop  offset="0.1813" style="stop-color:#828282"/>
		<stop  offset="1" style="stop-color:#DBDBDB"/>
	</linearGradient>
	<rect x="218.432" y="191.904" fill="url(#SVGID_18_)" width="15.094" height="42.115"/>
</g>
</svg>
