<?xml version="1.0" encoding="utf-8"?>
<!-- Generator: Adobe Illustrator 16.0.0, SVG Export Plug-In . SVG Version: 6.00 Build 0)  -->
<!DOCTYPE svg PUBLIC "-//W3C//DTD SVG 1.1//EN" "http://www.w3.org/Graphics/SVG/1.1/DTD/svg11.dtd">
<svg version="1.1" id="Layer_1" xmlns="http://www.w3.org/2000/svg" xmlns:xlink="http://www.w3.org/1999/xlink" x="0px" y="0px"
	 width="205.492px" height="197.47px" viewBox="0 0 205.492 197.47" enable-background="new 0 0 205.492 197.47"
	 xml:space="preserve">
<g>
	<path fill="#9DBF89" d="M162.632,112.298c0.013-0.073,0.098-0.407,0.098-0.485c0.676-3.817,2.4-4.337,3.8-2.006
		c-0.901-3.07,0.1-4,3.442-0.249c-1.612-3.039,1.616-8.154,6.419-3.099c-1.383-4.055,2.451-5.678,4.074-3.623
		c-2.174-3.25,0.483-6.015,2.403-4.369c-1.576-2.144-0.595-3.996,2.621-5.042c0.093-0.015,0.343-0.146,0.415-0.134
		c0.051,0.036,0.072,0.093,0.125,0.208c-3.524,0.981-4.667,2.916-2.997,5.125c-1.943-1.617-4.597,1.146-2.423,4.396
		c-1.668-2.049-5.466-0.399-4.09,3.693c-4.809-5.101-8.027,0.06-6.376,3.046c-3.367-3.727-4.416-2.833-3.484,0.222
		c-1.49-2.395-3.296-1.741-3.895,2.489C162.697,112.421,162.659,112.316,162.632,112.298z"/>
	<path fill="#6BA652" d="M159.221,88.17c-1.818,2.704-3.348,2.335-2.814-3.047c-1.218,3.34-7.83,3.409-7.281-4.103
		c-2.28,3.712-6.494,1.148-6.051-1.616c-1.025,3.994-5.246,3.164-5.4,0.402c-0.531,2.893-3,2.943-6.456,0.261
		c2.659,3.801,6.609,8.668,1.091,9.97c6.196-0.014,8.241,4.685,6.442,7.76c2.073-2.046,4.468,0.893,3.016,2.638
		c2.439-1.064,6.758-0.158,5.559,4.78c1.02-1.825,2.167-2.451,3.076-2.259c1.453-1.39,3.548-1.878,5.463-1.383
		c-0.019-0.409,0.044-0.877,0.131-1.291c-0.729-0.139-1.416-0.439-2.062-0.912c-2.292-1.676-2.789-4.888-1.112-7.183
		c1.543-2.108,4.396-2.713,6.62-1.48C158.961,90.195,158.857,89.285,159.221,88.17z M160.125,91.122
		c0.65,0.518,1.148,1.16,1.479,1.875c0.483-0.91,1.26-1.809,2.55-2.681C162.347,91.248,160.996,91.445,160.125,91.122z"/>
	<defs>
		<filter id="Adobe_OpacityMaskFilter" filterUnits="userSpaceOnUse" x="133.711" y="80.585" width="28.821" height="15.248">
			<feColorMatrix  type="matrix" values="1 0 0 0 0  0 1 0 0 0  0 0 1 0 0  0 0 0 1 0"/>
		</filter>
	</defs>
	<mask maskUnits="userSpaceOnUse" x="133.711" y="80.585" width="28.821" height="15.248" id="SVGID_1_">
		<g filter="url(#Adobe_OpacityMaskFilter)">
			
				<linearGradient id="SVGID_2_" gradientUnits="userSpaceOnUse" x1="447.3765" y1="-90.9033" x2="441.7824" y2="-91.0289" gradientTransform="matrix(0.5903 -0.8071 0.8071 0.5903 -41.6307 500.0339)">
				<stop  offset="0" style="stop-color:#FFFFFF"/>
				<stop  offset="1" style="stop-color:#000000"/>
			</linearGradient>
			<path opacity="0.52" fill="url(#SVGID_2_)" d="M156.036,86.277c-0.94,1.367-2.562,1.723-4.264,1.07
				c-0.939-0.332-3.014-1.336-2.981-5.383c-1.29,1.55-2.899,1.396-4.055,0.868c-0.857-0.425-1.654-1.17-1.813-2.195
				c-0.806,1.746-2.217,2.055-3.479,1.728c-0.706-0.2-1.458-0.712-1.773-1.574c-0.285,0.979-0.72,1.252-1.51,1.466
				c-0.682,0.175-1.531-0.015-2.468-0.381c0.574,0.455,1.245,1.029,1.245,1.029c3.981,3.503,9.954,8.663,16.9,12.952
				c-0.148-1.255,0.156-2.534,0.966-3.644c1.056-1.442,2.68-2.151,4.308-2.107c-0.056,0-0.122-0.05-0.161-0.077
				C156.188,89.668,155.901,88.626,156.036,86.277z M160.558,91.56c0.346,0.334,0.615,0.726,0.856,1.099
				c0.25-0.448,0.583-0.876,1.098-1.367C161.718,91.538,161.093,91.636,160.558,91.56z M158.781,89.229
				c-0.511,0.537-0.972,0.872-1.381,0.891c0.522,0.065,1.07,0.188,1.558,0.386C158.786,90.143,158.723,89.742,158.781,89.229z"/>
		</g>
	</mask>
	<path opacity="0.52" mask="url(#SVGID_1_)" fill="#FFFFFF" d="M156.056,86.25c-0.94,1.369-2.544,1.696-4.265,1.072
		c-0.94-0.333-3.017-1.333-2.964-5.409c-1.326,1.602-2.918,1.424-4.073,0.896c-0.854-0.427-1.652-1.171-1.793-2.224
		c-0.823,1.773-2.238,2.084-3.479,1.729c-0.727-0.174-1.478-0.686-1.792-1.55c-0.284,0.98-0.72,1.254-1.51,1.467
		c-0.682,0.175-1.532-0.014-2.468-0.379c0.554,0.479,1.245,1.026,1.245,1.026c3.999,3.479,9.954,8.665,16.897,12.955
		c-0.145-1.257,0.159-2.537,0.969-3.646c1.054-1.439,2.681-2.152,4.325-2.132c-0.053-0.002-0.14-0.025-0.178-0.053
		C156.207,89.641,155.938,88.575,156.056,86.25z M160.575,91.535c0.35,0.331,0.615,0.726,0.839,1.123
		c0.25-0.448,0.602-0.902,1.118-1.396C161.738,91.512,161.112,91.608,160.575,91.535z M158.798,89.205
		c-0.509,0.535-0.971,0.87-1.379,0.888c0.542,0.039,1.068,0.192,1.556,0.39C158.804,90.117,158.76,89.692,158.798,89.205z"/>
	
		<linearGradient id="SVGID_3_" gradientUnits="userSpaceOnUse" x1="433.833" y1="-102.2744" x2="438.758" y2="-81.1893" gradientTransform="matrix(0.5903 -0.8071 0.8071 0.5903 -41.6307 500.0339)">
		<stop  offset="0" style="stop-color:#6BA652"/>
		<stop  offset="1" style="stop-color:#5CA047"/>
	</linearGradient>
	<path fill="url(#SVGID_3_)" d="M147.326,105.215c1.02-1.825,2.167-2.451,3.076-2.259c1.453-1.39,3.548-1.878,5.463-1.383
		c-0.019-0.409,0.044-0.877,0.131-1.291c-0.729-0.139-1.416-0.439-2.062-0.912c-1.096-0.801-1.785-1.938-2.022-3.182
		c-9.621-5.93-17.328-13.505-20.693-16.121c2.659,3.801,6.609,8.668,1.091,9.97c6.196-0.014,8.241,4.685,6.442,7.76
		c2.073-2.046,4.468,0.893,3.016,2.638C144.207,99.37,148.525,100.276,147.326,105.215z"/>
	<path fill="#9DBF89" d="M164.154,90.316c-0.05,0.041-0.386,0.149-0.426,0.204c-3.657,1.673-5.329,0.369-4.508-2.351
		c-1.818,2.704-3.348,2.335-2.814-3.047c-1.218,3.34-7.83,3.409-7.281-4.103c-2.28,3.712-6.494,1.148-6.051-1.616
		c-1.025,3.994-5.246,3.164-5.4,0.402c-0.506,2.751-2.772,2.954-6.062,0.584c-0.046-0.069-0.334-0.244-0.394-0.323
		c0.001-0.081,0.02-0.105,0.061-0.192c3.486,2.667,5.893,2.566,6.45-0.305c0.157,2.762,4.392,3.568,5.409-0.393
		c-0.45,2.751,3.781,5.292,6.06,1.582c-0.536,7.517,6.065,7.439,7.263,4.126c-0.517,5.354,0.989,5.782,2.82,3.092
		c-0.852,2.815,1.04,4.122,4.956,2.12C164.204,90.193,164.174,90.29,164.154,90.316z"/>
	<path fill="#9DBF89" d="M135.049,87.887c-0.183,0.899-0.851,1.594-2.199,2.031c-0.07-0.011-0.471,0.129-0.541,0.119
		c0.007-0.036,0.031-0.096,0.054-0.156C133.981,89.48,134.778,88.8,135.049,87.887z"/>
	<path opacity="0.3" fill="#D7E2CC" d="M142.498,89.54c-0.681,0.017-5.336-0.027-6.962-0.265c0.902,0.146,5.972,0.054,6.692,0.067
		C142.317,89.409,142.421,89.485,142.498,89.54z"/>
	<path opacity="0.3" fill="#D7E2CC" d="M146.568,92.601c-0.26,0.005-2.3,0.096-3.727-0.121c1.13,0.078,2.916-0.042,3.445-0.086
		C146.375,92.459,146.465,92.524,146.568,92.601z"/>
	<path opacity="0.3" fill="#D7E2CC" d="M148.925,94.242c0.118,0.085,0.208,0.151,0.312,0.227c-0.725,0.262-3.676,1.188-7.802,0.74
		C145.51,95.538,148.317,94.51,148.925,94.242z"/>
	<path opacity="0.6" fill="#D7E2CC" d="M151.438,95.565c-0.068-0.8-0.289-3.93-0.498-4.831c0.493,1.624,0.63,4.136,0.641,4.936
		C151.528,95.631,151.477,95.594,151.438,95.565z"/>
	<path opacity="0.3" fill="#D7E2CC" d="M152.568,97.619c-1.113,0.334-3.023,0.752-3.963,0.738c0.939-0.063,2.732-0.573,3.838-0.947
		C152.4,97.497,152.597,97.523,152.568,97.619z"/>
	<path opacity="0.6" fill="#D7E2CC" d="M147.872,93.194c-0.09-0.658-0.567-3.654-0.863-4.467c0.623,1.524,0.946,3.896,1.057,4.608
		C148.002,93.29,147.938,93.242,147.872,93.194z"/>
	<path opacity="0.6" fill="#D7E2CC" d="M138.464,85.917c-0.273-0.868-0.947-3.027-1.125-3.353c0.592,0.948,1.141,2.85,1.333,3.505
		C138.619,86.03,138.542,85.974,138.464,85.917z"/>
	<path opacity="0.6" fill="#D7E2CC" d="M144.332,90.604c-0.242-0.968-1.116-5.125-1.396-6.12c0.497,1.077,1.395,5.446,1.581,6.296
		C144.44,90.726,144.382,90.642,144.332,90.604z"/>
	<path fill="#6BA652" d="M150.476,96.641c-0.327,2.769-1.45,3.17-2.847-0.978c0.266,2.965-4.08,5.957-6.151,0.25
		c-0.293,3.698-3.901,3.712-4.496,1.495c0.609,3.333-2.433,4.625-3.421,2.68c0.571,2.354-1.037,3.471-4.182,3.068
		c2.96,1.574,7.177,3.352,3.949,6.765c4.091-2.782,6.948-0.254,6.759,2.732c0.707-2.372,3.217-1.286,2.85,0.62
		c1.255-1.853,4.406-3.106,5.227,1.015c0.106-2.574,1.204-3.432,2.188-2.989c-2.042-1.967-2.375-5.214-0.661-7.559
		c1.095-1.497,2.798-2.307,4.524-2.348c-0.727-1.163-0.982-2.896,0.204-5.386C152.489,99.182,150.796,99.092,150.476,96.641z"/>
	
		<linearGradient id="SVGID_4_" gradientUnits="userSpaceOnUse" x1="179.189" y1="122.4971" x2="181.4139" y2="130.3754" gradientTransform="matrix(-0.825 0.5652 -0.5652 -0.825 361.6173 110.5012)">
		<stop  offset="0" style="stop-color:#6BA652"/>
		<stop  offset="1" style="stop-color:#5CA047"/>
	</linearGradient>
	<path fill="url(#SVGID_4_)" d="M129.378,103.156c2.96,1.574,7.177,3.352,3.949,6.765c4.091-2.782,6.948-0.254,6.759,2.732
		c0.707-2.372,3.217-1.286,2.85,0.62c1.255-1.853,4.406-3.106,5.227,1.015c0.106-2.574,1.204-3.432,2.188-2.989
		c-1.532-1.475-2.092-3.625-1.581-5.624C140.304,105.733,132.51,103.549,129.378,103.156z"/>
	<path fill="#9DBF89" d="M154.417,96.007c-0.024,0.059-0.193,0.291-0.232,0.344c-1.854,2.835-3.395,2.617-3.709,0.29
		c-0.327,2.769-1.45,3.17-2.847-0.978c0.266,2.965-4.08,5.957-6.151,0.25c-0.293,3.698-3.901,3.712-4.496,1.495
		c0.609,3.333-2.433,4.625-3.421,2.68c0.533,2.244-0.872,3.355-3.812,3.103c-0.072-0.012-0.319,0.002-0.369-0.034
		c-0.037-0.062-0.028-0.097-0.042-0.188c3.171,0.423,4.76-0.751,4.169-3.08c1,1.961,4.057,0.675,3.448-2.655
		c0.569,2.196,4.208,2.168,4.487-1.545c2.106,5.695,6.417,2.719,6.153-0.245c1.371,4.129,2.502,3.769,2.854,1.02
		c0.339,2.426,2.016,2.542,3.943-0.634C154.381,95.899,154.425,95.972,154.417,96.007z"/>
	<path fill="#9DBF89" d="M134.437,107.135c0.165,0.716-0.052,1.504-0.804,2.419c-0.037,0.051-0.263,0.358-0.306,0.367
		c-0.02-0.055,0.004-0.116-0.03-0.176C134.25,108.739,134.565,107.901,134.437,107.135z"/>
	<path opacity="0.3" fill="#D7E2CC" d="M139.899,105.042c-0.468,0.29-3.564,2.334-4.681,2.859c0.629-0.291,3.953-2.565,4.404-2.907
		C139.735,104.999,139.806,105.01,139.899,105.042z"/>
	<path opacity="0.3" fill="#D7E2CC" d="M143.55,105.456c-0.162,0.117-1.499,1.079-2.508,1.568c0.785-0.455,1.92-1.326,2.265-1.588
		C143.366,105.439,143.461,105.473,143.55,105.456z"/>
	<path opacity="0.3" fill="#D7E2CC" d="M145.653,105.612c0.087-0.016,0.186,0.017,0.255,0.026c-0.39,0.507-2.024,2.474-4.9,3.968
		C143.808,108.057,145.333,106.05,145.653,105.612z"/>
	<path opacity="0.6" fill="#D7E2CC" d="M147.707,105.453c-0.269-0.553-1.43-2.75-1.879-3.271c0.855,0.939,1.743,2.699,2.039,3.269
		C147.808,105.445,147.777,105.463,147.707,105.453z"/>
	<path opacity="0.6" fill="#D7E2CC" d="M144.617,105.327c-0.287-0.447-1.575-2.417-2.028-2.907c0.922,0.874,1.886,2.446,2.173,2.896
		C144.717,105.322,144.663,105.319,144.617,105.327z"/>
	<path fill="#6BA652" d="M151.819,95.45c0.02-0.028,0.02-0.028,0.02-0.028c-0.006-0.123-0.014-0.247,0.002-0.354
		C151.816,95.209,151.793,95.43,151.819,95.45z M165.209,65.898c-2.568,3.776-5.546,9.15-9.65,4.329
		c3.102,5.866-0.662,9.362-4.684,8.675c3.096,1.279,1.272,4.53-1.208,3.703c2.27,1.978,3.505,6.398-2.12,6.87
		c5.531,0.844,4.649,4.434,0.731,5.085c0.601,0.045,2.152,0.109,3.291,0.906c0.214-0.595,0.273-0.591,0.263-0.44
		c0.042-1.001,0.368-1.988,0.989-2.839c1.676-2.291,4.908-2.815,7.199-1.14c1.494,1.092,2.212,2.845,2.078,4.567
		c1.152,0.051,2.304,0.421,3.308,1.155c0.824,0.603,1.472,1.39,1.862,2.266c1.144,0.165,2.446,0.604,3.899,1.508
		c-3.978-3.026-3.604-5.286-0.321-5.373c-3.634-0.84-4.02-2.427,1.744-3.708c-4.003-0.043-7.373-6.302,0.56-8.25
		c-4.923-0.951-4.392-5.784-1.338-6.282c-4.575,0.336-5.866-3.929-3.094-4.99C165.471,72.378,164.2,70.061,165.209,65.898z"/>
	<defs>
		<filter id="Adobe_OpacityMaskFilter_1_" filterUnits="userSpaceOnUse" x="159.373" y="68.839" width="12.69" height="30.467">
			<feColorMatrix  type="matrix" values="1 0 0 0 0  0 1 0 0 0  0 0 1 0 0  0 0 0 1 0"/>
		</filter>
	</defs>
	<mask maskUnits="userSpaceOnUse" x="159.373" y="68.839" width="12.69" height="30.467" id="SVGID_5_">
		<g filter="url(#Adobe_OpacityMaskFilter_1_)">
			
				<linearGradient id="SVGID_6_" gradientUnits="userSpaceOnUse" x1="461.3242" y1="-76.0742" x2="452.3984" y2="-80.1603" gradientTransform="matrix(0.5903 -0.8071 0.8071 0.5903 -41.6307 500.0339)">
				<stop  offset="0" style="stop-color:#FFFFFF"/>
				<stop  offset="1" style="stop-color:#000000"/>
			</linearGradient>
			<path opacity="0.52" fill="url(#SVGID_6_)" d="M164.64,68.839c-0.192,0.693-0.452,1.532-0.452,1.532
				c-1.562,4.948-3.867,12.316-4.816,20.32c0.231,0.091,0.444,0.206,0.648,0.356c1.494,1.092,2.212,2.845,2.078,4.567
				c1.152,0.051,2.304,0.421,3.308,1.155c0.722,0.527,1.293,1.179,1.673,1.931c0.703,0.039,1.392,0.227,2.284,0.604
				c-1.208-1.238-1.604-2.161-1.305-3.053c0.191-0.612,0.728-0.968,1.585-1.17c-1.177-0.387-1.776-0.868-1.745-1.477
				c-0.005-0.832,0.926-1.456,3.363-2.085c-1.848-0.447-3.01-1.889-3.243-3.677c-0.087-1.015-0.115-3.33,4.043-4.637
				c-2.236-0.727-2.888-2.272-2.869-3.563c-0.026-0.967,0.34-1.926,1.328-2.468c-2.203-0.151-3.209-1.396-3.498-2.677
				c-0.164-0.752-0.027-1.64,0.695-2.222c-1.148,0.029-1.633-0.284-2.241-0.964C164.952,70.733,164.707,69.879,164.64,68.839z"/>
		</g>
	</mask>
	<path opacity="0.52" mask="url(#SVGID_5_)" fill="#FFFFFF" d="M164.64,68.839c-0.192,0.693-0.452,1.532-0.452,1.532
		c-1.562,4.948-3.867,12.316-4.816,20.32c0.231,0.091,0.444,0.206,0.648,0.356c1.494,1.092,2.212,2.845,2.078,4.567
		c1.152,0.051,2.304,0.421,3.308,1.155c0.722,0.527,1.293,1.179,1.673,1.931c0.703,0.039,1.392,0.227,2.284,0.604
		c-1.208-1.238-1.604-2.161-1.305-3.053c0.191-0.612,0.728-0.968,1.585-1.17c-1.177-0.387-1.776-0.868-1.745-1.477
		c-0.005-0.832,0.926-1.456,3.363-2.085c-1.848-0.447-3.01-1.889-3.243-3.677c-0.087-1.015-0.115-3.33,4.043-4.637
		c-2.236-0.727-2.888-2.272-2.869-3.563c-0.026-0.967,0.34-1.926,1.328-2.468c-2.203-0.151-3.209-1.396-3.498-2.677
		c-0.164-0.752-0.027-1.64,0.695-2.222c-1.148,0.029-1.633-0.284-2.241-0.964C164.952,70.733,164.707,69.879,164.64,68.839z"/>
	<path opacity="0.6" fill="#D7E2CC" d="M136.066,104.176c-0.491-0.519-1.622-1.781-1.83-1.934c0.664,0.448,1.66,1.569,1.996,1.975
		C136.162,104.205,136.136,104.187,136.066,104.176z"/>
	<path opacity="0.6" fill="#D7E2CC" d="M141.426,105.008c-0.439-0.637-2.395-3.212-2.899-3.817c0.701,0.554,2.684,3.305,3.072,3.826
		C141.543,105.015,141.484,105.013,141.426,105.008z"/>
	<path fill="#9DBF89" d="M171.167,100.544c-0.083-0.022-0.354-0.298-0.431-0.353c-3.534-2.9-3.029-4.947,0.11-5.021
		c-3.634-0.84-4.02-2.427,1.744-3.708c-4.003-0.043-7.373-6.302,0.56-8.25c-4.923-0.951-4.392-5.784-1.338-6.282
		c-4.575,0.336-5.866-3.929-3.094-4.99c-3.097,0.424-4.394-1.668-3.623-5.534c0.016-0.106,0.078-0.457,0.115-0.508
		c0.09-0.018,0.103-0.007,0.25-0.019c-1.043,4.183,0.296,6.464,3.525,6.02c-2.769,1.059-1.498,5.35,3.075,5.018
		c-3.034,0.471-3.531,5.367,1.383,6.271c-7.936,1.984-4.549,8.221-0.544,8.262c-5.762,1.279-5.426,2.873-1.798,3.705
		c-3.278,0.098-3.657,2.35,0.33,5.383C171.309,100.569,171.211,100.537,171.167,100.544z"/>
	<path fill="#9DBF89" d="M159.103,72.109c-0.961,0.126-1.993-0.275-3.128-1.423c-0.036-0.062-0.396-0.405-0.415-0.459
		c0.057,0.002,0.133-0.021,0.204-0.011C156.988,71.628,158.084,72.151,159.103,72.109z"/>
	<path opacity="0.6" fill="#D7E2CC" d="M159.454,90.2c0.796-0.328,3.871-1.56,4.684-2.075c-1.414,0.985-3.905,1.931-4.71,2.252
		C159.438,90.306,159.431,90.26,159.454,90.2z"/>
	<path opacity="0.6" fill="#D7E2CC" d="M161.571,93.252c1.841-0.515,4.15-1.238,5.58-1.894c-1.556,0.882-3.659,1.595-5.365,2.091
		C161.709,93.392,161.651,93.31,161.571,93.252z"/>
	<path opacity="0.6" fill="#D7E2CC" d="M160.087,86.037c0.601-0.312,3.453-1.747,4.144-2.312c-1.245,1.105-3.518,2.215-4.184,2.555
		C160.067,86.177,160.057,86.134,160.087,86.037z"/>
	<path opacity="0.6" fill="#D7E2CC" d="M162.845,74.725c0.778-0.578,2.615-1.924,2.843-2.188c-0.663,0.857-2.324,2.02-2.912,2.415
		C162.79,74.884,162.846,74.807,162.845,74.725z"/>
	<path fill="#6BA652" d="M178.632,87.932c-3.07,4.795-7.231,3.454-8.414,0.173c0.33,2.854-2.83,2.875-3.267,0.66
		c-0.516,2.547-3.286,5.307-6.027,1.322c0.413,1.054,0.533,1.893,0.508,2.547c0.528,0.901,0.757,1.937,0.667,2.981
		c1.152,0.051,2.304,0.421,3.308,1.155c2.681,1.96,3.263,5.706,1.302,8.385c-1.242,1.699-3.212,2.551-5.207,2.438
		c0.742,1.016,1.224,2.516,1.13,4.704c0.62-4.257,2.438-4.901,3.898-2.491c-0.901-3.07,0.1-4,3.442-0.249
		c-1.612-3.039,1.616-8.154,6.419-3.099c-1.383-4.055,2.451-5.678,4.074-3.623c-2.174-3.25,0.483-6.015,2.403-4.369
		c-1.658-2.243-0.483-4.15,3.036-5.176C182.017,92.983,176.773,93.019,178.632,87.932z"/>
	<defs>
		<filter id="Adobe_OpacityMaskFilter_2_" filterUnits="userSpaceOnUse" x="161.835" y="94.125" width="21.638" height="16.316">
			<feColorMatrix  type="matrix" values="1 0 0 0 0  0 1 0 0 0  0 0 1 0 0  0 0 0 1 0"/>
		</filter>
	</defs>
	<mask maskUnits="userSpaceOnUse" x="161.835" y="94.125" width="21.638" height="16.316" id="SVGID_7_">
		<g filter="url(#Adobe_OpacityMaskFilter_2_)">
			
				<linearGradient id="SVGID_8_" gradientUnits="userSpaceOnUse" x1="455.8101" y1="-58.4375" x2="445.8945" y2="-63.4583" gradientTransform="matrix(0.5903 -0.8071 0.8071 0.5903 -41.6307 500.0339)">
				<stop  offset="0" style="stop-color:#FFFFFF"/>
				<stop  offset="1" style="stop-color:#000000"/>
			</linearGradient>
			<path opacity="0.52" fill="url(#SVGID_8_)" d="M182.151,94.423c-3.873,0.805-9.42,2.007-15.093,4.147
				c1.135,2.013,1.103,4.599-0.349,6.585c-1.187,1.622-3.022,2.454-4.874,2.445c0.032,0.062,0.067,0.127,0.11,0.199
				c0.444,0.717,0.739,1.451,0.855,2.642c0.416-1.434,0.953-2.11,1.729-2.256c0.51-0.102,1.005,0.143,1.523,0.681
				c-0.16-1.027-0.077-1.681,0.365-1.908c0.627-0.372,1.495,0.066,2.968,1.615c-0.433-1.538,0.139-3.022,1.421-3.94
				c0.695-0.519,2.408-1.483,5.107,1.044c-0.407-1.958,0.498-3.113,1.43-3.657c0.716-0.386,1.594-0.535,2.395-0.031
				c-0.813-1.699-0.28-2.971,0.53-3.726c0.493-0.43,1.236-0.714,1.955-0.426c-0.498-0.837-0.487-1.307-0.23-2.065
				c0.222-0.629,0.766-1.181,1.479-1.646C182.875,94.242,182.151,94.423,182.151,94.423z"/>
		</g>
	</mask>
	<path opacity="0.52" mask="url(#SVGID_7_)" fill="#FFFFFF" d="M182.151,94.423c-3.873,0.805-9.42,2.007-15.093,4.147
		c1.135,2.013,1.103,4.599-0.349,6.585c-1.187,1.622-3.022,2.454-4.874,2.445c0.032,0.062,0.067,0.127,0.11,0.199
		c0.444,0.717,0.739,1.451,0.855,2.642c0.416-1.434,0.953-2.11,1.729-2.256c0.51-0.102,1.005,0.143,1.523,0.681
		c-0.16-1.027-0.077-1.681,0.365-1.908c0.627-0.372,1.495,0.066,2.968,1.615c-0.433-1.538,0.139-3.022,1.421-3.94
		c0.695-0.519,2.408-1.483,5.107,1.044c-0.407-1.958,0.498-3.113,1.43-3.657c0.716-0.386,1.594-0.535,2.395-0.031
		c-0.813-1.699-0.28-2.971,0.53-3.726c0.493-0.43,1.236-0.714,1.955-0.426c-0.498-0.837-0.487-1.307-0.23-2.065
		c0.222-0.629,0.766-1.181,1.479-1.646C182.875,94.242,182.151,94.423,182.151,94.423z"/>
	
		<linearGradient id="SVGID_9_" gradientUnits="userSpaceOnUse" x1="453.0303" y1="-75.6396" x2="456.8696" y2="-59.2026" gradientTransform="matrix(0.5903 -0.8071 0.8071 0.5903 -41.6307 500.0339)">
		<stop  offset="0" style="stop-color:#6BA652"/>
		<stop  offset="1" style="stop-color:#5CA047"/>
	</linearGradient>
	<path fill="url(#SVGID_9_)" d="M178.632,87.932c-3.07,4.795-7.231,3.454-8.414,0.173c0.33,2.854-2.83,2.875-3.267,0.66
		c-0.516,2.547-3.286,5.307-6.027,1.322c0.413,1.054,0.533,1.893,0.508,2.547c0.528,0.901,0.757,1.937,0.667,2.981
		c1.152,0.051,2.304,0.421,3.308,1.155c0.604,0.441,1.104,1.002,1.497,1.604c8.051-3.089,15.851-4.185,19-5.084
		C182.017,92.983,176.773,93.019,178.632,87.932z"/>
	<path opacity="0.6" fill="#D7E2CC" d="M160.981,81.784c0.882-0.5,4.65-2.729,5.562-3.327c-0.873,0.867-4.849,3.141-5.634,3.589
		C160.94,81.954,160.932,81.91,160.981,81.784z"/>
	<path fill="#9DBF89" d="M178.712,91.393c-0.494-0.68-0.62-1.64-0.253-2.955c0.037-0.051,0.135-0.453,0.173-0.506
		c0.051,0.038,0.071,0.093,0.115,0.166C178.179,89.579,178.262,90.627,178.712,91.393z"/>
	<path fill="#D7E2CC" d="M166.903,98.375c0.044,0.072,0.108,0.12,0.155,0.195c5.673-2.141,11.221-3.343,15.093-4.147
		c0,0,0.723-0.181,1.322-0.298c0.561-0.224,1.14-0.473,2.43-0.834C182.754,94.19,174.955,95.286,166.903,98.375z"/>
	<path opacity="0.3" fill="#D7E2CC" d="M173.917,96.111c0.34-0.544,2.676-4.096,3.646-5.204c-0.555,0.621-3.014,4.557-3.384,5.116
		C174.1,96.049,173.994,96.088,173.917,96.111z"/>
	<path opacity="0.3" fill="#D7E2CC" d="M169.833,97.313c0.122-0.223,1.103-1.804,1.932-2.775c-0.621,0.851-1.421,2.239-1.66,2.698
		C170.03,97.262,169.92,97.301,169.833,97.313z"/>
	<path opacity="0.3" fill="#D7E2CC" d="M167.536,98.128c-0.087,0.012-0.186,0.063-0.276,0.11c0.182-0.734,1.008-3.572,3.379-6.462
		C168.396,94.684,167.689,97.488,167.536,98.128z"/>
	<path opacity="0.6" fill="#D7E2CC" d="M164.043,102.095c1.18,1.141,2.658,2.58,3.759,3.347c-1.329-0.777-2.734-2.041-3.815-3.108
		C164,102.259,164.013,102.192,164.043,102.095z"/>
	<path opacity="0.6" fill="#D7E2CC" d="M168.769,97.959c0.481,0.315,2.773,1.833,3.461,2.136c-1.353-0.476-3.1-1.712-3.633-2.061
		C168.66,97.997,168.719,98.001,168.769,97.959z"/>
	<path opacity="0.6" fill="#D7E2CC" d="M178.361,95.248c0.74,0.346,2.542,1.149,2.824,1.198c-0.92-0.124-2.505-0.846-3.019-1.143
		C178.222,95.306,178.288,95.273,178.361,95.248z"/>
	<path opacity="0.6" fill="#D7E2CC" d="M172.292,96.819c0.758,0.477,4.017,2.346,4.815,2.771c-0.976-0.317-4.357-2.319-5.014-2.717
		C172.163,96.884,172.226,96.853,172.292,96.819z"/>
	<path fill="#6BA652" d="M169.615,101.231c-0.663,0.855-1.311,1.252-1.846,1.337c-0.156,0.914-0.495,1.814-1.06,2.587
		c-1.563,2.138-4.243,2.906-6.625,2.193c-0.031,0.846-0.229,1.689-0.652,2.485c0.533,0.354,0.554,1.077,0.112,1.982
		c1.528-1.687,2.537-1.311,1.527,2.264c1.232-2.146,5.731-1.699,4.488,3.324c1.979-2.353,4.522-0.292,3.895,1.542
		c1.161-2.59,3.944-1.742,3.712,0.145c0.708-1.894,2.377-1.741,4.406,0.298c-1.347-2.728-3.472-6.338,0.455-6.787
		c-4.224-0.441-5.035-3.764-3.464-5.695c-1.639,1.212-2.935-0.964-1.728-2.016C171.065,105.413,168.228,104.483,169.615,101.231z"/>
	
		<linearGradient id="SVGID_10_" gradientUnits="userSpaceOnUse" x1="440.0684" y1="-63.1318" x2="442.6769" y2="-51.9639" gradientTransform="matrix(0.5903 -0.8071 0.8071 0.5903 -41.6307 500.0339)">
		<stop  offset="0" style="stop-color:#6BA652"/>
		<stop  offset="1" style="stop-color:#5CA047"/>
	</linearGradient>
	<path fill="url(#SVGID_10_)" d="M169.615,101.231c-0.663,0.855-1.311,1.252-1.846,1.337c-0.156,0.914-0.495,1.814-1.06,2.587
		c-0.451,0.618-1.021,1.15-1.634,1.531c6.013,4.753,10.48,10.673,12.497,12.702c-1.347-2.728-3.472-6.338,0.455-6.787
		c-4.224-0.441-5.035-3.764-3.464-5.695c-1.639,1.212-2.935-0.964-1.728-2.016C171.065,105.413,168.228,104.483,169.615,101.231z"/>
	<defs>
		<filter id="Adobe_OpacityMaskFilter_3_" filterUnits="userSpaceOnUse" x="159.53" y="106.801" width="16.55" height="11.645">
			<feColorMatrix  type="matrix" values="1 0 0 0 0  0 1 0 0 0  0 0 1 0 0  0 0 0 1 0"/>
		</filter>
	</defs>
	<mask maskUnits="userSpaceOnUse" x="159.53" y="106.801" width="16.55" height="11.645" id="SVGID_11_">
		<g filter="url(#Adobe_OpacityMaskFilter_3_)">
			
				<linearGradient id="SVGID_12_" gradientUnits="userSpaceOnUse" x1="433.79" y1="-54.9639" x2="436.7386" y2="-64.1238" gradientTransform="matrix(0.5903 -0.8071 0.8071 0.5903 -41.6307 500.0339)">
				<stop  offset="0" style="stop-color:#FFFFFF"/>
				<stop  offset="1" style="stop-color:#000000"/>
			</linearGradient>
			<path opacity="0.52" fill="url(#SVGID_12_)" d="M164.61,106.942c-0.608,0.425-1.318,0.615-2.075,0.616
				c-0.809,0.081-1.638,0.026-2.452-0.21c-0.005,0.784-0.212,1.582-0.554,2.324c0.077,0.056,0.153,0.111,0.214,0.193
				c0.286,0.368,0.321,0.749,0.2,1.292c0.555-0.462,1.022-0.637,1.329-0.412c0.484,0.314,0.549,1.035,0.185,2.589
				c0.779-0.818,1.936-0.917,3.022-0.401c0.609,0.327,1.887,1.144,1.367,3.89c1.061-0.966,2.167-0.75,2.856-0.287
				c0.552,0.328,1.007,0.896,0.973,1.622c0.77-1.138,1.765-1.198,2.567-0.888c0.46,0.177,0.933,0.559,1.017,1.175
				c0.323-0.633,0.642-0.795,1.22-0.886c0.473-0.051,1.05,0.136,1.6,0.459c-0.309-0.385-0.691-0.782-0.691-0.782
				c-2.413-2.753-6.031-6.944-10.479-10.436C164.802,106.842,164.706,106.89,164.61,106.942z"/>
		</g>
	</mask>
	<path opacity="0.52" mask="url(#SVGID_11_)" fill="#FFFFFF" d="M164.61,106.942c-0.608,0.425-1.318,0.615-2.075,0.616
		c-0.809,0.081-1.638,0.026-2.452-0.21c-0.005,0.784-0.212,1.582-0.554,2.324c0.077,0.056,0.153,0.111,0.214,0.193
		c0.286,0.368,0.321,0.749,0.2,1.292c0.555-0.462,1.022-0.637,1.329-0.412c0.484,0.314,0.549,1.035,0.185,2.589
		c0.779-0.818,1.936-0.917,3.022-0.401c0.609,0.327,1.887,1.144,1.367,3.89c1.061-0.966,2.167-0.75,2.856-0.287
		c0.552,0.328,1.007,0.896,0.973,1.622c0.77-1.138,1.765-1.198,2.567-0.888c0.46,0.177,0.933,0.559,1.017,1.175
		c0.323-0.633,0.642-0.795,1.22-0.886c0.473-0.051,1.05,0.136,1.6,0.459c-0.309-0.385-0.691-0.782-0.691-0.782
		c-2.413-2.753-6.031-6.944-10.479-10.436C164.802,106.842,164.706,106.89,164.61,106.942z"/>
	<path fill="#9DBF89" d="M175.925,113.831c0.208-0.559,0.726-0.971,1.701-1.166c0.069,0.012,0.374-0.084,0.401-0.063
		c-0.02,0.026-0.037,0.051-0.062,0.114C176.812,112.859,176.191,113.276,175.925,113.831z"/>
	<path opacity="0.3" fill="#D7E2CC" d="M171.039,112.154c0.479,0.077,3.629,0.442,4.712,0.72c-0.608-0.167-4.039-0.501-4.55-0.561
		C171.15,112.275,171.083,112.228,171.039,112.154z"/>
	<path fill="#D7E2CC" d="M164.909,106.801l0.044-0.004l0.009,0.043c4.426,3.515,8.013,7.644,10.426,10.396
		c0,0,0.383,0.397,0.691,0.782c0.384,0.318,0.764,0.637,1.492,1.37c-2.016-2.029-6.483-7.949-12.497-12.702
		C165.01,106.721,164.946,106.75,164.909,106.801z"/>
	<path opacity="0.3" fill="#D7E2CC" d="M168.661,109.782c0.187,0.019,1.57,0.125,2.495,0.401c-0.757-0.154-1.976-0.219-2.338-0.206
		C168.772,109.904,168.705,109.854,168.661,109.782z"/>
	<path opacity="0.3" fill="#D7E2CC" d="M167.241,108.507c-0.064-0.047-0.142-0.104-0.188-0.173c0.539-0.122,2.649-0.516,5.384,0.097
		C169.718,107.906,167.68,108.396,167.241,108.507z"/>
	<path opacity="0.6" fill="#D7E2CC" d="M165.703,107.423c-0.067,0.547-0.282,2.679-0.254,3.294c-0.13-1.122,0.084-2.822,0.165-3.359
		C165.637,107.374,165.664,107.395,165.703,107.423z"/>
	<path opacity="0.6" fill="#D7E2CC" d="M167.829,109.297c0.002,0.433-0.043,2.497,0.058,3.085c-0.25-1.093-0.179-2.7-0.165-3.204
		C167.759,109.204,167.798,109.232,167.829,109.297z"/>
	<path opacity="0.6" fill="#D7E2CC" d="M173.364,114.923c0.069,0.605,0.267,2.097,0.359,2.318c-0.29-0.685-0.458-1.995-0.496-2.455
		C173.266,114.815,173.312,114.886,173.364,114.923z"/>
	<path opacity="0.6" fill="#D7E2CC" d="M169.938,111.311c0.044,0.665,0.124,3.53,0.223,4.235c-0.2-0.778-0.3-3.777-0.319-4.346
		C169.867,111.219,169.918,111.256,169.938,111.311z"/>
	<path fill="#9DBF89" d="M173.166,119.091c0.232-1.887-2.552-2.734-3.712-0.145c0.627-1.834-1.916-3.895-3.895-1.542
		c1.244-5.023-3.255-5.471-4.488-3.324c1.01-3.574,0.001-3.95-1.527-2.264c0.462-0.932,0.421-1.629-0.112-1.982
		c-0.039,0.053-0.046,0.089-0.083,0.14c0.533,0.348,0.574,1.052,0.125,1.989c1.544-1.678,2.518-1.28,1.54,2.272
		c1.22-2.152,5.698-1.684,4.446,3.332c1.99-2.342,4.567-0.298,3.938,1.535c1.149-2.6,3.926-1.717,3.713,0.145
		c0.695-1.902,2.383-1.777,4.408,0.298c0.056-0.076,0.056-0.076,0.053-0.156c-0.008-0.047-0.187-0.179-0.239-0.215
		C175.391,117.315,173.844,117.294,173.166,119.091z"/>
	
		<radialGradient id="SVGID_13_" cx="446.0205" cy="-80.5029" r="7.7818" gradientTransform="matrix(0.5903 -0.8071 0.8071 0.5903 -41.6307 500.032)" gradientUnits="userSpaceOnUse">
		<stop  offset="0" style="stop-color:#FFFFFF"/>
		<stop  offset="0.2809" style="stop-color:#F58A51"/>
		<stop  offset="0.7753" style="stop-color:#F47B3C"/>
		<stop  offset="1" style="stop-color:#F5864B"/>
	</radialGradient>
	<path fill="url(#SVGID_13_)" d="M160.021,91.048c2.294,1.677,2.784,4.923,1.108,7.216c-1.678,2.293-4.902,2.783-7.195,1.106
		c-2.292-1.676-2.789-4.888-1.112-7.183C154.499,89.896,157.73,89.372,160.021,91.048z"/>
	
		<radialGradient id="SVGID_14_" cx="435.1523" cy="-75.7188" r="8.8554" gradientTransform="matrix(0.5903 -0.8071 0.8071 0.5903 -41.6307 500.032)" gradientUnits="userSpaceOnUse">
		<stop  offset="0" style="stop-color:#FFFFFF"/>
		<stop  offset="0.2809" style="stop-color:#F58A51"/>
		<stop  offset="0.7753" style="stop-color:#F47B3C"/>
		<stop  offset="1" style="stop-color:#F5864B"/>
	</radialGradient>
	<path fill="url(#SVGID_14_)" d="M157.753,102.478c2.576,1.884,3.089,5.504,1.222,8.056c-1.864,2.548-5.449,3.129-8.025,1.245
		c-2.578-1.887-3.125-5.488-1.261-8.038C151.556,101.188,155.175,100.593,157.753,102.478z"/>
	<defs>
		<filter id="Adobe_OpacityMaskFilter_4_" filterUnits="userSpaceOnUse" x="131.607" y="96.665" width="22.334" height="8.782">
			<feColorMatrix  type="matrix" values="1 0 0 0 0  0 1 0 0 0  0 0 1 0 0  0 0 0 1 0"/>
		</filter>
	</defs>
	<mask maskUnits="userSpaceOnUse" x="131.607" y="96.665" width="22.334" height="8.782" id="SVGID_15_">
		<g filter="url(#Adobe_OpacityMaskFilter_4_)">
			
				<linearGradient id="SVGID_16_" gradientUnits="userSpaceOnUse" x1="435.415" y1="-83.7656" x2="424.4971" y2="-88.5974" gradientTransform="matrix(0.5903 -0.8071 0.8071 0.5903 -41.6307 500.0339)">
				<stop  offset="0" style="stop-color:#FFFFFF"/>
				<stop  offset="1" style="stop-color:#000000"/>
			</linearGradient>
			<path opacity="0.52" fill="url(#SVGID_16_)" d="M149.689,103.74c1.039-1.419,2.592-2.217,4.252-2.349
				c-0.262-0.429-0.428-0.904-0.516-1.564c-0.1-0.707-0.096-1.413,0.23-2.403c-0.806,0.995-1.486,1.33-2.145,1.203
				c-0.48-0.073-0.777-0.45-0.989-1.079c-0.223,0.901-0.526,1.395-0.967,1.427c-0.604,0.072-1.114-0.579-1.807-2.31
				c-0.163,1.383-1.125,2.377-2.458,2.63c-0.727,0.184-2.42,0.363-3.734-2.572c-0.331,1.696-1.428,2.278-2.378,2.411
				c-0.706,0.078-1.445-0.107-1.906-0.799c0.039,1.649-0.794,2.464-1.723,2.812c-0.522,0.174-1.19,0.117-1.676-0.356
				c0.108,0.829-0.073,1.211-0.534,1.706c-0.364,0.444-0.988,0.702-1.733,0.83c0.518,0.102,1.149,0.208,1.149,0.208
				c3.924,0.772,9.819,1.96,16.081,1.912C149.008,104.863,149.294,104.279,149.689,103.74z"/>
		</g>
	</mask>
	<path opacity="0.52" mask="url(#SVGID_15_)" fill="#FFFFFF" d="M149.689,103.74c1.039-1.419,2.592-2.217,4.252-2.349
		c-0.262-0.429-0.428-0.904-0.516-1.564c-0.1-0.707-0.096-1.413,0.23-2.403c-0.806,0.995-1.486,1.33-2.145,1.203
		c-0.48-0.073-0.777-0.45-0.989-1.079c-0.223,0.901-0.526,1.395-0.967,1.427c-0.604,0.072-1.114-0.579-1.807-2.31
		c-0.163,1.383-1.125,2.377-2.458,2.63c-0.727,0.184-2.42,0.363-3.734-2.572c-0.331,1.696-1.428,2.278-2.378,2.411
		c-0.706,0.078-1.445-0.107-1.906-0.799c0.039,1.649-0.794,2.464-1.723,2.812c-0.522,0.174-1.19,0.117-1.676-0.356
		c0.108,0.829-0.073,1.211-0.534,1.706c-0.364,0.444-0.988,0.702-1.733,0.83c0.518,0.102,1.149,0.208,1.149,0.208
		c3.924,0.772,9.819,1.96,16.081,1.912C149.008,104.863,149.294,104.279,149.689,103.74z"/>
	<path opacity="0.6" fill="#D7E2CC" d="M149.93,103.438c-0.533-1.219-1.192-2.692-1.952-3.761c0.566,1.01,1.276,2.634,1.82,3.941
		C149.854,103.542,149.874,103.516,149.93,103.438z"/>
	<path fill="#D7E2CC" d="M148.851,105.457l-0.067,0.032l-0.023-0.016c-6.244,0.018-12.101-1.14-16.004-1.939
		c0,0-0.631-0.106-1.149-0.208c-0.53-0.033-1.066-0.03-2.229-0.17c3.131,0.393,10.925,2.577,19.391,2.519
		C148.782,105.606,148.808,105.544,148.851,105.457z"/>
	<path fill="#9DBF89" d="M160.104,107.321c-0.02,0.027-0.03,0.097-0.05,0.124c0.256,1.055,0.798,2.203,1.92,3.101
		c-1.085-0.948-1.564-2.132-1.775-3.195C160.171,107.33,160.129,107.342,160.104,107.321z"/>
	<g>
		<path fill="#6BA652" d="M159.992,107.199c-0.024-0.018-0.057,0-0.098-0.029c-0.03,1.123-0.381,2.25-1.098,3.231
			c-1.865,2.55-5.477,3.11-8.053,1.226c0.054,0.039,0.076,0.056,0.13,0.095c-1.886-1.42-2.671-3.813-2.111-6.012
			c-0.064-0.046-0.114-0.083-0.191-0.139c-1.348,0.001-2.634-0.78-3.136-1.07c2.794,2.639,1.561,6.006-3.334,3.612
			c4.232,3.49,0.836,6.349-2.069,6.67c2.451,0.729,2.12,4.321-1.069,3.65c3.602,1.646,4.719,6.495-0.989,9.518
			c5.91-1.647,5.394,4.305,5.37,8.713c1.457-3.879,3.752-5.044,6.099-2.931c-1.644-2.35,1.729-5.064,5.215-2.319
			c-2.189-2.033,0.04-6.216,4.467-4.244c-5.28-5.918,0.841-9.074,4.1-6.928c-3.913-4.166-2.764-5.223,0.605-3.906
			c-2.578-1.886-1.649-3.858,3.203-4.141C161.953,111.954,160.427,109.336,159.992,107.199z"/>
		<path fill="#9DBF89" d="M167.035,112.195c-0.081-0.023-0.471,0.048-0.54,0.037c-4.409,0.375-5.138,2.294-2.664,4.104
			c-3.37-1.316-4.518-0.26-0.605,3.906c-3.259-2.146-9.38,1.01-4.1,6.928c-4.427-1.972-6.657,2.211-4.467,4.244
			c-3.486-2.745-6.859-0.03-5.215,2.319c-2.25-2.007-4.436-1.07-5.921,2.471c-0.03,0.097-0.177,0.38-0.178,0.46
			c0.034,0.066,0.09,0.067,0.18,0.134c1.479-3.865,3.772-4.994,6.109-2.89c-1.601-2.354,1.744-5.09,5.211-2.318
			c-2.157-2.049,0.097-6.215,4.544-4.269c-5.279-5.916,0.827-9.044,4.068-6.91c-3.912-4.166-2.8-5.249,0.593-3.915
			c-2.589-1.895-1.674-3.878,3.18-4.158C167.152,112.281,167.047,112.204,167.035,112.195z"/>
		<path fill="#9DBF89" d="M141.854,128.377c-0.718-0.642-1.76-0.891-3.289-0.586c-0.05,0.042-0.554,0.109-0.591,0.16
			c0.052,0.038,0.101,0.074,0.168,0.122C139.879,127.565,141.075,127.767,141.854,128.377z"/>
		
			<linearGradient id="SVGID_17_" gradientUnits="userSpaceOnUse" x1="1460.5723" y1="-2237.5635" x2="1462.5226" y2="-2229.2136" gradientTransform="matrix(-0.5903 0.8071 -0.8071 -0.5903 -796.0001 -2377.7766)">
			<stop  offset="0" style="stop-color:#6BA652"/>
			<stop  offset="1" style="stop-color:#5CA047"/>
		</linearGradient>
		<path fill="url(#SVGID_17_)" d="M152.492,112.51c-0.624-0.179-1.183-0.47-1.749-0.883c0.054,0.039,0.076,0.056,0.13,0.095
			c-1.886-1.42-2.671-3.813-2.111-6.012c-0.078-0.056-0.141-0.103-0.191-0.139c-1.348,0.001-2.634-0.78-3.136-1.07
			c2.794,2.639,1.561,6.006-3.334,3.612c4.232,3.49,0.836,6.349-2.069,6.67c2.451,0.729,2.12,4.321-1.069,3.65
			c3.602,1.646,4.719,6.495-0.989,9.518c5.91-1.647,5.394,4.305,5.37,8.713C144.801,132.785,147.126,122.308,152.492,112.51z"/>
		<defs>
			<filter id="Adobe_OpacityMaskFilter_5_" filterUnits="userSpaceOnUse" x="144.507" y="108.191" width="20.414" height="25.802">
				<feColorMatrix  type="matrix" values="1 0 0 0 0  0 1 0 0 0  0 0 1 0 0  0 0 0 1 0"/>
			</filter>
		</defs>
		<mask maskUnits="userSpaceOnUse" x="144.507" y="108.191" width="20.414" height="25.802" id="SVGID_18_">
			<g filter="url(#Adobe_OpacityMaskFilter_5_)">
				
					<linearGradient id="SVGID_19_" gradientUnits="userSpaceOnUse" x1="409.9741" y1="-58.4707" x2="427.2486" y2="-67.9327" gradientTransform="matrix(0.5903 -0.8071 0.8071 0.5903 -41.6307 500.0339)">
					<stop  offset="0" style="stop-color:#FFFFFF"/>
					<stop  offset="1" style="stop-color:#050605"/>
				</linearGradient>
				<path fill="url(#SVGID_19_)" d="M159.979,108.218c-0.136,0.971-0.383,1.582-0.966,2.38c-1.45,1.982-3.94,2.734-6.315,2.146
					c-3.917,7.216-6.226,14.781-7.749,19.837c0,0-0.248,0.765-0.462,1.44c0.597-0.788,1.254-1.335,2.006-1.499
					c0.879-0.226,1.426-0.223,2.331,0.44c-0.268-0.828,0.104-1.662,0.625-2.153c0.959-0.881,2.421-1.311,4.285-0.266
					c-0.51-0.929-0.267-1.935,0.281-2.684c0.71-1.021,2.078-1.921,4.253-1.273c-2.607-3.297-1.342-5.137-0.704-5.898
					c1.15-1.333,2.886-1.844,4.586-1.19c-1.6-1.845-2.006-2.855-1.56-3.517c0.311-0.481,1.088-0.545,2.208-0.238
					c-0.572-0.62-0.796-1.181-0.619-1.801c0.258-0.839,1.063-1.398,2.724-1.727c-1.333-0.258-2.132-0.647-2.907-1.214
					C160.788,110.116,160.3,109.322,159.979,108.218z"/>
			</g>
		</mask>
		<path opacity="0.52" mask="url(#SVGID_18_)" fill="#FFFFFF" d="M159.999,108.191c-0.136,0.971-0.402,1.608-0.967,2.381
			c-1.451,1.983-3.939,2.733-6.314,2.144c-3.918,7.217-6.226,14.782-7.73,19.813c0,0-0.268,0.791-0.48,1.464
			c0.596-0.786,1.253-1.334,2.004-1.494c0.881-0.23,1.428-0.226,2.333,0.436c-0.249-0.854,0.085-1.635,0.642-2.178
			c0.942-0.854,2.423-1.312,4.267-0.24c-0.508-0.928-0.267-1.934,0.282-2.684c0.691-0.995,2.078-1.92,4.254-1.274
			c-2.61-3.292-1.342-5.137-0.707-5.895c1.15-1.334,2.888-1.847,4.588-1.193c-1.6-1.843-2.009-2.854-1.562-3.513
			c0.331-0.51,1.09-0.551,2.211-0.243c-0.574-0.617-0.779-1.203-0.618-1.8c0.256-0.837,1.062-1.399,2.72-1.723
			c-1.35-0.235-2.13-0.652-2.904-1.219C160.807,110.089,160.317,109.298,159.999,108.191z"/>
		<path fill="#D7E2CC" d="M144.507,133.993c0.212-0.673,0.48-1.464,0.48-1.464c1.499-4.995,3.778-12.464,7.641-19.642l-0.005-0.044
			l0.188-0.259c-0.143-0.023-0.282-0.048-0.419-0.107c0.013,0.011,0.085,0.022,0.1,0.032c-5.366,9.798-7.691,20.275-9.148,24.154
			C143.877,135.233,144.213,134.612,144.507,133.993z"/>
		<path opacity="0.3" fill="#D7E2CC" d="M147.654,123.365c-0.655,0.354-4.892,2.633-6.219,3.638c0.745-0.562,5.43-2.99,6.119-3.313
			C147.574,123.585,147.623,123.463,147.654,123.365z"/>
		<path opacity="0.3" fill="#D7E2CC" d="M149.426,118.89c-0.254,0.132-2.165,1.067-3.354,1.936c1.02-0.637,2.729-1.405,3.215-1.642
			C149.344,119.107,149.383,118.975,149.426,118.89z"/>
		<path opacity="0.3" fill="#D7E2CC" d="M150.545,116.386c0.051-0.121,0.081-0.218,0.16-0.355c-0.854,0.168-4.15,0.837-7.639,3.23
			C146.621,116.996,149.806,116.478,150.545,116.386z"/>
		<path opacity="0.6" fill="#D7E2CC" d="M152.004,114.091c0.467,0.66,2.257,3.352,2.623,4.176c-0.58-1.535-2.054-3.681-2.547-4.356
			C152.056,113.97,152.028,114.031,152.004,114.091z"/>
		<path opacity="0.3" fill="#D7E2CC" d="M151.222,111.977c-1.225,0.291-2.743,0.723-3.575,1.185
			c0.876-0.393,2.595-0.792,3.839-1.032C151.389,112.099,151.309,112.04,151.222,111.977z"/>
		<path opacity="0.6" fill="#D7E2CC" d="M155.377,112.805c1.181,1.415,2.652,3.241,3.429,4.561c-0.758-1.584-2.066-3.289-3.17-4.613
			C155.543,112.768,155.47,112.791,155.377,112.805z"/>
		<path opacity="0.6" fill="#D7E2CC" d="M150.254,117.757c0.306,0.578,1.789,3.282,2.043,4.102c-0.389-1.55-1.611-3.668-1.961-4.319
			C150.324,117.607,150.28,117.695,150.254,117.757z"/>
		<path opacity="0.6" fill="#D7E2CC" d="M146.279,128.33c0.304,0.857,1.05,2.942,1.081,3.281c-0.073-1.039-0.743-2.876-1.027-3.518
			C146.319,128.164,146.291,128.26,146.279,128.33z"/>
		<path opacity="0.6" fill="#D7E2CC" d="M148.618,121.619c0.45,0.924,2.264,4.739,2.653,5.698c-0.244-1.129-2.168-5.147-2.562-5.908
			C148.684,121.472,148.674,121.542,148.618,121.619z"/>
	</g>
	<g>
		<defs>
			<filter id="Adobe_OpacityMaskFilter_6_" filterUnits="userSpaceOnUse" x="149.947" y="101.813" width="8.223" height="6.02">
				<feColorMatrix  type="matrix" values="1 0 0 0 0  0 1 0 0 0  0 0 1 0 0  0 0 0 1 0"/>
			</filter>
		</defs>
		<mask maskUnits="userSpaceOnUse" x="149.947" y="101.813" width="8.223" height="6.02" id="SVGID_20_">
			<g filter="url(#Adobe_OpacityMaskFilter_6_)">
				
					<linearGradient id="SVGID_21_" gradientUnits="userSpaceOnUse" x1="436.8545" y1="-77.4814" x2="432.2956" y2="-73.2858" gradientTransform="matrix(0.5903 -0.8071 0.8071 0.5903 -41.6307 500.0339)">
					<stop  offset="0" style="stop-color:#FFFFFF"/>
					<stop  offset="1" style="stop-color:#0A0B08"/>
				</linearGradient>
				<path fill="url(#SVGID_21_)" d="M153.704,101.851c2.243-0.258,4.241,0.849,4.455,2.506c0.17,1.627-1.498,3.178-3.741,3.435
					c-2.273,0.274-4.275-0.834-4.454-2.508C149.761,103.67,151.441,102.132,153.704,101.851z"/>
			</g>
		</mask>
		<path opacity="0.5" mask="url(#SVGID_20_)" fill="#FFFFFF" d="M153.704,101.851c2.243-0.258,4.241,0.849,4.455,2.506
			c0.17,1.627-1.498,3.178-3.741,3.435c-2.273,0.274-4.275-0.834-4.454-2.508C149.761,103.67,151.441,102.132,153.704,101.851z"/>
		<g>
			<defs>
				<filter id="Adobe_OpacityMaskFilter_7_" filterUnits="userSpaceOnUse" x="151.26" y="102.747" width="3.432" height="3.422">
					<feColorMatrix  type="matrix" values="1 0 0 0 0  0 1 0 0 0  0 0 1 0 0  0 0 0 1 0"/>
				</filter>
			</defs>
			<mask maskUnits="userSpaceOnUse" x="151.26" y="102.747" width="3.432" height="3.422" id="SVGID_22_">
				<g filter="url(#Adobe_OpacityMaskFilter_7_)">
					
						<radialGradient id="SVGID_23_" cx="434.2021" cy="-76.4482" r="1.7156" gradientTransform="matrix(0.5903 -0.8071 0.8071 0.5903 -41.6307 500.0339)" gradientUnits="userSpaceOnUse">
						<stop  offset="0" style="stop-color:#FFFFFF"/>
						<stop  offset="0.0242" style="stop-color:#F5F5F5"/>
						<stop  offset="0.1825" style="stop-color:#B6B6B6"/>
						<stop  offset="0.3392" style="stop-color:#808180"/>
						<stop  offset="0.4904" style="stop-color:#545554"/>
						<stop  offset="0.6352" style="stop-color:#323232"/>
						<stop  offset="0.7718" style="stop-color:#191A19"/>
						<stop  offset="0.8969" style="stop-color:#0A0B0A"/>
						<stop  offset="1" style="stop-color:#050605"/>
					</radialGradient>
					<path fill="url(#SVGID_23_)" d="M153.988,103.085c0.747,0.548,0.937,1.637,0.39,2.384c-0.565,0.772-1.658,0.919-2.405,0.373
						c-0.774-0.567-0.943-1.636-0.377-2.408C152.142,102.686,153.213,102.519,153.988,103.085z"/>
				</g>
			</mask>
			<path mask="url(#SVGID_22_)" fill="#FFFFFF" d="M153.988,103.085c0.747,0.548,0.937,1.637,0.39,2.384
				c-0.565,0.772-1.658,0.919-2.405,0.373c-0.774-0.567-0.943-1.636-0.377-2.408C152.142,102.686,153.213,102.519,153.988,103.085z"
				/>
			<defs>
				<filter id="Adobe_OpacityMaskFilter_8_" filterUnits="userSpaceOnUse" x="150.747" y="102.218" width="4.457" height="4.462">
					<feColorMatrix  type="matrix" values="1 0 0 0 0  0 1 0 0 0  0 0 1 0 0  0 0 0 1 0"/>
				</filter>
			</defs>
			<mask maskUnits="userSpaceOnUse" x="150.747" y="102.218" width="4.457" height="4.462" id="SVGID_24_">
				<g filter="url(#Adobe_OpacityMaskFilter_8_)">
					
						<radialGradient id="SVGID_25_" cx="434.2178" cy="-76.4561" r="2.2305" gradientTransform="matrix(0.5903 -0.8071 0.8071 0.5903 -41.6307 500.0339)" gradientUnits="userSpaceOnUse">
						<stop  offset="0" style="stop-color:#FFFFFF"/>
						<stop  offset="0.0242" style="stop-color:#F5F5F5"/>
						<stop  offset="0.1825" style="stop-color:#B6B6B6"/>
						<stop  offset="0.3392" style="stop-color:#808180"/>
						<stop  offset="0.4904" style="stop-color:#545554"/>
						<stop  offset="0.6352" style="stop-color:#323232"/>
						<stop  offset="0.7718" style="stop-color:#191A19"/>
						<stop  offset="0.8969" style="stop-color:#0A0B0A"/>
						<stop  offset="1" style="stop-color:#050605"/>
					</radialGradient>
					<path fill="url(#SVGID_25_)" d="M154.309,102.646c0.978,0.716,1.186,2.133,0.467,3.114c-0.734,1.005-2.128,1.21-3.106,0.494
						c-1.005-0.735-1.222-2.118-0.488-3.122C151.9,102.15,153.304,101.912,154.309,102.646z"/>
				</g>
			</mask>
			<path mask="url(#SVGID_24_)" fill="#FFFFFF" d="M154.309,102.646c0.978,0.716,1.186,2.133,0.467,3.114
				c-0.734,1.005-2.128,1.21-3.106,0.494c-1.005-0.735-1.222-2.118-0.488-3.122C151.9,102.15,153.304,101.912,154.309,102.646z"/>
		</g>
		<g>
			<defs>
				<filter id="Adobe_OpacityMaskFilter_9_" filterUnits="userSpaceOnUse" x="149.281" y="106.035" width="5.498" height="5.508">
					<feColorMatrix  type="matrix" values="1 0 0 0 0  0 1 0 0 0  0 0 1 0 0  0 0 0 1 0"/>
				</filter>
			</defs>
			<mask maskUnits="userSpaceOnUse" x="149.281" y="106.035" width="5.498" height="5.508" id="SVGID_26_">
				<g filter="url(#Adobe_OpacityMaskFilter_9_)">
					
						<radialGradient id="SVGID_27_" cx="430.1475" cy="-74.6592" r="2.7537" gradientTransform="matrix(0.5903 -0.8071 0.8071 0.5903 -41.6307 500.0339)" gradientUnits="userSpaceOnUse">
						<stop  offset="0" style="stop-color:#FFFFFF"/>
						<stop  offset="0.0242" style="stop-color:#F5F5F5"/>
						<stop  offset="0.1825" style="stop-color:#B6B6B6"/>
						<stop  offset="0.3392" style="stop-color:#808180"/>
						<stop  offset="0.4904" style="stop-color:#545554"/>
						<stop  offset="0.6352" style="stop-color:#323232"/>
						<stop  offset="0.7718" style="stop-color:#191A19"/>
						<stop  offset="0.8969" style="stop-color:#0A0B0A"/>
						<stop  offset="1" style="stop-color:#050605"/>
					</radialGradient>
					<path fill="url(#SVGID_27_)" d="M153.657,106.56c1.226,0.896,1.482,2.627,0.596,3.839c-0.905,1.236-2.63,1.516-3.856,0.619
						c-1.221-0.894-1.479-2.623-0.575-3.859C150.708,105.945,152.435,105.666,153.657,106.56z"/>
				</g>
			</mask>
			<path mask="url(#SVGID_26_)" fill="#FFFFFF" d="M153.657,106.56c1.226,0.896,1.482,2.627,0.596,3.839
				c-0.905,1.236-2.63,1.516-3.856,0.619c-1.221-0.894-1.479-2.623-0.575-3.859C150.708,105.945,152.435,105.666,153.657,106.56z"/>
			<defs>
				<filter id="Adobe_OpacityMaskFilter_10_" filterUnits="userSpaceOnUse" x="149.898" y="106.663" width="4.263" height="4.253">
					<feColorMatrix  type="matrix" values="1 0 0 0 0  0 1 0 0 0  0 0 1 0 0  0 0 0 1 0"/>
				</filter>
			</defs>
			<mask maskUnits="userSpaceOnUse" x="149.898" y="106.663" width="4.263" height="4.253" id="SVGID_28_">
				<g filter="url(#Adobe_OpacityMaskFilter_10_)">
					
						<radialGradient id="SVGID_29_" cx="430.1475" cy="-74.6592" r="2.1309" gradientTransform="matrix(0.5903 -0.8071 0.8071 0.5903 -41.6307 500.0339)" gradientUnits="userSpaceOnUse">
						<stop  offset="0" style="stop-color:#FFFFFF"/>
						<stop  offset="0.0242" style="stop-color:#F5F5F5"/>
						<stop  offset="0.1825" style="stop-color:#B6B6B6"/>
						<stop  offset="0.3392" style="stop-color:#808180"/>
						<stop  offset="0.4904" style="stop-color:#545554"/>
						<stop  offset="0.6352" style="stop-color:#323232"/>
						<stop  offset="0.7718" style="stop-color:#191A19"/>
						<stop  offset="0.8969" style="stop-color:#0A0B0A"/>
						<stop  offset="1" style="stop-color:#050605"/>
					</radialGradient>
					<path fill="url(#SVGID_29_)" d="M153.279,107.076c0.954,0.697,1.164,2.038,0.485,2.965c-0.695,0.953-2.036,1.159-2.99,0.461
						c-0.953-0.695-1.159-2.035-0.464-2.987C150.988,106.588,152.328,106.38,153.279,107.076z"/>
				</g>
			</mask>
			<path opacity="0.6" mask="url(#SVGID_28_)" fill="#FFFFFF" d="M153.279,107.076c0.954,0.697,1.164,2.038,0.485,2.965
				c-0.695,0.953-2.036,1.159-2.99,0.461c-0.953-0.695-1.159-2.035-0.464-2.987C150.988,106.588,152.328,106.38,153.279,107.076z"/>
		</g>
	</g>
	<g>
		<defs>
			<filter id="Adobe_OpacityMaskFilter_11_" filterUnits="userSpaceOnUse" x="153.076" y="90.494" width="7.325" height="5.369">
				<feColorMatrix  type="matrix" values="1 0 0 0 0  0 1 0 0 0  0 0 1 0 0  0 0 0 1 0"/>
			</filter>
		</defs>
		<mask maskUnits="userSpaceOnUse" x="153.076" y="90.494" width="7.325" height="5.369" id="SVGID_30_">
			<g filter="url(#Adobe_OpacityMaskFilter_11_)">
				
					<linearGradient id="SVGID_31_" gradientUnits="userSpaceOnUse" x1="447.5806" y1="-81.9639" x2="443.5193" y2="-78.2262" gradientTransform="matrix(0.5903 -0.8071 0.8071 0.5903 -41.6307 500.0339)">
					<stop  offset="0" style="stop-color:#FFFFFF"/>
					<stop  offset="1" style="stop-color:#0A0B08"/>
				</linearGradient>
				<path fill="url(#SVGID_31_)" d="M156.447,90.53c1.996-0.242,3.762,0.772,3.94,2.21c0.169,1.47-1.308,2.843-3.349,3.087
					c-1.996,0.241-3.768-0.739-3.951-2.217C152.929,92.148,154.431,90.799,156.447,90.53z"/>
			</g>
		</mask>
		<path opacity="0.5" mask="url(#SVGID_30_)" fill="#FFFFFF" d="M156.447,90.53c1.996-0.242,3.762,0.772,3.94,2.21
			c0.169,1.47-1.308,2.843-3.349,3.087c-1.996,0.241-3.768-0.739-3.951-2.217C152.929,92.148,154.431,90.799,156.447,90.53z"/>
		<g>
			<defs>
				<filter id="Adobe_OpacityMaskFilter_12_" filterUnits="userSpaceOnUse" x="154.255" y="91.327" width="3.055" height="3.056">
					<feColorMatrix  type="matrix" values="1 0 0 0 0  0 1 0 0 0  0 0 1 0 0  0 0 0 1 0"/>
				</filter>
			</defs>
			<mask maskUnits="userSpaceOnUse" x="154.255" y="91.327" width="3.055" height="3.056" id="SVGID_32_">
				<g filter="url(#Adobe_OpacityMaskFilter_12_)">
					
						<radialGradient id="SVGID_33_" cx="445.2305" cy="-81.0449" r="1.5312" gradientTransform="matrix(0.5903 -0.8071 0.8071 0.5903 -41.6307 500.0339)" gradientUnits="userSpaceOnUse">
						<stop  offset="0" style="stop-color:#FFFFFF"/>
						<stop  offset="0.0242" style="stop-color:#F5F5F5"/>
						<stop  offset="0.1825" style="stop-color:#B6B6B6"/>
						<stop  offset="0.3392" style="stop-color:#808180"/>
						<stop  offset="0.4904" style="stop-color:#545554"/>
						<stop  offset="0.6352" style="stop-color:#323232"/>
						<stop  offset="0.7718" style="stop-color:#191A19"/>
						<stop  offset="0.8969" style="stop-color:#0A0B0A"/>
						<stop  offset="1" style="stop-color:#050605"/>
					</radialGradient>
					<path fill="url(#SVGID_33_)" d="M156.696,91.622c0.684,0.499,0.807,1.462,0.318,2.131c-0.491,0.67-1.442,0.841-2.126,0.341
						c-0.683-0.501-0.836-1.479-0.346-2.15C155.032,91.275,156.013,91.122,156.696,91.622z"/>
				</g>
			</mask>
			<path mask="url(#SVGID_32_)" fill="#FFFFFF" d="M156.696,91.622c0.684,0.499,0.807,1.462,0.318,2.131
				c-0.491,0.67-1.442,0.841-2.126,0.341c-0.683-0.501-0.836-1.479-0.346-2.15C155.032,91.275,156.013,91.122,156.696,91.622z"/>
			<defs>
				<filter id="Adobe_OpacityMaskFilter_13_" filterUnits="userSpaceOnUse" x="153.804" y="90.874" width="3.955" height="3.956">
					<feColorMatrix  type="matrix" values="1 0 0 0 0  0 1 0 0 0  0 0 1 0 0  0 0 0 1 0"/>
				</filter>
			</defs>
			<mask maskUnits="userSpaceOnUse" x="153.804" y="90.874" width="3.955" height="3.956" id="SVGID_34_">
				<g filter="url(#Adobe_OpacityMaskFilter_13_)">
					
						<radialGradient id="SVGID_35_" cx="445.2295" cy="-81.0439" r="1.9795" gradientTransform="matrix(0.5903 -0.8071 0.8071 0.5903 -41.6307 500.0339)" gradientUnits="userSpaceOnUse">
						<stop  offset="0" style="stop-color:#FFFFFF"/>
						<stop  offset="0.0242" style="stop-color:#F5F5F5"/>
						<stop  offset="0.1825" style="stop-color:#B6B6B6"/>
						<stop  offset="0.3392" style="stop-color:#808180"/>
						<stop  offset="0.4904" style="stop-color:#545554"/>
						<stop  offset="0.6352" style="stop-color:#323232"/>
						<stop  offset="0.7718" style="stop-color:#191A19"/>
						<stop  offset="0.8969" style="stop-color:#0A0B0A"/>
						<stop  offset="1" style="stop-color:#050605"/>
					</radialGradient>
					<path fill="url(#SVGID_35_)" d="M156.961,91.262c0.874,0.639,1.057,1.879,0.416,2.755c-0.64,0.876-1.879,1.079-2.752,0.44
						c-0.892-0.653-1.083-1.902-0.442-2.777C154.822,90.805,156.07,90.608,156.961,91.262z"/>
				</g>
			</mask>
			<path mask="url(#SVGID_34_)" fill="#FFFFFF" d="M156.961,91.262c0.874,0.639,1.057,1.879,0.416,2.755
				c-0.64,0.876-1.879,1.079-2.752,0.44c-0.892-0.653-1.083-1.902-0.442-2.777C154.822,90.805,156.07,90.608,156.961,91.262z"/>
		</g>
		<g>
			<defs>
				<filter id="Adobe_OpacityMaskFilter_14_" filterUnits="userSpaceOnUse" x="152.502" y="94.25" width="4.909" height="4.914">
					<feColorMatrix  type="matrix" values="1 0 0 0 0  0 1 0 0 0  0 0 1 0 0  0 0 0 1 0"/>
				</filter>
			</defs>
			<mask maskUnits="userSpaceOnUse" x="152.502" y="94.25" width="4.909" height="4.914" id="SVGID_36_">
				<g filter="url(#Adobe_OpacityMaskFilter_14_)">
					
						<radialGradient id="SVGID_37_" cx="441.623" cy="-79.4229" r="2.4536" gradientTransform="matrix(0.5903 -0.8071 0.8071 0.5903 -41.6307 500.0339)" gradientUnits="userSpaceOnUse">
						<stop  offset="0" style="stop-color:#FFFFFF"/>
						<stop  offset="0.0242" style="stop-color:#F5F5F5"/>
						<stop  offset="0.1825" style="stop-color:#B6B6B6"/>
						<stop  offset="0.3392" style="stop-color:#808180"/>
						<stop  offset="0.4904" style="stop-color:#545554"/>
						<stop  offset="0.6352" style="stop-color:#323232"/>
						<stop  offset="0.7718" style="stop-color:#191A19"/>
						<stop  offset="0.8969" style="stop-color:#0A0B0A"/>
						<stop  offset="1" style="stop-color:#050605"/>
					</radialGradient>
					<path fill="url(#SVGID_37_)" d="M156.4,94.728c1.094,0.8,1.345,2.327,0.534,3.435c-0.792,1.082-2.341,1.331-3.435,0.531
						c-1.106-0.809-1.311-2.342-0.52-3.424C153.79,94.162,155.294,93.918,156.4,94.728z"/>
				</g>
			</mask>
			<path mask="url(#SVGID_36_)" fill="#FFFFFF" d="M156.4,94.728c1.094,0.8,1.345,2.327,0.534,3.435
				c-0.792,1.082-2.341,1.331-3.435,0.531c-1.106-0.809-1.311-2.342-0.52-3.424C153.79,94.162,155.294,93.918,156.4,94.728z"/>
			<defs>
				<filter id="Adobe_OpacityMaskFilter_15_" filterUnits="userSpaceOnUse" x="153.041" y="94.794" width="3.802" height="3.802">
					<feColorMatrix  type="matrix" values="1 0 0 0 0  0 1 0 0 0  0 0 1 0 0  0 0 0 1 0"/>
				</filter>
			</defs>
			<mask maskUnits="userSpaceOnUse" x="153.041" y="94.794" width="3.802" height="3.802" id="SVGID_38_">
				<g filter="url(#Adobe_OpacityMaskFilter_15_)">
					
						<radialGradient id="SVGID_39_" cx="441.6377" cy="-79.4492" r="1.8987" gradientTransform="matrix(0.5903 -0.8071 0.8071 0.5903 -41.6307 500.0339)" gradientUnits="userSpaceOnUse">
						<stop  offset="0" style="stop-color:#FFFFFF"/>
						<stop  offset="0.0242" style="stop-color:#F5F5F5"/>
						<stop  offset="0.1825" style="stop-color:#B6B6B6"/>
						<stop  offset="0.3392" style="stop-color:#808180"/>
						<stop  offset="0.4904" style="stop-color:#545554"/>
						<stop  offset="0.6352" style="stop-color:#323232"/>
						<stop  offset="0.7718" style="stop-color:#191A19"/>
						<stop  offset="0.8969" style="stop-color:#0A0B0A"/>
						<stop  offset="1" style="stop-color:#050605"/>
					</radialGradient>
					<path fill="url(#SVGID_39_)" d="M156.08,95.166c0.836,0.612,1.013,1.805,0.391,2.655c-0.622,0.85-1.797,1.022-2.633,0.41
						c-0.862-0.63-1.054-1.801-0.432-2.651C154.027,94.729,155.217,94.535,156.08,95.166z"/>
				</g>
			</mask>
			<path opacity="0.6" mask="url(#SVGID_38_)" fill="#FFFFFF" d="M156.08,95.166c0.836,0.612,1.013,1.805,0.391,2.655
				c-0.622,0.85-1.797,1.022-2.633,0.41c-0.862-0.63-1.054-1.801-0.432-2.651C154.027,94.729,155.217,94.535,156.08,95.166z"/>
		</g>
	</g>
	<g>
		<defs>
			<filter id="Adobe_OpacityMaskFilter_16_" filterUnits="userSpaceOnUse" x="153.863" y="108.379" width="2.342" height="2.122">
				<feColorMatrix  type="matrix" values="1 0 0 0 0  0 1 0 0 0  0 0 1 0 0  0 0 0 1 0"/>
			</filter>
		</defs>
		<mask maskUnits="userSpaceOnUse" x="153.863" y="108.379" width="2.342" height="2.122" id="SVGID_40_">
			<g filter="url(#Adobe_OpacityMaskFilter_16_)">
				
					<radialGradient id="SVGID_41_" cx="1208.5234" cy="599.6445" r="1.2061" gradientTransform="matrix(0.9639 -0.2297 0.1355 0.8463 -1091.1184 -120.4462)" gradientUnits="userSpaceOnUse">
					<stop  offset="0" style="stop-color:#FFFFFF"/>
					<stop  offset="0.0862" style="stop-color:#F5F5F5"/>
					<stop  offset="0.2312" style="stop-color:#DBDBDB"/>
					<stop  offset="0.4172" style="stop-color:#B1B1B1"/>
					<stop  offset="0.6369" style="stop-color:#767676"/>
					<stop  offset="0.8822" style="stop-color:#2B2C2B"/>
					<stop  offset="1" style="stop-color:#050605"/>
				</radialGradient>
				<path fill="url(#SVGID_41_)" d="M156.187,109.16c0.116,0.601-0.327,1.15-0.989,1.299c-0.637,0.166-1.213-0.179-1.323-0.732
					c-0.091-0.579,0.367-1.154,1.004-1.321C155.524,108.281,156.123,108.601,156.187,109.16z"/>
			</g>
		</mask>
		<path opacity="0.76" mask="url(#SVGID_40_)" fill="#F16624" d="M156.187,109.16c0.116,0.601-0.327,1.15-0.989,1.299
			c-0.637,0.166-1.213-0.179-1.323-0.732c-0.091-0.579,0.367-1.154,1.004-1.321C155.524,108.281,156.123,108.601,156.187,109.16z"/>
		<path opacity="0.2" fill="#F26B28" d="M155.497,108.697c0.358,0.186,0.468,0.655,0.203,1.019c-0.257,0.408-0.76,0.554-1.125,0.403
			c-0.344-0.173-0.44-0.64-0.203-1.021C154.643,108.705,155.149,108.525,155.497,108.697z"/>
		<path opacity="0.2" fill="#F26B28" d="M155.421,108.801c0.318,0.156,0.384,0.561,0.171,0.877
			c-0.216,0.314-0.645,0.475-0.943,0.338c-0.303-0.181-0.369-0.547-0.157-0.865C154.691,108.822,155.127,108.664,155.421,108.801z"
			/>
		<defs>
			<filter id="Adobe_OpacityMaskFilter_17_" filterUnits="userSpaceOnUse" x="154.294" y="108.663" width="1.616" height="1.05">
				<feColorMatrix  type="matrix" values="1 0 0 0 0  0 1 0 0 0  0 0 1 0 0  0 0 0 1 0"/>
			</filter>
		</defs>
		<mask maskUnits="userSpaceOnUse" x="154.294" y="108.663" width="1.616" height="1.05" id="SVGID_42_">
			<g filter="url(#Adobe_OpacityMaskFilter_17_)">
				
					<radialGradient id="SVGID_43_" cx="1213.4814" cy="1179.7949" r="0.8301" gradientTransform="matrix(0.9644 -0.2263 0.0927 0.5949 -1124.5448 -318.0586)" gradientUnits="userSpaceOnUse">
					<stop  offset="0" style="stop-color:#FFFFFF"/>
					<stop  offset="0.0242" style="stop-color:#F5F5F5"/>
					<stop  offset="0.1825" style="stop-color:#B6B6B6"/>
					<stop  offset="0.3392" style="stop-color:#808180"/>
					<stop  offset="0.4904" style="stop-color:#545554"/>
					<stop  offset="0.6352" style="stop-color:#323232"/>
					<stop  offset="0.7718" style="stop-color:#191A19"/>
					<stop  offset="0.8969" style="stop-color:#0A0B0A"/>
					<stop  offset="1" style="stop-color:#050605"/>
				</radialGradient>
				<path fill="url(#SVGID_43_)" d="M155.909,108.999c0.027,0.257-0.3,0.571-0.737,0.686c-0.42,0.089-0.807-0.035-0.875-0.323
					c-0.028-0.256,0.291-0.58,0.723-0.658C155.456,108.591,155.854,108.723,155.909,108.999z"/>
			</g>
		</mask>
		<path mask="url(#SVGID_42_)" fill="#FFFFFF" d="M155.909,108.999c0.027,0.257-0.3,0.571-0.737,0.686
			c-0.42,0.089-0.807-0.035-0.875-0.323c-0.028-0.256,0.291-0.58,0.723-0.658C155.456,108.591,155.854,108.723,155.909,108.999z"/>
		<defs>
			<filter id="Adobe_OpacityMaskFilter_18_" filterUnits="userSpaceOnUse" x="154.25" y="109.253" width="1.593" height="1.042">
				<feColorMatrix  type="matrix" values="1 0 0 0 0  0 1 0 0 0  0 0 1 0 0  0 0 0 1 0"/>
			</filter>
		</defs>
		<mask maskUnits="userSpaceOnUse" x="154.25" y="109.253" width="1.593" height="1.042" id="SVGID_44_">
			<g filter="url(#Adobe_OpacityMaskFilter_18_)">
				
					<radialGradient id="SVGID_45_" cx="1207.8486" cy="1180.4473" r="0.8218" gradientTransform="matrix(0.9639 -0.2297 0.0952 0.5943 -1121.5757 -314.3175)" gradientUnits="userSpaceOnUse">
					<stop  offset="0" style="stop-color:#FFFFFF"/>
					<stop  offset="0.0862" style="stop-color:#F5F5F5"/>
					<stop  offset="0.2312" style="stop-color:#DBDBDB"/>
					<stop  offset="0.4172" style="stop-color:#B1B1B1"/>
					<stop  offset="0.6369" style="stop-color:#767676"/>
					<stop  offset="0.8822" style="stop-color:#2B2C2B"/>
					<stop  offset="1" style="stop-color:#050605"/>
				</radialGradient>
				<path fill="url(#SVGID_45_)" d="M155.839,109.58c0.041,0.268-0.274,0.591-0.693,0.681c-0.452,0.103-0.852-0.03-0.893-0.298
					c-0.041-0.267,0.287-0.581,0.71-0.67C155.399,109.182,155.797,109.313,155.839,109.58z"/>
			</g>
		</mask>
		<path opacity="0.3" mask="url(#SVGID_44_)" fill="#050605" d="M155.839,109.58c0.041,0.268-0.274,0.591-0.693,0.681
			c-0.452,0.103-0.852-0.03-0.893-0.298c-0.041-0.267,0.287-0.581,0.71-0.67C155.399,109.182,155.797,109.313,155.839,109.58z"/>
	</g>
	<g>
		<defs>
			<filter id="Adobe_OpacityMaskFilter_19_" filterUnits="userSpaceOnUse" x="158.63" y="93.529" width="1.697" height="1.972">
				<feColorMatrix  type="matrix" values="1 0 0 0 0  0 1 0 0 0  0 0 1 0 0  0 0 0 1 0"/>
			</filter>
		</defs>
		<mask maskUnits="userSpaceOnUse" x="158.63" y="93.529" width="1.697" height="1.972" id="SVGID_46_">
			<g filter="url(#Adobe_OpacityMaskFilter_19_)">
				
					<radialGradient id="SVGID_47_" cx="2656.0234" cy="-964.7852" r="0.9819" gradientTransform="matrix(-0.1102 0.9835 -0.858 -0.188 -375.6147 -2699.0649)" gradientUnits="userSpaceOnUse">
					<stop  offset="0" style="stop-color:#FFFFFF"/>
					<stop  offset="0.0862" style="stop-color:#F5F5F5"/>
					<stop  offset="0.2312" style="stop-color:#DBDBDB"/>
					<stop  offset="0.4172" style="stop-color:#B1B1B1"/>
					<stop  offset="0.6369" style="stop-color:#767676"/>
					<stop  offset="0.8822" style="stop-color:#2B2C2B"/>
					<stop  offset="1" style="stop-color:#050605"/>
				</radialGradient>
				<path fill="url(#SVGID_47_)" d="M159.385,95.486c-0.474-0.109-0.804-0.629-0.749-1.14c0.066-0.548,0.499-0.899,0.961-0.801
					c0.461,0.101,0.794,0.62,0.719,1.157C160.258,95.214,159.833,95.578,159.385,95.486z"/>
			</g>
		</mask>
		<path opacity="0.76" mask="url(#SVGID_46_)" fill="#F16624" d="M159.385,95.486c-0.474-0.109-0.804-0.629-0.749-1.14
			c0.066-0.548,0.499-0.899,0.961-0.801c0.461,0.101,0.794,0.62,0.719,1.157C160.258,95.214,159.833,95.578,159.385,95.486z"/>
		<path opacity="0.2" fill="#F26B28" d="M159.917,95.085c-0.238,0.219-0.604,0.149-0.827-0.17c-0.239-0.292-0.225-0.72,0.003-0.947
			c0.24-0.221,0.605-0.151,0.842,0.143C160.158,94.431,160.156,94.862,159.917,95.085z"/>
		<path opacity="0.2" fill="#F26B28" d="M159.859,95.001c-0.203,0.17-0.531,0.13-0.7-0.152c-0.206-0.233-0.217-0.597,0.004-0.789
			c0.207-0.204,0.514-0.138,0.703,0.118C160.068,94.442,160.056,94.79,159.859,95.001z"/>
		<defs>
			<filter id="Adobe_OpacityMaskFilter_20_" filterUnits="userSpaceOnUse" x="159.274" y="93.985" width="0.802" height="1.304">
				<feColorMatrix  type="matrix" values="1 0 0 0 0  0 1 0 0 0  0 0 1 0 0  0 0 0 1 0"/>
			</filter>
		</defs>
		<mask maskUnits="userSpaceOnUse" x="159.274" y="93.985" width="0.802" height="1.304" id="SVGID_48_">
			<g filter="url(#Adobe_OpacityMaskFilter_20_)">
				
					<radialGradient id="SVGID_49_" cx="2655.6504" cy="-1051.4863" r="0.6521" gradientTransform="matrix(-0.1134 0.9828 -0.6022 -0.1346 -172.3828 -2656.8606)" gradientUnits="userSpaceOnUse">
					<stop  offset="0" style="stop-color:#FFFFFF"/>
					<stop  offset="0.0242" style="stop-color:#F5F5F5"/>
					<stop  offset="0.1825" style="stop-color:#B6B6B6"/>
					<stop  offset="0.3392" style="stop-color:#808180"/>
					<stop  offset="0.4904" style="stop-color:#545554"/>
					<stop  offset="0.6352" style="stop-color:#323232"/>
					<stop  offset="0.7718" style="stop-color:#191A19"/>
					<stop  offset="0.8969" style="stop-color:#0A0B0A"/>
					<stop  offset="1" style="stop-color:#050605"/>
				</radialGradient>
				<path fill="url(#SVGID_49_)" d="M159.592,95.283c-0.224-0.045-0.355-0.379-0.309-0.74c0.016-0.344,0.236-0.618,0.44-0.546
					c0.224,0.045,0.4,0.369,0.34,0.723C160.032,95.091,159.815,95.328,159.592,95.283z"/>
			</g>
		</mask>
		<path mask="url(#SVGID_48_)" fill="#FFFFFF" d="M159.592,95.283c-0.224-0.045-0.355-0.379-0.309-0.74
			c0.016-0.344,0.236-0.618,0.44-0.546c0.224,0.045,0.4,0.369,0.34,0.723C160.032,95.091,159.815,95.328,159.592,95.283z"/>
		<defs>
			<filter id="Adobe_OpacityMaskFilter_21_" filterUnits="userSpaceOnUse" x="158.821" y="93.759" width="0.811" height="1.332">
				<feColorMatrix  type="matrix" values="1 0 0 0 0  0 1 0 0 0  0 0 1 0 0  0 0 0 1 0"/>
			</filter>
		</defs>
		<mask maskUnits="userSpaceOnUse" x="158.821" y="93.759" width="0.811" height="1.332" id="SVGID_50_">
			<g filter="url(#Adobe_OpacityMaskFilter_21_)">
				
					<radialGradient id="SVGID_51_" cx="2655.9863" cy="-1045.5469" r="0.6658" gradientTransform="matrix(-0.1102 0.9835 -0.6024 -0.132 -177.9225 -2655.7502)" gradientUnits="userSpaceOnUse">
					<stop  offset="0" style="stop-color:#FFFFFF"/>
					<stop  offset="0.0862" style="stop-color:#F5F5F5"/>
					<stop  offset="0.2312" style="stop-color:#DBDBDB"/>
					<stop  offset="0.4172" style="stop-color:#B1B1B1"/>
					<stop  offset="0.6369" style="stop-color:#767676"/>
					<stop  offset="0.8822" style="stop-color:#2B2C2B"/>
					<stop  offset="1" style="stop-color:#050605"/>
				</radialGradient>
				<path fill="url(#SVGID_51_)" d="M159.163,95.088c-0.237-0.055-0.38-0.397-0.333-0.76c0.034-0.37,0.247-0.61,0.47-0.563
					c0.237,0.055,0.369,0.386,0.322,0.748C159.589,94.885,159.374,95.122,159.163,95.088z"/>
			</g>
		</mask>
		<path opacity="0.3" mask="url(#SVGID_50_)" fill="#050605" d="M159.163,95.088c-0.237-0.055-0.38-0.397-0.333-0.76
			c0.034-0.37,0.247-0.61,0.47-0.563c0.237,0.055,0.369,0.386,0.322,0.748C159.589,94.885,159.374,95.122,159.163,95.088z"/>
	</g>
	
		<radialGradient id="SVGID_52_" cx="444.3579" cy="-73" r="9.3588" gradientTransform="matrix(0.5903 -0.8071 0.8071 0.5903 -41.6307 500.032)" gradientUnits="userSpaceOnUse">
		<stop  offset="0.0056" style="stop-color:#FFFFFF"/>
		<stop  offset="0.3933" style="stop-color:#F6935E"/>
		<stop  offset="0.764" style="stop-color:#F47E3F"/>
		<stop  offset="1" style="stop-color:#F68F58"/>
	</radialGradient>
	<path fill="url(#SVGID_52_)" d="M165.407,96.771c2.681,1.96,3.263,5.706,1.302,8.385c-1.96,2.68-5.706,3.262-8.385,1.302
		c-2.679-1.96-3.274-5.716-1.315-8.396C158.968,95.382,162.729,94.811,165.407,96.771z"/>
	<defs>
		<filter id="Adobe_OpacityMaskFilter_22_" filterUnits="userSpaceOnUse" x="157.21" y="96.114" width="8.846" height="6.476">
			<feColorMatrix  type="matrix" values="1 0 0 0 0  0 1 0 0 0  0 0 1 0 0  0 0 0 1 0"/>
		</filter>
	</defs>
	<mask maskUnits="userSpaceOnUse" x="157.21" y="96.114" width="8.846" height="6.476" id="SVGID_53_">
		<g filter="url(#Adobe_OpacityMaskFilter_22_)">
			
				<linearGradient id="SVGID_54_" gradientUnits="userSpaceOnUse" x1="445.9141" y1="-74.7617" x2="441.0093" y2="-70.2477" gradientTransform="matrix(0.5903 -0.8071 0.8071 0.5903 -41.6307 500.0339)">
				<stop  offset="0" style="stop-color:#FFFFFF"/>
				<stop  offset="1" style="stop-color:#0A0B08"/>
			</linearGradient>
			<path fill="url(#SVGID_54_)" d="M161.268,96.153c2.437-0.273,4.551,0.918,4.771,2.697c0.211,1.736-1.607,3.413-4.03,3.697
				c-2.422,0.284-4.58-0.899-4.785-2.673C157.029,98.112,158.85,96.437,161.268,96.153z"/>
		</g>
	</mask>
	<path opacity="0.5" mask="url(#SVGID_53_)" fill="#FFFFFF" d="M161.268,96.153c2.437-0.273,4.551,0.918,4.771,2.697
		c0.211,1.736-1.607,3.413-4.03,3.697c-2.422,0.284-4.58-0.899-4.785-2.673C157.029,98.112,158.85,96.437,161.268,96.153z"/>
	<g>
		<defs>
			<filter id="Adobe_OpacityMaskFilter_23_" filterUnits="userSpaceOnUse" x="158.626" y="97.107" width="3.712" height="3.705">
				<feColorMatrix  type="matrix" values="1 0 0 0 0  0 1 0 0 0  0 0 1 0 0  0 0 0 1 0"/>
			</filter>
		</defs>
		<mask maskUnits="userSpaceOnUse" x="158.626" y="97.107" width="3.712" height="3.705" id="SVGID_55_">
			<g filter="url(#Adobe_OpacityMaskFilter_23_)">
				
					<radialGradient id="SVGID_56_" cx="443.0591" cy="-73.6465" r="1.8557" gradientTransform="matrix(0.5903 -0.8071 0.8071 0.5903 -41.6307 500.0339)" gradientUnits="userSpaceOnUse">
					<stop  offset="0" style="stop-color:#FFFFFF"/>
					<stop  offset="0.0242" style="stop-color:#F5F5F5"/>
					<stop  offset="0.1825" style="stop-color:#B6B6B6"/>
					<stop  offset="0.3392" style="stop-color:#808180"/>
					<stop  offset="0.4904" style="stop-color:#545554"/>
					<stop  offset="0.6352" style="stop-color:#323232"/>
					<stop  offset="0.7718" style="stop-color:#191A19"/>
					<stop  offset="0.8969" style="stop-color:#0A0B0A"/>
					<stop  offset="1" style="stop-color:#050605"/>
				</radialGradient>
				<path fill="url(#SVGID_56_)" d="M161.565,97.478c0.828,0.605,1.027,1.738,0.424,2.562c-0.602,0.823-1.781,1.03-2.608,0.425
					c-0.824-0.603-0.998-1.8-0.395-2.622C159.587,97.019,160.741,96.874,161.565,97.478z"/>
			</g>
		</mask>
		<path mask="url(#SVGID_55_)" fill="#FFFFFF" d="M161.565,97.478c0.828,0.605,1.027,1.738,0.424,2.562
			c-0.602,0.823-1.781,1.03-2.608,0.425c-0.824-0.603-0.998-1.8-0.395-2.622C159.587,97.019,160.741,96.874,161.565,97.478z"/>
		<defs>
			<filter id="Adobe_OpacityMaskFilter_24_" filterUnits="userSpaceOnUse" x="158.091" y="96.561" width="4.788" height="4.798">
				<feColorMatrix  type="matrix" values="1 0 0 0 0  0 1 0 0 0  0 0 1 0 0  0 0 0 1 0"/>
			</filter>
		</defs>
		<mask maskUnits="userSpaceOnUse" x="158.091" y="96.561" width="4.788" height="4.798" id="SVGID_57_">
			<g filter="url(#Adobe_OpacityMaskFilter_24_)">
				
					<radialGradient id="SVGID_58_" cx="443.0732" cy="-73.6396" r="2.3999" gradientTransform="matrix(0.5903 -0.8071 0.8071 0.5903 -41.6307 500.0339)" gradientUnits="userSpaceOnUse">
					<stop  offset="0" style="stop-color:#FFFFFF"/>
					<stop  offset="0.0242" style="stop-color:#F5F5F5"/>
					<stop  offset="0.1825" style="stop-color:#B6B6B6"/>
					<stop  offset="0.3392" style="stop-color:#808180"/>
					<stop  offset="0.4904" style="stop-color:#545554"/>
					<stop  offset="0.6352" style="stop-color:#323232"/>
					<stop  offset="0.7718" style="stop-color:#191A19"/>
					<stop  offset="0.8969" style="stop-color:#0A0B0A"/>
					<stop  offset="1" style="stop-color:#050605"/>
				</radialGradient>
				<path fill="url(#SVGID_58_)" d="M161.903,97.016c1.059,0.773,1.292,2.286,0.521,3.34c-0.793,1.087-2.306,1.321-3.364,0.549
					c-1.056-0.773-1.291-2.287-0.497-3.372C159.333,96.478,160.848,96.243,161.903,97.016z"/>
			</g>
		</mask>
		<path mask="url(#SVGID_57_)" fill="#FFFFFF" d="M161.903,97.016c1.059,0.773,1.292,2.286,0.521,3.34
			c-0.793,1.087-2.306,1.321-3.364,0.549c-1.056-0.773-1.291-2.287-0.497-3.372C159.333,96.478,160.848,96.243,161.903,97.016z"/>
	</g>
	<g>
		<defs>
			<filter id="Adobe_OpacityMaskFilter_25_" filterUnits="userSpaceOnUse" x="156.488" y="100.646" width="5.949" height="5.944">
				<feColorMatrix  type="matrix" values="1 0 0 0 0  0 1 0 0 0  0 0 1 0 0  0 0 0 1 0"/>
			</filter>
		</defs>
		<mask maskUnits="userSpaceOnUse" x="156.488" y="100.646" width="5.949" height="5.944" id="SVGID_59_">
			<g filter="url(#Adobe_OpacityMaskFilter_25_)">
				
					<radialGradient id="SVGID_60_" cx="438.7168" cy="-71.7158" r="2.9722" gradientTransform="matrix(0.5903 -0.8071 0.8071 0.5903 -41.6307 500.0339)" gradientUnits="userSpaceOnUse">
					<stop  offset="0" style="stop-color:#FFFFFF"/>
					<stop  offset="0.0242" style="stop-color:#F5F5F5"/>
					<stop  offset="0.1825" style="stop-color:#B6B6B6"/>
					<stop  offset="0.3392" style="stop-color:#808180"/>
					<stop  offset="0.4904" style="stop-color:#545554"/>
					<stop  offset="0.6352" style="stop-color:#323232"/>
					<stop  offset="0.7718" style="stop-color:#191A19"/>
					<stop  offset="0.8969" style="stop-color:#0A0B0A"/>
					<stop  offset="1" style="stop-color:#050605"/>
				</radialGradient>
				<path fill="url(#SVGID_60_)" d="M161.222,101.221c1.328,0.972,1.604,2.834,0.644,4.146c-0.979,1.341-2.821,1.618-4.148,0.646
					c-1.326-0.969-1.635-2.819-0.656-4.159C158.023,100.542,159.897,100.251,161.222,101.221z"/>
			</g>
		</mask>
		<path mask="url(#SVGID_59_)" fill="#FFFFFF" d="M161.222,101.221c1.328,0.972,1.604,2.834,0.644,4.146
			c-0.979,1.341-2.821,1.618-4.148,0.646c-1.326-0.969-1.635-2.819-0.656-4.159C158.023,100.542,159.897,100.251,161.222,101.221z"
			/>
		<defs>
			<filter id="Adobe_OpacityMaskFilter_26_" filterUnits="userSpaceOnUse" x="157.163" y="101.313" width="4.597" height="4.597">
				<feColorMatrix  type="matrix" values="1 0 0 0 0  0 1 0 0 0  0 0 1 0 0  0 0 0 1 0"/>
			</filter>
		</defs>
		<mask maskUnits="userSpaceOnUse" x="157.163" y="101.313" width="4.597" height="4.597" id="SVGID_61_">
			<g filter="url(#Adobe_OpacityMaskFilter_26_)">
				
					<radialGradient id="SVGID_62_" cx="438.7192" cy="-71.7246" r="2.2991" gradientTransform="matrix(0.5903 -0.8071 0.8071 0.5903 -41.6307 500.0339)" gradientUnits="userSpaceOnUse">
					<stop  offset="0" style="stop-color:#FFFFFF"/>
					<stop  offset="0.0242" style="stop-color:#F5F5F5"/>
					<stop  offset="0.1825" style="stop-color:#B6B6B6"/>
					<stop  offset="0.3392" style="stop-color:#808180"/>
					<stop  offset="0.4904" style="stop-color:#545554"/>
					<stop  offset="0.6352" style="stop-color:#323232"/>
					<stop  offset="0.7718" style="stop-color:#191A19"/>
					<stop  offset="0.8969" style="stop-color:#0A0B0A"/>
					<stop  offset="1" style="stop-color:#050605"/>
				</radialGradient>
				<path fill="url(#SVGID_62_)" d="M160.829,101.76c1.018,0.745,1.235,2.174,0.484,3.202c-0.755,1.032-2.181,1.253-3.2,0.508
					c-1.018-0.744-1.266-2.19-0.511-3.222C158.354,101.221,159.81,101.015,160.829,101.76z"/>
			</g>
		</mask>
		<path opacity="0.6" mask="url(#SVGID_61_)" fill="#FFFFFF" d="M160.829,101.76c1.018,0.745,1.235,2.174,0.484,3.202
			c-0.755,1.032-2.181,1.253-3.2,0.508c-1.018-0.744-1.266-2.19-0.511-3.222C158.354,101.221,159.81,101.015,160.829,101.76z"/>
	</g>
	<g>
		<defs>
			<filter id="Adobe_OpacityMaskFilter_27_" filterUnits="userSpaceOnUse" x="163.503" y="100.544" width="2.379" height="2.577">
				<feColorMatrix  type="matrix" values="1 0 0 0 0  0 1 0 0 0  0 0 1 0 0  0 0 0 1 0"/>
			</filter>
		</defs>
		<mask maskUnits="userSpaceOnUse" x="163.503" y="100.544" width="2.379" height="2.577" id="SVGID_63_">
			<g filter="url(#Adobe_OpacityMaskFilter_27_)">
				
					<radialGradient id="SVGID_64_" cx="388.2808" cy="-126.2217" r="1.3042" gradientTransform="matrix(0.4937 -0.8639 0.7728 0.4825 70.5521 498.1826)" gradientUnits="userSpaceOnUse">
					<stop  offset="0" style="stop-color:#FFFFFF"/>
					<stop  offset="0.0862" style="stop-color:#F5F5F5"/>
					<stop  offset="0.2312" style="stop-color:#DBDBDB"/>
					<stop  offset="0.4172" style="stop-color:#B1B1B1"/>
					<stop  offset="0.6369" style="stop-color:#767676"/>
					<stop  offset="0.8822" style="stop-color:#2B2C2B"/>
					<stop  offset="1" style="stop-color:#050605"/>
				</radialGradient>
				<path fill="url(#SVGID_64_)" d="M165.336,100.708c0.543,0.361,0.702,1.146,0.384,1.745c-0.384,0.63-1.114,0.847-1.679,0.511
					c-0.549-0.361-0.705-1.147-0.341-1.751C164.038,100.592,164.801,100.356,165.336,100.708z"/>
			</g>
		</mask>
		<path opacity="0.76" mask="url(#SVGID_63_)" fill="#F16624" d="M165.336,100.708c0.543,0.361,0.702,1.146,0.384,1.745
			c-0.384,0.63-1.114,0.847-1.679,0.511c-0.549-0.361-0.705-1.147-0.341-1.751C164.038,100.592,164.801,100.356,165.336,100.708z"/>
		<path opacity="0.2" fill="#F26B28" d="M164.398,100.934c0.432-0.16,0.895,0.098,1.042,0.604c0.152,0.466-0.096,0.995-0.526,1.154
			c-0.435,0.158-0.879-0.126-1.03-0.596C163.762,101.612,163.978,101.102,164.398,100.934z"/>
		<path opacity="0.2" fill="#F26B28" d="M164.454,101.051c0.35-0.1,0.744,0.112,0.864,0.517c0.109,0.394-0.083,0.846-0.44,0.98
			c-0.355,0.136-0.749-0.111-0.842-0.499C163.89,101.629,164.108,101.196,164.454,101.051z"/>
		<defs>
			<filter id="Adobe_OpacityMaskFilter_28_" filterUnits="userSpaceOnUse" x="163.874" y="100.77" width="1.294" height="1.64">
				<feColorMatrix  type="matrix" values="1 0 0 0 0  0 1 0 0 0  0 0 1 0 0  0 0 0 1 0"/>
			</filter>
		</defs>
		<mask maskUnits="userSpaceOnUse" x="163.874" y="100.77" width="1.294" height="1.64" id="SVGID_65_">
			<g filter="url(#Adobe_OpacityMaskFilter_28_)">
				
					<radialGradient id="SVGID_66_" cx="390.5474" cy="152.6719" r="0.8831" gradientTransform="matrix(0.4967 -0.8621 0.5414 0.3411 -112.1298 386.2046)" gradientUnits="userSpaceOnUse">
					<stop  offset="0" style="stop-color:#FFFFFF"/>
					<stop  offset="0.0242" style="stop-color:#F5F5F5"/>
					<stop  offset="0.1825" style="stop-color:#B6B6B6"/>
					<stop  offset="0.3392" style="stop-color:#808180"/>
					<stop  offset="0.4904" style="stop-color:#545554"/>
					<stop  offset="0.6352" style="stop-color:#323232"/>
					<stop  offset="0.7718" style="stop-color:#191A19"/>
					<stop  offset="0.8969" style="stop-color:#0A0B0A"/>
					<stop  offset="1" style="stop-color:#050605"/>
				</radialGradient>
				<path fill="url(#SVGID_66_)" d="M164.953,100.823c0.264,0.153,0.293,0.651,0.039,1.058c-0.234,0.425-0.657,0.625-0.908,0.482
					c-0.259-0.189-0.283-0.641-0.05-1.066C164.283,100.85,164.689,100.671,164.953,100.823z"/>
			</g>
		</mask>
		<path mask="url(#SVGID_65_)" fill="#FFFFFF" d="M164.953,100.823c0.264,0.153,0.293,0.651,0.039,1.058
			c-0.234,0.425-0.657,0.625-0.908,0.482c-0.259-0.189-0.283-0.641-0.05-1.066C164.283,100.85,164.689,100.671,164.953,100.823z"/>
		<defs>
			<filter id="Adobe_OpacityMaskFilter_29_" filterUnits="userSpaceOnUse" x="164.334" y="101.25" width="1.296" height="1.642">
				<feColorMatrix  type="matrix" values="1 0 0 0 0  0 1 0 0 0  0 0 1 0 0  0 0 0 1 0"/>
			</filter>
		</defs>
		<mask maskUnits="userSpaceOnUse" x="164.334" y="101.25" width="1.296" height="1.642" id="SVGID_67_">
			<g filter="url(#Adobe_OpacityMaskFilter_29_)">
				
					<radialGradient id="SVGID_68_" cx="388.3574" cy="148.3066" r="0.873" gradientTransform="matrix(0.4937 -0.8639 0.5426 0.3388 -107.2169 387.3282)" gradientUnits="userSpaceOnUse">
					<stop  offset="0" style="stop-color:#FFFFFF"/>
					<stop  offset="0.0862" style="stop-color:#F5F5F5"/>
					<stop  offset="0.2312" style="stop-color:#DBDBDB"/>
					<stop  offset="0.4172" style="stop-color:#B1B1B1"/>
					<stop  offset="0.6369" style="stop-color:#767676"/>
					<stop  offset="0.8822" style="stop-color:#2B2C2B"/>
					<stop  offset="1" style="stop-color:#050605"/>
				</radialGradient>
				<path fill="url(#SVGID_68_)" d="M165.406,101.314c0.277,0.163,0.3,0.615,0.049,1.063c-0.229,0.425-0.654,0.627-0.898,0.448
					c-0.264-0.151-0.314-0.625-0.04-1.056C164.748,101.347,165.161,101.135,165.406,101.314z"/>
			</g>
		</mask>
		<path opacity="0.3" mask="url(#SVGID_67_)" fill="#050605" d="M165.406,101.314c0.277,0.163,0.3,0.615,0.049,1.063
			c-0.229,0.425-0.654,0.627-0.898,0.448c-0.264-0.151-0.314-0.625-0.04-1.056C164.748,101.347,165.161,101.135,165.406,101.314z"/>
	</g>
	<path opacity="0.6" fill="#D7E2CC" d="M167.843,101.117c-0.008,0.036-0.014,0.073,0.019,0.138c0.353,0.216,0.708,0.436,1.054,0.61
		C168.679,101.729,168.281,101.438,167.843,101.117z"/>
	<path opacity="0.3" fill="#D7E2CC" d="M164.544,96.216c0.131-0.341,0.269-0.635,0.412-0.887c-0.168,0.232-0.306,0.528-0.479,0.874
		C164.503,96.223,164.517,96.231,164.544,96.216z"/>
	<path opacity="0.3" fill="#D7E2CC" d="M165.96,105.991c0.7-0.122,1.505-0.246,1.977-0.218c-0.481-0.071-1.155-0.014-1.808,0.063
		C166.067,105.87,166.03,105.923,165.96,105.991z"/>
	<path opacity="0.6" fill="#D7E2CC" d="M162.778,111.176c0.028-1.008,0.341-2.518,0.57-3.696c-0.045,0.007-0.117-0.004-0.16,0.002
		C162.952,108.614,162.732,109.995,162.778,111.176z"/>
	<path fill="#D7E2CC" d="M159.096,90.529c0.096,0.029,0.199,0.104,0.277,0.162c0.949-8.004,3.253-15.372,4.816-20.32
		c0,0,0.259-0.839,0.452-1.532c0.132-0.694,0.197-1.433,0.569-2.94C164.21,69.912,160.385,79.606,159.096,90.529z"/>
	<path fill="#D7E2CC" d="M151.854,95.833c-6.944-4.29-12.898-9.476-16.897-12.955c0,0-0.69-0.547-1.245-1.026
		c-0.602-0.401-1.221-0.818-2.493-1.784c3.365,2.616,11.073,10.191,20.693,16.121C151.887,96.09,151.879,95.964,151.854,95.833z"/>
	
		<linearGradient id="SVGID_69_" gradientUnits="userSpaceOnUse" x1="455.0225" y1="-91.833" x2="456.9411" y2="-83.6188" gradientTransform="matrix(0.5903 -0.8071 0.8071 0.5903 -41.6307 500.032)">
		<stop  offset="0" style="stop-color:#6BA652"/>
		<stop  offset="1" style="stop-color:#5CA047"/>
	</linearGradient>
	<path fill="url(#SVGID_69_)" d="M151.819,95.45c0.02-0.028,0.02-0.028,0.02-0.028c-0.039-1.134,0.266-2.253,0.983-3.234
		c1.471-2.009,4.112-2.647,6.273-1.658c1.289-10.923,5.115-20.617,6.113-24.631c-2.568,3.776-5.546,9.15-9.65,4.329
		c3.102,5.866-0.662,9.362-4.684,8.675c3.096,1.279,1.272,4.53-1.208,3.703c2.27,1.978,3.505,6.398-2.12,6.87
		c5.531,0.844,4.649,4.434,0.731,5.085c0.601,0.045,2.152,0.109,3.291,0.906C151.637,95.434,151.718,95.456,151.819,95.45z"/>
	<path opacity="0.3" fill="#D7E2CC" d="M161.143,79.73c-0.353-0.655-2.627-5.088-3.176-6.714c0.292,0.924,2.883,5.709,3.26,6.379
		C161.191,79.529,161.173,79.634,161.143,79.73z"/>
	<path opacity="0.3" fill="#D7E2CC" d="M160.047,84.583c-0.152-0.229-1.217-2.153-1.729-3.558c0.477,1.101,1.486,2.748,1.795,3.246
		C160.083,84.371,160.075,84.485,160.047,84.583z"/>
	<path opacity="0.3" fill="#D7E2CC" d="M159.544,87.376c-0.038,0.132-0.032,0.257-0.082,0.379c-0.618-0.611-3.035-3.09-4.616-7.177
		C156.527,84.579,158.988,86.893,159.544,87.376z"/>
	<path opacity="0.3" fill="#D7E2CC" d="M156.518,90.109c-0.548-0.601-1.035-1.236-1.311-1.673c0.237,0.491,0.672,1.084,1.131,1.7
		C156.404,90.102,156.461,90.104,156.518,90.109z"/>
</g>
<linearGradient id="SVGID_70_" gradientUnits="userSpaceOnUse" x1="0" y1="98.7344" x2="114.6284" y2="98.7344">
	<stop  offset="0" style="stop-color:#DFAE8F"/>
	<stop  offset="0.3119" style="stop-color:#96A563"/>
	<stop  offset="1" style="stop-color:#F16624"/>
</linearGradient>
<path fill="url(#SVGID_70_)" d="M2.197,193.456c2.287,2.083,6.533,1.306,8.719-2.029c0.281-0.429,0.533-0.895,0.737-1.407
	c0.15-0.375,0.402-0.201,0.567,0.232c0.466,1.233,0.75,2.221,2.959,4.235c4.317,3.934,10.786,3.263,14.501,0.198
	c2.888-2.387,2.908-6.175,1.86-8.102c-1.669-3.066-7.78-6.017-11.761-2.293c-2.339,2.19-2.336,5.721-0.297,7.579
	c2.038,1.857,4.474,1.462,5.705,0.31c1.229-1.152,0.696-2.89-0.067-3.588c-0.765-0.696-2.03-1.394-3.507-0.013
	c-0.289-3.001,3.607-4.332,6.354-1.827c2.165,1.975,1.593,4.924-0.068,6.48c-2.57,2.405-6.766,3.213-10.716-0.388
	c-4.522-4.124-3.68-9.269-0.971-11.805c0.188-0.177,0.383-0.349,0.582-0.518l80.695,0.295c0.204,0.171,0.406,0.344,0.602,0.522
	c2.804,2.556,3.837,7.707-0.532,11.798c-3.815,3.573-8.042,2.733-10.703,0.31c-1.719-1.569-2.401-4.522-0.308-6.482
	c2.654-2.483,6.599-1.125,6.422,1.875c-1.529-1.394-2.768-0.704-3.507-0.014c-0.737,0.692-1.206,2.427,0.067,3.588
	c1.273,1.161,3.724,1.576,5.693-0.268c1.97-1.844,1.841-5.374-0.579-7.582c-4.118-3.753-10.122-0.848-11.676,2.208
	c-0.977,1.919-0.816,5.708,2.162,8.115c3.83,3.092,10.323,3.811,14.496-0.093c2.133-1.998,2.379-2.984,2.8-4.213
	c0.149-0.434,0.396-0.605,0.558-0.229c1.961,4.517,7.093,5.839,9.586,3.507c2.583-2.423,2.573-4.591,0.854-6.16
	c-1.718-1.567-3.656-1.344-4.918-0.162c-1.26,1.182-0.67,2.688-0.065,3.239c0.605,0.552,0.692,0.177,0.655-0.142
	c0.023,0.202,0.766-2.315,2.426-0.802c1.783,1.625-1.86,4.389-4.629,1.864c-1.723-1.567-2.21-4.405-3.032-6.461
	c-0.752-1.884-2.153-4.563-4.543-6.574l-1.592-87.778c-0.19-10.201-5.138-19.444-12.916-26.105
	c-3.656-3.134-7.945-5.695-12.665-7.546c2.21,0.11,4.508-0.549,6.251-2.181c1.708-1.597,1.906-2.387,2.244-3.368
	c0.118-0.346,0.315-0.483,0.447-0.183c1.569,3.61,5.676,4.669,7.672,2.803c2.068-1.936,2.061-3.67,0.686-4.923
	c-1.377-1.254-2.927-1.075-3.938-0.131s-0.537,2.148-0.053,2.591c0.484,0.441,0.554,0.141,0.525-0.114
	c0.019,0.161,0.614-1.852,1.943-0.641c1.426,1.3-1.49,3.51-3.707,1.491c-1.376-1.255-1.771-3.522-2.427-5.167
	c-1.285-3.217-4.252-7.345-8.614-7.618c-1.027-0.063-3.853,0.312-5,0.677c-0.461,0.148-0.771,0.251-0.553-0.141
	c1.984-3.567,1.582-6.337-2.238-9.814c-0.97-0.882-0.361-1.922-0.191-2.176c0.17-0.252,0.171-0.556-0.165-0.786
	c-0.812-0.559-1.677-0.688-2.629,0.199c-0.641,0.601-0.791,1.791-0.126,2.613c0.282,0.348,0.134,0.439-0.267,0.484
	c-3.304,0.37-5.51,4.666-3.13,6.833c1.122,1.023,3.517,1.795,4.774,0.619c1.254-1.174,1.259-2.355,0.443-3.098
	c-0.816-0.743-1.747-0.955-2.536-0.217c-0.788,0.736-0.549,1.503-0.316,1.803c0.23,0.302,0.336,0.58-0.144,0.417
	c-1.137-0.389-2.058-2.265-0.372-3.842c1.132-1.06,2.989-0.96,4.11,0.062c4.166,3.792-0.887,9.887-8.613,17.113
	c-0.271,0.282-0.495,0.489-0.689,0.642l-0.551-29.625c0.383-0.03,0.762-0.075,1.131-0.149c4.698-0.941,8.173-5.312,8.077-10.572
	c-0.014-0.7-0.089-1.387-0.222-2.052c-1-4.988-5.214-8.764-10.192-8.782c-0.662-0.003-1.31,0.062-1.936,0.187
	c-4.697,0.941-8.171,5.311-8.078,10.572v0.001c0.013,0.7,0.09,1.387,0.223,2.051c0.922,4.601,4.584,8.161,9.053,8.703l0.542,29.032
	c-0.016-0.015-0.03-0.029-0.046-0.043c-8.005-7.499-13.6-13.391-9.576-17.152c1.083-1.015,2.937-1.102,4.111-0.032
	c1.744,1.589,0.893,3.458-0.23,3.839c-0.473,0.16-0.377-0.117-0.158-0.417c0.22-0.3,0.432-1.062-0.384-1.806
	c-0.815-0.744-1.741-0.539-2.528,0.198c-0.788,0.736-0.741,1.918,0.559,3.102c1.3,1.185,3.668,0.432,4.751-0.585
	c2.3-2.149-0.067-6.463-3.386-6.857c-0.402-0.047-0.555-0.14-0.284-0.485c0.634-0.817,0.439-2.01-0.225-2.614
	c-0.984-0.896-1.845-0.771-2.637-0.219c-0.327,0.229-0.315,0.531-0.135,0.785c0.18,0.255,0.826,1.299-0.11,2.175
	c-3.69,3.449-3.988,6.217-1.872,9.799c0.232,0.394-0.082,0.288-0.55,0.137c-1.16-0.373-3.999-0.747-5.026-0.713
	c-4.488,0.148-7.165,4.348-8.33,7.557c-0.596,1.639-0.905,3.904-2.235,5.148c-2.144,2.004-5.142-0.229-3.764-1.518
	c1.286-1.201,1.954,0.815,1.967,0.654c-0.02,0.256,0.061,0.556,0.53,0.117c0.467-0.437,0.897-1.64-0.15-2.59
	c-1.044-0.952-2.602-1.142-3.932,0.102c-1.332,1.243-1.272,2.978,0.868,4.93c2.065,1.88,6.133,0.852,7.569-2.749
	c0.12-0.299,0.324-0.16,0.454,0.188c0.374,0.983,0.601,1.774,2.37,3.384c1.766,1.61,4.088,2.296,6.311,2.235
	c-4.643,1.815-8.83,4.344-12.364,7.445c-7.53,6.606-12.135,15.813-11.943,26.016l0.691,37.146c-0.8,0.034-1.63,0.366-2.399,1.086
	c-1.66,1.558-1.59,3.726,1.085,6.167c0.428,0.392,0.925,0.681,1.465,0.871l0.792,42.548c-2.287,1.99-3.578,4.637-4.255,6.503
	c-0.381,1.05-0.668,2.305-1.081,3.489c-0.393,1.128-0.899,2.191-1.711,2.951c-2.675,2.504-6.421-0.286-4.7-1.899
	c1.604-1.501,2.442,1.023,2.458,0.821c-0.024,0.317,0.076,0.693,0.661,0.146c0.584-0.546,1.119-2.049-0.187-3.24
	c-1.305-1.191-3.251-1.429-4.913,0.126C-0.547,188.847-0.478,191.016,2.197,193.456z M53.011,19.962
	c-3.756-0.529-6.818-3.555-7.597-7.438c-0.114-0.571-0.18-1.158-0.192-1.759h0c-0.083-4.513,2.901-8.259,6.923-9.064
	c0.536-0.107,1.09-0.163,1.66-0.161c4.268,0.014,7.882,3.257,8.738,7.528c0.114,0.569,0.18,1.157,0.191,1.76
	c0.086,4.51-2.9,8.258-6.923,9.064c-0.28,0.056-0.566,0.096-0.856,0.122L53.011,19.962z M13.951,130.619l0.05,2.721
	c-0.931-0.606-1.332-1.625-0.522-2.385C13.646,130.8,13.801,130.695,13.951,130.619z M15.514,97.166l12.102,0.045l0.346,20.224
	l-6.832-1.45l-0.015,0.091c-0.168-0.148-0.381-0.243-0.615-0.247c-0.536-0.007-0.968,0.444-0.964,1.012l0.096,13.746
	c-0.356,0.867-0.806,1.664-1.451,2.268c-0.63,0.59-1.319,0.883-1.982,0.97l-0.03-1.633c0.1-0.014,0.236-0.088,0.431-0.27
	c0.584-0.547,1.119-2.049-0.187-3.24c-0.101-0.092-0.207-0.175-0.314-0.256L15.514,97.166z M29.455,92.542
	c0.18-8.075,1.405-15.689,4.636-21.845c3.242-6.154,8.43-10.91,16.764-13.413c-3.052,2.931-5.258,7.204-6.783,12.361
	c-1.903,6.453-2.758,14.346-2.787,22.939L29.455,92.542z M41.339,97.261l0.461,23.111l-11.994-2.545l-0.353-20.61L41.339,97.261z
	 M43.178,97.268l11.617,0.042l0.383,23.314l-11.536-0.037L43.178,97.268z M56.981,97.318l11.785,0.042l0.404,23.309l-11.717-0.037
	L56.981,97.318z M69.205,122.724l0.494,28.549l-25.446-0.082l-0.569-28.55L69.205,122.724z M42.413,151.013l-8.318-1.782
	l-0.524-28.52l8.272,1.756L42.413,151.013z M32.144,148.812l-1.812-0.388l-0.488-28.506l1.776,0.378L32.144,148.812z
	 M28.486,148.029l-6.801-1.457l-0.198-28.425l6.51,1.381L28.486,148.029z M46.811,56.772c-6.809,2.846-11.42,7.427-14.358,13.058
	c-3.427,6.55-4.663,14.448-4.838,22.706l-12.188-0.045l-0.036-1.908c-0.177-9.52,4.103-18.131,11.228-24.391
	C31.984,61.486,38.956,58.129,46.811,56.772z M53.277,53.97c-3.74,0.102-7.353,0.62-10.773,1.516
	c0.187-0.14,0.366-0.288,0.534-0.444c0.641-0.601,1.159-1.28,1.634-2.309c0.462-1.003,0.292-3.19-0.226-4.024
	c-1.476-2.386-6.375-4.957-9.561-1.978c-1.872,1.749-1.87,4.57-0.239,6.058c1.632,1.486,3.581,1.17,4.566,0.248
	c0.986-0.921,0.559-2.31-0.053-2.868c-0.613-0.558-1.625-1.115-2.808-0.01c-0.23-2.4,2.886-3.464,5.085-1.462
	c1.734,1.579,1.276,3.936-0.054,5.182c-2.057,1.922-5.417,2.568-8.577-0.31c-3.621-3.298-2.945-7.412-0.778-9.439
	C37.86,38.676,48.003,48.824,53.277,53.97z M54.045,57.052l0.662,35.583l-11.583-0.043c0.03-8.461,0.879-16.192,2.714-22.4
	C47.631,64.109,50.354,59.541,54.045,57.052z M65.097,70.262c2.066,6.222,3.205,13.96,3.549,22.423l-11.752-0.042l-0.665-35.688
	C60.096,59.446,63.047,64.076,65.097,70.262z M66.843,69.729c-1.715-5.17-4.083-9.46-7.243-12.413
	c8.43,2.562,13.795,7.357,17.266,13.536c3.46,6.181,4.969,13.806,5.45,21.882l-11.831-0.042
	C70.137,84.097,68.988,76.197,66.843,69.729z M68.179,53.976c-1.377-1.255-1.922-3.616-0.247-5.183
	c2.125-1.986,5.282-0.899,5.141,1.499c-1.224-1.113-2.217-0.563-2.81-0.011c-0.589,0.555-0.964,1.939,0.055,2.869
	c1.021,0.928,2.982,1.259,4.559-0.216s1.473-4.297-0.464-6.061c-3.297-3.003-8.101-0.467-9.489,1.908
	c-0.486,0.83-0.426,3.3-0.075,4.024c0.5,1.031,1.286,1.716,1.948,2.32c0.216,0.196,0.45,0.375,0.691,0.547
	c-3.429-0.944-7.036-1.521-10.759-1.682c4.998-5.105,14.406-15.199,20.444-9.697c2.243,2.043,3.072,6.162-0.426,9.434
	C73.692,56.584,70.309,55.913,68.179,53.976z M95.578,92.783l-11.423-0.042c-0.484-8.259-2.014-16.167-5.684-22.743
	c-3.048-5.476-7.633-9.977-14.204-12.885c7.34,1.551,13.93,4.822,19.135,9.286c7.361,6.312,11.962,14.957,12.141,24.477
	L95.578,92.783z M85.793,170.166l-1.465-72.749l11.336,0.042l1.355,72.748L85.793,170.166z M71.863,170.115l-1.259-72.748
	l11.887,0.043l1.464,72.749L71.863,170.115z M58.336,170.066l-0.425-16.777l11.824,0.038l0.291,16.78L58.336,170.066z
	 M44.629,170.016l-0.334-16.771l11.59,0.037l0.265,16.775L44.629,170.016z M30.701,169.964l-0.333-19.445l12.086,2.59l0.337,16.9
	L30.701,169.964z M16.87,169.914l-0.63-33.815c1.171-0.104,2.373-0.571,3.42-1.382l0.088,12.676c0.003,0.502,0.348,0.925,0.8,1.021
	v0.002l7.975,1.708l0.339,19.835L16.87,169.914z"/>
<linearGradient id="SVGID_71_" gradientUnits="userSpaceOnUse" x1="25.3135" y1="121.4902" x2="141.7324" y2="121.4902">
	<stop  offset="0" style="stop-color:#5CA047"/>
	<stop  offset="0.2538" style="stop-color:#D0DDC3"/>
	<stop  offset="0.909" style="stop-color:#8762A8"/>
	<stop  offset="1" style="stop-color:#662F90"/>
</linearGradient>
<path fill="url(#SVGID_71_)" d="M141.632,97.834c-0.011-0.056-0.078-0.113-0.251-0.176c-0.058-0.023-0.143-0.046-0.239-0.062
	c-0.516-0.241-1.289-0.574-2.084-0.812c-1.002-0.304-2.855-0.506-4.541-0.539c-0.076-0.243-0.152-0.459-0.241-0.619
	c-0.436-0.764-6.2-5.485-8.217-6.236c-2.015-0.753-5.216-1.896-7.129-2.056c-1.911-0.156-5.532,0.717-7.91,1.547
	c-2.38,0.834-5.196,2.355-6.701,3.255c-1.514,0.9-4.116,5.08-5.697,6.566c-1.582,1.481-3.212,1.935-4.219,3.023
	c-0.248,0.268-0.713,0.636-1.298,1.054c-0.132-0.16-0.242-0.335-0.385-0.485c-6.682-7.014-17.128-9.562-28.853-10.546
	c1.54,0.522,3.608,4.695,5.626,8.996c-6.464,0.158-13.107,1.909-19.819,4.394c3.328-0.372,17.409,11.352,20.741,11.791
	c1.233,0.162,2.568,0.29,3.94,0.398c-1.2,1.027-2.35,1.996-3.374,2.828c-5.246,4.254-4.602,4.747-5.869,6.546
	c-0.174,0.249-0.399,0.637-0.648,1.113c-1.381,0.591-2.58,1.114-3.346,1.49c-2.797,1.383-11.238,5.96-11.238,5.96
	s6.084-1.188,9.3-2.035c-1.59,1.004-3.06,1.947-3.933,2.548c-2.433,1.665-7.582,4.2-9.663,6.049c-2.085,1.85-4.962,4.104-7.78,5.896
	c-2.824,1.787-12.989,5.771-12.47,6.125c0.514,0.354,1.109,0.086,1.109,0.086s0.018,1.408,0.757,1.468
	c0.74,0.062,2.085-0.297,2.085-0.297s2.161,0.648,2.916,0.553c0.759-0.096,3.73-1.559,4.969-2.544
	c1.234-0.99,8.296-5.542,10.724-7.208c2.439-1.665,10.186-5.698,13.19-7.47c0.081-0.046,0.176-0.095,0.261-0.139
	c0.507,0.006,1.006-0.103,1.006-0.103s5.23-1.18,7.192-1.461c1.704-0.237,5.806-0.823,7.932-1.18c0.32-0.056,0.61-0.106,0.829-0.15
	c0.449-0.082,1.474-0.111,2.761-0.115c0.094,0.119,0.296,0.34,0.528,0.591c1.412-0.165,2.844-0.528,4.276-0.87
	c-1.826,2.143-3.523,4.021-3.984,4.178c-0.557,0.188-2.667-1.015-2.539-0.772c0.131,0.243,2,1.698,2.036,2.828
	c0.029,1.13-0.648,2.044-0.984,2.659c-0.338,0.611-1.867,2.581-2.083,2.931c-0.223,0.354,2.306-1.062,2.675-1.589
	c0.372-0.521,2.775-3.486,2.851-4.445c0.025-0.303,2.346-3.427,4.535-6.316c1.08-0.185,2.15-0.292,3.199-0.205
	c-0.445,0.307-0.679,0.631-0.805,0.954c0.326-0.022,0.653-0.037,0.907-0.063c2.214-0.251,9.631-1.624,12.438-2.762
	c3.174-1.272,7.875-4.215,10.967-6.59c3.082-2.39,8.548-9.965,8.944-13.301c0.388-3.337,0.668-7.121,1.118-7.973
	c0.453-0.838,1.805-1.897,3.107-2.521c1.306-0.627,6.739-3.546,6.739-3.546s-0.002-0.045-0.015-0.104
	c1.799,0.039,3.465,0.043,4.071-0.031c1.087-0.132,2.455-0.245,2.586-0.457l0.101,0.005
	C141.732,97.886,141.692,97.864,141.632,97.834z"/>
<text transform="matrix(1 0 0 1 76.752 15.2373)" fill="#5CA047" font-family="'Chalkduster'" font-size="12">Warme feestdagen</text>
<text transform="matrix(1 0 0 1 71.7397 29.2363)" fill="#662F90" font-family="'Chalkduster'" font-size="12">Ondernemend 2017</text>
</svg>
