<?xml version="1.0" encoding="utf-8"?>
<!-- Generator: Adobe Illustrator 16.0.0, SVG Export Plug-In . SVG Version: 6.00 Build 0)  -->
<!DOCTYPE svg PUBLIC "-//W3C//DTD SVG 1.1//EN" "http://www.w3.org/Graphics/SVG/1.1/DTD/svg11.dtd">
<svg version="1.1" id="Layer_1" xmlns="http://www.w3.org/2000/svg" xmlns:xlink="http://www.w3.org/1999/xlink" x="0px" y="0px"
	 width="256px" height="256px" viewBox="0 0 256 256" enable-background="new 0 0 256 256" xml:space="preserve">
<g>
	<g opacity="0.8">
		
			<radialGradient id="SVGID_1_" cx="39.7383" cy="36.624" r="182.458" gradientTransform="matrix(0.9493 0 0 0.9128 0.7957 -3.56)" gradientUnits="userSpaceOnUse">
			<stop  offset="0" style="stop-color:#F6905A"/>
			<stop  offset="1" style="stop-color:#662F90"/>
		</radialGradient>
		<path fill="url(#SVGID_1_)" d="M211.842,43.99C179.039-8.337,83.834-1.448,39.256,33.477c-2.838,2.222-3.004,3.131-3.071,6.703
			c-0.223,11.893,9.656,8.683,4.572,21.084c-4.718,11.51-8.477,24.13-6.639,36.573c2.593,17.558-6.271,30.809-12.315,46.793
			c0,4.673,9.048,6.126,12.292,6.29c4.069,5.694-3.051,11.496,13.334,14.196c-4.009,2.142-10.957,7.641-10.162,10.967
			c8.527,7.8,0.586,16.029,6.466,23.568c12.887,16.505,34.033-8.227,46.84,7.223c18.45,22.259,22.7,24.851,15.97,49.126
			c27.946-27.678,49.881-18.926,86.019-35.116c-6.751-8.35-10.852-18.583-12.836-28.93c-3.808-19.851-1.562-28.634,13.96-39.943
			C226.505,128.097,232.554,77.021,211.842,43.99C196.295,19.189,220.466,57.743,211.842,43.99z"/>
		<g>
			<g>
				<path fill="#662F90" d="M129.81,69.404c-0.47-1.986-1.283-3.846-2.378-5.516l3.821-3.673l-5.818-5.594l-3.82,3.673
					c-1.739-1.056-3.671-1.836-5.738-2.288v-5.192h-8.227v5.193c-2.064,0.451-3.998,1.231-5.736,2.287l-3.819-3.673l-5.816,5.594
					l3.819,3.673c-1.097,1.67-1.91,3.529-2.379,5.516h-5.399v7.912h5.399c0.469,1.986,1.282,3.846,2.379,5.517l-3.819,3.672
					l5.816,5.596l3.819-3.674c1.738,1.055,3.672,1.835,5.736,2.286v5.193h8.227v-5.191c2.067-0.453,3.999-1.233,5.738-2.288
					l3.82,3.674l5.818-5.596l-3.821-3.672c1.095-1.671,1.908-3.53,2.378-5.517h5.4v-7.912H129.81z M125.34,73.361
					c0,7.207-6.078,13.052-13.575,13.052s-13.573-5.845-13.573-13.052c0-7.209,6.076-13.054,13.573-13.054
					S125.34,66.152,125.34,73.361z"/>
				<g>
					<path fill="#662F90" d="M119.621,73.361h-1.617c-0.001-1.663-0.694-3.152-1.827-4.244c-1.133-1.089-2.684-1.756-4.412-1.757
						c-1.729,0.001-3.278,0.668-4.413,1.757c-1.131,1.092-1.826,2.581-1.826,4.244c0,1.661,0.695,3.149,1.826,4.243
						c1.135,1.087,2.685,1.755,4.413,1.757c1.729-0.002,3.279-0.67,4.412-1.757c1.133-1.094,1.826-2.582,1.827-4.243H119.621h1.617
						c-0.001,5.03-4.24,9.107-9.474,9.109c-5.234-0.002-9.475-4.079-9.475-9.109c0-5.032,4.24-9.109,9.475-9.111
						c5.233,0.002,9.473,4.079,9.474,9.111H119.621z"/>
				</g>
			</g>
			<g>
				<path fill="#815AA4" d="M164.197,78.135c-1.157-1.402-2.54-2.58-4.071-3.502l1.576-4.311l-6.828-2.303l-1.572,4.312
					c-1.794-0.201-3.636-0.114-5.451,0.286l-2.056-4.116l-6.522,3.013l2.055,4.115c-1.457,1.115-2.681,2.441-3.641,3.913
					l-4.48-1.514l-2.395,6.563l4.479,1.514c-0.207,1.726-0.116,3.498,0.301,5.243l-4.279,1.978l3.13,6.271l4.279-1.977
					c1.16,1.401,2.542,2.579,4.069,3.501l-1.571,4.308l6.825,2.307l1.574-4.311c1.794,0.199,3.636,0.109,5.451-0.286l2.057,4.115
					l6.52-3.014l-2.055-4.115c1.46-1.114,2.683-2.44,3.642-3.911l4.482,1.512l2.396-6.563l-4.483-1.515
					c0.209-1.725,0.118-3.495-0.299-5.241l4.28-1.979l-3.131-6.271L164.197,78.135z M162.218,82.907
					c2.857,5.714,0.354,12.571-5.589,15.317c-5.943,2.743-13.074,0.336-15.928-5.378c-2.856-5.713-0.352-12.57,5.592-15.316
					C152.234,74.787,159.364,77.192,162.218,82.907z"/>
				<path fill="#815AA4" d="M157.324,85.169c-1.556-3.116-5.441-4.427-8.681-2.932c-3.24,1.495-4.603,5.233-3.047,8.346
					c1.556,3.116,5.44,4.426,8.681,2.932C157.514,92.019,158.879,88.281,157.324,85.169z"/>
			</g>
			<g>
				<path fill="#A186BC" d="M86.364,81.02c-0.954-1.158-2.093-2.127-3.354-2.888l1.297-3.551l-5.623-1.896l-1.294,3.551
					c-1.479-0.164-2.996-0.093-4.494,0.236l-1.694-3.391l-5.371,2.481l1.692,3.391c-1.199,0.919-2.206,2.012-2.998,3.222
					l-3.692-1.245l-1.974,5.406l3.69,1.247c-0.171,1.423-0.095,2.881,0.247,4.32l-3.524,1.629l2.58,5.166l3.523-1.631
					c0.955,1.158,2.094,2.128,3.355,2.887l-1.296,3.549l5.621,1.899l1.297-3.551c1.477,0.164,2.994,0.092,4.49-0.235l1.695,3.391
					l5.37-2.481l-1.692-3.392c1.203-0.919,2.208-2.012,3.001-3.225l3.691,1.246l1.975-5.407l-3.693-1.245
					c0.174-1.422,0.098-2.882-0.246-4.32l3.527-1.628l-2.582-5.165L86.364,81.02z M84.733,84.949
					c2.352,4.706,0.289,10.355-4.605,12.616c-4.896,2.261-10.77,0.28-13.123-4.429c-2.353-4.707-0.285-10.354,4.608-12.616
					C76.51,78.259,82.382,80.241,84.733,84.949z"/>
				<path fill="#A186BC" d="M77.987,88.066c-0.562-1.125-1.964-1.597-3.133-1.058c-1.168,0.539-1.659,1.888-1.099,3.012
					c0.562,1.123,1.963,1.597,3.129,1.057C78.055,90.537,78.547,89.189,77.987,88.066z"/>
			</g>
			<g>
				<path fill="#662F90" d="M91.921,39.177c-0.613-0.744-1.345-1.367-2.159-1.858l0.837-2.285l-3.62-1.221L86.146,36.1
					c-0.952-0.106-1.929-0.062-2.892,0.152l-1.091-2.184l-3.456,1.598l1.087,2.182c-0.771,0.59-1.419,1.293-1.929,2.074
					l-2.378-0.802L74.22,42.6l2.374,0.8c-0.107,0.918-0.062,1.856,0.16,2.784l-2.27,1.048l1.66,3.324l2.269-1.048
					c0.616,0.743,1.348,1.367,2.159,1.854l-0.834,2.285l3.618,1.224l0.836-2.286c0.948,0.106,1.928,0.06,2.887-0.152l1.093,2.184
					l3.457-1.597l-1.089-2.185c0.774-0.591,1.422-1.295,1.931-2.074l2.375,0.803l1.271-3.481l-2.376-0.802
					c0.11-0.915,0.061-1.854-0.16-2.779l2.271-1.049l-1.661-3.324L91.921,39.177z M90.873,41.706
					c1.515,3.028,0.185,6.666-2.964,8.121c-3.152,1.455-6.933,0.179-8.446-2.852c-1.513-3.03-0.185-6.664,2.965-8.121
					C85.579,37.401,89.359,38.677,90.873,41.706z"/>
				<path fill="#662F90" d="M86.53,43.712c-0.363-0.723-1.265-1.027-2.016-0.681c-0.755,0.349-1.068,1.216-0.708,1.939
					c0.361,0.722,1.265,1.027,2.016,0.679C86.573,45.303,86.891,44.435,86.53,43.712z"/>
			</g>
			<g>
				<path fill="#6C3893" d="M132.223,34.146c-0.75-0.909-1.646-1.671-2.638-2.27l1.02-2.791l-4.421-1.492l-1.017,2.792
					c-1.162-0.129-2.355-0.073-3.532,0.188l-1.332-2.667l-4.222,1.949l1.331,2.668c-0.945,0.721-1.736,1.582-2.357,2.532
					l-2.902-0.979l-1.553,4.251l2.901,0.98c-0.135,1.118-0.075,2.265,0.195,3.396l-2.773,1.28l2.029,4.062l2.771-1.28
					c0.75,0.907,1.646,1.67,2.637,2.268l-1.019,2.79l4.419,1.492l1.019-2.791c1.165,0.131,2.355,0.07,3.533-0.186l1.33,2.666
					l4.224-1.951l-1.331-2.666c0.946-0.723,1.735-1.582,2.358-2.534l2.903,0.979l1.552-4.249l-2.904-0.98
					c0.137-1.118,0.076-2.265-0.191-3.396l2.77-1.281l-2.026-4.061L132.223,34.146z M130.942,37.234
					c1.849,3.701,0.228,8.141-3.622,9.92c-3.85,1.777-8.467,0.22-10.315-3.482c-1.851-3.7-0.228-8.142,3.622-9.918
					C124.475,31.977,129.093,33.535,130.942,37.234z"/>
				<path fill="#6C3893" d="M129.252,38.015c-1.399-2.802-4.896-3.982-7.813-2.636c-2.917,1.346-4.144,4.71-2.744,7.512
					c1.4,2.804,4.898,3.985,7.813,2.641C129.422,44.185,130.654,40.819,129.252,38.015z"/>
			</g>
			<g>
				<path fill="#662F90" d="M144.8,48.378c-0.629-0.425-1.317-0.733-2.037-0.926l0.097-1.885l-2.983-0.141l-0.095,1.884
					c-0.733,0.124-1.451,0.365-2.122,0.729l-1.318-1.396l-2.212,1.926l1.318,1.399c-0.442,0.604-0.765,1.268-0.964,1.957
					l-1.958-0.092l-0.146,2.867l1.956,0.093c0.129,0.705,0.382,1.397,0.759,2.04l-1.452,1.267l2.005,2.129l1.452-1.266
					c0.63,0.423,1.319,0.732,2.037,0.927l-0.095,1.883l2.981,0.14l0.096-1.883c0.733-0.123,1.453-0.365,2.122-0.728l1.318,1.396
					l2.211-1.929l-1.314-1.396c0.441-0.606,0.762-1.27,0.964-1.96l1.957,0.093l0.147-2.868l-1.959-0.093
					c-0.127-0.707-0.381-1.398-0.76-2.04l1.452-1.267l-2.003-2.127L144.8,48.378z M144.604,50.489
					c1.826,1.938,1.671,4.936-0.344,6.691c-2.018,1.757-5.135,1.611-6.959-0.33c-1.829-1.938-1.675-4.933,0.344-6.691
					C139.661,48.402,142.773,48.551,144.604,50.489z"/>
				<path fill="#662F90" d="M142.436,52.376c-0.742-0.787-2.009-0.851-2.83-0.133c-0.82,0.714-0.883,1.931-0.142,2.721
					c0.746,0.788,2.011,0.849,2.832,0.135C143.115,54.384,143.179,53.165,142.436,52.376z"/>
			</g>
			<g>
				<path fill="#AD95C5" d="M68.502,46.74c-0.778-0.523-1.63-0.905-2.517-1.144l0.117-2.327l-3.685-0.177l-0.119,2.329
					c-0.906,0.153-1.794,0.452-2.624,0.902l-1.625-1.726l-2.736,2.38l1.628,1.728c-0.547,0.747-0.942,1.566-1.19,2.421l-2.418-0.116
					l-0.183,3.546l2.42,0.114c0.157,0.874,0.471,1.726,0.938,2.521l-1.794,1.564l2.477,2.629l1.793-1.563
					c0.779,0.526,1.633,0.908,2.517,1.145l-0.115,2.327l3.683,0.175l0.119-2.327c0.906-0.151,1.796-0.451,2.622-0.899l1.63,1.725
					l2.73-2.382l-1.623-1.726c0.545-0.75,0.942-1.57,1.189-2.423l2.42,0.114l0.181-3.543l-2.421-0.115
					c-0.157-0.874-0.469-1.728-0.938-2.522l1.798-1.564l-2.477-2.63L68.502,46.74z M68.257,49.351
					c2.259,2.396,2.066,6.1-0.424,8.269c-2.494,2.172-6.345,1.99-8.601-0.406c-2.258-2.395-2.067-6.1,0.426-8.269
					C62.148,46.772,65.997,46.953,68.257,49.351z"/>
			</g>
			<g>
				<path fill="#AD95C5" d="M168.878,41.154c-0.398-0.27-0.836-0.466-1.292-0.588l0.061-1.196l-1.891-0.089l-0.062,1.196
					c-0.464,0.078-0.921,0.232-1.348,0.463l-0.834-0.888l-1.404,1.225l0.835,0.886c-0.28,0.385-0.484,0.806-0.611,1.243l-1.24-0.06
					l-0.096,1.82l1.243,0.06c0.081,0.446,0.241,0.885,0.482,1.295l-0.922,0.803l1.272,1.349l0.92-0.802
					c0.399,0.269,0.837,0.466,1.293,0.588l-0.061,1.194l1.892,0.089l0.062-1.193c0.465-0.078,0.922-0.233,1.346-0.463l0.837,0.886
					l1.402-1.222l-0.834-0.888c0.28-0.385,0.485-0.805,0.612-1.242l1.241,0.059l0.094-1.822l-1.244-0.057
					c-0.081-0.449-0.24-0.888-0.48-1.295l0.923-0.804l-1.272-1.351L168.878,41.154z M168.753,42.494
					c1.16,1.23,1.06,3.132-0.219,4.246c-1.279,1.113-3.258,1.021-4.416-0.208c-1.158-1.23-1.061-3.133,0.219-4.247
					C165.616,41.17,167.592,41.265,168.753,42.494z"/>
			</g>
			<g>
				<path fill="#662F90" d="M155.475,43.377c-0.393-0.265-0.821-0.456-1.269-0.577l0.06-1.171l-1.856-0.09l-0.06,1.174
					c-0.455,0.077-0.905,0.229-1.322,0.454l-0.82-0.87l-1.379,1.199l0.821,0.871c-0.275,0.377-0.476,0.791-0.599,1.22l-1.219-0.056
					l-0.093,1.783l1.219,0.059c0.079,0.441,0.237,0.871,0.473,1.271l-0.903,0.788l1.248,1.326l0.904-0.79
					c0.392,0.266,0.822,0.459,1.267,0.579l-0.058,1.172l1.858,0.087l0.057-1.172c0.459-0.076,0.907-0.228,1.323-0.453l0.82,0.869
					l1.379-1.202l-0.82-0.869c0.274-0.378,0.476-0.789,0.601-1.22l1.219,0.059l0.09-1.787l-1.22-0.057
					c-0.079-0.441-0.235-0.872-0.473-1.271l0.906-0.788l-1.248-1.326L155.475,43.377z M155.353,44.693
					c1.138,1.207,1.04,3.075-0.215,4.168c-1.257,1.092-3.197,1-4.335-0.206c-1.139-1.208-1.04-3.074,0.216-4.168
					C152.274,43.392,154.214,43.485,155.353,44.693z"/>
			</g>
			<g>
				<path fill="#662F90" d="M150.624,33.271c-0.392-0.264-0.821-0.456-1.268-0.576l0.059-1.173l-1.856-0.089l-0.059,1.174
					c-0.457,0.077-0.907,0.229-1.324,0.456l-0.82-0.872l-1.378,1.198l0.82,0.873c-0.274,0.375-0.475,0.789-0.599,1.219l-1.219-0.057
					l-0.092,1.783l1.219,0.061c0.079,0.441,0.237,0.869,0.475,1.271l-0.907,0.788l1.249,1.326l0.905-0.789
					c0.392,0.264,0.822,0.457,1.268,0.577l-0.059,1.173l1.857,0.088l0.059-1.172c0.457-0.077,0.906-0.229,1.322-0.455l0.819,0.871
					l1.38-1.202l-0.82-0.871c0.274-0.378,0.476-0.789,0.6-1.218l1.219,0.057l0.093-1.786l-1.223-0.057
					c-0.079-0.441-0.232-0.87-0.47-1.272l0.904-0.788l-1.249-1.325L150.624,33.271z M150.501,34.587
					c1.139,1.206,1.043,3.074-0.214,4.167c-1.255,1.093-3.196,1.003-4.334-0.206c-1.139-1.206-1.042-3.073,0.215-4.168
					C147.424,33.286,149.363,33.38,150.501,34.587z"/>
			</g>
			<g>
				<path fill="#AD95C5" d="M86.056,64.724c-0.392-0.263-0.821-0.457-1.27-0.575l0.061-1.175l-1.857-0.088l-0.06,1.173
					c-0.456,0.076-0.905,0.229-1.323,0.455l-0.819-0.869l-1.378,1.198l0.821,0.872c-0.278,0.376-0.476,0.789-0.603,1.219
					l-1.218-0.058l-0.091,1.785l1.219,0.059c0.078,0.44,0.237,0.869,0.474,1.272l-0.904,0.787l1.246,1.326l0.906-0.789
					c0.392,0.264,0.822,0.457,1.267,0.575l-0.057,1.174l1.855,0.089l0.058-1.172c0.459-0.078,0.907-0.23,1.324-0.454l0.82,0.87
					l1.379-1.202l-0.821-0.87c0.275-0.378,0.476-0.79,0.602-1.22l1.218,0.058l0.093-1.786l-1.222-0.059
					c-0.078-0.441-0.235-0.869-0.472-1.272l0.904-0.785l-1.247-1.325L86.056,64.724z M85.932,66.038
					c1.137,1.208,1.042,3.075-0.213,4.168c-1.257,1.095-3.197,1.004-4.335-0.205c-1.138-1.207-1.043-3.074,0.216-4.167
					C82.854,64.739,84.793,64.833,85.932,66.038z"/>
			</g>
			<g>
				<path fill="#6C3893" d="M177.643,60.734c-0.777-0.524-1.63-0.906-2.517-1.145l0.117-2.328l-3.685-0.174l-0.119,2.328
					c-0.907,0.153-1.794,0.451-2.623,0.9l-1.627-1.725l-2.734,2.381l1.628,1.728c-0.548,0.747-0.944,1.566-1.192,2.418l-2.419-0.112
					l-0.181,3.542l2.419,0.115c0.158,0.876,0.471,1.728,0.94,2.523l-1.796,1.562l2.478,2.631l1.794-1.563
					c0.777,0.524,1.632,0.908,2.517,1.144l-0.117,2.328l3.684,0.174l0.119-2.326c0.907-0.151,1.795-0.453,2.622-0.9l1.627,1.726
					l2.735-2.384l-1.625-1.725c0.546-0.749,0.942-1.569,1.19-2.421l2.419,0.113L183.479,66l-2.421-0.113
					c-0.157-0.874-0.469-1.728-0.938-2.522l1.796-1.564l-2.476-2.63L177.643,60.734z M177.397,63.345
					c2.259,2.396,2.066,6.098-0.424,8.268c-2.494,2.173-6.346,1.989-8.601-0.405c-2.258-2.396-2.068-6.101,0.426-8.271
					C171.288,60.765,175.138,60.947,177.397,63.345z"/>
				<path fill="#6C3893" d="M176.303,64.297c-1.711-1.814-4.626-1.953-6.515-0.307c-1.889,1.644-2.031,4.449-0.321,6.263
					c1.711,1.814,4.626,1.951,6.514,0.309C177.868,68.917,178.013,66.113,176.303,64.297z"/>
			</g>
			<g>
				<path fill="#9170B0" d="M106.141,42.137c-0.629-0.425-1.32-0.734-2.036-0.926l0.096-1.886l-2.982-0.14l-0.095,1.883
					c-0.735,0.124-1.453,0.366-2.123,0.729L97.683,40.4l-2.213,1.929l1.316,1.398c-0.442,0.605-0.763,1.268-0.963,1.958
					l-1.958-0.093l-0.147,2.867l1.96,0.093c0.127,0.707,0.379,1.397,0.758,2.041l-1.452,1.266l2.007,2.128l1.45-1.265
					c0.628,0.424,1.319,0.733,2.036,0.926l-0.095,1.885l2.98,0.141l0.097-1.884c0.735-0.123,1.454-0.366,2.122-0.729l1.316,1.396
					l2.215-1.927l-1.316-1.397c0.442-0.607,0.762-1.269,0.962-1.96l1.958,0.093l0.147-2.868l-1.958-0.092
					c-0.129-0.707-0.381-1.397-0.759-2.042l1.451-1.266l-2.002-2.126L106.141,42.137z M105.941,44.25
					c1.829,1.937,1.674,4.934-0.344,6.689c-2.018,1.758-5.132,1.61-6.958-0.33c-1.827-1.938-1.674-4.935,0.344-6.691
					C101,42.162,104.115,42.312,105.941,44.25z"/>
				<path fill="#9170B0" d="M104.033,45.911c-0.873-0.923-2.357-0.995-3.32-0.154c-0.96,0.837-1.034,2.264-0.163,3.189
					c0.87,0.924,2.357,0.994,3.319,0.156S104.901,46.837,104.033,45.911z"/>
			</g>
			<g>
				<path fill="#FFFFFF" d="M156.871,58.924c-0.54-0.363-1.132-0.628-1.749-0.795l0.082-1.617l-2.56-0.121l-0.08,1.617
					c-0.631,0.105-1.249,0.315-1.825,0.628l-1.13-1.201l-1.899,1.654l1.131,1.2c-0.38,0.521-0.656,1.09-0.826,1.682l-1.682-0.08
					l-0.126,2.463l1.681,0.082c0.108,0.605,0.326,1.197,0.653,1.749l-1.247,1.087l1.721,1.827l1.245-1.087
					c0.541,0.366,1.134,0.631,1.75,0.796l-0.082,1.616l2.561,0.122l0.082-1.617c0.631-0.104,1.246-0.314,1.82-0.625l1.132,1.199
					l1.9-1.654l-1.13-1.201c0.378-0.521,0.656-1.089,0.826-1.682l1.682,0.078l0.126-2.462l-1.683-0.078
					c-0.109-0.607-0.325-1.2-0.651-1.752l1.248-1.088l-1.722-1.826L156.871,58.924z M156.702,60.736
					c1.568,1.666,1.436,4.237-0.296,5.746s-4.406,1.383-5.975-0.284c-1.569-1.662-1.436-4.236,0.296-5.743
					C152.458,58.945,155.133,59.072,156.702,60.736z"/>
				<path fill="#FFFFFF" d="M155.062,62.166c-0.75-0.794-2.024-0.854-2.851-0.136c-0.824,0.722-0.887,1.945-0.141,2.741
					c0.748,0.792,2.024,0.852,2.852,0.133C155.748,64.188,155.81,62.96,155.062,62.166z"/>
			</g>
			<g>
				<path fill="#FFFFFF" d="M67.593,67.86c-0.627-0.423-1.318-0.731-2.037-0.926l0.098-1.883l-2.982-0.142l-0.096,1.885
					c-0.734,0.124-1.451,0.365-2.123,0.729l-1.317-1.396l-2.212,1.926l1.316,1.397c-0.44,0.606-0.763,1.27-0.963,1.959l-1.958-0.093
					l-0.147,2.867l1.959,0.094c0.128,0.706,0.38,1.398,0.76,2.04l-1.452,1.267l2.003,2.128l1.452-1.266
					c0.63,0.425,1.32,0.735,2.039,0.926l-0.097,1.884l2.98,0.142l0.096-1.884c0.735-0.124,1.454-0.366,2.124-0.728l1.316,1.396
					l2.212-1.929l-1.314-1.396c0.441-0.606,0.762-1.269,0.963-1.959l1.958,0.093l0.147-2.869l-1.959-0.092
					c-0.127-0.708-0.381-1.397-0.76-2.04l1.452-1.267l-2.004-2.128L67.593,67.86z M67.396,69.973
					c1.827,1.938,1.673,4.936-0.345,6.692s-5.134,1.609-6.958-0.329c-1.83-1.939-1.675-4.937,0.345-6.692
					C62.454,67.887,65.567,68.035,67.396,69.973z"/>
			</g>
		</g>
	</g>
	<g>
		<g id="layer5" transform="translate(-106.83931,-293.64792)" inkscape:groupmode="layer" inkscape:label="Pons">
			<g id="g4625">
				
					<path id="path4610" sodipodi:nodetypes="cccccccc" fill="none" stroke="#662F90" stroke-width="3.3879" stroke-linecap="round" stroke-linejoin="round" d="
					M234.143,404.422c3.517,3.914,5.643,8.167,12.129,9.121c2.367,0.466,4.22-1.238,5.73,0.852
					c5.388,5.333,12.494,10.776,18.793,15.268c2.163,0.803,3.649,3.533,6.215,3.057c2.141-0.797,5.024-0.815,6.17-3.182
					c-0.028-3.007-3.847-2.6-5.5-4.214c-1.429-1.176-2.387-2.801-3.633-4.152"/>
				
					<path id="path4623" sodipodi:nodetypes="cc" fill="none" stroke="#662F90" stroke-width="3.3879" stroke-linecap="round" stroke-linejoin="round" d="
					M248.69,413.382c4.032-2.567,3.986-4.932,3.986-4.932"/>
			</g>
		</g>
		<g id="layer3" transform="translate(-106.83931,-293.64792)" inkscape:groupmode="layer" inkscape:label="Cerebrellum">
			<path id="path4219" fill="none" stroke="#662F90" stroke-width="1.3551" stroke-linecap="round" stroke-linejoin="round" d="
				M306.041,378.396c3.368,4.795,3.359,11.394,0.791,16.519c-2.355,6.167-4.894,12.651-9.858,17.146
				c-3.452,2.743-7.194,5.165-11.146,7.084c-4.054,1.396-8.415,1.637-12.667,1.728c-7.768-0.611-14.145-5.903-19.511-11.224
				c-2.76-2.166-3.68-5.564-4.399-8.841c-0.404-1.326-0.94-2.626-1.747-3.757"/>
			<path id="path4318" fill="none" stroke="#662F90" stroke-width="1.3551" stroke-linecap="round" stroke-linejoin="round" d="
				M267.967,405.056c0.796-3.958,3.258-7.581,6.891-9.333c4.898-2.49,8.838-6.804,14.28-8.172c4.533-1.49,9.195-2.657,13.446-4.894
				c1.422-0.646,2.832-1.406,3.913-2.566"/>
			<path id="path4320" fill="none" stroke="#662F90" stroke-width="1.3551" stroke-linecap="round" stroke-linejoin="round" d="
				M266.231,404.84c0.807-4.091,2.212-8.556,5.931-10.825c1.731-1.15,3.446-2.438,4.49-4.291c2.694-2.938,6.358-4.764,9.969-6.239
				c4.446-1.14,8.349-3.851,12.854-4.739"/>
			<path id="path4322" fill="none" stroke="#662F90" stroke-width="1.3551" stroke-linecap="round" stroke-linejoin="round" d="
				M276.456,392.82c2.856-2.354,5.678-5.324,9.578-5.596c4.494-1.351,8.04-4.969,12.751-5.734c1.906-0.611,3.797-1.267,5.682-1.938"
				/>
			<path id="path4324" fill="none" stroke="#662F90" stroke-width="1.3551" stroke-linecap="round" stroke-linejoin="round" d="
				M264.591,405.226c0.552-3.661,0.402-7.927,3.406-10.579c2.133-1.754,4.787-2.732,6.634-4.871"/>
			<path id="path4326" fill="none" stroke="#662F90" stroke-width="1.3551" stroke-linecap="round" stroke-linejoin="round" d="
				M263.07,405.595c0.274-4.166-0.221-8.988,2.89-12.242c2.106-2.454,4.717-4.38,7.102-6.537"/>
			<path id="path4328" fill="none" stroke="#662F90" stroke-width="1.3551" stroke-linecap="round" stroke-linejoin="round" d="
				M270.661,390.785c6.558-4.216,12.757-9.472,20.475-11.354c0.442-0.144,0.888-0.288,1.335-0.424"/>
			<path id="path4330" fill="none" stroke="#662F90" stroke-width="1.3551" stroke-linecap="round" stroke-linejoin="round" d="
				M270.005,403.37c1.682-2.646,4.022-4.743,6.678-6.332c3.084-2.092,6.462-3.756,9.261-6.249c5.098-3.144,11.59-2.526,16.629-5.844
				c1.482-0.901,2.895-1.915,4.371-2.824"/>
			<path id="path4332" fill="none" stroke="#662F90" stroke-width="1.3551" stroke-linecap="round" stroke-linejoin="round" d="
				M269.485,405.43c3.016-2.545,6.139-5.059,9.791-6.59c4.016-2.465,7.217-6.429,11.947-7.568c3.705-1.516,7.659-2.291,11.434-3.551
				c1.852-0.925,3.655-1.972,5.268-3.288"/>
			<path id="path4334" fill="none" stroke="#662F90" stroke-width="1.3551" stroke-linecap="round" stroke-linejoin="round" d="
				M273.258,404.701c7.389-2.607,12.918-8.603,19.918-11.937c4.392-1.629,9.433-1.83,13.155-4.993
				c0.423-0.272,0.846-0.543,1.268-0.813"/>
			<path id="path4336" fill="none" stroke="#662F90" stroke-width="1.3551" stroke-linecap="round" stroke-linejoin="round" d="
				M276.316,404.828c6.075-1.588,10.926-6.42,17.34-6.938c2.839-0.561,5.684,0.36,8.43,0.614c0.739-0.09,1.479-0.179,2.219-0.268"/>
			<path id="path4338" fill="none" stroke="#662F90" stroke-width="1.3551" stroke-linecap="round" stroke-linejoin="round" d="
				M286.542,398.862c3.97-2.982,8.355-5.732,13.366-6.331c2.735-0.743,5.563-1.53,7.804-3.367"/>
			<path id="path4340" fill="none" stroke="#662F90" stroke-width="1.3551" stroke-linecap="round" stroke-linejoin="round" d="
				M292.268,397.448c4.521-2.411,9.421-3.854,14.404-4.904"/>
			<path id="path4342" fill="none" stroke="#662F90" stroke-width="1.3551" stroke-linecap="round" stroke-linejoin="round" d="
				M297.777,396.936c2.294-0.548,4.588-1.264,6.971-1.243"/>
			<path id="path4344" fill="none" stroke="#662F90" stroke-width="1.3551" stroke-linecap="round" stroke-linejoin="round" d="
				M266.047,406.723c4.123,1.97,8.576,4.036,13.239,3.237c4.273-0.81,8.485-1.943,12.542-3.525c2.939-1.087,6.093-1.381,9.175-0.749
				"/>
			<path id="path4346" fill="none" stroke="#662F90" stroke-width="1.3551" stroke-linecap="round" stroke-linejoin="round" d="
				M270.665,406.722c7.184,1.737,14.813,0.521,21.42-2.638c2.964-1.123,6.149-0.771,9.244-0.922"/>
			<path id="path4348" fill="none" stroke="#662F90" stroke-width="1.3551" stroke-linecap="round" stroke-linejoin="round" d="
				M277.4,405.52c3.496-0.479,7.167-0.678,10.292-2.503c4.871-1.603,10.062-2.355,15.182-2.328"/>
			<path id="path4350" fill="none" stroke="#662F90" stroke-width="1.3551" stroke-linecap="round" stroke-linejoin="round" d="
				M264.486,407.591c3.777,2.533,8.171,4.952,12.844,4.281c3.233,0.201,6.653,0.205,9.481-1.6c3.602-1.374,7.532-1.908,11.367-1.768
				l0.432,0.05l0.43,0.039"/>
			<path id="path4352" fill="none" stroke="#662F90" stroke-width="1.3551" stroke-linecap="round" stroke-linejoin="round" d="
				M262.567,408.517c3.156,2.12,6.547,4.012,10.336,4.578c4.071,0.713,8.262,1.176,12.35,0.401c2.929-0.408,5.839-0.939,8.763-1.379
				"/>
			<path id="path4354" fill="none" stroke="#662F90" stroke-width="1.3551" stroke-linecap="round" stroke-linejoin="round" d="
				M261.341,409.207c2.818,1.979,5.608,4.237,9.033,4.977c6.229,2.288,13.006,2.185,19.45,1.148l0.463-0.048l0.459-0.047"/>
			<path id="path4356" fill="none" stroke="#662F90" stroke-width="1.3551" stroke-linecap="round" stroke-linejoin="round" d="
				M259.385,409.894c3.603,2.474,7.101,5.268,11.314,6.586c5.286,2.051,11.153,1.837,16.646,1.034"/>
			<path id="path4358" fill="none" stroke="#662F90" stroke-width="1.3551" stroke-linecap="round" stroke-linejoin="round" d="
				M257.567,410.679c4.646,3.688,9.617,7.476,15.62,8.316c2.758,0.514,5.573,0.546,8.347,0.936"/>
			<path id="path4360" fill="none" stroke="#662F90" stroke-width="1.3551" stroke-linecap="round" stroke-linejoin="round" d="
				M261.723,407.044c-0.51-4.434-1.009-9.3,1.465-13.254c0.627-1.026,1.354-1.984,2.006-2.993"/>
			<path id="path4362" fill="none" stroke="#662F90" stroke-width="1.3551" stroke-linecap="round" stroke-linejoin="round" d="
				M259.55,407.889c-0.082-4.733-0.253-9.798,1.864-14.137"/>
			<path id="path4364" fill="none" stroke="#662F90" stroke-width="1.3551" stroke-linecap="round" stroke-linejoin="round" d="
				M256.906,408.065c0.585-4.472,0.276-9.403,2.847-13.307"/>
			<path id="path4366" fill="none" stroke="#662F90" stroke-width="1.3551" stroke-linecap="round" stroke-linejoin="round" d="
				M254.421,406.983c0.037-4.302,1.867-8.215,3.535-12.06"/>
			<path id="path4368" fill="none" stroke="#662F90" stroke-width="1.3551" stroke-linecap="round" stroke-linejoin="round" d="
				M252.219,404.619c-0.251-3.367,1.7-6.292,3.287-9.055"/>
			<path id="path4370" fill="none" stroke="#662F90" stroke-width="1.3551" stroke-linecap="round" stroke-linejoin="round" d="
				M249.959,401.324c0.994-1.889,1.986-3.778,2.98-5.666"/>
		</g>
		<g id="layer1" transform="translate(-106.83931,-293.64792)" inkscape:groupmode="layer" inkscape:label="Cortex">
			
				<path id="path2453" sodipodi:nodetypes="cccccccccccccccccccccccccccccccccccccccc" fill="none" stroke="#662F90" stroke-width="7.1394" stroke-linecap="round" stroke-linejoin="round" d="
				M179.638,400.428c-5.442-1.101-10.438-3.921-14.506-7.867c-2.697-2.258-6.085-3.925-7.169-7.556
				c-1.016-2.031-2.818-4.648-2.257-6.305c-4.433-1.461-3.353-7.175-2.973-10.769c1.155-3.253-2.836-5.79-1.229-8.947
				c2.719-1.605-0.357-4.167,1.088-6.568c0.962-2.408,2.732-4.933,5.373-5.65c-0.829-3.421,2.182-5.778,3.045-8.877
				c2.465-2.978,4.378-6.637,8.259-7.874c3.071-2.541,7.014-3.592,9.81-6.531c2.733-2.641,5.922-4.491,9.533-5.605
				c4.78-1.77,9.465-3.737,13.656-6.706c7.986-2.706,16.131-5.816,24.609-6.079c3.627,0.737,6.644-2.327,10.229-2.616
				c4.873-1.191,10.016-0.104,15.006-0.319c4.288,0.63,8.674,1.45,12.842,2.554c2.32,2.236,5.881,0.699,8.316,2.857
				c3.432,2,7.865,3.091,10.08,6.558c0.563,2.345,3.84,2.781,5.601,4.187c4.405,1.965,7.76,5.637,11.079,9.02
				c0.925,2.009,2.572,4.367,2.189,6.185c4.354,2.786,6.862,7.562,10.298,11.338c0.942,2.764,3.451,5.232,3.209,8.221
				c2.301,1.27,3.023,4.324,4.11,6.566c0.134,3.488,1.121,7.131-0.982,10.214c-0.837,2.913-2.554,5.184-4.967,6.94
				c-2.263,1.946-5.569,2.199-8.415,1.6c-6.912-0.973-13.805,0.179-20.729,0.097c-3.428,2.177-6.278,5.151-10.128,6.643
				c-3.518,1.801-7.077,4.438-11.232,3.776c0.672,3.55-3.544,4.021-5.977,4.896c-4.641,1.738-9.552,2.751-14.248,4.127
				c-4.824,3.787-10.173,7.059-14.508,11.382c-1.665,2.961-4.663,5.061-8.122,4.766c-3.682,0.322-7.036-2.107-10.597-2.911
				c-3.158-1.409-6.806,0.393-9.826-1.698c-2.318-0.711-4.206-2.705-5.688-4.488c-1.637-1.617,0.795-6.264-1.764-5.845
				C188.316,399.569,185.426,400.465,179.638,400.428z"/>
			<path id="path3230" fill="none" stroke="#662F90" stroke-width="1.3551" stroke-linecap="round" stroke-linejoin="round" d="
				M201.062,404.329c6.062-3.377,6.594-11.23,11.346-15.816c3.523-3.418,7.145-8.595,12.737-7.369
				c7.124,1.191,14.084-2.536,18.647-7.877c3.271-4.062,8.011-6.642,13.225-6.708c6.156,0.629,6.525-5.484,7.677-9.952
				c1.553-4.915,6.704-7.516,7.032-13.043c2.209-5.117,3.232-10.678,3.229-16.272c-0.559-4.033,1.522-7.479,3.54-10.726
				c0.279-0.584,0.509-1.195,0.658-1.83"/>
			<path id="path3235" fill="none" stroke="#662F90" stroke-width="1.3551" stroke-linecap="round" stroke-linejoin="round" d="
				M215.218,411.144c3.143-3.053,5.908-6.555,7.75-10.576c1.778-2.271,4.908-2.172,7.355-3.207c2.37-0.438,4.402-1.795,6.129-3.439
				c1.487-1.707,3.647-0.389,5.341,0.246c1.925,0.877,3.81,1.852,5.823,2.515"/>
			
				<path id="path3250" sodipodi:nodetypes="cccccc" fill="none" stroke="#662F90" stroke-width="1.3551" stroke-linecap="round" stroke-linejoin="round" d="
				M193.515,399.074c1.815-7.313,3.602-14.89,9.263-20.237c5.766-6.257,12.555-13.7,21.486-14.312
				c9.127,1.775,8.911-9.178,14.571-13.229c4.881-3.948,13.812-1.307,16.166-8.799c2.001-6.419,3.001-5.901,4.231-8.09"/>
			
				<path id="path3255" sodipodi:nodetypes="cccc" fill="none" stroke="#662F90" stroke-width="1.3551" stroke-linecap="round" stroke-linejoin="round" d="
				M234.379,357.043c-2.858-6.478-6.05-10.291-5.579-17.565c0.046-3.459,2.783-10.933,5.045-13.465
				c4.264-9.875,4.565-7.776,12.124-11.477"/>
			
				<path id="path3264" sodipodi:nodetypes="ccccc" fill="none" stroke="#662F90" stroke-width="1.3551" stroke-linecap="round" stroke-linejoin="round" d="
				M274.021,335.049c-3.151-6.871-10.052-3.804-13.823-10.223c-2.281-2.645-5.466-11.082-7.683-13.792
				c-3.84-1.189-7.288-4.171-8.364-8.19c-0.125-0.26-0.25-0.52-0.376-0.779"/>
			<path id="path3278" fill="none" stroke="#662F90" stroke-width="1.3551" stroke-linecap="round" stroke-linejoin="round" d="
				M279.902,340.827c1.306,1.415,2.718,2.727,3.956,4.205c1.155,4.293,3.195,8.613,2.444,13.163
				c-0.418,3.269-1.051,6.642-0.208,9.904c-0.734,1.935,0.888,4.41,2.971,4.317c1.941,0.577,4.462,0.411,5.642-1.484
				c1.896-2.285,4.544-4.184,7.583-4.28c1.812-0.388,3.328-2.416,2.574-4.292c-0.134-0.524-0.348-1.028-0.607-1.501"/>
			<path id="path3306" fill="none" stroke="#662F90" stroke-width="1.3551" stroke-linecap="round" stroke-linejoin="round" d="
				M292.819,359.2c4.4-1.717,8.779-3.505,13.024-5.586c1.26,0.102,2.717-0.216,3.761,0.708c1.654,0.933,3.282,1.979,4.546,3.432
				c2.025,1.831,3.668,4.032,5.219,6.272l0.113,0.156l0.115,0.155"/>
			<path id="path3308" fill="none" stroke="#662F90" stroke-width="1.3551" stroke-linecap="round" stroke-linejoin="round" d="
				M305.483,353.497c0.3-2.4,1.131-5.08-0.236-7.314c-1.675-3.003-4.569-5.003-6.556-7.752c-0.836-1.462-1.771-3.057-3.425-3.659
				c-1.605-0.803-3.434-0.649-5.154-0.604c-2.854-0.329-4.542-2.999-6.543-4.762"/>
			<path id="path3329" fill="none" stroke="#662F90" stroke-width="1.3551" stroke-linecap="round" stroke-linejoin="round" d="
				M279.769,372.128c-2.163,0.938-4.207,2.18-6.467,2.874c-3.281,0.891-6.599,1.668-9.96,2.189c-1.117,0.179-2.21-0.295-3.061-1.013
				c-1.326-1.081-2.48-2.365-3.801-3.458c-0.331-0.298-0.663-0.595-0.993-0.891"/>
			<path id="path3335" fill="none" stroke="#662F90" stroke-width="1.3551" stroke-linecap="round" stroke-linejoin="round" d="
				M260.29,387.834c-3.82-3.256-9.098-4.393-12.201-8.601c-1.749-1.883-2.836-4.379-3.014-6.956"/>
			<path id="path3337" fill="none" stroke="#662F90" stroke-width="1.3551" stroke-linecap="round" stroke-linejoin="round" d="
				M247.898,387.727c1.745-1.302,4.096-2.104,4.981-4.294"/>
			<path id="path3339" fill="none" stroke="#662F90" stroke-width="1.3551" stroke-linecap="round" stroke-linejoin="round" d="
				M270.691,357.333c3.908,0.431,9.237,2.855,6.57,7.703c-0.239,0.788-0.577,1.548-1.021,2.239"/>
			<path id="path3341" fill="none" stroke="#662F90" stroke-width="1.3551" stroke-linecap="round" stroke-linejoin="round" d="
				M277.272,359.771c1.398-0.923,2.794-1.847,4.194-2.77"/>
			<path id="path3343" fill="none" stroke="#662F90" stroke-width="1.3551" stroke-linecap="round" stroke-linejoin="round" d="
				M285.147,349.945c-2.124,1.252-4.204,2.579-6.238,3.972"/>
			<path id="path3347" fill="none" stroke="#662F90" stroke-width="1.3551" stroke-linecap="round" stroke-linejoin="round" d="
				M276.623,336.459c2.983-4.036,6.661-7.469,10.398-10.767c0.625-1.588,0.357-3.337,0.652-4.985"/>
			<path id="path3349" fill="none" stroke="#662F90" stroke-width="1.3551" stroke-linecap="round" stroke-linejoin="round" d="
				M307.189,376.988c3.788-3.323,6.024-8.771,4.143-13.753c-0.374-1.267-0.906-2.485-1.599-3.604"/>
			<path id="path3351" fill="none" stroke="#662F90" stroke-width="1.3551" stroke-linecap="round" stroke-linejoin="round" d="
				M263.61,363.537c1.6,0.997,4.643,1.072,4.536,3.641"/>
			<path id="path3353" fill="none" stroke="#662F90" stroke-width="1.3551" stroke-linecap="round" stroke-linejoin="round" d="
				M267.845,365.304c0.671-0.457,1.343-0.916,2.015-1.372"/>
			<path id="path3355" fill="none" stroke="#662F90" stroke-width="1.3551" stroke-linecap="round" stroke-linejoin="round" d="
				M230.993,392.709c-3.385-0.629-7.488-3.532-6.365-7.54"/>
			<path id="path3357" fill="none" stroke="#662F90" stroke-width="1.3551" stroke-linecap="round" stroke-linejoin="round" d="
				M272.159,385.756l-2.784-2.351"/>
			
				<path id="path3345" sodipodi:nodetypes="ccc" fill="none" stroke="#662F90" stroke-width="1.3551" stroke-linecap="round" stroke-linejoin="round" d="
				M298.461,349.381c-0.511-3.188-1.825-11.033-6.476-8.223c-3.3,2.213-2.935,7.496-5.861,8.454"/>
			<path id="path3361" fill="none" stroke="#662F90" stroke-width="1.3551" stroke-linecap="round" stroke-linejoin="round" d="
				M297.059,335.279l-0.236-4.681l-1.857-4.07l-1.384-3.273"/>
			<path id="path3363" fill="none" stroke="#662F90" stroke-width="1.3551" stroke-linecap="round" stroke-linejoin="round" d="
				M306.228,347.436c0.988-0.974,1.979-1.948,2.969-2.923"/>
			<path id="path3572" fill="none" stroke="#662F90" stroke-width="1.3551" d="M189.771,375.737
				c-2.008-0.527-4.157-1.365-5.228-3.305c-1.059-1.575-1.351-3.955-3.345-4.668c-1.471-1.148-3.909-1.033-4.717-2.988
				c-0.45-2.136-1.224-4.555-3.331-5.559c-1.61-0.797-3.006-2.612-4.983-2.186c-1.784,0.324-3.173,2.631-5.071,1.916
				c-2.244-1.044-3.567-3.295-5.001-5.221c-1.078-1.676-1.659-3.883-0.758-5.761c0.109-0.324,0.224-0.649,0.32-0.977"/>
			<path id="path3702" fill="none" stroke="#662F90" stroke-width="1.3551" d="M177.927,386.548
				c-1.271-1.136-2.541-2.271-3.812-3.407c-0.388-0.986-0.775-1.973-1.162-2.958c0.073-2.128,0.442-4.282,1.417-6.18
				c0.194-0.859-0.512-1.874-1.417-1.815c-0.816,0.29-1.655,0.845-2.551,0.563c-1.738-0.122-3.525-0.766-4.709-2.12
				c-0.168-0.136-0.343-0.266-0.523-0.383"/>
			<path id="path3762" fill="none" stroke="#662F90" stroke-width="1.3551" d="M167.87,364.573
				c-1.377-0.013-2.754-0.024-4.131-0.037c-0.934,0.616-1.865,1.23-2.798,1.847c-0.224,1.092-1.006,2.187-0.543,3.326
				c0.565,2.182,1.159,4.555,2.902,6.104c1.517,1.248,2.772,2.799,3.8,4.476c0.652,0.786,0.927,1.839,0.834,2.85
				c0.008,0.098,0.021,0.195,0.039,0.289"/>
			<path id="path3826" fill="none" stroke="#662F90" stroke-width="1.3551" d="M179.383,327.077c-1.04,1.166-2.068,2.58-3.693,2.878
				c-2.159,0.855-3.807,2.608-5.194,4.428c-1.802,1.539-4.384,1.462-6.271,2.835c-1.344,1.172-2.325,3.22-1.462,4.973
				c0.566,1.012,1.844,1.445,2.184,2.62c0.419,1.122,1.247,2.083,2.434,2.349c0.174,0.077,0.342,0.169,0.491,0.288"/>
			<path id="path3565" fill="none" stroke="#662F90" stroke-width="1.3551" d="M205.47,330.054c0.748-1.063,1.521-2.112,2.254-3.188
				c0.625-2.078,1.237-4.172,2.145-6.146c0.286-0.767,0.582-1.563,1.201-2.122c0.763-0.854,1.526-1.709,2.291-2.565"/>
			<path id="path3689" fill="none" stroke="#662F90" stroke-width="1.3551" d="M179.086,381.994
				c3.956-1.259,7.918-2.528,11.982-3.384c0.809-0.166,1.654-0.316,2.321-0.847c0.774-0.469,1.55-0.938,2.323-1.407"/>
			<path id="path4136" fill="none" stroke="#662F90" stroke-width="1.3551" d="M223.855,349.297L223.855,349.297
				c2.063,8.581,2.622,8.84,2.622,8.84"/>
			<path id="path4138" fill="none" stroke="#662F90" stroke-width="1.3551" d="M205.452,343.864
				c4.056,5.989,2.652,7.961,2.652,7.961"/>
			<path id="path4140" fill="none" stroke="#662F90" stroke-width="1.3551" d="M240.655,321.251
				c6.489,4.025,6.024,9.691,6.024,9.691"/>
			<path id="path4142" sodipodi:nodetypes="cc" fill="none" stroke="#662F90" stroke-width="1.3551" d="M239.469,338.349
				c1.996,8.194,12.666,7.819,12.666,7.819"/>
			<path id="path4144" fill="none" stroke="#662F90" stroke-width="1.3551" d="M174.657,396.16c4.098-6.6,13.351-2.492,13.351-2.492
				"/>
			<path id="path3419" fill="none" stroke="#662F90" stroke-width="1.3551" d="M223.609,380.965
				c-3.245-2.244-4.417-6.805-3.23-10.491"/>
			<path id="path3421" fill="none" stroke="#662F90" stroke-width="1.3551" d="M230.644,363.759
				c-0.462,3.254-1.837,6.338-1.902,9.659c-0.245,0.723-0.866,1.206-1.233,1.853"/>
			<path id="path3423" fill="none" stroke="#662F90" stroke-width="1.3551" d="M243.582,359.76c2.535,0.125,5.197,0.642,7.632-0.341
				c2.593-0.049,2.706-3.248,3.355-5.09"/>
			<path id="path3425" fill="none" stroke="#662F90" stroke-width="1.3551" d="M255.004,349.54c2.701,0.145,5.637,0.483,8.072-0.968
				c2.163-0.439,4.271,0.49,6.357,0.924"/>
			<path id="path3427" fill="none" stroke="#662F90" stroke-width="1.3551" d="M261.521,320.537c1.267-0.321,2.533-0.64,3.799-0.959
				c1.642-1.662,3.326-3.279,5.068-4.833"/>
			<path id="path3429" fill="none" stroke="#662F90" stroke-width="1.3551" d="M277.672,315.147
				c-2.711-2.301-6.298-2.941-9.674-3.517c-2.61-0.639-5.629-0.562-7.815,1.188c-0.848,0.617-1.632,1.318-2.521,1.87"/>
			<path id="path3431" fill="none" stroke="#662F90" stroke-width="1.3551" d="M263.478,311.31
				c-0.583-1.047-0.113-2.523,0.951-3.031c0.748-0.748,1.234-1.717,1.942-2.501"/>
			<path id="path3433" fill="none" stroke="#662F90" stroke-width="1.3551" d="M235.476,304.97c2.579,0.19,4.964,4.511,1.396,5.229
				c-2.967,1.04-6.046,2.022-8.361,4.286c-1.878,1.677-4.619,3.897-3.636,6.793c1.798,1.891,0.892,4.13-1.386,5.001
				c-2.054,2.187-2.428,5.361-2.692,8.306c-0.839,2.652-1.281,5.881-3.413,7.763c-3.03,1.809-1.672,5.407-0.323,7.765
				c0.607,3.238-2.671,4.803-3.617,7.393c-0.082,2.769-1.959,4.523-3.6,6.467c-1.93,1.995,0.254,4.129,2.101,5.043
				c0.284,0.151,0.575,0.284,0.874,0.401"/>
			<path id="path3438" fill="none" stroke="#662F90" stroke-width="1.3551" d="M223.466,307.247
				c-3.408,1.163-4.105,5.254-4.194,8.449c-1.775,2.518-2.041,5.854-1.602,8.6c-1.424,2.242-4.832,4.296-3.415,7.386
				c1.137,3.918-4.064,4.624-6.628,5.624c-2.812,0.405-6.877,0.137-7.898,3.561c-1.02,3.536,1.115,6.961,1.267,10.482
				c0.251,5.231-2.293,10.138-1.938,15.396c0.088,3.753,0.963,7.439,2.039,11.019"/>
			<path id="path3446" fill="none" stroke="#662F90" stroke-width="1.3551" d="M197.518,370.472
				c-1.016-3.572-2.348-7.183-2.117-10.957c-0.102-2.111-0.624-4.18-1.297-6.175c-0.684-1.316-1.898-2.217-2.796-3.362"/>
			<path id="path3490" fill="none" stroke="#662F90" stroke-width="1.3551" d="M211.231,310.258c0.078,1.49-1.501,2.155-2.694,2.434
				c-3.284,0.894-6.117,2.896-9.211,4.256c-2.111,1.155-3.984,2.687-5.966,4.042c-0.787,1.874-1.575,3.748-2.363,5.622
				c0.205,1.426,0.794,3.245,2.418,3.484c1.668,0.416,3.298,0.968,4.953,1.426c1.882,1.22,2.987,3.265,4.422,4.938
				c0.337,0.459,0.671,0.918,1.008,1.378"/>
			<path id="path3502" fill="none" stroke="#662F90" stroke-width="1.3551" d="M199.15,342.078
				c-1.234-0.579-2.604-1.166-3.982-0.816c-1.379,0.064-2.673,0.618-3.82,1.364c-1.589,0.793-3.137,1.717-4.399,2.992
				c-0.927,0.747-1.658,1.697-2.27,2.718c-0.687,0.927-1.301,1.949-1.449,3.119c-0.147,0.896-0.641,1.8-0.312,2.701
				c0.236,1.259,0.455,2.588,1.282,3.612c0.516,0.846,1.032,1.69,1.548,2.537"/>
			<path id="path3509" fill="none" stroke="#662F90" stroke-width="1.3551" d="M182.335,354.039
				c-1.592,0.568-3.831,0.119-4.476-1.651c-1.258-1.581-1.255-4.129-3.235-5.096c-2.064-0.08-3.726-2.126-3.512-4.194
				c0.011-2.529,2.164-4.197,3.833-5.748c2.795-2.418,6.139-4.153,8.672-6.889c1.315-1.601-0.621-3.445-0.137-5.126
				c0.84-1.884,3.021-2.349,4.583-3.414c1.644-0.969,3.628-1.728,5.528-1.062l0.271,0.05"/>
			<path id="path3522" sodipodi:nodetypes="ccccc" fill="none" stroke="#662F90" stroke-width="1.3551" d="M187.247,329.238
				c0.029,1.581-1.901,3.224-2.017,5.324c1.314,3.418-0.044,3.849-3.493,4.396c-1.25,0.587-1.665,2.068-1.875,3.341
				c-0.234,1.358-0.164,2.745-0.125,4.118"/>
			<path id="path3580" fill="none" stroke="#662F90" stroke-width="1.3551" d="M196.816,330.747
				c-0.189-1.591-0.082-3.258,0.962-4.531c0.637-0.942,1.011-2.047,0.875-3.195l0.002-0.068l0.002-0.017"/>
		</g>
	</g>
</g>
</svg>
