<?xml version="1.0" encoding="utf-8"?>
<!-- Generator: Adobe Illustrator 16.0.0, SVG Export Plug-In . SVG Version: 6.00 Build 0)  -->
<!DOCTYPE svg PUBLIC "-//W3C//DTD SVG 1.1//EN" "http://www.w3.org/Graphics/SVG/1.1/DTD/svg11.dtd">
<svg version="1.1" id="Layer_1" xmlns="http://www.w3.org/2000/svg" xmlns:xlink="http://www.w3.org/1999/xlink" x="0px" y="0px"
	 width="256px" height="256px" viewBox="0 0 256 256" enable-background="new 0 0 256 256" xml:space="preserve">
<g>
	<g>
		<g>
			<g>
				<path opacity="0" fill="#FFFFFF" d="M49.121,64.674c-35.175,51.378-14.353,139.338,84.253,141.251
					c98.588,1.956,121.668-85.19,87.871-137.844c-18.773-29.286-54.182-45.399-85.5-46.02
					C104.425,21.414,68.626,36.166,49.121,64.674z"/>
				<path opacity="0.0164" fill="#FFFBF9" d="M50.451,64.703c-34.601,50.571-14.084,137.122,82.952,139.003
					c97.021,1.926,119.757-83.822,86.513-135.648c-18.467-28.841-53.331-44.717-84.178-45.327
					C104.887,22.092,69.638,36.628,50.451,64.703z"/>
				<path opacity="0.0328" fill="#FFF9F4" d="M51.78,64.731c-34.027,49.767-13.816,134.905,81.651,136.758
					c95.451,1.893,117.847-82.457,85.154-133.453c-18.16-28.397-52.48-44.036-82.856-44.637C105.35,22.77,70.65,37.09,51.78,64.731z
					"/>
				<path opacity="0.0492" fill="#FFF6F0" d="M53.109,64.761c-33.452,48.961-13.547,132.688,80.351,134.51
					c93.881,1.862,115.936-81.089,83.797-131.258c-17.855-27.951-51.631-43.354-81.538-43.945
					C105.812,23.446,71.662,37.552,53.109,64.761z"/>
				<path opacity="0.0656" fill="#FFF4ED" d="M54.439,64.79C21.56,112.945,41.16,195.262,133.488,197.053
					c92.313,1.831,114.026-79.722,82.438-129.062c-17.549-27.507-50.78-42.672-80.216-43.254
					C106.274,24.124,72.674,38.014,54.439,64.79z"/>
				<path opacity="0.082" fill="#FFF2EA" d="M55.769,64.818c-32.304,47.35-13.01,128.257,77.748,130.017
					c90.744,1.799,112.115-78.355,81.08-126.867c-17.242-27.062-49.93-41.99-78.894-42.562
					C106.736,24.802,73.687,38.476,55.769,64.818z"/>
				<path opacity="0.0984" fill="#FFF0E6" d="M57.098,64.848c-31.731,46.544-12.742,126.04,76.447,127.77
					c89.175,1.768,110.204-76.988,79.722-124.673c-16.938-26.616-49.079-41.308-77.573-41.87
					C107.198,25.479,74.699,38.937,57.098,64.848z"/>
				<path opacity="0.1148" fill="#FFEEE3" d="M58.427,64.876C27.271,110.614,45.954,188.7,133.574,190.399
					c87.606,1.736,108.294-75.621,78.364-122.478c-16.633-26.172-48.229-40.626-76.253-41.179
					C107.66,26.157,75.71,39.399,58.427,64.876z"/>
				<path opacity="0.1311" fill="#FEECE0" d="M59.757,64.905c-30.583,44.933-12.205,121.607,73.846,123.276
					c86.037,1.704,106.384-74.255,77.005-120.282c-16.324-25.728-47.378-39.944-74.932-40.487
					C108.123,26.835,76.723,39.861,59.757,64.905z"/>
				<path opacity="0.1475" fill="#FEEADD" d="M61.086,64.935c-30.009,44.126-11.937,119.391,72.545,121.029
					c84.467,1.673,104.473-72.888,75.647-118.088c-16.02-25.281-46.528-39.262-73.611-39.796
					C108.584,27.512,77.734,40.322,61.086,64.935z"/>
				<path opacity="0.1639" fill="#FEE8D9" d="M62.416,64.964c-29.435,43.32-11.668,117.174,71.244,118.781
					c82.9,1.642,102.562-71.52,74.289-115.892c-15.713-24.837-45.676-38.58-72.29-39.104
					C109.046,28.189,78.747,40.784,62.416,64.964z"/>
				<path opacity="0.1803" fill="#FEE6D6" d="M63.745,64.992c-28.86,42.516-11.4,114.959,69.943,116.535
					c81.33,1.61,100.652-70.153,72.932-113.696c-15.408-24.393-44.828-37.898-70.969-38.413
					C109.508,28.867,79.759,41.246,63.745,64.992z"/>
				<path opacity="0.1967" fill="#FEE4D3" d="M65.074,65.021c-28.286,41.71-11.131,112.742,68.642,114.289
					c79.761,1.578,98.742-68.787,71.574-111.502c-15.102-23.947-43.977-37.216-69.648-37.722
					C109.97,29.544,80.771,41.708,65.074,65.021z"/>
				<path opacity="0.2131" fill="#FEE2D0" d="M66.404,65.05c-27.712,40.904-10.863,110.526,67.341,112.042
					c78.193,1.547,96.832-67.419,70.215-109.307c-14.795-23.502-43.125-36.534-68.327-37.03
					C110.432,30.222,81.783,42.17,66.404,65.05z"/>
				<path opacity="0.2295" fill="#FEE1CD" d="M67.734,65.079c-27.139,40.099-10.595,108.31,66.04,109.795
					c76.624,1.516,94.92-66.053,68.858-107.111c-14.49-23.058-42.277-35.853-67.007-36.339
					C110.895,30.899,82.795,42.632,67.734,65.079z"/>
				<path opacity="0.2459" fill="#FEDFCA" d="M69.063,65.108c-26.564,39.293-10.326,106.093,64.739,107.548
					c75.054,1.484,93.011-64.686,67.5-104.917c-14.184-22.611-41.425-35.169-65.686-35.646
					C111.357,31.577,83.807,43.094,69.063,65.108z"/>
				<path opacity="0.2623" fill="#FDDDC7" d="M70.393,65.137c-25.991,38.487-10.058,103.878,63.438,105.302
					c73.486,1.453,91.1-63.318,66.141-102.722c-13.877-22.167-40.575-34.487-64.364-34.955
					C111.819,32.255,84.82,43.556,70.393,65.137z"/>
				<path opacity="0.2787" fill="#FDDBC4" d="M71.722,65.166c-25.417,37.682-9.789,101.661,62.137,103.054
					c71.917,1.422,89.19-61.951,64.782-100.525c-13.57-21.723-39.724-33.807-63.042-34.265
					C112.281,32.933,85.831,44.018,71.722,65.166z"/>
				<path opacity="0.2951" fill="#FDD9C1" d="M73.051,65.194c-24.842,36.876-9.521,99.444,60.836,100.808
					c70.348,1.39,87.279-60.585,63.424-98.331c-13.264-21.277-38.873-33.124-61.722-33.572
					C112.743,33.609,86.843,44.479,73.051,65.194z"/>
				<path opacity="0.3115" fill="#FDD7BE" d="M74.38,65.224c-24.268,36.07-9.252,97.229,59.536,98.561
					c68.78,1.359,85.37-59.217,62.067-96.136c-12.959-20.833-38.024-32.442-60.402-32.881C113.205,34.287,87.855,44.94,74.38,65.224
					z"/>
				<path opacity="0.3279" fill="#FDD5BB" d="M75.71,65.253c-23.694,35.265-8.983,95.012,58.234,96.314
					c67.21,1.326,83.458-57.852,60.708-93.941c-12.652-20.388-37.172-31.76-59.081-32.189
					C113.667,34.965,88.868,45.403,75.71,65.253z"/>
				<path opacity="0.3443" fill="#FDD3B8" d="M77.04,65.281c-23.12,34.46-8.715,92.796,56.934,94.067
					c65.641,1.296,81.549-56.484,59.35-91.745c-12.346-19.943-36.322-31.079-57.759-31.498
					C114.129,35.642,89.879,45.864,77.04,65.281z"/>
				<path opacity="0.3607" fill="#FDD1B6" d="M78.369,65.31c-22.546,33.654-8.447,90.58,55.634,91.82
					c64.073,1.265,79.637-55.116,57.993-89.55c-12.041-19.498-35.473-30.396-56.44-30.807
					C114.591,36.319,90.891,46.326,78.369,65.31z"/>
				<path opacity="0.377" fill="#FCCFB3" d="M79.698,65.339c-21.972,32.849-8.178,88.363,54.333,89.574
					c62.503,1.232,77.726-53.75,56.634-87.355c-11.734-19.053-34.622-29.715-55.119-30.115
					C115.053,36.997,91.904,46.788,79.698,65.339z"/>
				<path opacity="0.3934" fill="#FCCEB0" d="M81.028,65.368c-21.397,32.043-7.91,86.147,53.032,87.326
					c60.935,1.202,75.816-52.382,55.275-85.159c-11.428-18.608-33.771-29.032-53.796-29.424
					C115.516,37.675,92.916,47.25,81.028,65.368z"/>
				<path opacity="0.4098" fill="#FCCCAD" d="M82.357,65.397c-20.824,31.236-7.641,83.93,51.73,85.079
					c59.366,1.171,73.907-51.015,53.919-82.965c-11.125-18.163-32.922-28.351-52.477-28.731
					C115.978,38.353,93.928,47.712,82.357,65.397z"/>
				<path opacity="0.4262" fill="#FCCAAA" d="M83.687,65.426c-20.25,30.431-7.374,81.714,50.429,82.833
					c57.797,1.139,71.996-49.648,52.561-80.77c-10.817-17.719-32.071-27.669-51.156-28.041
					C116.439,39.029,94.94,48.173,83.687,65.426z"/>
				<path opacity="0.4426" fill="#FCC8A7" d="M85.017,65.455c-19.676,29.625-7.105,79.498,49.128,80.586
					c56.227,1.106,70.084-48.282,51.202-78.575c-10.511-17.272-31.22-26.986-49.834-27.349
					C116.902,39.707,95.952,48.636,85.017,65.455z"/>
				<path opacity="0.459" fill="#FCC6A4" d="M86.346,65.484c-19.102,28.819-6.836,77.281,47.828,78.339
					c54.659,1.076,68.175-46.915,49.845-76.379c-10.206-16.828-30.371-26.305-48.515-26.658
					C117.364,40.385,96.964,49.098,86.346,65.484z"/>
				<path opacity="0.4754" fill="#FBC4A2" d="M87.675,65.513c-18.527,28.014-6.568,75.066,46.527,76.093
					c53.09,1.044,66.264-45.548,48.486-74.185c-9.9-16.383-29.52-25.623-47.194-25.966C117.826,41.062,97.976,49.56,87.675,65.513z"
					/>
				<path opacity="0.4918" fill="#FBC29F" d="M89.004,65.542c-17.954,27.207-6.299,72.849,45.226,73.845
					c51.521,1.013,64.355-44.181,47.128-71.989c-9.594-15.938-28.669-24.94-45.873-25.273
					C118.288,41.739,98.988,50.021,89.004,65.542z"/>
				<path opacity="0.5082" fill="#FBC09C" d="M90.334,65.57c-17.38,26.403-6.031,70.634,43.925,71.599
					c49.953,0.981,62.443-42.813,45.769-69.794c-9.287-15.493-27.818-24.259-44.551-24.583C118.75,42.417,100,50.483,90.334,65.57z"
					/>
				<path opacity="0.5246" fill="#FBBE99" d="M91.664,65.6c-16.806,25.597-5.763,68.417,42.624,69.352
					c48.383,0.95,60.534-41.446,44.413-67.599c-8.982-15.048-26.969-23.576-43.231-23.892
					C119.212,43.095,101.012,50.944,91.664,65.6z"/>
				<path opacity="0.541" fill="#FBBD97" d="M92.993,65.629c-16.232,24.791-5.495,66.2,41.323,67.104
					c46.816,0.919,58.623-40.08,43.054-65.403c-8.676-14.604-26.118-22.896-41.91-23.2C119.674,43.772,102.024,51.406,92.993,65.629
					z"/>
				<path opacity="0.5574" fill="#FBBB94" d="M94.323,65.657c-15.658,23.986-5.226,63.984,40.022,64.858
					c45.246,0.888,56.712-38.713,41.695-63.209c-8.369-14.158-25.267-22.212-40.588-22.508
					C120.136,44.45,103.037,51.868,94.323,65.657z"/>
				<path opacity="0.5738" fill="#FAB991" d="M95.652,65.687c-15.083,23.18-4.957,61.768,38.722,62.611
					c43.676,0.855,54.801-37.346,40.336-61.014c-8.062-13.714-24.417-21.531-39.267-21.816
					C120.598,45.128,104.048,52.33,95.652,65.687z"/>
				<path opacity="0.5902" fill="#FAB78E" d="M96.982,65.716c-14.51,22.374-4.689,59.551,37.42,60.363
					c42.109,0.824,52.892-35.979,38.979-58.817c-7.757-13.269-23.566-20.849-37.946-21.126
					C121.061,45.806,105.06,52.792,96.982,65.716z"/>
				<path opacity="0.6066" fill="#FAB58C" d="M98.311,65.744c-13.936,21.569-4.421,57.335,36.119,58.118
					c40.54,0.792,50.981-34.612,37.622-56.623c-7.451-12.824-22.716-20.167-36.626-20.435
					C121.523,46.482,106.073,53.254,98.311,65.744z"/>
				<path opacity="0.623" fill="#FAB389" d="M99.641,65.772c-13.362,20.764-4.152,55.119,34.819,55.871
					c38.969,0.762,49.071-33.244,36.262-54.428c-7.145-12.379-21.865-19.484-35.305-19.742
					C121.985,47.16,107.084,53.716,99.641,65.772z"/>
				<path opacity="0.6393" fill="#FAB187" d="M100.97,65.802c-12.788,19.958-3.884,52.903,33.518,53.624
					c37.401,0.729,47.16-31.878,34.905-52.232c-6.839-11.935-21.016-18.804-33.984-19.052
					C122.447,47.838,108.097,54.178,100.97,65.802z"/>
				<path opacity="0.6557" fill="#F9AF84" d="M102.299,65.831c-12.213,19.152-3.615,50.687,32.217,51.377
					c35.833,0.698,45.25-30.511,33.547-50.037C161.53,55.682,147.898,49.05,135.4,48.812
					C122.909,48.515,109.109,54.64,102.299,65.831z"/>
				<path opacity="0.6721" fill="#F9AE82" d="M103.629,65.86c-11.64,18.346-3.347,48.47,30.916,49.13
					c34.263,0.667,43.339-29.144,32.189-47.843c-6.227-11.044-19.314-17.438-31.342-17.668
					C123.371,49.192,110.121,55.101,103.629,65.86z"/>
				<path opacity="0.6885" fill="#F9AC7F" d="M104.958,65.89c-11.065,17.54-3.078,46.253,29.615,46.883
					c32.695,0.635,41.43-27.777,30.83-45.647c-5.92-10.6-18.463-16.757-30.021-16.977C123.833,49.87,111.133,55.562,104.958,65.89z"
					/>
				<path opacity="0.7049" fill="#F9AA7D" d="M106.288,65.918c-10.491,16.735-2.81,44.038,28.314,44.636
					c31.125,0.604,39.518-26.409,29.472-43.451c-5.615-10.154-17.614-16.075-28.7-16.285
					C124.295,50.548,112.145,56.025,106.288,65.918z"/>
				<path opacity="0.7213" fill="#F9A87A" d="M107.618,65.946c-9.918,15.93-2.542,41.822,27.013,42.391
					c29.557,0.572,37.608-25.043,28.114-41.258c-5.309-9.709-16.763-15.393-27.38-15.593
					C124.757,51.226,113.157,56.487,107.618,65.946z"/>
				<path opacity="0.7377" fill="#F8A678" d="M108.946,65.976c-9.343,15.124-2.273,39.604,25.712,40.143
					c27.988,0.541,35.698-23.676,26.757-39.062c-5.003-9.265-15.913-14.711-26.059-14.901
					C125.219,51.903,114.169,56.948,108.946,65.976z"/>
				<path opacity="0.7541" fill="#F8A475" d="M110.276,66.005c-8.77,14.318-2.004,37.389,24.412,37.896
					c26.419,0.51,33.786-22.309,25.398-36.866c-4.697-8.82-15.062-14.029-24.737-14.211
					C125.681,52.581,115.181,57.41,110.276,66.005z"/>
				<path opacity="0.7705" fill="#F8A373" d="M111.605,66.033c-8.195,13.513-1.736,35.173,23.111,35.649
					c24.851,0.479,31.877-20.941,24.04-34.672c-4.391-8.374-14.212-13.347-23.417-13.519
					C126.144,53.258,116.193,57.872,111.605,66.033z"/>
				<path opacity="0.7869" fill="#F8A171" d="M112.935,66.062c-7.621,12.706-1.467,32.956,21.81,33.402
					c23.281,0.446,29.965-19.575,22.682-32.477c-4.085-7.93-13.362-12.665-22.096-12.827
					C126.605,53.936,117.205,58.334,112.935,66.062z"/>
				<path opacity="0.8033" fill="#F89F6E" d="M114.264,66.092c-7.047,11.9-1.199,30.739,20.509,31.155
					c21.712,0.415,28.056-18.208,21.324-30.281c-3.779-7.484-12.511-11.983-20.775-12.136
					C127.067,54.613,118.217,58.796,114.264,66.092z"/>
				<path opacity="0.8197" fill="#F79D6C" d="M115.594,66.12c-6.473,11.096-0.931,28.523,19.208,28.909
					c20.144,0.384,26.146-16.841,19.966-28.087c-3.473-7.039-11.661-11.301-19.454-11.444
					C127.53,55.29,119.229,59.258,115.594,66.12z"/>
				<path opacity="0.8361" fill="#F79C6A" d="M116.923,66.149c-5.899,10.29-0.663,26.307,17.907,26.662
					c18.575,0.352,24.235-15.475,18.608-25.892c-3.167-6.595-10.811-10.619-18.134-10.753
					C127.992,55.968,120.242,59.72,116.923,66.149z"/>
				<path opacity="0.8525" fill="#F79A67" d="M118.252,66.178c-5.325,9.484-0.394,24.092,16.606,24.415
					c17.005,0.321,22.324-14.106,17.25-23.695c-2.861-6.15-9.96-9.938-16.812-10.062C128.454,56.646,121.254,60.182,118.252,66.178z
					"/>
				<path opacity="0.8689" fill="#F79865" d="M119.582,66.207c-4.75,8.679-0.125,21.875,15.305,22.168
					c15.437,0.29,20.414-12.739,15.892-21.5c-2.556-5.705-9.11-9.256-15.492-9.37C128.916,57.323,122.266,60.644,119.582,66.207z"/>
				<path opacity="0.8852" fill="#F79663" d="M120.912,66.236c-4.177,7.873,0.143,19.658,14.004,19.921
					c13.868,0.258,18.503-11.373,14.534-19.306c-2.249-5.26-8.259-8.573-14.171-8.679C129.378,58,123.278,61.104,120.912,66.236z"/>
				<path opacity="0.9016" fill="#F69560" d="M122.241,66.265c-3.603,7.067,0.412,17.442,12.704,17.675
					c12.299,0.227,16.593-10.006,13.175-17.11c-1.943-4.815-7.409-7.892-12.85-7.987C129.84,58.678,124.29,61.567,122.241,66.265z"
					/>
				<path opacity="0.918" fill="#F6935E" d="M123.57,66.294c-3.029,6.262,0.68,15.226,11.403,15.428
					c10.73,0.195,14.683-8.639,11.817-14.915c-1.637-4.37-6.558-7.21-11.528-7.296C130.302,59.355,125.302,62.028,123.57,66.294z"/>
				<path opacity="0.9344" fill="#F6915B" d="M124.9,66.323c-2.455,5.455,0.948,13.009,10.102,13.181
					c9.162,0.163,12.772-7.272,10.459-12.721c-1.331-3.925-5.708-6.527-10.208-6.604C130.764,60.033,126.314,62.49,124.9,66.323z"/>
				<path opacity="0.9508" fill="#F69059" d="M126.229,66.352c-1.881,4.65,1.216,10.793,8.801,10.934
					c7.592,0.133,10.861-5.904,9.101-10.524c-1.025-3.48-4.857-5.846-8.887-5.912C131.227,60.711,127.326,62.952,126.229,66.352z"/>
				<path opacity="0.9672" fill="#F68E56" d="M127.559,66.381c-1.307,3.845,1.485,8.577,7.5,8.687
					c6.023,0.102,8.952-4.537,7.743-8.33c-0.719-3.035-4.007-5.163-7.566-5.221C131.688,61.389,128.338,63.414,127.559,66.381z"/>
				<path opacity="0.9836" fill="#F68C54" d="M128.888,66.409c-0.733,3.04,1.753,6.361,6.199,6.44
					c4.455,0.069,7.041-3.171,6.385-6.135c-0.413-2.59-3.157-4.481-6.245-4.529C132.151,62.065,129.35,63.876,128.888,66.409z"/>
				<path fill="#F58A51" d="M130.218,66.438c-0.159,2.233,2.022,4.145,4.898,4.193c2.886,0.038,5.13-1.804,5.027-3.939
					c-0.107-2.146-2.306-3.8-4.924-3.838C132.613,62.743,130.362,64.338,130.218,66.438z"/>
			</g>
		</g>
		<g opacity="0.51">
			<g>
				<g>
					
						<radialGradient id="SVGID_1_" cx="1962.7939" cy="-580.7285" r="26.6136" gradientTransform="matrix(3.5059 0.1155 0.0129 3.4729 -6747.3369 1895.7523)" gradientUnits="userSpaceOnUse">
						<stop  offset="0.0242" style="stop-color:#FFFFFF"/>
						<stop  offset="0.3736" style="stop-color:#FFFFFF"/>
						<stop  offset="0.4186" style="stop-color:#D8CEE6"/>
						<stop  offset="0.475" style="stop-color:#B7A2CD"/>
						<stop  offset="0.5347" style="stop-color:#9D81B9"/>
						<stop  offset="0.5966" style="stop-color:#8B68AB"/>
						<stop  offset="0.6613" style="stop-color:#7D54A0"/>
						<stop  offset="0.7298" style="stop-color:#734498"/>
						<stop  offset="0.8038" style="stop-color:#6C3893"/>
						<stop  offset="0.8872" style="stop-color:#683191"/>
						<stop  offset="1" style="stop-color:#662F90"/>
					</radialGradient>
					<path fill="url(#SVGID_1_)" d="M222.981,102.477c0.184,52.753-42.839,94.111-96.111,92.344
						c-53.304-1.748-96.645-45.979-96.838-98.727C29.83,43.326,72.122,14.68,125.378,16.44
						C178.65,18.219,222.782,49.687,222.981,102.477z"/>
				</g>
			</g>
		</g>
		<g opacity="0.73">
			<g>
				<g>
					
						<radialGradient id="SVGID_2_" cx="1976.502" cy="-603.0986" r="16.5117" gradientTransform="matrix(3.3552 1.3935 -0.9347 4.6631 -7067.3853 164.7486)" gradientUnits="userSpaceOnUse">
						<stop  offset="0.0242" style="stop-color:#FFFFFF"/>
						<stop  offset="0.3736" style="stop-color:#F16624"/>
						<stop  offset="0.4167" style="stop-color:#D85C40"/>
						<stop  offset="0.4733" style="stop-color:#BD5059"/>
						<stop  offset="0.5332" style="stop-color:#A54769"/>
						<stop  offset="0.5953" style="stop-color:#923F76"/>
						<stop  offset="0.6602" style="stop-color:#83397F"/>
						<stop  offset="0.7289" style="stop-color:#773486"/>
						<stop  offset="0.8032" style="stop-color:#6E318B"/>
						<stop  offset="0.8868" style="stop-color:#68308E"/>
						<stop  offset="1" style="stop-color:#662F90"/>
					</radialGradient>
					<path fill="url(#SVGID_2_)" d="M183.286,129.73c-8.528,42.496-40.239,66.672-70.821,53.957
						c-30.613-12.7-48.5-57.499-39.976-100.001c8.522-42.517,40.245-66.702,70.833-53.986
						C173.909,42.422,191.806,87.188,183.286,129.73z"/>
				</g>
			</g>
		</g>
		<g opacity="0.73">
			<g>
				<g>
					
						<radialGradient id="SVGID_3_" cx="1979.2998" cy="-604.0986" r="16.5117" gradientTransform="matrix(4.6811 1.3773 -1.3313 4.6681 -9939.7832 201.1166)" gradientUnits="userSpaceOnUse">
						<stop  offset="0" style="stop-color:#FFFFFF"/>
						<stop  offset="0.3736" style="stop-color:#F16624"/>
						<stop  offset="0.4167" style="stop-color:#D85C40"/>
						<stop  offset="0.4733" style="stop-color:#BD5059"/>
						<stop  offset="0.5332" style="stop-color:#A54769"/>
						<stop  offset="0.5953" style="stop-color:#923F76"/>
						<stop  offset="0.6602" style="stop-color:#83397F"/>
						<stop  offset="0.7289" style="stop-color:#773486"/>
						<stop  offset="0.8032" style="stop-color:#6E318B"/>
						<stop  offset="0.8868" style="stop-color:#68308E"/>
						<stop  offset="1" style="stop-color:#662F90"/>
					</radialGradient>
					<path fill="url(#SVGID_3_)" d="M207.038,129.982c-12.135,42.543-56.584,66.878-99.265,54.3
						c-42.698-12.55-67.464-57.249-55.323-99.805c12.128-42.565,56.61-66.904,99.276-54.345
						C194.397,42.711,219.175,87.399,207.038,129.982z"/>
				</g>
			</g>
		</g>
		<g>
			<g>
				<g>
					<g>
						<g>
							
								<image overflow="visible" width="126" height="107" xlink:href="A3811D01AE34DD79.png"  transform="matrix(0.24 0 0 0.24 117.9897 143.9609)">
							</image>
							
								<image overflow="visible" width="72" height="21" xlink:href="A3811D01AE34DD7B.png"  transform="matrix(0.24 0 0 0.24 123.7427 168.1357)">
							</image>
						</g>
						
							<image overflow="visible" width="262" height="324" xlink:href="A3811D01AE34DD7E.png"  transform="matrix(0.24 0 0 0.24 103.1787 66.9795)">
						</image>
						<g>
							
								<image overflow="visible" width="45" height="81" xlink:href="A3811D01AE34DD7F.png"  transform="matrix(0.24 0 0 0.24 128.1509 125.1992)">
							</image>
							
								<image overflow="visible" width="14" height="80" xlink:href="A3811D01AE34DD7A.png"  transform="matrix(0.24 0 0 0.24 131.8047 125.3906)">
							</image>
							
								<image overflow="visible" width="13" height="38" xlink:href="A3811D01AE34DD75.png"  transform="matrix(0.24 0 0 0.24 132.2627 116.5791)">
							</image>
							
								<image overflow="visible" width="29" height="12" xlink:href="A3811D01AE34DD76.png"  transform="matrix(0.24 0 0 0.24 130.103 128.3232)">
							</image>
							
								<image overflow="visible" width="43" height="12" xlink:href="A3811D01AE34DD77.png"  transform="matrix(0.24 0 0 0.24 128.4521 129.3711)">
							</image>
							
								<image overflow="visible" width="33" height="12" xlink:href="A3811D01AE34DD89.png"  transform="matrix(0.24 0 0 0.24 130.0542 113.9414)">
							</image>
							
								<image overflow="visible" width="29" height="12" xlink:href="A1A9313E2DA40282.png"  transform="matrix(0.24 0 0 0.24 130.5527 112.8096)">
							</image>
							<polygon fill="#714297" points="137.505,114.142 141.956,91.771 142.143,91.812 137.698,114.18 							"/>
							<polygon fill="#714297" points="130.586,113.956 125.515,92.204 125.308,92.246 130.393,113.989 							"/>
							<polygon fill="#F9AE82" points="142.191,91.812 125.263,92.095 125.257,92.25 142.183,91.952 							"/>
							<g>
								<path fill="#F79D6B" d="M136.46,110.233c-0.178,0.907-0.349,1.824-0.594,2.714l-0.123-0.024l0,0
									c0.254-0.886,0.419-1.801,0.601-2.722l0,0c0.165-0.938,0.366-1.882,0.446-2.838l0,0c0.137-1.479,0.225-2.973,0.403-4.442
									l0,0c0.17-1.467,0.424-2.918,0.636-4.371l0,0c0.087-0.605,0.103-1.211,0.148-1.816l0,0c0.043-0.482,0.167-0.943,0.227-1.415
									l0,0c0.015-0.164,0.031-0.319,0.023-0.488l0,0c0.014-0.382-0.005-0.777-0.016-1.163l0,0
									c-0.009-0.069-0.006-0.144-0.006-0.216l0,0c0.013-0.295,0.039-0.594,0.046-0.888l0,0c0.001-0.019,0.003-0.033,0-0.046
									l-0.082,0.013l0,0c0.004-0.005-0.005-0.021,0.003-0.029l0,0c-0.245-0.074-0.61-0.254-0.612-0.552l0,0
									c-0.007-0.1,0.048-0.192,0.148-0.284l0,0c0.091-0.071,0.163-0.111,0.247-0.112l0,0c0.333,0.045,0.396,0.579,0.425,0.779l0,0
									c-0.001,0.084-0.008,0.16-0.008,0.231l0,0c-0.005,0.303-0.034,0.603-0.038,0.89l0,0c-0.007,0.072-0.001,0.136-0.008,0.21
									l0,0c0.017,0.386,0.03,0.772,0.023,1.162l0,0c-0.001,0.169-0.018,0.338-0.029,0.513l0,0
									c-0.065,0.477-0.177,0.932-0.222,1.406l0,0c-0.049,0.604-0.055,1.204-0.153,1.816l0,0c-0.212,1.464-0.457,2.914-0.641,4.371
									l0,0c-0.17,1.474-0.254,2.958-0.39,4.442l0,0C136.824,108.34,136.632,109.281,136.46,110.233L136.46,110.233z
									 M138.167,91.92c-0.051-0.143-0.141-0.244-0.203-0.245l0,0c-0.011-0.006-0.011-0.012-0.018-0.012l0,0
									c-0.032,0.012-0.08,0.021-0.154,0.088l0,0c-0.088,0.076-0.113,0.14-0.113,0.217l0,0c-0.031,0.171,0.325,0.371,0.563,0.44
									v0.002l0,0c0.011-0.027,0.005-0.051,0.006-0.075l0,0C138.25,92.248,138.226,92.072,138.167,91.92L138.167,91.92z"/>
							</g>
							<g>
								<path fill="#F79D6B" d="M132.315,112.936l-0.111,0.006l0,0c-0.187-0.846-0.469-1.683-0.707-2.539l0,0
									c-0.425-1.653-0.81-3.313-1.184-4.983l0,0c-0.241-1.051-0.532-2.129-0.613-3.209l0,0c-0.053-0.62-0.175-1.23-0.227-1.847
									l0,0c-0.008-0.161-0.008-0.313-0.014-0.466l0,0c0.021-0.496,0.09-0.981,0.103-1.479l0,0
									c-0.001-0.113,0.003-0.232-0.004-0.327l0,0c0.002-0.172,0.002-0.334,0.002-0.505l0,0c0.005-0.424,0.046-0.839,0.058-1.256
									l0,0c0.005-0.081,0.001-0.177,0.003-0.267l0,0c-0.011-0.365-0.096-0.771-0.082-1.162l0,0
									c0.002-0.188,0.032-0.376,0.099-0.552l0,0c0.119-0.323,0.114-0.656,0.179-1.012l0,0c0.07-0.463,0.114-1.06,0.319-1.504l0,0
									c0.084-0.168,0.301-0.263,0.49-0.261l0,0c0.176,0.01,0.357,0.115,0.354,0.339l0,0c0,0,0.003,0.014-0.009,0.022l0,0
									c-0.023,0.294-0.292,0.494-0.57,0.484l0,0c-0.099-0.005-0.206-0.034-0.303-0.099l0,0c-0.079,0.334-0.122,0.704-0.167,1.03
									l0,0c-0.055,0.346-0.049,0.687-0.187,1.037l0,0c-0.057,0.164-0.076,0.327-0.089,0.518l0,0
									c-0.002,0.371,0.078,0.784,0.081,1.16l0,0c0.005,0.089,0.005,0.186,0.004,0.272l0,0c-0.01,0.424-0.056,0.835-0.064,1.247
									l0,0c-0.002,0.168-0.008,0.323,0.006,0.487l0,0c0.013,0.117,0.008,0.232,0.005,0.353l0,0
									c-0.016,0.495-0.089,0.987-0.102,1.476l0,0c-0.002,0.151-0.001,0.299,0.004,0.444l0,0c0.049,0.62,0.181,1.227,0.229,1.85
									l0,0c0.09,1.062,0.377,2.148,0.618,3.203l0,0c0.357,1.666,0.758,3.325,1.183,4.98l0,0
									C131.832,111.225,132.133,112.07,132.315,112.936L132.315,112.936z M130.857,91.912L130.857,91.912l-0.004-0.002l0,0
									c0-0.164-0.09-0.215-0.236-0.221l0,0c-0.14-0.006-0.312,0.075-0.368,0.193l0,0c-0.051,0.12-0.102,0.249-0.138,0.389
									l0.051-0.052l0,0c0.063,0.061,0.152,0.092,0.244,0.092l0,0C130.628,92.315,130.84,92.166,130.857,91.912L130.857,91.912z"/>
							</g>
						</g>
					</g>
				</g>
				<g>
					<g>
						<g>
							
								<image overflow="visible" width="126" height="107" xlink:href="A1A9313E2DA40285.png"  transform="matrix(0.24 0 0 0.24 117.9897 143.9609)">
							</image>
							
								<image overflow="visible" width="72" height="21" xlink:href="A1A9313E2DA40286.png"  transform="matrix(0.24 0 0 0.24 123.7427 168.1357)">
							</image>
						</g>
						<g>
							
								<image overflow="visible" width="45" height="81" xlink:href="A1A9313E2DA40284.png"  transform="matrix(0.24 0 0 0.24 128.1509 125.1992)">
							</image>
							
								<image overflow="visible" width="14" height="80" xlink:href="A1A9313E2DA40283.png"  transform="matrix(0.24 0 0 0.24 131.8047 125.3906)">
							</image>
							
								<image overflow="visible" width="13" height="38" xlink:href="A1A9313E2DA4029D.png"  transform="matrix(0.24 0 0 0.24 132.2627 116.5791)">
							</image>
							
								<image overflow="visible" width="29" height="12" xlink:href="A1A9313E2DA4029E.png"  transform="matrix(0.24 0 0 0.24 130.103 128.3232)">
							</image>
							
								<image overflow="visible" width="43" height="12" xlink:href="A1A9313E2DA4029C.png"  transform="matrix(0.24 0 0 0.24 128.4521 129.3711)">
							</image>
							
								<image overflow="visible" width="33" height="12" xlink:href="A1A9313E2DA40287.png"  transform="matrix(0.24 0 0 0.24 130.0542 113.9414)">
							</image>
							
								<image overflow="visible" width="29" height="12" xlink:href="A1A9313E2DA40289.png"  transform="matrix(0.24 0 0 0.24 130.5527 112.8096)">
							</image>
							<polygon fill="#714297" points="137.505,114.142 141.956,91.771 142.143,91.812 137.698,114.18 							"/>
							<polygon fill="#714297" points="130.586,113.956 125.515,92.204 125.308,92.246 130.393,113.989 							"/>
							<polygon fill="#F9AE82" points="142.191,91.812 125.263,92.095 125.257,92.25 142.183,91.952 							"/>
							<g>
								<path fill="#F79D6B" d="M136.46,110.233c-0.178,0.907-0.349,1.824-0.594,2.714l-0.123-0.024l0,0
									c0.254-0.886,0.419-1.801,0.601-2.722l0,0c0.165-0.938,0.366-1.882,0.446-2.838l0,0c0.137-1.479,0.225-2.973,0.403-4.442
									l0,0c0.17-1.467,0.424-2.918,0.636-4.371l0,0c0.087-0.605,0.103-1.211,0.148-1.816l0,0c0.043-0.482,0.167-0.943,0.227-1.415
									l0,0c0.015-0.164,0.031-0.319,0.023-0.488l0,0c0.014-0.382-0.005-0.777-0.016-1.163l0,0
									c-0.009-0.069-0.006-0.144-0.006-0.216l0,0c0.013-0.295,0.039-0.594,0.046-0.888l0,0c0.001-0.019,0.003-0.033,0-0.046
									l-0.082,0.013l0,0c0.004-0.005-0.005-0.021,0.003-0.029l0,0c-0.245-0.074-0.61-0.254-0.612-0.552l0,0
									c-0.007-0.1,0.048-0.192,0.148-0.284l0,0c0.091-0.071,0.163-0.111,0.247-0.112l0,0c0.333,0.045,0.396,0.579,0.425,0.779l0,0
									c-0.001,0.084-0.008,0.16-0.008,0.231l0,0c-0.005,0.303-0.034,0.603-0.038,0.89l0,0c-0.007,0.072-0.001,0.136-0.008,0.21
									l0,0c0.017,0.386,0.03,0.772,0.023,1.162l0,0c-0.001,0.169-0.018,0.338-0.029,0.513l0,0
									c-0.065,0.477-0.177,0.932-0.222,1.406l0,0c-0.049,0.604-0.055,1.204-0.153,1.816l0,0c-0.212,1.464-0.457,2.914-0.641,4.371
									l0,0c-0.17,1.474-0.254,2.958-0.39,4.442l0,0C136.824,108.34,136.632,109.281,136.46,110.233L136.46,110.233z
									 M138.167,91.92c-0.051-0.143-0.141-0.244-0.203-0.245l0,0c-0.011-0.006-0.011-0.012-0.018-0.012l0,0
									c-0.032,0.012-0.08,0.021-0.154,0.088l0,0c-0.088,0.076-0.113,0.14-0.113,0.217l0,0c-0.031,0.171,0.325,0.371,0.563,0.44
									v0.002l0,0c0.011-0.027,0.005-0.051,0.006-0.075l0,0C138.25,92.248,138.226,92.072,138.167,91.92L138.167,91.92z"/>
							</g>
							<g>
								<path fill="#F79D6B" d="M132.315,112.936l-0.111,0.006l0,0c-0.187-0.846-0.469-1.683-0.707-2.539l0,0
									c-0.425-1.653-0.81-3.313-1.184-4.983l0,0c-0.241-1.051-0.532-2.129-0.613-3.209l0,0c-0.053-0.62-0.175-1.23-0.227-1.847
									l0,0c-0.008-0.161-0.008-0.313-0.014-0.466l0,0c0.021-0.496,0.09-0.981,0.103-1.479l0,0
									c-0.001-0.113,0.003-0.232-0.004-0.327l0,0c0.002-0.172,0.002-0.334,0.002-0.505l0,0c0.005-0.424,0.046-0.839,0.058-1.256
									l0,0c0.005-0.081,0.001-0.177,0.003-0.267l0,0c-0.011-0.365-0.096-0.771-0.082-1.162l0,0
									c0.002-0.188,0.032-0.376,0.099-0.552l0,0c0.119-0.323,0.114-0.656,0.179-1.012l0,0c0.07-0.463,0.114-1.06,0.319-1.504l0,0
									c0.084-0.168,0.301-0.263,0.49-0.261l0,0c0.176,0.01,0.357,0.115,0.354,0.339l0,0c0,0,0.003,0.014-0.009,0.022l0,0
									c-0.023,0.294-0.292,0.494-0.57,0.484l0,0c-0.099-0.005-0.206-0.034-0.303-0.099l0,0c-0.079,0.334-0.122,0.704-0.167,1.03
									l0,0c-0.055,0.346-0.049,0.687-0.187,1.037l0,0c-0.057,0.164-0.076,0.327-0.089,0.518l0,0
									c-0.002,0.371,0.078,0.784,0.081,1.16l0,0c0.005,0.089,0.005,0.186,0.004,0.272l0,0c-0.01,0.424-0.056,0.835-0.064,1.247
									l0,0c-0.002,0.168-0.008,0.323,0.006,0.487l0,0c0.013,0.117,0.008,0.232,0.005,0.353l0,0
									c-0.016,0.495-0.089,0.987-0.102,1.476l0,0c-0.002,0.151-0.001,0.299,0.004,0.444l0,0c0.049,0.62,0.181,1.227,0.229,1.85
									l0,0c0.09,1.062,0.377,2.148,0.618,3.203l0,0c0.357,1.666,0.758,3.325,1.183,4.98l0,0
									C131.832,111.225,132.133,112.07,132.315,112.936L132.315,112.936z M130.857,91.912L130.857,91.912l-0.004-0.002l0,0
									c0-0.164-0.09-0.215-0.236-0.221l0,0c-0.14-0.006-0.312,0.075-0.368,0.193l0,0c-0.051,0.12-0.102,0.249-0.138,0.389
									l0.051-0.052l0,0c0.063,0.061,0.152,0.092,0.244,0.092l0,0C130.628,92.315,130.84,92.166,130.857,91.912L130.857,91.912z"/>
							</g>
						</g>
					</g>
				</g>
			</g>
		</g>
		<g opacity="0.35">
			<g>
				<g>
					<g>
						<g>
							
								<image overflow="visible" width="126" height="107" xlink:href="A1A9313E2DA402B9.png"  transform="matrix(0.24 0 0 0.24 117.9897 143.9609)">
							</image>
							
								<image overflow="visible" width="72" height="21" xlink:href="A1A9313E2DA402BB.png"  transform="matrix(0.24 0 0 0.24 123.7427 168.1357)">
							</image>
						</g>
						
							<image overflow="visible" width="262" height="324" xlink:href="A1A9313E2DA402B8.png"  transform="matrix(0.24 0 0 0.24 103.1787 66.9795)">
						</image>
						<g>
							
								<image overflow="visible" width="45" height="81" xlink:href="A1A9313E2DA402A7.png"  transform="matrix(0.24 0 0 0.24 128.1509 125.1992)">
							</image>
							
								<image overflow="visible" width="14" height="80" xlink:href="A1A9313E2DA402A9.png"  transform="matrix(0.24 0 0 0.24 131.8047 125.3906)">
							</image>
							
								<image overflow="visible" width="13" height="38" xlink:href="A1A9313E2DA402AB.png"  transform="matrix(0.24 0 0 0.24 132.2627 116.5791)">
							</image>
							
								<image overflow="visible" width="29" height="12" xlink:href="A1A9313E2DA402A8.png"  transform="matrix(0.24 0 0 0.24 130.103 128.3232)">
							</image>
							
								<image overflow="visible" width="43" height="12" xlink:href="A1A9313E2DA402AF.png"  transform="matrix(0.24 0 0 0.24 128.4521 129.3711)">
							</image>
							
								<image overflow="visible" width="33" height="12" xlink:href="A1A9313E2DA402AA.png"  transform="matrix(0.24 0 0 0.24 130.0542 113.9414)">
							</image>
							
								<image overflow="visible" width="29" height="12" xlink:href="A1A9313E2DA40296.png"  transform="matrix(0.24 0 0 0.24 130.5527 112.8096)">
							</image>
							<polygon fill="#714297" points="137.505,114.142 141.956,91.771 142.143,91.812 137.698,114.18 							"/>
							<polygon fill="#714297" points="130.586,113.956 125.515,92.204 125.308,92.246 130.393,113.989 							"/>
							<polygon fill="#F9AE82" points="142.191,91.812 125.263,92.095 125.257,92.25 142.183,91.952 							"/>
							<g>
								<path fill="#F79D6B" d="M136.46,110.233c-0.178,0.907-0.349,1.824-0.594,2.714l-0.123-0.024l0,0
									c0.254-0.886,0.419-1.801,0.601-2.722l0,0c0.165-0.938,0.366-1.882,0.446-2.838l0,0c0.137-1.479,0.225-2.973,0.403-4.442
									l0,0c0.17-1.467,0.424-2.918,0.636-4.371l0,0c0.087-0.605,0.103-1.211,0.148-1.816l0,0c0.043-0.482,0.167-0.943,0.227-1.415
									l0,0c0.015-0.164,0.031-0.319,0.023-0.488l0,0c0.014-0.382-0.005-0.777-0.016-1.163l0,0
									c-0.009-0.069-0.006-0.144-0.006-0.216l0,0c0.013-0.295,0.039-0.594,0.046-0.888l0,0c0.001-0.019,0.003-0.033,0-0.046
									l-0.082,0.013l0,0c0.004-0.005-0.005-0.021,0.003-0.029l0,0c-0.245-0.074-0.61-0.254-0.612-0.552l0,0
									c-0.007-0.1,0.048-0.192,0.148-0.284l0,0c0.091-0.071,0.163-0.111,0.247-0.112l0,0c0.333,0.045,0.396,0.579,0.425,0.779l0,0
									c-0.001,0.084-0.008,0.16-0.008,0.231l0,0c-0.005,0.303-0.034,0.603-0.038,0.89l0,0c-0.007,0.072-0.001,0.136-0.008,0.21
									l0,0c0.017,0.386,0.03,0.772,0.023,1.162l0,0c-0.001,0.169-0.018,0.338-0.029,0.513l0,0
									c-0.065,0.477-0.177,0.932-0.222,1.406l0,0c-0.049,0.604-0.055,1.204-0.153,1.816l0,0c-0.212,1.464-0.457,2.914-0.641,4.371
									l0,0c-0.17,1.474-0.254,2.958-0.39,4.442l0,0C136.824,108.34,136.632,109.281,136.46,110.233L136.46,110.233z
									 M138.167,91.92c-0.051-0.143-0.141-0.244-0.203-0.245l0,0c-0.011-0.006-0.011-0.012-0.018-0.012l0,0
									c-0.032,0.012-0.08,0.021-0.154,0.088l0,0c-0.088,0.076-0.113,0.14-0.113,0.217l0,0c-0.031,0.171,0.325,0.371,0.563,0.44
									v0.002l0,0c0.011-0.027,0.005-0.051,0.006-0.075l0,0C138.25,92.248,138.226,92.072,138.167,91.92L138.167,91.92z"/>
							</g>
							<g>
								<path fill="#F79D6B" d="M132.315,112.936l-0.111,0.006l0,0c-0.187-0.846-0.469-1.683-0.707-2.539l0,0
									c-0.425-1.653-0.81-3.313-1.184-4.983l0,0c-0.241-1.051-0.532-2.129-0.613-3.209l0,0c-0.053-0.62-0.175-1.23-0.227-1.847
									l0,0c-0.008-0.161-0.008-0.313-0.014-0.466l0,0c0.021-0.496,0.09-0.981,0.103-1.479l0,0
									c-0.001-0.113,0.003-0.232-0.004-0.327l0,0c0.002-0.172,0.002-0.334,0.002-0.505l0,0c0.005-0.424,0.046-0.839,0.058-1.256
									l0,0c0.005-0.081,0.001-0.177,0.003-0.267l0,0c-0.011-0.365-0.096-0.771-0.082-1.162l0,0
									c0.002-0.188,0.032-0.376,0.099-0.552l0,0c0.119-0.323,0.114-0.656,0.179-1.012l0,0c0.07-0.463,0.114-1.06,0.319-1.504l0,0
									c0.084-0.168,0.301-0.263,0.49-0.261l0,0c0.176,0.01,0.357,0.115,0.354,0.339l0,0c0,0,0.003,0.014-0.009,0.022l0,0
									c-0.023,0.294-0.292,0.494-0.57,0.484l0,0c-0.099-0.005-0.206-0.034-0.303-0.099l0,0c-0.079,0.334-0.122,0.704-0.167,1.03
									l0,0c-0.055,0.346-0.049,0.687-0.187,1.037l0,0c-0.057,0.164-0.076,0.327-0.089,0.518l0,0
									c-0.002,0.371,0.078,0.784,0.081,1.16l0,0c0.005,0.089,0.005,0.186,0.004,0.272l0,0c-0.01,0.424-0.056,0.835-0.064,1.247
									l0,0c-0.002,0.168-0.008,0.323,0.006,0.487l0,0c0.013,0.117,0.008,0.232,0.005,0.353l0,0
									c-0.016,0.495-0.089,0.987-0.102,1.476l0,0c-0.002,0.151-0.001,0.299,0.004,0.444l0,0c0.049,0.62,0.181,1.227,0.229,1.85
									l0,0c0.09,1.062,0.377,2.148,0.618,3.203l0,0c0.357,1.666,0.758,3.325,1.183,4.98l0,0
									C131.832,111.225,132.133,112.07,132.315,112.936L132.315,112.936z M130.857,91.912L130.857,91.912l-0.004-0.002l0,0
									c0-0.164-0.09-0.215-0.236-0.221l0,0c-0.14-0.006-0.312,0.075-0.368,0.193l0,0c-0.051,0.12-0.102,0.249-0.138,0.389
									l0.051-0.052l0,0c0.063,0.061,0.152,0.092,0.244,0.092l0,0C130.628,92.315,130.84,92.166,130.857,91.912L130.857,91.912z"/>
							</g>
						</g>
					</g>
				</g>
				<g>
					<g>
						<g>
							
								<image overflow="visible" width="126" height="107" xlink:href="A1A9313E2DA402CC.png"  transform="matrix(0.24 0 0 0.24 117.9897 143.9609)">
							</image>
							
								<image overflow="visible" width="72" height="21" xlink:href="A1A9313E2DA402F3.png"  transform="matrix(0.24 0 0 0.24 123.7427 168.1357)">
							</image>
						</g>
						<g>
							
								<image overflow="visible" width="45" height="81" xlink:href="A1A9313E2DA402F4.png"  transform="matrix(0.24 0 0 0.24 128.1509 125.1992)">
							</image>
							
								<image overflow="visible" width="14" height="80" xlink:href="A1A9313E2DA402F7.png"  transform="matrix(0.24 0 0 0.24 131.8047 125.3906)">
							</image>
							
								<image overflow="visible" width="13" height="38" xlink:href="A1A9313E2DA402F5.png"  transform="matrix(0.24 0 0 0.24 132.2627 116.5791)">
							</image>
							
								<image overflow="visible" width="29" height="12" xlink:href="A1A9313E2DA402F2.png"  transform="matrix(0.24 0 0 0.24 130.103 128.3232)">
							</image>
							
								<image overflow="visible" width="43" height="12" xlink:href="A1A9313E2DA402FC.png"  transform="matrix(0.24 0 0 0.24 128.4521 129.3711)">
							</image>
							
								<image overflow="visible" width="33" height="12" xlink:href="A1A9313E2DA402FF.png"  transform="matrix(0.24 0 0 0.24 130.0542 113.9414)">
							</image>
							
								<image overflow="visible" width="29" height="12" xlink:href="A1A9313E2DA402FD.png"  transform="matrix(0.24 0 0 0.24 130.5527 112.8096)">
							</image>
							<polygon fill="#714297" points="137.505,114.142 141.956,91.771 142.143,91.812 137.698,114.18 							"/>
							<polygon fill="#714297" points="130.586,113.956 125.515,92.204 125.308,92.246 130.393,113.989 							"/>
							<polygon fill="#F9AE82" points="142.191,91.812 125.263,92.095 125.257,92.25 142.183,91.952 							"/>
							<g>
								<path fill="#F79D6B" d="M136.46,110.233c-0.178,0.907-0.349,1.824-0.594,2.714l-0.123-0.024l0,0
									c0.254-0.886,0.419-1.801,0.601-2.722l0,0c0.165-0.938,0.366-1.882,0.446-2.838l0,0c0.137-1.479,0.225-2.973,0.403-4.442
									l0,0c0.17-1.467,0.424-2.918,0.636-4.371l0,0c0.087-0.605,0.103-1.211,0.148-1.816l0,0c0.043-0.482,0.167-0.943,0.227-1.415
									l0,0c0.015-0.164,0.031-0.319,0.023-0.488l0,0c0.014-0.382-0.005-0.777-0.016-1.163l0,0
									c-0.009-0.069-0.006-0.144-0.006-0.216l0,0c0.013-0.295,0.039-0.594,0.046-0.888l0,0c0.001-0.019,0.003-0.033,0-0.046
									l-0.082,0.013l0,0c0.004-0.005-0.005-0.021,0.003-0.029l0,0c-0.245-0.074-0.61-0.254-0.612-0.552l0,0
									c-0.007-0.1,0.048-0.192,0.148-0.284l0,0c0.091-0.071,0.163-0.111,0.247-0.112l0,0c0.333,0.045,0.396,0.579,0.425,0.779l0,0
									c-0.001,0.084-0.008,0.16-0.008,0.231l0,0c-0.005,0.303-0.034,0.603-0.038,0.89l0,0c-0.007,0.072-0.001,0.136-0.008,0.21
									l0,0c0.017,0.386,0.03,0.772,0.023,1.162l0,0c-0.001,0.169-0.018,0.338-0.029,0.513l0,0
									c-0.065,0.477-0.177,0.932-0.222,1.406l0,0c-0.049,0.604-0.055,1.204-0.153,1.816l0,0c-0.212,1.464-0.457,2.914-0.641,4.371
									l0,0c-0.17,1.474-0.254,2.958-0.39,4.442l0,0C136.824,108.34,136.632,109.281,136.46,110.233L136.46,110.233z
									 M138.167,91.92c-0.051-0.143-0.141-0.244-0.203-0.245l0,0c-0.011-0.006-0.011-0.012-0.018-0.012l0,0
									c-0.032,0.012-0.08,0.021-0.154,0.088l0,0c-0.088,0.076-0.113,0.14-0.113,0.217l0,0c-0.031,0.171,0.325,0.371,0.563,0.44
									v0.002l0,0c0.011-0.027,0.005-0.051,0.006-0.075l0,0C138.25,92.248,138.226,92.072,138.167,91.92L138.167,91.92z"/>
							</g>
							<g>
								<path fill="#F79D6B" d="M132.315,112.936l-0.111,0.006l0,0c-0.187-0.846-0.469-1.683-0.707-2.539l0,0
									c-0.425-1.653-0.81-3.313-1.184-4.983l0,0c-0.241-1.051-0.532-2.129-0.613-3.209l0,0c-0.053-0.62-0.175-1.23-0.227-1.847
									l0,0c-0.008-0.161-0.008-0.313-0.014-0.466l0,0c0.021-0.496,0.09-0.981,0.103-1.479l0,0
									c-0.001-0.113,0.003-0.232-0.004-0.327l0,0c0.002-0.172,0.002-0.334,0.002-0.505l0,0c0.005-0.424,0.046-0.839,0.058-1.256
									l0,0c0.005-0.081,0.001-0.177,0.003-0.267l0,0c-0.011-0.365-0.096-0.771-0.082-1.162l0,0
									c0.002-0.188,0.032-0.376,0.099-0.552l0,0c0.119-0.323,0.114-0.656,0.179-1.012l0,0c0.07-0.463,0.114-1.06,0.319-1.504l0,0
									c0.084-0.168,0.301-0.263,0.49-0.261l0,0c0.176,0.01,0.357,0.115,0.354,0.339l0,0c0,0,0.003,0.014-0.009,0.022l0,0
									c-0.023,0.294-0.292,0.494-0.57,0.484l0,0c-0.099-0.005-0.206-0.034-0.303-0.099l0,0c-0.079,0.334-0.122,0.704-0.167,1.03
									l0,0c-0.055,0.346-0.049,0.687-0.187,1.037l0,0c-0.057,0.164-0.076,0.327-0.089,0.518l0,0
									c-0.002,0.371,0.078,0.784,0.081,1.16l0,0c0.005,0.089,0.005,0.186,0.004,0.272l0,0c-0.01,0.424-0.056,0.835-0.064,1.247
									l0,0c-0.002,0.168-0.008,0.323,0.006,0.487l0,0c0.013,0.117,0.008,0.232,0.005,0.353l0,0
									c-0.016,0.495-0.089,0.987-0.102,1.476l0,0c-0.002,0.151-0.001,0.299,0.004,0.444l0,0c0.049,0.62,0.181,1.227,0.229,1.85
									l0,0c0.09,1.062,0.377,2.148,0.618,3.203l0,0c0.357,1.666,0.758,3.325,1.183,4.98l0,0
									C131.832,111.225,132.133,112.07,132.315,112.936L132.315,112.936z M130.857,91.912L130.857,91.912l-0.004-0.002l0,0
									c0-0.164-0.09-0.215-0.236-0.221l0,0c-0.14-0.006-0.312,0.075-0.368,0.193l0,0c-0.051,0.12-0.102,0.249-0.138,0.389
									l0.051-0.052l0,0c0.063,0.061,0.152,0.092,0.244,0.092l0,0C130.628,92.315,130.84,92.166,130.857,91.912L130.857,91.912z"/>
							</g>
						</g>
					</g>
				</g>
			</g>
		</g>
		<g>
			<g>
				<g>
					
						<radialGradient id="SVGID_4_" cx="1907.4277" cy="-641.2148" r="19.1128" gradientTransform="matrix(1.1203 -2.7347 3.1199 0.9658 -22.5637 5915.6255)" gradientUnits="userSpaceOnUse">
						<stop  offset="0.0242" style="stop-color:#FFFFFF"/>
						<stop  offset="0.2061" style="stop-color:#F16624"/>
						<stop  offset="0.2607" style="stop-color:#D85C40"/>
						<stop  offset="0.3324" style="stop-color:#BD5059"/>
						<stop  offset="0.4083" style="stop-color:#A54769"/>
						<stop  offset="0.4871" style="stop-color:#923F76"/>
						<stop  offset="0.5693" style="stop-color:#83397F"/>
						<stop  offset="0.6564" style="stop-color:#773486"/>
						<stop  offset="0.7505" style="stop-color:#6E318B"/>
						<stop  offset="0.8566" style="stop-color:#68308E"/>
						<stop  offset="1" style="stop-color:#662F90"/>
					</radialGradient>
					<path fill="url(#SVGID_4_)" d="M135.231,27.834c32.918,10.197,50.038,41.851,38.194,70.721
						c-11.833,28.883-48.113,44.003-81.032,33.819C59.46,122.173,42.343,90.5,54.167,61.644
						C66.019,32.784,102.289,17.639,135.231,27.834z"/>
				</g>
			</g>
			<g>
				<polygon opacity="0.35" fill="#FFFFFF" points="114.12,80.913 58.407,96.901 113.495,79.273 169.208,63.288 				"/>
				<polygon opacity="0.35" fill="#FFFFFF" points="112.879,80.37 94.964,30.749 114.729,79.817 132.65,129.44 				"/>
				<polygon opacity="0.35" fill="#FFFFFF" points="113.57,79.992 131.026,48.928 114.027,80.193 96.574,111.271 				"/>
				<polygon opacity="0.35" fill="#FFFFFF" points="113.915,79.886 148.785,95.42 113.703,80.311 78.823,64.764 				"/>
			</g>
		</g>
	</g>
	<g>
		<g opacity="0.75">
			<g>
				
					<radialGradient id="SVGID_5_" cx="1924.0605" cy="-540.5122" r="20.6428" gradientTransform="matrix(2.904 -1.0037 1.2928 2.8638 -4757.9956 3652.8984)" gradientUnits="userSpaceOnUse">
					<stop  offset="0.0242" style="stop-color:#FFFFFF"/>
					<stop  offset="0.2061" style="stop-color:#F16624"/>
					<stop  offset="0.2607" style="stop-color:#D85C40"/>
					<stop  offset="0.3324" style="stop-color:#BD5059"/>
					<stop  offset="0.4083" style="stop-color:#A54769"/>
					<stop  offset="0.4871" style="stop-color:#923F76"/>
					<stop  offset="0.5693" style="stop-color:#83397F"/>
					<stop  offset="0.6564" style="stop-color:#773486"/>
					<stop  offset="0.7505" style="stop-color:#6E318B"/>
					<stop  offset="0.8566" style="stop-color:#68308E"/>
					<stop  offset="1" style="stop-color:#662F90"/>
				</radialGradient>
				<path fill="url(#SVGID_5_)" d="M190.667,153.099c14.73,32.642-0.154,68.389-33.275,79.814
					c-33.124,11.447-71.893-5.755-86.632-38.379c-14.733-32.651,0.164-68.406,33.259-79.843
					C137.135,103.271,175.915,120.444,190.667,153.099z"/>
			</g>
		</g>
		<g>
			<polygon opacity="0.35" fill="#FFFFFF" points="130.238,174.632 76.887,143.075 131.198,172.982 184.542,204.545 			"/>
			<polygon opacity="0.35" fill="#FFFFFF" points="129.823,173.296 159.488,124.14 131.618,174.324 101.946,223.478 			"/>
			<polygon opacity="0.35" fill="#FFFFFF" points="130.643,173.555 169.633,164.89 130.795,174.049 91.792,182.729 			"/>
			<polygon opacity="0.35" fill="#FFFFFF" points="130.973,173.738 142.516,211.684 130.457,173.886 118.905,135.924 			"/>
		</g>
	</g>
</g>
<g id="Arrow_11">
</g>
<radialGradient id="SVGID_6_" cx="122.4463" cy="127.7578" r="115.3418" gradientUnits="userSpaceOnUse">
	<stop  offset="0" style="stop-color:#FFFFFF"/>
	<stop  offset="1" style="stop-color:#F16624"/>
</radialGradient>
<radialGradient id="SVGID_7_" cx="122.4463" cy="127.7578" r="117.1875" gradientUnits="userSpaceOnUse">
	<stop  offset="0" style="stop-color:#F79B68"/>
	<stop  offset="0.1993" style="stop-color:#F6945F"/>
	<stop  offset="0.562" style="stop-color:#F48245"/>
	<stop  offset="1" style="stop-color:#F16624"/>
</radialGradient>
<path fill="url(#SVGID_6_)" stroke="url(#SVGID_7_)" stroke-width="3.6909" d="M122.446,12.417
	c-63.7,0-115.341,51.64-115.341,115.341S58.746,243.1,122.446,243.1s115.342-51.641,115.342-115.342S186.146,12.417,122.446,12.417z
	 M191.31,104.866c-2.371,0.335-4.831,0.903-7.111,1.705l-0.148,0.235v25.507c0.029,3.71,0.27,7.322-0.21,11
	c0.75,0.099,1.559,0.065,2.16,0.634c0.179,0.503,0,1.069-0.302,1.438c-0.479,0.2-0.93,0.47-1.379,0.802
	c0.961,0.034,2.429-1.17,2.969,0.401c0.18,0.838-0.51,0.971-1.02,1.138c-0.57,0.234-0.959,0.903-1.5,1.203
	c0.781,0,1.861-0.434,2.581,0.234c0.479,0.501,1.079,1.068,0.718,1.838c-1.018,0.938-0.178,2.407-0.207,3.544
	c0.418,2.809,2.129,5.015,3.299,7.455c-0.898,0.134-1.441,1.504-2.371,1.371c-0.57-2.073-1.918-3.812-2.428-5.95
	c-0.123,1.57,0.118,3.376,0.359,4.98c-0.33,0.333-0.959,0.302-1.321,0.735c-0.419,0.167-0.809-0.233-0.838-0.636
	c-0.302-1.504-0.302-3.143-0.661-4.578c-0.36,1.303-0.18,2.874-0.66,4.179c0.061,0.199,0.121,0.399,0.092,0.633
	c-0.57-0.031-1.439,0.169-1.801-0.5c0.061-2.207,0.688-4.278,0.869-6.319c-0.779,2.173-1.619,4.313-2.609,6.42
	c-0.75-0.167-1.499-0.569-2.01-1.204c0.181-1.037,0.809-1.872,1.23-2.809l0.869-2.105c-0.93,0.401-1.65,1.905-2.818,1.604
	c-0.42-0.468-0.66-1.003-0.871-1.604c1.951-0.167,3.629-2.073,4.619-3.845c-0.211-0.568-0.509-1.171-0.299-1.839
	c0.239-0.903,1.77-0.567,1.08-1.839c0.149-0.535-0.421-0.233-0.569-0.5c-0.812-0.603-0.632-1.571-0.152-2.308
	c0.751-0.937,1.47-1.838,2.462-2.34l-0.092-21.095v-15.579c-2.459,0.835-5.068,1.806-7.408,3.21
	c4.5,19.488-1.77,39.18-16.108,51.349c-3.239,2.475-6.658,4.413-10.168,6.119c0.209,1.001,0.361,2.239-0.209,3.107
	c-0.39,1.405-3.181,1.739-1.65,3.311c0.269,1.805-0.75,3.109-1.95,4.178c0.81,0.802,0.871,2.274,0.51,3.345
	c-0.33,1.103-1.41,1.938-2.25,2.507c0.42,0.5,0.42,1.27,0.299,1.906c-0.448,1.436-1.95,1.871-2.88,2.74
	c-0.447,0.535-1.619,0.201-1.498,1.203c-2.819,3.41-7.649,3.611-11.52,2.341c-1.289-0.602-2.879-1.672-3.238-3.31
	c-1.77-0.871-4.049-1.304-5.131-3.444c-0.298-0.867,0.181-1.637,0.662-2.239c-0.63-0.635-1.321-1.371-1.231-2.408
	c0.061-0.802,0.39-1.469,0.781-2.105c-0.72-0.668-1.562-1.672-1.2-2.708c-11.549-0.1-23.006,0.57-33.354,4.012
	c-0.331,0.068-0.661-0.233-0.721-0.569c-0.121-0.401,0-0.968-0.359-1.203c-2.341-0.333-4.291-2.205-5.759-4.412
	c0.958-2.173,0.54-5.015,0.958-7.454c0.542-2.743,0.121-5.617,0.362-8.525l0.359-7.355l-0.09-21.195
	c-0.21-4.245-0.87-8.592,0-12.771c0.54-5.75,1.14-11.466,1.8-17.149c-0.39-1.07-1.08,0.269-1.65,0.301
	c-1.47,0.367-3.059,0.134-4.17-0.869c-1.708-1.371-2.13-3.543-1.739-5.683c0.42-1.204,0.781-2.642,1.95-3.311
	c1.68-0.033,2.519,2.475,4.319,1.94c0.961-0.535,2.34-0.736,2.669-2.106c0.601-0.803,1.501-1.104,2.37-0.937
	c0.749-1.604,2.339-1.004,3.239-2.273c0.932-0.334,2.011-0.101,2.82,0.401l0.271-0.301c-3.361-2.508-7.11-3.912-10.861-5.316
	c-1.198-0.803-3.478,0.169-3.687-2.14l0.299-0.334c1.41-0.3,2.759-1.035,4.26-0.869l8.758-2.273l31.915-10.665l14.669-5.781
	c4.078-1.305,7.918-3.244,11.517-5.752h0.36c2.491,4.646,5.519,8.659,9.088,12.838l11.069,13.706
	c7.26,7.021,13.049,16.582,21.176,22.132c0.871,0.603,1.74,1.403,2.521,2.106C193.228,105.134,191.999,104.634,191.31,104.866z"/>
<g id="g2392" transform="matrix(3.588225,0.000000,0.000000,3.588225,354.1844,69.17168)">
	
		<image overflow="visible" opacity="0.75" width="1140" height="543" xlink:href="A1A9313E2DA402F1.png"  transform="matrix(0.0669 0 0 0.0669 -101.1631 10.0255)">
	</image>
	<g>
		<g>
			
				<linearGradient id="path1550_1_" gradientUnits="userSpaceOnUse" x1="-78.2546" y1="-117.2649" x2="-76.1707" y2="-119.7307" gradientTransform="matrix(5.8714 0.8207 0.3178 -2.2733 413.0159 -174.3895)">
				<stop  offset="0" style="stop-color:#9F83BB"/>
				<stop  offset="1" style="stop-color:#FFFFFF"/>
			</linearGradient>
			
				<linearGradient id="path1550_2_" gradientUnits="userSpaceOnUse" x1="-87.3135" y1="32.0096" x2="-30.3038" y2="32.0096" gradientTransform="matrix(1.0558 0.0078 0.0078 1.0011 5.2126 0.7247)">
				<stop  offset="0" style="stop-color:#FCD0B3"/>
				<stop  offset="1" style="stop-color:#FFFFFF"/>
			</linearGradient>
			
				<path id="path1550_12_" opacity="0.75" fill="url(#path1550_1_)" stroke="url(#path1550_2_)" stroke-width="1.1858" stroke-miterlimit="10" enable-background="new    " d="
				M-86.562,28.094c0.45,4.067,3.222,7.446,7.192,8.001c3.971,0.555,7.612-1.927,9.161-5.715L-86.562,28.094z"/>
			
				<linearGradient id="path2356_1_" gradientUnits="userSpaceOnUse" x1="-76.9808" y1="-117.265" x2="-74.8969" y2="-119.7307" gradientTransform="matrix(5.8714 0.8207 0.3178 -2.2733 422.8364 -173.0172)">
				<stop  offset="0" style="stop-color:#8560A7"/>
				<stop  offset="1" style="stop-color:#FFFFFF"/>
			</linearGradient>
			
				<linearGradient id="path2356_2_" gradientUnits="userSpaceOnUse" x1="-70.9472" y1="34.2973" x2="-13.9394" y2="34.2973" gradientTransform="matrix(1.0558 0.0078 0.0078 1.0011 5.2126 0.7247)">
				<stop  offset="0" style="stop-color:#FCD0B3"/>
				<stop  offset="1" style="stop-color:#FFFFFF"/>
			</linearGradient>
			
				<path id="path2356_12_" opacity="0.75" fill="url(#path2356_1_)" stroke="url(#path2356_2_)" stroke-width="1.1858" stroke-miterlimit="10" enable-background="new    " d="
				M-69.264,30.512c0.451,4.067,3.222,7.445,7.192,8c3.971,0.555,7.613-1.927,9.161-5.714L-69.264,30.512z"/>
			
				<linearGradient id="path2358_1_" gradientUnits="userSpaceOnUse" x1="-98.4614" y1="25.7815" x2="127.8033" y2="25.7815" gradientTransform="matrix(1.0558 0.0078 0.0078 1.0011 5.2126 0.7247)">
				<stop  offset="0" style="stop-color:#FEEDE2"/>
				<stop  offset="1" style="stop-color:#FFFFFF"/>
			</linearGradient>
			<path id="path2358_12_" fill="none" stroke="url(#path2358_1_)" stroke-width="4.7432" d="M-69.264,30.512
				c0.451,4.067,3.222,7.445,7.192,8c3.971,0.555,7.613-1.927,9.13-5.732l12.435-10.253c1.781-1.665,4.518-1.567,6.134,0.22
				c1.373,2.537,2.594,3.655,0.838,5.323 M-70.209,30.38c-1.549,3.788-5.191,6.27-9.161,5.715c-3.97-0.555-6.742-3.934-7.176-7.978
				l-2.699-10.429c-0.279-2.865-2.446-4.816-4.858-4.366c-2.412,0.451-3.827,0.39-3.827,1.783"/>
		</g>
	</g>
</g>
</svg>
