<?xml version="1.0" encoding="utf-8"?>
<!-- Generator: Adobe Illustrator 16.0.0, SVG Export Plug-In . SVG Version: 6.00 Build 0)  -->
<!DOCTYPE svg PUBLIC "-//W3C//DTD SVG 1.1//EN" "http://www.w3.org/Graphics/SVG/1.1/DTD/svg11.dtd">
<svg version="1.1" id="Layer_1" xmlns="http://www.w3.org/2000/svg" xmlns:xlink="http://www.w3.org/1999/xlink" x="0px" y="0px"
	 width="841.891px" height="595.275px" viewBox="0 0 841.891 595.275" enable-background="new 0 0 841.891 595.275"
	 xml:space="preserve">
<pattern  x="420.945" y="297.638" width="42.857" height="42.857" patternUnits="userSpaceOnUse" id="Lappendeken" viewBox="3.571 -46.429 42.857 42.857" overflow="visible">
	<g>
		<polygon fill="none" points="46.429,-3.571 3.571,-3.571 3.571,-46.429 46.429,-46.429 		"/>
		<g>
			<path fill="none" stroke="#FFFFFF" stroke-width="0.4286" stroke-dasharray="0.8571" d="M46.285-46.929
				C46.285-40.888,36.797-36,25.071-36"/>
			<path fill="none" stroke="#FFFFFF" stroke-width="0.4286" stroke-dasharray="0.8571" d="M25.071-35.357
				c0-6.04,9.488-10.929,21.214-10.929"/>
			<path fill="none" stroke="#FFFFFF" stroke-width="0.4286" stroke-dasharray="0.8571" d="M46.285-25.071
				C46.285-31.112,36.797-36,25.071-36"/>
			<path fill="none" stroke="#FFFFFF" stroke-width="0.4286" stroke-dasharray="0.8571" d="M25.071-36
				c0,6.04,9.488,10.929,21.214,10.929"/>
		</g>
		<g>
			<path fill="none" stroke="#FFFFFF" stroke-width="0.4286" stroke-dasharray="0.8571" d="M3.785-2.929
				c0-6.041,9.489-10.929,21.215-10.929"/>
			<path fill="none" stroke="#FFFFFF" stroke-width="0.4286" stroke-dasharray="0.8571" d="M25-14.5
				C25-8.46,15.512-3.571,3.785-3.571"/>
			<path fill="none" stroke="#FFFFFF" stroke-width="0.4286" stroke-dasharray="0.8571" d="M3.785-24.786
				c0,6.041,9.489,10.929,21.215,10.929"/>
			<path fill="none" stroke="#FFFFFF" stroke-width="0.4286" stroke-dasharray="0.8571" d="M25-13.857
				c0-6.04-9.488-10.929-21.215-10.929"/>
		</g>
		<g>
			<path fill="none" stroke="#FFFFFF" stroke-width="0.4286" stroke-dasharray="0.8571" d="M3.715-46.929
				C3.715-40.888,13.203-36,24.929-36"/>
			<path fill="none" stroke="#FFFFFF" stroke-width="0.4286" stroke-dasharray="0.8571" d="M24.929-35.357
				c0-6.04-9.488-10.929-21.214-10.929"/>
			<g>
				<path fill="none" stroke="#FFFFFF" stroke-width="0.4286" stroke-dasharray="0.8571" d="M3.715-25.071
					C3.715-31.112,13.203-36,24.929-36"/>
				<path fill="none" stroke="#FFFFFF" stroke-width="0.4286" stroke-dasharray="0.8571" d="M24.929-36
					c0,6.04-9.488,10.929-21.214,10.929"/>
			</g>
		</g>
		
			<line fill="none" stroke="#FFFFFF" stroke-width="0.4286" stroke-dasharray="0.8571" x1="24.965" y1="-35.429" x2="25.035" y2="-14.571"/>
		
			<radialGradient id="SVGID_1_" cx="8406.293" cy="-8686.7129" r="6.0689" gradientTransform="matrix(1 0 0 -1 -8404.1426 -8713.7139)" gradientUnits="userSpaceOnUse">
			<stop  offset="0" style="stop-color:#F6F6F6"/>
			<stop  offset="1" style="stop-color:#F16624"/>
		</radialGradient>
		<path fill="url(#SVGID_1_)" d="M3.571-28.571C1.599-28.571,0-26.973,0-25s1.599,3.571,3.571,3.571S7.143-23.027,7.143-25
			S5.544-28.571,3.571-28.571z"/>
		
			<radialGradient id="SVGID_2_" cx="8406.293" cy="-8665.2842" r="6.0689" gradientTransform="matrix(1 0 0 -1 -8404.1426 -8713.7139)" gradientUnits="userSpaceOnUse">
			<stop  offset="0" style="stop-color:#F6F6F6"/>
			<stop  offset="1" style="stop-color:#662F90"/>
		</radialGradient>
		<path fill="url(#SVGID_2_)" d="M3.571-50C1.599-50,0-48.401,0-46.429s1.599,3.571,3.571,3.571s3.571-1.599,3.571-3.571
			S5.544-50,3.571-50z"/>
		<g>
			<path fill="none" stroke="#FFFFFF" stroke-width="0.4286" stroke-dasharray="0.8571" d="M46.571-2.857
				c0-6.04-9.488-10.929-21.214-10.929"/>
			<path fill="none" stroke="#FFFFFF" stroke-width="0.4286" stroke-dasharray="0.8571" d="M25.357-14.429
				c0,6.041,9.488,10.929,21.214,10.929"/>
			<path fill="none" stroke="#FFFFFF" stroke-width="0.4286" stroke-dasharray="0.8571" d="M46.571-24.714
				c0,6.04-9.488,10.928-21.214,10.928"/>
			<path fill="none" stroke="#FFFFFF" stroke-width="0.4286" stroke-dasharray="0.8571" d="M25.357-13.786
				c0-6.04,9.488-10.928,21.214-10.928"/>
		</g>
		
			<radialGradient id="SVGID_3_" cx="8478.4365" cy="-9280.2852" r="6.0689" gradientTransform="matrix(1 0 0 -1 -8433.4287 -9307.2861)" gradientUnits="userSpaceOnUse">
			<stop  offset="0" style="stop-color:#F6F6F6"/>
			<stop  offset="1" style="stop-color:#F16624"/>
		</radialGradient>
		<path fill="url(#SVGID_3_)" d="M46.429-28.571c-1.973,0-3.571,1.599-3.571,3.571s1.599,3.571,3.571,3.571S50-23.027,50-25
			S48.401-28.571,46.429-28.571z"/>
		
			<radialGradient id="SVGID_4_" cx="8478.4365" cy="-9130.2852" r="6.0689" gradientTransform="matrix(1 0 0 -1 -8433.4287 -9135.8574)" gradientUnits="userSpaceOnUse">
			<stop  offset="0" style="stop-color:#F6F6F6"/>
			<stop  offset="1" style="stop-color:#662F90"/>
		</radialGradient>
		<path fill="url(#SVGID_4_)" d="M46.429-7.143c-1.973,0-3.571,1.599-3.571,3.571S44.456,0,46.429,0S50-1.599,50-3.571
			S48.401-7.143,46.429-7.143z"/>
		
			<radialGradient id="SVGID_5_" cx="8628.4365" cy="-9205.2842" r="6.0695" gradientTransform="matrix(1 0 0 -1 -8604.8574 -9221.5713)" gradientUnits="userSpaceOnUse">
			<stop  offset="0" style="stop-color:#F6F6F6"/>
			<stop  offset="1" style="stop-color:#5CA047"/>
		</radialGradient>
		<path fill="url(#SVGID_5_)" d="M25-17.857c-1.973,0-3.571,1.599-3.571,3.571s1.599,3.572,3.571,3.572s3.571-1.6,3.571-3.572
			S26.973-17.857,25-17.857z"/>
		
			<radialGradient id="SVGID_6_" cx="8478.4365" cy="-9087.4277" r="6.0689" gradientTransform="matrix(1 0 0 -1 -8433.4287 -9135.8574)" gradientUnits="userSpaceOnUse">
			<stop  offset="0" style="stop-color:#F6F6F6"/>
			<stop  offset="1" style="stop-color:#662F90"/>
		</radialGradient>
		<path fill="url(#SVGID_6_)" d="M46.429-50c-1.973,0-3.571,1.599-3.571,3.571s1.599,3.571,3.571,3.571S50-44.456,50-46.429
			S48.401-50,46.429-50z"/>
		
			<radialGradient id="SVGID_7_" cx="8435.5791" cy="-9130.2852" r="6.0689" gradientTransform="matrix(1 0 0 -1 -8433.4287 -9135.8574)" gradientUnits="userSpaceOnUse">
			<stop  offset="0" style="stop-color:#F6F6F6"/>
			<stop  offset="1" style="stop-color:#662F90"/>
		</radialGradient>
		<path fill="url(#SVGID_7_)" d="M3.571-7.143C1.599-7.143,0-5.544,0-3.571S1.599,0,3.571,0s3.571-1.599,3.571-3.571
			S5.544-7.143,3.571-7.143z"/>
		
			<radialGradient id="SVGID_8_" cx="8628.4355" cy="-9181.5342" r="6.0705" gradientTransform="matrix(1 0 0 -1 -8604.8574 -9221.5713)" gradientUnits="userSpaceOnUse">
			<stop  offset="0" style="stop-color:#F6F6F6"/>
			<stop  offset="1" style="stop-color:#5CA047"/>
		</radialGradient>
		<path fill="url(#SVGID_8_)" d="M25-41.607c-1.973,0-3.571,1.599-3.571,3.571s1.599,3.572,3.571,3.572s3.572-1.6,3.572-3.572
			S26.973-41.607,25-41.607z"/>
	</g>
</pattern>
<g>
	<g>
		<pattern  id="SVGID_9_" xlink:href="#Lappendeken" patternTransform="matrix(1 0 0 1 35.5703 -30.2852)">
		</pattern>
		<path opacity="0.8" fill="url(#SVGID_9_)" d="M610.945,270.872c0,6.498-5.312,11.766-11.865,11.766H447.81
			c-6.553,0-11.865-5.268-11.865-11.766V44.403c0-6.498,5.312-11.766,11.865-11.766h151.271c6.553,0,11.865,5.268,11.865,11.766
			V270.872z"/>
		<path opacity="0.8" fill="#5CA047" d="M610.945,270.872c0,6.498-5.312,11.766-11.865,11.766H447.81
			c-6.553,0-11.865-5.268-11.865-11.766V44.403c0-6.498,5.312-11.766,11.865-11.766h151.271c6.553,0,11.865,5.268,11.865,11.766
			V270.872z"/>
	</g>
</g>
<text transform="matrix(1 0 0 1 45.9453 63.7207)" fill="#5CA047" font-family="'TrebuchetMS-Bold'" font-size="48">LOL-canvas</text>
<g>
	<g>
		<path opacity="0.8" d="M220.945,270.872c0,6.498-5.312,11.766-11.865,11.766H57.81c-6.553,0-11.865-5.268-11.865-11.766V94.403
			c0-6.498,5.312-11.766,11.865-11.766h151.271c6.553,0,11.865,5.268,11.865,11.766V270.872z"/>
	</g>
</g>
<g opacity="0.4">
	<path fill="#662F90" d="M81.321,441.215c-6.604,41.801,15.507,80.774,49.397,87.05c33.888,6.267,66.71-22.531,73.308-64.331
		c6.596-41.811-15.519-80.785-49.406-87.059C120.739,370.613,87.917,399.404,81.321,441.215z"/>
	<g>
		<path fill="#FFFFFF" d="M146.858,454.591l57.759,2.861c0,0-2.117,20.084-6.006,25.241L146.858,454.591z"/>
		<path fill="#FFFFFF" d="M144.558,460.515l42.571,43.029c0,0-9.009,12.243-15.188,14.725L144.558,460.515z"/>
		<path fill="#FFFFFF" d="M138.911,462.81l14.126,64.452c0,0-13.957,4.012-18.546,1.337L138.911,462.81z"/>
		<path fill="#FFFFFF" d="M134.317,462.234l-19.074,60.433c0,0-15.013-9.557-16.076-12.808L134.317,462.234z"/>
		<path fill="#FFFFFF" d="M130.785,457.254l-42.927,34.814c0,0-4.943-9.938-6.356-20.654L130.785,457.254z"/>
		<path fill="#FFFFFF" d="M129.905,450.562l-49.286-1.908c0,0,1.414-16.637,4.237-22.185L129.905,450.562z"/>
		<path fill="#FFFFFF" d="M94.396,406.578l39.213,39.211l-26.145-54.322C107.464,391.467,99.696,398.542,94.396,406.578z"/>
		<path fill="#FFFFFF" d="M123.896,380.768l13.597,60.612l4.774-64.831C142.268,376.549,133.609,376.361,123.896,380.768z"/>
		<path fill="#FFFFFF" d="M162.047,378.654l-19.78,65.405l37.975-54.501C180.243,389.559,176.18,384.589,162.047,378.654z"/>
		<path fill="#FFFFFF" d="M194.908,407.72l-49.637,41.508l58.287-16.646C203.558,432.581,200.204,416.141,194.908,407.72z"/>
	</g>
	<g>
		<path fill="#F16624" d="M175.647,440.426l-5.208,1.677c0,0-3.089-9.896-3.8-11.046l4.417-3.258
			C171.056,427.799,175.118,436.983,175.647,440.426z"/>
		<path fill="#F16624" d="M193.67,435.459l9.887-2.878c0,0-4.417-18.73-8.649-24.861l-8.661,7.272
			C186.248,414.992,191.724,426.272,193.67,435.459z"/>
		<path fill="#F16624" d="M194.549,457.067c0,0-1.415,11.284-4.945,21.039l9.008,4.587c0,0,5.657-13.769,6.006-25.241
			L194.549,457.067z"/>
		<path fill="#F16624" d="M176.53,456.115c0,0-0.883,8.797-2.822,12.81l-4.595-2.293c0,0,2.563-9.942,2.47-10.903L176.53,456.115z"
			/>
		<path fill="#F16624" d="M179.804,496.188c0,0-7.244,9.169-12.366,12.42l4.677,9.95c0,0,10.511-7.648,15.283-14.92L179.804,496.188
			z"/>
		<path fill="#F16624" d="M166.554,482.794c0,0-4.592,5.736-7.596,7.835l-2.561-5.154c0,0,6.091-5.451,6.357-6.61L166.554,482.794z"
			/>
		<path fill="#F16624" d="M150.747,516.841l2.29,10.421c0,0-12.712,3.641-18.546,1.337l0.707-10.33
			C135.198,518.269,141.826,519.032,150.747,516.841z"/>
		<path fill="#F16624" d="M146.504,496.945c0,0-8.123,1.907-9.98,1.242l0.442-5.928c0,0,2.765,1.211,8.394-1.054L146.504,496.945z"
			/>
		<path fill="#F16624" d="M115.243,522.667c0,0-10.687-6.21-16.076-12.808l5.476-7.46c0,0,8.126,8.511,13.603,10.711
			L115.243,522.667z"/>
		<path fill="#F16624" d="M124.072,495.136c0,0-6.63-3.546-9.273-6.605l3.353-4.309c0,0,5.301,4.88,7.689,5.355L124.072,495.136z"/>
		<path fill="#F16624" d="M94.573,486.807l-6.716,5.262c0,0-4.853-9.178-6.356-20.654l7.772-2.106
			C89.273,469.308,91.304,480.399,94.573,486.807z"/>
		<path fill="#F16624" d="M106.587,477.052c0,0-3.976-8.512-3.976-11.659l4.946-1.44c0,0,1.629,8.37,3.044,9.608L106.587,477.052z"
			/>
		<path fill="#F16624" d="M92.011,430.385l-7.154-3.916c0,0-4.417,10.422-4.237,22.185l7.682,0.486
			C88.301,449.14,89.895,435.262,92.011,430.385z"/>
		<path fill="#F16624" d="M108.967,439.476l-4.411-2.492c0,0-3.096,10.233-2.829,12.624l5.035,0.101
			C106.762,449.708,107.645,441.679,108.967,439.476z"/>
		<path fill="#F26522" d="M94.396,406.578l6.187,6.126c0,0,5.909-8.716,11.035-12.727l-4.323-8.796
			C107.295,391.182,97.671,400.163,94.396,406.578z"/>
		<path fill="#F16624" d="M119.216,415.66l2.205,4.88c0,0-5.48,4.872-6.274,6.787l-3.614-3.737
			C111.534,423.59,114.356,419.398,119.216,415.66z"/>
		<path fill="#F16624" d="M139.968,408.018l-0.264,5.249c0,0-4.063-0.091-8.216,1.441l-1.147-5.072
			C130.341,409.636,132.903,408.293,139.968,408.018z"/>
		<path fill="#F16624" d="M141.468,387.064c0,0-8.477,0.482-15.363,3.644l-2.209-9.94c0,0,4.86-3.069,18.28-4.691L141.468,387.064z"
			/>
		<path fill="#F16624" d="M161.695,416.141l-2.825,4.212c0,0-5.697-3.355-7.948-4.979l1.501-4.975
			C152.423,410.398,157.542,412.313,161.695,416.141z"/>
		<path fill="#F16624" d="M173.798,398.739l6.444-9.181c0,0-6.714-6.502-18.195-10.904l-3.268,11.184
			C158.779,389.838,167.523,392.997,173.798,398.739z"/>
	</g>
	<g>
		<path fill="#662F90" d="M203.558,432.581l-9.887,2.878c0,0,1.586,18.354,0.878,21.608l10.068,0.385
			C204.617,457.452,206.562,439.668,203.558,432.581z"/>
		<path fill="#662F90" d="M176.005,455.921l-4.422-0.192c0,0-0.878-13.238-1.057-13.626l4.592-1.481
			C175.118,440.621,177.062,450.946,176.005,455.921z"/>
		<path fill="#662F90" d="M189.604,478.106c0,0-4.507,10.898-9.8,18.082l7.325,7.355c0,0,9.629-12.525,11.751-20.851
			L189.604,478.106z"/>
		<path fill="#662F90" d="M173.708,468.925l-4.595-2.293c0,0-2.735,7.65-6.359,12.232l3.799,3.93
			C166.554,482.794,172.646,473.708,173.708,468.925z"/>
		<path fill="#662F90" d="M167.438,508.608l4.677,9.95c0,0-13.156,8.703-19.077,8.703l-2.29-10.421
			C150.747,516.841,159.043,514.353,167.438,508.608z"/>
		<path fill="#662F90" d="M158.958,490.629c0,0-8.745,6.027-12.454,6.316l-1.145-5.739c0,0,6.885-1.722,11.038-5.731
			L158.958,490.629z"/>
		<path fill="#662F90" d="M135.198,518.269c0,0-10.949-1.428-16.953-5.158l-3.002,9.557c0,0,7.95,5.169,19.248,5.932
			L135.198,518.269z"/>
		<path fill="#662F90" d="M136.523,498.188c0,0-6.44-0.386-12.451-3.052l1.649-5.107c0,0,6.682,3.153,11.215,2.394L136.523,498.188z
			"/>
		<path fill="#662F90" d="M104.643,502.399l-5.476,7.46c0,0-5.826-5.269-11.31-17.791l6.716-5.262
			C94.573,486.807,98.986,497.042,104.643,502.399z"/>
		<path fill="#662F90" d="M114.799,488.53c0,0-4.945-4.974-8.212-11.479l3.928-3.291c0,0,3.311,6.545,7.637,10.461L114.799,488.53z"
			/>
		<path fill="#662F90" d="M88.086,449.179c0,0-0.67,15.536,1.187,20.129l-7.772,2.106c0,0-2.733-19.121-0.882-22.761L88.086,449.179
			z"/>
		<path fill="#662F90" d="M106.762,449.708l-5.035-0.101c0,0-0.709,8.891,0.885,15.785l4.722-1.349
			C107.333,464.044,105.792,454.772,106.762,449.708z"/>
		<path fill="#662F90" d="M100.583,412.704l-6.187-6.126c0,0-7.417,11.097-9.54,19.891l6.843,3.676
			C91.7,430.145,96.869,417.675,100.583,412.704z"/>
		<path fill="#662F90" d="M111.534,423.59l3.614,3.737c0,0-5.738,8.895-6.181,12.148l-4.411-2.492
			C104.556,436.983,106.852,429.15,111.534,423.59z"/>
		<path fill="#662F90" d="M126.105,390.708l-2.209-9.94c0,0-8.749,3.244-16.601,10.414l4.323,8.796
			C111.618,399.978,120.19,392.518,126.105,390.708z"/>
		<path fill="#662F90" d="M130.341,409.636l1.147,5.072c0,0-6.621,2.1-10.067,5.832l-2.205-4.88
			C119.216,415.66,123.363,411.84,130.341,409.636z"/>
		<path fill="#662F90" d="M152.423,410.398l-1.501,4.975c0,0-8.746-3.157-11.218-2.106l0.264-5.249
			C139.968,408.018,146.773,407.624,152.423,410.398z"/>
		<path fill="#662F90" d="M162.047,378.654l-3.268,11.184c0,0-10.504-3.535-17.041-2.773l0.438-10.988
			C142.176,376.076,154.01,375.404,162.047,378.654z"/>
		<path fill="#662F90" d="M171.056,427.799l-4.062,3.069c0,0-5.298-8.612-8.123-10.516l2.825-4.212
			C161.695,416.141,167.523,421.688,171.056,427.799z"/>
		<path fill="#662F90" d="M186.248,414.992l8.661-7.272c0,0-8.039-13.762-14.666-18.161l-6.444,9.181
			C173.798,398.739,182.451,407.346,186.248,414.992z"/>
	</g>
	<path fill="#FFFFFF" d="M80.439,441.373L80.439,441.373c-6.639,42.048,15.719,81.396,49.836,87.711
		c34.121,6.316,67.276-22.756,73.917-64.808c6.644-42.051-15.717-81.397-49.835-87.713
		C120.235,370.259,87.079,399.32,80.439,441.373z M130.455,527.953c-33.545-6.218-55.51-44.962-48.966-86.385l0,0
		c6.531-41.421,39.144-70.08,72.69-63.87c33.542,6.213,55.509,44.97,48.972,86.392C196.608,505.516,164.002,534.159,130.455,527.953
		z"/>
	<path fill="#FFFFFF" d="M118.919,414.831c-9.246,7.084-15.702,18.471-17.719,31.252l0,0c-3.925,24.878,9.68,48.219,30.333,52.052
		c20.653,3.817,40.649-13.308,44.577-38.184c2.02-12.774-0.578-25.844-7.123-35.859c-5.707-8.719-13.947-14.465-23.209-16.182
		C136.51,406.202,126.974,408.654,118.919,414.831z M131.708,496.997c-20.075-3.717-33.297-26.47-29.468-50.718l0,0
		c1.976-12.487,8.276-23.604,17.289-30.511c7.832-6.005,17.087-8.394,26.07-6.719c8.987,1.656,16.982,7.24,22.522,15.707
		c6.387,9.765,8.918,22.521,6.949,35.01C171.24,484.005,151.787,500.704,131.708,496.997z"/>
	<path fill="#FFFFFF" d="M106.189,447.229L106.189,447.229c-3.461,21.924,8.29,42.452,26.204,45.769
		c17.91,3.317,35.293-11.829,38.755-33.743c1.792-11.383-0.489-22.968-6.263-31.806c-4.923-7.525-12.002-12.486-19.943-13.956
		C127.043,410.178,109.649,425.312,106.189,447.229z M132.574,491.859c-17.331-3.209-28.7-23.145-25.343-44.433l0,0
		c3.368-21.294,20.208-36.003,37.54-32.791c7.652,1.414,14.496,6.196,19.248,13.473c5.614,8.587,7.836,19.87,6.085,30.945
		C166.738,480.358,149.904,495.066,132.574,491.859z"/>
	<path fill="#FFFFFF" d="M88.057,442.938L88.057,442.938c-5.699,36.126,13.365,69.903,42.506,75.302
		c29.146,5.399,57.494-19.613,63.198-55.731c2.989-18.929-0.77-38.133-10.303-52.727c-7.974-12.186-19.414-20.213-32.205-22.578
		C122.111,381.806,93.761,406.808,88.057,442.938z M130.734,517.101c-28.564-5.285-47.238-38.475-41.635-73.966l0,0
		c5.603-35.511,33.411-60.086,61.976-54.797c12.512,2.317,23.705,10.171,31.517,22.117c9.378,14.328,13.064,33.229,10.125,51.851
		C187.11,497.814,159.311,522.395,130.734,517.101z"/>
	<polygon fill="#FFFFFF" points="187.669,503.501 186.945,504.344 144.199,460.929 144.926,460.086 	"/>
	<line fill="none" stroke="#010101" stroke-width="0.4867" x1="198.79" y1="482.891" x2="146.858" y2="454.591"/>
	<line fill="#FFFFFF" stroke="#010101" stroke-width="0.4867" x1="204.795" y1="457.834" x2="147.917" y2="454.386"/>
	<polygon fill="#FFFFFF" points="203.693,433.14 144.697,450.172 144.424,449.05 203.424,432.031 	"/>
	<polygon fill="#FFFFFF" points="194.694,408.942 145.418,449.686 144.771,448.772 194.048,408.037 	"/>
	<polygon fill="#FFFFFF" points="180.489,389.902 143.512,443.78 142.665,443.103 179.642,389.216 	"/>
	<polygon fill="#FFFFFF" points="162.607,379.32 142.268,442.736 141.269,442.358 161.604,378.938 	"/>
	<polygon fill="#FFFFFF" points="123.875,380.515 138.58,445.727 137.552,445.999 122.846,380.78 	"/>
	<polygon fill="#FFFFFF" points="142.642,376.283 138.572,443.28 137.518,443.196 141.588,376.21 	"/>
	<polygon fill="#FFFFFF" points="107.816,391.395 137.011,450.612 136.082,451.147 106.878,391.935 	"/>
	<path d="M133.961,452.576c0,3.321,1.941,6.021,4.333,6.021c2.388,0,4.327-2.699,4.327-6.021c0-3.326-1.938-6.024-4.327-6.024
		C135.902,446.552,133.961,449.25,133.961,452.576z"/>
	<polygon fill="#FFFFFF" points="172.763,518.581 171.827,519.109 144.623,462.109 145.559,461.591 	"/>
	<polygon fill="#FFFFFF" points="153.557,527.698 152.523,527.963 138.396,462.936 139.423,462.674 	"/>
	<polygon fill="#FFFFFF" points="134.821,462.425 115.558,523.235 114.557,522.863 133.817,462.049 	"/>
	<polygon fill="#FFFFFF" points="131.102,457.711 87.834,493.292 87.187,492.375 130.464,456.803 	"/>
	<polygon fill="#FFFFFF" points="133.673,463.732 99.399,510.594 98.573,509.88 132.84,463.032 	"/>
	<polygon fill="#FFFFFF" points="129.505,458.392 81.11,472.536 80.835,471.435 129.235,457.277 	"/>
	<polygon fill="#FFFFFF" points="129.918,449.989 129.879,451.136 79.894,449.228 79.93,448.082 	"/>
	<polygon fill="#010101" points="129.421,449.48 128.965,450.512 84.101,427.178 84.562,426.146 	"/>
	<polygon fill="#FFFFFF" points="133.799,445.364 133.074,446.207 94.212,406.808 94.936,405.973 	"/>
	<g>
		<path fill="#FFFFFF" d="M118.998,444.851l18.073,8.559l-16.854-9.181l-0.754-0.418L118.998,444.851z M118.976,444.832l0.459-1.033
			l0.027,0.012l-0.417,0.924l-0.055,0.107L118.976,444.832z"/>
		<path fill="#FFFFFF" d="M94.508,430.555c-0.601-1.626,0.137-3.468,1.641-4.126c1.492-0.659,3.194,0.132,3.799,1.761
			c0.597,1.615-0.123,3.469-1.615,4.117C96.833,432.966,95.114,432.166,94.508,430.555z"/>
		<path fill="#FFFFFF" d="M59.034,413.396c-0.767-0.412-0.017-2.036,0.773-1.683c27.14,14.075,38.25,17.625,50.934,26.041
			l1.005,4.349C90.998,434.121,79.134,424.279,59.034,413.396z"/>
		<path fill="#FFFFFF" d="M120.196,444.153l0.413-0.917c-4.884-3.209-10.286-6.479-15.197-9.078l-2.094,4.626
			c1.711,0.896,3.473,1.767,5.243,2.61c0.175,0.082,0.34,0.166,0.508,0.245c0.38,0.179,0.763,0.357,1.149,0.532
			c0.296,0.137,0.6,0.282,0.893,0.421c0.303,0.131,0.601,0.27,0.908,0.402c0.371,0.169,0.75,0.334,1.116,0.505
			c0.28,0.126,0.548,0.243,0.825,0.352c0.363,0.155,0.737,0.314,1.113,0.468c0.317,0.149,0.64,0.273,0.967,0.415
			c0.275,0.107,0.548,0.225,0.812,0.324c0.479,0.19,0.95,0.381,1.422,0.565c0.049,0.019,0.088,0.027,0.128,0.056
			c0.316,0.126,0.631,0.248,0.945,0.358l0.384-0.854L120.196,444.153z M119.708,445.176l0.461-1.032l0.024,0.01l-0.417,0.928
			l-0.03-0.674L119.708,445.176z"/>
		<g>
			<path fill="#FFFFFF" d="M79.403,425.062c-1.973-1.176-3.95-2.353-5.938-3.522c-0.164-0.092-0.335-0.199-0.511-0.307
				c-1.138-0.662-2.282-1.319-3.428-1.978c-0.574-0.332-1.155-0.663-1.73-0.999c-2.001-1.133-4.009-2.248-6.029-3.352
				c-2.869,1.34-7.203,0.622-8.58,4.038c-1.242,3.076,0.305,8.117,5.693,8.163l27.253,1.999c-2.187-1.312-4.368-2.629-6.556-3.939
				C79.518,425.133,79.457,425.096,79.403,425.062z"/>
			<path fill="#FFFFFF" d="M60.251,403.296c-1.648,3.282,1.54,6.532,2.313,9.835c2.169,1.112,4.345,2.207,6.52,3.273
				c1.307,0.658,2.625,1.281,3.938,1.903c0.809,0.387,1.606,0.785,2.416,1.168c0.245,0.104,0.496,0.241,0.743,0.357
				c0.623,0.293,1.251,0.573,1.875,0.863c3.266,1.529,6.532,3.029,9.822,4.544l-18.164-22.082
				C66.358,398.585,61.731,400.352,60.251,403.296z"/>
		</g>
		<path fill="#FFFFFF" d="M119.932,443.831l0.42-0.627c0,0-11.805-7.774-14.94-9.046l-0.488,0.967L119.932,443.831z"/>
	</g>
	<g>
		<path fill="#FFFFFF" d="M116.805,468.949l18.708-6.764l-18.181,5.418l-0.821,0.239L116.805,468.949z M116.783,468.955l-0.3-1.103
			l0.028-0.01l0.261,0.999l0.03,0.107L116.783,468.955z"/>
		<path fill="#FFFFFF" d="M89.794,476.105c-1.45-0.764-2.05-2.68-1.348-4.24c0.708-1.576,2.462-2.232,3.905-1.464
			c1.449,0.762,2.063,2.67,1.362,4.236C93,476.208,91.231,476.876,89.794,476.105z"/>
		<path fill="#FFFFFF" d="M52.846,489.13c-0.835,0.241-1.277-1.512-0.469-1.812c28.848-9.256,39.286-14.689,53.915-17.652
			l3.436,2.498C89.393,481.319,74.495,482.616,52.846,489.13z"/>
		<path fill="#FFFFFF" d="M117.271,467.557l-0.263-0.982c-5.612,1.162-11.644,2.666-16.903,4.292l1.317,4.957
			c1.825-0.57,3.67-1.211,5.507-1.876c0.173-0.056,0.351-0.113,0.522-0.175c0.397-0.149,0.793-0.294,1.188-0.438
			c0.306-0.113,0.615-0.232,0.926-0.347c0.307-0.113,0.605-0.233,0.914-0.354c0.384-0.146,0.765-0.288,1.148-0.443
			c0.276-0.108,0.542-0.223,0.824-0.325c0.373-0.156,0.743-0.305,1.114-0.46c0.333-0.127,0.66-0.272,0.974-0.396
			c0.275-0.116,0.54-0.232,0.812-0.345c0.475-0.207,0.942-0.419,1.399-0.628c0.048-0.017,0.087-0.029,0.126-0.05
			c0.317-0.129,0.629-0.269,0.932-0.405l-0.249-0.918L117.271,467.557z M117.545,468.663l-0.303-1.095l0.025-0.012l0.262,0.994
			l-0.436-0.479L117.545,468.663z"/>
		<g>
			<path fill="#FFFFFF" d="M75.172,482.991c-2.192,0.565-4.38,1.131-6.573,1.698c-0.192,0.051-0.384,0.098-0.583,0.148
				c-1.252,0.331-2.504,0.682-3.763,1.022c-0.635,0.169-1.27,0.34-1.912,0.51c-2.182,0.613-4.363,1.229-6.543,1.884
				c-1.289,3.078-4.962,5.691-3.866,9.226c0.983,3.189,5.25,5.805,9.283,1.932l21.458-18.293c-2.439,0.603-4.872,1.22-7.304,1.832
				C75.305,482.963,75.244,482.982,75.172,482.991z"/>
			<path fill="#FFFFFF" d="M47.487,480.741c0.808,3.623,5.19,3.734,7.802,5.618c2.307-0.739,4.596-1.512,6.874-2.293
				c1.371-0.468,2.732-0.974,4.104-1.45c0.833-0.29,1.672-0.581,2.506-0.882c0.252-0.099,0.515-0.189,0.772-0.282
				c0.641-0.231,1.288-0.481,1.923-0.721c3.374-1.226,6.73-2.491,10.103-3.751l-27.15-3.195
				C49.105,472.803,46.768,477.494,47.487,480.741z"/>
		</g>
		<path fill="#FFFFFF" d="M116.867,467.521l-0.078-0.782c0,0-13.564,2.812-16.685,4.127l0.235,1.069L116.867,467.521z"/>
	</g>
</g>
<g>
	<g>
		<path opacity="0.8" d="M221.945,540.872c0,6.498-5.312,11.766-11.865,11.766H58.81c-6.553,0-11.865-5.268-11.865-11.766V314.403
			c0-6.498,5.312-11.766,11.865-11.766h151.271c6.553,0,11.865,5.268,11.865,11.766V540.872z"/>
	</g>
</g>
<g opacity="0.4">
	<path fill-rule="evenodd" clip-rule="evenodd" fill="#FFFFFF" d="M324.001,96.195c2.417,0,4.836,0,7.254,0
		c3.789,2.019,8.445,5.318,6.4,10.666c-0.856-3.55-6.743-2.075-9.812-3.412c3.611-0.476,7.311,1.212,9.386,0.853
		c-4.055-2.244-15.038-2.953-17.92,0.853c0.839,1.325,2.639-0.959,3.414,0.429c-1.314,0.25-3.021,0.108-2.987,1.706
		c5.233,0.8,13.672-1.088,18.347,1.277c2.086,5.758-2.894,7.066-5.547,9.388c1.281,5.697,7.013,3.482,10.667,5.976
		c2.011,1.369,4.725,7.185,6.4,10.237c2.179,3.97,3.406,8.541,5.121,11.522c2.114,3.678,4.811,6.675,6.827,9.812
		c2.244,3.497,3.195,8.409,7.253,9.812c3.869-4.966-5.181-6.66-4.694-10.666c2.761,0.938,4.919,2.476,7.68,3.413
		c5.008-10.413,11.731-20.645,17.494-31.147c5.711-10.406,10.357-22.075,18.347-29.438c-7.55,23.881-20.94,41.922-30.721,63.572
		c1.721,1.84,5.875,3.506,5.974,5.547c-3.793,0.178-6.5-2.807-9.386-2.135c-1.227,3.409,1.587,7.791-1.708,11.094
		c-1.62,0.565-2.364,1.06-4.266,0.428c-0.517,2,0.417,2.916-0.853,3.842c-3.37,0.24-4.607-1.654-5.547-3.842
		c6.661-2.296,1.17-8.281-2.134-11.946c-6.138-6.812-11.05-17.869-16.639-22.612c-2.496,5.1-0.285,12.684-4.268,15.784
		c1.73,4.241,5.492,7.94,5.974,11.946c2.872,23.9-7.916,52.403-4.268,74.241c-3.475,5.166-8.811-0.922-14.933-0.854
		c-4.575,0.05-7.108,3.72-10.241,0.425c-0.853-4.603,1.675-9.284,1.708-14.506c0.039-6.244-2.275-14.297-3.415-21.76
		c-2.563-16.814-5.214-38.037,2.562-50.347c-3.917-2.105-2.283-7.415-2.562-11.946c-0.22-3.613-2.446-6.913-1.279-9.812
		c-5.987,0.193-12.369,5.365-18.347,4.266c-3.528-0.647-5.613-5.429-8.106-4.694c2.505,5.462,2.853,13.075,6.826,17.069
		c-2.004,7.234-18.931,6.896-20.053-0.854c1.838,0.557,1.349-1.213,2.133-1.706c1.486-7.335,4.074-13.565,5.547-20.91
		c-6.739,0.232-14.431-0.49-20.479,0.429c2.796,7.443,3.803,16.675,8.533,22.188c-1.655,7.453-17.875,7.316-20.053,0.425
		c0-0.284,0-0.568,0-0.854c0.284,0,0.569,0,0.853,0c3.664-5.438,4.089-14.115,6.827-20.478c0.817-2.098-1.417-1.144-1.28-2.562
		c3.633-1.344,8.008-1.947,12.374-2.56c2.185-3.362,5.38-5.713,10.667-5.972c5.28,5.1,10.768,9.996,18.345,12.8
		c2.685-1.972,6.066-1.662,9.388-3.416c2.464-1.296,3.977-3.787,6.4-4.69c4.581-1.709,11.549-0.037,12.374-6.399
		c-1.367-0.766-4.084-0.185-4.694-1.71C317.568,107.564,316.844,98.629,324.001,96.195z"/>
	<g>
		<path fill-rule="evenodd" clip-rule="evenodd" fill="#FFFFFF" d="M263.414,182.592c1.011,0.845,1.696-2.268,3.415-2.131
			c2.202,5.178-0.224,11.99-4.267,13.653c0.056-2.362,0.969-3.869,1.706-5.548c-1.8,0.616-0.903,3.933-2.986,4.267
			c-0.47-4.017-0.317-7.031-0.427-11.946c-1.003,1.699,0.124,5.527-1.28,6.827c-2.712-4.794-2.28-15.331,2.56-17.493
			C263.089,173.536,264.737,178.42,263.414,182.592z"/>
		<path fill-rule="evenodd" clip-rule="evenodd" fill="#FFFFFF" d="M396.961,196.245c-1.558,1.288-0.989,4.7-2.986,5.547
			c-1.692-7.178,2.042-12.016,5.119-15.788c4.05,5.104-0.072,13.607-2.986,17.07C394.823,200.92,396.686,198.258,396.961,196.245z"
			/>
		<path fill-rule="evenodd" clip-rule="evenodd" fill="#FFFFFF" d="M273.655,225.687c-0.935,1.8,1.025,4.368,0.853,6.827
			c-4.403-2.037-5.776-8.765-4.694-14.935c-0.607,0.812-0.992,1.854-1.279,2.987c-2.305-1.059-0.714-4.321-0.853-6.827
			c-0.788,1.487-0.861,3.69-1.28,5.547c-2.327-2.082-3.865-4.953-5.547-7.682c-0.241,2.097,3.288,4.104,2.986,7.682
			c-5.031-3.503-9.154-7.909-8.533-17.065c3.78,2.05,7.083,4.578,8.533,8.959c1.621-2.222,2.386-5.293,3.841-7.681
			c3.469,1.638,3.344,8.225,2.559,12.8c4.752,2.787,6.958,8.118,6.4,16.215C274.626,231.254,274.17,228.441,273.655,225.687z"/>
		<path fill-rule="evenodd" clip-rule="evenodd" fill="#FFFFFF" d="M390.561,226.114c-1.669,1.6-3.65,2.89-5.121,4.69
			c-0.497-7.181,6.523-10.541,11.947-13.226c1.039,8.01-5.382,12.254-11.094,14.935C386.57,229.232,389.323,228.43,390.561,226.114z
			"/>
		<path fill-rule="evenodd" clip-rule="evenodd" fill="#FFFFFF" d="M264.693,226.114c1.437,2.263,4.153,3.24,4.694,6.399
			c-6.203-2.615-11.272-6.365-11.947-14.51c6.583,1.67,11.504,4.995,12.8,11.947C268.981,231.389,266.994,226.451,264.693,226.114z"
			/>
		<path fill-rule="evenodd" clip-rule="evenodd" fill="#FFFFFF" d="M283.894,238.062c-0.933,1.8,1.025,4.368,0.855,6.825
			c-3.452-2.907-5.556-4.623-10.667-5.973c1.741,1.812,5.45,1.66,5.974,4.69c-8.542-0.56-14.141-4.062-17.067-10.237
			c7.269-1.293,14.361,1.281,16.641,6.399c-0.086-3.218-1.689-9.518,0-13.652c5.661,3.152,8.275,9.359,7.68,18.772
			C284.896,243.883,284.7,240.667,283.894,238.062z"/>
		<path fill-rule="evenodd" clip-rule="evenodd" fill="#FFFFFF" d="M372.214,237.204c-1.459,2.237-1.49,5.907-3.413,7.683
			c-1.815-7.085,0.834-16.695,7.253-18.348c1.109,7.625,0.321,16.353-5.547,18.348C371.1,242.349,371.7,239.82,372.214,237.204z"/>
		<path fill-rule="evenodd" clip-rule="evenodd" fill="#FFFFFF" d="M381.175,239.339c-1.342-0.472-4.153,1.244-5.547,2.135
			c0.575-6.112,8.111-8.957,16.639-8.534c-2.28,6.965-8.431,10.056-17.066,10.665C376.07,241.062,379.023,240.602,381.175,239.339z"
			/>
		<path fill-rule="evenodd" clip-rule="evenodd" fill="#FFFFFF" d="M295.414,247.874c0.994,2.134,2.633,3.625,3.415,5.972
			c-7.609-1.066-9.402-7.95-11.094-14.932c8.679,0.422,10.906,7.297,13.653,13.652C298.301,253.795,297.532,249.033,295.414,247.874
			z"/>
		<path fill-rule="evenodd" clip-rule="evenodd" fill="#FFFFFF" d="M360.267,248.299c-2.217-0.359-2.508,4.881-5.974,4.693
			c2.084-7.019,4.866-13.338,13.227-14.078c-1.155,7.519-3.869,13.481-10.666,15.359
			C356.411,252.396,359.019,249.901,360.267,248.299z"/>
		<path fill-rule="evenodd" clip-rule="evenodd" fill="#FFFFFF" d="M344.481,264.086c-1.789-1.197-4.92-1.053-7.253-1.707
			c1.295-1.689,3.195-2.777,6.4-2.559c1.909-1.219,2.521-3.737,4.266-5.121c-1.584-0.154-2.734,3.8-5.119,4.268
			c0.336-6.065,4.886-11.612,11.519-12.8c0.238,5.784-3.026,11.76-8.533,13.225c3.072,1.622,6.625,2.763,9.388,4.694
			c-2.775,5.65-13.991,3.838-18.347,0.854c-1.205,0.502,0.477,3.89-1.281,3.84c-3.114-0.565-1.876-9.612-0.853-11.518
			c3.07-0.37,1.188,4.215,1.708,6.399C337.628,263.896,342.472,263.286,344.481,264.086z"/>
		<path fill-rule="evenodd" clip-rule="evenodd" fill="#FFFFFF" d="M369.228,257.687c-1.78,5.462-14.114,7.056-18.347,2.559
			c1.924-0.638,4.161-0.959,6.827-0.854c-1.34-1.077-4.979,0.145-6.4-0.853C354,253.502,365.173,254.758,369.228,257.687z"/>
		<path fill-rule="evenodd" clip-rule="evenodd" fill="#FFFFFF" d="M329.975,257.687c0.711,0,1.422,0,2.133,0
			c0.516,3.162,1.011,8.996-0.426,11.518C327.882,267.683,330.586,261.889,329.975,257.687z"/>
		<path fill-rule="evenodd" clip-rule="evenodd" fill="#FFFFFF" d="M324.854,269.633c-0.568,0-1.137,0-1.706,0
			c-0.594-3.307-1.716-9.344,0.853-11.519C326.462,259.627,325.12,266.762,324.854,269.633z"/>
		<path fill-rule="evenodd" clip-rule="evenodd" fill="#FFFFFF" d="M328.267,269.633c-0.569,0-1.137,0-1.706,0
			c-0.461-2.938-1.165-9.269,0.426-11.519C330.442,259.339,328.918,266.586,328.267,269.633z"/>
		<path fill-rule="evenodd" clip-rule="evenodd" fill="#FFFFFF" d="M318.455,262.805c0.374,1.875-8.362,0.55-4.694,0.428
			C315.117,263.146,317.578,261.958,318.455,262.805z"/>
		<path fill-rule="evenodd" clip-rule="evenodd" fill="#FFFFFF" d="M392.267,189.846c-0.871,0.899,1.158,2.521,0.426,4.693
			c-3.469-2.54-6.361-8.615-4.266-14.078c1.797,0.193,1.964,2.016,3.413,2.56c-0.962-4.682,0.256-9.291,1.708-12.8
			c4.542,2.221,4.501,11.831,2.986,17.493c-1.815-1.172-1.727-4.247-1.706-7.253c-1.163,3.935,0.429,8.301-0.854,12.372
			C393.264,191.979,392.426,191.252,392.267,189.846z"/>
		<path fill-rule="evenodd" clip-rule="evenodd" fill="#FFFFFF" d="M259.148,196.674c-0.924,1.725,1.473,4.318,0.426,6.4
			c-3.326-3.735-6.822-10.86-3.84-17.07c3.879,3.048,7.239,8.558,5.547,15.788C260.001,200.654,259.645,198.592,259.148,196.674z"/>
		<path fill-rule="evenodd" clip-rule="evenodd" fill="#FFFFFF" d="M390.987,200.939c-0.852,1.019,1.139,2.824,0.853,4.693
			c-3.658-0.35-6.677-8.557-4.266-13.653c3.78,2.335,6.788,6.747,5.545,12.8C391.925,203.982,391.475,202.441,390.987,200.939z"/>
		<path fill-rule="evenodd" clip-rule="evenodd" fill="#FFFFFF" d="M264.693,201.367c-0.813,0.891-1.375,2.037-1.706,3.412
			c-2.711-5.309,1.444-10.655,4.694-12.8c2.931,4.697-0.12,12.047-3.841,14.082C263.499,203.867,264.298,202.82,264.693,201.367z"/>
		<path fill-rule="evenodd" clip-rule="evenodd" fill="#FFFFFF" d="M394.401,212.461c-1.833,2.006-3.311,4.368-4.694,6.825
			c-1.664-1.037-1.033-4.372-1.707-6.399c-0.902,1.449,0.929,5.74-0.426,7.68c-0.844-0.296-1.137-1.137-1.281-2.134
			c-0.624,5.919-0.622,12.463-5.545,14.081c0.553-1.865,0.851-3.984,1.279-5.975c-1.289,1.557-0.802,4.888-2.987,5.547
			c-1.071-6.688,1.142-13.597,6.4-15.359c-1.602-4.425-0.533-9.85,1.279-13.228c2.574,1.409,3.525,4.44,4.268,7.681
			c2.651-3.466,4.889-7.341,9.388-8.959c0.34,9.016-3.761,13.591-8.961,17.065C391.617,216.217,393.556,214.887,394.401,212.461z"/>
		<path fill-rule="evenodd" clip-rule="evenodd" fill="#FFFFFF" d="M285.601,250.861c0.086,1.768,6.53,0.855,6.4,4.266
			c-9.631,0.385-15.775-2.716-19.2-8.535c7.319-2.463,16.548,0.116,19.2,5.122C290.226,252.762,287.501,251.104,285.601,250.861z"/>
		<path fill-rule="evenodd" clip-rule="evenodd" fill="#FFFFFF" d="M370.507,251.286c-1.694-0.685-4.876,0.803-6.826,1.28
			c0.769-5.668,10.756-7.965,18.773-6.399c-2.545,6.841-9.7,9.072-19.2,8.96C364.632,252.805,367.369,251.846,370.507,251.286z"/>
		<path fill-rule="evenodd" clip-rule="evenodd" fill="#FFFFFF" d="M307.361,253.846c1.113,2.158,2.977,3.565,3.84,5.975
			c3.555-0.429,5.266,0.991,7.253,2.131c0.061-1.644-0.334-3.747,0.853-4.265c0.285,0,0.568,0,0.854,0
			c2.193,1.459,1.578,8.968,0.426,11.093c-0.285,0-0.569,0-0.853,0c-1.589,0.025-1.229-1.9-1.28-3.412
			c-5.045,2.409-15.331,4.27-18.347-1.281c1.849-0.284,2.292-1.975,4.268-2.135c-5.38,1.278-15.839,1.419-18.347-3.837
			c3.499-3.644,15.128-4.428,18.347,0c-1.308,1.394-4.727,0.678-7.255,0.853c2.225,1.188,7.436-0.609,7.681,2.56
			c1.452-0.681,3.105-1.162,4.692-1.706c-5.041-2.496-7.916-7.159-8.959-13.653c7.583,0.95,10.709,6.356,12.8,12.8
			C310.276,258.326,309.494,255.411,307.361,253.846z M313.761,263.232c-3.668,0.122,5.067,1.447,4.694-0.428
			C317.578,261.958,315.117,263.146,313.761,263.232z"/>
	</g>
</g>
<g>
	<g>
		<path opacity="0.8" fill="#F16624" d="M415.945,270.872c0,6.498-5.312,11.766-11.865,11.766H252.81
			c-6.553,0-11.865-5.268-11.865-11.766V94.403c0-6.498,5.312-11.766,11.865-11.766h151.271c6.553,0,11.865,5.268,11.865,11.766
			V270.872z"/>
	</g>
</g>
<g opacity="0.4">
	<path id="path2735" fill="#FFFFFF" d="M335.342,393.754v-38.873h-83.396v38.873H335.342z"/>
	<path id="path2735-0" fill="#FFFFFF" d="M332.162,391.237v-36.356h-80.216v36.356H332.162z"/>
	<path id="path2735-7" fill="#FFFFFF" d="M330.647,388.977v-34.096h-78.702v34.096H330.647z"/>
	<path id="path2731" fill="#FFFFFF" d="M379.671,366.925c0-6.685-5.418-12.104-12.104-12.104c-6.684,0-12.103,5.419-12.103,12.104
		c0,6.686,5.419,12.104,12.103,12.104C374.253,379.028,379.671,373.61,379.671,366.925z"/>
	<path id="path2733" fill="#FFFFFF" d="M391.358,392.9c-1.272-4.291-7.42-11.128-15.23-11.128h-16.596
		c-8.786,0-14.643,6.078-16.433,12.26c0,0-1.464,5.197-1.464,5.044l-7.687-9.192c-4.271-4.638-11.633,0.936-7.566,6.224
		l13.039,15.743c3.294,4.127,7.584,3.008,9.286-1.834l3.594-11.461h2.746l-6.74,23.382h37.618l-6.291-23.382h2.613l6.44,23.382
		h10.634L391.358,392.9z"/>
	<path id="path2743" fill="#FFFFFF" d="M401.945,430.248v-5.539h-65.25v5.539H401.945z"/>
	<path id="path2743-1" fill="#FFFFFF" d="M401.945,480.454v-49.146h-58.095v49.146H401.945z"/>
	<path id="path2735-0-9" fill="#FFFFFF" d="M327.692,390.688l1.173-1.116l-30.141-31.649l-1.173,1.115L327.692,390.688z"/>
	<path id="path2735-0-4" fill="#FFFFFF" d="M401.945,477.026v-42.579h-54.828v42.579H401.945z"/>
	<path id="path2743-1-8" fill="#FFFFFF" d="M401.945,476.492v-41.607h-53.988v41.607H401.945z"/>
</g>
<g>
	<g>
		<path opacity="0.8" fill="#F16624" d="M415.945,540.872c0,6.498-5.312,11.766-11.865,11.766H252.81
			c-6.553,0-11.865-5.268-11.865-11.766V314.403c0-6.498,5.312-11.766,11.865-11.766h151.271c6.553,0,11.865,5.268,11.865,11.766
			V540.872z"/>
	</g>
</g>
<defs  opacity="0.4">
	
	
		<inkscape:perspective  inkscape:persp3d-origin="372.04724 : 350.78739 : 1" inkscape:vp_z="744.09448 : 526.18109 : 1" inkscape:vp_x="0 : 526.18109 : 1" inkscape:vp_y="0 : 1000 : 0" sodipodi:type="inkscape:persp3d" id="perspective10">
		</inkscape:perspective>
</defs>
<sodipodi:namedview  inkscape:window-height="801" inkscape:window-width="1440" inkscape:pageshadow="2" inkscape:window-x="0" inkscape:window-maximized="0" inkscape:document-units="px" inkscape:current-layer="layer1" inkscape:window-y="0" inkscape:pageopacity="0.0" inkscape:cy="601.44005" pagecolor="#ffffff" borderopacity="1.0" inkscape:zoom="0.35" showgrid="false" inkscape:cx="983.51788" bordercolor="#666666" id="base">
	</sodipodi:namedview>
<g id="layer1" transform="translate(1138.5179,-331.89985)" inkscape:groupmode="layer" inkscape:label="Layer 1" opacity="0.4">
	
		<path id="path3590" inkscape:export-ydpi="5.6116552" inkscape:export-filename="/Users/andersbr/Documents/coop/art/web/admin_tools.png" inkscape:export-xdpi="5.6116552" fill="#FFFFFF" d="
		M-655.251,688.199l-17.952-16.756l-12.566,8.977l13.165,19.747l10.173,1.795l73.006,93.95l5.386-4.188l-73.006-93.95
		L-655.251,688.199z"/>
	
		<path id="path3594" inkscape:export-ydpi="5.6116552" inkscape:export-filename="/Users/andersbr/Documents/coop/art/web/admin_tools.png" inkscape:export-xdpi="5.6116552" sodipodi:nodetypes="cccccsccscccccsssc" fill="#FFFFFF" d="
		M-561.674,684.736c-8.905-3.972-18.421,1.237-24.573,7.646c-12.561,13.652-2.184,31.674-2.184,31.674l-89.014,73.185
		c0,0-13.112,9.279-2.736,21.294s23.486-1.637,23.486-1.637l81.371-79.733c1.638,0,22.711,6.905,34.406-4.368
		c10.846-10.456,4.914-28.942,4.914-28.942l-14.746,18.018l-19.114-4.367l-3.823-18.569L-561.674,684.736L-561.674,684.736z
		 M-658.88,808.707c0,5.731-4.645,10.376-10.375,10.376s-10.375-4.645-10.375-10.376c0-5.73,4.645-10.381,10.375-10.381
		S-658.88,802.977-658.88,808.707z"/>
	
		<path id="path3592" inkscape:export-ydpi="5.6116552" inkscape:export-filename="/Users/andersbr/Documents/coop/art/web/admin_tools.png" inkscape:export-xdpi="5.6116552" sodipodi:nodetypes="cccsccsccscc" fill="#FFFFFF" d="
		M-622.432,729.225l10.922,7.226c0,0-2.213,8.476,1.296,12.897c3.51,4.422,9.783,1.306,9.783,1.306l47.609,59.067
		c0,0,3.125,11.692-6.908,18.846c-10.033,7.153-20.62-1.289-20.62-1.289l-45.758-58.674c0,0,4.154-5.888-1.14-10.109
		c-5.293-4.221-9.648-0.116-9.648-0.116l-4.18-10.368L-622.432,729.225L-622.432,729.225z"/>
</g>
<g>
	<g>
		<path opacity="0.8" fill="#5CA047" d="M610.945,540.872c0,6.498-5.312,11.766-11.865,11.766H447.81
			c-6.553,0-11.865-5.268-11.865-11.766V314.403c0-6.498,5.312-11.766,11.865-11.766h151.271c6.553,0,11.865,5.268,11.865,11.766
			V540.872z"/>
	</g>
</g>
<g id="layer1_1_" transform="translate(-293.93472,-279.66708)" inkscape:groupmode="layer" inkscape:label="Calque 1" opacity="0.4">
	<g id="g5747" transform="matrix(1.2162512,0,0,1.2162512,-63.526313,-60.44092)">
		
			<path id="path4947" inkscape:connector-curvature="0" sodipodi:nodetypes="cccc" fill="#FFFFFF" stroke="#66318F" stroke-width="2.7453" stroke-linecap="round" stroke-linejoin="round" d="
			M847.846,602.194l-5.758,2.48c-2.49-1.1-2.82-5.571,1.516-4.419L847.846,602.194z"/>
		
			<path id="path4947-8" inkscape:connector-curvature="0" sodipodi:nodetypes="cccc" fill="#FFFFFF" stroke="#66318F" stroke-width="2.7453" stroke-linecap="round" stroke-linejoin="round" d="
			M859.352,598.76l-5.757,2.48c-2.49-1.1-2.82-5.571,1.516-4.419L859.352,598.76z"/>
		
			<path id="path5475" inkscape:connector-curvature="0" sodipodi:nodetypes="cccc" fill="#FFFFFF" stroke="#66318F" stroke-width="2.7453" stroke-linecap="round" stroke-linejoin="round" d="
			M870.762,595.379l-5.758,2.481c-2.49-1.1-2.819-5.571,1.517-4.419L870.762,595.379z"/>
		
			<path id="path5477" inkscape:connector-curvature="0" sodipodi:nodetypes="cccc" fill="#FFFFFF" stroke="#66318F" stroke-width="2.7453" stroke-linecap="round" stroke-linejoin="round" d="
			M881.87,591.878l-5.758,2.48c-2.489-1.1-2.82-5.572,1.516-4.419L881.87,591.878z"/>
		
			<path id="path5479" inkscape:connector-curvature="0" sodipodi:nodetypes="cccc" fill="#FFFFFF" stroke="#66318F" stroke-width="2.7453" stroke-linecap="round" stroke-linejoin="round" d="
			M892.977,588.558l-5.757,2.479c-2.638-1.174-2.993-5.657,1.516-4.419L892.977,588.558z"/>
		
			<path id="path5481" inkscape:connector-curvature="0" sodipodi:nodetypes="cccc" fill="#FFFFFF" stroke="#66318F" stroke-width="2.7453" stroke-linecap="round" stroke-linejoin="round" d="
			M903.965,585.359l-5.758,2.479c-2.638-1.174-2.993-5.657,1.515-4.419L903.965,585.359z"/>
		
			<path id="path5483" inkscape:connector-curvature="0" sodipodi:nodetypes="cccc" fill="#FFFFFF" stroke="#66318F" stroke-width="2.7453" stroke-linecap="round" stroke-linejoin="round" d="
			M915.012,582.038l-5.758,2.48c-2.638-1.175-2.993-5.657,1.516-4.419L915.012,582.038z"/>
		
			<path id="path5485" inkscape:connector-curvature="0" sodipodi:nodetypes="cccc" fill="#FFFFFF" stroke="#66318F" stroke-width="2.7453" stroke-linecap="round" stroke-linejoin="round" d="
			M925.698,578.718l-5.759,2.48c-2.638-1.174-2.993-5.657,1.517-4.419L925.698,578.718z"/>
		
			<path id="path4520" inkscape:connector-curvature="0" sodipodi:nodetypes="ccccc" fill="#FFFFFF" stroke="#66318F" stroke-width="2.7453" stroke-linecap="round" stroke-linejoin="round" d="
			M830.045,606.079l18.441,100.4l103.132-43.711c0,0-16.051-91.351-15.367-88.619L830.045,606.079z"/>
		
			<path id="path4899" inkscape:connector-curvature="0" sodipodi:nodetypes="ccccc" fill="#FFFFFF" stroke="#66318F" stroke-width="2.7453" stroke-linecap="round" stroke-linejoin="round" d="
			M837.558,607.104c4.186,26.478,8.006,53.14,15.709,77.861l90.496-37.564c-4.514-23.07-8.935-46.078-11.611-67.958L837.558,607.104
			z"/>
		<g id="g4901" transform="translate(0.70367089,-2.1110127)">
			
				<path id="path5541" inkscape:connector-curvature="0" sodipodi:nodetypes="ccccc" fill="#FFFFFF" stroke="#66318F" stroke-width="2.7453" stroke-linecap="round" stroke-linejoin="round" d="
				M919.786,585.554l0.248,2.843l8.72-2.805l-0.007-2.496L919.786,585.554z"/>
			
				<path id="path5543" inkscape:connector-curvature="0" sodipodi:nodetypes="ccccc" fill="#FFFFFF" stroke="#66318F" stroke-width="2.7453" stroke-linecap="round" stroke-linejoin="round" d="
				M918.258,578.784c3.715,1.362,5.46,4.38,2.502,7.853l6.562-2.324c2.594-2.762,1.702-6.876-1.164-7.69L918.258,578.784
				L918.258,578.784z"/>
		</g>
		<g id="g4905" transform="translate(17.372281,3.1134771)">
			
				<path id="path4907" inkscape:connector-curvature="0" sodipodi:nodetypes="ccccc" fill="#FFFFFF" stroke="#66318F" stroke-width="2.7453" stroke-linecap="round" stroke-linejoin="round" d="
				M891.678,583.914l0.248,2.844l8.89-3.147l-0.177-2.154L891.678,583.914z"/>
			
				<path id="path4909" inkscape:connector-curvature="0" sodipodi:nodetypes="ccccc" fill="#FFFFFF" stroke="#66318F" stroke-width="2.7453" stroke-linecap="round" stroke-linejoin="round" d="
				M890.491,577.145c3.715,1.362,5.118,4.38,2.16,7.854l6.562-2.325c2.594-2.762,1.105-6.876-1.762-7.69L890.491,577.145
				L890.491,577.145z"/>
		</g>
		<g id="g4911" transform="translate(32.796965,7.5916112)">
			
				<path id="path4913" inkscape:connector-curvature="0" sodipodi:nodetypes="ccccc" fill="#FFFFFF" stroke="#66318F" stroke-width="2.7453" stroke-linecap="round" stroke-linejoin="round" d="
				M865.666,582.511l0.248,2.843l8.89-2.805l-0.177-2.496L865.666,582.511z"/>
			
				<path id="path4915" inkscape:connector-curvature="0" sodipodi:nodetypes="ccccc" fill="#FFFFFF" stroke="#66318F" stroke-width="2.7453" stroke-linecap="round" stroke-linejoin="round" d="
				M866.64,583.594l6.562-2.325c2.595-2.762,1.411-6.669-1.456-7.484l-7.266,1.955C868.195,577.101,869.598,580.12,866.64,583.594z"
				/>
		</g>
		<g id="g4917" transform="translate(49.21679,12.567315)">
			
				<path id="path4919" inkscape:connector-curvature="0" sodipodi:nodetypes="ccccc" fill="#FFFFFF" stroke="#66318F" stroke-width="2.7453" stroke-linecap="round" stroke-linejoin="round" d="
				M837.977,580.949l0.248,2.844l8.89-2.976l-0.177-2.325L837.977,580.949z"/>
			
				<path id="path4921" inkscape:connector-curvature="0" sodipodi:nodetypes="ccccc" fill="#FFFFFF" stroke="#66318F" stroke-width="2.7453" stroke-linecap="round" stroke-linejoin="round" d="
				M836.911,574.119c3.715,1.361,4.998,4.44,2.04,7.914l6.562-2.326c2.594-2.761,1.17-6.775-1.697-7.589L836.911,574.119
				L836.911,574.119z"/>
		</g>
		<g id="g4923" transform="translate(65.211912,17.279143)">
			
				<path id="path4925" inkscape:connector-curvature="0" sodipodi:nodetypes="ccccc" fill="#FFFFFF" stroke="#66318F" stroke-width="2.7453" stroke-linecap="round" stroke-linejoin="round" d="
				M811.004,579.471l0.249,2.845l8.89-2.805l-0.177-2.496L811.004,579.471z"/>
			
				<path id="path4927" inkscape:connector-curvature="0" sodipodi:nodetypes="ccccc" fill="#FFFFFF" stroke="#66318F" stroke-width="2.7453" stroke-linecap="round" stroke-linejoin="round" d="
				M809.818,572.702c3.715,1.361,5.118,4.38,2.16,7.853l6.562-2.325c2.595-2.762,1.12-6.875-1.747-7.69L809.818,572.702
				L809.818,572.702z"/>
		</g>
		<g id="g4929" transform="translate(81.061299,22.76751)">
			
				<path id="path4931" inkscape:connector-curvature="0" sodipodi:nodetypes="ccccc" fill="#FFFFFF" stroke="#66318F" stroke-width="2.7453" stroke-linecap="round" stroke-linejoin="round" d="
				M784.276,577.75l0.249,2.844l9.231-2.976l-0.519-2.324L784.276,577.75z"/>
			
				<path id="path4933" inkscape:connector-curvature="0" sodipodi:nodetypes="ccccc" fill="#FFFFFF" stroke="#66318F" stroke-width="2.7453" stroke-linecap="round" stroke-linejoin="round" d="
				M783.211,570.618c3.715,1.361,4.997,4.742,2.039,8.216l6.562-2.325c2.595-2.762,1.532-7.259-1.335-8.073L783.211,570.618
				L783.211,570.618z"/>
		</g>
		<g id="g4935" transform="translate(96.983554,27.245644)">
			
				<path id="path4937" inkscape:connector-curvature="0" sodipodi:nodetypes="ccccc" fill="#FFFFFF" stroke="#66318F" stroke-width="2.7453" stroke-linecap="round" stroke-linejoin="round" d="
				M757.427,576.346l0.248,2.843l8.94-3.076l-0.227-2.226L757.427,576.346z"/>
			
				<path id="path4939" inkscape:connector-curvature="0" sodipodi:nodetypes="ccccc" fill="#FFFFFF" stroke="#66318F" stroke-width="2.7453" stroke-linecap="round" stroke-linejoin="round" d="
				M756.12,569.454c3.715,1.362,5.238,4.501,2.281,7.975l6.562-2.325c2.595-2.762,1.17-7.017-1.697-7.831L756.12,569.454
				L756.12,569.454z"/>
		</g>
		<g id="g4941" transform="translate(113.40338,31.972563)">
			
				<path id="path4943" inkscape:connector-curvature="0" sodipodi:nodetypes="ccccc" fill="#FFFFFF" stroke="#66318F" stroke-width="2.7453" stroke-linecap="round" stroke-linejoin="round" d="
				M729.737,574.862l0.249,2.844l9.061-2.834l-0.348-2.467L729.737,574.862z"/>
			
				<path id="path4945" inkscape:connector-curvature="0" sodipodi:nodetypes="ccccc" fill="#FFFFFF" stroke="#66318F" stroke-width="2.7453" stroke-linecap="round" stroke-linejoin="round" d="
				M728.551,568.092c3.715,1.362,5.118,4.38,2.16,7.854l6.562-2.325c2.596-2.762,1.291-6.776-1.576-7.59L728.551,568.092
				L728.551,568.092z"/>
		</g>
		
			<path id="path5489" inkscape:connector-curvature="0" sodipodi:nodetypes="ccccc" fill="#FFFFFF" stroke="#66318F" stroke-width="2.7453" stroke-linecap="round" stroke-linejoin="round" d="
			M862.889,611.613l2.039,11.541l9.908-3.62l-2.036-11.119L862.889,611.613z"/>
		
			<path id="path5491" inkscape:connector-curvature="0" sodipodi:nodetypes="ccccc" fill="#FFFFFF" stroke="#66318F" stroke-width="2.7453" stroke-linecap="round" stroke-linejoin="round" d="
			M849.615,616.259l2.038,11.541l9.909-3.62l-2.036-11.353L849.615,616.259z"/>
		
			<path id="path5493" inkscape:connector-curvature="0" sodipodi:nodetypes="ccccc" fill="#FFFFFF" stroke="#66318F" stroke-width="2.7453" stroke-linecap="round" stroke-linejoin="round" d="
			M875.168,607.299l2.038,11.542l9.71-3.025l-2.072-11.48L875.168,607.299z"/>
		
			<path id="path5495" inkscape:connector-curvature="0" sodipodi:nodetypes="ccccc" fill="#FFFFFF" stroke="#66318F" stroke-width="2.7453" stroke-linecap="round" stroke-linejoin="round" d="
			M887.778,602.888l2.039,11.306l10.143-2.915l-2.036-11.354L887.778,602.888z"/>
		
			<path id="path5497" inkscape:connector-curvature="0" sodipodi:nodetypes="ccccc" fill="#FFFFFF" stroke="#66318F" stroke-width="2.7453" stroke-linecap="round" stroke-linejoin="round" d="
			M865.212,626.215l2.237,11.144l9.709-3.223l-2.036-11.353L865.212,626.215z"/>
		
			<path id="path5499" inkscape:connector-curvature="0" sodipodi:nodetypes="ccccc" fill="#FFFFFF" stroke="#66318F" stroke-width="2.7453" stroke-linecap="round" stroke-linejoin="round" d="
			M851.937,630.861l2.039,11.541l9.945-3.457l-2.036-11.589L851.937,630.861z"/>
		
			<path id="path5501" inkscape:connector-curvature="0" sodipodi:nodetypes="ccccc" fill="#FFFFFF" stroke="#66318F" stroke-width="2.7453" stroke-linecap="round" stroke-linejoin="round" d="
			M877.49,621.901l2.039,11.541l9.908-3.619l-2.143-11.021L877.49,621.901z"/>
		
			<path id="path5503" inkscape:connector-curvature="0" sodipodi:nodetypes="ccccc" fill="#FFFFFF" stroke="#66318F" stroke-width="2.7453" stroke-linecap="round" stroke-linejoin="round" d="
			M890.101,617.254l2.039,11.542l10.25-3.493l-1.973-11.119L890.101,617.254z"/>
		
			<path id="path5505" inkscape:connector-curvature="0" sodipodi:nodetypes="ccccc" fill="#FFFFFF" stroke="#66318F" stroke-width="2.7453" stroke-linecap="round" stroke-linejoin="round" d="
			M868.393,641.286l2.508,11.072l9.294-2.875l-2.397-11.558L868.393,641.286z"/>
		
			<path id="path5507" inkscape:connector-curvature="0" sodipodi:nodetypes="ccccc" fill="#FFFFFF" stroke="#66318F" stroke-width="2.7453" stroke-linecap="round" stroke-linejoin="round" d="
			M855.191,645.661l2.436,11.342l9.908-3.62l-2.434-10.884L855.191,645.661z"/>
		
			<path id="path5509" inkscape:connector-curvature="0" sodipodi:nodetypes="ccccc" fill="#FFFFFF" stroke="#66318F" stroke-width="2.7453" stroke-linecap="round" stroke-linejoin="round" d="
			M880.743,636.502l2.436,11.542l9.439-2.916l-2.307-11.39L880.743,636.502z"/>
		
			<path id="path5511" inkscape:connector-curvature="0" sodipodi:nodetypes="ccccc" fill="#FFFFFF" stroke="#66318F" stroke-width="2.7453" stroke-linecap="round" stroke-linejoin="round" d="
			M893.553,632.055l2.435,11.739l9.711-3.312l-2.036-11.824L893.553,632.055z"/>
		
			<path id="path5518" inkscape:connector-curvature="0" sodipodi:nodetypes="ccccc" fill="#FFFFFF" stroke="#66318F" stroke-width="2.7453" stroke-linecap="round" stroke-linejoin="round" d="
			M884.062,651.104l2.905,12.245l9.673-3.385l-3.065-12.095L884.062,651.104z"/>
		
			<path id="path5520" inkscape:connector-curvature="0" sodipodi:nodetypes="ccccc" fill="#FFFFFF" stroke="#66318F" stroke-width="2.7453" stroke-linecap="round" stroke-linejoin="round" d="
			M897.069,646.458l2.509,11.776l10.07-3.259l-2.632-11.606L897.069,646.458z"/>
		
			<path id="path5522" inkscape:connector-curvature="0" sodipodi:nodetypes="ccccc" fill="#FFFFFF" stroke="#66318F" stroke-width="2.7453" stroke-linecap="round" stroke-linejoin="round" d="
			M904.237,613.139l1.84,11.342l10.143-2.915l-1.837-11.553L904.237,613.139z"/>
		
			<path id="path5524" inkscape:connector-curvature="0" sodipodi:nodetypes="ccccc" fill="#FFFFFF" stroke="#66318F" stroke-width="2.7453" stroke-linecap="round" stroke-linejoin="round" d="
			M907.357,628.206l2.039,11.144l9.908-3.222l-1.987-11.023L907.357,628.206z"/>
		
			<path id="path5526" inkscape:connector-curvature="0" sodipodi:nodetypes="ccccc" fill="#FFFFFF" stroke="#66318F" stroke-width="2.7453" stroke-linecap="round" stroke-linejoin="round" d="
			M910.486,642.315l2.86,11.485l9.002-3.5l-2.433-10.885L910.486,642.315z"/>
		
			<path id="path5528" inkscape:connector-curvature="0" sodipodi:nodetypes="ccccc" fill="#FFFFFF" stroke="#66318F" stroke-width="2.7453" stroke-linecap="round" stroke-linejoin="round" d="
			M923.069,637.641l2.407,11.228l9.014-3.214l-2.199-11.156L923.069,637.641z"/>
		
			<path id="path5530" inkscape:connector-curvature="0" sodipodi:nodetypes="ccccc" fill="#FFFFFF" stroke="#66318F" stroke-width="2.7453" stroke-linecap="round" stroke-linejoin="round" d="
			M920.631,623.56l1.84,11.145l9.565-3.139l-1.964-10.734L920.631,623.56z"/>
		
			<path id="path5532" inkscape:connector-curvature="0" sodipodi:nodetypes="ccccc" fill="#FFFFFF" stroke="#66318F" stroke-width="2.7453" stroke-linecap="round" stroke-linejoin="round" d="
			M917.645,608.958l2.038,11.541l9.909-3.15l-1.802-11.317L917.645,608.958z"/>
		
			<path id="path5534" inkscape:connector-curvature="0" sodipodi:nodetypes="ccccc" fill="#FFFFFF" stroke="#66318F" stroke-width="2.7453" stroke-linecap="round" stroke-linejoin="round" d="
			M872.048,655.815l2.779,12.318l8.969-3.62l-2.74-11.824L872.048,655.815z"/>
		
			<path id="path5555" inkscape:connector-curvature="0" sodipodi:nodetypes="ccccc" fill="#FFFFFF" stroke="#66318F" stroke-width="2.7453" stroke-linecap="round" stroke-linejoin="round" d="
			M830.208,606.06l-10.142,76.065l11.591-3.622c0,0,14.971,24.872,16.42,27.287L830.208,606.06z"/>
		
			<path id="path5557" inkscape:connector-curvature="0" sodipodi:nodetypes="cc" fill="#FFFFFF" stroke="#66318F" stroke-width="2.7453" stroke-linecap="round" stroke-linejoin="round" d="
			M842.393,673.095l-10.736,5.408"/>
	</g>
</g>
<g>
	<g>
		<path opacity="0.8" fill="#662F90" d="M805.945,540.872c0,6.498-5.312,11.766-11.865,11.766H642.81
			c-6.553,0-11.865-5.268-11.865-11.766V314.403c0-6.498,5.312-11.766,11.865-11.766h151.27c6.553,0,11.865,5.268,11.865,11.766
			V540.872z"/>
	</g>
</g>
<g opacity="0.4">
	<path fill="#FFFFFF" d="M660.14,215.817c5.528-10.13,10.792-19.055,12.285-42.26h17.82c1.494,23.205,6.63,31.827,12.233,42.26
		H660.14z"/>
	<circle fill="#FFFFFF" cx="681.033" cy="116.461" r="9.121"/>
	<path fill="#FFFFFF" d="M654.111,251.966c0,0,0.127-2.19,0.538-3.235c0.408-1.047,1.821-2.21,1.821-2.21h50.759
		c0,0,1.405,1.026,1.879,2.134c0.475,1.106,0.482,3.312,0.482,3.312H654.111z"/>
	<path fill="#FFFFFF" d="M656.792,245.762c-2.237-2.864-3.534-6.324-3.26-10.647c0.28-4.448,2.739-9.32,5.283-13.064h45.559
		c2.205,3.403,5.476,7.821,5.795,12.212c0.319,4.392-1.022,8.636-3.26,11.5H656.792z"/>
	<path fill="#FFFFFF" d="M657.005,218.812c0.427-1.704,1.99-2.077,2.544-2.077c0.412,0,14.536,0,20.896,0c0,0,1.503,0,3.729,0
		c6.358,0,18.666,0,19.077,0c0.555,0,2.118,0.373,2.543,2.077c0.37,1.363-1.051,2.457-1.635,2.48c-0.347,0.004-15.491,0.002-21.85,0
		c-6.361,0.002-23.321,0.004-23.668,0C658.057,221.269,656.637,220.175,657.005,218.812z"/>
	<path fill="#FFFFFF" d="M658.482,128.808c1.591-2.272,3.977-2.216,5-1.932c1.023,0.284,3.011,1.932,5.34,1.932
		c2.022,0,3.977-0.852,5.603-1.91c0.228-0.186,0.448-0.359,0.659-0.516l0.046,0.033l0.053-0.039
		c0.116,0.085,0.229,0.194,0.341,0.317c1.672,1.175,3.685,2.342,5.823,2.342c2.346,0,4.492-1.373,6.251-2.659
		c1.759,1.286,4.016,2.432,6.361,2.432c2.329,0,4.317-1.647,5.34-1.932c1.023-0.284,3.408-0.341,4.999,1.932
		c2.205,3.148-0.054,5.769-1.705,6.932c-5.149,3.622-11.706,15.31-10.872,28.371c2.812,0,5.117,0,5.263,0
		c0.387,0,3.381,1.181,3.679,4.463c0.257,2.627-2.637,4.27-3.046,4.315c-0.24,0.005-10.82,0.003-15.262,0
		c-4.444,0.003-16.292,0.005-16.533,0c-0.408-0.046-3.137-1.462-2.88-4.088c0.299-3.283,3.126-4.69,3.514-4.69
		c0.125,0,2.086,0,4.621,0l-0.014-0.098c0.795-13.022-5.738-24.662-10.875-28.273C658.537,134.576,656.277,131.956,658.482,128.808z
		"/>
	<path fill="#FFFFFF" d="M729.246,251.945c0,0,0.13-2.238,0.538-3.305c0.409-1.067,1.823-2.258,1.823-2.258h48.939
		c0,0,1.405,1.049,1.88,2.181c0.474,1.13,0.48,3.382,0.48,3.382H729.246z"/>
	<path fill="#FFFFFF" d="M731.928,245.608c-2.236-2.927-3.533-6.459-3.26-10.877c0.281-4.543,2.74-9.52,5.283-13.345h43.741
		c2.204,3.478,5.476,7.991,5.794,12.477c0.32,4.484-1.023,8.818-3.26,11.745H731.928z"/>
	<path fill="#FFFFFF" d="M732.143,218.079c0.426-1.741,1.988-2.12,2.545-2.12c0.41,0,12.717,0,19.074,0c0,0,1.505,0,3.73,0
		c6.36,0,18.666,0,19.076,0c0.557,0,2.117,0.379,2.545,2.12c0.368,1.393-1.051,2.511-1.635,2.534
		c-0.346,0.004-15.49,0.001-21.852,0.001c-6.358,0-21.504,0.003-21.85-0.001C733.193,220.59,731.773,219.472,732.143,218.079z"/>
	<path fill="#FFFFFF" d="M735.144,215.267c5.458-12.464,10.659-19.324,12.134-42.856h17.6c1.474,23.532,5.883,30.393,11.34,42.856
		H735.144z"/>
	<path fill-rule="evenodd" clip-rule="evenodd" fill="#FFFFFF" d="M748.324,101.248c2.068,2.116,4.516,3.039,5.464,2.062
		c0.948-0.971,0.048-3.468-2.016-5.576c-0.282-0.296-0.572-0.553-0.868-0.797c1.403-0.831,3.025-1.304,4.758-1.304
		c1.729,0,3.353,0.476,4.753,1.304c-0.338,0.263-0.667,0.567-0.987,0.895c-2.062,2.115-2.969,4.612-2.016,5.583
		c0.951,0.97,3.395,0.043,5.459-2.06c0.339-0.349,0.645-0.697,0.916-1.056c0.869,1.468,1.376,3.199,1.376,5.048
		c0,1.763-0.462,3.436-1.272,4.858c-0.262-0.321-0.539-0.648-0.853-0.963c-2.062-2.109-4.505-3.032-5.462-2.06
		c-0.947,0.976-0.047,3.476,2.021,5.583c0.315,0.32,0.653,0.622,0.979,0.887c-1.433,0.893-3.118,1.402-4.913,1.402
		c-1.774-0.003-3.436-0.496-4.859-1.359c0.355-0.281,0.703-0.587,1.041-0.938c2.063-2.108,2.967-4.604,2.016-5.575
		c-0.951-0.979-3.395-0.05-5.461,2.06c-0.34,0.342-0.646,0.697-0.918,1.06c-0.842-1.452-1.329-3.148-1.329-4.961
		c0-1.831,0.497-3.547,1.366-5.009C747.756,100.636,748.029,100.953,748.324,101.248z"/>
	<path fill="#FFFFFF" d="M733.488,128.753c0-4.531,3.597-8.205,8.031-8.205c1.281,0,3.273,0.003,4.558,0.003c0,0,0-1.462,0-2.015
		c0-1.297,1.03-2.351,2.3-2.351c2.06,0,12.902,0,15.395,0c1.271,0,2.3,1.054,2.3,2.351c0,0.553,0,2.015,0,2.015
		c1.286,0,3.278-0.003,4.56-0.003c4.435,0,8.031,3.674,8.031,8.205c0,1.985-0.879,4.002-1.842,5.559
		c-1.338,2.165-9.978,15.064-9.978,15.064l0.792,13.992c1.375,0,2.334,0,2.422,0c0.355,0,3.104,1.106,3.377,4.184
		c0.236,2.464-2.421,4.002-2.797,4.047c-0.22,0.005-9.93,0.001-14.007,0.001c-4.078,0-14.955,0.004-15.177-0.001
		c-0.375-0.045-2.879-1.372-2.641-3.833c0.273-3.078,2.868-4.397,3.223-4.397c0.084,0,1.062,0,2.48,0l0.684-14.34
		c0,0-8.531-12.552-9.87-14.717C734.367,132.755,733.488,130.738,733.488,128.753z"/>
</g>
<g>
	<g>
		<path opacity="0.8" fill="#662F90" d="M805.945,270.872c0,6.498-5.312,11.766-11.865,11.766H642.81
			c-6.553,0-11.865-5.268-11.865-11.766V44.403c0-6.498,5.312-11.766,11.865-11.766h151.27c6.553,0,11.865,5.268,11.865,11.766
			V270.872z"/>
	</g>
</g>
<text transform="matrix(1 0 0 1 45.9453 576.6377)" font-family="'TrebuchetMS-Bold'" font-size="12">Copyright 2013  Stichting Entreprenasium </text>
</svg>
