<?xml version="1.0" encoding="utf-8"?>
<!-- Generator: Adobe Illustrator 16.0.0, SVG Export Plug-In . SVG Version: 6.00 Build 0)  -->
<!DOCTYPE svg PUBLIC "-//W3C//DTD SVG 1.1//EN" "http://www.w3.org/Graphics/SVG/1.1/DTD/svg11.dtd">
<svg version="1.1" id="Layer_1" xmlns="http://www.w3.org/2000/svg" xmlns:xlink="http://www.w3.org/1999/xlink" x="0px" y="0px"
	 width="226.52px" height="240.301px" viewBox="0 0 226.52 240.301" enable-background="new 0 0 226.52 240.301"
	 xml:space="preserve">
<g opacity="0.6">
	<g>
		<radialGradient id="SVGID_1_" cx="44.2642" cy="146.3257" r="54.4416" gradientUnits="userSpaceOnUse">
			<stop  offset="0.001" style="stop-color:#FCCCAD"/>
			<stop  offset="1" style="stop-color:#F5854A"/>
		</radialGradient>
		<path fill="url(#SVGID_1_)" d="M85.066,95.109c2.073-2.624,5.247-5.555,2.204-8.673c-3.007-3.082-6.238-4.637-9.37-1
			c-4.075,4.733-7.804,9.812-11.668,14.718c-2.833,3.596-7.163,12.652-12.477,12.552c-6.25-0.119-12.503-0.131-18.753,0.005
			c-4.854,0.106-8.044-6.757-10.599-10.009c-4.04-5.142-8.107-10.262-12.184-15.375c-2.966-3.719-10.198-6.691-12.08,0.247
			c-1.009,3.721,3.653,7.808,5.633,10.328c3.578,4.553,7.16,9.102,10.764,13.634c2.66,3.344,6.243,6.664,8.104,10.511
			c2.66,5.5,0.661,14.531,0.201,20.399c-1.009,12.875-2.87,25.664-4.107,38.516c-0.617,6.403-1.079,12.825-1.198,19.258
			c-0.146,7.904,0.113,8.748,7.768,8.788c5.732,1.607,5.309-3.263,5.965-7.534c1.133-7.362,1.979-14.967,4.461-22.029
			c1.012-2.879,2.573-4.628,4.247-7.068c2.345-3.419,2.66-1.148,4.565,2.159c5.011,8.701,6.433,18.956,7.788,28.742
			c0.293,4.011-0.36,5.999,3.908,5.761c2.105,0.012,6.815,0.97,8.493-0.737c1.851-1.882,0.809-8.032,0.764-10.247
			c-0.152-7.457-0.812-14.894-1.637-22.303c-1.418-12.737-3.335-25.43-4.066-38.235c-0.267-4.669-1.622-11.083,1.583-15.056
			c4.649-5.763,9.243-11.571,13.828-17.385C79.825,101.754,82.443,98.429,85.066,95.109C88.999,90.133,77.852,104.239,85.066,95.109
			z"/>
		<radialGradient id="SVGID_2_" cx="43.7959" cy="89.7231" r="19.0293" gradientUnits="userSpaceOnUse">
			<stop  offset="0.001" style="stop-color:#FCCCAD"/>
			<stop  offset="1" style="stop-color:#F5854A"/>
		</radialGradient>
		<path fill="url(#SVGID_2_)" d="M43.796,107.696c9.869,0.028,19.964-5.177,20.021-16.18c0.056-10.728-9.344-19.751-19.969-19.775
			c-10.705-0.024-20.042,8.724-20.074,19.553C23.74,102.41,33.83,107.668,43.796,107.696
			C54.815,107.727,32.742,107.666,43.796,107.696z"/>
	</g>
</g>
<g>
	<g>
		<radialGradient id="SVGID_3_" cx="92.228" cy="139.8057" r="72.5894" gradientUnits="userSpaceOnUse">
			<stop  offset="0" style="stop-color:#CBDABE"/>
			<stop  offset="1" style="stop-color:#8BB575"/>
		</radialGradient>
		<path fill="url(#SVGID_3_)" d="M146.631,71.518c2.764-3.498,6.995-7.407,2.938-11.563c-4.01-4.109-8.317-6.184-12.493-1.334
			c-5.433,6.311-10.406,13.084-15.558,19.625c-3.777,4.795-9.551,16.869-16.635,16.735c-8.333-0.158-16.671-0.175-25.004,0.007
			c-6.472,0.141-10.726-9.01-14.131-13.346c-5.386-6.856-10.81-13.683-16.245-20.5c-3.954-4.959-13.597-8.921-16.106,0.329
			c-1.346,4.961,4.871,10.41,7.511,13.771c4.77,6.07,9.547,12.135,14.351,18.178c3.547,4.459,8.325,8.886,10.806,14.015
			c3.547,7.333,0.881,19.375,0.268,27.199c-1.346,17.167-3.826,34.218-5.477,51.355c-0.822,8.538-1.439,17.1-1.598,25.678
			c-0.195,10.539,0.151,11.664,10.357,11.716c7.643,2.144,7.078-4.351,7.954-10.044c1.511-9.816,2.638-19.956,5.948-29.372
			c1.35-3.839,3.43-6.171,5.662-9.425c3.127-4.559,3.547-1.531,6.087,2.879c6.681,11.601,8.577,25.274,10.384,38.322
			c0.391,5.348-0.48,7.998,5.211,7.681c2.807,0.016,9.087,1.293,11.324-0.982c2.467-2.509,1.079-10.709,1.019-13.662
			c-0.203-9.943-1.083-19.858-2.183-29.738c-1.891-16.983-4.447-33.907-5.422-50.98c-0.355-6.226-2.163-14.776,2.111-20.074
			c6.199-7.684,12.324-15.428,18.438-23.18C139.643,80.377,143.133,75.944,146.631,71.518
			C151.875,64.882,137.011,83.69,146.631,71.518z"/>
		<radialGradient id="SVGID_4_" cx="91.604" cy="64.3359" r="25.3722" gradientUnits="userSpaceOnUse">
			<stop  offset="0" style="stop-color:#CDDBC0"/>
			<stop  offset="1" style="stop-color:#8BB575"/>
		</radialGradient>
		<path fill="url(#SVGID_4_)" d="M91.604,88.3c13.158,0.037,26.62-6.902,26.696-21.572c0.075-14.303-12.459-26.335-26.626-26.367
			C77.4,40.327,64.952,51.991,64.908,66.431C64.863,81.252,78.316,88.263,91.604,88.3C106.296,88.341,76.865,88.259,91.604,88.3z"/>
	</g>
</g>
<g>
	<g>
		<radialGradient id="SVGID_5_" cx="150.2466" cy="132.8066" r="90.737" gradientUnits="userSpaceOnUse">
			<stop  offset="0" style="stop-color:#8A68AB"/>
			<stop  offset="1" style="stop-color:#662F90"/>
		</radialGradient>
		<path fill="url(#SVGID_5_)" stroke="#662F90" stroke-width="5" stroke-miterlimit="10" d="M218.251,47.447
			c3.455-4.372,8.744-9.258,3.673-14.455c-5.012-5.136-10.396-7.729-15.616-1.667c-6.791,7.888-13.007,16.354-19.448,24.531
			c-4.721,5.994-11.938,21.087-20.794,20.919c-10.417-0.198-20.838-0.218-31.255,0.008c-8.09,0.176-13.407-11.262-17.664-16.682
			c-6.733-8.57-13.512-17.104-20.307-25.625c-4.942-6.198-16.996-11.151-20.132,0.411c-1.682,6.202,6.089,13.013,9.389,17.213
			c5.962,7.588,11.934,15.169,17.939,22.723c4.434,5.574,10.406,11.107,13.507,17.518c4.434,9.167,1.101,24.219,0.334,33.999
			c-1.682,21.459-4.782,42.772-6.845,64.194c-1.028,10.672-1.799,21.375-1.997,32.097c-0.244,13.173,0.188,14.58,12.946,14.646
			c9.553,2.68,8.848-5.438,9.943-12.556c1.888-12.271,3.297-24.945,7.435-36.715c1.687-4.799,4.288-7.713,7.078-11.781
			c3.909-5.699,4.434-1.914,7.609,3.599c8.352,14.501,10.721,31.593,12.98,47.903c0.488,6.685-0.6,9.998,6.513,9.602
			c3.508,0.02,11.359,1.616,14.156-1.228c3.084-3.136,1.348-13.386,1.273-17.078c-0.253-12.429-1.353-24.823-2.728-37.172
			c-2.364-21.229-5.559-42.384-6.778-63.725c-0.444-7.782-2.703-18.471,2.639-25.093c7.749-9.605,15.405-19.285,23.047-28.975
			C209.516,58.521,213.878,52.98,218.251,47.447C224.805,39.152,206.226,62.663,218.251,47.447z"/>
		<radialGradient id="SVGID_6_" cx="150.4663" cy="32.4702" r="31.7155" gradientUnits="userSpaceOnUse">
			<stop  offset="0" style="stop-color:#8A68AB"/>
			<stop  offset="1" style="stop-color:#662F90"/>
		</radialGradient>
		<path fill="url(#SVGID_6_)" stroke="#662F90" stroke-width="5" stroke-miterlimit="10" d="M150.466,62.425
			c16.448,0.046,33.274-8.628,33.37-26.966C183.929,17.58,168.262,2.54,150.554,2.5c-17.842-0.041-33.402,14.539-33.457,32.589
			C117.04,53.615,133.856,62.379,150.466,62.425C168.833,62.477,132.042,62.374,150.466,62.425z"/>
	</g>
</g>
</svg>
