<?xml version="1.0" encoding="utf-8"?>
<!-- Generator: Adobe Illustrator 16.0.0, SVG Export Plug-In . SVG Version: 6.00 Build 0)  -->
<!DOCTYPE svg PUBLIC "-//W3C//DTD SVG 1.1//EN" "http://www.w3.org/Graphics/SVG/1.1/DTD/svg11.dtd">
<svg version="1.1" id="Layer_1" xmlns="http://www.w3.org/2000/svg" xmlns:xlink="http://www.w3.org/1999/xlink" x="0px" y="0px"
	 width="256px" height="256px" viewBox="0 0 256 256" enable-background="new 0 0 256 256" xml:space="preserve">
<g id="Arrow_11">
</g>
<g>
	<path fill-rule="evenodd" clip-rule="evenodd" fill="#662F90" d="M126.06,5.888c8.754-3.268,19.459-2.732,28.905-1.393
		c11.649,1.554,22.167,6.914,30.668,14.309v65.329c-4.282,1.77-8.88,2.946-13.916,3.056l-0.126,0.16
		c4.659,1.232,9.382,2.681,14.042,3.857v52.092c-1.26-1.715-2.33-3.535-3.904-5.199c1.134,3.324,2.142,6.595,2.771,10.075
		c-0.062,1.021-0.126,2.093-0.818,2.896c0.252,0.963,0.566,1.93,0.882,2.893c0.315-0.534,0.692-1.071,1.07-1.606v44.373
		c-0.504-2.786-1.07-5.52-1.637-8.251l-0.252-0.429c-0.189,1.501-0.441,3-0.567,4.556c0.44,3.001,1.511,5.839,2.456,8.681v15.702
		c-0.063,0.054-0.126,0.16-0.252,0.214c0.062,0.109,0.188,0.27,0.252,0.43v19.562c-3.149,3.16-7.053,6.056-11.083,7.876
		c-7.116,3.002-15.114,4.287-23.3,4.825c-7.116,0-15.554,0.105-21.852-2.896c-3.589-1.715-4.597-5.196-4.597-8.521
		c0.441-7.558,3.274-15.757,12.154-18.863c0.315-1.556,0.315-3.216,1.007-4.717c1.826-3.324,2.393-7.182,2.52-11.095
		c-2.834-5.251-4.912-10.823-5.667-16.826c-0.441-0.857-0.568-1.983-1.764-2.412c-7.242,3.055-11.65,8.948-16.625,14.042
		c-4.282,4.447-10.139,9.055-17.002,10.396c-2.457,0.322-4.598-0.644-6.549-1.716c-3.715,5.737-7.62,12.756-15.491,15.435
		c-2.707,0.912-6.172,0.538-8.376-0.963c-6.173-3.912-10.643-9.058-14.421-14.417c-6.17-8.948-12.214-17.951-15.933-27.761
		c-1.067-4.127-2.519-9.378,0-13.396c3.402-3.913,8.816-5.039,13.981-6.002c10.768-2.307,19.711,3.216,25.692,10.234l0.316,0.105
		c3.462-1.551,7.115-3.375,9.823-5.893c0.693-3.484,3.149-6.38,5.353-9.382l-0.126-0.104c-3.022,0.104-5.919-1.019-7.241-3.11
		c-1.952-4.661-0.945-10.395-0.063-15.219c0.378-1.178-1.7-1.178-2.015-1.981c-0.441-0.751-0.567-1.715-0.315-2.575
		c1.511-2.304,4.408-2.678,6.864-3.642c0.818-0.269,1.763-0.323,2.519-0.696c-0.441-0.645-0.567-1.394-0.945-2.092
		c-1.952,0-3.778-0.269-5.604-0.482c-7.369-0.804-14.358-5.465-17.001-11.521c-3.591-6.271-2.834-14.361-1.827-21.49
		c-2.647-0.482-5.605-0.591-8.312-0.967L22.344,87.24c-5.225-0.59-9.951-1.018-15.241-1.553c-0.44-0.214-0.691-0.482-0.88-0.857
		c-0.251-3.109-0.755-6.164-0.819-9.271l3.714-4.073L22.28,57.338c0.188-0.483,0.884-0.483,1.387-0.483
		c16.437,3.912,32.81,8.091,49.246,11.951c0.944,0,2.203,1.18,2.771,0c4.342-2.036,10.452-3.377,15.238-1.233
		c1.637-0.214,3.274-0.106,4.848,0.109c-0.188-0.646-0.441-1.181-0.692-1.77c-3.022-1.715-5.73-4.396-6.36-7.45
		c-0.757-3.966,1.133-7.502,4.723-9.861c0.378-2.679,0.944-5.305,1.763-7.823c-3.337-1.662-7.934-3.378-8.626-7.074
		c-0.504-1.929,0.567-3.429,1.826-4.824c3.967-3.536,9.509-3.805,14.735-4.822c4.157-6.807,11.462-13.504,19.711-16.613l0.378-1.395
		C123.982,5.406,125.053,5.888,126.06,5.888L126.06,5.888z M185.633,237.192v-19.562c2.96,4.824,6.423,10.827,2.896,16.346
		C187.647,235.049,186.703,236.12,185.633,237.192L185.633,237.192z M185.633,216.987v-15.702c0.504,1.499,1.008,3.055,1.322,4.61
		C187.585,209.379,189.601,214.415,185.633,216.987L185.633,216.987z M185.633,196.729c1.259,6.165,2.455,12.382,3.526,18.653
		c1.07,1.337,2.582,2.034,4.219,2.517v-54.985c-0.062,0-0.126,0-0.188,0c-1.511,0.16-3.212,0.698-3.905,2.09
		c-0.44,0.214-1.259,0.214-1.762,0.108l0.377-1.608c0.505-1.661,1.008-3.43,2.142-4.877c1.007,0.43,2.141,0.909,3.337,0.909V93.458
		c-1.699-0.481-3.4-0.965-5.037-1.448c-0.253-0.105-0.441-0.319-0.441-0.589v0.321c-0.755-0.161-1.511-0.321-2.267-0.536v52.092
		c0.062,0.108,0.126,0.16,0.188,0.214c1.196,1.341,1.512,3.271,3.779,3.539l-0.063,1.393c-1.449,1.071-2.771,2.466-3.904,3.912
		V196.729L185.633,196.729z M185.633,84.133V18.804c1.259,1.071,2.455,2.198,3.589,3.324c1.512,1.768,2.897,3.59,4.156,5.519v52.787
		c-1.008,0.055-2.015,0.055-2.33,1.072C189.284,82.472,187.522,83.383,185.633,84.133L185.633,84.133z M193.378,217.898v-54.985
		c1.638-0.054,3.15,0.215,4.221,1.287c0.44-0.482,1.007-0.752,1.572-1.072c-1.825-1.018-3.273-2.252-4.281-3.858
		c-0.441,0.215-1.007,0.319-1.512,0.266V93.458c4.095,1.126,8.25,2.25,12.47,3.322l0.944,0.751l1.701,8.735
		c0.062,0.589,0.314,1.393-0.063,1.929c-3.022,0.965-5.982,2.09-8.942,3.323l-0.063,0.215c4.535,4.233,9.132,8.79,12.847,13.666
		v35.103c-1.574,0.912-3.526,1.445-5.416,0.697c-0.692,0.588-1.385,1.341-2.329,1.769c-0.378,0.052-0.566,0.375-0.945,0.48
		c0.693,1.021,1.952,0.163,2.96,0.27c1.26-0.805,2.771-1.393,4.534-1.127c0.44-0.051,0.819,0.109,1.196,0.322v56.97
		c-4.03,0.052-8.123-0.214-12.028-0.698C198.039,218.648,195.583,218.488,193.378,217.898L193.378,217.898z M193.378,80.434V27.646
		c5.793,8.844,8.564,19.238,5.731,29.851c-0.126,0.913-0.819,1.716-0.755,2.573c1.069,1.178,2.518,2.357,2.896,3.857
		c1.763,2.144,2.394,4.823,1.953,7.611c-0.567,3.859-4.22,7.608-8.755,8.628C194.134,80.328,193.757,80.382,193.378,80.434
		L193.378,80.434z M212.271,219.883v-56.97c0.63,0.375,1.196,0.858,1.89,0.698c1.574-0.429,3.526-0.269,5.226-0.538
		c0.63-1.554,1.196-3.32,1.576-5.035c-1.765,1.605-4.851,2.358-7.495,1.715c-0.377,0.266-0.756,0.534-1.196,0.749v-35.103
		c0.819,1.126,1.637,2.196,2.393,3.268c0.567,0.538,0.693,1.823,1.952,1.501c3.086,0,6.172,0.966,7.432,3.376h0.314
		c1.512-1.232,3.967-1.123,5.855-0.645c0.567,0.164,1.197,0.378,1.828,0.484v15.862c-0.062,0.323-0.062,0.643,0,0.911v7.771
		c-0.379-0.588-0.756-1.126-1.197-1.714c-0.505,2.303-1.007,4.715-1.386,7.073c0.819,0.16,1.701,0.27,2.583,0.323v52.519
		c-1.008,0.589-2.143,1.126-3.148,1.501C223.794,219.131,218.064,219.829,212.271,219.883L212.271,219.883z M232.045,216.13v-52.519
		c0.881,0.052,1.763,0.052,2.519,0.106c-0.314-2.09-1.323-3.965-2.519-5.789v-7.771l0,0l2.456,2.304
		c3.651,3.858,6.423,8.309,6.737,13.346c0.566,0.591,1.008,1.34,1.26,2.038c0.565,2.677-0.505,5.304-3.338,6.645
		c-0.882,6.699-1.448,13.56-2.016,20.364l-0.125,0.109l-1.512,16.343C235.508,213.344,233.934,214.952,232.045,216.13
		L232.045,216.13z M232.045,149.246c0-0.535,0.126-1.018,0.439-1.446c1.638,0.16,3.087-0.374,4.535-0.963
		c1.133,0.214,1.196,1.392,1.889,2.089c0.692,1.661,2.645,2.412,4.534,2.627c3.589,0.588,6.612-1.235,8.312-3.539
		c1.26-1.769,1.827-4.342,0.756-6.321c-1.322-2.573-4.658-2.841-7.367-3.699c-1.574-0.374-3.085,0.215-4.346,0.964
		c-1.637,0.107-1.637-1.606-2.455-2.412c-1.197-2.141-3.841-2.57-6.297-3.161V149.246L232.045,149.246z"/>
	<path fill-rule="evenodd" clip-rule="evenodd" fill="#5CA047" d="M130.783,6.211c2.646,0.267,6.045,0.481,8.754,0.643
		c3.274,1.072,6.549,2.358,9.949,3.321c0.189,0.216,0.441,0.429,0.315,0.805c-6.549,4.288-9.823,10.344-12.154,16.398
		c19.396,5.573,37.029,14.846,53.024,26.421l5.982,4.611c1.637-3.002,1.512-6.808,1.386-10.399
		c-0.819-9.592-4.85-17.951-11.462-25.454c-10.201-9.809-23.93-16.4-39.61-16.936C141.11,5.354,136.641,5.354,130.783,6.211
		L130.783,6.211z"/>
	<path fill-rule="evenodd" clip-rule="evenodd" fill="#5CA047" d="M124.044,7.926l-2.33,16.399c1.134,0.375,2.52,0.428,3.716,0.643
		c3.715,0.481,7.179,1.286,10.768,1.982c1.324-6.163,2.331-12.486,3.275-18.756c-5.227-0.591-9.887-0.911-15.176-1.126
		L124.044,7.926L124.044,7.926z"/>
	<path fill-rule="evenodd" clip-rule="evenodd" fill="#C9E3B2" d="M140.669,9.801c-1.007,3.965-1.573,8.091-2.141,12.218
		c2.205-3.966,4.534-7.931,8.879-11.039c-1.952-1.071-4.219-1.714-6.486-2.358L140.669,9.801L140.669,9.801z"/>
	<path fill-rule="evenodd" clip-rule="evenodd" fill="#5CA047" d="M105.72,23.844c4.787-0.109,9.824-0.163,14.61,0.428l0.188-0.323
		l1.953-14.094C115.544,12.642,109.121,18.001,105.72,23.844L105.72,23.844z"/>
	<path fill-rule="evenodd" clip-rule="evenodd" fill="#C9E3B2" d="M90.922,29.04c-1.386,0.805-2.582,1.982-2.834,3.43
		c-0.127,3.645,4.471,5.574,7.746,6.7c1.196-1.126,1.7-2.734,3.212-3.484c7.43-4.502,17.885-3.216,26.26-3.322
		c19.899,1.285,37.343,7.611,53.842,15.811c-12.846-8.843-27.519-15.437-42.948-19.67c-6.107-1.554-12.594-2.626-19.08-3.055
		C107.735,25.396,98.729,25.61,90.922,29.04L90.922,29.04z"/>
	<path fill-rule="evenodd" clip-rule="evenodd" fill="#F4A382" d="M99.107,37.616c-0.692,0.643-0.755,1.554-1.259,2.304
		c-3.589,10.234-3.4,23.635,3.337,32.53c6.109,9.003,17.129,15.271,29.283,17.042c8.375,1.874,17.633,0.75,25.945-0.375
		c10.327-1.714,19.522-6.754,26.827-13.022c0.188-0.269,0.188-0.644,0.63-0.751c2.014,0.964,3.212,2.465,5.352,3.322
		c2.457,0.857,5.416,0.269,7.432-1.071c3.212-2.144,5.102-5.681,4.472-9.432c-0.378-2.627-3.086-4.448-5.795-5.093
		c-3.715-0.535-7.997-0.214-10.012,2.788c-0.314,0.373-0.44,0.803-1.008,0.964c-1.322,0-2.393-0.805-3.589-1.448
		c-0.945-0.963,0.565-1.874,0.818-2.839c1.511-3.107,2.015-6.538,2.141-10.128c-18.954-10.344-39.61-18.437-63.414-18.759
		C112.836,33.809,104.964,33.542,99.107,37.616L99.107,37.616z"/>
	<path fill-rule="evenodd" clip-rule="evenodd" d="M107.798,44.207c-1.7,1.821-1.952,4.823-1.008,7.02
		c0.252,0.483,0.694,0.911,1.323,1.071c1.008,0.109,1.512-0.533,2.015-1.124c1.196-2.144,1.89-5.307-0.062-7.235
		C109.372,43.51,108.365,43.778,107.798,44.207L107.798,44.207z"/>
	<path fill-rule="evenodd" clip-rule="evenodd" d="M125.368,46.725c-4.03,4.287-9.697,9.433-6.423,15.543
		c1.827,2.678,5.416,4.287,9.194,3.912c2.582-0.321,5.416-1.769,6.235-3.912c-0.189-0.161-0.379,0-0.504,0.055
		c-2.205,1.875-5.228,3.536-8.817,2.785c-2.645-0.805-5.353-2.358-5.919-4.877c-0.882-5.359,3.904-8.789,6.675-12.915
		c0.126-0.696,0.881-1.233,0.692-1.983C125.809,45.547,125.935,46.297,125.368,46.725L125.368,46.725z"/>
	<path fill-rule="evenodd" clip-rule="evenodd" d="M154.146,50.264c-0.881,1.82-1.133,4.393-0.063,6.216
		c0.315,0.375,0.882,0.804,1.512,0.644c2.456-1.286,2.896-3.858,2.645-6.271c-0.252-0.858-0.63-1.77-1.512-2.197
		C155.406,48.601,154.776,49.406,154.146,50.264L154.146,50.264z"/>
	<path fill-rule="evenodd" clip-rule="evenodd" fill="#FFFFFF" d="M90.669,55.837c-0.378,2.678,1.386,4.93,3.212,6.485
		c-0.567-3.431-0.882-7.075-0.819-10.827C91.803,52.622,90.795,54.175,90.669,55.837L90.669,55.837z"/>
	<path fill-rule="evenodd" clip-rule="evenodd" fill="#FFFFFF" d="M185.569,53.585c0.126,2.627-0.818,4.877-1.322,7.288
		c-0.63,1.071-0.818,2.306-1.511,3.377c0.126,0.376,0.629,0.431,1.008,0.591l0.503-0.109c2.204-3.16,6.864-3.965,10.958-3.59
		l2.394,0.588C194.513,58.248,189.789,55.783,185.569,53.585L185.569,53.585z"/>
	<path fill-rule="evenodd" clip-rule="evenodd" fill="#662F90" d="M24.359,58.569c-0.632,3.16-0.82,6.538-0.884,9.86
		c4.282,0.857,8.44,1.876,12.786,2.787l35.264,7.397c15.807,3.215,31.486,6.964,47.419,9.86c0-0.055,0.062-0.108,0.126-0.108V88.26
		c-4.849-1.823-8.753-4.396-12.91-7.396l-21.662-5.305l-12.218-2.947c-0.376-0.537-1.131-0.482-1.575-0.858
		c1.199,0,2.395,0.431,3.526,0.697c10.076,2.091,19.9,4.823,30.102,6.807c-1.511-2.253-4.849-2.253-7.431-3.056
		c-2.959-0.697-5.856-1.608-8.879-2.089l-0.314-0.27l-10.767-2.626L39.6,61.999c-5.102-1.179-10.08-2.465-15.177-3.537
		L24.359,58.569L24.359,58.569z"/>
	<path fill-rule="evenodd" clip-rule="evenodd" fill="#662F90" d="M6.979,75.878c-0.316,2.682,0.439,5.308,0.691,7.934
		c4.722-4.931,9.131-9.862,13.729-14.793c0.504-3.052,0.628-6.217,0.943-9.27l-3.59,3.643L6.979,75.878L6.979,75.878z"/>
	<path fill-rule="evenodd" clip-rule="evenodd" d="M187.963,67.304c0.756,0.269,1.321-0.319,2.078-0.268
		c1.638-0.052,3.401,0.322,4.219,1.503c1.009,1.123,1.009,2.892,0.253,4.178c1.321-0.748,1.574-2.249,1.321-3.698
		c-0.377-1.123-1.007-2.409-2.456-3.001c-1.322-0.159-2.833-0.589-4.094,0.108C188.844,66.501,188.278,66.93,187.963,67.304
		L187.963,67.304z"/>
	<path fill-rule="evenodd" clip-rule="evenodd" fill="#F4A382" d="M77.507,69.771c3.97,1.178,7.937,2.037,11.966,3.001
		c1.008-0.751,2.141-1.823,2.078-3.056c-2.078-2.412-6.423-1.874-9.383-1.341C80.593,68.751,78.958,69.128,77.507,69.771
		L77.507,69.771z"/>
	<path fill-rule="evenodd" clip-rule="evenodd" d="M113.403,68.699c-0.126,1.659,1.259,2.946,1.889,4.394
		c2.142,4.181,6.675,8.039,12.217,8.308c3.274-0.215,6.423-1.181,8.564-3.377c1.638-1.768,3.023-3.645,5.29-4.769
		c0.945-0.644,1.512-1.341,2.141-2.144c0-0.163,0.126-0.323-0.125-0.376l-0.189,0.053c-3.967,3.805-9.825,6.003-16.122,5.307
		c-5.227-0.644-10.895-2.573-13.035-6.86C113.781,69.073,113.844,68.645,113.403,68.699L113.403,68.699z"/>
	<path fill-rule="evenodd" clip-rule="evenodd" fill="#F4A382" d="M93.125,69.073c0.252,0.752,0.567,2.144-0.314,2.786
		c-0.441,0.591-1.133,0.752-1.196,1.448c1.952,0.535,3.967,1.071,6.045,1.501c0.692-0.216,1.26-0.696,1.511-1.287l-2.33-3.751
		C95.833,69.128,94.385,68.913,93.125,69.073L93.125,69.073z"/>
	<path fill-rule="evenodd" clip-rule="evenodd" fill="#662F90" d="M22.784,69.825c-1.827,1.928-3.714,3.857-5.353,5.84
		c8.879,1.93,18.139,3.163,27.015,5.198c-1.195,0.428-2.203-0.105-3.462-0.16l-24.369-4.072h-0.192
		c-2.519,2.571-4.91,5.037-7.241,7.662l0.188,0.108l11.275,1.34l27.58,3.053c18.643,2.039,36.966,4.183,55.983,6.057
		c1.638-0.483,3.276-0.803,4.661-1.555l-3.653-0.694l-21.663-3.646l-0.63-0.429c0.756-0.321,1.827,0,2.772,0.107
		c8.061,1.233,15.995,2.786,24.055,3.912c0.316,0.43,0.757,0,1.072-0.054c1.7-0.697,2.707-2.304,4.534-2.786l0.378-0.32
		l-0.945-0.378l-18.704-3.912l-33.439-7.073l-28.023-5.84C30.72,71.378,26.75,70.573,22.784,69.825L22.784,69.825z"/>
	<path fill-rule="evenodd" clip-rule="evenodd" fill="#FFFFFF" d="M173.921,84.99c3.777-0.215,7.366-1.231,10.704-2.627
		c1.449-0.588,2.96-1.231,4.345-2.035c-1.699-0.59-3.211-1.554-4.156-3.001C181.54,80.274,177.446,82.632,173.921,84.99
		L173.921,84.99z"/>
	<path fill-rule="evenodd" clip-rule="evenodd" fill="#662F90" d="M166.553,88.581c2.833,0.911,4.785,2.465,6.297,4.77v0.323
		c4.912,2.144,9.193,5.035,13.665,7.877c6.928,1.555,13.477,3.804,20.403,5.305c0-1.34-0.504-2.519-0.566-3.75
		c-6.36-1.877-12.785-3.753-19.081-5.574c0.817-0.322,1.573,0.106,2.393,0.16l16.436,4.181c-0.188-1.234-0.503-2.358-0.755-3.591
		l-0.818-0.32l-22.356-6.325c-4.597-1.394-9.257-2.519-13.79-3.859C167.686,87.885,167.057,88.151,166.553,88.581L166.553,88.581z"
		/>
	<path fill-rule="evenodd" clip-rule="evenodd" fill="#F16624" d="M116.048,90.724c-3.526,1.448-4.408,4.931-5.982,7.558
		c-1.701,4.019-3.024,8.093-4.22,12.272c3.652,0,5.667,2.787,7.558,4.716c0.691,1.179,0.503,2.732,0.125,3.967
		c-1.575,1.178-3.589,0.214-5.478,0.16l-2.646-0.323c-0.062,0.807-0.44,1.717,0.064,2.413c2.267,0.59,5.289,1.071,5.982,3.27
		c-0.63,3.591-0.756,7.45-1.26,11.039c0.126,0.43,0.315,0.75,0.819,0.858c0.819,0.268,1.826,0.16,2.644,0.322
		c0.757-1.718,3.15-1.075,4.724-1.285c5.667,0.588,11.461,1.337,17.128,1.766c1.196,0.215,2.016,0.806,2.646,1.555
		c1.7,0.108,3.337,0.644,5.038,0.16c-0.504-4.606-0.189-9.486,0-14.094c0.063-1.876,0.944-3.644,2.896-4.448
		c1.638-0.696,3.715-1.232,5.542-0.643c4.03,1.447,3.715,5.627,3.778,9.004c0.063,3.535,0.063,7.18-0.944,10.449
		c1.889,0.483,3.589-0.269,5.478-0.269l0.504-0.16c-1.701-3.804-1.259-8.843-0.756-13.023c0.377-1.286,0.63-2.839,2.267-3.59
		c0.946-0.428,2.016-0.697,3.086-0.751v-0.16c-1.826-1.77-3.842-3.804-3.401-6.592c0.314-6.913,1.637-13.559,4.787-19.508
		c0.756-1.231,1.826-2.948,3.652-2.84c-1.952-1.609-4.473-2.627-7.179-2.948c-1.765,0.591-3.652,0.912-5.479,1.339
		c-3.589,5.254-5.29,11.256-7.053,17.151l-1.448,6.484c0,0.481-0.63,0.59-0.945,0.751c-5.227,0.588-10.958,0.16-16.437,0.105
		c-5.479-0.105-11.397-0.32-16.435-1.929l-0.126-0.215c1.322-6.912,2.897-13.772,5.731-20.15c0.504-1.285,1.511-2.303,2.078-3.537
		C120.456,88.099,118.252,90.189,116.048,90.724L116.048,90.724z"/>
	<path fill-rule="evenodd" clip-rule="evenodd" fill="#C9E3B2" d="M124.044,90.08c-2.392,3.324-2.959,7.238-4.092,10.987
		c1.889,0.483,3.904,0.805,6.045,1.071c1.259-3.59,1.953-7.502,4.094-10.718v-0.055c-1.89-0.374-3.716-0.91-5.605-1.337
		L124.044,90.08L124.044,90.08z"/>
	<path fill-rule="evenodd" clip-rule="evenodd" fill="#C9E3B2" d="M146.842,92.226c-2.015,3.429-3.275,7.182-4.093,11.094
		c2.33,0.215,4.66,0.43,6.927,0.215c1.26-4.342,3.463-8.414,5.793-12.219C152.635,91.581,149.738,92.01,146.842,92.226
		L146.842,92.226z"/>
	<path fill-rule="evenodd" clip-rule="evenodd" fill="#C9E3B2" d="M130.405,92.172c-1.322,3.215-2.708,6.537-3.337,10.076
		c4.786,0.588,9.634,1.178,14.61,1.071c1.07-3.806,1.952-7.665,4.345-11.041c-5.164,0.323-10.265,0-15.24-0.803L130.405,92.172
		L130.405,92.172z"/>
	<path fill-rule="evenodd" clip-rule="evenodd" fill="#C9E3B2" d="M70.202,92.602c-0.628,1.766,1.259,2.249,2.331,3.268
		c1.323,0.858,2.707,1.554,4.158,2.197l0.188-0.105c-0.064-1.61,0.188-3.056,0.503-4.61C75.052,92.977,72.469,92.814,70.202,92.602
		L70.202,92.602z"/>
	<path fill-rule="evenodd" clip-rule="evenodd" fill="#C9E3B2" d="M77.822,93.725v4.718c1.387,0.856,3.211,1.071,4.786,1.607
		c3.086,0.751,6.865,0.965,10.076,0.43c-0.126-1.716,0.252-3.645,0.189-5.414c-4.975-0.534-9.824-1.178-14.863-1.661L77.822,93.725
		L77.822,93.725z"/>
	<path fill-rule="evenodd" clip-rule="evenodd" fill="#C9E3B2" d="M168.063,95.011c-0.44,0.644-0.693,1.449-0.945,2.253
		c1.009,0.268,1.826,0.912,2.835,0.912c1.385-0.912,2.708-1.556,4.282-2.038c-1.512-0.963-2.96-1.821-4.661-2.413
		C168.881,93.834,168.441,94.531,168.063,95.011L168.063,95.011z"/>
	<path fill-rule="evenodd" clip-rule="evenodd" fill="#C9E3B2" d="M105.531,96.191c-0.062,1.554,1.134,2.894,1.323,4.446
		c1.007-2.195,1.952-4.341,3.212-6.376C108.616,94.905,107.105,95.603,105.531,96.191L105.531,96.191z"/>
	<path fill-rule="evenodd" clip-rule="evenodd" fill="#C9E3B2" d="M93.44,95.175c0.441,1.66,0.378,3.374,0.566,5.09
		c2.52-0.16,4.849-1.286,6.423-2.842v-0.159c-0.251,0-0.314-0.162-0.44-0.323c-0.062-0.427,0.377-0.644,0.504-0.963
		C98.163,95.654,95.896,95.279,93.44,95.175L93.44,95.175z"/>
	<path fill-rule="evenodd" clip-rule="evenodd" fill="#C9E3B2" d="M69.638,95.548c-0.82,6.058-0.504,12.541,2.579,17.738
		c2.079,4.233,6.109,8.04,11.336,9.326c2.709-0.589,5.291-2.198,7.18-4.127c-2.582-1.341-5.352-2.413-7.368-4.662
		c-4.535-3.858-5.666-9.271-6.486-14.631c-2.267-1.126-4.786-2.197-6.865-4.018C69.762,95.12,69.698,95.387,69.638,95.548
		L69.638,95.548z"/>
	<path fill-rule="evenodd" clip-rule="evenodd" fill="#C9E3B2" d="M101.438,97.264c-1.259,3.001-1.259,6.485-2.33,9.592
		l-0.314,1.233c1.952,0.59,3.967-0.162,5.73-0.644c0.881-1.662,1.133-3.537,1.826-5.252c-0.314-1.983-1.195-3.806-1.826-5.733
		C103.579,96.728,102.508,96.995,101.438,97.264L101.438,97.264z"/>
	<path fill-rule="evenodd" clip-rule="evenodd" fill="#C9E3B2" d="M170.896,98.709v0.109c4.031,1.982,7.81,4.661,11.398,7.233
		c0.819-0.159,1.638-0.589,2.519-0.912l2.078-0.643v-0.16c-3.841-2.572-7.492-5.358-11.586-7.557
		C173.604,96.94,172.031,97.8,170.896,98.709L170.896,98.709z"/>
	<path fill-rule="evenodd" clip-rule="evenodd" fill="#C9E3B2" d="M166.867,97.8c-0.629,1.393-0.882,2.947-1.322,4.394
		c1.195-1.286,2.078-2.358,3.463-3.375v-0.164C168.379,98.388,167.623,97.8,166.867,97.8L166.867,97.8z"/>
	<path fill-rule="evenodd" clip-rule="evenodd" fill="#C9E3B2" d="M94.196,101.282c0.252,2.357,1.007,5.144,3.4,6.484
		c1.197-2.894,1.7-5.948,2.393-8.948C98.352,99.995,96.337,100.853,94.196,101.282L94.196,101.282z"/>
	<path fill-rule="evenodd" clip-rule="evenodd" fill="#C9E3B2" d="M164.6,106.106c-0.378,1.177-0.314,2.518-0.629,3.75
		c2.959,1.554,5.415,3.215,7.935,5.198c2.96-3.321,5.227-6.161,9.445-8.414l-0.188-0.32c-3.59-2.571-7.053-5.092-11.083-7.128
		C167.623,101.015,165.356,103.319,164.6,106.106L164.6,106.106z"/>
	<path fill-rule="evenodd" clip-rule="evenodd" fill="#C9E3B2" d="M78.139,99.781c0,2.627,1.071,5.092,1.887,7.557
		c2.015,4.396,6.362,8.734,11.715,10.182c2.645-2.465,4.219-5.52,5.416-8.574c-2.771-1.768-3.778-4.663-4.282-7.449
		C87.899,102.087,82.608,101.229,78.139,99.781L78.139,99.781z"/>
	<path fill-rule="evenodd" clip-rule="evenodd" fill="#C9E3B2" d="M119.259,102.729c-0.504,3.269-1.512,6.324-2.078,9.594
		c2.078,0.428,4.219,1.018,6.486,1.072c0.755-3.378,1.385-6.86,2.015-10.29c-2.015-0.376-4.093-0.643-6.045-1.072L119.259,102.729
		L119.259,102.729z"/>
	<path fill-rule="evenodd" clip-rule="evenodd" fill="#C9E3B2" d="M126.69,103.534c-0.567,3.268-1.448,6.537-1.889,9.913
		c4.912,0.267,9.635,0.591,14.547,0.644c1.007-3.108,1.259-6.538,2.015-9.754c-1.764-0.321-3.841-0.055-5.667-0.269
		c-2.898-0.374-5.857-0.481-8.817-0.803L126.69,103.534L126.69,103.534z"/>
	<path fill-rule="evenodd" clip-rule="evenodd" fill="#662F90" d="M189.915,103.908c2.646,2.036,5.542,4.395,8.06,6.538
		c2.395-0.75,4.787-1.501,6.991-2.572c-4.85-1.607-9.95-2.895-15.051-4.073V103.908L189.915,103.908z"/>
	<path fill-rule="evenodd" clip-rule="evenodd" fill="#C9E3B2" d="M142.496,104.282c-0.314,0.912-0.503,1.93-0.692,2.896
		c-0.441,2.249-0.881,4.556-1.322,6.913c2.204,0.161,4.597-0.053,6.612-0.428c0.63-3.27,1.448-6.38,2.33-9.541
		C147.282,104.392,144.827,104.282,142.496,104.282L142.496,104.282z"/>
	<path fill-rule="evenodd" clip-rule="evenodd" fill="#C9E3B2" d="M183.365,106.75c3.779,3.43,7.432,6.161,11.021,9.698
		c1.952-0.214,3.714-0.964,5.919-0.804l-0.063-0.266c-4.093-3.754-7.682-6.809-12.091-10.077
		C186.451,105.463,184.751,105.998,183.365,106.75L183.365,106.75z"/>
	<path fill-rule="evenodd" clip-rule="evenodd" fill="#C9E3B2" d="M179.714,108.679c-2.961,1.929-4.849,4.447-6.99,6.966
		c3.338,2.786,6.297,5.198,9.571,7.933c3.148-2.842,6.801-5.198,10.957-6.7v-0.106c-3.651-3.75-6.486-5.843-10.831-9.487
		C181.413,107.498,180.532,108.25,179.714,108.679L179.714,108.679z"/>
	<path fill-rule="evenodd" clip-rule="evenodd" fill="#C9E3B2" d="M98.227,109.321c-1.449,2.894-2.708,5.948-5.164,8.413v0.268
		c1.322,0.429,2.708,0.805,4.093,1.071c0.504-2.357,0.755-4.821,0.944-7.288c0.252-0.803,0.882-1.231,1.827-1.446h4.093l0.126-1.607
		C102.257,109.107,100.367,109.751,98.227,109.321L98.227,109.321z"/>
	<path fill-rule="evenodd" clip-rule="evenodd" fill="#C9E3B2" d="M163.529,115.806c-0.441,2.733,2.33,4.074,3.841,5.895
		l0.819,0.589c0.378-0.589,0.44-1.392,0.818-2.035c0.692-1.447,1.387-2.896,2.33-4.232l-0.314-0.377
		c-2.016-1.876-4.661-3.267-7.053-4.983C163.465,112.215,163.656,114.091,163.529,115.806L163.529,115.806z"/>
	<path fill-rule="evenodd" clip-rule="evenodd" fill="#662F90" d="M99.548,112.055c-0.503,2.626-0.566,5.413-0.882,8.145
		c1.323,0.536,3.086,0.27,4.471,0.858c0.315,0,0.378-0.268,0.505-0.429c0.503-1.018-0.314-2.679,1.006-3.271
		c2.33,0.484,4.661,0.912,7.18,1.127c0.566-0.589,0.188-1.608,0.314-2.251c-1.197-1.394-2.645-2.948-4.282-4.02
		c-2.518-0.43-5.479-1.126-7.997-0.481L99.548,112.055L99.548,112.055z"/>
	<path fill-rule="evenodd" clip-rule="evenodd" fill="#C9E3B2" d="M169.008,122.343v0.645c3.086,2.412,5.668,4.502,8.25,7.021
		c0.504-0.857,0.818-1.822,1.448-2.519c0.944-1.126,1.764-2.09,2.771-3.108c-3.023-2.841-6.235-5.627-9.384-7.825
		C170.771,118.325,169.639,120.309,169.008,122.343L169.008,122.343z"/>
	<path fill-rule="evenodd" clip-rule="evenodd" fill="#C9E3B2" d="M195.457,117.358l0.126,0.324
		c3.526,3.32,6.927,6.431,9.698,10.127c1.763-0.214,3.715-0.374,5.541-0.535v-0.268c-2.896-3.697-6.108-7.181-9.383-10.396
		C199.298,116.502,197.346,116.93,195.457,117.358L195.457,117.358z"/>
	<path fill-rule="evenodd" clip-rule="evenodd" fill="#C9E3B2" d="M183.24,124.168v0.267l8.753,7.822
		c2.394-1.286,4.911-2.357,7.558-3.215c1.448-0.48,3.147-0.535,4.597-0.963c-2.646-3.751-6.361-7.182-9.888-10.345
		C190.041,118.914,186.515,121.326,183.24,124.168L183.24,124.168z"/>
	<path fill-rule="evenodd" clip-rule="evenodd" fill="#C9E3B2" d="M89.221,121.166c-1.071,0.695-2.267,1.285-3.463,1.875v0.107
		c2.267,0.535,4.471,1.338,6.801,1.338c0.315-1.714,0.566-3.644,2.645-4.446c0.252,0.214,0.504-0.054,0.693-0.054
		c-1.071-0.43-2.456-0.645-3.715-1.126C91.173,119.45,90.229,120.576,89.221,121.166L89.221,121.166z"/>
	<path fill-rule="evenodd" clip-rule="evenodd" fill="#662F90" d="M145.079,122.827c-0.945,3.912-0.504,8.144-0.63,12.165
		c0.188,1.771-0.252,3.75,0.881,5.037c2.141,0.856,5.164,0.428,7.116-0.59c1.197-0.429,0.945-1.66,1.197-2.626
		c0.189-4.339,0.693-9.271-0.189-13.558c-0.567-1.18-1.826-2.037-3.4-2.198C148.038,120.897,146.149,121.54,145.079,122.827
		L145.079,122.827z"/>
	<path fill-rule="evenodd" clip-rule="evenodd" fill="#662F90" d="M94.7,122.289c-0.252,1.555-0.818,3.217,0,4.718l0.629,0.482
		c2.331,0.535,4.912,0.59,7.179,1.232c0.378,0.16,0.693,0.533,1.071,0.643c0,1.93-0.504,3.805-0.504,5.788
		c0.063,0.429,0.315,0.857,0.819,1.072c1.511,0.32,3.022,0.751,4.597,0.483l0.252-0.323c0.505-3.751,0.883-7.503,1.26-11.308
		c-1.386-2.09-4.597-1.929-6.864-2.788c-1.826-0.643-4.03-0.374-5.919-0.855C96.211,121.326,95.203,121.54,94.7,122.289
		L94.7,122.289z"/>
	<path fill-rule="evenodd" clip-rule="evenodd" fill="#662F90" d="M161.451,124.381c-1.133,4.286-0.693,9.431,0.189,13.827
		c0.378,0.803,1.385,1.286,2.582,1.231c1.575,0.055,3.022-0.429,3.778-1.501c0.567-3.055,0.063-6.216-0.062-9.323
		c-0.755-1.931,0.189-5.253-3.021-5.628C163.529,122.934,162.145,123.31,161.451,124.381L161.451,124.381z"/>
	<path fill-rule="evenodd" clip-rule="evenodd" fill="#F16624" d="M169.449,137.456c1.889,0.27,3.715-0.266,5.479-0.643
		c0.63-0.215,1.322-0.215,1.952-0.589c-0.63-1.66-0.818-3.376-1.448-4.984c-2.078-2.198-4.156-4.341-6.676-6.377
		C169.449,128.83,169.639,133.277,169.449,137.456L169.449,137.456z"/>
	<path fill-rule="evenodd" clip-rule="evenodd" fill="#C9E3B2" d="M178.076,130.76c2.33,2.409,4.66,4.607,6.611,7.179l0.19-0.104
		c1.637-1.984,3.841-3.594,6.107-4.935c-2.771-2.837-5.793-5.519-8.627-7.822C180.532,126.793,178.706,128.507,178.076,130.76
		L178.076,130.76z"/>
	<path fill-rule="evenodd" clip-rule="evenodd" fill="#C9E3B2" d="M206.226,128.667c1.511,2.413,3.526,4.771,4.66,7.343
		c1.637,0.215,3.589,0.055,5.163,0.589c-0.692-3.055-2.519-5.839-4.472-8.413C209.689,128.186,207.926,128.347,206.226,128.667
		L206.226,128.667z"/>
	<path fill-rule="evenodd" clip-rule="evenodd" fill="#C9E3B2" d="M192.812,133.009c1.763,1.875,3.148,3.967,4.661,5.897
		c3.84-1.45,7.997-2.144,12.279-2.682c-1.134-2.573-2.834-4.984-4.786-7.288C200.494,129.524,196.401,130.811,192.812,133.009
		L192.812,133.009z"/>
	<path fill-rule="evenodd" clip-rule="evenodd" fill="#C9E3B2" d="M96.4,129.042c-0.126,0.697,0.315,1.235,1.07,1.663
		c1.512,0.266,2.896,0.803,4.408,0.908c0.063-0.533,0.567-1.391-0.126-1.714C99.989,129.579,98.289,129.205,96.4,129.042
		L96.4,129.042z"/>
	<path fill-rule="evenodd" clip-rule="evenodd" fill="#5CA047" d="M93.251,129.255c-2.708,1.287-6.171,1.879-8.061,4.022
		c0.126,1.127,1.574,1.232,2.393,1.66c2.393,0.59,5.479,1.181,7.809,0.16c0.881-0.588-0.567-1.286-0.063-2.089
		c0.126-0.534,0.441-1.126,0.756-1.715c-0.692-0.644-1.26-1.341-1.26-2.252L93.251,129.255L93.251,129.255z"/>
	<path fill-rule="evenodd" clip-rule="evenodd" fill="#AC8ABF" d="M216.49,131.294c0.944,1.983,2.393,3.858,1.888,6.271
		c0.693,0.588,2.269,0.803,2.016,1.819c-0.692,0.697-1.763,0.484-2.519,0.857c0.44,0.858,1.385,1.396,1.764,2.307
		c0.567-0.054,1.196-0.643,1.889-0.269c2.33,0.105,1.26,2.627,3.401,2.893c0.503-0.803,1.512-1.501,2.582-1.501
		c2.015,0.109,4.407,0.43,5.163,2.253c-0.189,0.589,0.314,0.857,0.882,0.803c1.574-0.16,3.023-1.605,4.66-0.748
		c1.07,0.857,1.322,1.98,2.267,2.892c0.378,0.966,1.764,0.858,2.581,1.341c1.827,0.27,4.408,0.375,5.921-1.126
		c2.267-1.77,3.4-4.607,2.394-7.233c-1.323-1.61-3.653-1.875-5.543-2.682c-2.393-1.232-3.589,1.609-5.981,0.807
		c-1.638-1.341-2.142-3.539-4.346-4.396c-2.896-0.749-5.729-2.304-8.942-1.82c-0.756,0.479-1.322,1.286-2.392,0.963
		c-1.387-0.912-2.142-2.467-3.968-3.001c-1.197-0.16-2.394-0.319-3.653-0.482L216.49,131.294L216.49,131.294z"/>
	<path fill-rule="evenodd" clip-rule="evenodd" fill="#C9E3B2" d="M96.778,132.634c0,0.32-0.251,0.75,0,1.072
		c1.259,0.804,3.149,0.749,4.66,0.963c0.252-0.534,0.378-1.018,0.315-1.715c-1.386-0.479-2.959-0.588-4.408-0.908L96.778,132.634
		L96.778,132.634z"/>
	<path fill-rule="evenodd" clip-rule="evenodd" fill="#FFFFFF" d="M177.698,133.975h0.126c0.126,0-0.126-0.431-0.44-0.482
		C177.51,133.651,177.321,133.975,177.698,133.975L177.698,133.975z"/>
	<path fill-rule="evenodd" clip-rule="evenodd" fill="#C9E3B2" d="M185.192,138.582c1.322,1.983,2.645,4.019,3.651,6.162
		c1.827-2.409,4.599-3.964,7.432-5.305c-1.196-2.089-2.709-4.018-4.597-5.843C189.284,134.669,187.082,136.763,185.192,138.582
		L185.192,138.582z"/>
	<path fill-rule="evenodd" clip-rule="evenodd" fill="#5CA047" d="M96.778,135.85c-0.567,3.057-0.567,6.431-0.441,9.593
		c0.315,1.769,1.008,3.109,2.583,4.395c0.503-1.285,0.313-2.84,0.755-4.181c0.377-3.216,0.691-6.485,1.007-9.701
		c-1.259-0.319-2.519-0.319-3.653-0.697L96.778,135.85L96.778,135.85z"/>
	<path fill-rule="evenodd" clip-rule="evenodd" fill="#5CA047" d="M177.006,137.511c-2.078,0.588-4.345,0.966-6.611,1.341
		c0,5.519,0.126,10.933,0.188,16.396l0.313,0.164c4.157-1.072,9.068-2.038,11.714-5.145c0.44-1.072,0.126-2.467-0.063-3.645
		c-0.755-3.644-1.7-7.288-3.841-10.504c-0.126-0.163-0.63-0.378-0.756-0.696C177.762,136.064,178.266,137.351,177.006,137.511
		L177.006,137.511z"/>
	<path fill-rule="evenodd" clip-rule="evenodd" fill="#C9E3B2" d="M88.024,136.708c-1.133,4.127-1.007,9.217-0.314,13.504
		c0.567,1.82,2.204,3.001,4.345,3.324c0.944,0.105,1.952,0.212,2.959,0.105l2.33-3.055c-0.441-0.535-1.134-1.126-1.575-1.661
		c-2.708-3.538-0.504-8.254-0.567-12.327C93,137.405,90.292,137.027,88.024,136.708L88.024,136.708z"/>
	<path fill-rule="evenodd" clip-rule="evenodd" fill="#C9E3B2" d="M101.878,137.993c-0.567,4.771-1.259,9.646-1.449,14.468
		c0.441,1.235,2.268,1.556,3.59,1.823c1.008,0.106,2.205,0.16,3.022-0.268c0.693-5.251,1.196-10.61,1.638-15.969
		c-0.505-0.269-1.196,0.105-1.826-0.055c-1.575-0.268-3.338-0.374-4.661-1.126C101.815,137.136,102.067,137.619,101.878,137.993
		L101.878,137.993z"/>
	<path fill-rule="evenodd" clip-rule="evenodd" fill="#C9E3B2" d="M115.104,137.511c-0.504,2.467-0.504,5.198-0.693,7.826
		c-0.189,3.215-0.44,6.644-0.567,9.91c0.315,0.593,0.629,1.181,1.26,1.505c6.486,0.803,13.098,1.392,19.837,1.874
		c0.565-0.108,1.006-0.268,1.258-0.751c0.189-3.696,0.442-7.558,0.568-11.253c0.062-2.198,0.315-4.77-0.125-6.968
		c-0.505-0.697-1.261-0.803-2.205-0.803c-5.542-0.698-10.894-1.232-16.436-1.931C116.93,137.027,115.733,136.708,115.104,137.511
		L115.104,137.511z"/>
	<path fill-rule="evenodd" clip-rule="evenodd" fill="#FFFFFF" d="M214.601,137.938l1.511,0.858c0.127-0.16,0.189-0.429,0.127-0.698
		C215.797,137.885,215.104,137.885,214.601,137.938L214.601,137.938z"/>
	<path fill-rule="evenodd" clip-rule="evenodd" fill="#F4A382" d="M195.834,141.528c-1.321,0.538-2.518,1.181-3.778,1.878
		c-0.377,1.178-0.314,2.519-0.567,3.75c0.567-0.214,1.387-0.374,1.89-0.696c-0.188-0.644-0.629-1.123-0.756-1.821
		c0.882,0.214,1.324,1.018,2.016,1.606c2.456,2.571,4.346,5.628,4.283,9.166c-0.126,0.105-0.315,0.266-0.379,0.16
		c-0.692-1.232-0.817-2.681-1.699-3.749c-0.883,0.588-1.89,1.23-2.709,2.034c0.253,1.82,1.574,3.376,2.645,4.876
		c1.196,1.609,3.087,3.16,5.417,3.27c1.258-0.16,2.581-0.588,3.274-1.66c1.07-1.556,1.26-3.43,2.078-5.095l0.252-0.158l0.314,0.268
		c-0.378,1.556-0.566,3.161-0.818,4.717c2.33,0.696,4.534-0.538,5.982-1.984c0.818-1.071,1.448-2.089,2.267-3.16
		c0.126,0.054,0.252,0.105,0.314,0.318c-0.125,1.181-0.755,2.198-1.196,3.271c1.575,0.215,3.338-0.374,4.534-1.445
		c3.149-4.287,1.009-10.13-1.385-14.148c-1.008-2.144-3.212-3.539-4.976-5.09C206.666,138.099,201.062,139.385,195.834,141.528
		L195.834,141.528z"/>
	<path fill-rule="evenodd" clip-rule="evenodd" fill="#5CA047" d="M110.191,137.938c-0.442,5.255-1.134,10.505-1.449,15.863
		c1.197,0.27,2.204,0.643,3.464,0.697c0.315-2.198,0.441-4.447,0.629-6.699c0.063-3.161,0.441-6.271,0.503-9.486
		C112.332,138.048,111.262,137.993,110.191,137.938L110.191,137.938z"/>
	<path fill-rule="evenodd" clip-rule="evenodd" fill="#FFFFFF" d="M217.749,139.011c0.188,0.108,0.566,0.054,0.819-0.104
		C218.315,138.528,217.812,138.528,217.749,139.011L217.749,139.011z"/>
	<path fill-rule="evenodd" clip-rule="evenodd" fill="#C9E3B2" d="M161.64,139.978c-0.441,0.159-0.756,0.319-1.196,0.374
		l0.314,0.374v15.812c1.386,1.231,3.652,1.767,5.604,1.068c1.071-0.211,1.953-0.748,2.709-1.391c0.441-5.68,0.127-11.576,0-17.363
		l-0.127-0.16C167.183,140.457,164.033,140.726,161.64,139.978L161.64,139.978z"/>
	<path fill-rule="evenodd" clip-rule="evenodd" fill="#5CA047" d="M154.272,140.78c-0.315,5.25-0.126,10.609-0.189,15.972
		c1.826,0.266,3.842,0.211,5.604-0.378c-0.062-5.465,0.126-10.289,0.126-15.702l0.189-0.16
		C158.114,140.726,155.973,140.62,154.272,140.78L154.272,140.78z"/>
	<path fill-rule="evenodd" clip-rule="evenodd" fill="#5CA047" d="M138.466,140.565c-0.252,5.305-0.629,10.664-0.441,16.077
		c1.512,0.16,3.464,0.32,5.164,0.109c0.189-4.557,0-8.844-0.064-13.346c0.253-0.162,0-0.643,0.378-0.643
		c0.189-0.055,0.377-0.055,0.567-0.055l0.315,0.27l0.251,14.95c1.827,1.341,5.039,1.287,7.117,0.43
		c0.441-0.109,0.818-0.375,1.071-0.753c0.188-5.519,0.125-11.146,0.062-16.72c-2.771,0.643-6.801,1.823-9.193-0.32
		C141.993,140.726,140.104,140.457,138.466,140.565L138.466,140.565z"/>
	<path fill-rule="evenodd" clip-rule="evenodd" d="M119.259,142.121c-0.504,0.963-0.125,2.144-0.315,3.216
		c0.126,2.463-0.63,4.767-0.126,7.124c1.637,0.643,3.778,0.538,5.604,0.697l6.045,0.538l0.692-0.751
		c0-3.321,0.504-6.537,0.567-9.752c0-0.484-0.692-0.484-1.196-0.698c-3.275-0.215-6.612-0.374-9.823-0.803
		C120.077,141.528,119.7,141.906,119.259,142.121L119.259,142.121z"/>
	<path fill-rule="evenodd" clip-rule="evenodd" fill="#C9E3B2" d="M120.393,142.869c-0.251,2.896-0.315,5.734-0.44,8.684l0.503,0.16
		c3.212,0.374,6.171,0.803,9.383,0.803c0.379-2.892,0.63-5.894,0.504-8.844C127.131,143.244,123.73,143.139,120.393,142.869
		L120.393,142.869z"/>
	<path fill-rule="evenodd" clip-rule="evenodd" fill="#662F90" d="M222.85,149.943c0.253,0.054,0.441,0.214,0.693,0.214
		c0.377-1.286,0.881-2.518,1.195-3.857c-1.322-0.483-2.266-1.556-3.651-1.661C221.717,146.354,222.347,148.174,222.85,149.943
		L222.85,149.943z"/>
	<path fill-rule="evenodd" clip-rule="evenodd" fill="#FFFFFF" d="M189.475,145.602c0,0.108,0.188,0.215,0.251,0.269
		c0.379-0.214,0.379-0.803,0.504-1.231C189.852,144.959,189.537,145.173,189.475,145.602L189.475,145.602z"/>
	<path fill-rule="evenodd" clip-rule="evenodd" fill="#662F90" d="M226.755,144.959c-1.009,1.395-1.135,3.215-1.826,4.771
		c-1.952,6.698-4.031,13.238-5.983,19.935c2.582-0.051,5.164-0.319,7.684-0.693c1.637-7.611,3.212-15.274,4.534-23.046
		C230.281,144.744,228.202,144.639,226.755,144.959L226.755,144.959z"/>
	<path fill-rule="evenodd" clip-rule="evenodd" fill="#662F90" d="M181.604,169.45c0.251,0.429,0.629-0.105,1.007,0
		c0.881-0.105,1.637,0.214,2.394,0.323c0.188-1.929,0.565-3.699,1.007-5.52c1.386-5.198,4.219-10.558,10.265-13.13
		c-0.504-1.395-1.512-2.627-2.393-3.968C185.004,151.713,182.483,160.93,181.604,169.45L181.604,169.45z"/>
	<path fill-rule="evenodd" clip-rule="evenodd" fill="#FFFFFF" d="M223.039,151.604l0.063-0.267
		C223.103,151.39,222.85,151.498,223.039,151.604L223.039,151.604z"/>
	<path fill-rule="evenodd" clip-rule="evenodd" fill="#662F90" d="M231.729,151.338c-0.188,1.287-0.63,2.519-0.63,3.909
		c2.961,2.468,4.473,5.577,5.164,8.953l3.527,0.803C238.908,159.753,236.012,155.034,231.729,151.338L231.729,151.338z"/>
	<path fill-rule="evenodd" clip-rule="evenodd" fill="#F16624" d="M98.541,151.98c-4.156,6.003-9.383,11.468-9.635,18.864
		c-0.252-0.588-0.062-1.341-0.692-1.874l-0.063-2.358l-0.126,0.052c-2.015,2.197-5.227,4.021-8.375,5.038l-0.064,0.105
		c1.576,1.878,1.387,4.985,4.346,5.789c7.431,4.983,11.271,13.344,14.988,20.741c1.069,2.572,2.392,5.305,1.762,8.306
		c1.322,0,2.456-0.803,3.652-1.231c10.895-5.145,15.429-16.88,27.079-21.545c-3.023-1.715-6.738-2.304-10.265-3.106
		c4.723-0.912,9.383,0.428,13.036,2.626c2.644,1.552,1.762,4.447,2.833,6.696c1.575,7.343,6.172,13.614,8.376,20.742
		c-0.504,0-0.504-0.697-0.945-0.912c-1.007-0.966-1.7-2.252-2.519-3.32c0.063,4.338-2.331,7.982-2.646,12.164
		c6.361-1.396,13.98-0.698,20.026,0.857c6.046,1.126,13.351,1.605,18.956-0.644c2.771-0.857,5.163-2.466,7.304-4.233
		c0.945-1.071,1.008-2.521,0.567-3.807c-1.07-4.822-2.141-9.697-3.653-14.362c-0.503,1.501-0.817,3.109-1.888,4.396
		c-0.379-1.021-0.063-2.198-0.063-3.324c0.818-4.931,1.951-9.701,2.204-14.846c-0.315-1.126-0.315-2.358-0.693-3.43
		c-2.141-0.697-2.644-2.731-3.022-4.502c-0.755-0.055-1.699-0.482-2.141-1.178c-0.44-1.608-0.504-3.377-0.692-5.038
		c-0.188-0.589,0.565-0.912,1.07-1.178c1.008-0.323,2.142-0.482,3.274-0.752c0.504-3.698,1.448-7.233,2.959-10.663
		c-0.377-1.232-0.629-2.573-1.07-3.754c-3.338,2.198-7.304,3.645-11.524,4.073c-0.502,0.644-1.447,1.395-2.267,1.875l-0.062,16.295
		c-0.944,1.875-2.267,3.698-3.968,5.145c-0.504,0.105-1.07-0.108-1.197-0.538l-0.315-0.373l-0.062-19.776
		c-1.134-0.215-2.204-0.752-3.212-1.341c-1.826,0.323-3.841,0.429-5.793,0.378c-0.693,0.479-0.63,1.766-1.952,1.551
		c-0.252,0.055-0.441,0.215-0.504,0.43c0,4.665-0.062,9.485,0.063,14.042c-0.189,1.606-1.511,2.786-2.204,4.232
		c-1.071,1.341-1.826,2.95-3.275,4.127c-0.378,0.055-0.629-0.268-0.882-0.482l-0.188-0.963c0.125-7.074,0.441-14.362,0.251-21.331
		c-0.944-0.268-1.637-0.803-2.078-1.555c-1.89,0.109-3.779-0.16-5.542-0.16c-0.127,0.644-0.63,1.287-1.386,1.606l-1.323,0.323
		c-3.022-0.323-6.36-0.429-9.256-0.803l-0.189,0.16l-0.188-0.215l-10.642-0.963c-1.072-0.27-1.89-1.235-2.204-2.093
		c-1.449-0.32-2.709-0.803-4.346-0.856l-0.062,0.158c0,3.325-0.252,6.755-0.629,10.076c-0.505,1.074-1.449,1.769-2.645,2.146
		c-1.638,0.266-3.527,0.215-4.472-1.021c-1.196-0.963-1.196-2.464-1.133-3.858c-0.313-2.947,0.126-6.108,0.189-9.003
		c-0.378-0.589-0.503-1.127-0.63-1.715L98.541,151.98L98.541,151.98z"/>
	<path fill-rule="evenodd" clip-rule="evenodd" fill="#662F90" d="M100.682,154.929c-0.189,3.27-0.252,6.699,0.125,9.97
		c0.189,0.693,1.008,1.121,1.764,1.391c0.818-0.055,1.952,0.108,2.582-0.319c1.636-0.913,0.881-2.787,1.258-4.183
		c0.253-2.034,0.063-4.182,0.127-6.271c-2.016,0.16-3.967-0.27-5.731-0.803L100.682,154.929L100.682,154.929z"/>
	<path fill-rule="evenodd" clip-rule="evenodd" fill="#FFFFFF" d="M190.797,157.232c0.818,0.428,1.825,1.071,3.022,0.806
		c0.504-0.323-0.253-0.593-0.189-0.912l-0.628-2.304C192.119,155.517,191.363,156.374,190.797,157.232L190.797,157.232z"/>
	<path fill-rule="evenodd" clip-rule="evenodd" fill="#662F90" d="M164.41,177.919l0.189,0.054c1.134-1.499,2.834-2.895,2.709-4.824
		c0.125-5.035-0.064-9.485,0-14.416l-2.898,0.429V177.919L164.41,177.919z"/>
	<path fill-rule="evenodd" clip-rule="evenodd" fill="#662F90" d="M146.777,160.232c-0.188,6.646-0.25,13.345-0.188,19.722
		c1.385-1.606,2.519-3.48,3.526-5.306c0.315-4.5,0.126-9.75,0.188-14.416l-0.188-0.214h-3.212L146.777,160.232L146.777,160.232z"/>
	<path fill-rule="evenodd" clip-rule="evenodd" fill="#5CA047" d="M50.619,162.325c17.444,5.305,19.834,21.811,25.188,34.566
		c2.079,6.322,5.478,12.165,8.565,18.112c0.881-0.589,1.7-1.66,2.393-2.519c3.149-4.661,6.045-9.486,9.635-13.934
		c-2.771-6.325-6.234-12.327-11.272-17.791c-0.441-0.538-1.133-1.127-1.701-1.61c0.568,2.787,2.772,5.146,2.142,8.146
		c-0.441-0.48-0.315-1.178-0.629-1.767c-4.662-7.88-8.628-17.367-18.768-21.919c-4.47-2.092-10.579-2.627-15.489-1.395
		L50.619,162.325L50.619,162.325z"/>
	<path fill-rule="evenodd" clip-rule="evenodd" fill="#C9E3B2" d="M41.551,165.97c0.504,0.214,1.26,0.265,1.888,0.374
		c7.433,2.249,14.485,6.805,17.823,13.076c3.399,6.056,5.354,12.646,8.125,18.918c2.643,5.947,5.162,12.059,7.809,18.061
		c0.504,1.178,0.563,2.519,0.816,3.749c1.323-0.373,2.267-1.391,3.466-2.144l1.95-1.819c-1.574-4.073-4.217-7.772-5.92-11.845
		c-5.162-10.558-6.861-22.402-14.229-32.154c-3.779-4.45-9.068-8.2-15.365-9.218C45.645,163.771,43.314,164.469,41.551,165.97
		L41.551,165.97z"/>
	<path fill-rule="evenodd" clip-rule="evenodd" fill="#662F90" d="M206.666,165.486c-0.062,0.533,0.378,0.963,0.882,1.178
		c1.574,0.482,3.274,0,4.346-0.909c0.44-0.323,0.629-0.856,0.44-1.341c-0.378-0.538-1.071-0.696-1.827-0.803
		C208.87,163.611,207.359,164.254,206.666,165.486L206.666,165.486z"/>
	<path fill-rule="evenodd" clip-rule="evenodd" fill="#662F90" d="M190.671,165.271c-0.063,0.535,0,1.018,0.504,1.341
		c0.944,0.479,2.329,0.643,3.526,0.32c0.692-0.215,1.512-0.535,1.827-1.178c0-0.592-0.253-1.126-0.884-1.395
		C194.008,163.771,191.679,163.931,190.671,165.271L190.671,165.271z"/>
	<path fill-rule="evenodd" clip-rule="evenodd" fill="#662F90" d="M198.605,165.111c-0.125,0.535,0.315,0.963,0.565,1.286
		c1.009,0.963,2.584,1.018,3.969,0.857c0.628-0.108,1.069-0.482,1.386-0.966c0.062-0.966-1.008-1.445-1.827-1.875
		C201.439,163.876,199.361,163.985,198.605,165.111L198.605,165.111z"/>
	<path fill-rule="evenodd" clip-rule="evenodd" fill="#AC8ABF" d="M213.781,165.217c0,0.857-1.699,1.232-0.817,2.09
		c0.566,0.856,1.133,1.664,1.322,2.682c1.008,0.16,2.015-0.16,3.148-0.16c0.378-1.665,1.007-3.324,1.385-5.094
		C217.119,164.844,215.419,165.057,213.781,165.217L213.781,165.217z"/>
	<path fill-rule="evenodd" clip-rule="evenodd" fill="#AC8ABF" d="M229.085,165.057l-0.63,3.645c3.527,0,6.801-0.696,10.201-1.126
		l0.127,0.16c-1.323,1.021-3.275,0.966-4.85,1.555c-7.179,1.661-14.925,1.984-22.482,2.518c-8.06,0.164-15.868,0.164-23.552-0.588
		h-1.196c0.252,0.966,1.008,1.875,0.882,3.001c0.314,0.643-0.819,2.144,0.882,1.929c8.062,0.912,16.121,0.644,24.434,0.912
		c8.062,0,15.744-1.555,23.174-3.27c2.078-0.589,4.534-1.392,5.038-3.59c-0.062-1.341,0-2.787-1.322-3.59
		c-3.211-1.181-6.738-1.714-10.579-1.664L229.085,165.057L229.085,165.057z"/>
	<path fill-rule="evenodd" clip-rule="evenodd" fill="#AC8ABF" d="M187.018,166.987c-0.126,0.963-0.188,1.874-0.126,2.786
		c1.513,0.105,2.897,0.375,4.408,0.375c0.188-0.75,0.063-1.501-0.125-2.198c-0.883-0.375-1.386-0.75-1.891-1.501
		C188.655,166.827,187.396,166.234,187.018,166.987L187.018,166.987z"/>
	<path fill-rule="evenodd" clip-rule="evenodd" fill="#AC8ABF" d="M195.016,169.186c0,0.373-0.188,0.693-0.062,1.071
		c1.134,0.214,2.646,0.052,3.904,0.104c0.378-0.911-0.188-1.769-0.062-2.677l-1.196-1.021
		C196.904,167.79,194.701,167.521,195.016,169.186L195.016,169.186z"/>
	<path fill-rule="evenodd" clip-rule="evenodd" fill="#AC8ABF" d="M202.825,168.541c-0.189,0.535-0.441,1.123-0.315,1.768
		c2.456,0.107,5.164,0.162,7.368-0.052c-0.693-1.021-1.134-2.842-3.086-2.521l-1.008-0.748
		C205.155,167.79,204.021,168.327,202.825,168.541L202.825,168.541z"/>
	<path fill-rule="evenodd" clip-rule="evenodd" fill="#662F90" d="M209.814,168.059l1.637,2.144l1.639-0.054
		c-0.316-0.963-0.945-1.821-1.449-2.733C211.012,167.575,210.444,167.79,209.814,168.059L209.814,168.059z"/>
	<path fill-rule="evenodd" clip-rule="evenodd" fill="#203A1B" d="M40.04,167.95c-0.82,0.591-0.756,1.395-0.82,2.198
		c-0.252,9.485,5.417,17.094,9.76,25.079c6.297,8.629,10.895,18.599,21.538,24.869c1.387,0.644,2.835,1.338,4.534,1.178
		c0.504-0.159,0.567-0.589,0.82-0.912c-0.82-5.519-3.842-10.234-5.605-15.435c-3.274-7.019-6.233-14.252-9.192-21.381
		c-2.963-5.682-7.685-11.575-14.485-14.471c-1.891-0.698-3.526-1.93-5.857-1.556L40.04,167.95L40.04,167.95z"/>
	<path fill-rule="evenodd" clip-rule="evenodd" fill="#AC8ABF" d="M177.887,168.971c0.189,1.445,0.189,2.837,0.756,4.072
		l0.378,0.215c0.379-0.912,0.693-1.878,1.322-2.736c-0.314-0.748-0.188-1.5-0.126-2.304
		C179.336,168.272,178.14,168.163,177.887,168.971L177.887,168.971z"/>
	<path fill-rule="evenodd" clip-rule="evenodd" fill="#662F90" d="M200.116,168.272c-0.188,0.698,0.063,1.446,0.253,2.036
		l0.63,0.053c0.251-0.588,0.44-1.176,0.313-1.82C200.999,168.327,200.494,168.327,200.116,168.272L200.116,168.272z"/>
	<path fill-rule="evenodd" clip-rule="evenodd" fill="#662F90" d="M192.561,168.272c0,0.589-0.19,1.392,0.126,1.93
		c0.315,0.106,0.63,0.055,0.88,0.055l0.38-1.984H192.561L192.561,168.272z"/>
	<path fill-rule="evenodd" clip-rule="evenodd" fill="#FFFFFF" d="M180.973,171.917c-1.133,1.82-0.566,4.342,0.756,5.948
		c0.692,0.428,1.448,0.803,2.33,0.537c1.763-0.592,2.016-2.198,2.267-3.539c-0.062-1.605-0.63-3.43-2.455-4.178
		C182.736,170.361,181.413,170.951,180.973,171.917L180.973,171.917z"/>
	<path fill-rule="evenodd" clip-rule="evenodd" fill="#662F90" d="M207.8,178.562c-6.738-0.43-14.357,0.16-20.782-1.341
		c-0.503,1.126-1.574,2.144-3.021,2.412l0.251,1.66l4.472,22.562c0.692,3.539,1.573,7.023,2.078,10.613
		c1.952,1.82,4.786,1.983,7.368,2.626c9.571,1.338,20.78,1.606,29.723-1.071c2.455-0.912,5.164-2.358,5.92-4.719l0.377-2.784
		l2.52-25.992l0.504-7.291C228.141,177.811,218.189,178.99,207.8,178.562L207.8,178.562z"/>
	<path fill-rule="evenodd" clip-rule="evenodd" fill="#FFFFFF" d="M93.944,205.466c0.881,1.178,2.267,1.875,3.967,1.605
		c1.512-1.605,0.252-3.857-0.188-5.572l-0.567-1.018C96.085,202.088,94.637,203.643,93.944,205.466L93.944,205.466z"/>
	<path fill-rule="evenodd" clip-rule="evenodd" fill="#5CA047" d="M164.536,221.543c2.646,1.501,5.479,2.787,7.495,5.09
		c-0.693-0.051-1.448-0.803-2.142-1.126c-8.25-4.392-18.388-6.75-28.779-4.875c-5.541,1.126-11.209,5.09-12.783,9.915
		c-0.881,2.144-1.763,4.342-2.015,6.699c0.44,1.392,2.519,1.231,3.841,1.715c10.516,1.446,21.096,1.769,31.801,0.375
		c6.424-1.018,11.713-4.502,17.066-7.718c2.834-1.983,5.604-3.968,8.124-6.376c-0.693-2.521-1.449-5.095-2.96-7.292
		C178.706,221.383,171.717,222.455,164.536,221.543L164.536,221.543z"/>
	<path fill-rule="evenodd" clip-rule="evenodd" fill="#C9E3B2" d="M184.562,229.421c-5.92,4.61-12.281,8.574-19.521,10.718
		c-11.083,1.929-24.119,1.983-35.203,0.163c-1.07-0.215-2.141-0.593-3.211-0.857c0.252,2.463,0.945,5.036,3.841,6.217
		c5.164,2.144,11.839,2.194,17.381,2.409c9.634-0.375,19.081-1.661,27.142-5.52c4.659-2.518,8.438-6.217,11.9-9.966
		c1.387-1.505,0.693-3.967,0.505-5.737C186.325,227.546,185.569,228.723,184.562,229.421L184.562,229.421z"/>
</g>
</svg>
