<?xml version="1.0" encoding="utf-8"?>
<!-- Generator: Adobe Illustrator 16.0.0, SVG Export Plug-In . SVG Version: 6.00 Build 0)  -->
<!DOCTYPE svg PUBLIC "-//W3C//DTD SVG 1.1//EN" "http://www.w3.org/Graphics/SVG/1.1/DTD/svg11.dtd">
<svg version="1.1" id="Layer_1" xmlns="http://www.w3.org/2000/svg" xmlns:xlink="http://www.w3.org/1999/xlink" x="0px" y="0px"
	 width="61.913px" height="56.906px" viewBox="0 0 61.913 56.906" enable-background="new 0 0 61.913 56.906" xml:space="preserve">
<g>
	<g>
		<g>
			<g>
				
					<radialGradient id="SVGID_1_" cx="-101.8774" cy="1399.0664" r="75.9034" gradientTransform="matrix(-1.029 0 0 -1.0375 -70.155 1407.556)" gradientUnits="userSpaceOnUse">
					<stop  offset="0" style="stop-color:#EAF0E5"/>
					<stop  offset="0.118" style="stop-color:#EAF0E5"/>
					<stop  offset="0.1687" style="stop-color:#E7EDE0"/>
					<stop  offset="0.2376" style="stop-color:#DFE7D6"/>
					<stop  offset="0.3169" style="stop-color:#D2DFC6"/>
					<stop  offset="0.4041" style="stop-color:#BDD1AC"/>
					<stop  offset="0.4966" style="stop-color:#A2C18E"/>
					<stop  offset="0.5562" style="stop-color:#90B77A"/>
					<stop  offset="0.6403" style="stop-color:#85B26E"/>
					<stop  offset="0.8093" style="stop-color:#61A24A"/>
					<stop  offset="0.8315" style="stop-color:#5CA047"/>
					<stop  offset="1" style="stop-color:#5CA047"/>
				</radialGradient>
				<path fill="url(#SVGID_1_)" d="M6.275,12.195v32.521c0,6.617,5.23,12.004,11.75,12.189c0.114,0.002,0.538-0.191,0.538-0.583
					s0-12.882,0-12.882c0-3.246,3.146-5.877,7.027-5.877h18.27c3.881,0,7.028,2.631,7.028,5.877c0,0,0,12.195,0,12.686
					c0,0.491,0.496,0.678,0.742,0.641c5.82-0.883,10.282-5.939,10.282-12.051V12.195C61.913,5.461,56.498,0,49.817,0h-1.331
					c0,0-0.683,0.196-0.683,0.784c0,0.587,0,14.006,0,14.006c0,3.246-2.631,5.878-5.877,5.878H26.646
					c-3.246,0-5.877-2.632-5.877-5.878c0,0,0-13.811,0-14.203C20.769,0.196,20.182,0,20.182,0h-1.811
					C11.691,0,6.275,5.461,6.275,12.195z"/>
				
					<radialGradient id="SVGID_2_" cx="-140.1577" cy="1468.2646" r="210.9995" gradientTransform="matrix(-0.9909 0 0 -0.9946 -92.0073 1341.774)" gradientUnits="userSpaceOnUse">
					<stop  offset="0" style="stop-color:#EAF0E5"/>
					<stop  offset="0.118" style="stop-color:#EAF0E5"/>
					<stop  offset="0.1687" style="stop-color:#E7EDE0"/>
					<stop  offset="0.2376" style="stop-color:#DFE7D6"/>
					<stop  offset="0.3169" style="stop-color:#D2DFC6"/>
					<stop  offset="0.4041" style="stop-color:#BDD1AC"/>
					<stop  offset="0.4966" style="stop-color:#A2C18E"/>
					<stop  offset="0.5562" style="stop-color:#90B77A"/>
					<stop  offset="0.6403" style="stop-color:#85B26E"/>
					<stop  offset="0.8093" style="stop-color:#61A24A"/>
					<stop  offset="0.8315" style="stop-color:#5CA047"/>
					<stop  offset="1" style="stop-color:#5CA047"/>
				</radialGradient>
				<path fill="url(#SVGID_2_)" d="M7.451,13.161v31.176c0,6.458,5.215,11.692,11.646,11.692h30.285
					c6.433,0,11.648-5.234,11.648-11.692V13.161c0-6.456-5.215-11.691-11.648-11.691h-1.58v13.321c0,3.246-2.631,5.878-5.877,5.878
					H26.645c-3.246,0-5.877-2.632-5.877-5.878V1.47h-1.67C12.666,1.47,7.451,6.705,7.451,13.161z"/>
				
					<radialGradient id="SVGID_3_" cx="-108.2476" cy="1416.8457" r="104.0641" gradientTransform="matrix(-1 0 0 -1 -67.5869 1351)" gradientUnits="userSpaceOnUse">
					<stop  offset="0" style="stop-color:#EFEBF5"/>
					<stop  offset="0.2487" style="stop-color:#E9E4F1"/>
					<stop  offset="0.4454" style="stop-color:#D7CDE5"/>
					<stop  offset="0.6244" style="stop-color:#B9A6CF"/>
					<stop  offset="0.7929" style="stop-color:#997BB6"/>
					<stop  offset="0.9525" style="stop-color:#76499B"/>
					<stop  offset="1" style="stop-color:#6A3592"/>
				</radialGradient>
				<path fill="url(#SVGID_3_)" d="M47.802,14.79V1.469H20.768V14.79c0,3.246,2.631,5.878,5.877,5.878h15.281
					C45.17,20.668,47.802,18.036,47.802,14.79z"/>
				
					<radialGradient id="SVGID_4_" cx="-114.0864" cy="1359.9873" r="64.0939" gradientTransform="matrix(-1.0072 0 0 -1.0412 -82.583 1413.022)" gradientUnits="userSpaceOnUse">
					<stop  offset="0" style="stop-color:#EAF0E5"/>
					<stop  offset="0.118" style="stop-color:#EAF0E5"/>
					<stop  offset="0.1687" style="stop-color:#E7EDE0"/>
					<stop  offset="0.2376" style="stop-color:#DFE7D6"/>
					<stop  offset="0.3169" style="stop-color:#D2DFC6"/>
					<stop  offset="0.4041" style="stop-color:#BDD1AC"/>
					<stop  offset="0.4966" style="stop-color:#A2C18E"/>
					<stop  offset="0.5562" style="stop-color:#90B77A"/>
					<stop  offset="0.6403" style="stop-color:#85B26E"/>
					<stop  offset="0.8093" style="stop-color:#61A24A"/>
					<stop  offset="0.8315" style="stop-color:#5CA047"/>
					<stop  offset="1" style="stop-color:#5CA047"/>
				</radialGradient>
				<path fill="url(#SVGID_4_)" d="M6.961,13.756v30.917c0,6.761,5.304,11.55,11.838,11.55h30.783
					c6.539,0,11.839-4.789,11.839-11.55V13.756c0-6.758-5.3-12.385-11.839-12.385h-1.971v13.271c0,3.258-2.576,5.898-5.753,5.898
					H26.9c-3.177,0-5.753-2.64-5.753-5.898V1.371h-2.348C12.265,1.371,6.961,6.999,6.961,13.756z"/>
				
					<radialGradient id="SVGID_5_" cx="-99.9126" cy="1398.9512" r="72.4708" gradientTransform="matrix(-1 0 0 -0.9621 -67.5869 1292.9333)" gradientUnits="userSpaceOnUse">
					<stop  offset="0" style="stop-color:#EFEBF5"/>
					<stop  offset="0.2487" style="stop-color:#E9E4F1"/>
					<stop  offset="0.4454" style="stop-color:#D7CDE5"/>
					<stop  offset="0.6244" style="stop-color:#B9A6CF"/>
					<stop  offset="0.7929" style="stop-color:#997BB6"/>
					<stop  offset="0.9525" style="stop-color:#76499B"/>
					<stop  offset="1" style="stop-color:#6A3592"/>
				</radialGradient>
				<path fill="url(#SVGID_5_)" d="M47.802,15.013V0.784H20.768v14.229c0,3.123,2.631,5.655,5.877,5.655h15.281
					C45.17,20.668,47.802,18.136,47.802,15.013z"/>
				
					<radialGradient id="SVGID_6_" cx="-133.5801" cy="1433.4053" r="162.2252" gradientTransform="matrix(-0.9909 0 0 -0.9786 -92.0073 1318.1959)" gradientUnits="userSpaceOnUse">
					<stop  offset="0" style="stop-color:#EAF0E5"/>
					<stop  offset="0.118" style="stop-color:#EAF0E5"/>
					<stop  offset="0.1687" style="stop-color:#E7EDE0"/>
					<stop  offset="0.2376" style="stop-color:#DFE7D6"/>
					<stop  offset="0.3169" style="stop-color:#D2DFC6"/>
					<stop  offset="0.4041" style="stop-color:#BDD1AC"/>
					<stop  offset="0.4966" style="stop-color:#A2C18E"/>
					<stop  offset="0.5562" style="stop-color:#90B77A"/>
					<stop  offset="0.6403" style="stop-color:#85B26E"/>
					<stop  offset="0.8093" style="stop-color:#61A24A"/>
					<stop  offset="0.8315" style="stop-color:#5CA047"/>
					<stop  offset="1" style="stop-color:#5CA047"/>
				</radialGradient>
				<path fill="url(#SVGID_6_)" d="M7.451,13.854v30.672c0,6.354,5.215,11.503,11.646,11.503h30.285
					c6.433,0,11.648-5.149,11.648-11.503V13.854c0-6.353-5.215-11.503-11.648-11.503h-1.58V14.79c0,3.246-2.631,5.878-5.877,5.878
					H26.645c-3.246,0-5.877-2.632-5.877-5.878V2.351h-1.67C12.666,2.351,7.451,7.501,7.451,13.854z"/>
				
					<radialGradient id="SVGID_7_" cx="-133.5801" cy="1433.4014" r="162.2208" gradientTransform="matrix(-0.9909 0 0 -0.9786 -92.0073 1318.1959)" gradientUnits="userSpaceOnUse">
					<stop  offset="0" style="stop-color:#EAF0E5"/>
					<stop  offset="0.118" style="stop-color:#EAF0E5"/>
					<stop  offset="0.1687" style="stop-color:#E7EDE0"/>
					<stop  offset="0.2376" style="stop-color:#DFE7D6"/>
					<stop  offset="0.3169" style="stop-color:#D2DFC6"/>
					<stop  offset="0.4041" style="stop-color:#BDD1AC"/>
					<stop  offset="0.4966" style="stop-color:#A2C18E"/>
					<stop  offset="0.5562" style="stop-color:#90B77A"/>
					<stop  offset="0.6403" style="stop-color:#85B26E"/>
					<stop  offset="0.8093" style="stop-color:#61A24A"/>
					<stop  offset="0.8315" style="stop-color:#5CA047"/>
					<stop  offset="1" style="stop-color:#5CA047"/>
				</radialGradient>
				<path fill="url(#SVGID_7_)" d="M7.453,13.854v30.672c0,6.354,5.213,11.503,11.646,11.503h30.285
					c6.433,0,11.648-5.149,11.648-11.503V32.995c-0.248,0.003-0.492,0.015-0.742,0.015c-23.119,0-42.582-11.912-48.465-28.13
					C9.16,6.986,7.451,10.219,7.453,13.854z"/>
				
					<radialGradient id="SVGID_8_" cx="-133.5801" cy="1433.4014" r="162.2197" gradientTransform="matrix(-0.9909 0 0 -0.9786 -92.0073 1318.1959)" gradientUnits="userSpaceOnUse">
					<stop  offset="0" style="stop-color:#EAF0E5"/>
					<stop  offset="0.118" style="stop-color:#EAF0E5"/>
					<stop  offset="0.1687" style="stop-color:#E7EDE0"/>
					<stop  offset="0.2376" style="stop-color:#DFE7D6"/>
					<stop  offset="0.3169" style="stop-color:#D2DFC6"/>
					<stop  offset="0.4041" style="stop-color:#BDD1AC"/>
					<stop  offset="0.4966" style="stop-color:#A2C18E"/>
					<stop  offset="0.5562" style="stop-color:#90B77A"/>
					<stop  offset="0.6403" style="stop-color:#85B26E"/>
					<stop  offset="0.8093" style="stop-color:#61A24A"/>
					<stop  offset="0.8315" style="stop-color:#5CA047"/>
					<stop  offset="1" style="stop-color:#5CA047"/>
				</radialGradient>
				<path fill="url(#SVGID_8_)" d="M60.289,33.01c0.25,0,0.494-0.012,0.742-0.015V13.854c0-6.353-5.215-11.503-11.648-11.503h-1.58
					V14.79c0,3.246-2.631,5.878-5.877,5.878H26.645c-3.246,0-5.877-2.632-5.877-5.878V2.351h-1.67c-2.753,0-5.28,0.949-7.273,2.529
					C17.708,21.098,37.169,33.01,60.289,33.01z"/>
				
					<radialGradient id="SVGID_9_" cx="17.0566" cy="1460.7705" r="180.123" gradientTransform="matrix(-1.3033 0 0 -1.0799 107.6428 1477.6732)" gradientUnits="userSpaceOnUse">
					<stop  offset="0" style="stop-color:#EAF0E5"/>
					<stop  offset="0.118" style="stop-color:#EAF0E5"/>
					<stop  offset="0.1687" style="stop-color:#E7EDE0"/>
					<stop  offset="0.2376" style="stop-color:#DFE7D6"/>
					<stop  offset="0.3169" style="stop-color:#D2DFC6"/>
					<stop  offset="0.4041" style="stop-color:#BDD1AC"/>
					<stop  offset="0.4966" style="stop-color:#A2C18E"/>
					<stop  offset="0.5562" style="stop-color:#90B77A"/>
					<stop  offset="0.6403" style="stop-color:#85B26E"/>
					<stop  offset="0.8093" style="stop-color:#61A24A"/>
					<stop  offset="0.8315" style="stop-color:#5CA047"/>
					<stop  offset="1" style="stop-color:#5CA047"/>
				</radialGradient>
				<path fill="url(#SVGID_9_)" d="M60.289,33.01c0.25,0,0.494-0.012,0.742-0.015V13.854c0-6.353-5.215-11.503-11.648-11.503h-1.58
					V14.79c0,3.246-2.631,5.878-5.877,5.878H26.645c-3.246,0-5.877-2.632-5.877-5.878V2.351h-1.67c-2.753,0-5.28,0.949-7.273,2.529
					C17.708,21.098,37.169,33.01,60.289,33.01z"/>
				
					<radialGradient id="SVGID_10_" cx="-81.0332" cy="1426.1689" r="115.1634" gradientTransform="matrix(-1.0399 0 0 -1.0428 -43.5172 1417.7566)" gradientUnits="userSpaceOnUse">
					<stop  offset="0" style="stop-color:#EAF0E5"/>
					<stop  offset="0.118" style="stop-color:#EAF0E5"/>
					<stop  offset="0.1687" style="stop-color:#E7EDE0"/>
					<stop  offset="0.2376" style="stop-color:#DFE7D6"/>
					<stop  offset="0.3169" style="stop-color:#D2DFC6"/>
					<stop  offset="0.4041" style="stop-color:#BDD1AC"/>
					<stop  offset="0.4966" style="stop-color:#A2C18E"/>
					<stop  offset="0.5562" style="stop-color:#90B77A"/>
					<stop  offset="0.6403" style="stop-color:#85B26E"/>
					<stop  offset="0.8093" style="stop-color:#61A24A"/>
					<stop  offset="0.8315" style="stop-color:#5CA047"/>
					<stop  offset="1" style="stop-color:#5CA047"/>
				</radialGradient>
				<path fill="url(#SVGID_10_)" d="M48.39,15.323V2.351H20.277v12.972c0,3.385,2.736,6.128,6.111,6.128h15.89
					C45.653,21.451,48.391,18.707,48.39,15.323z"/>
				<path fill="#FFFFFF" d="M47.802,14.303V1.762H20.768v12.541c0,3.273,2.631,5.924,5.877,5.924h15.281
					C45.17,20.227,47.802,17.576,47.802,14.303z"/>
				
					<linearGradient id="SVGID_11_" gradientUnits="userSpaceOnUse" x1="-115.3892" y1="1339.4902" x2="-88.3545" y2="1339.4902" gradientTransform="matrix(-1 0 0 -1 -67.5869 1351)">
					<stop  offset="0" style="stop-color:#FFFFFF"/>
					<stop  offset="0.1272" style="stop-color:#EFEBF5"/>
					<stop  offset="0.2924" style="stop-color:#D2C6E1"/>
					<stop  offset="0.3901" style="stop-color:#BDAAD2"/>
					<stop  offset="0.6538" style="stop-color:#E3DCED"/>
					<stop  offset="0.7754" style="stop-color:#DFD7EA"/>
					<stop  offset="0.8514" style="stop-color:#D0C4E0"/>
					<stop  offset="0.9149" style="stop-color:#B8A4CE"/>
					<stop  offset="0.9712" style="stop-color:#9D80B9"/>
					<stop  offset="1" style="stop-color:#8C6AAC"/>
				</linearGradient>
				<path fill="url(#SVGID_11_)" d="M47.802,14.79V2.351H20.768V14.79c0,3.246,2.631,5.878,5.877,5.878h15.281
					C45.17,20.668,47.802,18.036,47.802,14.79z"/>
				
					<radialGradient id="SVGID_12_" cx="-102.6553" cy="1365.5176" r="90.963" gradientTransform="matrix(-1 0 0 -0.9565 -67.5869 1284.6578)" gradientUnits="userSpaceOnUse">
					<stop  offset="0" style="stop-color:#EAF0E5"/>
					<stop  offset="0.118" style="stop-color:#EAF0E5"/>
					<stop  offset="0.1687" style="stop-color:#E7EDE0"/>
					<stop  offset="0.2376" style="stop-color:#DFE7D6"/>
					<stop  offset="0.3169" style="stop-color:#D2DFC6"/>
					<stop  offset="0.4041" style="stop-color:#BDD1AC"/>
					<stop  offset="0.4966" style="stop-color:#A2C18E"/>
					<stop  offset="0.5562" style="stop-color:#90B77A"/>
					<stop  offset="0.6403" style="stop-color:#85B26E"/>
					<stop  offset="0.8093" style="stop-color:#61A24A"/>
					<stop  offset="0.8315" style="stop-color:#5CA047"/>
					<stop  offset="1" style="stop-color:#5CA047"/>
				</radialGradient>
				<path fill="url(#SVGID_12_)" d="M18.564,40.153v15.778h31.253c0.361,0,0.717-0.025,1.071-0.055V40.152
					c0-3.188-3.147-5.771-7.028-5.771H25.59C21.709,34.381,18.563,36.965,18.564,40.153z"/>
				
					<radialGradient id="SVGID_13_" cx="-104.2231" cy="1315.9941" r="125.3866" gradientTransform="matrix(-1 0 0 -0.9732 -67.5869 1309.9729)" gradientUnits="userSpaceOnUse">
					<stop  offset="0" style="stop-color:#FFFFFF"/>
					<stop  offset="0.1682" style="stop-color:#EFEBF5"/>
					<stop  offset="0.3873" style="stop-color:#D2C6E1"/>
					<stop  offset="0.6344" style="stop-color:#A78DC1"/>
					<stop  offset="0.9002" style="stop-color:#794E9D"/>
					<stop  offset="1" style="stop-color:#662F90"/>
				</radialGradient>
				<path fill="url(#SVGID_13_)" d="M18.564,40.689v15.635h31.253c0.361,0,0.717-0.023,1.071-0.055v-15.58
					c0-3.158-3.147-5.721-7.028-5.721H25.59C21.709,34.969,18.563,37.53,18.564,40.689z"/>
				
					<radialGradient id="SVGID_14_" cx="-166.0376" cy="1361.3867" r="88.5463" gradientTransform="matrix(-0.9137 0 0 -1 -120.1179 1351)" gradientUnits="userSpaceOnUse">
					<stop  offset="0" style="stop-color:#FFFFFF"/>
					<stop  offset="0.1682" style="stop-color:#EFEBF5"/>
					<stop  offset="0.3873" style="stop-color:#D2C6E1"/>
					<stop  offset="0.6344" style="stop-color:#A78DC1"/>
					<stop  offset="0.9002" style="stop-color:#794E9D"/>
					<stop  offset="1" style="stop-color:#662F90"/>
				</radialGradient>
				<rect x="21.925" y="41.041" fill="url(#SVGID_14_)" width="24.7" height="0.589"/>
				
					<radialGradient id="SVGID_15_" cx="-166.0376" cy="1362.6738" r="88.4054" gradientTransform="matrix(-0.9137 0 0 -1 -120.1179 1351)" gradientUnits="userSpaceOnUse">
					<stop  offset="0" style="stop-color:#FFFFFF"/>
					<stop  offset="0.1682" style="stop-color:#EFEBF5"/>
					<stop  offset="0.3873" style="stop-color:#D2C6E1"/>
					<stop  offset="0.6344" style="stop-color:#A78DC1"/>
					<stop  offset="0.9002" style="stop-color:#794E9D"/>
					<stop  offset="1" style="stop-color:#662F90"/>
				</radialGradient>
				<rect x="21.925" y="45.939" fill="url(#SVGID_15_)" width="24.7" height="0.588"/>
				
					<radialGradient id="SVGID_16_" cx="-165.8423" cy="1363.8516" r="88.4053" gradientTransform="matrix(-0.9137 0 0 -1 -120.1179 1351)" gradientUnits="userSpaceOnUse">
					<stop  offset="0" style="stop-color:#FFFFFF"/>
					<stop  offset="0.1682" style="stop-color:#EFEBF5"/>
					<stop  offset="0.3873" style="stop-color:#D2C6E1"/>
					<stop  offset="0.6344" style="stop-color:#A78DC1"/>
					<stop  offset="0.9002" style="stop-color:#794E9D"/>
					<stop  offset="1" style="stop-color:#662F90"/>
				</radialGradient>
				<rect x="21.748" y="50.836" fill="url(#SVGID_16_)" width="24.7" height="0.588"/>
			</g>
			
				<radialGradient id="SVGID_17_" cx="73.9146" cy="1412.6318" r="54.3621" gradientTransform="matrix(-1.3125 0 0 -1.1892 123.6584 1643.8575)" gradientUnits="userSpaceOnUse">
				<stop  offset="0" style="stop-color:#EAF0E5"/>
				<stop  offset="0.118" style="stop-color:#EAF0E5"/>
				<stop  offset="0.1687" style="stop-color:#E7EDE0"/>
				<stop  offset="0.2376" style="stop-color:#DFE7D6"/>
				<stop  offset="0.3169" style="stop-color:#D2DFC6"/>
				<stop  offset="0.4041" style="stop-color:#BDD1AC"/>
				<stop  offset="0.4966" style="stop-color:#A2C18E"/>
				<stop  offset="0.5562" style="stop-color:#90B77A"/>
				<stop  offset="0.6403" style="stop-color:#85B26E"/>
				<stop  offset="0.8093" style="stop-color:#61A24A"/>
				<stop  offset="0.8315" style="stop-color:#5CA047"/>
				<stop  offset="1" style="stop-color:#5CA047"/>
			</radialGradient>
			<path fill="url(#SVGID_17_)" d="M25.762,7.594c0-1.544,1.383-2.795,3.086-2.795l0,0c1.703,0,3.085,1.251,3.085,2.795v7.338
				c0,1.545-1.382,2.796-3.085,2.796l0,0c-1.703,0-3.086-1.251-3.086-2.796V7.594z"/>
		</g>
		<g>
			
				<radialGradient id="SVGID_18_" cx="2072.7905" cy="-267.6929" r="96.0587" gradientTransform="matrix(1.0008 -9.000000e-04 0 1 -2059.4941 247.6692)" gradientUnits="userSpaceOnUse">
				<stop  offset="0" style="stop-color:#FFFFFF"/>
				<stop  offset="0.2465" style="stop-color:#FEE7D8"/>
				<stop  offset="0.2527" style="stop-color:#FEE6D5"/>
				<stop  offset="0.4396" style="stop-color:#FAB48B"/>
				<stop  offset="0.443" style="stop-color:#FAB389"/>
				<stop  offset="0.528" style="stop-color:#F89F6F"/>
				<stop  offset="0.5995" style="stop-color:#F6945F"/>
				<stop  offset="0.6484" style="stop-color:#F6905A"/>
				<stop  offset="0.6969" style="stop-color:#F58A51"/>
				<stop  offset="0.7582" style="stop-color:#F48143"/>
				<stop  offset="0.7898" style="stop-color:#F47F41"/>
				<stop  offset="0.8317" style="stop-color:#F47B3C"/>
				<stop  offset="0.8794" style="stop-color:#F37534"/>
				<stop  offset="0.9313" style="stop-color:#F16624"/>
				<stop  offset="0.9862" style="stop-color:#0A0C11"/>
				<stop  offset="1" style="stop-color:#010101"/>
			</radialGradient>
			<path fill="url(#SVGID_18_)" d="M0.588,45.03c3.305,3.733,7.895,8.848,9.43,10.657c1.533,1.812,3.109,1.41,4.204,0.053
				c1.007-1.247,8.651-10.042,9.378-10.811c0.877-0.926,0.747-2.246-0.672-2.246c-1.869,0.002-5.07,0.006-5.07,0.006
				s0-10.406,0-12.018c0-1.613-0.862-2.406-2.151-2.406c-1.29,0.002-4.902,0.007-7.094,0.007c-2.192,0.003-2.411,1.12-2.411,2.344
				c0,1.226,0,12.082,0,12.082s-4.23,0.004-5.07,0.006C0.293,42.704-0.631,43.649,0.588,45.03z"/>
			
				<radialGradient id="SVGID_19_" cx="2079.6401" cy="-272.8066" r="98.393" gradientTransform="matrix(1.0008 -9.000000e-04 0 1 -2059.4941 247.6692)" gradientUnits="userSpaceOnUse">
				<stop  offset="0" style="stop-color:#FFFFFF"/>
				<stop  offset="0.2465" style="stop-color:#FEE7D8"/>
				<stop  offset="0.2527" style="stop-color:#FEE6D5"/>
				<stop  offset="0.4396" style="stop-color:#FAB48B"/>
				<stop  offset="0.443" style="stop-color:#FAB389"/>
				<stop  offset="0.528" style="stop-color:#F89F6F"/>
				<stop  offset="0.5995" style="stop-color:#F6945F"/>
				<stop  offset="0.6484" style="stop-color:#F6905A"/>
				<stop  offset="0.6969" style="stop-color:#F58A51"/>
				<stop  offset="0.7582" style="stop-color:#F48143"/>
				<stop  offset="0.7898" style="stop-color:#F47F41"/>
				<stop  offset="0.8317" style="stop-color:#F47B3C"/>
				<stop  offset="0.8794" style="stop-color:#F37534"/>
				<stop  offset="0.9313" style="stop-color:#F16624"/>
				<stop  offset="0.9862" style="stop-color:#0A0C11"/>
				<stop  offset="1" style="stop-color:#010101"/>
			</radialGradient>
			<path fill="url(#SVGID_19_)" d="M15.707,28.783c1.352,0,1.633,1.025,1.633,1.888v12.533l5.589-0.006
				c0.248,0,0.562,0.051,0.667,0.294c0.099,0.23,0.026,0.666-0.37,1.085c-0.721,0.765-8.366,9.554-9.402,10.84
				c-0.361,0.444-0.937,0.976-1.654,0.976c-0.584,0-1.176-0.348-1.758-1.035c-1.021-1.206-8.322-9.409-9.438-10.67
				c-0.389-0.439-0.54-0.85-0.416-1.129c0.102-0.222,0.365-0.34,0.572-0.34l5.586-0.006V30.618c0-1.104,0.133-1.826,1.896-1.828
				L15.707,28.783L15.707,28.783z"/>
			<g>
				
					<radialGradient id="SVGID_20_" cx="2075.4614" cy="-259.2158" r="104.7681" gradientTransform="matrix(1.0008 -9.000000e-04 0 1 -2059.4941 247.6692)" gradientUnits="userSpaceOnUse">
					<stop  offset="0" style="stop-color:#FFFFFF"/>
					<stop  offset="0.2465" style="stop-color:#FEE7D8"/>
					<stop  offset="0.2527" style="stop-color:#FEE6D5"/>
					<stop  offset="0.4396" style="stop-color:#FAB48B"/>
					<stop  offset="0.443" style="stop-color:#FAB389"/>
					<stop  offset="0.528" style="stop-color:#F89F6F"/>
					<stop  offset="0.5995" style="stop-color:#F6945F"/>
					<stop  offset="0.6484" style="stop-color:#F6905A"/>
					<stop  offset="0.6969" style="stop-color:#F58A51"/>
					<stop  offset="0.7582" style="stop-color:#F48143"/>
					<stop  offset="0.7898" style="stop-color:#F47F41"/>
					<stop  offset="0.8317" style="stop-color:#F47B3C"/>
					<stop  offset="0.8794" style="stop-color:#F37534"/>
					<stop  offset="0.9313" style="stop-color:#F16624"/>
					<stop  offset="0.9862" style="stop-color:#0A0C11"/>
					<stop  offset="1" style="stop-color:#010101"/>
				</radialGradient>
				<path fill="url(#SVGID_20_)" d="M7.233,38.997v4.731l-6.103,0.007c-0.037,0-0.09,0.024-0.105,0.041
					c-0.001,0.024,0.036,0.231,0.335,0.567c0.958,1.084,8.448,9.5,9.444,10.68c0.479,0.563,0.938,0.852,1.361,0.852
					c0.515,0,0.967-0.425,1.252-0.779c1.037-1.285,8.704-10.102,9.433-10.873c0.204-0.213,0.258-0.4,0.268-0.488
					c-0.039-0.008-0.1-0.02-0.19-0.02l-6.104,0.008V38.76c-1.912,0.23-3.922,0.357-5.997,0.359
					C9.604,39.119,8.405,39.078,7.233,38.997z"/>
				
					<radialGradient id="SVGID_21_" cx="24.0264" cy="1675.3594" r="104.7674" gradientTransform="matrix(-1.0008 9.000000e-04 0 -1 41.6718 1661.9246)" gradientUnits="userSpaceOnUse">
					<stop  offset="0" style="stop-color:#FFFFFF"/>
					<stop  offset="0.2465" style="stop-color:#FEE7D8"/>
					<stop  offset="0.2527" style="stop-color:#FEE6D5"/>
					<stop  offset="0.4396" style="stop-color:#FAB48B"/>
					<stop  offset="0.443" style="stop-color:#FAB389"/>
					<stop  offset="0.528" style="stop-color:#F89F6F"/>
					<stop  offset="0.5995" style="stop-color:#F6945F"/>
					<stop  offset="0.6484" style="stop-color:#F6905A"/>
					<stop  offset="0.6969" style="stop-color:#F58A51"/>
					<stop  offset="0.7582" style="stop-color:#F48143"/>
					<stop  offset="0.7898" style="stop-color:#F47F41"/>
					<stop  offset="0.8317" style="stop-color:#F47B3C"/>
					<stop  offset="0.8794" style="stop-color:#F37534"/>
					<stop  offset="0.9313" style="stop-color:#F16624"/>
					<stop  offset="0.9862" style="stop-color:#0A0C11"/>
					<stop  offset="1" style="stop-color:#010101"/>
				</radialGradient>
				<path fill="url(#SVGID_21_)" d="M10.828,39.119c2.074-0.002,4.084-0.129,5.997-0.359v-8.087c0-1.22-0.596-1.375-1.117-1.375
					l-7.092,0.007c-1.381,0.002-1.381,0.386-1.381,1.313v8.379C8.405,39.078,9.604,39.119,10.828,39.119z"/>
			</g>
		</g>
	</g>
</g>
</svg>
