<?xml version="1.0" encoding="utf-8"?>
<!-- Generator: Adobe Illustrator 16.0.0, SVG Export Plug-In . SVG Version: 6.00 Build 0)  -->
<!DOCTYPE svg PUBLIC "-//W3C//DTD SVG 1.1//EN" "http://www.w3.org/Graphics/SVG/1.1/DTD/svg11.dtd">
<svg version="1.1" id="Layer_1" xmlns="http://www.w3.org/2000/svg" xmlns:xlink="http://www.w3.org/1999/xlink" x="0px" y="0px"
	 width="320.984px" height="460.478px" viewBox="0 0 320.984 460.478" enable-background="new 0 0 320.984 460.478"
	 xml:space="preserve">
<path fill="#F16624" d="M150.488,7.366c6.627,0,12,5.372,12,12v5.999c0,6.627-5.373,12-12,12h-35.164c-6.627,0-12-5.373-12-12
	v-5.999c0-6.628,5.373-12,12-12H150.488z"/>
<path fill="#F16624" d="M295.426,20.366c5.97,0,10.812,4.593,10.812,10.257v179.485c0,5.666-4.842,10.258-10.812,10.258H17.048
	c-5.97,0-10.812-4.592-10.812-10.258V30.623c0-5.664,4.842-10.257,10.812-10.257H295.426z"/>
<path fill="#662F90" d="M299.926,24.184c5.97,0,10.812,4.593,10.812,10.257v179.485c0,5.666-4.842,10.258-10.812,10.258H21.548
	c-5.97,0-10.812-4.592-10.812-10.258V34.44c0-5.664,4.842-10.257,10.812-10.257H299.926z"/>
<radialGradient id="SVGID_1_" cx="27.8921" cy="245.6279" r="127.4755" gradientTransform="matrix(0 -1 1 0 -79.4741 381.8638)" gradientUnits="userSpaceOnUse">
	<stop  offset="0" style="stop-color:#F79A68"/>
	<stop  offset="1" style="stop-color:#F16624"/>
</radialGradient>
<path fill="url(#SVGID_1_)" d="M305.342,253.972c5.97,0,10.812,4.593,10.812,10.257v179.485c0,5.666-4.842,10.258-10.812,10.258
	H26.964c-5.97,0-10.812-4.592-10.812-10.258V264.229c0-5.664,4.842-10.257,10.812-10.257H305.342z"/>
<path fill="#662F90" d="M214.147,11.185c6.627,0,12,5.372,12,12v5.999c0,6.627-5.373,12-12,12h-35.164c-6.627,0-12-5.373-12-12
	v-5.999c0-6.628,5.373-12,12-12H214.147z"/>
<radialGradient id="SVGID_2_" cx="251.186" cy="245.6279" r="127.4755" gradientTransform="matrix(0 -1 1 0 -79.4741 381.8638)" gradientUnits="userSpaceOnUse">
	<stop  offset="0" style="stop-color:#A5C391"/>
	<stop  offset="1" style="stop-color:#5CA047"/>
</radialGradient>
<path fill="url(#SVGID_2_)" d="M305.342,30.678c5.97,0,10.812,4.593,10.812,10.257V220.42c0,5.666-4.842,10.258-10.812,10.258
	H26.964c-5.97,0-10.812-4.592-10.812-10.258V40.935c0-5.664,4.842-10.257,10.812-10.257H305.342z"/>
<g>
	<path fill="#662F90" d="M49.91,216.366c4.143,0,7.5,3.863,7.5,8.628v32.746c0,4.764-3.357,8.626-7.5,8.626l0,0
		c-4.142,0-7.5-3.862-7.5-8.626v-32.746C42.41,220.229,45.768,216.366,49.91,216.366L49.91,216.366z"/>
	<path fill="#662F90" d="M204.901,216.366c4.143,0,7.5,3.863,7.5,8.628v32.746c0,4.764-3.357,8.626-7.5,8.626l0,0
		c-4.142,0-7.5-3.862-7.5-8.626v-32.746C197.401,220.229,200.759,216.366,204.901,216.366L204.901,216.366z"/>
	<path fill="#662F90" d="M282.397,216.366c4.143,0,7.5,3.863,7.5,8.628v32.746c0,4.764-3.357,8.626-7.5,8.626l0,0
		c-4.142,0-7.5-3.862-7.5-8.626v-32.746C274.897,220.229,278.255,216.366,282.397,216.366L282.397,216.366z"/>
	<path fill="#662F90" d="M127.406,216.366c4.143,0,7.5,3.863,7.5,8.628v32.746c0,4.764-3.357,8.626-7.5,8.626l0,0
		c-4.142,0-7.5-3.862-7.5-8.626v-32.746C119.906,220.229,123.264,216.366,127.406,216.366L127.406,216.366z"/>
	<path fill="#662F90" d="M256.565,216.366c4.143,0,7.5,3.863,7.5,8.628v32.746c0,4.764-3.357,8.626-7.5,8.626l0,0
		c-4.142,0-7.5-3.862-7.5-8.626v-32.746C249.065,220.229,252.423,216.366,256.565,216.366L256.565,216.366z"/>
	<path fill="#662F90" d="M230.733,216.366c4.143,0,7.5,3.863,7.5,8.628v32.746c0,4.764-3.357,8.626-7.5,8.626l0,0
		c-4.142,0-7.5-3.862-7.5-8.626v-32.746C223.233,220.229,226.591,216.366,230.733,216.366L230.733,216.366z"/>
	<path fill="#662F90" d="M101.574,216.366c4.143,0,7.5,3.863,7.5,8.628v32.746c0,4.764-3.357,8.626-7.5,8.626l0,0
		c-4.142,0-7.5-3.862-7.5-8.626v-32.746C94.074,220.229,97.432,216.366,101.574,216.366L101.574,216.366z"/>
	<path fill="#662F90" d="M153.238,216.366c4.143,0,7.5,3.863,7.5,8.628v32.746c0,4.764-3.357,8.626-7.5,8.626l0,0
		c-4.142,0-7.5-3.862-7.5-8.626v-32.746C145.738,220.229,149.096,216.366,153.238,216.366L153.238,216.366z"/>
	<path fill="#662F90" d="M179.069,216.366c4.143,0,7.5,3.863,7.5,8.628v32.746c0,4.764-3.357,8.626-7.5,8.626l0,0
		c-4.142,0-7.5-3.862-7.5-8.626v-32.746C171.569,220.229,174.927,216.366,179.069,216.366L179.069,216.366z"/>
	<path fill="#662F90" d="M75.742,216.366c4.143,0,7.5,3.863,7.5,8.628v32.746c0,4.764-3.357,8.626-7.5,8.626l0,0
		c-4.142,0-7.5-3.862-7.5-8.626v-32.746C68.242,220.229,71.6,216.366,75.742,216.366L75.742,216.366z"/>
</g>
<text transform="matrix(1 0 0 1 37.8765 172.3486)" fill="#FFFFFF" font-family="'TrebuchetMS'" font-size="140">Port</text>
<path fill="#5CA047" d="M277.897,13.383c6.627,0,12,5.372,12,12v5.999c0,6.627-5.373,12-12,12h-35.164c-6.627,0-12-5.373-12-12
	v-5.999c0-6.628,5.373-12,12-12H277.897z"/>
<text transform="matrix(1 0 0 1 24.5464 395.6416)" fill="#FFFFFF" font-family="'TrebuchetMS'" font-size="140">folio</text>
</svg>
