<?xml version="1.0" encoding="utf-8"?>
<!-- Generator: Adobe Illustrator 16.0.0, SVG Export Plug-In . SVG Version: 6.00 Build 0)  -->
<!DOCTYPE svg PUBLIC "-//W3C//DTD SVG 1.1//EN" "http://www.w3.org/Graphics/SVG/1.1/DTD/svg11.dtd">
<svg version="1.1" id="Layer_1" xmlns="http://www.w3.org/2000/svg" xmlns:xlink="http://www.w3.org/1999/xlink" x="0px" y="0px"
	 width="256px" height="256px" viewBox="0 0 256 256" enable-background="new 0 0 256 256" xml:space="preserve">
<g>
	<g>
		
			<linearGradient id="SVGID_1_" gradientUnits="userSpaceOnUse" x1="154.043" y1="165.8232" x2="216.9141" y2="165.8232" gradientTransform="matrix(-1 0 0 1 254.2949 0)">
			<stop  offset="0.0056" style="stop-color:#AD95C5"/>
			<stop  offset="0.0905" style="stop-color:#9F82BA"/>
			<stop  offset="0.2344" style="stop-color:#8C6AAC"/>
			<stop  offset="0.3517" style="stop-color:#815BA4"/>
			<stop  offset="0.427" style="stop-color:#7E55A1"/>
			<stop  offset="0.6164" style="stop-color:#744599"/>
			<stop  offset="0.8497" style="stop-color:#6A3592"/>
			<stop  offset="1" style="stop-color:#662F90"/>
		</linearGradient>
		<path fill="url(#SVGID_1_)" d="M37.381,224.896v17.708c0,1.655,1.477,3,3.299,3h56.272c1.823,0,3.3-1.345,3.3-3v-17.708
			c0-1.658-1.477-3-3.3-3h-3.401V98.482c0-0.434-0.326-0.783-0.727-0.783h-6.885c0-0.011,0.001-0.021,0.001-0.033v-2.992
			c0-0.434-0.325-0.786-0.726-0.786h-3.311c0.001-0.025,0.005-0.06,0.005-0.091v-2.991c0-0.432-0.325-0.783-0.728-0.783h-2.275
			c0.017-0.066,0.025-0.135,0.025-0.205v-2.99c0-0.432-0.323-0.785-0.726-0.785H62.105c-0.403,0-0.727,0.354-0.727,0.785v2.99
			c0,0.07,0.009,0.139,0.027,0.205h-2.279c-0.402,0-0.726,0.352-0.726,0.783v2.991c0,0.031,0.003,0.065,0.005,0.091h-3.31
			c-0.403,0-0.727,0.353-0.727,0.786v2.992c0,0.012,0,0.022,0,0.033h-6.883c-0.402,0-0.729,0.35-0.729,0.783v123.414H40.68
			C38.857,221.896,37.381,223.238,37.381,224.896z M48.04,99.378c0-0.433,0.325-0.781,0.728-0.781h42.774
			c0.402,0,0.726,0.349,0.726,0.781v122.519h-3.246V102.147c0-0.606-0.423-1.094-0.941-1.094c-0.522,0-0.944,0.487-0.944,1.094
			v119.749h-2.755V102.147c0-0.606-0.42-1.094-0.941-1.094s-0.942,0.487-0.942,1.094v119.749h-2.755V102.147
			c0-0.606-0.423-1.094-0.943-1.094c-0.52,0-0.942,0.487-0.942,1.094v119.749H62.225V102.147c0-0.606-0.422-1.094-0.942-1.094
			s-0.943,0.487-0.943,1.094v119.749h-2.754V102.147c0-0.606-0.421-1.094-0.942-1.094s-0.942,0.487-0.942,1.094v119.749h-2.756
			V102.147c0-0.606-0.421-1.094-0.938-1.094c-0.524,0-0.946,0.487-0.946,1.094v119.749h-3.02V99.378z"/>
		
			<linearGradient id="SVGID_2_" gradientUnits="userSpaceOnUse" x1="178.752" y1="160.2266" x2="189.4482" y2="160.2266" gradientTransform="matrix(-1 0 0 1 254.2949 0)">
			<stop  offset="0.0674" style="stop-color:#7BAD62"/>
			<stop  offset="1" style="stop-color:#8865A9"/>
		</linearGradient>
		<path fill="url(#SVGID_2_)" d="M64.847,104.578v0.891c0,0.491,0.435,0.888,0.972,0.888h8.754c0.534,0,0.971-0.396,0.971-0.888
			v-0.891c0-0.49-0.437-0.887-0.971-0.887h-8.754C65.281,103.691,64.847,104.088,64.847,104.578z M64.847,109.829v0.89
			c0,0.49,0.435,0.886,0.972,0.886h8.754c0.534,0,0.971-0.396,0.971-0.886v-0.89c0-0.491-0.437-0.887-0.971-0.887h-8.754
			C65.281,108.942,64.847,109.338,64.847,109.829z M64.847,115.077v0.893c0,0.491,0.435,0.884,0.972,0.884h8.754
			c0.534,0,0.971-0.393,0.971-0.884v-0.893c0-0.487-0.437-0.884-0.971-0.884h-8.754C65.281,114.193,64.847,114.59,64.847,115.077z
			 M64.847,120.327v0.894c0,0.487,0.435,0.887,0.972,0.887h8.754c0.534,0,0.971-0.399,0.971-0.887v-0.894
			c0-0.488-0.437-0.884-0.971-0.884h-8.754C65.281,119.443,64.847,119.839,64.847,120.327z M64.847,125.578v0.89
			c0,0.491,0.435,0.884,0.972,0.884h8.754c0.534,0,0.971-0.393,0.971-0.884v-0.89c0-0.495-0.437-0.887-0.971-0.887h-8.754
			C65.281,124.691,64.847,125.083,64.847,125.578z M64.847,130.829v0.889c0,0.487,0.435,0.885,0.972,0.885h8.754
			c0.534,0,0.971-0.397,0.971-0.885v-0.889c0-0.495-0.437-0.892-0.971-0.892h-8.754C65.281,129.938,64.847,130.334,64.847,130.829z
			 M64.847,136.075v0.894c0,0.488,0.435,0.885,0.972,0.885h8.754c0.534,0,0.971-0.396,0.971-0.885v-0.894
			c0-0.49-0.437-0.887-0.971-0.887h-8.754C65.281,135.188,64.847,135.585,64.847,136.075z M64.847,141.324v0.893
			c0,0.487,0.435,0.887,0.972,0.887h8.754c0.534,0,0.971-0.399,0.971-0.887v-0.893c0-0.487-0.437-0.885-0.971-0.885h-8.754
			C65.281,140.439,64.847,140.837,64.847,141.324z M64.847,146.574v0.893c0,0.487,0.435,0.884,0.972,0.884h8.754
			c0.534,0,0.971-0.396,0.971-0.884v-0.893c0-0.491-0.437-0.889-0.971-0.889h-8.754C65.281,145.686,64.847,146.083,64.847,146.574z
			 M64.847,151.821v0.894c0,0.49,0.435,0.887,0.972,0.887h8.754c0.534,0,0.971-0.396,0.971-0.887v-0.894
			c0-0.487-0.437-0.884-0.971-0.884h-8.754C65.281,150.938,64.847,151.334,64.847,151.821z M64.847,157.072v0.89
			c0,0.494,0.435,0.89,0.972,0.89h8.754c0.534,0,0.971-0.396,0.971-0.89v-0.89c0-0.487-0.437-0.884-0.971-0.884h-8.754
			C65.281,156.188,64.847,156.585,64.847,157.072z M64.847,162.322v0.891c0,0.489,0.435,0.887,0.972,0.887h8.754
			c0.534,0,0.971-0.397,0.971-0.887v-0.891c0-0.487-0.437-0.883-0.971-0.883h-8.754C65.281,161.439,64.847,161.835,64.847,162.322z
			 M64.847,167.57v0.894c0,0.49,0.435,0.883,0.972,0.883h8.754c0.534,0,0.971-0.393,0.971-0.883v-0.894
			c0-0.491-0.437-0.885-0.971-0.885h-8.754C65.281,166.686,64.847,167.079,64.847,167.57z M64.847,172.816v0.897
			c0,0.487,0.435,0.883,0.972,0.883h8.754c0.534,0,0.971-0.396,0.971-0.883v-0.897c0-0.486-0.437-0.882-0.971-0.882h-8.754
			C65.281,171.935,64.847,172.33,64.847,172.816z M64.847,178.067v0.897c0,0.488,0.435,0.883,0.972,0.883h8.754
			c0.534,0,0.971-0.395,0.971-0.883v-0.897c0-0.487-0.437-0.883-0.971-0.883h-8.754C65.281,177.185,64.847,177.58,64.847,178.067z
			 M64.847,183.318v0.895c0,0.487,0.435,0.884,0.972,0.884h8.754c0.534,0,0.971-0.396,0.971-0.884v-0.895
			c0-0.487-0.437-0.882-0.971-0.882h-8.754C65.281,182.437,64.847,182.831,64.847,183.318z M64.847,188.743v0.895
			c0,0.487,0.435,0.884,0.972,0.884h8.754c0.534,0,0.971-0.396,0.971-0.884v-0.895c0-0.492-0.437-0.887-0.971-0.887h-8.754
			C65.281,187.856,64.847,188.251,64.847,188.743z M64.847,193.99v0.896c0,0.49,0.435,0.882,0.972,0.882h8.754
			c0.534,0,0.971-0.392,0.971-0.882v-0.896c0-0.49-0.437-0.882-0.971-0.882h-8.754C65.281,193.108,64.847,193.5,64.847,193.99z
			 M64.847,199.241v0.892c0,0.489,0.435,0.886,0.972,0.886h8.754c0.534,0,0.971-0.396,0.971-0.886v-0.892
			c0-0.49-0.437-0.885-0.971-0.885h-8.754C65.281,198.356,64.847,198.751,64.847,199.241z M64.847,204.492v0.892
			c0,0.489,0.435,0.887,0.972,0.887h8.754c0.534,0,0.971-0.397,0.971-0.887v-0.892c0-0.49-0.437-0.887-0.971-0.887h-8.754
			C65.281,203.605,64.847,204.002,64.847,204.492z M64.847,209.741v0.889c0,0.495,0.435,0.892,0.972,0.892h8.754
			c0.534,0,0.971-0.396,0.971-0.892v-0.889c0-0.488-0.437-0.885-0.971-0.885h-8.754C65.281,208.856,64.847,209.253,64.847,209.741z
			 M64.847,214.987v0.894c0,0.49,0.435,0.882,0.972,0.882h8.754c0.534,0,0.971-0.392,0.971-0.882v-0.894
			c0-0.487-0.437-0.882-0.971-0.882h-8.754C65.281,214.105,64.847,214.5,64.847,214.987z"/>
		<path fill="#75479A" d="M75.845,80.712H64.014c-0.35,0-0.635-0.335-0.635-0.756v-0.323c0-0.414,0.285-0.75,0.635-0.75h1.796
			V63.655c0-0.423,0.376-0.763,0.838-0.763c0.464,0,0.836,0.34,0.836,0.763v15.228h1.49V47.227c0-0.418,0.375-0.759,0.837-0.759
			s0.839,0.341,0.839,0.759v31.656h1.672V63.655c0-0.423,0.376-0.763,0.839-0.763c0.464,0,0.837,0.34,0.837,0.763v15.228h1.848
			c0.35,0,0.636,0.336,0.636,0.75v0.323C76.48,80.377,76.194,80.712,75.845,80.712z"/>
		<path fill="#5CA047" d="M77.3,84.773H62.556c-0.437,0-0.792-0.421-0.792-0.933v-0.407c0-0.519,0.355-0.938,0.792-0.938H77.3
			c0.438,0,0.791,0.419,0.791,0.938v0.407C78.091,84.353,77.737,84.773,77.3,84.773z"/>
		<path fill="#FFFFFF" d="M62.247,90.022h15.818v-2.301c0-0.433-0.326-0.781-0.727-0.781H62.975c-0.402,0-0.728,0.349-0.728,0.781
			V90.022z M59.269,93.888H81.04V91.7c0-0.429-0.324-0.781-0.726-0.781h-20.32c-0.4,0-0.726,0.353-0.726,0.781V93.888z
			 M55.238,95.566v2.133h29.834v-2.133c0-0.433-0.323-0.781-0.727-0.781H55.964C55.562,94.785,55.238,95.134,55.238,95.566z"/>
		
			<linearGradient id="SVGID_3_" gradientUnits="userSpaceOnUse" x1="155.9043" y1="233.5732" x2="214.6807" y2="233.5732" gradientTransform="matrix(-1 0 0 1 254.2949 0)">
			<stop  offset="0.0056" style="stop-color:#AD95C5"/>
			<stop  offset="0.0905" style="stop-color:#9F82BA"/>
			<stop  offset="0.2344" style="stop-color:#8C6AAC"/>
			<stop  offset="0.3517" style="stop-color:#815BA4"/>
			<stop  offset="0.427" style="stop-color:#7E55A1"/>
			<stop  offset="0.6164" style="stop-color:#744599"/>
			<stop  offset="0.8497" style="stop-color:#6A3592"/>
			<stop  offset="1" style="stop-color:#662F90"/>
		</linearGradient>
		<path fill="url(#SVGID_3_)" d="M39.614,241.094c0,1.408,1.222,2.547,2.729,2.547H95.66c1.507,0,2.73-1.139,2.73-2.547v-15.039
			c0-1.405-1.224-2.549-2.73-2.549H42.344c-1.508,0-2.729,1.144-2.729,2.549V241.094z"/>
		<path fill="#FFFFFF" d="M70.578,227.135v0.48c0,0.487,0.743,0.889,1.66,0.889h20.753c0.918,0,1.66-0.401,1.66-0.889v-0.48
			c0-0.489-0.742-0.894-1.66-0.894H72.238C71.321,226.241,70.578,226.646,70.578,227.135z M43.293,227.135v0.48
			c0,0.487,0.742,0.889,1.659,0.889H65.71c0.914,0,1.658-0.401,1.658-0.889v-0.48c0-0.489-0.744-0.894-1.658-0.894H44.952
			C44.035,226.241,43.293,226.646,43.293,227.135z M70.578,232.778v0.482c0,0.487,0.743,0.887,1.66,0.887h20.753
			c0.918,0,1.66-0.399,1.66-0.887v-0.482c0-0.487-0.742-0.892-1.66-0.892H72.238C71.321,231.887,70.578,232.291,70.578,232.778z
			 M43.293,232.778v0.482c0,0.487,0.742,0.887,1.659,0.887H65.71c0.914,0,1.658-0.399,1.658-0.887v-0.482
			c0-0.487-0.744-0.892-1.658-0.892H44.952C44.035,231.887,43.293,232.291,43.293,232.778z M70.578,238.424v0.478
			c0,0.495,0.743,0.889,1.66,0.889h20.753c0.918,0,1.66-0.394,1.66-0.889v-0.478c0-0.492-0.742-0.89-1.66-0.89H72.238
			C71.321,237.534,70.578,237.932,70.578,238.424z M43.293,238.424v0.478c0,0.495,0.742,0.889,1.659,0.889H65.71
			c0.914,0,1.658-0.394,1.658-0.889v-0.478c0-0.492-0.744-0.89-1.658-0.89H44.952C44.035,237.534,43.293,237.932,43.293,238.424z"/>
	</g>
	<g>
		
			<linearGradient id="SVGID_4_" gradientUnits="userSpaceOnUse" x1="204.9814" y1="201.1719" x2="240.4941" y2="201.1719" gradientTransform="matrix(-1 0 0 1 254.2949 0)">
			<stop  offset="0.0056" style="stop-color:#FFFFFF"/>
			<stop  offset="1" style="stop-color:#5FA149"/>
		</linearGradient>
		<path fill="url(#SVGID_4_)" d="M20.333,163.35c-0.837,0-1.519,0.247-1.519,0.549v69.245l-5.014,0.279v12.058h35.513v-11.967
			l-3.447-0.276v-68.46c0-0.304-0.68-1.38-1.521-1.38h-2.89c0.002-0.015,0.006-1.676,0.006-1.676c0-0.302-0.457-0.548-1.019-0.548
			h-1.716c0.08-0.091,0.312-1.944-0.106-1.944h-1.385c0-0.015,0.004-1.81,0.004-1.81c0-0.309-0.245-0.556-0.546-0.556h-8.617
			c-0.301,0-0.545,0.247-0.545,0.556v1.773c0,0.01-1.13,0.036-1.13,0.036c-0.418,0-0.757,0.248-0.757,0.552
			c0,0,0.05,1.302,0.129,1.393h-1.447c-0.561,0-1.019,0.246-1.019,0.548c0,0,0.005,1.618,0.006,1.628H20.333z"/>
		<path fill="#FFFFFF" d="M29.068,166.894v0.505c0,0.271,0.257,0.494,0.574,0.494h5.17c0.314,0,0.571-0.223,0.571-0.494v-0.505
			c0-0.273-0.257-0.495-0.571-0.495h-5.17C29.325,166.398,29.068,166.62,29.068,166.894z M29.068,169.844v0.501
			c0,0.276,0.257,0.494,0.574,0.494h5.17c0.314,0,0.571-0.218,0.571-0.494v-0.501c0-0.273-0.257-0.499-0.571-0.499h-5.17
			C29.325,169.345,29.068,169.57,29.068,169.844z M29.068,172.794v0.497c0,0.276,0.257,0.5,0.574,0.5h5.17
			c0.314,0,0.571-0.224,0.571-0.5v-0.497c0-0.275-0.257-0.497-0.571-0.497h-5.17C29.325,172.297,29.068,172.519,29.068,172.794z
			 M29.068,175.741v0.501c0,0.276,0.257,0.497,0.574,0.497h5.17c0.314,0,0.571-0.221,0.571-0.497v-0.501
			c0-0.272-0.257-0.494-0.571-0.494h-5.17C29.325,175.247,29.068,175.469,29.068,175.741z M29.068,178.691v0.505
			c0,0.272,0.257,0.499,0.574,0.499h5.17c0.314,0,0.571-0.227,0.571-0.499v-0.505c0-0.271-0.257-0.497-0.571-0.497h-5.17
			C29.325,178.194,29.068,178.42,29.068,178.691z M29.068,181.643v0.501c0,0.273,0.257,0.495,0.574,0.495h5.17
			c0.314,0,0.571-0.222,0.571-0.495v-0.501c0-0.272-0.257-0.498-0.571-0.498h-5.17C29.325,181.145,29.068,181.37,29.068,181.643z
			 M29.068,184.589v0.503c0,0.275,0.257,0.497,0.574,0.497h5.17c0.314,0,0.571-0.222,0.571-0.497v-0.503
			c0-0.271-0.257-0.497-0.571-0.497h-5.17C29.325,184.092,29.068,184.317,29.068,184.589z M29.068,187.541v0.504
			c0,0.272,0.257,0.495,0.574,0.495h5.17c0.314,0,0.571-0.223,0.571-0.495v-0.504c0-0.274-0.257-0.499-0.571-0.499h-5.17
			C29.325,187.042,29.068,187.267,29.068,187.541z M29.068,190.49v0.501c0,0.277,0.257,0.499,0.574,0.499h5.17
			c0.314,0,0.571-0.222,0.571-0.499v-0.501c0-0.275-0.257-0.498-0.571-0.498h-5.17C29.325,189.992,29.068,190.215,29.068,190.49z
			 M29.068,193.44v0.502c0,0.272,0.257,0.498,0.574,0.498h5.17c0.314,0,0.571-0.226,0.571-0.498v-0.502
			c0-0.276-0.257-0.502-0.571-0.502h-5.17C29.325,192.938,29.068,193.164,29.068,193.44z M29.068,196.387v0.506
			c0,0.273,0.257,0.495,0.574,0.495h5.17c0.314,0,0.571-0.222,0.571-0.495v-0.506c0-0.271-0.257-0.492-0.571-0.492h-5.17
			C29.325,195.895,29.068,196.115,29.068,196.387z M29.068,199.339v0.502c0,0.271,0.257,0.497,0.574,0.497h5.17
			c0.314,0,0.571-0.226,0.571-0.497v-0.502c0-0.277-0.257-0.495-0.571-0.495h-5.17C29.325,198.844,29.068,199.062,29.068,199.339z
			 M29.068,202.285v0.506c0,0.276,0.257,0.497,0.574,0.497h5.17c0.314,0,0.571-0.221,0.571-0.497v-0.506
			c0-0.272-0.257-0.492-0.571-0.492h-5.17C29.325,201.793,29.068,202.013,29.068,202.285z M29.068,205.24v0.497
			c0,0.28,0.257,0.498,0.574,0.498h5.17c0.314,0,0.571-0.218,0.571-0.498v-0.497c0-0.279-0.257-0.497-0.571-0.497h-5.17
			C29.325,204.743,29.068,204.961,29.068,205.24z M29.068,208.187v0.502c0,0.276,0.257,0.497,0.574,0.497h5.17
			c0.314,0,0.571-0.221,0.571-0.497v-0.502c0-0.277-0.257-0.494-0.571-0.494h-5.17C29.325,207.692,29.068,207.909,29.068,208.187z
			 M29.068,211.138v0.502c0,0.274,0.257,0.492,0.574,0.492h5.17c0.314,0,0.571-0.218,0.571-0.492v-0.502
			c0-0.276-0.257-0.497-0.571-0.497h-5.17C29.325,210.641,29.068,210.861,29.068,211.138z M29.068,214.187v0.5
			c0,0.274,0.257,0.495,0.574,0.495h5.17c0.314,0,0.571-0.221,0.571-0.495v-0.5c0-0.276-0.257-0.502-0.571-0.502h-5.17
			C29.325,213.685,29.068,213.91,29.068,214.187z M29.068,217.134v0.497c0,0.279,0.257,0.502,0.574,0.502h5.17
			c0.314,0,0.571-0.223,0.571-0.502v-0.497c0-0.277-0.257-0.495-0.571-0.495h-5.17C29.325,216.639,29.068,216.856,29.068,217.134z
			 M29.068,220.08v0.504c0,0.274,0.257,0.5,0.574,0.5h5.17c0.314,0,0.571-0.226,0.571-0.5v-0.504c0-0.272-0.257-0.495-0.571-0.495
			h-5.17C29.325,219.585,29.068,219.808,29.068,220.08z M29.068,223.033v0.503c0,0.271,0.257,0.497,0.574,0.497h5.17
			c0.314,0,0.571-0.226,0.571-0.497v-0.503c0-0.276-0.257-0.497-0.571-0.497h-5.17C29.325,222.536,29.068,222.757,29.068,223.033z
			 M29.068,225.982v0.5c0,0.274,0.257,0.497,0.574,0.497h5.17c0.314,0,0.571-0.223,0.571-0.497v-0.5c0-0.274-0.257-0.5-0.571-0.5
			h-5.17C29.325,225.482,29.068,225.708,29.068,225.982z M29.068,228.932v0.502c0,0.276,0.257,0.494,0.574,0.494h5.17
			c0.314,0,0.571-0.218,0.571-0.494v-0.502c0-0.274-0.257-0.497-0.571-0.497h-5.17C29.325,228.435,29.068,228.657,29.068,228.932z"
			/>
		<path fill="#FFFFFF" d="M35.939,153.059v-0.177c0-0.238-0.17-0.422-0.377-0.422h-1.091v-8.558c0-0.24-0.221-0.434-0.494-0.434
			s-0.493,0.193-0.493,0.434v8.558h-0.988v-17.791c0-0.232-0.223-0.426-0.496-0.426c-0.272,0-0.494,0.193-0.494,0.426v17.791h-0.88
			v-8.558c0-0.24-0.221-0.434-0.495-0.434c-0.272,0-0.492,0.193-0.492,0.434v8.558h-1.063c-0.205,0-0.373,0.184-0.373,0.422v0.177
			c0,0.236,0.168,0.422,0.373,0.422h6.987C35.769,153.48,35.939,153.295,35.939,153.059z M36.891,155.239v-0.229
			c0-0.289-0.21-0.522-0.469-0.522h-8.708c-0.258,0-0.467,0.233-0.467,0.522v0.229c0,0.29,0.209,0.527,0.467,0.527h8.708
			C36.681,155.767,36.891,155.529,36.891,155.239z M12.848,234.496v9.951c0,0.931,0.872,1.683,1.947,1.683h33.233
			c1.076,0,1.948-0.752,1.948-1.683v-9.951c0-0.931-0.872-1.688-1.948-1.688h-2.008v-69.342c0-0.24-0.193-0.436-0.432-0.436h-4.063
			c0-0.009,0-0.015,0-0.02v-1.683c0-0.246-0.191-0.443-0.43-0.443h-1.954c0.001-0.015,0.002-0.032,0.002-0.051v-1.679
			c0-0.247-0.191-0.439-0.429-0.439h-1.344c0.008-0.035,0.015-0.076,0.015-0.116v-1.683c0-0.24-0.191-0.438-0.43-0.438h-9.509
			c-0.236,0-0.428,0.198-0.428,0.438v1.683c0,0.04,0.004,0.081,0.015,0.116h-1.346c-0.235,0-0.429,0.192-0.429,0.439v1.679
			c0,0.019,0.002,0.036,0.003,0.051h-1.952c-0.239,0-0.432,0.197-0.432,0.443v1.683c0,0.005,0,0.011,0,0.02h-4.063
			c-0.236,0-0.43,0.195-0.43,0.436v69.342h-3.591C13.72,232.809,12.848,233.565,12.848,234.496z M36.874,158.717h-9.342v-1.297
			c0-0.24,0.192-0.436,0.431-0.436h8.482c0.237,0,0.429,0.195,0.429,0.436V158.717z M38.632,160.886H25.773v-1.228
			c0-0.244,0.194-0.436,0.431-0.436h11.999c0.237,0,0.43,0.191,0.43,0.436V160.886z M41.014,163.031H23.391v-1.2
			c0-0.24,0.194-0.439,0.431-0.439h16.763c0.237,0,0.43,0.199,0.43,0.439V163.031z M45.263,232.809h-1.917v-67.282
			c0-0.338-0.249-0.614-0.557-0.614c-0.309,0-0.558,0.276-0.558,0.614v67.282h-1.627v-67.282c0-0.338-0.249-0.614-0.557-0.614
			c-0.309,0-0.557,0.276-0.557,0.614v67.282h-1.627v-67.282c0-0.338-0.249-0.614-0.558-0.614c-0.306,0-0.557,0.276-0.557,0.614
			v67.282h-9.23v-67.282c0-0.338-0.25-0.614-0.556-0.614c-0.309,0-0.557,0.276-0.557,0.614v67.282h-1.627v-67.282
			c0-0.338-0.251-0.614-0.558-0.614c-0.308,0-0.556,0.276-0.556,0.614v67.282h-1.629v-67.282c0-0.338-0.248-0.614-0.556-0.614
			c-0.307,0-0.557,0.276-0.557,0.614v67.282h-1.782v-68.835c0-0.246,0.191-0.438,0.428-0.438h25.262c0.236,0,0.43,0.192,0.43,0.438
			V232.809z M14.167,235.15c0-0.794,0.723-1.434,1.611-1.434h31.488c0.888,0,1.609,0.64,1.609,1.434v8.447
			c0,0.788-0.722,1.433-1.609,1.433H15.779c-0.889,0-1.611-0.645-1.611-1.433V235.15z"/>
		
			<linearGradient id="SVGID_5_" gradientUnits="userSpaceOnUse" x1="222.79" y1="234.082" x2="222.79" y2="245.901" gradientTransform="matrix(-1 0 0 1 254.2949 0)">
			<stop  offset="0" style="stop-color:#F16624"/>
			<stop  offset="1" style="stop-color:#8865A9"/>
		</linearGradient>
		<path fill="url(#SVGID_5_)" d="M32.454,235.755v0.27c0,0.276,0.438,0.497,0.98,0.497h12.255c0.543,0,0.982-0.221,0.982-0.497
			v-0.27c0-0.279-0.439-0.497-0.982-0.497H33.434C32.891,235.258,32.454,235.476,32.454,235.755z M16.339,235.755v0.27
			c0,0.276,0.439,0.497,0.98,0.497h12.257c0.54,0,0.98-0.221,0.98-0.497v-0.27c0-0.279-0.44-0.497-0.98-0.497H17.32
			C16.779,235.258,16.339,235.476,16.339,235.755z M32.454,238.924v0.272c0,0.276,0.438,0.499,0.98,0.499h12.255
			c0.543,0,0.982-0.223,0.982-0.499v-0.272c0-0.271-0.439-0.497-0.982-0.497H33.434C32.891,238.427,32.454,238.652,32.454,238.924z
			 M16.339,238.924v0.272c0,0.276,0.439,0.499,0.98,0.499h12.257c0.54,0,0.98-0.223,0.98-0.499v-0.272
			c0-0.271-0.44-0.497-0.98-0.497H17.32C16.779,238.427,16.339,238.652,16.339,238.924z M32.454,242.096v0.27
			c0,0.277,0.438,0.502,0.98,0.502h12.255c0.543,0,0.982-0.225,0.982-0.502v-0.27c0-0.276-0.439-0.497-0.982-0.497H33.434
			C32.891,241.599,32.454,241.819,32.454,242.096z M16.339,242.096v0.27c0,0.277,0.439,0.502,0.98,0.502h12.257
			c0.54,0,0.98-0.225,0.98-0.502v-0.27c0-0.276-0.44-0.497-0.98-0.497H17.32C16.779,241.599,16.339,241.819,16.339,242.096z"/>
	</g>
	<g>
		
			<linearGradient id="SVGID_6_" gradientUnits="userSpaceOnUse" x1="18.6094" y1="193.9473" x2="89.0293" y2="193.9473" gradientTransform="matrix(-1 0 0 1 254.2949 0)">
			<stop  offset="0.0674" style="stop-color:#7BAD62"/>
			<stop  offset="1" style="stop-color:#8865A9"/>
		</linearGradient>
		<polygon fill="url(#SVGID_6_)" points="165.266,159.877 165.719,243.817 235.686,243.817 235.686,144.077 185.925,144.077 
			185.318,159.746 		"/>
		<path fill="#FFFFFF" d="M177.479,202.842v4.347c0,0.201,0.182,0.36,0.402,0.36h11.086c0.223,0,0.402-0.159,0.402-0.36v-4.347
			c0-0.199-0.18-0.358-0.402-0.358h-11.086C177.66,202.483,177.479,202.643,177.479,202.842z M192.918,185.085v4.342
			c0,0.201,0.18,0.36,0.402,0.36h11.084c0.223,0,0.401-0.159,0.401-0.36v-4.342c0-0.204-0.179-0.36-0.401-0.36H193.32
			C193.098,184.725,192.918,184.881,192.918,185.085z M177.479,185.085v4.342c0,0.201,0.182,0.36,0.402,0.36h11.086
			c0.223,0,0.402-0.159,0.402-0.36v-4.342c0-0.204-0.18-0.36-0.402-0.36h-11.086C177.66,184.725,177.479,184.881,177.479,185.085z
			 M192.918,193.966v4.342c0,0.196,0.18,0.355,0.402,0.355h11.084c0.223,0,0.401-0.159,0.401-0.355v-4.342
			c0-0.201-0.179-0.363-0.401-0.363H193.32C193.098,193.603,192.918,193.765,192.918,193.966z M177.479,193.966v4.342
			c0,0.196,0.182,0.355,0.402,0.355h11.086c0.223,0,0.402-0.159,0.402-0.355v-4.342c0-0.201-0.18-0.363-0.402-0.363h-11.086
			C177.66,193.603,177.479,193.765,177.479,193.966z M177.479,211.723v4.342c0,0.201,0.182,0.365,0.402,0.365h11.086
			c0.223,0,0.402-0.164,0.402-0.365v-4.342c0-0.193-0.18-0.355-0.402-0.355h-11.086C177.66,211.367,177.479,211.529,177.479,211.723
			z M208.355,193.966v4.342c0,0.196,0.182,0.355,0.402,0.355h11.084c0.225,0,0.404-0.159,0.404-0.355v-4.342
			c0-0.201-0.18-0.363-0.404-0.363h-11.084C208.537,193.603,208.355,193.765,208.355,193.966z M208.355,185.085v4.342
			c0,0.201,0.182,0.36,0.402,0.36h11.084c0.225,0,0.404-0.159,0.404-0.36v-4.342c0-0.204-0.18-0.36-0.404-0.36h-11.084
			C208.537,184.725,208.355,184.881,208.355,185.085z M192.918,202.842v4.347c0,0.201,0.18,0.36,0.402,0.36h11.084
			c0.223,0,0.401-0.159,0.401-0.36v-4.347c0-0.199-0.179-0.358-0.401-0.358H193.32C193.098,202.483,192.918,202.643,192.918,202.842
			z M192.918,211.723v4.342c0,0.201,0.18,0.365,0.402,0.365h11.084c0.223,0,0.401-0.164,0.401-0.365v-4.342
			c0-0.193-0.179-0.355-0.401-0.355H193.32C193.098,211.367,192.918,211.529,192.918,211.723z M208.355,202.842v4.347
			c0,0.201,0.182,0.36,0.402,0.36h11.084c0.225,0,0.404-0.159,0.404-0.36v-4.347c0-0.199-0.18-0.358-0.404-0.358h-11.084
			C208.537,202.483,208.355,202.643,208.355,202.842z M208.355,211.723v4.342c0,0.201,0.182,0.365,0.402,0.365h11.084
			c0.225,0,0.404-0.164,0.404-0.365v-4.342c0-0.193-0.18-0.355-0.404-0.355h-11.084
			C208.537,211.367,208.355,211.529,208.355,211.723z M164.389,243.624v2.875h70.995v0.052h2.53V143.166h-51.76
			c-0.986,0-1.787,0.69-1.787,1.548v13.728H166.25c-0.988,0-1.787,0.691-1.787,1.545v83.638H164.389z M197.084,227.88
			c0-1.665,1.922-3.013,4.291-3.013h34.009v3.157h-34.668c-0.48,0-0.869,0.492-0.869,1.103c0,0.604,0.389,1.1,0.869,1.1h34.668
			v4.062h-34.668c-0.48,0-0.869,0.49-0.869,1.101c0,0.609,0.389,1.106,0.869,1.106h34.668v3.277h-34.668
			c-0.48,0-0.869,0.495-0.869,1.1c0,0.612,0.389,1.103,0.869,1.103h34.668v1.648h-38.3V227.88z M175.518,165.799h16.316v-10.232
			c0-4.566-0.482-5.043,3.588-5.043h39.962v13.792h-34.668c-0.48,0-0.869,0.497-0.869,1.103c0,0.607,0.389,1.102,0.869,1.102h34.668
			v4.063h-34.668c-0.48,0-0.869,0.493-0.869,1.104c0,0.607,0.389,1.1,0.869,1.1h34.668v3.278h-34.668
			c-0.48,0-0.869,0.491-0.869,1.101c0,0.612,0.389,1.104,0.869,1.104h34.668v6.474c-0.034-0.013-0.065-0.02-0.103-0.02h-11.084
			c-0.224,0-0.402,0.156-0.402,0.36v4.342c0,0.201,0.179,0.36,0.402,0.36h11.084c0.037,0,0.068-0.013,0.103-0.02v3.853
			c-0.034-0.003-0.065-0.018-0.103-0.018h-11.084c-0.224,0-0.402,0.162-0.402,0.363v4.342c0,0.196,0.179,0.355,0.402,0.355h11.084
			c0.037,0,0.068-0.008,0.103-0.018v3.855c-0.034-0.008-0.065-0.018-0.103-0.018h-11.084c-0.224,0-0.402,0.159-0.402,0.358v4.347
			c0,0.201,0.179,0.36,0.402,0.36h11.084c0.037,0,0.068-0.015,0.103-0.02v3.857c-0.034-0.01-0.065-0.02-0.103-0.02h-11.084
			c-0.224,0-0.402,0.162-0.402,0.355v4.342c0,0.201,0.179,0.365,0.402,0.365h11.084c0.037,0,0.068-0.012,0.103-0.02v6.378h-36.593
			c-2.583,0-4.677,1.65-4.677,3.686v17.15h-22.184v-72.78C171.931,166.27,171.447,165.799,175.518,165.799z M170.092,160.575h16.314
			v-10.233c0-4.563-0.481-5.04,3.59-5.04h7.101c-0.017,0.025-0.043,0.052-0.043,0.076v3.012h-5.471
			c-0.989,0-1.788,0.691-1.788,1.546v13.728h-18.116c-0.987,0-1.79,0.691-1.79,1.545v78.416h-3.387v-78.001
			C166.502,161.05,166.018,160.575,170.092,160.575z"/>
	</g>
	<g>
		<polygon fill="#FFFFFF" points="217.605,202.923 217.262,245.215 164.137,245.215 164.137,194.968 201.92,194.968 
			202.379,202.856 		"/>
		
			<linearGradient id="SVGID_7_" gradientUnits="userSpaceOnUse" x1="93.9248" y1="220.5459" x2="28.2916" y2="220.5459" gradientTransform="matrix(-1 0 0 1 254.2949 0)">
			<stop  offset="0.0674" style="stop-color:#7BAD62"/>
			<stop  offset="1" style="stop-color:#8865A9"/>
		</linearGradient>
		<path fill="url(#SVGID_7_)" d="M208.027,224.387h-8.417c-0.169,0-0.308,0.083-0.308,0.181v2.192c0,0.098,0.139,0.182,0.308,0.182
			h8.417c0.168,0,0.306-0.084,0.306-0.182v-2.192C208.333,224.47,208.195,224.387,208.027,224.387z M196.305,215.439h-8.416
			c-0.17,0-0.307,0.083-0.307,0.183v2.188c0,0.102,0.137,0.181,0.307,0.181h8.416c0.168,0,0.305-0.079,0.305-0.181v-2.188
			C196.609,215.522,196.473,215.439,196.305,215.439z M208.027,215.439h-8.417c-0.169,0-0.308,0.083-0.308,0.183v2.188
			c0,0.102,0.139,0.181,0.308,0.181h8.417c0.168,0,0.306-0.079,0.306-0.181v-2.188C208.333,215.522,208.195,215.439,208.027,215.439
			z M196.305,219.913h-8.416c-0.17,0-0.307,0.081-0.307,0.183v2.186c0,0.102,0.137,0.187,0.307,0.187h8.416
			c0.168,0,0.305-0.085,0.305-0.187v-2.186C196.609,219.994,196.473,219.913,196.305,219.913z M208.027,219.913h-8.417
			c-0.169,0-0.308,0.081-0.308,0.183v2.186c0,0.102,0.139,0.187,0.308,0.187h8.417c0.168,0,0.306-0.085,0.306-0.187v-2.186
			C208.333,219.994,208.195,219.913,208.027,219.913z M208.027,228.862h-8.417c-0.169,0-0.308,0.081-0.308,0.178v2.192
			c0,0.098,0.139,0.183,0.308,0.183h8.417c0.168,0,0.306-0.085,0.306-0.183v-2.192C208.333,228.943,208.195,228.862,208.027,228.862
			z M184.583,219.913h-8.418c-0.17,0-0.306,0.081-0.306,0.183v2.186c0,0.102,0.136,0.187,0.306,0.187h8.418
			c0.167,0,0.304-0.085,0.304-0.187v-2.186C184.887,219.994,184.75,219.913,184.583,219.913z M184.583,215.439h-8.418
			c-0.17,0-0.306,0.083-0.306,0.183v2.188c0,0.102,0.136,0.181,0.306,0.181h8.418c0.167,0,0.304-0.079,0.304-0.181v-2.188
			C184.887,215.522,184.75,215.439,184.583,215.439z M196.305,224.387h-8.416c-0.17,0-0.307,0.083-0.307,0.181v2.192
			c0,0.098,0.137,0.182,0.307,0.182h8.416c0.168,0,0.305-0.084,0.305-0.182v-2.192C196.609,224.47,196.473,224.387,196.305,224.387z
			 M196.305,228.862h-8.416c-0.17,0-0.307,0.081-0.307,0.178v2.192c0,0.098,0.137,0.183,0.307,0.183h8.416
			c0.168,0,0.305-0.085,0.305-0.183v-2.192C196.609,228.943,196.473,228.862,196.305,228.862z M184.583,224.387h-8.418
			c-0.17,0-0.306,0.083-0.306,0.181v2.192c0,0.098,0.136,0.182,0.306,0.182h8.418c0.167,0,0.304-0.084,0.304-0.182v-2.192
			C184.887,224.47,184.75,224.387,184.583,224.387z M184.583,228.862h-8.418c-0.17,0-0.306,0.081-0.306,0.178v2.192
			c0,0.098,0.136,0.183,0.306,0.183h8.418c0.167,0,0.304-0.085,0.304-0.183v-2.192C184.887,228.943,184.75,228.862,184.583,228.862z
			 M218.216,245.109v-42.13c0-0.432-0.608-0.78-1.356-0.78h-13.756v-6.912c0-0.432-0.609-0.785-1.357-0.785h-39.302v52.087h1.921
			v-0.024h53.907v-1.455H218.216z M193.445,245.109h-29.08v-0.828h26.324c0.363,0,0.66-0.247,0.66-0.553
			c0-0.309-0.297-0.557-0.66-0.557h-26.324v-1.648h26.324c0.363,0,0.66-0.251,0.66-0.56c0-0.306-0.297-0.552-0.66-0.552h-26.324
			v-2.05h26.324c0.363,0,0.66-0.248,0.66-0.557c0-0.306-0.297-0.552-0.66-0.552h-26.324v-1.587h25.821
			c1.801,0,3.259,0.674,3.259,1.513V245.109z M212.545,208.444v36.665h-16.844v-8.637c0-1.025-1.592-1.858-3.551-1.858h-27.785
			v-3.212c0.025,0.004,0.049,0.013,0.076,0.013h8.418c0.169,0,0.305-0.085,0.305-0.183v-2.192c0-0.097-0.136-0.178-0.305-0.178
			h-8.418c-0.027,0-0.051,0.004-0.076,0.009v-1.941c0.025,0.004,0.049,0.012,0.076,0.012h8.418c0.169,0,0.305-0.084,0.305-0.182
			v-2.192c0-0.098-0.136-0.181-0.305-0.181h-8.418c-0.027,0-0.051,0.007-0.076,0.011v-1.94c0.025,0,0.049,0.011,0.076,0.011h8.418
			c0.169,0,0.305-0.085,0.305-0.187v-2.186c0-0.102-0.136-0.183-0.305-0.183h-8.418c-0.027,0-0.051,0.011-0.076,0.011v-1.94
			c0.025,0.003,0.049,0.007,0.076,0.007h8.418c0.169,0,0.305-0.079,0.305-0.181v-2.188c0-0.1-0.136-0.183-0.305-0.183h-8.418
			c-0.027,0-0.051,0.004-0.076,0.011v-3.262h26.324c0.363,0,0.66-0.249,0.66-0.557c0-0.305-0.297-0.556-0.66-0.556h-26.324v-1.65
			h26.324c0.363,0,0.66-0.25,0.66-0.557c0-0.304-0.297-0.552-0.66-0.552h-26.324v-2.049h26.324c0.363,0,0.66-0.246,0.66-0.553
			c0-0.305-0.297-0.556-0.66-0.556h-26.324v-6.948h30.342c3.093,0,2.727,0.24,2.727,2.537v5.159h12.389
			C212.912,205.908,212.545,206.145,212.545,208.444z M216.666,205.815v39.294h-2.57V205.61c0-0.433-0.608-0.781-1.359-0.781
			h-13.754v-6.915c0-0.428-0.611-0.781-1.358-0.781h-4.155v-1.511c0-0.019-0.02-0.03-0.033-0.041h5.393
			c3.092,0,2.727,0.237,2.727,2.541v5.156h12.387C217.034,203.278,216.666,203.515,216.666,205.815z"/>
	</g>
	<g>
		
			<linearGradient id="SVGID_8_" gradientUnits="userSpaceOnUse" x1="85.4395" y1="146.4922" x2="161.0972" y2="146.4922" gradientTransform="matrix(-1 0 0 1 254.2949 0)">
			<stop  offset="0.0056" style="stop-color:#AD95C5"/>
			<stop  offset="0.0905" style="stop-color:#9F82BA"/>
			<stop  offset="0.2344" style="stop-color:#8C6AAC"/>
			<stop  offset="0.3517" style="stop-color:#815BA4"/>
			<stop  offset="0.427" style="stop-color:#7E55A1"/>
			<stop  offset="0.6164" style="stop-color:#744599"/>
			<stop  offset="0.8497" style="stop-color:#6A3592"/>
			<stop  offset="1" style="stop-color:#662F90"/>
		</linearGradient>
		<path fill="url(#SVGID_8_)" d="M98.523,215.591c-2.942,0-5.326,2.188-5.326,4.88v21.938c0,2.695,2.383,4.88,5.326,4.88h64.015
			c2.942,0,5.326-2.185,5.326-4.88v-17.206h0.991V45.697h-43.887c-4.278,0-7.743,2.707-7.743,6.051v163.843H98.523z"/>
		<path fill="#FFFFFF" d="M131.56,57.866v4.136h37.499v-4.136H131.56z M169.059,67.732H131.56v4.139h37.499V67.732z M169.059,77.599
			H131.56v4.139h37.499V77.599z M169.059,87.468H131.56v4.134h37.499V87.468z M169.059,97.333H131.56v4.136h37.499V97.333z
			 M169.059,107.198H131.56v4.14h37.499V107.198z M169.059,117.063H131.56v4.14h37.499V117.063z M169.059,126.93H131.56v4.139
			h37.499V126.93z M169.059,136.8H131.56v4.14h37.499V136.8z M169.059,146.669H131.56v4.136h37.499V146.669z M169.059,156.534
			H131.56v4.136h37.499V156.534z M169.059,166.396H131.56v4.134h37.499V166.396z M169.059,176.266H131.56v4.139h37.499V176.266z
			 M169.059,186.131H131.56v4.14h37.499V186.131z M169.059,195.996H131.56v4.14h37.499V195.996z M169.059,205.863H131.56v4.138
			h37.499V205.863z"/>
		
			<linearGradient id="SVGID_9_" gradientUnits="userSpaceOnUse" x1="85.2363" y1="107.7852" x2="137.0693" y2="107.7852" gradientTransform="matrix(-1 0 0 1 254.2949 0)">
			<stop  offset="0.0056" style="stop-color:#AD95C5"/>
			<stop  offset="0.206" style="stop-color:#9F82BA"/>
			<stop  offset="0.5455" style="stop-color:#8C6AAC"/>
			<stop  offset="0.8223" style="stop-color:#815BA4"/>
			<stop  offset="1" style="stop-color:#7E55A1"/>
		</linearGradient>
		<path fill="url(#SVGID_9_)" d="M123.84,55.689v154.844h2.572V57.285c0-2.488,2.335-4.509,5.212-4.509h37.434v-1.596H129.05
			C126.173,51.181,123.84,53.2,123.84,55.689z M117.226,54.048v156.485h4.287V54.672c0-2.594,3.373-4.693,6.25-4.693h40.746v-5.48
			h-7.533c0.231-0.512,0.363-1.065,0.363-1.646v-2.119c0-2.489-2.334-4.509-5.211-4.509h-5.817V5.036H147v31.188h-3.98
			c-2.877,0-5.208,2.02-5.208,4.509v2.119c0,0.58,0.13,1.134,0.362,1.646h-9.187C119.429,44.498,117.226,48.532,117.226,54.048z"/>
		<path fill="#FFFFFF" d="M87.292,219.585v23.03c0,3.295,3.088,5.974,6.897,5.974h68.944c3.811,0,6.898-2.679,6.898-5.974v-23.03
			c0-3.297-3.088-5.975-6.898-5.975H94.189C90.38,213.61,87.292,216.288,87.292,219.585z M91.672,221.863
			c0-2.697,2.833-4.881,6.33-4.881h63.267c3.495,0,6.33,2.184,6.33,4.881v18.808c0,2.696-2.835,4.88-6.33,4.88H98.001
			c-3.497,0-6.33-2.184-6.33-4.88V221.863z M135.476,222.975v2.834c0,0.749,0.702,1.355,1.564,1.355h23.152
			c0.866,0,1.565-0.606,1.565-1.355v-2.834c0-0.749-0.7-1.355-1.565-1.355H137.04C136.177,221.619,135.476,222.226,135.476,222.975z
			 M98.487,222.975v2.834c0,0.749,0.7,1.355,1.563,1.355h23.153c0.865,0,1.564-0.606,1.564-1.355v-2.834
			c0-0.749-0.7-1.355-1.564-1.355H100.05C99.187,221.619,98.487,222.226,98.487,222.975z M135.476,234.774v2.833
			c0,0.749,0.702,1.356,1.564,1.356h23.152c0.866,0,1.565-0.607,1.565-1.356v-2.833c0-0.754-0.7-1.356-1.565-1.356H137.04
			C136.177,233.418,135.476,234.021,135.476,234.774z M98.487,234.774v2.833c0,0.749,0.7,1.356,1.563,1.356h23.153
			c0.865,0,1.564-0.607,1.564-1.356v-2.833c0-0.754-0.7-1.356-1.564-1.356H100.05C99.187,233.418,98.487,234.021,98.487,234.774z"/>
	</g>
	<g>
		
			<linearGradient id="SVGID_10_" gradientUnits="userSpaceOnUse" x1="160.6562" y1="193.4492" x2="134.4538" y2="193.4492" gradientTransform="matrix(-1 0 0 1 254.2949 0)">
			<stop  offset="0.0056" style="stop-color:#AD95C5"/>
			<stop  offset="0.0905" style="stop-color:#9F82BA"/>
			<stop  offset="0.2344" style="stop-color:#8C6AAC"/>
			<stop  offset="0.3517" style="stop-color:#815BA4"/>
			<stop  offset="0.427" style="stop-color:#7E55A1"/>
			<stop  offset="0.6164" style="stop-color:#744599"/>
			<stop  offset="0.8497" style="stop-color:#6A3592"/>
			<stop  offset="1" style="stop-color:#662F90"/>
		</linearGradient>
		<path fill="url(#SVGID_10_)" d="M81.398,229.89c-1.551,0-2.809,1.152-2.809,2.571v11.568c0,1.423,1.258,2.575,2.809,2.575h33.763
			c1.552,0,2.809-1.152,2.809-2.575v-9.071h0.521v-94.666H95.346c-2.256,0-4.085,1.428-4.085,3.189v86.408H81.398z"/>
		<path fill="#FFFFFF" d="M98.822,146.709v2.18h19.777v-2.18H98.822z M118.599,151.912H98.822v2.181h19.777V151.912z
			 M118.599,157.115H98.822v2.18h19.777V157.115z M118.599,162.319H98.822v2.183h19.777V162.319z M118.599,167.522H98.822v2.181
			h19.777V167.522z M118.599,172.726H98.822v2.181h19.777V172.726z M118.599,177.927H98.822v2.182h19.777V177.927z M118.599,183.13
			H98.822v2.184h19.777V183.13z M118.599,188.333H98.822v2.184h19.777V188.333z M118.599,193.537H98.822v2.188h19.777V193.537z
			 M118.599,198.74H98.822v2.184h19.777V198.74z M118.599,203.944H98.822v2.183h19.777V203.944z M118.599,209.146H98.822v2.182
			h19.777V209.146z M118.599,214.352H98.822v2.18h19.777V214.352z M118.599,219.559H98.822v2.18h19.777V219.559z M118.599,224.757
			H98.822v2.182h19.777V224.757z"/>
		<path fill="#75479A" d="M94.75,145.563v81.655h1.357v-80.815c0-1.316,1.231-2.38,2.748-2.38h19.742v-0.839H97.499
			C95.983,143.185,94.75,144.248,94.75,145.563z M91.261,144.691v82.527h2.264v-82.192c0-1.367,1.777-2.479,3.294-2.479h21.488
			v-2.886h-3.972c0.121-0.271,0.191-0.565,0.191-0.872v-1.115c0-1.315-1.229-2.38-2.748-2.38h-3.066v-16.45h-1.747v16.45h-2.099
			c-1.516,0-2.746,1.064-2.746,2.38v1.115c0,0.307,0.069,0.601,0.189,0.872h-4.842C92.424,139.662,91.261,141.784,91.261,144.691z"
			/>
		<path fill="#FFFFFF" d="M75.479,231.993v12.145c0,1.74,1.626,3.153,3.636,3.153h36.359c2.01,0,3.639-1.413,3.639-3.153v-12.145
			c0-1.737-1.629-3.15-3.639-3.15H79.114C77.104,228.843,75.479,230.256,75.479,231.993z M77.787,233.196
			c0-1.425,1.495-2.573,3.338-2.573h33.366c1.843,0,3.336,1.148,3.336,2.573v9.915c0,1.422-1.493,2.577-3.336,2.577H81.125
			c-1.843,0-3.338-1.155-3.338-2.577V233.196z M100.886,233.776v1.501c0,0.394,0.372,0.713,0.828,0.713h12.209
			c0.457,0,0.825-0.319,0.825-0.713v-1.501c0-0.392-0.368-0.708-0.825-0.708h-12.209
			C101.258,233.068,100.886,233.385,100.886,233.776z M81.381,233.776v1.501c0,0.394,0.367,0.713,0.824,0.713h12.21
			c0.457,0,0.825-0.319,0.825-0.713v-1.501c0-0.392-0.368-0.708-0.825-0.708h-12.21C81.748,233.068,81.381,233.385,81.381,233.776z
			 M100.886,240.005v1.494c0,0.392,0.372,0.711,0.828,0.711h12.209c0.457,0,0.825-0.319,0.825-0.711v-1.494
			c0-0.396-0.368-0.715-0.825-0.715h-12.209C101.258,239.29,100.886,239.609,100.886,240.005z M81.381,240.005v1.494
			c0,0.392,0.367,0.711,0.824,0.711h12.21c0.457,0,0.825-0.319,0.825-0.711v-1.494c0-0.396-0.368-0.715-0.825-0.715h-12.21
			C81.748,239.29,81.381,239.609,81.381,240.005z"/>
	</g>
</g>
</svg>
