<?xml version="1.0" encoding="utf-8"?>
<!-- Generator: Adobe Illustrator 16.0.0, SVG Export Plug-In . SVG Version: 6.00 Build 0)  -->
<!DOCTYPE svg PUBLIC "-//W3C//DTD SVG 1.1//EN" "http://www.w3.org/Graphics/SVG/1.1/DTD/svg11.dtd">
<svg version="1.1" id="Layer_1" xmlns="http://www.w3.org/2000/svg" xmlns:xlink="http://www.w3.org/1999/xlink" x="0px" y="0px"
	 width="256px" height="256px" viewBox="0 0 256 256" enable-background="new 0 0 256 256" xml:space="preserve">
<g>
	<rect x="15.235" y="66.659" fill="#5CA047" width="237.478" height="33.028"/>
	<rect x="23.099" y="76.096" opacity="0.3" fill="#FFFFFF" width="75.49" height="23.592"/>
	<g>
		<rect x="28.369" y="77.069" fill="none" width="22.273" height="4.378"/>
		<text transform="matrix(1.0347 0 0 1 28.3701 79.7568)" fill="#FFFFFF" font-family="'TrebuchetMS'" font-size="3.648">Creativiteit</text>
		<g>
			<ellipse fill="#5CA047" cx="25.861" cy="78.346" rx="1.572" ry="1.52"/>
			<text transform="matrix(1.0347 0 0 1 25.1953 79.0625)" fill="#FFFFFF" font-family="'TrebuchetMS'" font-size="2.1888">1</text>
		</g>
	</g>
	<g>
		<ellipse fill="#F16624" cx="25.861" cy="82.905" rx="1.572" ry="1.521"/>
		<rect x="28.369" y="81.629" fill="none" width="22.273" height="4.378"/>
		<text transform="matrix(1.0347 0 0 1 28.3701 84.3184)" fill="#FFFFFF" font-family="'TrebuchetMS'" font-size="3.648">Metalol</text>
		<text transform="matrix(1.0347 0 0 1 25.1953 83.6221)" fill="#FFFFFF" font-family="'TrebuchetMS'" font-size="2.1888">2</text>
	</g>
	<g>
		<ellipse fill="#5CA047" cx="25.861" cy="92.026" rx="1.572" ry="1.52"/>
		<rect x="28.369" y="90.749" fill="none" width="60.813" height="4.378"/>
		<text transform="matrix(1.0347 0 0 1 28.3701 93.4365)" fill="#FFFFFF" font-family="'TrebuchetMS'" font-size="3.648">Zelfbewust</text>
		<text transform="matrix(1.0347 0 0 1 25.1953 92.7432)" fill="#FFFFFF" font-family="'TrebuchetMS'" font-size="2.1888">2</text>
	</g>
	<text transform="matrix(1 0 0 1 24.6719 72.707)" fill="#FFFFFF" font-family="'TrebuchetMS'" font-size="4.5294">LOL</text>
	<rect x="100.161" y="76.096" opacity="0.3" fill="#FFFFFF" width="75.488" height="23.592"/>
	<g>
		<ellipse fill="#5CA047" cx="102.923" cy="78.346" rx="1.572" ry="1.52"/>
		<rect x="105.433" y="77.069" fill="none" width="31.343" height="4.378"/>
		<text transform="matrix(1.0347 0 0 1 105.4326 79.7568)" fill="#FFFFFF" font-family="'TrebuchetMS'" font-size="3.648">Burgerschap</text>
		<text transform="matrix(1.0347 0 0 1 102.2598 79.0625)" fill="#FFFFFF" font-family="'TrebuchetMS'" font-size="2.1888">2</text>
	</g>
	<g>
		<g>
			<ellipse fill="#5CA047" cx="102.923" cy="87.466" rx="1.572" ry="1.521"/>
			<rect x="105.433" y="86.189" fill="none" width="60.813" height="4.378"/>
			<text transform="matrix(1.0347 0 0 1 105.4326 88.8779)" fill="#FFFFFF" font-family="'TrebuchetMS'" font-size="3.648">Innovatie</text>
			<text transform="matrix(1.0347 0 0 1 102.2598 88.1826)" fill="#FFFFFF" font-family="'TrebuchetMS'" font-size="2.1888">2</text>
		</g>
		<g>
			<ellipse fill="#662F90" cx="102.923" cy="96.586" rx="1.572" ry="1.521"/>
			<rect x="105.433" y="95.308" fill="none" width="60.813" height="4.38"/>
			<text transform="matrix(1.0347 0 0 1 105.4326 97.9971)" fill="#FFFFFF" font-family="'TrebuchetMS'" font-size="3.648">Productiesoftware</text>
			<text transform="matrix(1.0347 0 0 1 102.2598 97.3027)" fill="#FFFFFF" font-family="'TrebuchetMS'" font-size="2.1888">1</text>
		</g>
	</g>
	<rect x="177.224" y="76.096" opacity="0.3" fill="#FFFFFF" width="75.489" height="23.592"/>
	<g>
		<ellipse fill="#F16624" cx="179.986" cy="78.346" rx="1.572" ry="1.52"/>
		<rect x="182.494" y="77.069" fill="none" width="40.464" height="4.378"/>
		<text transform="matrix(1.0347 0 0 1 182.4971 79.7568)" fill="#FFFFFF" font-family="'TrebuchetMS'" font-size="3.648">Effectiviteit</text>
		<text transform="matrix(1.0347 0 0 1 179.3213 79.0625)" fill="#FFFFFF" font-family="'TrebuchetMS'" font-size="2.1888">2</text>
	</g>
	<g>
		<ellipse fill="#662F90" cx="179.986" cy="87.466" rx="1.572" ry="1.521"/>
		<rect x="182.494" y="86.189" fill="none" width="60.814" height="4.378"/>
		<text transform="matrix(1.0347 0 0 1 182.4971 88.877)" fill="#FFFFFF" font-family="'TrebuchetMS'" font-size="3.648">De geschiedenis van je bedrijfstak</text>
		<text transform="matrix(1.0347 0 0 1 179.3213 88.1816)" fill="#FFFFFF" font-family="'TrebuchetMS'" font-size="2.1888">2</text>
	</g>
	<g>
		<ellipse fill="#662F90" cx="179.986" cy="96.586" rx="1.572" ry="1.521"/>
		<rect x="182.494" y="95.308" fill="none" width="60.814" height="4.38"/>
		<text transform="matrix(1.0347 0 0 1 182.4971 97.9971)" fill="#FFFFFF" font-family="'TrebuchetMS'" font-size="3.648">Practical IB English</text>
		<text transform="matrix(1.0347 0 0 1 179.3213 97.3027)" fill="#FFFFFF" font-family="'TrebuchetMS'" font-size="2.1888">1</text>
	</g>
</g>
<g>
	<circle fill="#FFFFFF" cx="20.739" cy="71.379" r="2.36"/>
	<text transform="matrix(1 0 0 1 18.7354 72.4902)" fill="#5CA047" font-family="'TrebuchetMS'" font-size="3.397">15</text>
</g>
<g>
	<g>
		<rect x="15.235" y="104.404" fill="#662F90" width="160.415" height="33.026"/>
		<g>
			<rect x="23.099" y="113.842" opacity="0.3" fill="#FFFFFF" width="75.49" height="23.589"/>
			<g>
				<ellipse fill="#F16624" cx="25.861" cy="116.09" rx="1.572" ry="1.521"/>
				<rect x="28.369" y="114.815" fill="none" width="22.273" height="4.377"/>
				<text transform="matrix(1.0347 0 0 1 28.3701 117.502)" fill="#FFFFFF" font-family="'TrebuchetMS'" font-size="3.648">IB Research</text>
				<text transform="matrix(1.0347 0 0 1 25.1953 116.8086)" fill="#FFFFFF" font-family="'TrebuchetMS'" font-size="2.1888">1</text>
			</g>
			<g>
				<ellipse fill="#5CA047" cx="25.861" cy="120.65" rx="1.572" ry="1.52"/>
				<rect x="28.369" y="119.375" fill="none" width="22.273" height="4.378"/>
				<text transform="matrix(1.0347 0 0 1 28.3701 122.0635)" fill="#FFFFFF" font-family="'TrebuchetMS'" font-size="3.648">IB Innovation</text>
				<text transform="matrix(1.0347 0 0 1 25.1953 121.3682)" fill="#FFFFFF" font-family="'TrebuchetMS'" font-size="2.1888">1</text>
			</g>
			<g>
				<ellipse fill="#662F90" cx="25.861" cy="125.21" rx="1.572" ry="1.521"/>
				<rect x="28.369" y="123.935" fill="none" width="62.86" height="4.377"/>
				<text transform="matrix(1.0347 0 0 1 28.3701 126.623)" fill="#FFFFFF" font-family="'TrebuchetMS'" font-size="3.648">Product Development &amp; Innovation</text>
				<text transform="matrix(1.0347 0 0 1 25.1953 125.9277)" fill="#FFFFFF" font-family="'TrebuchetMS'" font-size="2.1888">2</text>
			</g>
			<g>
				<ellipse fill="#662F90" cx="25.861" cy="134.331" rx="1.572" ry="1.52"/>
				<rect x="28.369" y="133.053" fill="none" width="60.813" height="4.381"/>
				<text transform="matrix(1.0347 0 0 1 28.3701 135.7432)" fill="#FFFFFF" font-family="'TrebuchetMS'" font-size="3.648">IB vrije keuze</text>
				<text transform="matrix(1.0347 0 0 1 25.1953 135.0488)" fill="#FFFFFF" font-family="'TrebuchetMS'" font-size="2.1888">1</text>
			</g>
		</g>
		<text transform="matrix(1 0 0 1 24.6719 110.4521)" fill="#FFFFFF" font-family="'TrebuchetMS'" font-size="4.5294">Onderzoek</text>
		<g>
			<rect x="100.161" y="113.842" opacity="0.3" fill="#FFFFFF" width="75.488" height="23.589"/>
			<g>
				<ellipse fill="#662F90" cx="102.923" cy="116.09" rx="1.572" ry="1.521"/>
				<rect x="105.433" y="114.815" fill="none" width="28.542" height="4.377"/>
				<text transform="matrix(1.0347 0 0 1 105.4326 117.502)" fill="#FFFFFF" font-family="'TrebuchetMS'" font-size="3.648">IB Marketing</text>
				<text transform="matrix(1.0347 0 0 1 102.2598 116.8086)" fill="#FFFFFF" font-family="'TrebuchetMS'" font-size="2.1888">2</text>
			</g>
			<g>
				<ellipse fill="#662F90" cx="102.923" cy="125.21" rx="1.572" ry="1.521"/>
				<rect x="105.433" y="123.935" fill="none" width="60.813" height="4.377"/>
				<text transform="matrix(1.0347 0 0 1 105.4326 126.623)" fill="#FFFFFF" font-family="'TrebuchetMS'" font-size="3.648">IB Market Research</text>
				<text transform="matrix(1.0347 0 0 1 102.2598 125.9277)" fill="#FFFFFF" font-family="'TrebuchetMS'" font-size="2.1888">2</text>
			</g>
			<g>
				<ellipse fill="#662F90" cx="102.923" cy="134.331" rx="1.572" ry="1.52"/>
				<rect x="105.433" y="133.053" fill="none" width="60.813" height="4.381"/>
				<text transform="matrix(1.0347 0 0 1 105.4326 135.7432)" fill="#FFFFFF" font-family="'TrebuchetMS'" font-size="3.648">IB vrije keuze</text>
				<text transform="matrix(1.0347 0 0 1 102.2598 135.0488)" fill="#FFFFFF" font-family="'TrebuchetMS'" font-size="2.1888">1</text>
			</g>
		</g>
	</g>
	<g>
		<circle fill="#FFFFFF" cx="20.739" cy="109.122" r="2.36"/>
		<text transform="matrix(1 0 0 1 18.7354 110.2363)" fill="#662F90" font-family="'TrebuchetMS'" font-size="3.397">10</text>
	</g>
</g>
<g>
	<rect x="15.235" y="38.034" fill="#5CA047" width="83.354" height="23.907"/>
	<g>
		<rect x="23.099" y="47.471" opacity="0.3" fill="#FFFFFF" width="75.49" height="14.471"/>
		<g>
			<rect x="28.369" y="48.443" fill="none" width="28.543" height="4.317"/>
			<text transform="matrix(1.0347 0 0 1 28.3701 51.1328)" fill="#FFFFFF" font-family="'TrebuchetMS'" font-size="3.648">Samenwerken</text>
			<g>
				<ellipse fill="#5CA047" cx="25.861" cy="49.721" rx="1.572" ry="1.52"/>
				<text transform="matrix(1.0347 0 0 1 25.1953 50.4385)" fill="#FFFFFF" font-family="'TrebuchetMS'" font-size="2.1888">1</text>
			</g>
		</g>
		<g>
			<ellipse fill="#F16624" cx="25.861" cy="58.84" rx="1.572" ry="1.521"/>
			<rect x="28.369" y="57.562" fill="none" width="22.273" height="4.379"/>
			<text transform="matrix(1.0347 0 0 1 28.3701 60.2529)" fill="#FFFFFF" font-family="'TrebuchetMS'" font-size="3.648">Plannen</text>
			<text transform="matrix(1.0347 0 0 1 25.1953 59.5576)" fill="#FFFFFF" font-family="'TrebuchetMS'" font-size="2.1888">1</text>
		</g>
		<g>
			<path fill="#F16624" d="M27.433,54.28c0,0.84-0.704,1.522-1.573,1.522s-1.572-0.683-1.572-1.522c0-0.838,0.703-1.519,1.572-1.519
				S27.433,53.442,27.433,54.28z"/>
			<rect x="28.369" y="53.006" fill="none" width="60.813" height="4.377"/>
			<text transform="matrix(1.0347 0 0 1 28.3701 55.6924)" fill="#FFFFFF" font-family="'TrebuchetMS'" font-size="3.648">Offerte</text>
			<text transform="matrix(1.0347 0 0 1 25.1953 54.998)" fill="#FFFFFF" font-family="'TrebuchetMS'" font-size="2.1888">1</text>
		</g>
	</g>
	<rect id="_x3C_Slice_x3E__3_" x="23.916" y="47.72" fill="none" width="15.6" height="3.521"/>
	<text transform="matrix(1 0 0 1 24.6719 44.083)" fill="#FFFFFF" font-family="'TrebuchetMS'" font-size="4.5294">Entree</text>
</g>
<g>
	<circle fill="#FFFFFF" cx="20.739" cy="42.754" r="2.36"/>
	<text transform="matrix(1 0 0 1 19.8662 43.8672)" fill="#5CA047" font-family="'TrebuchetMS'" font-size="3.397">3</text>
</g>
<g>
	<rect x="15.235" y="18.53" fill="#5CA047" width="83.354" height="14.786"/>
	<g>
		<rect x="23.099" y="27.966" opacity="0.3" fill="#FFFFFF" width="75.49" height="5.351"/>
		<g>
			<rect x="28.369" y="28.939" fill="none" width="22.273" height="4.377"/>
			<text transform="matrix(1.0347 0 0 1 28.3701 31.627)" fill="#FFFFFF" font-family="'TrebuchetMS'" font-size="3.648">Jij de Baas</text>
			<g>
				<ellipse fill="#5CA047" cx="25.861" cy="30.216" rx="1.572" ry="1.521"/>
				<text transform="matrix(1.0347 0 0 1 25.1953 30.9316)" fill="#FFFFFF" font-family="'TrebuchetMS'" font-size="2.1888">1</text>
			</g>
		</g>
	</g>
	<text transform="matrix(1 0 0 1 24.6768 24.5762)" fill="#FFFFFF" font-family="'TrebuchetMS'" font-size="4.5294">Verkenning</text>
</g>
<g>
	<circle fill="#FFFFFF" cx="20.739" cy="23.249" r="2.36"/>
	<text transform="matrix(1 0 0 1 19.8662 24.3613)" fill="#5CA047" font-family="'TrebuchetMS'" font-size="3.397">1</text>
</g>
<g>
	<g>
		<rect x="15.235" y="142.149" fill="#662F90" width="160.415" height="33.026"/>
		<g>
			<rect x="23.099" y="151.588" opacity="0.3" fill="#FFFFFF" width="75.49" height="23.588"/>
			<g>
				<ellipse fill="#F16624" cx="25.861" cy="153.836" rx="1.572" ry="1.52"/>
				<rect x="28.369" y="152.558" fill="none" width="22.273" height="4.379"/>
				<text transform="matrix(1.0347 0 0 1 28.3701 155.2471)" fill="#FFFFFF" font-family="'TrebuchetMS'" font-size="3.648">IB Plan</text>
				<text transform="matrix(1.0347 0 0 1 25.1953 154.5537)" fill="#FFFFFF" font-family="'TrebuchetMS'" font-size="2.1888">1</text>
			</g>
			<g>
				<ellipse fill="#5CA047" cx="25.861" cy="158.396" rx="1.572" ry="1.52"/>
				<rect x="28.369" y="157.119" fill="none" width="22.273" height="4.378"/>
				<text transform="matrix(1.0347 0 0 1 28.3701 159.8066)" fill="#FFFFFF" font-family="'TrebuchetMS'" font-size="3.648">IB Attitude</text>
				<text transform="matrix(1.0347 0 0 1 25.1953 159.1123)" fill="#FFFFFF" font-family="'TrebuchetMS'" font-size="2.1888">1</text>
			</g>
			<g>
				<ellipse fill="#662F90" cx="25.861" cy="162.956" rx="1.572" ry="1.519"/>
				<rect x="28.369" y="161.679" fill="none" width="60.813" height="4.379"/>
				<text transform="matrix(1.0347 0 0 1 28.3701 164.3662)" fill="#FFFFFF" font-family="'TrebuchetMS'" font-size="3.648">IB Model</text>
				<text transform="matrix(1.0347 0 0 1 25.1953 163.6729)" fill="#FFFFFF" font-family="'TrebuchetMS'" font-size="2.1888">2</text>
			</g>
			<g>
				<ellipse fill="#662F90" cx="25.861" cy="172.075" rx="1.572" ry="1.521"/>
				<rect x="28.369" y="170.799" fill="none" width="60.813" height="4.377"/>
				<text transform="matrix(1.0347 0 0 1 28.3701 173.4873)" fill="#FFFFFF" font-family="'TrebuchetMS'" font-size="3.648">IB vrije keuze</text>
				<text transform="matrix(1.0347 0 0 1 25.1953 172.7949)" fill="#FFFFFF" font-family="'TrebuchetMS'" font-size="2.1888">1</text>
			</g>
		</g>
		<text transform="matrix(1 0 0 1 24.6719 148.1982)" fill="#FFFFFF" font-family="'TrebuchetMS'" font-size="4.5294">Plan</text>
		<g>
			<rect x="100.161" y="151.588" opacity="0.3" fill="#FFFFFF" width="75.488" height="23.588"/>
			<g>
				<ellipse fill="#662F90" cx="102.923" cy="153.836" rx="1.572" ry="1.52"/>
				<rect x="105.433" y="152.558" fill="none" width="22.272" height="4.379"/>
				<text transform="matrix(1.0347 0 0 1 105.4326 155.2471)" fill="#FFFFFF" font-family="'TrebuchetMS'" font-size="3.648">IB Law</text>
				<text transform="matrix(1.0347 0 0 1 102.2598 154.5537)" fill="#FFFFFF" font-family="'TrebuchetMS'" font-size="2.1888">2</text>
			</g>
			<g>
				<ellipse fill="#662F90" cx="102.923" cy="162.956" rx="1.572" ry="1.519"/>
				<rect x="105.433" y="161.679" fill="none" width="60.813" height="4.379"/>
				<text transform="matrix(1.0347 0 0 1 105.4326 164.3662)" fill="#FFFFFF" font-family="'TrebuchetMS'" font-size="3.648">IB Demography</text>
				<text transform="matrix(1.0347 0 0 1 102.2598 163.6729)" fill="#FFFFFF" font-family="'TrebuchetMS'" font-size="2.1888">2</text>
			</g>
			<g>
				<ellipse fill="#662F90" cx="102.923" cy="172.075" rx="1.572" ry="1.521"/>
				<rect x="105.433" y="170.799" fill="none" width="60.813" height="4.377"/>
				<text transform="matrix(1.0347 0 0 1 105.4326 173.4873)" fill="#FFFFFF" font-family="'TrebuchetMS'" font-size="3.648">IB vrije keuze</text>
				<text transform="matrix(1.0347 0 0 1 102.2598 172.7949)" fill="#FFFFFF" font-family="'TrebuchetMS'" font-size="2.1888">1</text>
			</g>
		</g>
	</g>
	<g>
		<circle fill="#FFFFFF" cx="20.739" cy="146.868" r="2.36"/>
		<text transform="matrix(1 0 0 1 18.7354 147.9814)" fill="#662F90" font-family="'TrebuchetMS'" font-size="3.397">10</text>
	</g>
</g>
<g>
	<g>
		<rect x="15.235" y="179.896" fill="#662F90" width="160.415" height="33.025"/>
		<g>
			<rect x="23.099" y="189.33" opacity="0.3" fill="#FFFFFF" width="75.49" height="23.591"/>
			<g>
				<ellipse fill="#F16624" cx="25.861" cy="191.582" rx="1.572" ry="1.518"/>
				<rect x="28.369" y="190.304" fill="none" width="26.046" height="4.376"/>
				<text transform="matrix(1.0347 0 0 1 28.3701 192.9932)" fill="#FFFFFF" font-family="'TrebuchetMS'" font-size="3.648">IB Performance</text>
				<text transform="matrix(1.0347 0 0 1 25.1953 192.2969)" fill="#FFFFFF" font-family="'TrebuchetMS'" font-size="2.1888">1</text>
			</g>
			<g>
				<ellipse fill="#5CA047" cx="25.861" cy="196.141" rx="1.572" ry="1.519"/>
				<rect x="28.369" y="194.862" fill="none" width="26.046" height="4.381"/>
				<text transform="matrix(1.0347 0 0 1 28.3701 197.5527)" fill="#FFFFFF" font-family="'TrebuchetMS'" font-size="3.648">IB Management</text>
				<text transform="matrix(1.0347 0 0 1 25.1953 196.8584)" fill="#FFFFFF" font-family="'TrebuchetMS'" font-size="2.1888">1</text>
			</g>
			<g>
				<path fill="#662F90" d="M27.433,204.603c0,0.838-0.704,1.519-1.573,1.519s-1.572-0.681-1.572-1.519
					c0-0.842,0.703-1.521,1.572-1.521S27.433,203.761,27.433,204.603z"/>
				<rect x="28.369" y="203.324" fill="none" width="60.813" height="4.379"/>
				<text transform="matrix(1.0347 0 0 1 28.3701 206.0127)" fill="#FFFFFF" font-family="'TrebuchetMS'" font-size="3.648">IB Accountancy</text>
				<text transform="matrix(1.0347 0 0 1 25.1953 205.3174)" fill="#FFFFFF" font-family="'TrebuchetMS'" font-size="2.1888">2</text>
			</g>
		</g>
		<text transform="matrix(1 0 0 1 24.6719 185.9424)" fill="#FFFFFF" font-family="'TrebuchetMS'" font-size="4.5294">Uitvoering</text>
		<g>
			<rect x="100.161" y="189.33" opacity="0.3" fill="#FFFFFF" width="75.488" height="23.591"/>
			<g>
				<ellipse fill="#662F90" cx="102.923" cy="191.582" rx="1.572" ry="1.518"/>
				<rect x="105.433" y="190.304" fill="none" width="70.723" height="4.376"/>
				<text transform="matrix(1.0347 0 0 1 105.4326 192.9932)" fill="#FFFFFF" font-family="'TrebuchetMS'" font-size="3.648">IB History of Free Market &amp; Democracy</text>
				<text transform="matrix(1.0347 0 0 1 102.2598 192.2969)" fill="#FFFFFF" font-family="'TrebuchetMS'" font-size="2.1888">2</text>
			</g>
			<g>
				<ellipse fill="#662F90" cx="102.923" cy="200.7" rx="1.572" ry="1.52"/>
				<rect x="105.433" y="199.425" fill="none" width="60.813" height="4.378"/>
				<text transform="matrix(1.0347 0 0 1 105.4326 202.1123)" fill="#FFFFFF" font-family="'TrebuchetMS'" font-size="3.648">IB Globalization</text>
				<text transform="matrix(1.0347 0 0 1 102.2598 201.417)" fill="#FFFFFF" font-family="'TrebuchetMS'" font-size="2.1888">2</text>
			</g>
			<g>
				<ellipse fill="#662F90" cx="102.923" cy="209.819" rx="1.572" ry="1.521"/>
				<rect x="105.433" y="208.544" fill="none" width="60.813" height="4.377"/>
				<text transform="matrix(1.0347 0 0 1 105.4326 211.2324)" fill="#FFFFFF" font-family="'TrebuchetMS'" font-size="3.648">IB vrije keuze</text>
				<text transform="matrix(1.0347 0 0 1 102.2598 210.5371)" fill="#FFFFFF" font-family="'TrebuchetMS'" font-size="2.1888">1</text>
			</g>
		</g>
	</g>
	<g>
		<circle fill="#FFFFFF" cx="20.739" cy="184.617" r="2.36"/>
		<text transform="matrix(1 0 0 1 18.7354 185.7295)" fill="#662F90" font-family="'TrebuchetMS'" font-size="3.397">10</text>
	</g>
</g>
<g>
	<rect x="15.235" y="217.641" fill="#F16624" width="237.478" height="33.026"/>
	<g>
		<rect x="23.099" y="227.075" opacity="0.3" fill="#FFFFFF" width="75.49" height="23.592"/>
		<g>
			<rect x="28.369" y="228.049" fill="none" width="36.95" height="4.377"/>
			<text transform="matrix(1.0347 0 0 1 28.3701 230.7383)" fill="#FFFFFF" font-family="'TrebuchetMS'" font-size="3.648">IB Reflective Essay</text>
			<g>
				<ellipse fill="#F16624" cx="25.861" cy="229.326" rx="1.572" ry="1.52"/>
				<text transform="matrix(1.0347 0 0 1 25.1953 230.041)" fill="#FFFFFF" font-family="'TrebuchetMS'" font-size="2.1888">1</text>
			</g>
		</g>
		<g>
			<path fill="#5CA047" d="M27.433,233.887c0,0.838-0.704,1.519-1.573,1.519s-1.572-0.681-1.572-1.519
				c0-0.842,0.703-1.521,1.572-1.521S27.433,233.045,27.433,233.887z"/>
			<rect x="28.369" y="232.608" fill="none" width="22.273" height="4.379"/>
			<text transform="matrix(1.0347 0 0 1 28.3701 235.2979)" fill="#FFFFFF" font-family="'TrebuchetMS'" font-size="3.648">IB Ethics</text>
			<text transform="matrix(1.0347 0 0 1 25.1953 234.6045)" fill="#FFFFFF" font-family="'TrebuchetMS'" font-size="2.1888">1</text>
		</g>
		<g>
			<ellipse fill="#662F90" cx="25.861" cy="238.446" rx="1.572" ry="1.519"/>
			<rect x="28.369" y="237.169" fill="none" width="60.813" height="4.378"/>
			<text transform="matrix(1.0347 0 0 1 28.3701 239.8564)" fill="#FFFFFF" font-family="'TrebuchetMS'" font-size="3.648">IB vrije profielkeuze</text>
			<text transform="matrix(1.0347 0 0 1 25.1953 239.1611)" fill="#FFFFFF" font-family="'TrebuchetMS'" font-size="2.1888">3</text>
		</g>
	</g>
	<text transform="matrix(1 0 0 1 24.6719 223.6855)" fill="#FFFFFF" font-family="'TrebuchetMS'" font-size="4.5294">Diploma</text>
	<g>
		<rect x="177.224" y="227.075" opacity="0.3" fill="#FFFFFF" width="75.489" height="14.472"/>
		<g>
			<ellipse fill="#662F90" cx="179.986" cy="229.326" rx="1.572" ry="1.52"/>
			<rect x="182.494" y="228.049" fill="none" width="40.464" height="4.377"/>
			<text transform="matrix(1.0347 0 0 1 182.4971 230.7383)" fill="#FFFFFF" font-family="'TrebuchetMS'" font-size="3.648">IB vrije profielkeuze</text>
			<text transform="matrix(1.0347 0 0 1 179.3213 230.041)" fill="#FFFFFF" font-family="'TrebuchetMS'" font-size="2.1888">3</text>
		</g>
	</g>
	<g>
		<rect x="100.161" y="227.075" opacity="0.3" fill="#FFFFFF" width="75.488" height="14.472"/>
		<g>
			<ellipse fill="#662F90" cx="102.923" cy="229.326" rx="1.572" ry="1.52"/>
			<rect x="105.433" y="228.049" fill="none" width="40.464" height="4.377"/>
			<text transform="matrix(1.0347 0 0 1 105.4326 230.7383)" fill="#FFFFFF" font-family="'TrebuchetMS'" font-size="3.648">IB vrije profielkeuze</text>
			<text transform="matrix(1.0347 0 0 1 102.2598 230.041)" fill="#FFFFFF" font-family="'TrebuchetMS'" font-size="2.1888">3</text>
		</g>
	</g>
</g>
<g>
	<rect x="180.369" y="175.324" opacity="0.5" fill="#F16624" width="72.345" height="37.597"/>
	<g>
		<g>
			<rect x="193.226" y="185.733" fill="none" width="25.27" height="4.376"/>
			<text transform="matrix(1.0127 0 0 1 193.2256 188.4209)" fill="#FFFFFF" font-family="'TrebuchetMS'" font-size="3.648">IB Mathematics</text>
			<g>
				<ellipse fill="#662F90" cx="190.77" cy="187.01" rx="1.539" ry="1.52"/>
				<text transform="matrix(1.0127 0 0 1 190.1191 187.7256)" fill="#FFFFFF" font-family="'TrebuchetMS'" font-size="2.1888">3</text>
			</g>
		</g>
		<g>
			<ellipse fill="#662F90" cx="190.77" cy="191.568" rx="1.539" ry="1.521"/>
			<rect x="193.226" y="190.291" fill="none" width="21.799" height="4.381"/>
			<text transform="matrix(1.0127 0 0 1 193.2256 192.9805)" fill="#FFFFFF" font-family="'TrebuchetMS'" font-size="3.648">IB English</text>
			<text transform="matrix(1.0127 0 0 1 190.1191 192.2861)" fill="#FFFFFF" font-family="'TrebuchetMS'" font-size="2.1888">3</text>
		</g>
		<g>
			<ellipse fill="#662F90" cx="190.77" cy="196.129" rx="1.539" ry="1.521"/>
			<rect x="193.226" y="194.854" fill="none" width="59.521" height="4.378"/>
			<text transform="matrix(1.0127 0 0 1 193.2256 197.541)" fill="#FFFFFF" font-family="'TrebuchetMS'" font-size="3.648">IB Management and Organization</text>
			<text transform="matrix(1.0127 0 0 1 190.1191 196.8467)" fill="#FFFFFF" font-family="'TrebuchetMS'" font-size="2.1888">3</text>
		</g>
		<g>
			<ellipse fill="#662F90" cx="190.77" cy="205.249" rx="1.539" ry="1.521"/>
			<rect x="193.226" y="203.974" fill="none" width="59.521" height="4.376"/>
			<text transform="matrix(1.0127 0 0 1 193.2256 206.6602)" fill="#FFFFFF" font-family="'TrebuchetMS'" font-size="3.648">IB History</text>
			<text transform="matrix(1.0127 0 0 1 190.1191 205.9668)" fill="#FFFFFF" font-family="'TrebuchetMS'" font-size="2.1888">3</text>
		</g>
		<g>
			<ellipse fill="#662F90" cx="190.77" cy="200.749" rx="1.539" ry="1.521"/>
			<rect x="193.226" y="199.473" fill="none" width="59.521" height="4.377"/>
			<text transform="matrix(1.0127 0 0 1 193.2256 202.1611)" fill="#FFFFFF" font-family="'TrebuchetMS'" font-size="3.648">IB Economy</text>
			<text transform="matrix(1.0127 0 0 1 190.1191 201.4668)" fill="#FFFFFF" font-family="'TrebuchetMS'" font-size="2.1888">3</text>
		</g>
		<g>
			<ellipse fill="#662F90" cx="190.77" cy="209.819" rx="1.539" ry="1.521"/>
			<rect x="193.226" y="208.544" fill="none" width="59.521" height="4.377"/>
			<text transform="matrix(1.0127 0 0 1 193.2256 211.2324)" fill="#FFFFFF" font-family="'TrebuchetMS'" font-size="3.648">IB Geography</text>
			<text transform="matrix(1.0127 0 0 1 190.1191 210.5371)" fill="#FFFFFF" font-family="'TrebuchetMS'" font-size="2.1888">3</text>
		</g>
	</g>
	<text transform="matrix(0.9787 0 0 1 183.4463 181.3711)" fill="#FFFFFF" font-family="'TrebuchetMS'" font-size="4.5294">IB vrije profielkeuze</text>
</g>
<g>
	<rect x="180.369" y="104.404" opacity="0.5" fill="#662F90" width="72.345" height="51.393"/>
	<g>
		<g>
			<rect x="193.226" y="114.815" fill="none" width="29.76" height="4.377"/>
			<text transform="matrix(1.0127 0 0 1 193.2256 117.502)" fill="#FFFFFF" font-family="'TrebuchetMS'" font-size="3.648">IB Mathematics I</text>
			<g>
				<ellipse fill="#662F90" cx="190.77" cy="116.09" rx="1.539" ry="1.521"/>
				<text transform="matrix(1.0127 0 0 1 190.1191 116.8086)" fill="#FFFFFF" font-family="'TrebuchetMS'" font-size="2.1888">1</text>
			</g>
		</g>
		<g>
			<ellipse fill="#662F90" cx="190.77" cy="120.65" rx="1.539" ry="1.52"/>
			<rect x="193.226" y="119.375" fill="none" width="28.821" height="4.378"/>
			<text transform="matrix(1.0127 0 0 1 193.2256 122.0635)" fill="#FFFFFF" font-family="'TrebuchetMS'" font-size="3.648">IB Mathematics II</text>
			<text transform="matrix(1.0127 0 0 1 190.1191 121.3682)" fill="#FFFFFF" font-family="'TrebuchetMS'" font-size="2.1888">1</text>
		</g>
		<g>
			<ellipse fill="#662F90" cx="190.77" cy="125.21" rx="1.539" ry="1.521"/>
			<rect x="193.226" y="123.935" fill="none" width="59.521" height="4.377"/>
			<text transform="matrix(1.0127 0 0 1 193.2256 126.623)" fill="#FFFFFF" font-family="'TrebuchetMS'" font-size="3.648">IB Mathematics III</text>
			<text transform="matrix(1.0127 0 0 1 190.1191 125.9277)" fill="#FFFFFF" font-family="'TrebuchetMS'" font-size="2.1888">1</text>
		</g>
		<g>
			<g>
				<ellipse fill="#662F90" cx="190.77" cy="134.331" rx="1.539" ry="1.52"/>
				<rect x="193.226" y="133.053" fill="none" width="59.521" height="4.381"/>
				<text transform="matrix(1.0127 0 0 1 193.2256 135.7432)" fill="#FFFFFF" font-family="'TrebuchetMS'" font-size="3.648">IB English Intermediate</text>
				<text transform="matrix(1.0127 0 0 1 190.1191 135.0488)" fill="#FFFFFF" font-family="'TrebuchetMS'" font-size="2.1888">1</text>
			</g>
			<g>
				<ellipse fill="#662F90" cx="190.77" cy="129.83" rx="1.539" ry="1.521"/>
				<rect x="193.226" y="128.556" fill="none" width="59.521" height="4.376"/>
				<text transform="matrix(1.0127 0 0 1 193.2256 131.2422)" fill="#FFFFFF" font-family="'TrebuchetMS'" font-size="3.648">IB English Advanced</text>
				<text transform="matrix(1.0127 0 0 1 190.1191 130.5488)" fill="#FFFFFF" font-family="'TrebuchetMS'" font-size="2.1888">1</text>
			</g>
			<g>
				<ellipse fill="#662F90" cx="190.77" cy="138.901" rx="1.539" ry="1.52"/>
				<rect x="193.226" y="137.624" fill="none" width="59.521" height="4.38"/>
				<text transform="matrix(1.0127 0 0 1 193.2256 140.3135)" fill="#FFFFFF" font-family="'TrebuchetMS'" font-size="3.648">IB English Plus</text>
				<text transform="matrix(1.0127 0 0 1 190.1191 139.6191)" fill="#FFFFFF" font-family="'TrebuchetMS'" font-size="2.1888">1</text>
			</g>
		</g>
		<g>
			<g>
				<ellipse fill="#662F90" cx="190.77" cy="148.124" rx="1.539" ry="1.521"/>
				<rect x="193.226" y="146.849" fill="none" width="59.521" height="4.377"/>
				<text transform="matrix(1.0127 0 0 1 193.2256 149.5371)" fill="#FFFFFF" font-family="'TrebuchetMS'" font-size="3.648">NPD Concepts</text>
				<text transform="matrix(1.0127 0 0 1 190.1191 148.8408)" fill="#FFFFFF" font-family="'TrebuchetMS'" font-size="2.1888">1</text>
			</g>
			<g>
				<ellipse fill="#662F90" cx="190.77" cy="143.626" rx="1.539" ry="1.52"/>
				<rect x="193.226" y="142.35" fill="none" width="59.521" height="4.377"/>
				<text transform="matrix(1.0127 0 0 1 193.2256 145.0391)" fill="#FFFFFF" font-family="'TrebuchetMS'" font-size="3.648">NPD Idea’s</text>
				<text transform="matrix(1.0127 0 0 1 190.1191 144.3428)" fill="#FFFFFF" font-family="'TrebuchetMS'" font-size="2.1888">1</text>
			</g>
			<g>
				<ellipse fill="#662F90" cx="190.77" cy="152.696" rx="1.539" ry="1.52"/>
				<rect x="193.226" y="151.419" fill="none" width="59.521" height="4.378"/>
				<text transform="matrix(1.0127 0 0 1 193.2256 154.1074)" fill="#FFFFFF" font-family="'TrebuchetMS'" font-size="3.648">NPD Technics</text>
				<text transform="matrix(1.0127 0 0 1 190.1191 153.4141)" fill="#FFFFFF" font-family="'TrebuchetMS'" font-size="2.1888">1</text>
			</g>
		</g>
	</g>
	<text transform="matrix(0.9787 0 0 1 183.4463 110.4521)" fill="#FFFFFF" font-family="'TrebuchetMS'" font-size="4.5294">IB vrije keuze</text>
</g>
<rect x="2.746" y="217.641" fill="#F16624" width="7.993" height="33.026"/>
<text transform="matrix(0 -1.0347 1 0 9.0322 248.8574)" fill="#FFFFFF" font-family="'TrebuchetMS'" font-size="5.6617">Bovenbouw</text>
<rect x="2.746" y="104.325" fill="#662F90" width="7.993" height="108.596"/>
<text transform="matrix(0 -1.0347 1 0 9.0322 177.957)" fill="#FFFFFF" font-family="'TrebuchetMS'" font-size="5.6617">Middenbouw</text>
<rect x="2.746" y="18.53" fill="#5CA047" width="7.993" height="81.186"/>
<text transform="matrix(0 -1.0347 1 0 9.0322 76.0977)" fill="#FFFFFF" font-family="'TrebuchetMS'" font-size="5.6617">Onderbouw</text>
<g>
	<circle fill="#FFFFFF" cx="20.739" cy="222.357" r="2.36"/>
	<text transform="matrix(1 0 0 1 18.7354 223.4707)" fill="#662F90" font-family="'TrebuchetMS'" font-size="3.397">11</text>
</g>
<g>
	<rect x="2.746" y="4.205" width="249.967" height="10.735"/>
	<text transform="matrix(1.0347 0 0 1 16.3857 11.2334)" fill="#FFFFFF" font-family="'TrebuchetMS'" font-size="5.6617">Entrepreneurship</text>
	<g>
		<circle fill="#FFFFFF" cx="10.909" cy="9.354" r="3.539"/>
		<text transform="matrix(1 0 0 1 8.0303 11.0215)" font-family="'TrebuchetMS'" font-size="5.0956">60</text>
	</g>
</g>
<g>
	<g>
		<g>
			<circle cx="156.689" cy="20.435" r="1.64"/>
			<text transform="matrix(1 0 0 1 155.5801 21.709)" fill="#FFFFFF" font-family="'TrebuchetMS'" font-size="3.6487">1</text>
		</g>
		<rect x="159.335" y="18.992" fill="none" width="93.34" height="3.933"/>
		<text transform="matrix(1.0347 0 0 1 159.334 21.6826)" fill="#6D6E71" font-family="'TrebuchetMS'" font-size="3.6487">= Aantal ECTS (x 28 studiebelastingsuren VWO </text>
	</g>
	<rect x="155.188" y="23.362" fill="none" width="93.342" height="3.932"/>
	<text transform="matrix(1.0347 0 0 1 155.1865 26.0518)" fill="#6D6E71" font-family="'TrebuchetMS'" font-size="3.6487">IB = International Business</text>
	<rect x="151.425" y="27.864" fill="none" width="93.34" height="3.933"/>
	<text transform="matrix(1.0347 0 0 1 151.4248 30.5537)" fill="#6D6E71" font-family="'TrebuchetMS'" font-size="3.6487">NPD = New Product Design</text>
	<g>
		<g>
			<circle fill="#5CA047" cx="156.689" cy="33.928" r="1.64"/>
		</g>
		<rect x="159.335" y="32.486" fill="none" width="93.34" height="3.934"/>
		<text transform="matrix(1.0347 0 0 1 159.334 35.1748)" fill="#6D6E71" font-family="'TrebuchetMS'" font-size="3.6487">= Module gericht op persoon en maatschappij</text>
	</g>
	<g>
		<g>
			<circle fill="#F16624" cx="156.689" cy="44.417" r="1.64"/>
		</g>
		<rect x="159.335" y="42.976" fill="none" width="93.34" height="3.934"/>
		<text transform="matrix(1.0347 0 0 1 159.334 45.666)" fill="#6D6E71" font-family="'TrebuchetMS'" font-size="3.6487">= Module gericht op onderwijs en leren</text>
		<rect x="159.335" y="48.223" fill="none" width="93.34" height="3.935"/>
		<text transform="matrix(1.0347 0 0 1 159.334 50.9141)" fill="#6D6E71" font-family="'TrebuchetMS'" font-size="3.6487">= Fase in de ontwikkeling van een entreprenasiast</text>
	</g>
	<g>
		<g>
			<circle fill="#662F90" cx="156.689" cy="39.127" r="1.64"/>
		</g>
		<rect x="159.335" y="37.686" fill="none" width="93.34" height="3.933"/>
		<text transform="matrix(1.0347 0 0 1 159.334 40.374)" fill="#6D6E71" font-family="'TrebuchetMS'" font-size="3.6487">= Module gericht op ondernemen</text>
	</g>
	<g>
		<rect x="146.63" y="48.132" fill="#5CA047" width="11.429" height="3.279"/>
		<g>
			<rect x="147.709" y="49.427" opacity="0.3" fill="#FFFFFF" width="10.35" height="1.984"/>
		</g>
		<text transform="matrix(1 0 0 1 147.0635 48.9629)" fill="#FFFFFF" font-family="'TrebuchetMS'" font-size="0.6211">Fase</text>
	</g>
	<g>
		<g>
			<rect x="147.64" y="53.732" opacity="0.3" fill="#F16624" width="10.49" height="3.278"/>
			<g>
				<ellipse fill="#F16624" cx="148.023" cy="54.044" rx="0.218" ry="0.211"/>
				<rect x="148.371" y="53.866" fill="none" width="5.624" height="0.609"/>
				<text transform="matrix(1.0347 0 0 1 148.373 54.2422)" fill="#FFFFFF" font-family="'TrebuchetMS'" font-size="0.5069">Module</text>
				<text transform="matrix(1.0347 0 0 1 147.9316 54.1445)" fill="#FFFFFF" font-family="'TrebuchetMS'" font-size="0.3042">1</text>
			</g>
			<g>
				<ellipse fill="#5CA047" cx="148.023" cy="54.678" rx="0.218" ry="0.212"/>
				<rect x="148.371" y="54.5" fill="none" width="8.451" height="0.609"/>
				<text transform="matrix(1.0347 0 0 1 148.373 54.875)" fill="#FFFFFF" font-family="'TrebuchetMS'" font-size="0.5069">Module</text>
				<text transform="matrix(1.0347 0 0 1 147.9316 54.7773)" fill="#FFFFFF" font-family="'TrebuchetMS'" font-size="0.3042">1</text>
			</g>
			<g>
				<ellipse fill="#662F90" cx="148.023" cy="55.311" rx="0.218" ry="0.212"/>
				<rect x="148.371" y="55.134" fill="none" width="8.451" height="0.608"/>
				<text transform="matrix(1.0347 0 0 1 148.373 55.5088)" fill="#FFFFFF" font-family="'TrebuchetMS'" font-size="0.5069">Module</text>
				<text transform="matrix(1.0347 0 0 1 147.9316 55.4111)" fill="#FFFFFF" font-family="'TrebuchetMS'" font-size="0.3042">2</text>
			</g>
			<g>
				<ellipse fill="#662F90" cx="148.023" cy="56.577" rx="0.218" ry="0.213"/>
				<rect x="148.371" y="56.4" fill="none" width="8.451" height="0.61"/>
				<text transform="matrix(1.0347 0 0 1 148.373 56.7764)" fill="#FFFFFF" font-family="'TrebuchetMS'" font-size="0.5069">Module</text>
				<text transform="matrix(1.0347 0 0 1 147.9316 56.6777)" fill="#FFFFFF" font-family="'TrebuchetMS'" font-size="0.3042">1</text>
			</g>
		</g>
		<rect x="159.372" y="53.776" fill="none" width="93.341" height="3.933"/>
		<text transform="matrix(1.0347 0 0 1 159.3721 56.4658)" fill="#6D6E71" font-family="'TrebuchetMS'" font-size="3.6487">= Periode in een leerjaar (3 in dit voorbeeld)</text>
	</g>
</g>
</svg>
