<?xml version="1.0" encoding="utf-8"?>
<!-- Generator: Adobe Illustrator 16.0.0, SVG Export Plug-In . SVG Version: 6.00 Build 0)  -->
<!DOCTYPE svg PUBLIC "-//W3C//DTD SVG 1.1//EN" "http://www.w3.org/Graphics/SVG/1.1/DTD/svg11.dtd">
<svg version="1.1" id="Layer_1" xmlns="http://www.w3.org/2000/svg" xmlns:xlink="http://www.w3.org/1999/xlink" x="0px" y="0px"
	 width="256.312px" height="237.53px" viewBox="0 0 256.312 237.53" enable-background="new 0 0 256.312 237.53"
	 xml:space="preserve">
<g>
	<g>
		<g>
			<polygon fill="#F16624" points="148.021,129.385 131.332,115.382 133.542,93.383 169.301,123.389 			"/>
			<polygon fill="#F16624" points="115.234,92.837 111.452,71.383 127.285,55.952 135.391,101.922 			"/>
			<polygon fill="#F16624" points="116.127,43.761 127.021,24.896 149.067,23.251 125.728,63.677 			"/>
			<polygon fill="#F16624" points="149.743,7.451 170.213,0 188.16,12.913 144.295,28.878 			"/>
			<polygon fill="#F16624" points="196.985,0.176 217.456,7.626 222.904,29.054 179.039,13.089 			"/>
			<polygon fill="#F16624" points="239.869,25.107 250.76,43.973 241.161,63.889 217.82,23.463 			"/>
			<polygon fill="#F16624" points="256.312,71.899 252.529,93.352 232.373,102.438 240.478,56.467 			"/>
			<polygon fill="#F16624" points="194.697,138.642 172.913,138.642 160.464,120.37 207.145,120.37 			"/>
			<polygon fill="#F16624" points="238.421,116.231 221.734,130.234 200.453,124.239 236.213,94.233 			"/>
			<radialGradient id="SVGID_1_" cx="184.2437" cy="69.8223" r="57.5723" gradientUnits="userSpaceOnUse">
				<stop  offset="0" style="stop-color:#FFFFFF"/>
				<stop  offset="1" style="stop-color:#F16624"/>
			</radialGradient>
			<path fill="url(#SVGID_1_)" d="M241.816,69.822c0,27.087-18.707,49.807-43.905,55.941c-4.381,1.065-8.959,1.631-13.668,1.631
				c-4.661,0-9.192-0.555-13.533-1.6c-25.266-6.088-44.039-28.838-44.039-55.973c0-31.796,25.776-57.572,57.572-57.572
				C216.04,12.25,241.816,38.026,241.816,69.822z"/>
		</g>
	</g>
	<g>
		<g>
			<polygon fill="#662F90" stroke="#662F90" stroke-width="0.5794" points="36.88,134.084 20.192,120.081 22.402,98.083 
				58.161,128.089 			"/>
			<polygon fill="#662F90" stroke="#662F90" stroke-width="0.5794" points="4.094,97.536 0.312,76.083 16.145,60.651 24.25,106.622 
							"/>
			<polygon fill="#662F90" stroke="#662F90" stroke-width="0.5794" points="4.987,48.459 15.88,29.595 37.927,27.951 14.587,68.376 
							"/>
			<polygon fill="#662F90" stroke="#662F90" stroke-width="0.5794" points="38.603,12.15 59.073,4.699 77.019,17.611 33.154,33.577 
							"/>
			<polygon fill="#662F90" stroke="#662F90" stroke-width="0.5794" points="85.845,4.875 106.316,12.326 111.764,33.753 
				67.899,17.788 			"/>
			<polygon fill="#662F90" stroke="#662F90" stroke-width="0.5794" points="128.729,29.807 139.62,48.672 130.02,68.588 
				106.681,28.162 			"/>
			<polygon fill="#662F90" stroke="#662F90" stroke-width="0.5794" points="145.171,76.598 141.388,98.051 121.232,107.137 
				129.338,61.166 			"/>
			<polygon fill="#662F90" stroke="#662F90" stroke-width="0.5794" points="83.556,143.341 61.772,143.341 49.324,125.069 
				96.004,125.069 			"/>
			<polygon fill="#662F90" stroke="#662F90" stroke-width="0.5794" points="127.281,120.931 110.594,134.934 89.313,128.938 
				125.072,98.933 			"/>
			<radialGradient id="SVGID_2_" cx="73.103" cy="74.5215" r="57.5725" gradientUnits="userSpaceOnUse">
				<stop  offset="0" style="stop-color:#FFFFFF"/>
				<stop  offset="1" style="stop-color:#662F90"/>
			</radialGradient>
			<path fill="url(#SVGID_2_)" stroke="#662F90" stroke-width="0.5794" d="M130.676,74.521c0,27.088-18.707,49.805-43.905,55.94
				c-4.381,1.067-8.958,1.632-13.667,1.632c-4.662,0-9.193-0.554-13.534-1.6c-25.266-6.088-44.038-28.838-44.038-55.973
				c0-31.797,25.776-57.573,57.572-57.573C104.899,16.949,130.676,42.725,130.676,74.521z"/>
		</g>
	</g>
	<g>
		<g>
			<polygon fill="#5CA047" stroke="#5CA047" stroke-width="0.5794" points="106.261,227.984 89.573,213.98 91.783,191.983 
				127.542,221.988 			"/>
			<polygon fill="#5CA047" stroke="#5CA047" stroke-width="0.5794" points="73.475,191.436 69.693,169.982 85.526,154.551 
				93.631,200.521 			"/>
			<polygon fill="#5CA047" stroke="#5CA047" stroke-width="0.5794" points="74.368,142.359 85.261,123.495 107.309,121.851 
				83.968,162.276 			"/>
			<polygon fill="#5CA047" stroke="#5CA047" stroke-width="0.5794" points="107.983,106.05 128.454,98.599 146.4,111.511 
				102.536,127.477 			"/>
			<polygon fill="#5CA047" stroke="#5CA047" stroke-width="0.5794" points="155.227,98.775 175.697,106.226 181.145,127.653 
				137.28,111.688 			"/>
			<polygon fill="#5CA047" stroke="#5CA047" stroke-width="0.5794" points="198.109,123.706 209.001,142.571 199.402,162.487 
				176.062,122.062 			"/>
			<polygon fill="#5CA047" stroke="#5CA047" stroke-width="0.5794" points="214.552,170.498 210.769,191.951 190.614,201.037 
				198.719,155.065 			"/>
			<polygon fill="#5CA047" stroke="#5CA047" stroke-width="0.5794" points="152.938,237.24 131.153,237.24 118.705,218.969 
				165.385,218.969 			"/>
			<polygon fill="#5CA047" stroke="#5CA047" stroke-width="0.5794" points="196.662,214.831 179.975,228.833 158.694,222.838 
				194.453,192.832 			"/>
			<radialGradient id="SVGID_3_" cx="142.4839" cy="168.4209" r="57.5723" gradientUnits="userSpaceOnUse">
				<stop  offset="0" style="stop-color:#FFFFFF"/>
				<stop  offset="1" style="stop-color:#5CA047"/>
			</radialGradient>
			<path fill="url(#SVGID_3_)" stroke="#5CA047" stroke-width="0.5794" d="M200.056,168.421c0,27.088-18.706,49.806-43.905,55.94
				c-4.381,1.067-8.958,1.632-13.667,1.632c-4.662,0-9.194-0.554-13.535-1.6c-25.266-6.087-44.038-28.837-44.038-55.973
				c0-31.796,25.776-57.572,57.573-57.572C174.28,110.849,200.056,136.625,200.056,168.421z"/>
		</g>
	</g>
</g>
</svg>
