<?xml version="1.0" encoding="utf-8"?>
<!-- Generator: Adobe Illustrator 16.0.0, SVG Export Plug-In . SVG Version: 6.00 Build 0)  -->
<!DOCTYPE svg PUBLIC "-//W3C//DTD SVG 1.1//EN" "http://www.w3.org/Graphics/SVG/1.1/DTD/svg11.dtd">
<svg version="1.1" id="Layer_1" xmlns="http://www.w3.org/2000/svg" xmlns:xlink="http://www.w3.org/1999/xlink" x="0px" y="0px"
	 width="256px" height="256px" viewBox="0 0 256 256" enable-background="new 0 0 256 256" xml:space="preserve">
<g id="Arrow_11">
</g>
<g>
	
		<radialGradient id="SVGID_1_" cx="-274.0762" cy="1561.9336" r="211.3608" gradientTransform="matrix(0 -0.6056 0.6056 0 -817.6732 -37.9952)" gradientUnits="userSpaceOnUse">
		<stop  offset="0" style="stop-color:#CE9DC7"/>
		<stop  offset="0.2143" style="stop-color:#CF9FC9"/>
		<stop  offset="0.3831" style="stop-color:#D1A7CD"/>
		<stop  offset="0.5364" style="stop-color:#D4B4D5"/>
		<stop  offset="0.6796" style="stop-color:#DAC6E1"/>
		<stop  offset="0.7802" style="stop-color:#DFD7EB"/>
		<stop  offset="1" style="stop-color:#FFFFFF"/>
	</radialGradient>
	<path fill-rule="evenodd" clip-rule="evenodd" fill="url(#SVGID_1_)" d="M0.234,244.74v-0.615h11.245v-9.089H0.234v-0.615h11.245
		v-9.088H0.234v-0.615h11.245v-9.089H0.234v-0.615h11.245v-9.089H0.234v-0.615h11.245v-9.089H0.234v-0.615h11.245v-9.089H0.234
		v-0.615h11.245v-9.089H0.234v-0.615h11.245v-9.089H0.234v-0.615h11.245v-9.088H0.234v-0.616h11.245v-9.088H0.234v-0.615h11.245
		v-9.089H0.234v-0.615h11.245v-9.089H0.234v-0.615h11.245v-9.089H0.234v-0.615h11.245v-9.089H0.234v-0.615h11.245v-9.088H0.234
		v-0.616h11.245v-9.088H0.234v-0.615h11.245v-9.089H0.234v-0.615h11.245v-9.089H0.234v-0.615h11.245v-9.089H0.234V59.75h11.245
		v-9.089H0.234v-0.615h11.245v-9.088H0.234v-0.616h11.245v-9.089H0.234v-0.615h11.245V21.55H0.234v-0.615h11.245v-9.09H0.234v-0.615
		h11.245V-0.015h0.616v11.244h9.088V-0.015h0.615v11.244h9.089V-0.015h0.615v11.244h9.089V-0.015h0.615v11.244h9.088V-0.015h0.616
		v11.244h9.088V-0.015h0.616v11.244h9.088V-0.015h0.615v11.244h9.088V-0.015h0.616v11.244h9.088V-0.015h0.615v11.244h9.089V-0.015
		h0.615v11.244h9.089V-0.015h0.615v11.244h9.089V-0.015h0.615v11.244h9.088V-0.015h0.616v11.244h9.089V-0.015h0.616v11.244h9.088
		V-0.015h0.615v11.244h9.089V-0.015h0.615v11.244h9.089V-0.015h0.615v11.244h9.089V-0.015h0.615v11.244h9.089V-0.015h0.615v11.244
		h9.088V-0.015h0.615v11.244h9.089V-0.015h0.616v11.244h9.088V-0.015h0.615v11.244h9.089V-0.015h0.616v11.244h9.088V-0.015h0.615
		v11.244h9.089V-0.015h0.615v11.244h11.244v0.615h-11.244v9.09h11.244l0.001,0.615h-11.245v9.088h11.244v0.615h-11.244v9.089h11.244
		l0.001,0.616h-11.245v9.088h11.244v0.615h-11.244v9.089h11.244v0.615h-11.244v9.089h11.245l-0.001,0.615h-11.244v9.089h11.244
		v0.615h-11.244v9.089h11.244v0.615h-11.244v9.088h11.245v0.616h-11.245v9.088h11.245l-0.001,0.615h-11.244v9.089h11.244v0.615
		h-11.244v9.089h11.244v0.615h-11.244v9.089h11.244v0.615h-11.244v9.089h11.245l-0.001,0.615h-11.244v9.088h11.244v0.616h-11.244
		v9.088h11.245l-0.001,0.615h-11.244v9.089h11.244v0.615h-11.244v9.089h11.244v0.615h-11.244v9.089h11.244v0.615h-11.244v9.089
		h11.244v0.615h-11.244v9.089h11.244v0.615h-11.244v9.089h11.245l-0.001,0.615h-11.244v9.088h11.244v0.615h-11.244v9.089h11.244
		v0.615h-11.244v11.245h-0.615V244.74h-9.089v11.245h-0.615V244.74h-9.088v11.245h-0.616V244.74h-9.089v11.245h-0.615V244.74h-9.088
		v11.245h-0.616V244.74h-9.089v11.245h-0.615V244.74h-9.088v11.245h-0.615V244.74h-9.089v11.245h-0.615V244.74h-9.089v11.245h-0.615
		V244.74h-9.089v11.245h-0.615V244.74h-9.089v11.245h-0.615V244.74h-9.088v11.245h-0.616V244.74h-9.089v11.245h-0.616V244.74h-9.088
		v11.245h-0.615V244.74h-9.089v11.245h-0.615V244.74H99.43v11.245h-0.615V244.74h-9.089v11.245H89.11V244.74h-9.088v11.245h-0.616
		V244.74h-9.088v11.245h-0.615V244.74h-9.088v11.245h-0.616V244.74H50.91v11.245h-0.616V244.74h-9.088v11.245h-0.615V244.74h-9.089
		v11.245h-0.615V244.74h-9.089v11.245h-0.615V244.74h-9.088v11.245h-0.616V244.74H0.234L0.234,244.74z M12.094,244.125h9.088v-9.089
		h-9.088V244.125L12.094,244.125z M21.798,244.125h9.089v-9.089h-9.089V244.125L21.798,244.125z M31.502,244.125h9.089v-9.089
		h-9.089V244.125L31.502,244.125z M41.206,244.125h9.088v-9.089h-9.088V244.125L41.206,244.125z M50.91,244.125h9.088v-9.089H50.91
		V244.125L50.91,244.125z M60.614,244.125h9.088v-9.089h-9.088V244.125L60.614,244.125z M70.318,244.125h9.088v-9.089h-9.088
		V244.125L70.318,244.125z M80.022,244.125h9.088v-9.089h-9.088V244.125L80.022,244.125z M89.726,244.125h9.089v-9.089h-9.089
		V244.125L89.726,244.125z M99.43,244.125h9.089v-9.089H99.43V244.125L99.43,244.125z M109.133,244.125h9.089v-9.089h-9.089V244.125
		L109.133,244.125z M118.837,244.125h9.088v-9.089h-9.088V244.125L118.837,244.125z M128.542,244.125h9.089v-9.089h-9.089V244.125
		L128.542,244.125z M138.246,244.125h9.088v-9.089h-9.088V244.125L138.246,244.125z M147.949,244.125h9.089v-9.089h-9.089V244.125
		L147.949,244.125z M157.653,244.125h9.089v-9.089h-9.089V244.125L157.653,244.125z M167.357,244.125h9.089v-9.089h-9.089V244.125
		L167.357,244.125z M177.062,244.125h9.089v-9.089h-9.089V244.125L177.062,244.125z M186.766,244.125h9.088v-9.089h-9.088V244.125
		L186.766,244.125z M196.469,244.125h9.089v-9.089h-9.089V244.125L196.469,244.125z M206.174,244.125h9.088v-9.089h-9.088V244.125
		L206.174,244.125z M215.877,244.125h9.089v-9.089h-9.089V244.125L215.877,244.125z M225.582,244.125h9.088v-9.089h-9.088V244.125
		L225.582,244.125z M235.285,244.125h9.089v-9.089h-9.089V244.125L235.285,244.125z M12.094,11.845v9.09h9.088v-9.09H12.094
		L12.094,11.845z M12.094,21.55v9.088h9.088V21.55H12.094L12.094,21.55z M12.094,31.253v9.089h9.088v-9.089H12.094L12.094,31.253z
		 M12.094,40.958v9.088h9.088v-9.088H12.094L12.094,40.958z M12.094,50.661v9.089h9.088v-9.089H12.094L12.094,50.661z
		 M12.094,60.365v9.089h9.088v-9.089H12.094L12.094,60.365z M12.094,70.069v9.089h9.088v-9.089H12.094L12.094,70.069z
		 M12.094,79.773v9.089h9.088v-9.089H12.094L12.094,79.773z M12.094,89.478v9.088h9.088v-9.088H12.094L12.094,89.478z
		 M12.094,99.182v9.088h9.088v-9.088H12.094L12.094,99.182z M12.094,108.885v9.089h9.088v-9.089H12.094L12.094,108.885z
		 M12.094,118.589v9.089h9.088v-9.089H12.094L12.094,118.589z M12.094,128.293v9.089h9.088v-9.089H12.094L12.094,128.293z
		 M12.094,137.997v9.089h9.088v-9.089H12.094L12.094,137.997z M12.094,147.701v9.088h9.088v-9.088H12.094L12.094,147.701z
		 M12.094,157.405v9.088h9.088v-9.088H12.094L12.094,157.405z M12.094,167.108v9.089h9.088v-9.089H12.094L12.094,167.108z
		 M12.094,176.812v9.089h9.088v-9.089H12.094L12.094,176.812z M12.094,186.517v9.089h9.088v-9.089H12.094L12.094,186.517z
		 M12.094,196.221v9.089h9.088v-9.089H12.094L12.094,196.221z M12.094,205.925v9.089h9.088v-9.089H12.094L12.094,205.925z
		 M12.094,215.629v9.089h9.088v-9.089H12.094L12.094,215.629z M12.094,225.333v9.088h9.088v-9.088H12.094L12.094,225.333z
		 M21.798,11.845v9.09h9.089v-9.09H21.798L21.798,11.845z M21.798,21.55v9.088h9.089V21.55H21.798L21.798,21.55z M21.798,31.253
		v9.089h9.089v-9.089H21.798L21.798,31.253z M21.798,40.958v9.088h9.089v-9.088H21.798L21.798,40.958z M21.798,50.661v9.089h9.089
		v-9.089H21.798L21.798,50.661z M21.798,60.365v9.089h9.089v-9.089H21.798L21.798,60.365z M21.798,70.069v9.089h9.089v-9.089H21.798
		L21.798,70.069z M21.798,79.773v9.089h9.089v-9.089H21.798L21.798,79.773z M21.798,89.478v9.088h9.089v-9.088H21.798L21.798,89.478
		z M21.798,99.182v9.088h9.089v-9.088H21.798L21.798,99.182z M21.798,108.885v9.089h9.089v-9.089H21.798L21.798,108.885z
		 M21.798,118.589v9.089h9.089v-9.089H21.798L21.798,118.589z M21.798,128.293v9.089h9.089v-9.089H21.798L21.798,128.293z
		 M21.798,137.997v9.089h9.089v-9.089H21.798L21.798,137.997z M21.798,147.701v9.088h9.089v-9.088H21.798L21.798,147.701z
		 M21.798,157.405v9.088h9.089v-9.088H21.798L21.798,157.405z M21.798,167.108v9.089h9.089v-9.089H21.798L21.798,167.108z
		 M21.798,176.812v9.089h9.089v-9.089H21.798L21.798,176.812z M21.798,186.517v9.089h9.089v-9.089H21.798L21.798,186.517z
		 M21.798,196.221v9.089h9.089v-9.089H21.798L21.798,196.221z M21.798,205.925v9.089h9.089v-9.089H21.798L21.798,205.925z
		 M21.798,215.629v9.089h9.089v-9.089H21.798L21.798,215.629z M21.798,225.333v9.088h9.089v-9.088H21.798L21.798,225.333z
		 M31.502,11.845v9.09h9.089v-9.09H31.502L31.502,11.845z M31.502,21.55v9.088h9.089V21.55H31.502L31.502,21.55z M31.502,31.253
		v9.089h9.089v-9.089H31.502L31.502,31.253z M31.502,40.958v9.088h9.089v-9.088H31.502L31.502,40.958z M31.502,50.661v9.089h9.089
		v-9.089H31.502L31.502,50.661z M31.502,60.365v9.089h9.089v-9.089H31.502L31.502,60.365z M31.502,70.069v9.089h9.089v-9.089H31.502
		L31.502,70.069z M31.502,79.773v9.089h9.089v-9.089H31.502L31.502,79.773z M31.502,89.478v9.088h9.089v-9.088H31.502L31.502,89.478
		z M31.502,99.182v9.088h9.089v-9.088H31.502L31.502,99.182z M31.502,108.885v9.089h9.089v-9.089H31.502L31.502,108.885z
		 M31.502,118.589v9.089h9.089v-9.089H31.502L31.502,118.589z M31.502,128.293v9.089h9.089v-9.089H31.502L31.502,128.293z
		 M31.502,137.997v9.089h9.089v-9.089H31.502L31.502,137.997z M31.502,147.701v9.088h9.089v-9.088H31.502L31.502,147.701z
		 M31.502,157.405v9.088h9.089v-9.088H31.502L31.502,157.405z M31.502,167.108v9.089h9.089v-9.089H31.502L31.502,167.108z
		 M31.502,176.812v9.089h9.089v-9.089H31.502L31.502,176.812z M31.502,186.517v9.089h9.089v-9.089H31.502L31.502,186.517z
		 M31.502,196.221v9.089h9.089v-9.089H31.502L31.502,196.221z M31.502,205.925v9.089h9.089v-9.089H31.502L31.502,205.925z
		 M31.502,215.629v9.089h9.089v-9.089H31.502L31.502,215.629z M31.502,225.333v9.088h9.089v-9.088H31.502L31.502,225.333z
		 M41.206,11.845v9.09h9.088v-9.09H41.206L41.206,11.845z M41.206,21.55v9.088h9.088V21.55H41.206L41.206,21.55z M41.206,31.253
		v9.089h9.088v-9.089H41.206L41.206,31.253z M41.206,40.958v9.088h9.088v-9.088H41.206L41.206,40.958z M41.206,50.661v9.089h9.088
		v-9.089H41.206L41.206,50.661z M41.206,60.365v9.089h9.088v-9.089H41.206L41.206,60.365z M41.206,70.069v9.089h9.088v-9.089H41.206
		L41.206,70.069z M41.206,79.773v9.089h9.088v-9.089H41.206L41.206,79.773z M41.206,89.478v9.088h9.088v-9.088H41.206L41.206,89.478
		z M41.206,99.182v9.088h9.088v-9.088H41.206L41.206,99.182z M41.206,108.885v9.089h9.088v-9.089H41.206L41.206,108.885z
		 M41.206,118.589v9.089h9.088v-9.089H41.206L41.206,118.589z M41.206,128.293v9.089h9.088v-9.089H41.206L41.206,128.293z
		 M41.206,137.997v9.089h9.088v-9.089H41.206L41.206,137.997z M41.206,147.701v9.088h9.088v-9.088H41.206L41.206,147.701z
		 M41.206,157.405v9.088h9.088v-9.088H41.206L41.206,157.405z M41.206,167.108v9.089h9.088v-9.089H41.206L41.206,167.108z
		 M41.206,176.812v9.089h9.088v-9.089H41.206L41.206,176.812z M41.206,186.517v9.089h9.088v-9.089H41.206L41.206,186.517z
		 M41.206,196.221v9.089h9.088v-9.089H41.206L41.206,196.221z M41.206,205.925v9.089h9.088v-9.089H41.206L41.206,205.925z
		 M41.206,215.629v9.089h9.088v-9.089H41.206L41.206,215.629z M41.206,225.333v9.088h9.088v-9.088H41.206L41.206,225.333z
		 M50.91,11.845v9.09h9.088v-9.09H50.91L50.91,11.845z M50.91,21.55v9.088h9.088V21.55H50.91L50.91,21.55z M50.91,31.253v9.089
		h9.088v-9.089H50.91L50.91,31.253z M50.91,40.958v9.088h9.088v-9.088H50.91L50.91,40.958z M50.91,50.661v9.089h9.088v-9.089H50.91
		L50.91,50.661z M50.91,60.365v9.089h9.088v-9.089H50.91L50.91,60.365z M50.91,70.069v9.089h9.088v-9.089H50.91L50.91,70.069z
		 M50.91,79.773v9.089h9.088v-9.089H50.91L50.91,79.773z M50.91,89.478v9.088h9.088v-9.088H50.91L50.91,89.478z M50.91,99.182v9.088
		h9.088v-9.088H50.91L50.91,99.182z M50.91,108.885v9.089h9.088v-9.089H50.91L50.91,108.885z M50.91,118.589v9.089h9.088v-9.089
		H50.91L50.91,118.589z M50.91,128.293v9.089h9.088v-9.089H50.91L50.91,128.293z M50.91,137.997v9.089h9.088v-9.089H50.91
		L50.91,137.997z M50.91,147.701v9.088h9.088v-9.088H50.91L50.91,147.701z M50.91,157.405v9.088h9.088v-9.088H50.91L50.91,157.405z
		 M50.91,167.108v9.089h9.088v-9.089H50.91L50.91,167.108z M50.91,176.812v9.089h9.088v-9.089H50.91L50.91,176.812z M50.91,186.517
		v9.089h9.088v-9.089H50.91L50.91,186.517z M50.91,196.221v9.089h9.088v-9.089H50.91L50.91,196.221z M50.91,205.925v9.089h9.088
		v-9.089H50.91L50.91,205.925z M50.91,215.629v9.089h9.088v-9.089H50.91L50.91,215.629z M50.91,225.333v9.088h9.088v-9.088H50.91
		L50.91,225.333z M60.614,11.845v9.09h9.088v-9.09H60.614L60.614,11.845z M60.614,21.55v9.088h9.088V21.55H60.614L60.614,21.55z
		 M60.614,31.253v9.089h9.088v-9.089H60.614L60.614,31.253z M60.614,40.958v9.088h9.088v-9.088H60.614L60.614,40.958z
		 M60.614,50.661v9.089h9.088v-9.089H60.614L60.614,50.661z M60.614,60.365v9.089h9.088v-9.089H60.614L60.614,60.365z
		 M60.614,70.069v9.089h9.088v-9.089H60.614L60.614,70.069z M60.614,79.773v9.089h9.088v-9.089H60.614L60.614,79.773z
		 M60.614,89.478v9.088h9.088v-9.088H60.614L60.614,89.478z M60.614,99.182v9.088h9.088v-9.088H60.614L60.614,99.182z
		 M60.614,108.885v9.089h9.088v-9.089H60.614L60.614,108.885z M60.614,118.589v9.089h9.088v-9.089H60.614L60.614,118.589z
		 M60.614,128.293v9.089h9.088v-9.089H60.614L60.614,128.293z M60.614,137.997v9.089h9.088v-9.089H60.614L60.614,137.997z
		 M60.614,147.701v9.088h9.088v-9.088H60.614L60.614,147.701z M60.614,157.405v9.088h9.088v-9.088H60.614L60.614,157.405z
		 M60.614,167.108v9.089h9.088v-9.089H60.614L60.614,167.108z M60.614,176.812v9.089h9.088v-9.089H60.614L60.614,176.812z
		 M60.614,186.517v9.089h9.088v-9.089H60.614L60.614,186.517z M60.614,196.221v9.089h9.088v-9.089H60.614L60.614,196.221z
		 M60.614,205.925v9.089h9.088v-9.089H60.614L60.614,205.925z M60.614,215.629v9.089h9.088v-9.089H60.614L60.614,215.629z
		 M60.614,225.333v9.088h9.088v-9.088H60.614L60.614,225.333z M70.318,11.845v9.09h9.088v-9.09H70.318L70.318,11.845z M70.318,21.55
		v9.088h9.088V21.55H70.318L70.318,21.55z M70.318,31.253v9.089h9.088v-9.089H70.318L70.318,31.253z M70.318,40.958v9.088h9.088
		v-9.088H70.318L70.318,40.958z M70.318,50.661v9.089h9.088v-9.089H70.318L70.318,50.661z M70.318,60.365v9.089h9.088v-9.089H70.318
		L70.318,60.365z M70.318,70.069v9.089h9.088v-9.089H70.318L70.318,70.069z M70.318,79.773v9.089h9.088v-9.089H70.318L70.318,79.773
		z M70.318,89.478v9.088h9.088v-9.088H70.318L70.318,89.478z M70.318,99.182v9.088h9.088v-9.088H70.318L70.318,99.182z
		 M70.318,108.885v9.089h9.088v-9.089H70.318L70.318,108.885z M70.318,118.589v9.089h9.088v-9.089H70.318L70.318,118.589z
		 M70.318,128.293v9.089h9.088v-9.089H70.318L70.318,128.293z M70.318,137.997v9.089h9.088v-9.089H70.318L70.318,137.997z
		 M70.318,147.701v9.088h9.088v-9.088H70.318L70.318,147.701z M70.318,157.405v9.088h9.088v-9.088H70.318L70.318,157.405z
		 M70.318,167.108v9.089h9.088v-9.089H70.318L70.318,167.108z M70.318,176.812v9.089h9.088v-9.089H70.318L70.318,176.812z
		 M70.318,186.517v9.089h9.088v-9.089H70.318L70.318,186.517z M70.318,196.221v9.089h9.088v-9.089H70.318L70.318,196.221z
		 M70.318,205.925v9.089h9.088v-9.089H70.318L70.318,205.925z M70.318,215.629v9.089h9.088v-9.089H70.318L70.318,215.629z
		 M70.318,225.333v9.088h9.088v-9.088H70.318L70.318,225.333z M80.022,11.845v9.09h9.088v-9.09H80.022L80.022,11.845z M80.022,21.55
		v9.088h9.088V21.55H80.022L80.022,21.55z M80.022,31.253v9.089h9.088v-9.089H80.022L80.022,31.253z M80.022,40.958v9.088h9.088
		v-9.088H80.022L80.022,40.958z M80.022,50.661v9.089h9.088v-9.089H80.022L80.022,50.661z M80.022,60.365v9.089h9.088v-9.089H80.022
		L80.022,60.365z M80.022,70.069v9.089h9.088v-9.089H80.022L80.022,70.069z M80.022,79.773v9.089h9.088v-9.089H80.022L80.022,79.773
		z M80.022,89.478v9.088h9.088v-9.088H80.022L80.022,89.478z M80.022,99.182v9.088h9.088v-9.088H80.022L80.022,99.182z
		 M80.022,108.885v9.089h9.088v-9.089H80.022L80.022,108.885z M80.022,118.589v9.089h9.088v-9.089H80.022L80.022,118.589z
		 M80.022,128.293v9.089h9.088v-9.089H80.022L80.022,128.293z M80.022,137.997v9.089h9.088v-9.089H80.022L80.022,137.997z
		 M80.022,147.701v9.088h9.088v-9.088H80.022L80.022,147.701z M80.022,157.405v9.088h9.088v-9.088H80.022L80.022,157.405z
		 M80.022,167.108v9.089h9.088v-9.089H80.022L80.022,167.108z M80.022,176.812v9.089h9.088v-9.089H80.022L80.022,176.812z
		 M80.022,186.517v9.089h9.088v-9.089H80.022L80.022,186.517z M80.022,196.221v9.089h9.088v-9.089H80.022L80.022,196.221z
		 M80.022,205.925v9.089h9.088v-9.089H80.022L80.022,205.925z M80.022,215.629v9.089h9.088v-9.089H80.022L80.022,215.629z
		 M80.022,225.333v9.088h9.088v-9.088H80.022L80.022,225.333z M89.726,11.845v9.09h9.089v-9.09H89.726L89.726,11.845z M89.726,21.55
		v9.088h9.089V21.55H89.726L89.726,21.55z M89.726,31.253v9.089h9.089v-9.089H89.726L89.726,31.253z M89.726,40.958v9.088h9.089
		v-9.088H89.726L89.726,40.958z M89.726,50.661v9.089h9.089v-9.089H89.726L89.726,50.661z M89.726,60.365v9.089h9.089v-9.089H89.726
		L89.726,60.365z M89.726,70.069v9.089h9.089v-9.089H89.726L89.726,70.069z M89.726,79.773v9.089h9.089v-9.089H89.726L89.726,79.773
		z M89.726,89.478v9.088h9.089v-9.088H89.726L89.726,89.478z M89.726,99.182v9.088h9.089v-9.088H89.726L89.726,99.182z
		 M89.726,108.885v9.089h9.089v-9.089H89.726L89.726,108.885z M89.726,118.589v9.089h9.089v-9.089H89.726L89.726,118.589z
		 M89.726,128.293v9.089h9.089v-9.089H89.726L89.726,128.293z M89.726,137.997v9.089h9.089v-9.089H89.726L89.726,137.997z
		 M89.726,147.701v9.088h9.089v-9.088H89.726L89.726,147.701z M89.726,157.405v9.088h9.089v-9.088H89.726L89.726,157.405z
		 M89.726,167.108v9.089h9.089v-9.089H89.726L89.726,167.108z M89.726,176.812v9.089h9.089v-9.089H89.726L89.726,176.812z
		 M89.726,186.517v9.089h9.089v-9.089H89.726L89.726,186.517z M89.726,196.221v9.089h9.089v-9.089H89.726L89.726,196.221z
		 M89.726,205.925v9.089h9.089v-9.089H89.726L89.726,205.925z M89.726,215.629v9.089h9.089v-9.089H89.726L89.726,215.629z
		 M89.726,225.333v9.088h9.089v-9.088H89.726L89.726,225.333z M99.43,11.845v9.09h9.089v-9.09H99.43L99.43,11.845z M99.43,21.55
		v9.088h9.089V21.55H99.43L99.43,21.55z M99.43,31.253v9.089h9.089v-9.089H99.43L99.43,31.253z M99.43,40.958v9.088h9.089v-9.088
		H99.43L99.43,40.958z M99.43,50.661v9.089h9.089v-9.089H99.43L99.43,50.661z M99.43,60.365v9.089h9.089v-9.089H99.43L99.43,60.365z
		 M99.43,70.069v9.089h9.089v-9.089H99.43L99.43,70.069z M99.43,79.773v9.089h9.089v-9.089H99.43L99.43,79.773z M99.43,89.478v9.088
		h9.089v-9.088H99.43L99.43,89.478z M99.43,99.182v9.088h9.089v-9.088H99.43L99.43,99.182z M99.43,108.885v9.089h9.089v-9.089H99.43
		L99.43,108.885z M99.43,118.589v9.089h9.089v-9.089H99.43L99.43,118.589z M99.43,128.293v9.089h9.089v-9.089H99.43L99.43,128.293z
		 M99.43,137.997v9.089h9.089v-9.089H99.43L99.43,137.997z M99.43,147.701v9.088h9.089v-9.088H99.43L99.43,147.701z M99.43,157.405
		v9.088h9.089v-9.088H99.43L99.43,157.405z M99.43,167.108v9.089h9.089v-9.089H99.43L99.43,167.108z M99.43,176.812v9.089h9.089
		v-9.089H99.43L99.43,176.812z M99.43,186.517v9.089h9.089v-9.089H99.43L99.43,186.517z M99.43,196.221v9.089h9.089v-9.089H99.43
		L99.43,196.221z M99.43,205.925v9.089h9.089v-9.089H99.43L99.43,205.925z M99.43,215.629v9.089h9.089v-9.089H99.43L99.43,215.629z
		 M99.43,225.333v9.088h9.089v-9.088H99.43L99.43,225.333z M109.133,11.845v9.09h9.089v-9.09H109.133L109.133,11.845z
		 M109.133,21.55v9.088h9.089V21.55H109.133L109.133,21.55z M109.133,31.253v9.089h9.089v-9.089H109.133L109.133,31.253z
		 M109.133,40.958v9.088h9.089v-9.088H109.133L109.133,40.958z M109.133,50.661v9.089h9.089v-9.089H109.133L109.133,50.661z
		 M109.133,60.365v9.089h9.089v-9.089H109.133L109.133,60.365z M109.133,70.069v9.089h9.089v-9.089H109.133L109.133,70.069z
		 M109.133,79.773v9.089h9.089v-9.089H109.133L109.133,79.773z M109.133,89.478v9.088h9.089v-9.088H109.133L109.133,89.478z
		 M109.133,99.182v9.088h9.089v-9.088H109.133L109.133,99.182z M109.133,108.885v9.089h9.089v-9.089H109.133L109.133,108.885z
		 M109.133,118.589v9.089h9.089v-9.089H109.133L109.133,118.589z M109.133,128.293v9.089h9.089v-9.089H109.133L109.133,128.293z
		 M109.133,137.997v9.089h9.089v-9.089H109.133L109.133,137.997z M109.133,147.701v9.088h9.089v-9.088H109.133L109.133,147.701z
		 M109.133,157.405v9.088h9.089v-9.088H109.133L109.133,157.405z M109.133,167.108v9.089h9.089v-9.089H109.133L109.133,167.108z
		 M109.133,176.812v9.089h9.089v-9.089H109.133L109.133,176.812z M109.133,186.517v9.089h9.089v-9.089H109.133L109.133,186.517z
		 M109.133,196.221v9.089h9.089v-9.089H109.133L109.133,196.221z M109.133,205.925v9.089h9.089v-9.089H109.133L109.133,205.925z
		 M109.133,215.629v9.089h9.089v-9.089H109.133L109.133,215.629z M109.133,225.333v9.088h9.089v-9.088H109.133L109.133,225.333z
		 M118.837,11.845v9.09h9.088v-9.09H118.837L118.837,11.845z M118.837,21.55v9.088h9.088V21.55H118.837L118.837,21.55z
		 M118.837,31.253v9.089h9.088v-9.089H118.837L118.837,31.253z M118.837,40.958v9.088h9.088v-9.088H118.837L118.837,40.958z
		 M118.837,50.661v9.089h9.088v-9.089H118.837L118.837,50.661z M118.837,60.365v9.089h9.088v-9.089H118.837L118.837,60.365z
		 M118.837,70.069v9.089h9.088v-9.089H118.837L118.837,70.069z M118.837,79.773v9.089h9.088v-9.089H118.837L118.837,79.773z
		 M118.837,89.478v9.088h9.088v-9.088H118.837L118.837,89.478z M118.837,99.182v9.088h9.088v-9.088H118.837L118.837,99.182z
		 M118.837,108.885v9.089h9.088v-9.089H118.837L118.837,108.885z M118.837,118.589v9.089h9.088v-9.089H118.837L118.837,118.589z
		 M118.837,128.293v9.089h9.088v-9.089H118.837L118.837,128.293z M118.837,137.997v9.089h9.088v-9.089H118.837L118.837,137.997z
		 M118.837,147.701v9.088h9.088v-9.088H118.837L118.837,147.701z M118.837,157.405v9.088h9.088v-9.088H118.837L118.837,157.405z
		 M118.837,167.108v9.089h9.088v-9.089H118.837L118.837,167.108z M118.837,176.812v9.089h9.088v-9.089H118.837L118.837,176.812z
		 M118.837,186.517v9.089h9.088v-9.089H118.837L118.837,186.517z M118.837,196.221v9.089h9.088v-9.089H118.837L118.837,196.221z
		 M118.837,205.925v9.089h9.088v-9.089H118.837L118.837,205.925z M118.837,215.629v9.089h9.088v-9.089H118.837L118.837,215.629z
		 M118.837,225.333v9.088h9.088v-9.088H118.837L118.837,225.333z M128.542,11.845v9.09h9.089v-9.09H128.542L128.542,11.845z
		 M128.542,21.55v9.088h9.089V21.55H128.542L128.542,21.55z M128.542,31.253v9.089h9.089v-9.089H128.542L128.542,31.253z
		 M128.542,40.958v9.088h9.089v-9.088H128.542L128.542,40.958z M128.542,50.661v9.089h9.089v-9.089H128.542L128.542,50.661z
		 M128.542,60.365v9.089h9.089v-9.089H128.542L128.542,60.365z M128.542,70.069v9.089h9.089v-9.089H128.542L128.542,70.069z
		 M128.542,79.773v9.089h9.089v-9.089H128.542L128.542,79.773z M128.542,89.478v9.088h9.089v-9.088H128.542L128.542,89.478z
		 M128.542,99.182v9.088h9.089v-9.088H128.542L128.542,99.182z M128.542,108.885v9.089h9.089v-9.089H128.542L128.542,108.885z
		 M128.542,118.589v9.089h9.089v-9.089H128.542L128.542,118.589z M128.542,128.293v9.089h9.089v-9.089H128.542L128.542,128.293z
		 M128.542,137.997v9.089h9.089v-9.089H128.542L128.542,137.997z M128.542,147.701v9.088h9.089v-9.088H128.542L128.542,147.701z
		 M128.542,157.405v9.088h9.089v-9.088H128.542L128.542,157.405z M128.542,167.108v9.089h9.089v-9.089H128.542L128.542,167.108z
		 M128.542,176.812v9.089h9.089v-9.089H128.542L128.542,176.812z M128.542,186.517v9.089h9.089v-9.089H128.542L128.542,186.517z
		 M128.542,196.221v9.089h9.089v-9.089H128.542L128.542,196.221z M128.542,205.925v9.089h9.089v-9.089H128.542L128.542,205.925z
		 M128.542,215.629v9.089h9.089v-9.089H128.542L128.542,215.629z M128.542,225.333v9.088h9.089v-9.088H128.542L128.542,225.333z
		 M138.246,11.845v9.09h9.088v-9.09H138.246L138.246,11.845z M138.246,21.55v9.088h9.088V21.55H138.246L138.246,21.55z
		 M138.246,31.253v9.089h9.088v-9.089H138.246L138.246,31.253z M138.246,40.958v9.088h9.088v-9.088H138.246L138.246,40.958z
		 M138.246,50.661v9.089h9.088v-9.089H138.246L138.246,50.661z M138.246,60.365v9.089h9.088v-9.089H138.246L138.246,60.365z
		 M138.246,70.069v9.089h9.088v-9.089H138.246L138.246,70.069z M138.246,79.773v9.089h9.088v-9.089H138.246L138.246,79.773z
		 M138.246,89.478v9.088h9.088v-9.088H138.246L138.246,89.478z M138.246,99.182v9.088h9.088v-9.088H138.246L138.246,99.182z
		 M138.246,108.885v9.089h9.088v-9.089H138.246L138.246,108.885z M138.246,118.589v9.089h9.088v-9.089H138.246L138.246,118.589z
		 M138.246,128.293v9.089h9.088v-9.089H138.246L138.246,128.293z M138.246,137.997v9.089h9.088v-9.089H138.246L138.246,137.997z
		 M138.246,147.701v9.088h9.088v-9.088H138.246L138.246,147.701z M138.246,157.405v9.088h9.088v-9.088H138.246L138.246,157.405z
		 M138.246,167.108v9.089h9.088v-9.089H138.246L138.246,167.108z M138.246,176.812v9.089h9.088v-9.089H138.246L138.246,176.812z
		 M138.246,186.517v9.089h9.088v-9.089H138.246L138.246,186.517z M138.246,196.221v9.089h9.088v-9.089H138.246L138.246,196.221z
		 M138.246,205.925v9.089h9.088v-9.089H138.246L138.246,205.925z M138.246,215.629v9.089h9.088v-9.089H138.246L138.246,215.629z
		 M138.246,225.333v9.088h9.088v-9.088H138.246L138.246,225.333z M147.949,11.845v9.09h9.089v-9.09H147.949L147.949,11.845z
		 M147.949,21.55v9.088h9.089V21.55H147.949L147.949,21.55z M147.949,31.253v9.089h9.089v-9.089H147.949L147.949,31.253z
		 M147.949,40.958v9.088h9.089v-9.088H147.949L147.949,40.958z M147.949,50.661v9.089h9.089v-9.089H147.949L147.949,50.661z
		 M147.949,60.365v9.089h9.089v-9.089H147.949L147.949,60.365z M147.949,70.069v9.089h9.089v-9.089H147.949L147.949,70.069z
		 M147.949,79.773v9.089h9.089v-9.089H147.949L147.949,79.773z M147.949,89.478v9.088h9.089v-9.088H147.949L147.949,89.478z
		 M147.949,99.182v9.088h9.089v-9.088H147.949L147.949,99.182z M147.949,108.885v9.089h9.089v-9.089H147.949L147.949,108.885z
		 M147.949,118.589v9.089h9.089v-9.089H147.949L147.949,118.589z M147.949,128.293v9.089h9.089v-9.089H147.949L147.949,128.293z
		 M147.949,137.997v9.089h9.089v-9.089H147.949L147.949,137.997z M147.949,147.701v9.088h9.089v-9.088H147.949L147.949,147.701z
		 M147.949,157.405v9.088h9.089v-9.088H147.949L147.949,157.405z M147.949,167.108v9.089h9.089v-9.089H147.949L147.949,167.108z
		 M147.949,176.812v9.089h9.089v-9.089H147.949L147.949,176.812z M147.949,186.517v9.089h9.089v-9.089H147.949L147.949,186.517z
		 M147.949,196.221v9.089h9.089v-9.089H147.949L147.949,196.221z M147.949,205.925v9.089h9.089v-9.089H147.949L147.949,205.925z
		 M147.949,215.629v9.089h9.089v-9.089H147.949L147.949,215.629z M147.949,225.333v9.088h9.089v-9.088H147.949L147.949,225.333z
		 M157.653,11.845v9.09h9.089v-9.09H157.653L157.653,11.845z M157.653,21.55v9.088h9.089V21.55H157.653L157.653,21.55z
		 M157.653,31.253v9.089h9.089v-9.089H157.653L157.653,31.253z M157.653,40.958v9.088h9.089v-9.088H157.653L157.653,40.958z
		 M157.653,50.661v9.089h9.089v-9.089H157.653L157.653,50.661z M157.653,60.365v9.089h9.089v-9.089H157.653L157.653,60.365z
		 M157.653,70.069v9.089h9.089v-9.089H157.653L157.653,70.069z M157.653,79.773v9.089h9.089v-9.089H157.653L157.653,79.773z
		 M157.653,89.478v9.088h9.089v-9.088H157.653L157.653,89.478z M157.653,99.182v9.088h9.089v-9.088H157.653L157.653,99.182z
		 M157.653,108.885v9.089h9.089v-9.089H157.653L157.653,108.885z M157.653,118.589v9.089h9.089v-9.089H157.653L157.653,118.589z
		 M157.653,128.293v9.089h9.089v-9.089H157.653L157.653,128.293z M157.653,137.997v9.089h9.089v-9.089H157.653L157.653,137.997z
		 M157.653,147.701v9.088h9.089v-9.088H157.653L157.653,147.701z M157.653,157.405v9.088h9.089v-9.088H157.653L157.653,157.405z
		 M157.653,167.108v9.089h9.089v-9.089H157.653L157.653,167.108z M157.653,176.812v9.089h9.089v-9.089H157.653L157.653,176.812z
		 M157.653,186.517v9.089h9.089v-9.089H157.653L157.653,186.517z M157.653,196.221v9.089h9.089v-9.089H157.653L157.653,196.221z
		 M157.653,205.925v9.089h9.089v-9.089H157.653L157.653,205.925z M157.653,215.629v9.089h9.089v-9.089H157.653L157.653,215.629z
		 M157.653,225.333v9.088h9.089v-9.088H157.653L157.653,225.333z M167.357,11.845v9.09h9.089v-9.09H167.357L167.357,11.845z
		 M167.357,21.55v9.088h9.089V21.55H167.357L167.357,21.55z M167.357,31.253v9.089h9.089v-9.089H167.357L167.357,31.253z
		 M167.357,40.958v9.088h9.089v-9.088H167.357L167.357,40.958z M167.357,50.661v9.089h9.089v-9.089H167.357L167.357,50.661z
		 M167.357,60.365v9.089h9.089v-9.089H167.357L167.357,60.365z M167.357,70.069v9.089h9.089v-9.089H167.357L167.357,70.069z
		 M167.357,79.773v9.089h9.089v-9.089H167.357L167.357,79.773z M167.357,89.478v9.088h9.089v-9.088H167.357L167.357,89.478z
		 M167.357,99.182v9.088h9.089v-9.088H167.357L167.357,99.182z M167.357,108.885v9.089h9.089v-9.089H167.357L167.357,108.885z
		 M167.357,118.589v9.089h9.089v-9.089H167.357L167.357,118.589z M167.357,128.293v9.089h9.089v-9.089H167.357L167.357,128.293z
		 M167.357,137.997v9.089h9.089v-9.089H167.357L167.357,137.997z M167.357,147.701v9.088h9.089v-9.088H167.357L167.357,147.701z
		 M167.357,157.405v9.088h9.089v-9.088H167.357L167.357,157.405z M167.357,167.108v9.089h9.089v-9.089H167.357L167.357,167.108z
		 M167.357,176.812v9.089h9.089v-9.089H167.357L167.357,176.812z M167.357,186.517v9.089h9.089v-9.089H167.357L167.357,186.517z
		 M167.357,196.221v9.089h9.089v-9.089H167.357L167.357,196.221z M167.357,205.925v9.089h9.089v-9.089H167.357L167.357,205.925z
		 M167.357,215.629v9.089h9.089v-9.089H167.357L167.357,215.629z M167.357,225.333v9.088h9.089v-9.088H167.357L167.357,225.333z
		 M177.062,11.845v9.09h9.089v-9.09H177.062L177.062,11.845z M177.062,21.55v9.088h9.089V21.55H177.062L177.062,21.55z
		 M177.062,31.253v9.089h9.089v-9.089H177.062L177.062,31.253z M177.062,40.958v9.088h9.089v-9.088H177.062L177.062,40.958z
		 M177.062,50.661v9.089h9.089v-9.089H177.062L177.062,50.661z M177.062,60.365v9.089h9.089v-9.089H177.062L177.062,60.365z
		 M177.062,70.069v9.089h9.089v-9.089H177.062L177.062,70.069z M177.062,79.773v9.089h9.089v-9.089H177.062L177.062,79.773z
		 M177.062,89.478v9.088h9.089v-9.088H177.062L177.062,89.478z M177.062,99.182v9.088h9.089v-9.088H177.062L177.062,99.182z
		 M177.062,108.885v9.089h9.089v-9.089H177.062L177.062,108.885z M177.062,118.589v9.089h9.089v-9.089H177.062L177.062,118.589z
		 M177.062,128.293v9.089h9.089v-9.089H177.062L177.062,128.293z M177.062,137.997v9.089h9.089v-9.089H177.062L177.062,137.997z
		 M177.062,147.701v9.088h9.089v-9.088H177.062L177.062,147.701z M177.062,157.405v9.088h9.089v-9.088H177.062L177.062,157.405z
		 M177.062,167.108v9.089h9.089v-9.089H177.062L177.062,167.108z M177.062,176.812v9.089h9.089v-9.089H177.062L177.062,176.812z
		 M177.062,186.517v9.089h9.089v-9.089H177.062L177.062,186.517z M177.062,196.221v9.089h9.089v-9.089H177.062L177.062,196.221z
		 M177.062,205.925v9.089h9.089v-9.089H177.062L177.062,205.925z M177.062,215.629v9.089h9.089v-9.089H177.062L177.062,215.629z
		 M177.062,225.333v9.088h9.089v-9.088H177.062L177.062,225.333z M186.766,11.845v9.09h9.088v-9.09H186.766L186.766,11.845z
		 M186.766,21.55v9.088h9.088V21.55H186.766L186.766,21.55z M186.766,31.253v9.089h9.088v-9.089H186.766L186.766,31.253z
		 M186.766,40.958v9.088h9.088v-9.088H186.766L186.766,40.958z M186.766,50.661v9.089h9.088v-9.089H186.766L186.766,50.661z
		 M186.766,60.365v9.089h9.088v-9.089H186.766L186.766,60.365z M186.766,70.069v9.089h9.088v-9.089H186.766L186.766,70.069z
		 M186.766,79.773v9.089h9.088v-9.089H186.766L186.766,79.773z M186.766,89.478v9.088h9.088v-9.088H186.766L186.766,89.478z
		 M186.766,99.182v9.088h9.088v-9.088H186.766L186.766,99.182z M186.766,108.885v9.089h9.088v-9.089H186.766L186.766,108.885z
		 M186.766,118.589v9.089h9.088v-9.089H186.766L186.766,118.589z M186.766,128.293v9.089h9.088v-9.089H186.766L186.766,128.293z
		 M186.766,137.997v9.089h9.088v-9.089H186.766L186.766,137.997z M186.766,147.701v9.088h9.088v-9.088H186.766L186.766,147.701z
		 M186.766,157.405v9.088h9.088v-9.088H186.766L186.766,157.405z M186.766,167.108v9.089h9.088v-9.089H186.766L186.766,167.108z
		 M186.766,176.812v9.089h9.088v-9.089H186.766L186.766,176.812z M186.766,186.517v9.089h9.088v-9.089H186.766L186.766,186.517z
		 M186.766,196.221v9.089h9.088v-9.089H186.766L186.766,196.221z M186.766,205.925v9.089h9.088v-9.089H186.766L186.766,205.925z
		 M186.766,215.629v9.089h9.088v-9.089H186.766L186.766,215.629z M186.766,225.333v9.088h9.088v-9.088H186.766L186.766,225.333z
		 M196.469,11.845v9.09h9.089v-9.09H196.469L196.469,11.845z M196.469,21.55v9.088h9.089V21.55H196.469L196.469,21.55z
		 M196.469,31.253v9.089h9.089v-9.089H196.469L196.469,31.253z M196.469,40.958v9.088h9.089v-9.088H196.469L196.469,40.958z
		 M196.469,50.661v9.089h9.089v-9.089H196.469L196.469,50.661z M196.469,60.365v9.089h9.089v-9.089H196.469L196.469,60.365z
		 M196.469,70.069v9.089h9.089v-9.089H196.469L196.469,70.069z M196.469,79.773v9.089h9.089v-9.089H196.469L196.469,79.773z
		 M196.469,89.478v9.088h9.089v-9.088H196.469L196.469,89.478z M196.469,99.182v9.088h9.089v-9.088H196.469L196.469,99.182z
		 M196.469,108.885v9.089h9.089v-9.089H196.469L196.469,108.885z M196.469,118.589v9.089h9.089v-9.089H196.469L196.469,118.589z
		 M196.469,128.293v9.089h9.089v-9.089H196.469L196.469,128.293z M196.469,137.997v9.089h9.089v-9.089H196.469L196.469,137.997z
		 M196.469,147.701v9.088h9.089v-9.088H196.469L196.469,147.701z M196.469,157.405v9.088h9.089v-9.088H196.469L196.469,157.405z
		 M196.469,167.108v9.089h9.089v-9.089H196.469L196.469,167.108z M196.469,176.812v9.089h9.089v-9.089H196.469L196.469,176.812z
		 M196.469,186.517v9.089h9.089v-9.089H196.469L196.469,186.517z M196.469,196.221v9.089h9.089v-9.089H196.469L196.469,196.221z
		 M196.469,205.925v9.089h9.089v-9.089H196.469L196.469,205.925z M196.469,215.629v9.089h9.089v-9.089H196.469L196.469,215.629z
		 M196.469,225.333v9.088h9.089v-9.088H196.469L196.469,225.333z M206.174,11.845v9.09h9.088v-9.09H206.174L206.174,11.845z
		 M206.174,21.55v9.088h9.088V21.55H206.174L206.174,21.55z M206.174,31.253v9.089h9.088v-9.089H206.174L206.174,31.253z
		 M206.174,40.958v9.088h9.088v-9.088H206.174L206.174,40.958z M206.174,50.661v9.089h9.088v-9.089H206.174L206.174,50.661z
		 M206.174,60.365v9.089h9.088v-9.089H206.174L206.174,60.365z M206.174,70.069v9.089h9.088v-9.089H206.174L206.174,70.069z
		 M206.174,79.773v9.089h9.088v-9.089H206.174L206.174,79.773z M206.174,89.478v9.088h9.088v-9.088H206.174L206.174,89.478z
		 M206.174,99.182v9.088h9.088v-9.088H206.174L206.174,99.182z M206.174,108.885v9.089h9.088v-9.089H206.174L206.174,108.885z
		 M206.174,118.589v9.089h9.088v-9.089H206.174L206.174,118.589z M206.174,128.293v9.089h9.088v-9.089H206.174L206.174,128.293z
		 M206.174,137.997v9.089h9.088v-9.089H206.174L206.174,137.997z M206.174,147.701v9.088h9.088v-9.088H206.174L206.174,147.701z
		 M206.174,157.405v9.088h9.088v-9.088H206.174L206.174,157.405z M206.174,167.108v9.089h9.088v-9.089H206.174L206.174,167.108z
		 M206.174,176.812v9.089h9.088v-9.089H206.174L206.174,176.812z M206.174,186.517v9.089h9.088v-9.089H206.174L206.174,186.517z
		 M206.174,196.221v9.089h9.088v-9.089H206.174L206.174,196.221z M206.174,205.925v9.089h9.088v-9.089H206.174L206.174,205.925z
		 M206.174,215.629v9.089h9.088v-9.089H206.174L206.174,215.629z M206.174,225.333v9.088h9.088v-9.088H206.174L206.174,225.333z
		 M215.877,11.845v9.09h9.089v-9.09H215.877L215.877,11.845z M215.877,21.55v9.088h9.089V21.55H215.877L215.877,21.55z
		 M215.877,31.253v9.089h9.089v-9.089H215.877L215.877,31.253z M215.877,40.958v9.088h9.089v-9.088H215.877L215.877,40.958z
		 M215.877,50.661v9.089h9.089v-9.089H215.877L215.877,50.661z M215.877,60.365v9.089h9.089v-9.089H215.877L215.877,60.365z
		 M215.877,70.069v9.089h9.089v-9.089H215.877L215.877,70.069z M215.877,79.773v9.089h9.089v-9.089H215.877L215.877,79.773z
		 M215.877,89.478v9.088h9.089v-9.088H215.877L215.877,89.478z M215.877,99.182v9.088h9.089v-9.088H215.877L215.877,99.182z
		 M215.877,108.885v9.089h9.089v-9.089H215.877L215.877,108.885z M215.877,118.589v9.089h9.089v-9.089H215.877L215.877,118.589z
		 M215.877,128.293v9.089h9.089v-9.089H215.877L215.877,128.293z M215.877,137.997v9.089h9.089v-9.089H215.877L215.877,137.997z
		 M215.877,147.701v9.088h9.089v-9.088H215.877L215.877,147.701z M215.877,157.405v9.088h9.089v-9.088H215.877L215.877,157.405z
		 M215.877,167.108v9.089h9.089v-9.089H215.877L215.877,167.108z M215.877,176.812v9.089h9.089v-9.089H215.877L215.877,176.812z
		 M215.877,186.517v9.089h9.089v-9.089H215.877L215.877,186.517z M215.877,196.221v9.089h9.089v-9.089H215.877L215.877,196.221z
		 M215.877,205.925v9.089h9.089v-9.089H215.877L215.877,205.925z M215.877,215.629v9.089h9.089v-9.089H215.877L215.877,215.629z
		 M215.877,225.333v9.088h9.089v-9.088H215.877L215.877,225.333z M225.582,11.845v9.09h9.088v-9.09H225.582L225.582,11.845z
		 M225.582,21.55v9.088h9.088V21.55H225.582L225.582,21.55z M225.582,31.253v9.089h9.088v-9.089H225.582L225.582,31.253z
		 M225.582,40.958v9.088h9.088v-9.088H225.582L225.582,40.958z M225.582,50.661v9.089h9.088v-9.089H225.582L225.582,50.661z
		 M225.582,60.365v9.089h9.088v-9.089H225.582L225.582,60.365z M225.582,70.069v9.089h9.088v-9.089H225.582L225.582,70.069z
		 M225.582,79.773v9.089h9.088v-9.089H225.582L225.582,79.773z M225.582,89.478v9.088h9.088v-9.088H225.582L225.582,89.478z
		 M225.582,99.182v9.088h9.088v-9.088H225.582L225.582,99.182z M225.582,108.885v9.089h9.088v-9.089H225.582L225.582,108.885z
		 M225.582,118.589v9.089h9.088v-9.089H225.582L225.582,118.589z M225.582,128.293v9.089h9.088v-9.089H225.582L225.582,128.293z
		 M225.582,137.997v9.089h9.088v-9.089H225.582L225.582,137.997z M225.582,147.701v9.088h9.088v-9.088H225.582L225.582,147.701z
		 M225.582,157.405v9.088h9.088v-9.088H225.582L225.582,157.405z M225.582,167.108v9.089h9.088v-9.089H225.582L225.582,167.108z
		 M225.582,176.812v9.089h9.088v-9.089H225.582L225.582,176.812z M225.582,186.517v9.089h9.088v-9.089H225.582L225.582,186.517z
		 M225.582,196.221v9.089h9.088v-9.089H225.582L225.582,196.221z M225.582,205.925v9.089h9.088v-9.089H225.582L225.582,205.925z
		 M225.582,215.629v9.089h9.088v-9.089H225.582L225.582,215.629z M225.582,225.333v9.088h9.088v-9.088H225.582L225.582,225.333z
		 M235.285,11.845v9.09h9.089v-9.09H235.285L235.285,11.845z M235.285,21.55v9.088h9.089V21.55H235.285L235.285,21.55z
		 M235.285,31.253v9.089h9.089v-9.089H235.285L235.285,31.253z M235.285,40.958v9.088h9.089v-9.088H235.285L235.285,40.958z
		 M235.285,50.661v9.089h9.089v-9.089H235.285L235.285,50.661z M235.285,60.365v9.089h9.089v-9.089H235.285L235.285,60.365z
		 M235.285,70.069v9.089h9.089v-9.089H235.285L235.285,70.069z M235.285,79.773v9.089h9.089v-9.089H235.285L235.285,79.773z
		 M235.285,89.478v9.088h9.089v-9.088H235.285L235.285,89.478z M235.285,99.182v9.088h9.089v-9.088H235.285L235.285,99.182z
		 M235.285,108.885v9.089h9.089v-9.089H235.285L235.285,108.885z M235.285,118.589v9.089h9.089v-9.089H235.285L235.285,118.589z
		 M235.285,128.293v9.089h9.089v-9.089H235.285L235.285,128.293z M235.285,137.997v9.089h9.089v-9.089H235.285L235.285,137.997z
		 M235.285,147.701v9.088h9.089v-9.088H235.285L235.285,147.701z M235.285,157.405v9.088h9.089v-9.088H235.285L235.285,157.405z
		 M235.285,167.108v9.089h9.089v-9.089H235.285L235.285,167.108z M235.285,176.812v9.089h9.089v-9.089H235.285L235.285,176.812z
		 M235.285,186.517v9.089h9.089v-9.089H235.285L235.285,186.517z M235.285,196.221v9.089h9.089v-9.089H235.285L235.285,196.221z
		 M235.285,205.925v9.089h9.089v-9.089H235.285L235.285,205.925z M235.285,215.629v9.089h9.089v-9.089H235.285L235.285,215.629z
		 M235.285,225.333v9.088h9.089v-9.088H235.285L235.285,225.333z"/>
	
		<linearGradient id="SVGID_2_" gradientUnits="userSpaceOnUse" x1="-858.6772" y1="1121.4805" x2="-603.8358" y2="1268.6133" gradientTransform="matrix(0 -0.6056 0.6056 0 -591.8675 -314.8771)">
		<stop  offset="0" style="stop-color:#000000"/>
		<stop  offset="0.54" style="stop-color:#231F20"/>
		<stop  offset="1" style="stop-color:#59595B"/>
	</linearGradient>
	
		<rect x="65.352" y="63.479" fill-rule="evenodd" clip-rule="evenodd" fill="url(#SVGID_2_)" stroke="#231F20" stroke-width="0.0528" stroke-miterlimit="2.4142" width="133.001" height="128.988"/>
	<g>
		
			<linearGradient id="SVGID_3_" gradientUnits="userSpaceOnUse" x1="-1466.6768" y1="1660.4648" x2="-1455.2012" y2="1660.4648" gradientTransform="matrix(0 -0.6056 -0.8636 0 1564.3905 -819.005)">
			<stop  offset="0" style="stop-color:#F48143"/>
			<stop  offset="0.19" style="stop-color:#F37231"/>
			<stop  offset="0.41" style="stop-color:#F37838"/>
			<stop  offset="0.78" style="stop-color:#F48143"/>
			<stop  offset="1" style="stop-color:#F48143"/>
		</linearGradient>
		<polygon fill-rule="evenodd" clip-rule="evenodd" fill="url(#SVGID_3_)" points="213.852,69.215 213.852,62.266 46.975,62.266 
			46.975,69.215 213.852,69.215 		"/>
		
			<linearGradient id="SVGID_4_" gradientUnits="userSpaceOnUse" x1="-1216.6475" y1="1437.6133" x2="-1212.125" y2="1437.6133" gradientTransform="matrix(0 -0.9595 -1.3682 0 2097.3535 -1105.0013)">
			<stop  offset="0" style="stop-color:#F48143"/>
			<stop  offset="0.14" style="stop-color:#F47C3D"/>
			<stop  offset="1" style="stop-color:#F37231"/>
		</linearGradient>
		<polygon fill-rule="evenodd" clip-rule="evenodd" fill="url(#SVGID_4_)" points="205.845,58.033 213.852,62.372 46.974,62.372 
			46.974,58.033 205.845,58.033 		"/>
		<polygon fill-rule="evenodd" clip-rule="evenodd" fill="#F48143" points="213.852,69.162 207.7,73.5 46.974,73.5 46.974,69.162 
			213.852,69.162 		"/>
		
			<linearGradient id="SVGID_5_" gradientUnits="userSpaceOnUse" x1="-1187.2202" y1="1422.5527" x2="-1187.2202" y2="1445.4238" gradientTransform="matrix(0 -0.9595 -1.3682 0 2180.5215 -1073.3695)">
			<stop  offset="0" style="stop-color:#FEE2D0"/>
			<stop  offset="0.73" style="stop-color:#FBC4A1"/>
			<stop  offset="1" style="stop-color:#FAB48B"/>
		</linearGradient>
		<path fill-rule="evenodd" clip-rule="evenodd" fill="url(#SVGID_5_)" d="M234.186,65.767l-26.242,7.663
			c-1.082,0.315-1.277-0.456-0.04-1.352c0.962-0.696,3.788-1.049,3.556-1.845c-0.219-0.745-8.722,0.293-8.059-1.019
			c1.044-2.065,6.549-2.337,6.494-3.526c-0.066-1.46-6.977-1.054-7-3.424c-0.016-1.554,7.797-0.402,7.208-1.463
			c-0.271-0.486-2.105-0.971-2.988-1.264c-2.588-0.859-2.001-1.749-0.889-1.443L234.186,65.767L234.186,65.767z"/>
		<linearGradient id="SVGID_6_" gradientUnits="userSpaceOnUse" x1="203.3633" y1="68.127" x2="223.0732" y2="68.127">
			<stop  offset="0" style="stop-color:#FEE2D0"/>
			<stop  offset="0.73" style="stop-color:#FBC4A1"/>
			<stop  offset="1" style="stop-color:#FAB48B"/>
		</linearGradient>
		<path fill-rule="evenodd" clip-rule="evenodd" fill="url(#SVGID_6_)" d="M209.158,69.93c-2.537-0.013-6.202,0.163-5.758-0.715
			c0.155-0.308,0.411-0.576,0.732-0.813c1.534-0.289,3.215-0.576,4.984-0.848c7.508-1.15,13.755-1.574,13.951-0.945
			c0.195,0.627-5.734,2.069-13.242,3.22C209.603,69.862,209.379,69.896,209.158,69.93L209.158,69.93z"/>
		<path fill-rule="evenodd" clip-rule="evenodd" fill="#F68D56" d="M228.053,67.558l-20.109,5.872
			c-1.082,0.315-1.277-0.456-0.04-1.352c0.817-0.592,2.977-0.935,3.468-1.512l16.24-3.628L228.053,67.558L228.053,67.558z"/>
		<path fill-rule="evenodd" clip-rule="evenodd" fill="#FDD5BA" d="M209.334,61.247c0.58-0.068,0.907-0.195,0.769-0.445
			c-0.271-0.486-2.105-0.971-2.988-1.264c-2.588-0.859-2.001-1.749-0.889-1.443l21.916,6.014l-0.407,0.729L209.334,61.247
			L209.334,61.247z"/>
		<path fill-rule="evenodd" clip-rule="evenodd" fill="#FDD5BA" d="M204.293,69.813c-0.639-0.095-1.015-0.263-0.911-0.554
			c7.301-1.046,18.911-2.353,12.88-1.37C211.989,68.586,209.506,68.854,204.293,69.813L204.293,69.813z"/>
		<path fill-rule="evenodd" clip-rule="evenodd" fill="#F68D56" d="M204.033,68.479c0.254-0.202,0.555-0.383,0.885-0.546
			c6.471-0.611,12.085-1.049,8.189-0.515C210.797,67.735,207.45,68.09,204.033,68.479L204.033,68.479z"/>
		<path fill-rule="evenodd" clip-rule="evenodd" fill="#F68D56" d="M202.908,62.428c-0.008-0.053-0.014-0.106-0.014-0.163
			c-0.002-0.186,0.109-0.332,0.303-0.448c6.707,0.964,7.711,1.155,12.912,1.862C223.373,64.667,213.16,63.606,202.908,62.428
			L202.908,62.428z"/>
		<linearGradient id="SVGID_7_" gradientUnits="userSpaceOnUse" x1="216.9814" y1="65.0273" x2="227.3652" y2="65.0273">
			<stop  offset="0" style="stop-color:#FEE2D0"/>
			<stop  offset="0.73" style="stop-color:#FBC4A1"/>
			<stop  offset="1" style="stop-color:#FAB48B"/>
		</linearGradient>
		<path fill-rule="evenodd" clip-rule="evenodd" fill="url(#SVGID_7_)" d="M227.365,65.623c-0.258-0.199-0.562-0.376-0.896-0.536
			c-6.482-0.543-12.105-0.921-8.199-0.428C220.587,64.952,223.94,65.271,227.365,65.623L227.365,65.623z"/>
		<path fill-rule="evenodd" clip-rule="evenodd" fill="#FFFFFF" d="M207.082,73.309c-0.053-0.11-0.037-0.262,0.056-0.44
			c4.919-1.341,8.435-2.221,5.331-1.207C211.029,72.132,209.139,72.697,207.082,73.309L207.082,73.309z"/>
		<path fill-rule="evenodd" clip-rule="evenodd" fill="#F48143" d="M234.148,66.018l-6.508,1.66
			c-0.42,0.107-0.904,0.015-1.166-0.339c-0.076-0.104,0.326-0.423,0.24-0.542c-0.221-0.307-0.613-0.583-0.305-0.669
			c0.591-0.146,0.764-0.327,0-0.576c-0.397-0.227-0.369-0.409,0.084-0.542c0.346-0.076,0.598-0.166,0.138-0.405
			c-0.511-0.319-0.454-0.419,0.171-0.296c0.203-0.269,0.482-0.409,0.838-0.324l6.471,1.54
			C234.545,65.627,234.568,65.91,234.148,66.018L234.148,66.018z"/>
		<path fill-rule="evenodd" clip-rule="evenodd" fill="#FBC29F" d="M226.749,67.58c-0.104-0.061-0.198-0.14-0.274-0.241
			c-0.076-0.104,0.326-0.423,0.239-0.542c-0.109-0.152-0.262-0.298-0.35-0.416l7.714-0.515L226.749,67.58L226.749,67.58z"/>
		<path fill-rule="evenodd" clip-rule="evenodd" fill="#F26E2B" d="M226.133,65.247c0.014-0.091,0.133-0.171,0.361-0.236
			c0.346-0.077,0.598-0.167,0.137-0.406c-0.511-0.319-0.453-0.419,0.172-0.296c0.047-0.062,0.098-0.116,0.152-0.163l7.123,1.616
			L226.133,65.247L226.133,65.247z"/>
		<path fill-rule="evenodd" clip-rule="evenodd" fill="#F68D56" d="M213.492,65.022c0.31-0.159,0.66-0.289,1.033-0.398
			c6.504,0.389,12.121,0.817,8.152,0.745C220.324,65.327,216.947,65.163,213.492,65.022L213.492,65.022z"/>
		<path fill-rule="evenodd" clip-rule="evenodd" fill="#F68D56" d="M208.328,59.186c-1.232-0.342-1.154,0.029,0.672,0.679
			c6.07,1.684,11.371,3.055,7.773,1.879C214.639,61.046,211.512,60.139,208.328,59.186L208.328,59.186z"/>
		<ellipse fill-rule="evenodd" clip-rule="evenodd" fill="#FFFFFF" cx="234.18" cy="65.786" rx="0.189" ry="0.175"/>
		<g>
			
				<linearGradient id="SVGID_8_" gradientUnits="userSpaceOnUse" x1="-1078.4795" y1="1008.4668" x2="-1074.7124" y2="1008.4668" gradientTransform="matrix(0 -1.1609 -1.6144 0 1672.5776 -1178.5065)">
				<stop  offset="0" style="stop-color:#5CA047"/>
				<stop  offset="0.58" style="stop-color:#72A858"/>
				<stop  offset="0.87" style="stop-color:#FFFFFF"/>
				<stop  offset="0.95" style="stop-color:#64A34D"/>
				<stop  offset="1" style="stop-color:#5CA047"/>
			</linearGradient>
			<rect x="42.395" y="69.127" fill-rule="evenodd" clip-rule="evenodd" fill="url(#SVGID_8_)" width="4.229" height="4.373"/>
			
				<linearGradient id="SVGID_9_" gradientUnits="userSpaceOnUse" x1="-407.6494" y1="1008.4668" x2="-403.8823" y2="1008.4668" gradientTransform="matrix(0 1.8365 -1.6144 0 1672.5776 810.8896)">
				<stop  offset="0" style="stop-color:#5CA047"/>
				<stop  offset="0.19" style="stop-color:#FFFFFF"/>
				<stop  offset="0.41" style="stop-color:#FFFFFF"/>
				<stop  offset="0.78" style="stop-color:#FFFFFF"/>
				<stop  offset="1" style="stop-color:#5CA047"/>
			</linearGradient>
			<rect x="42.395" y="62.243" fill-rule="evenodd" clip-rule="evenodd" fill="url(#SVGID_9_)" width="4.229" height="6.918"/>
			
				<linearGradient id="SVGID_10_" gradientUnits="userSpaceOnUse" x1="-1122.2539" y1="1008.4668" x2="-1118.4863" y2="1008.4668" gradientTransform="matrix(0 -1.1234 -1.6144 0 1672.5776 -1198.4741)">
				<stop  offset="0" style="stop-color:#5CA047"/>
				<stop  offset="1" style="stop-color:#F16624"/>
			</linearGradient>
			<rect x="42.395" y="58.033" fill-rule="evenodd" clip-rule="evenodd" fill="url(#SVGID_10_)" width="4.229" height="4.232"/>
		</g>
		
			<linearGradient id="SVGID_11_" gradientUnits="userSpaceOnUse" x1="-1169.3301" y1="990.9824" x2="-1153.2061" y2="990.9824" gradientTransform="matrix(0 -0.9595 -1.3682 0 1394.631 -1048.4681)">
			<stop  offset="0" style="stop-color:#C7C7C7"/>
			<stop  offset="0.19" style="stop-color:#EEEEEE"/>
			<stop  offset="0.88" style="stop-color:#999999"/>
			<stop  offset="1" style="stop-color:#C7C7C7"/>
		</linearGradient>
		<path fill-rule="evenodd" clip-rule="evenodd" fill="url(#SVGID_11_)" d="M42.044,58.033h-4.645c-1.048,0-1.907,0.741-1.907,1.648
			v12.173c0,0.907,0.858,1.649,1.907,1.649h4.645V58.033L42.044,58.033z"/>
		<rect x="46.624" y="69.127" fill-rule="evenodd" clip-rule="evenodd" fill="#F26E2B" width="0.351" height="4.373"/>
		<rect x="46.624" y="62.243" fill-rule="evenodd" clip-rule="evenodd" fill="#F26E2B" width="0.351" height="6.918"/>
		<rect x="46.624" y="58.033" fill-rule="evenodd" clip-rule="evenodd" fill="#F26E2B" width="0.351" height="4.232"/>
		<rect x="42.044" y="69.127" fill-rule="evenodd" clip-rule="evenodd" fill="#FFFFFF" width="0.35" height="4.373"/>
		<rect x="42.044" y="62.243" fill-rule="evenodd" clip-rule="evenodd" fill="#FFFFFF" width="0.35" height="6.918"/>
		<rect x="42.044" y="58.033" fill-rule="evenodd" clip-rule="evenodd" fill="#FFFFFF" width="0.35" height="4.232"/>
	</g>
	<linearGradient id="SVGID_12_" gradientUnits="userSpaceOnUse" x1="185.4277" y1="71.3311" x2="202.9727" y2="71.3311">
		<stop  offset="0" style="stop-color:#F26C29"/>
		<stop  offset="0.14" style="stop-color:#F16624"/>
		<stop  offset="1" style="stop-color:#F16624"/>
	</linearGradient>
	<polygon fill-rule="evenodd" clip-rule="evenodd" fill="url(#SVGID_12_)" points="185.428,73.5 185.428,69.162 202.006,69.162 
		202.973,73.5 185.428,73.5 	"/>
	
		<linearGradient id="SVGID_13_" gradientUnits="userSpaceOnUse" x1="-1097.5308" y1="750.0176" x2="-1101.0815" y2="750.0176" gradientTransform="matrix(0 -1.2219 1.1274 0 -651.3706 -1283.0403)">
		<stop  offset="0" style="stop-color:#F26C29"/>
		<stop  offset="0.14" style="stop-color:#F16624"/>
		<stop  offset="1" style="stop-color:#F16624"/>
	</linearGradient>
	<polygon fill-rule="evenodd" clip-rule="evenodd" fill="url(#SVGID_13_)" points="185.428,58.033 185.428,62.372 202.006,62.372 
		202.973,58.033 185.428,58.033 	"/>
	<g>
		
			<linearGradient id="SVGID_14_" gradientUnits="userSpaceOnUse" x1="-820.8838" y1="1255.6094" x2="-809.4082" y2="1255.6094" gradientTransform="matrix(0 -0.6056 0.8636 0 -958.3471 -301.3527)">
			<stop  offset="0" style="stop-color:#B8CEA7"/>
			<stop  offset="0.19" style="stop-color:#7EAE66"/>
			<stop  offset="0.41" style="stop-color:#7EAE66"/>
			<stop  offset="0.78" style="stop-color:#99BC84"/>
			<stop  offset="1" style="stop-color:#A5C391"/>
		</linearGradient>
		<polygon fill-rule="evenodd" clip-rule="evenodd" fill="url(#SVGID_14_)" points="42.273,195.774 42.273,188.825 209.722,188.825 
			209.722,195.774 42.273,195.774 		"/>
		
			<linearGradient id="SVGID_15_" gradientUnits="userSpaceOnUse" x1="-809.0479" y1="1182.0703" x2="-804.5264" y2="1182.0703" gradientTransform="matrix(0 -0.9595 1.3682 0 -1491.3107 -587.35)">
			<stop  offset="0" style="stop-color:#A5C391"/>
			<stop  offset="0.14" style="stop-color:#7EAE66"/>
			<stop  offset="1" style="stop-color:#5CA047"/>
		</linearGradient>
		<polygon fill-rule="evenodd" clip-rule="evenodd" fill="url(#SVGID_15_)" points="50.279,184.593 42.273,188.932 209.722,188.932 
			209.722,184.593 50.279,184.593 		"/>
		
			<linearGradient id="SVGID_16_" gradientUnits="userSpaceOnUse" x1="-773.2061" y1="1182.0703" x2="-768.6846" y2="1182.0703" gradientTransform="matrix(0 -0.9595 1.3682 0 -1491.3107 -541.8314)">
			<stop  offset="0" style="stop-color:#B8CEA7"/>
			<stop  offset="0.82" style="stop-color:#B8CEA7"/>
			<stop  offset="1" style="stop-color:#B8CEA7"/>
		</linearGradient>
		<polygon fill-rule="evenodd" clip-rule="evenodd" fill="url(#SVGID_16_)" points="42.273,195.721 48.424,200.06 209.722,200.06 
			209.722,195.721 42.273,195.721 		"/>
		
			<linearGradient id="SVGID_17_" gradientUnits="userSpaceOnUse" x1="-779.6196" y1="1166.8027" x2="-779.6196" y2="1189.6729" gradientTransform="matrix(0 -0.9595 1.3682 0 -1574.4796 -555.7181)">
			<stop  offset="0" style="stop-color:#FEE2D0"/>
			<stop  offset="0.73" style="stop-color:#FBC4A1"/>
			<stop  offset="1" style="stop-color:#FAB48B"/>
		</linearGradient>
		<path fill-rule="evenodd" clip-rule="evenodd" fill="url(#SVGID_17_)" d="M21.939,192.326l26.241,7.663
			c1.082,0.315,1.278-0.457,0.04-1.352c-0.962-0.697-3.788-1.049-3.555-1.845c0.218-0.745,8.721,0.293,8.058-1.019
			c-1.044-2.065-6.548-2.337-6.494-3.527c0.066-1.459,6.977-1.053,7-3.422c0.015-1.555-7.797-0.403-7.208-1.463
			c0.271-0.487,2.106-0.972,2.988-1.265c2.588-0.858,2.001-1.749,0.889-1.444L21.939,192.326L21.939,192.326z"/>
		<path fill-rule="evenodd" clip-rule="evenodd" fill="#FBC29F" d="M46.966,196.488c2.536-0.012,6.202,0.164,5.757-0.714
			c-0.155-0.308-0.411-0.576-0.732-0.813c-1.535-0.289-3.216-0.576-4.985-0.848c-7.507-1.15-13.755-1.574-13.951-0.946
			c-0.195,0.628,5.735,2.07,13.242,3.221C46.522,196.422,46.745,196.456,46.966,196.488L46.966,196.488z"/>
		<path fill-rule="evenodd" clip-rule="evenodd" fill="#FBC29F" d="M28.071,194.117l20.109,5.872
			c1.082,0.315,1.278-0.457,0.04-1.352c-0.817-0.592-2.976-0.935-3.468-1.512l-16.24-3.628L28.071,194.117L28.071,194.117z"/>
		<path fill-rule="evenodd" clip-rule="evenodd" fill="#F68D56" d="M46.79,187.807c-0.581-0.068-0.907-0.195-0.769-0.444
			c0.271-0.487,2.106-0.972,2.988-1.265c2.588-0.858,2.001-1.749,0.889-1.444l-21.917,6.015l0.407,0.729L46.79,187.807
			L46.79,187.807z"/>
		<path fill-rule="evenodd" clip-rule="evenodd" fill="#F68D56" d="M51.831,196.373c0.639-0.096,1.015-0.263,0.912-0.554
			c-7.301-1.046-18.911-2.353-12.88-1.37C44.135,195.146,46.618,195.414,51.831,196.373L51.831,196.373z"/>
		<path fill-rule="evenodd" clip-rule="evenodd" fill="#FDD5BA" d="M52.091,195.037c-0.253-0.201-0.555-0.382-0.886-0.545
			c-6.469-0.611-12.084-1.049-8.189-0.515C45.328,194.295,48.674,194.648,52.091,195.037L52.091,195.037z"/>
		<path fill-rule="evenodd" clip-rule="evenodd" fill="#F68D56" d="M53.216,188.987c0.008-0.053,0.014-0.106,0.014-0.162
			c0.002-0.187-0.109-0.332-0.303-0.449c-6.707,0.963-7.71,1.155-12.912,1.862C32.751,191.227,42.964,190.166,53.216,188.987
			L53.216,188.987z"/>
		<path fill-rule="evenodd" clip-rule="evenodd" fill="#FFFFFF" d="M28.759,192.183c0.258-0.199,0.563-0.376,0.897-0.536
			c6.481-0.543,12.105-0.922,8.199-0.428C35.537,191.512,32.184,191.83,28.759,192.183L28.759,192.183z"/>
		<path fill-rule="evenodd" clip-rule="evenodd" fill="#FBC29F" d="M49.042,199.868c0.054-0.11,0.038-0.262-0.055-0.44
			c-4.919-1.341-8.435-2.221-5.332-1.207C45.095,198.69,46.986,199.257,49.042,199.868L49.042,199.868z"/>
		<path fill-rule="evenodd" clip-rule="evenodd" fill="#72A858" d="M21.976,192.576l6.508,1.661c0.42,0.106,0.904,0.014,1.166-0.339
			c0.077-0.104-0.326-0.423-0.239-0.543c0.221-0.306,0.614-0.582,0.304-0.668c-0.59-0.146-0.763-0.327,0-0.577
			c0.397-0.226,0.369-0.408-0.084-0.541c-0.345-0.076-0.598-0.167-0.137-0.406c0.511-0.318,0.454-0.418-0.171-0.295
			c-0.203-0.269-0.482-0.409-0.838-0.324l-6.471,1.54C21.58,192.187,21.556,192.47,21.976,192.576L21.976,192.576z"/>
		<path fill-rule="evenodd" clip-rule="evenodd" fill="#FFFFFF" d="M29.375,194.139c0.105-0.06,0.199-0.14,0.274-0.24
			c0.077-0.104-0.326-0.423-0.239-0.543c0.109-0.152,0.262-0.297,0.35-0.415l-7.714-0.515L29.375,194.139L29.375,194.139z"/>
		<path fill-rule="evenodd" clip-rule="evenodd" fill="#5CA047" d="M29.991,191.807c-0.013-0.091-0.133-0.171-0.361-0.237
			c-0.345-0.076-0.598-0.167-0.137-0.406c0.511-0.318,0.454-0.418-0.171-0.295c-0.046-0.062-0.098-0.116-0.152-0.163l-7.124,1.615
			L29.991,191.807L29.991,191.807z"/>
		<path fill-rule="evenodd" clip-rule="evenodd" fill="#FBC29F" d="M42.633,191.582c-0.311-0.159-0.661-0.289-1.034-0.398
			c-6.504,0.389-12.121,0.817-8.153,0.745C35.801,191.887,39.177,191.723,42.633,191.582L42.633,191.582z"/>
		<path fill-rule="evenodd" clip-rule="evenodd" fill="#FBC29F" d="M47.797,185.745c1.232-0.342,1.153,0.029-0.673,0.679
			c-6.07,1.684-11.371,3.055-7.773,1.879C41.486,187.605,44.612,186.698,47.797,185.745L47.797,185.745z"/>
		<ellipse fill-rule="evenodd" clip-rule="evenodd" fill="#FFFFFF" cx="21.944" cy="192.346" rx="0.19" ry="0.175"/>
		
			<linearGradient id="SVGID_18_" gradientUnits="userSpaceOnUse" x1="-761.7305" y1="734.7324" x2="-745.6074" y2="734.7324" gradientTransform="matrix(0 -0.9595 1.3682 0 -787.6837 -530.8168)">
			<stop  offset="0" style="stop-color:#C7C7C7"/>
			<stop  offset="0.19" style="stop-color:#EEEEEE"/>
			<stop  offset="0.88" style="stop-color:#999999"/>
			<stop  offset="1" style="stop-color:#C7C7C7"/>
		</linearGradient>
		<path fill-rule="evenodd" clip-rule="evenodd" fill="url(#SVGID_18_)" d="M214.301,184.593h4.645c1.049,0,1.907,0.741,1.907,1.648
			v12.173c0,0.907-0.858,1.649-1.907,1.649h-4.645V184.593L214.301,184.593z"/>
		<rect x="209.722" y="195.687" fill-rule="evenodd" clip-rule="evenodd" fill="#7EAE66" width="0.351" height="4.373"/>
		<rect x="209.722" y="188.802" fill-rule="evenodd" clip-rule="evenodd" fill="#7EAE66" width="0.351" height="6.919"/>
		<rect x="209.722" y="184.593" fill-rule="evenodd" clip-rule="evenodd" fill="#7EAE66" width="0.351" height="4.232"/>
		<rect x="214.301" y="195.687" fill-rule="evenodd" clip-rule="evenodd" fill="#FFFFFF" width="0.351" height="4.373"/>
		<rect x="214.301" y="188.802" fill-rule="evenodd" clip-rule="evenodd" fill="#FFFFFF" width="0.351" height="6.919"/>
		<rect x="214.301" y="184.593" fill-rule="evenodd" clip-rule="evenodd" fill="#FFFFFF" width="0.351" height="4.232"/>
		<g>
			
				<linearGradient id="SVGID_19_" gradientUnits="userSpaceOnUse" x1="-741.5996" y1="790.626" x2="-737.832" y2="790.626" gradientTransform="matrix(0 -1.1609 1.6144 0 -1064.1987 -660.8658)">
				<stop  offset="0" style="stop-color:#F89F6F"/>
				<stop  offset="0.58" style="stop-color:#F9AB7E"/>
				<stop  offset="0.87" style="stop-color:#FFFFFF"/>
				<stop  offset="0.95" style="stop-color:#F8A475"/>
				<stop  offset="1" style="stop-color:#F89F6F"/>
			</linearGradient>
			<rect x="210.072" y="195.684" fill-rule="evenodd" clip-rule="evenodd" fill="url(#SVGID_19_)" width="4.229" height="4.374"/>
			
				<linearGradient id="SVGID_20_" gradientUnits="userSpaceOnUse" x1="-620.5996" y1="790.625" x2="-616.832" y2="790.625" gradientTransform="matrix(0 1.8365 1.6144 0 -1064.1987 1328.5303)">
				<stop  offset="0" style="stop-color:#F89F6F"/>
				<stop  offset="0.19" style="stop-color:#F16624"/>
				<stop  offset="0.41" style="stop-color:#F16624"/>
				<stop  offset="0.78" style="stop-color:#F16624"/>
				<stop  offset="1" style="stop-color:#F89F6F"/>
			</linearGradient>
			<rect x="210.072" y="188.8" fill-rule="evenodd" clip-rule="evenodd" fill="url(#SVGID_20_)" width="4.229" height="6.919"/>
			
				<linearGradient id="SVGID_21_" gradientUnits="userSpaceOnUse" x1="-774.1294" y1="790.625" x2="-770.3618" y2="790.625" gradientTransform="matrix(0 -1.1234 1.6144 0 -1064.1987 -680.8345)">
				<stop  offset="0" style="stop-color:#F89F6F"/>
				<stop  offset="1" style="stop-color:#662F90"/>
			</linearGradient>
			<rect x="210.072" y="184.59" fill-rule="evenodd" clip-rule="evenodd" fill="url(#SVGID_21_)" width="4.229" height="4.232"/>
		</g>
	</g>
	<g>
		<polygon fill-rule="evenodd" clip-rule="evenodd" fill="#F16624" points="59.998,73.5 59.998,69.162 78.534,69.162 79.614,73.5 
			59.998,73.5 		"/>
		
			<linearGradient id="SVGID_22_" gradientUnits="userSpaceOnUse" x1="-1097.5308" y1="1090.5254" x2="-1101.0815" y2="1090.5254" gradientTransform="matrix(0 -1.2219 1.2605 0 -1304.8019 -1283.0403)">
			<stop  offset="0" style="stop-color:#F26C29"/>
			<stop  offset="0.14" style="stop-color:#F16624"/>
			<stop  offset="1" style="stop-color:#F16624"/>
		</linearGradient>
		<polygon fill-rule="evenodd" clip-rule="evenodd" fill="url(#SVGID_22_)" points="59.998,58.033 59.998,62.372 78.534,62.372 
			79.614,58.033 59.998,58.033 		"/>
		
			<linearGradient id="SVGID_23_" gradientUnits="userSpaceOnUse" x1="-1568.3838" y1="1089.7539" x2="-1555.7246" y2="1089.7539" gradientTransform="matrix(0 -0.5364 1.2623 0 -1306.3311 -772.1184)">
			<stop  offset="0" style="stop-color:#F16624"/>
			<stop  offset="0.19" style="stop-color:#F16624"/>
			<stop  offset="0.41" style="stop-color:#F16624"/>
			<stop  offset="0.78" style="stop-color:#F16624"/>
			<stop  offset="1" style="stop-color:#F26C29"/>
		</linearGradient>
		<rect x="59.998" y="62.372" fill-rule="evenodd" clip-rule="evenodd" fill="url(#SVGID_23_)" width="18.536" height="6.79"/>
	</g>
	<g>
		<polygon fill-rule="evenodd" clip-rule="evenodd" fill="#01A64F" points="59.998,200.06 59.998,195.721 78.534,195.721 
			79.614,200.06 59.998,200.06 		"/>
		
			<linearGradient id="SVGID_24_" gradientUnits="userSpaceOnUse" x1="-777.4629" y1="1090.5244" x2="-781.0132" y2="1090.5244" gradientTransform="matrix(0 -1.2219 1.2605 0 -1304.8019 -765.3899)">
			<stop  offset="0" style="stop-color:#028C45"/>
			<stop  offset="0.14" style="stop-color:#008040"/>
			<stop  offset="1" style="stop-color:#03582D"/>
		</linearGradient>
		<polygon fill-rule="evenodd" clip-rule="evenodd" fill="url(#SVGID_24_)" points="59.998,184.593 59.998,188.931 78.534,188.931 
			79.614,184.593 59.998,184.593 		"/>
		
			<linearGradient id="SVGID_25_" gradientUnits="userSpaceOnUse" x1="-839.2773" y1="1089.7539" x2="-826.6191" y2="1089.7539" gradientTransform="matrix(0 -0.5364 1.2623 0 -1306.3311 -254.468)">
			<stop  offset="0" style="stop-color:#01A64F"/>
			<stop  offset="0.19" style="stop-color:#0B4B25"/>
			<stop  offset="0.41" style="stop-color:#028C45"/>
			<stop  offset="0.78" style="stop-color:#01A64F"/>
			<stop  offset="1" style="stop-color:#028C45"/>
		</linearGradient>
		<rect x="59.998" y="188.931" fill-rule="evenodd" clip-rule="evenodd" fill="url(#SVGID_25_)" width="18.536" height="6.79"/>
	</g>
	<g>
		
			<linearGradient id="SVGID_26_" gradientUnits="userSpaceOnUse" x1="-684.6211" y1="1105.8418" x2="-673.1455" y2="1105.8418" gradientTransform="matrix(-0.6056 0 0 -0.8266 -344.1857 1045.2856)">
			<stop  offset="0" style="stop-color:#AE97C7"/>
			<stop  offset="0.19" style="stop-color:#662F90"/>
			<stop  offset="0.78" style="stop-color:#AE97C7"/>
			<stop  offset="1" style="stop-color:#AE97C7"/>
		</linearGradient>
		<polygon fill-rule="evenodd" clip-rule="evenodd" fill="url(#SVGID_26_)" points="70.42,211.232 63.471,211.232 63.471,51.159 
			70.42,51.159 70.42,211.232 		"/>
		
			<linearGradient id="SVGID_27_" gradientUnits="userSpaceOnUse" x1="-723.0449" y1="1086.9062" x2="-718.5225" y2="1086.9062" gradientTransform="matrix(-0.9595 0 0 -1.3097 -630.184 1554.717)">
			<stop  offset="0" style="stop-color:#AE97C7"/>
			<stop  offset="0.14" style="stop-color:#8B68AB"/>
			<stop  offset="1" style="stop-color:#662F90"/>
		</linearGradient>
		<polygon fill-rule="evenodd" clip-rule="evenodd" fill="url(#SVGID_27_)" points="59.238,203.568 63.577,211.232 63.577,51.159 
			59.238,51.159 59.238,203.568 		"/>
		<polygon fill-rule="evenodd" clip-rule="evenodd" fill="#AE97C7" points="70.367,211.232 74.706,205.345 74.706,51.159 
			70.367,51.159 70.367,211.232 		"/>
		
			<linearGradient id="SVGID_28_" gradientUnits="userSpaceOnUse" x1="-693.6147" y1="1071.7197" x2="-693.6147" y2="1094.5889" gradientTransform="matrix(-0.9595 0 0 -1.3097 -598.5511 1634.3284)">
			<stop  offset="0" style="stop-color:#FEE2D0"/>
			<stop  offset="0.73" style="stop-color:#FBC4A1"/>
			<stop  offset="1" style="stop-color:#FAB48B"/>
		</linearGradient>
		<path fill-rule="evenodd" clip-rule="evenodd" fill="url(#SVGID_28_)" d="M66.972,230.696l7.663-25.119
			c0.316-1.035-0.456-1.223-1.352-0.038c-0.696,0.921-1.048,3.626-1.844,3.403c-0.746-0.209,0.292-8.349-1.019-7.714
			c-2.065,0.999-2.337,6.269-3.526,6.217c-1.46-0.063-1.054-6.679-3.423-6.701c-1.555-0.015-0.403,7.464-1.463,6.899
			c-0.487-0.259-0.971-2.015-1.264-2.86c-0.859-2.477-1.75-1.914-1.444-0.851L66.972,230.696L66.972,230.696z"/>
		<path fill-rule="evenodd" clip-rule="evenodd" fill="#FBC29F" d="M71.135,206.74c-0.012-2.428,0.164-5.937-0.715-5.512
			c-0.308,0.149-0.576,0.394-0.813,0.701c-0.289,1.469-0.576,3.078-0.847,4.771c-1.151,7.187-1.575,13.166-0.946,13.354
			c0.627,0.188,2.07-5.489,3.22-12.676C71.068,207.165,71.102,206.952,71.135,206.74L71.135,206.74z"/>
		<path fill-rule="evenodd" clip-rule="evenodd" fill="#FBC29F" d="M68.763,224.826l5.872-19.249
			c0.316-1.035-0.456-1.223-1.352-0.038c-0.591,0.782-0.934,2.849-1.511,3.319l-3.627,15.546L68.763,224.826L68.763,224.826z"/>
		<path fill-rule="evenodd" clip-rule="evenodd" fill="#F68D56" d="M62.453,206.909c-0.069,0.555-0.196,0.867-0.445,0.734
			c-0.487-0.259-0.971-2.015-1.264-2.86c-0.859-2.477-1.75-1.914-1.444-0.851l6.014,20.979l0.729-0.391L62.453,206.909
			L62.453,206.909z"/>
		<path fill-rule="evenodd" clip-rule="evenodd" fill="#F68D56" d="M71.019,202.083c-0.095-0.612-0.263-0.972-0.554-0.872
			c-1.046,6.988-2.353,18.102-1.37,12.329C69.792,209.45,70.061,207.073,71.019,202.083L71.019,202.083z"/>
		<path fill-rule="evenodd" clip-rule="evenodd" fill="#FDD5BA" d="M69.684,201.834c-0.202,0.243-0.382,0.531-0.546,0.848
			c-0.611,6.192-1.048,11.567-0.514,7.839C68.941,208.309,69.295,205.105,69.684,201.834L69.684,201.834z"/>
		<path fill-rule="evenodd" clip-rule="evenodd" fill="#F68D56" d="M63.633,200.758c-0.053-0.008-0.106-0.013-0.162-0.014
			c-0.186-0.002-0.332,0.104-0.449,0.29c0.964,6.42,1.155,7.381,1.863,12.36C65.872,220.348,64.812,210.571,63.633,200.758
			L63.633,200.758z"/>
		<path fill-rule="evenodd" clip-rule="evenodd" fill="#FFFFFF" d="M66.829,224.169c-0.2-0.247-0.376-0.54-0.537-0.859
			c-0.543-6.204-0.921-11.588-0.427-7.849C66.157,217.68,66.476,220.89,66.829,224.169L66.829,224.169z"/>
		<path fill-rule="evenodd" clip-rule="evenodd" fill="#AE97C7" d="M67.223,230.661l1.66-6.229c0.107-0.402,0.015-0.866-0.339-1.116
			c-0.103-0.073-0.422,0.312-0.542,0.229c-0.306-0.211-0.583-0.587-0.669-0.291c-0.145,0.565-0.327,0.731-0.576,0
			c-0.226-0.381-0.409-0.354-0.541,0.081c-0.076,0.33-0.167,0.571-0.406,0.131c-0.319-0.489-0.418-0.435-0.295,0.164
			c-0.269,0.194-0.41,0.462-0.325,0.803l1.54,6.193C66.833,231.04,67.115,231.063,67.223,230.661L67.223,230.661z"/>
		<path fill-rule="evenodd" clip-rule="evenodd" fill="#FFFFFF" d="M68.785,223.578c-0.06-0.101-0.14-0.189-0.241-0.262
			c-0.103-0.073-0.422,0.312-0.542,0.229c-0.152-0.104-0.298-0.251-0.416-0.335l-0.514,7.384L68.785,223.578L68.785,223.578z"/>
		<path fill-rule="evenodd" clip-rule="evenodd" fill="#662F90" d="M66.453,222.989c-0.091,0.012-0.17,0.127-0.237,0.346
			c-0.076,0.33-0.167,0.571-0.406,0.131c-0.319-0.489-0.418-0.435-0.295,0.164c-0.062,0.045-0.117,0.094-0.164,0.146l1.616,6.818
			L66.453,222.989L66.453,222.989z"/>
		<path fill-rule="evenodd" clip-rule="evenodd" fill="#FBC29F" d="M66.228,210.888c-0.159,0.298-0.289,0.633-0.398,0.99
			c0.389,6.226,0.817,11.602,0.746,7.804C66.533,217.428,66.369,214.196,66.228,210.888L66.228,210.888z"/>
		<path fill-rule="evenodd" clip-rule="evenodd" fill="#FBC29F" d="M60.391,205.945c-0.342-1.18,0.029-1.104,0.679,0.644
			c1.684,5.811,3.054,10.885,1.879,7.44C62.252,211.985,61.344,208.993,60.391,205.945L60.391,205.945z"/>
		<ellipse fill-rule="evenodd" clip-rule="evenodd" fill="#FFFFFF" cx="66.992" cy="230.691" rx="0.175" ry="0.182"/>
		
			<linearGradient id="SVGID_29_" gradientUnits="userSpaceOnUse" x1="-675.7266" y1="640.1602" x2="-659.6025" y2="640.1602" gradientTransform="matrix(-0.9595 0 0 -1.3097 -573.6498 882.0588)">
			<stop  offset="0" style="stop-color:#C7C7C7"/>
			<stop  offset="0.19" style="stop-color:#EEEEEE"/>
			<stop  offset="0.88" style="stop-color:#999999"/>
			<stop  offset="1" style="stop-color:#C7C7C7"/>
		</linearGradient>
		<path fill-rule="evenodd" clip-rule="evenodd" fill="url(#SVGID_29_)" d="M59.238,46.775v-4.446c0-1.003,0.742-1.824,1.649-1.824
			H73.06c0.907,0,1.649,0.82,1.649,1.824v4.446H59.238L59.238,46.775z"/>
		<rect x="70.333" y="50.823" fill-rule="evenodd" clip-rule="evenodd" fill="#662F90" width="4.374" height="0.336"/>
		<rect x="63.448" y="50.823" fill-rule="evenodd" clip-rule="evenodd" fill="#662F90" width="6.918" height="0.336"/>
		<rect x="59.238" y="50.823" fill-rule="evenodd" clip-rule="evenodd" fill="#662F90" width="4.232" height="0.336"/>
		<rect x="70.333" y="46.44" fill-rule="evenodd" clip-rule="evenodd" fill="#FFFFFF" width="4.374" height="0.335"/>
		<rect x="63.448" y="46.44" fill-rule="evenodd" clip-rule="evenodd" fill="#FFFFFF" width="6.918" height="0.335"/>
		<rect x="59.238" y="46.44" fill-rule="evenodd" clip-rule="evenodd" fill="#FFFFFF" width="4.232" height="0.335"/>
		<g>
			
				<linearGradient id="SVGID_30_" gradientUnits="userSpaceOnUse" x1="-670.5181" y1="710.8662" x2="-666.751" y2="710.8662" gradientTransform="matrix(-1.1609 0 0 -1.5453 -703.7018 1147.3018)">
				<stop  offset="0" style="stop-color:#F89F6F"/>
				<stop  offset="0.58" style="stop-color:#F9AB7E"/>
				<stop  offset="0.87" style="stop-color:#FFFFFF"/>
				<stop  offset="0.95" style="stop-color:#F8A475"/>
				<stop  offset="1" style="stop-color:#F89F6F"/>
			</linearGradient>
			<rect x="70.33" y="46.775" fill-rule="evenodd" clip-rule="evenodd" fill="url(#SVGID_30_)" width="4.373" height="4.048"/>
			
				<linearGradient id="SVGID_31_" gradientUnits="userSpaceOnUse" x1="-665.5337" y1="710.8662" x2="-661.7661" y2="710.8662" gradientTransform="matrix(1.8365 0 0 -1.5453 1285.6982 1147.3018)">
				<stop  offset="0" style="stop-color:#F89F6F"/>
				<stop  offset="0.19" style="stop-color:#F16624"/>
				<stop  offset="0.41" style="stop-color:#F16624"/>
				<stop  offset="0.78" style="stop-color:#F16624"/>
				<stop  offset="1" style="stop-color:#F89F6F"/>
			</linearGradient>
			<rect x="63.445" y="46.775" fill-rule="evenodd" clip-rule="evenodd" fill="url(#SVGID_31_)" width="6.919" height="4.048"/>
			
				<linearGradient id="SVGID_32_" gradientUnits="userSpaceOnUse" x1="-700.6724" y1="710.8672" x2="-696.9048" y2="710.8672" gradientTransform="matrix(-1.1234 0 0 -1.5453 -723.6675 1147.3018)">
				<stop  offset="0" style="stop-color:#F89F6F"/>
				<stop  offset="1" style="stop-color:#5CA047"/>
			</linearGradient>
			<rect x="59.236" y="46.775" fill-rule="evenodd" clip-rule="evenodd" fill="url(#SVGID_32_)" width="4.232" height="4.048"/>
		</g>
	</g>
	
		<linearGradient id="SVGID_33_" gradientUnits="userSpaceOnUse" x1="-1568.3838" y1="749.8125" x2="-1555.7246" y2="749.8125" gradientTransform="matrix(0 -0.5364 1.129 0 -652.8199 -772.1184)">
		<stop  offset="0" style="stop-color:#F26C29"/>
		<stop  offset="0.14" style="stop-color:#F16624"/>
		<stop  offset="1" style="stop-color:#F16624"/>
	</linearGradient>
	<rect x="185.428" y="62.372" fill-rule="evenodd" clip-rule="evenodd" fill="url(#SVGID_33_)" width="16.578" height="6.79"/>
	<g>
		<path fill-rule="evenodd" clip-rule="evenodd" fill="#DDDDDD" d="M184.691,55.173c0.11,0.052,0.262,0.037,0.44-0.053
			c1.341-4.709,2.221-8.073,1.208-5.104C185.869,51.396,185.303,53.206,184.691,55.173L184.691,55.173z"/>
		
			<linearGradient id="SVGID_34_" gradientUnits="userSpaceOnUse" x1="-1278.1499" y1="1805.458" x2="-1266.6753" y2="1805.458" gradientTransform="matrix(0.6056 0 0 0.8266 962.8326 -1363.4642)">
			<stop  offset="0" style="stop-color:#C6C6C6"/>
			<stop  offset="0.19" style="stop-color:#878787"/>
			<stop  offset="0.78" style="stop-color:#C6C6C6"/>
			<stop  offset="1" style="stop-color:#C6C6C6"/>
		</linearGradient>
		<polygon fill-rule="evenodd" clip-rule="evenodd" fill="url(#SVGID_34_)" points="188.785,48.694 195.734,48.694 195.734,209.16 
			188.785,209.16 188.785,48.694 		"/>
		
			<linearGradient id="SVGID_35_" gradientUnits="userSpaceOnUse" x1="-1097.6562" y1="1528.4629" x2="-1093.1348" y2="1528.4629" gradientTransform="matrix(0.9595 0 0 1.3097 1248.83 -1872.9006)">
			<stop  offset="0" style="stop-color:#C6C6C6"/>
			<stop  offset="0.14" style="stop-color:#A5A5A5"/>
			<stop  offset="1" style="stop-color:#878787"/>
		</linearGradient>
		<polygon fill-rule="evenodd" clip-rule="evenodd" fill="url(#SVGID_35_)" points="199.967,56.358 195.629,48.694 195.629,209.16 
			199.967,209.16 199.967,56.358 		"/>
		<polygon fill-rule="evenodd" clip-rule="evenodd" fill="#C6C6C6" points="188.838,48.694 184.5,54.581 184.5,209.16 
			188.838,209.16 188.838,48.694 		"/>
		<path fill-rule="evenodd" clip-rule="evenodd" fill="#FDD5BA" d="M192.233,29.229l-7.663,25.119
			c-0.315,1.035,0.457,1.224,1.352,0.039c0.697-0.922,1.049-3.627,1.845-3.403c0.745,0.209-0.292,8.349,1.019,7.714
			c2.065-1,2.338-6.27,3.527-6.217c1.459,0.062,1.053,6.679,3.422,6.701c1.555,0.014,0.403-7.465,1.463-6.9
			c0.488,0.26,0.972,2.016,1.265,2.861c0.858,2.477,1.749,1.914,1.444,0.85L192.233,29.229L192.233,29.229z"/>
		<path fill-rule="evenodd" clip-rule="evenodd" fill="#FDD5BA" d="M188.07,53.187c0.013,2.428-0.163,5.937,0.715,5.512
			c0.309-0.149,0.576-0.395,0.814-0.701c0.289-1.469,0.576-3.078,0.847-4.771c1.15-7.187,1.574-13.166,0.946-13.354
			s-2.07,5.488-3.221,12.675C188.138,52.761,188.104,52.975,188.07,53.187L188.07,53.187z"/>
		<path fill-rule="evenodd" clip-rule="evenodd" fill="#FBC29F" d="M190.443,35.101l-5.873,19.248
			c-0.315,1.035,0.457,1.224,1.352,0.039c0.592-0.782,0.935-2.85,1.512-3.32l3.628-15.545L190.443,35.101L190.443,35.101z"/>
		<path fill-rule="evenodd" clip-rule="evenodd" fill="#FDD5BA" d="M196.752,53.018c0.069-0.556,0.196-0.868,0.445-0.735
			c0.488,0.26,0.972,2.016,1.265,2.861c0.858,2.477,1.749,1.914,1.444,0.85l-6.014-20.979l-0.729,0.391L196.752,53.018
			L196.752,53.018z"/>
		<path fill-rule="evenodd" clip-rule="evenodd" fill="#FDD5BA" d="M188.187,57.843c0.096,0.612,0.263,0.973,0.554,0.873
			c1.047-6.988,2.354-18.102,1.37-12.329C189.414,50.477,189.145,52.853,188.187,57.843L188.187,57.843z"/>
		<path fill-rule="evenodd" clip-rule="evenodd" fill="#FDD5BA" d="M189.521,58.093c0.203-0.243,0.383-0.531,0.547-0.848
			c0.611-6.193,1.048-11.568,0.514-7.84C190.265,51.618,189.91,54.821,189.521,58.093L189.521,58.093z"/>
		<path fill-rule="evenodd" clip-rule="evenodd" fill="#FDD5BA" d="M195.572,59.169c0.053,0.008,0.107,0.013,0.162,0.014
			c0.186,0.002,0.333-0.105,0.449-0.291c-0.963-6.419-1.154-7.381-1.862-12.359C193.334,39.579,194.394,49.355,195.572,59.169
			L195.572,59.169z"/>
		<path fill-rule="evenodd" clip-rule="evenodd" fill="#FDD5BA" d="M192.377,35.758c0.199,0.247,0.377,0.54,0.537,0.859
			c0.543,6.204,0.92,11.587,0.428,7.849C193.049,42.247,192.729,39.036,192.377,35.758L192.377,35.758z"/>
		<path fill-rule="evenodd" clip-rule="evenodd" fill="#C6C6C6" d="M191.982,29.265l-1.66,6.229
			c-0.107,0.401-0.014,0.866,0.34,1.116c0.103,0.072,0.422-0.312,0.541-0.229c0.307,0.211,0.583,0.586,0.67,0.29
			c0.145-0.565,0.326-0.73,0.576,0.001c0.226,0.38,0.408,0.354,0.541-0.081c0.076-0.331,0.166-0.571,0.406-0.132
			c0.318,0.49,0.418,0.436,0.295-0.164c0.269-0.193,0.409-0.461,0.324-0.802l-1.539-6.194
			C192.373,28.886,192.09,28.863,191.982,29.265L191.982,29.265z"/>
		<path fill-rule="evenodd" clip-rule="evenodd" fill="#FFFFFF" d="M190.42,36.349c0.061,0.1,0.141,0.189,0.242,0.262
			c0.103,0.072,0.422-0.312,0.541-0.229c0.153,0.105,0.299,0.25,0.416,0.334l0.515-7.383L190.42,36.349L190.42,36.349z"/>
		<path fill-rule="evenodd" clip-rule="evenodd" fill="#878787" d="M192.753,36.938c0.091-0.014,0.171-0.129,0.237-0.347
			c0.076-0.331,0.166-0.571,0.406-0.132c0.318,0.49,0.418,0.436,0.295-0.164c0.062-0.044,0.116-0.093,0.164-0.145l-1.617-6.818
			L192.753,36.938L192.753,36.938z"/>
		<path fill-rule="evenodd" clip-rule="evenodd" fill="#F68D56" d="M192.979,49.038c0.158-0.297,0.288-0.632,0.397-0.989
			c-0.389-6.226-0.817-11.603-0.745-7.804C192.673,42.499,192.837,45.729,192.979,49.038L192.979,49.038z"/>
		<path fill-rule="evenodd" clip-rule="evenodd" fill="#F68D56" d="M198.814,53.981c0.342,1.18-0.029,1.104-0.679-0.645
			c-1.684-5.811-3.055-10.884-1.88-7.439C196.954,47.94,197.861,50.934,198.814,53.981L198.814,53.981z"/>
		<ellipse fill-rule="evenodd" clip-rule="evenodd" fill="#FFFFFF" cx="192.214" cy="29.235" rx="0.175" ry="0.182"/>
		
			<linearGradient id="SVGID_36_" gradientUnits="userSpaceOnUse" x1="-1050.3394" y1="1080.6367" x2="-1034.2153" y2="1080.6367" gradientTransform="matrix(0.9595 0 0 1.3097 1192.2968 -1198.6311)">
			<stop  offset="0" style="stop-color:#C7C7C7"/>
			<stop  offset="0.19" style="stop-color:#EEEEEE"/>
			<stop  offset="0.88" style="stop-color:#999999"/>
			<stop  offset="1" style="stop-color:#C7C7C7"/>
		</linearGradient>
		<path fill-rule="evenodd" clip-rule="evenodd" fill="url(#SVGID_36_)" d="M199.967,213.544v4.446c0,1.003-0.742,1.825-1.648,1.825
			h-12.173c-0.907,0-1.649-0.821-1.649-1.825v-4.446H199.967L199.967,213.544z"/>
		<rect x="184.5" y="209.16" fill-rule="evenodd" clip-rule="evenodd" fill="#919191" width="4.373" height="0.336"/>
		<rect x="188.839" y="209.16" fill-rule="evenodd" clip-rule="evenodd" fill="#919191" width="6.919" height="0.336"/>
		<rect x="195.734" y="209.16" fill-rule="evenodd" clip-rule="evenodd" fill="#919191" width="4.232" height="0.336"/>
		<rect x="184.5" y="213.544" fill-rule="evenodd" clip-rule="evenodd" fill="#575757" width="4.373" height="0.336"/>
		<rect x="188.839" y="213.544" fill-rule="evenodd" clip-rule="evenodd" fill="#575757" width="6.919" height="0.336"/>
		<rect x="195.734" y="213.544" fill-rule="evenodd" clip-rule="evenodd" fill="#575757" width="4.232" height="0.336"/>
		<g>
			
				<linearGradient id="SVGID_37_" gradientUnits="userSpaceOnUse" x1="-980.1406" y1="1084.1855" x2="-976.3726" y2="1084.1855" gradientTransform="matrix(1.1609 0 0 1.5453 1322.3473 -1463.8721)">
				<stop  offset="0" style="stop-color:#C6C6C6"/>
				<stop  offset="0.58" style="stop-color:#CBCBCB"/>
				<stop  offset="0.87" style="stop-color:#FFFFFF"/>
				<stop  offset="0.95" style="stop-color:#C8C8C8"/>
				<stop  offset="1" style="stop-color:#C6C6C6"/>
			</linearGradient>
			<rect x="184.502" y="209.496" fill-rule="evenodd" clip-rule="evenodd" fill="url(#SVGID_37_)" width="4.374" height="4.048"/>
			
				<linearGradient id="SVGID_38_" gradientUnits="userSpaceOnUse" x1="-469.813" y1="1084.1855" x2="-466.0464" y2="1084.1855" gradientTransform="matrix(-1.8365 0 0 1.5453 -667.0518 -1463.8721)">
				<stop  offset="0" style="stop-color:#C6C6C6"/>
				<stop  offset="0.19" style="stop-color:#989898"/>
				<stop  offset="0.41" style="stop-color:#989898"/>
				<stop  offset="0.78" style="stop-color:#989898"/>
				<stop  offset="1" style="stop-color:#C6C6C6"/>
			</linearGradient>
			<rect x="188.842" y="209.496" fill-rule="evenodd" clip-rule="evenodd" fill="url(#SVGID_38_)" width="6.918" height="4.048"/>
			
				<linearGradient id="SVGID_39_" gradientUnits="userSpaceOnUse" x1="-1020.6309" y1="1084.1855" x2="-1016.8633" y2="1084.1855" gradientTransform="matrix(1.1234 0 0 1.5453 1342.314 -1463.8721)">
				<stop  offset="0" style="stop-color:#C6C6C6"/>
				<stop  offset="1" style="stop-color:#000000"/>
			</linearGradient>
			<rect x="195.737" y="209.496" fill-rule="evenodd" clip-rule="evenodd" fill="url(#SVGID_39_)" width="4.232" height="4.048"/>
		</g>
	</g>
	
		<polygon fill-rule="evenodd" clip-rule="evenodd" fill="#FDF389" stroke="#FDF389" stroke-width="0.0528" stroke-linecap="round" stroke-linejoin="round" stroke-miterlimit="2.4142" points="
		145.699,238.976 143.508,229.432 143.59,230.562 145.546,239.7 145.699,238.976 	"/>
	<ellipse fill-rule="evenodd" clip-rule="evenodd" fill="#F2D8AF" cx="204.93" cy="126.227" rx="0.25" ry="1.417"/>
	<ellipse fill-rule="evenodd" clip-rule="evenodd" fill="#FDF389" cx="212.611" cy="135" rx="0.5" ry="0.999"/>
	<ellipse fill-rule="evenodd" clip-rule="evenodd" fill="#FDF389" cx="213.707" cy="135.68" rx="0.242" ry="0.376"/>
</g>
<text transform="matrix(1 0 0 1 84.5605 142.5889)" fill="#FFFFFF" font-family="'TrebuchetMS-Bold'" font-size="48.8975">VAK</text>
</svg>
