<?xml version="1.0" encoding="utf-8"?>
<!-- Generator: Adobe Illustrator 16.0.0, SVG Export Plug-In . SVG Version: 6.00 Build 0)  -->
<!DOCTYPE svg PUBLIC "-//W3C//DTD SVG 1.1//EN" "http://www.w3.org/Graphics/SVG/1.1/DTD/svg11.dtd">
<svg version="1.1" id="Layer_1" xmlns="http://www.w3.org/2000/svg" xmlns:xlink="http://www.w3.org/1999/xlink" x="0px" y="0px"
	 width="256px" height="256px" viewBox="0 0 256 256" enable-background="new 0 0 256 256" xml:space="preserve">
<g>
	<linearGradient id="SVGID_1_" gradientUnits="userSpaceOnUse" x1="96.6953" y1="149.5215" x2="114.7368" y2="149.5215">
		<stop  offset="0.0056" style="stop-color:#BEC0C2"/>
		<stop  offset="0.5393" style="stop-color:#EBEBEC"/>
		<stop  offset="1" style="stop-color:#737577"/>
	</linearGradient>
	<path fill="url(#SVGID_1_)" d="M99.484,54.85l-2.789,191.684h18.042l-3.06-191.684c0,0-0.546-2.34-5.909-2.34
		C100.404,52.51,99.484,54.85,99.484,54.85z"/>
	<linearGradient id="SVGID_2_" gradientUnits="userSpaceOnUse" x1="96.9897" y1="118.9932" x2="114.5747" y2="118.9932">
		<stop  offset="0.0056" style="stop-color:#BEC0C2"/>
		<stop  offset="0.5393" style="stop-color:#B3B5B8"/>
		<stop  offset="1" style="stop-color:#737577"/>
	</linearGradient>
	<path fill="url(#SVGID_2_)" d="M112.661,10.014c-3.643-0.54-14.107-2.32-14.062,10.193L96.99,216.156
		c0.728-2.695,2.568-6.123,6.763-5.752c5.876,0.517,9.833,15.507,10.822,17.973L112.661,10.014z"/>
	<g>
		<g>
			<g>
				<path fill="#E6E7E8" d="M47.276,61.104c-1.368-3.39-7.57-18.927-7.947-20.06c-0.374-1.13-0.692-2.596,1.008-3.79
					c1.698-1.195,19.653-14.652,19.653-14.652s1.563-1.354,4.023-1.106c2.118,0.213,77.799,8.585,99.014,10.934
					c3.463,0.383,4.966,2.89,4.966,2.89l-1.506,7.006l-7.021,39.733L53.984,65.446C53.984,65.446,48.646,64.492,47.276,61.104z"/>
				
					<linearGradient id="SVGID_3_" gradientUnits="userSpaceOnUse" x1="-296.6172" y1="162.7783" x2="-296.6172" y2="90.6719" gradientTransform="matrix(0.9278 0.3732 -0.3732 0.9278 436.1608 44.2742)">
					<stop  offset="0" style="stop-color:#6D6E71"/>
					<stop  offset="0.3022" style="stop-color:#808285"/>
					<stop  offset="0.3626" style="stop-color:#F3F4F4"/>
					<stop  offset="0.4231" style="stop-color:#EBEBEC"/>
					<stop  offset="0.8462" style="stop-color:#E6E7E8"/>
					<stop  offset="0.9286" style="stop-color:#FFFFFF"/>
				</linearGradient>
				<path fill="url(#SVGID_3_)" d="M155.872,83.364c0,0-95.74-16.409-99.255-17.018c-5.061-0.875-6.075-1.656-8.069-3.438
					c0.515,0.39,0.788,0.71,2.756,1.09c1.72,0.332,73.52,11.547,93.71,14.702c3.293,0.513,6.095-0.857,7.773-5.029
					c3.985-9.911,12.601-31.934,13.671-34.819c1.417-3.829,0.094-4.785-0.964-5.716l10.08,4.591
					c1.832,1.098,2.469,2.602,1.249,5.571c-1.463,3.562-13.301,34.033-13.301,34.033C162.07,80.942,159.953,84.416,155.872,83.364z"
					/>
			</g>
			
				<linearGradient id="SVGID_4_" gradientUnits="userSpaceOnUse" x1="-368.8667" y1="126.3965" x2="-254.8018" y2="126.3965" gradientTransform="matrix(0.9278 0.3732 -0.3732 0.9278 436.1608 44.2742)">
				<stop  offset="0" style="stop-color:#C6D7B8"/>
				<stop  offset="1" style="stop-color:#7DAE65"/>
			</linearGradient>
			<path fill="url(#SVGID_4_)" d="M64.653,22.703c1.892,0.192,79.971,9.283,97.432,11.194c3.501,0.384,2.036,3.875,2.036,3.875
				l-13.917,34.596c-0.636,1.514-2.457,4.581-6.318,3.967C125.434,73.4,55.639,63.016,52.988,62.569
				c-3.056-0.516-4.314-1.218-5.339-4.012c-1.027-2.791-6.882-17.23-6.882-17.23s-1.064-2.121,0.898-3.516
				c1.964-1.392,16.856-12.858,18.147-13.727C61.106,23.215,62.519,22.485,64.653,22.703z"/>
			
				<linearGradient id="SVGID_5_" gradientUnits="userSpaceOnUse" x1="499.248" y1="118.5195" x2="613.3125" y2="118.5195" gradientTransform="matrix(-0.9278 -0.3732 -0.3732 0.9278 662.854 135.7601)">
				<stop  offset="0.0051" style="stop-color:#006B94"/>
				<stop  offset="1" style="stop-color:#0097D0"/>
			</linearGradient>
			<path fill="url(#SVGID_5_)" d="M164.121,37.772c0,0,1.465-3.491-2.036-3.875c-17.46-1.911-95.54-11.002-97.432-11.194
				c-2.135-0.218-3.547,0.512-4.841,1.382c-1.292,0.868-16.184,12.335-18.147,13.727c-1.962,1.395-0.898,3.516-0.898,3.516
				s0.053,0.132,0.148,0.369c-0.083-0.579-0.069-1.716,1.055-2.552c1.57-1.168,19.187-14.515,19.187-14.515s1.41-0.973,3.387-0.78
				c1.806,0.176,84.344,10.383,98.235,12.102c1.696,0.16,1.164,2.184,1.072,2.49L164.121,37.772z"/>
		</g>
	</g>
	<g>
		<g>
			
				<linearGradient id="SVGID_6_" gradientUnits="userSpaceOnUse" x1="61.3896" y1="250.5898" x2="76.7629" y2="141.2034" gradientTransform="matrix(0.9922 0.1244 -0.1244 0.9922 92.7185 -5.3354)">
				<stop  offset="0" style="stop-color:#6D6E71"/>
				<stop  offset="0.3956" style="stop-color:#808285"/>
				<stop  offset="0.4615" style="stop-color:#F3F4F4"/>
				<stop  offset="0.5275" style="stop-color:#EBEBEC"/>
				<stop  offset="0.6868" style="stop-color:#D1D3D4"/>
				<stop  offset="0.7747" style="stop-color:#FFFFFF"/>
			</linearGradient>
			<path fill="url(#SVGID_6_)" d="M231.77,187.789c0,0-19.44-23.537-20.614-24.887c-1.179-1.355-2.484-3.3-4.452-3.564
				c-1.967-0.267-10.637-1.384-10.637-1.384c1.968,0.494,2.67,1.029,4.918,3.869c1.504,1.906,18.878,23.548,18.878,23.548
				c1.433,1.783,1.757,5.365-0.596,7.463c-7.919,7.104-25.111,22.782-26.08,23.68c-2.558,2.374-4.94,3.124-8.198,3.365
				c-2.197,0.159-128.791,6.188-147.716,7.148c-0.835,0.028-1.379,0.056-2.21-0.22c0,0,2.436,0.989,3.282,1.323
				c0.847,0.335,2.116,0.567,3.697,0.542c1.584-0.033,145.857-3.693,153.666-4.01c2.405-0.096,4.623-1.115,6.259-2.606
				c0.895-0.815,21.283-20.63,29.343-28.297C232.707,192.526,233.072,189.229,231.77,187.789z"/>
			<path fill="#E6E7E8" d="M37.272,227.027c18.925-0.961,145.519-6.989,147.716-7.148c3.258-0.241,5.641-0.991,8.198-3.365
				c0.969-0.897,18.161-16.576,26.08-23.68c2.353-2.098,2.028-5.68,0.596-7.463c0,0-17.374-21.642-18.878-23.548
				c-2.205-2.786-2.925-3.353-4.807-3.839c-0.514-0.054-1.222-0.059-2.146,0.104c-22.643,4.003-154.371,28.292-155.34,28.465
				c-1.057,0.188-2.008,1.098-2.099,2.346c-0.555,7.634-2.507,34.865-2.572,35.754c-0.085,1.177,0.378,1.844,1.078,2.163
				C35.907,227.079,36.451,227.054,37.272,227.027z"/>
			
				<linearGradient id="SVGID_7_" gradientUnits="userSpaceOnUse" x1="146.8477" y1="193.999" x2="-29.8379" y2="193.999" gradientTransform="matrix(0.9922 0.1244 -0.1244 0.9922 92.7185 -5.3354)">
				<stop  offset="0.221" style="stop-color:#8B6CA8"/>
				<stop  offset="0.8911" style="stop-color:#BEB4CC"/>
			</linearGradient>
			<path fill="url(#SVGID_7_)" d="M39.99,188.044c1.266-0.226,134.765-23.562,153.615-26.796c1.622-0.279,2.728,0.286,3.602,1.438
				l18.275,23.013c0.912,1.389,1.688,4.182-0.756,6.269c-7.428,6.388-24.044,21.588-25.14,22.566
				c-1.399,1.254-2.291,1.899-4.737,2.042c-2.276,0.132-130.089,7.343-147.442,8.368c-2.228,0.132-1.814-1.31-1.831-1.69
				c0,0,2.473-31.877,2.569-33.115C38.243,188.898,38.63,188.289,39.99,188.044z"/>
			<polygon fill="#8A8C8E" points="39.576,189.638 197.59,163.163 195.76,160.887 38.287,188.356 35.438,225.059 36.808,224.977 			
				"/>
		</g>
	</g>
	<g>
		<g>
			<g>
				<path fill="#E6E7E8" d="M160.952,150.139c2.856-2.969,15.876-16.605,16.746-17.633c0.867-1.023,1.814-2.422,0.54-4.387
					c-1.272-1.963-14.387-23.588-14.387-23.588s-1.064-2.073-3.741-2.85c-2.305-0.668-84.962-23.745-108.13-30.213
					C48.196,70.413,45.57,72.4,45.57,72.4l-1.37,7.958l-9.372,44.501l117.282,26.999
					C152.11,151.858,158.095,153.106,160.952,150.139z"/>
				
					<linearGradient id="SVGID_8_" gradientUnits="userSpaceOnUse" x1="149.4692" y1="152.4463" x2="149.4692" y2="71.1719" gradientTransform="matrix(-1 0 0 1 245.1885 0)">
					<stop  offset="0" style="stop-color:#6D6E71"/>
					<stop  offset="0.3022" style="stop-color:#808285"/>
					<stop  offset="0.3626" style="stop-color:#F3F4F4"/>
					<stop  offset="0.4231" style="stop-color:#EBEBEC"/>
					<stop  offset="0.8462" style="stop-color:#E6E7E8"/>
					<stop  offset="0.9286" style="stop-color:#FFFFFF"/>
				</linearGradient>
				<path fill="url(#SVGID_8_)" d="M38.038,127.738c0,0,107.009,23.111,110.941,23.954c5.661,1.214,7.05,0.822,9.884-0.2
					c-0.702,0.19-1.123,0.412-3.342-0.02c-1.937-0.375-81.732-18.849-104.169-24.043c-3.662-0.849-6.012-3.46-6.012-8.53
					c0-12.037,0.255-38.688,0.351-42.156c0.127-4.602,1.913-5.044,3.41-5.572l-12.47,0.562c-2.378,0.378-3.675,1.681-3.649,5.298
					c0.031,4.342-0.407,41.183-0.407,41.183C32.575,122.599,33.326,127.121,38.038,127.738z"/>
			</g>
			
				<linearGradient id="SVGID_9_" gradientUnits="userSpaceOnUse" x1="68.0371" y1="111.4385" x2="196.5996" y2="111.4385" gradientTransform="matrix(-1 0 0 1 245.1885 0)">
				<stop  offset="0" style="stop-color:#FDD7BF"/>
				<stop  offset="0.7418" style="stop-color:#F16624"/>
			</linearGradient>
			<path fill="url(#SVGID_9_)" d="M158.934,102.676c-2.061-0.595-87.527-23.929-106.588-29.275c-3.82-1.071-3.757,3.196-3.757,3.196
				v42.028c0.028,1.851,0.643,5.824,4.938,6.805c20.527,4.692,97.875,23.191,100.834,23.839c3.413,0.747,5.025,0.543,7.27-1.948
				c2.249-2.486,14.444-15.122,14.444-15.122s2.006-1.771,0.54-4.054c-1.468-2.281-12.216-20.536-13.202-21.987
				C162.428,104.705,161.256,103.348,158.934,102.676z"/>
			<linearGradient id="SVGID_10_" gradientUnits="userSpaceOnUse" x1="48.5889" y1="102.875" x2="177.1514" y2="102.875">
				<stop  offset="0.0051" style="stop-color:#006B94"/>
				<stop  offset="1" style="stop-color:#0097D0"/>
			</linearGradient>
			<path fill="url(#SVGID_10_)" d="M48.589,76.597c0,0-0.063-4.268,3.757-3.196c19.061,5.347,104.527,28.681,106.588,29.275
				c2.322,0.672,3.494,2.029,4.479,3.481c0.986,1.451,11.734,19.706,13.202,21.987c1.466,2.283-0.54,4.054-0.54,4.054
				s-0.111,0.115-0.309,0.323c0.329-0.571,0.793-1.765-0.03-3.111c-1.151-1.883-13.958-23.249-13.958-23.249
				s-1.064-1.608-3.212-2.238c-1.965-0.578-92.562-24.621-107.81-28.667c-1.84-0.546-2.134,1.794-2.167,2.153V76.597z"/>
		</g>
	</g>
</g>
</svg>
